<?xml version="1.0" encoding="UTF-8"?>
<svg xmlns="http://www.w3.org/2000/svg" xmlns:xlink="http://www.w3.org/1999/xlink" width="252.092pt" height="257.106pt" viewBox="0 0 252.092 257.106">
<path fill="none" stroke-width="1.19553" stroke-linecap="butt" stroke-linejoin="miter" stroke="rgb(0%, 62.745667%, 86.274719%)" stroke-opacity="1" stroke-miterlimit="10" d="M -0.00087452 -0.00177713 C -0.00087452 -0.00177713 0.0030458 -0.00177713 0.0030458 0.00214319 C 0.00696612 0.00214319 0.00696612 0.00214319 0.0148068 0.00214319 C 0.0187271 0.00606351 0.0265677 0.00606351 0.0344084 0.00998383 C 0.0461693 0.0139042 0.0618506 0.0178245 0.0775319 0.0256651 C 0.0932132 0.0295854 0.124576 0.0413464 0.152018 0.0531074 C 0.17946 0.0648683 0.230424 0.0844699 0.269628 0.104072 C 0.308831 0.123673 0.383317 0.162876 0.442122 0.194239 C 0.500926 0.225601 0.610695 0.280486 0.693022 0.33145 C 0.775349 0.378494 0.924321 0.464741 1.03409 0.535307 C 1.143859 0.605872 1.343795 0.731323 1.488847 0.829331 C 1.633899 0.927339 1.88872 1.103753 2.072975 1.237044 C 2.25723 1.366414 2.582616 1.609474 2.813915 1.781968 C 3.041294 1.954462 3.445087 2.268088 3.723429 2.491546 C 4.005692 2.715004 4.495732 3.110957 4.83288 3.389299 C 5.170027 3.667642 5.754155 4.161602 6.154028 4.50267 C 6.55782 4.847658 7.247797 5.443547 7.718235 5.855181 C 8.188673 6.266814 9.00018 6.984233 9.545104 7.466432 C 10.090029 7.952552 11.026985 8.78758 11.654236 9.348186 C 12.281487 9.908791 13.351735 10.86927 14.065233 11.508282 C 14.782651 12.147294 16.001871 13.237143 16.813377 13.950641 C 17.624883 14.668059 19.000915 15.875518 19.91435 16.663502 C 20.827784 17.451486 22.376311 18.776555 23.399514 19.631184 C 24.418797 20.485814 26.139818 21.90889 27.27671 22.822325 C 28.409683 23.731839 30.314958 25.237242 31.569461 26.1938 C 32.823963 27.150358 34.929175 28.722406 36.309127 29.706406 C 37.685159 30.694327 39.998148 32.301658 41.503551 33.297419 C 43.008954 34.2971 45.529719 35.916193 47.160572 36.900193 C 48.795346 37.888113 51.508207 39.460162 53.26451 40.41672 C 55.024734 41.369357 57.945372 42.87476 59.827125 43.772513 C 61.704959 44.666346 64.817692 46.05806 66.813135 46.873486 C 68.812498 47.684992 72.105567 48.923814 74.210779 49.625551 C 76.31207 50.327288 79.777633 51.374013 81.965171 51.938539 C 84.15663 52.499145 87.731961 53.287129 89.986145 53.683082 C 92.240329 54.082954 95.917589 54.588676 98.218817 54.796453 C 100.523965 55.00815 104.26395 55.200245 106.5887 55.204166 C 108.913449 55.208086 112.661275 55.047353 114.978184 54.831735 C 117.295093 54.612198 121.023317 54.090795 123.289262 53.636038 C 125.559127 53.181281 129.142299 52.248245 131.329838 51.550428 C 133.513456 50.852611 136.967257 49.543224 139.033266 48.602347 C 141.103195 47.665391 144.317857 45.963972 146.230973 44.791797 C 148.144089 43.619621 151.09609 41.549692 152.821031 40.157979 C 154.542051 38.766265 157.156904 36.355268 158.650546 34.763619 C 160.140268 33.171969 162.339567 30.447346 163.570547 28.679282 C 164.801528 26.915138 166.569592 23.943536 167.518309 22.038261 C 168.467027 20.132985 169.764653 16.957526 170.407585 14.946402 C 171.054438 12.935278 171.842422 9.622608 172.175649 7.548759 C 172.508876 5.47491 172.8029 2.095594 172.8029 -0.00177713 C 172.806821 -2.095228 172.508876 -5.474544 172.17957 -7.548393 C 171.846342 -9.622242 171.058358 -12.934912 170.407585 -14.942116 C 169.760732 -16.95324 168.459186 -20.128699 167.510469 -22.033974 C 166.561751 -23.93925 164.801528 -26.914772 163.570547 -28.678916 C 162.343487 -30.44698 160.140268 -33.167682 158.650546 -34.763252 C 157.156904 -36.354902 154.542051 -38.765899 152.821031 -40.157612 C 151.09609 -41.549326 148.144089 -43.619255 146.230973 -44.79143 C 144.317857 -45.963606 141.103195 -47.665025 139.033266 -48.605902 C 136.967257 -49.542858 133.513456 -50.852245 131.329838 -51.550062 C 129.142299 -52.247879 125.559127 -53.180915 123.289262 -53.635672 C 121.023317 -54.090429 117.295093 -54.611831 114.978184 -54.831369 C 112.665195 -55.050907 108.92129 -55.21164 106.59654 -55.20772 C 104.271791 -55.2038 100.531806 -55.011704 98.226657 -54.800007 C 95.921509 -54.58831 92.24425 -54.082588 89.986145 -53.682716 C 87.731961 -53.286763 84.15663 -52.502699 81.969091 -51.938173 C 79.777633 -51.373647 76.31207 -50.326922 74.210779 -49.625185 C 72.109487 -48.923447 68.816419 -47.688547 66.820976 -46.877041 C 64.825533 -46.065534 61.712799 -44.673821 59.834966 -43.776068 C 57.953213 -42.882235 55.028654 -41.368991 53.26843 -40.416354 C 51.512127 -39.463716 48.795346 -37.891668 47.164493 -36.903747 C 45.53364 -35.915826 43.012874 -34.296734 41.503551 -33.300973 C 39.998148 -32.301292 37.68908 -30.697881 36.313047 -29.70996 C 34.933095 -28.72596 32.823963 -27.149991 31.569461 -26.193433 C 30.314958 -25.236875 28.409683 -23.731473 27.27671 -22.821958 C 26.139818 -21.912444 24.418797 -20.485448 23.399514 -19.634739 C 22.376311 -18.780109 20.831705 -17.45112 19.91827 -16.663136 C 19.004836 -15.875152 17.624883 -14.667693 16.813377 -13.950275 C 16.001871 -13.236777 14.782651 -12.146928 14.065233 -11.507916 C 13.351735 -10.868904 12.281487 -9.912345 11.654236 -9.35174 C 11.026985 -8.787214 10.090029 -7.952186 9.545104 -7.469986 C 9.00018 -6.983867 8.188673 -6.266448 7.718235 -5.854815 C 7.247797 -5.447101 6.55782 -4.847292 6.154028 -4.502304 C 5.754155 -4.161236 5.170027 -3.667276 4.83288 -3.388933 C 4.495732 -3.110591 4.005692 -2.714638 3.723429 -2.49118 C 3.445087 -2.267722 3.041294 -1.954096 2.813915 -1.781602 C 2.582616 -1.609108 2.25723 -1.369969 2.076895 -1.236678 C 1.89264 -1.107307 1.633899 -0.926973 1.488847 -0.828965 C 1.343795 -0.730957 1.143859 -0.605506 1.03409 -0.534941 C 0.924321 -0.468295 0.775349 -0.378128 0.693022 -0.331084 C 0.610695 -0.28404 0.500926 -0.225235 0.442122 -0.193873 C 0.383317 -0.16251 0.308831 -0.127227 0.269628 -0.107626 C 0.230424 -0.0880242 0.17946 -0.0645022 0.152018 -0.0527413 C 0.124576 -0.0409803 0.0932132 -0.0292194 0.0775319 -0.025299 C 0.0618506 -0.0174584 0.0461693 -0.0135381 0.0344084 -0.00961776 C 0.0265677 -0.00569744 0.0187271 -0.00569744 0.0148068 -0.00177713 C 0.00696612 -0.00177713 0.00696612 -0.00177713 0.0030458 -0.00177713 C 0.0030458 -0.00177713 -0.00087452 -0.00177713 -0.00087452 -0.00177713 " transform="matrix(0.996411, 0, 0, -0.996411, 52.352434, 128.107604)"/>
<path fill="none" stroke-width="1.19553" stroke-linecap="butt" stroke-linejoin="miter" stroke="rgb(0%, 62.745667%, 86.274719%)" stroke-opacity="1" stroke-miterlimit="10" d="M -0.00087452 -0.00177713 C -0.00087452 -0.00177713 -0.00479484 -0.00177713 -0.00479484 -0.00177713 C -0.00479484 -0.00177713 -0.00479484 -0.00569744 -0.00871516 -0.00569744 C -0.00871516 -0.00569744 -0.0126355 -0.00569744 -0.0126355 -0.00961776 C -0.0165558 -0.00961776 -0.0204761 -0.0135381 -0.0243964 -0.0174584 C -0.0283168 -0.0174584 -0.0322371 -0.025299 -0.0400777 -0.0292194 C -0.043998 -0.0331397 -0.0518387 -0.03706 -0.0596793 -0.0449006 C -0.06752 -0.048821 -0.0832012 -0.0605819 -0.0910419 -0.0684226 C -0.102803 -0.0801835 -0.122404 -0.0958648 -0.138086 -0.107626 C -0.149847 -0.119387 -0.177289 -0.142909 -0.196891 -0.15859 C -0.216492 -0.174271 -0.251775 -0.205634 -0.279217 -0.229156 C -0.306659 -0.248757 -0.353703 -0.291881 -0.385066 -0.319323 C -0.420349 -0.350686 -0.483074 -0.40165 -0.526197 -0.440853 C -0.569321 -0.476136 -0.647727 -0.542781 -0.702612 -0.589825 C -0.757496 -0.636869 -0.855504 -0.719196 -0.92607 -0.77408 C -0.996636 -0.828965 -1.118166 -0.930893 -1.200492 -0.997538 C -1.286739 -1.064184 -1.435712 -1.181793 -1.53764 -1.2602 C -1.639568 -1.334686 -1.819903 -1.471897 -1.945353 -1.558144 C -2.066883 -1.648311 -2.282501 -1.801204 -2.427552 -1.899212 C -2.572604 -1.99722 -2.827425 -2.165794 -2.995999 -2.271642 C -3.164573 -2.381411 -3.458597 -2.561746 -3.654613 -2.675435 C -3.850629 -2.789124 -4.183856 -2.97338 -4.407314 -3.090989 C -4.630772 -3.208599 -5.011043 -3.400694 -5.261944 -3.518304 C -5.508924 -3.635914 -5.932318 -3.824089 -6.210661 -3.933858 C -6.485083 -4.047547 -6.951601 -4.223962 -7.249546 -4.32589 C -7.55141 -4.427818 -8.053211 -4.584631 -8.374678 -4.670878 C -8.696144 -4.761045 -9.233228 -4.890416 -9.574295 -4.957061 C -9.915363 -5.027627 -10.475969 -5.121715 -10.832718 -5.164838 C -11.185547 -5.207962 -11.765754 -5.262846 -12.126424 -5.274607 C -12.487093 -5.290288 -13.0673 -5.286368 -13.424049 -5.270687 C -13.780798 -5.251085 -14.357085 -5.196201 -14.705994 -5.141316 C -15.058823 -5.086432 -15.611588 -4.972743 -15.944815 -4.882575 C -16.274122 -4.792408 -16.795524 -4.619914 -17.101309 -4.494464 C -17.407094 -4.369013 -17.877533 -4.137714 -18.148035 -3.976981 C -18.418537 -3.816248 -18.82625 -3.530065 -19.049708 -3.34189 C -19.277087 -3.149794 -19.606394 -2.816567 -19.782808 -2.600949 C -19.959222 -2.385332 -20.202282 -2.016821 -20.323812 -1.781602 C -20.445342 -1.546383 -20.594314 -1.154351 -20.657039 -0.907371 C -20.719764 -0.656471 -20.774649 -0.252678 -20.774649 -0.00177713 C -20.774649 0.253044 -20.719764 0.656837 -20.657039 0.903817 C -20.594314 1.154717 -20.445342 1.546749 -20.323812 1.781968 C -20.198362 2.017188 -19.955302 2.385698 -19.778888 2.601315 C -19.602473 2.816933 -19.277087 3.15016 -19.049708 3.342256 C -18.82625 3.530431 -18.418537 3.816614 -18.148035 3.977347 C -17.877533 4.138081 -17.407094 4.369379 -17.101309 4.49483 C -16.795524 4.62028 -16.274122 4.792774 -15.944815 4.882941 C -15.611588 4.973109 -15.058823 5.086798 -14.705994 5.141682 C -14.357085 5.196567 -13.780798 5.251451 -13.424049 5.267133 C -13.0673 5.286734 -12.487093 5.290655 -12.126424 5.274973 C -11.765754 5.259292 -11.185547 5.208328 -10.832718 5.165204 C -10.475969 5.122081 -9.915363 5.027993 -9.574295 4.961348 C -9.233228 4.890782 -8.700064 4.761411 -8.374678 4.671244 C -8.053211 4.584997 -7.55141 4.428184 -7.249546 4.326256 C -6.951601 4.224328 -6.485083 4.047913 -6.210661 3.934224 C -5.932318 3.824455 -5.508924 3.632359 -5.261944 3.51867 C -5.011043 3.40106 -4.630772 3.208965 -4.407314 3.091355 C -4.183856 2.973746 -3.850629 2.789491 -3.654613 2.675801 C -3.458597 2.562112 -3.164573 2.381777 -2.995999 2.272008 C -2.827425 2.16616 -2.576525 2.001506 -2.427552 1.899578 C -2.282501 1.80157 -2.066883 1.648677 -1.945353 1.55851 C -1.819903 1.472263 -1.639568 1.335052 -1.53764 1.260566 C -1.435712 1.182159 -1.286739 1.06455 -1.200492 0.997904 C -1.118166 0.931259 -0.996636 0.829331 -0.92607 0.774446 C -0.855504 0.719562 -0.757496 0.637235 -0.702612 0.590191 C -0.647727 0.543147 -0.569321 0.476502 -0.526197 0.441219 C -0.483074 0.402016 -0.420349 0.351052 -0.385066 0.319689 C -0.353703 0.292247 -0.306659 0.249123 -0.279217 0.229522 C -0.251775 0.206 -0.216492 0.174637 -0.196891 0.158956 C -0.177289 0.143275 -0.149847 0.119753 -0.138086 0.107992 C -0.122404 0.0962309 -0.102803 0.0805496 -0.0910419 0.0687886 C -0.0832012 0.060948 -0.06752 0.049187 -0.0596793 0.0452667 C -0.0518387 0.0374261 -0.043998 0.0295854 -0.0400777 0.0256651 C -0.0322371 0.0217448 -0.0283168 0.0178245 -0.0243964 0.0178245 C -0.0204761 0.0139042 -0.0165558 0.00998383 -0.0126355 0.00998383 C -0.0126355 0.00606351 -0.00871516 0.00606351 -0.00871516 0.00606351 C -0.00479484 0.00214319 -0.00479484 0.00214319 -0.00479484 0.00214319 C -0.00479484 0.00214319 -0.00087452 0.00214319 -0.00087452 0.00214319 C -0.00087452 0.00214319 -0.00087452 -0.00177713 -0.00087452 -0.00177713 " transform="matrix(0.996411, 0, 0, -0.996411, 52.352434, 128.107604)"/>
<path fill="none" stroke-width="1.19553" stroke-linecap="butt" stroke-linejoin="miter" stroke="rgb(0%, 0%, 0%)" stroke-opacity="1" stroke-miterlimit="10" d="M 38.009125 128.555143 L 76.302809 128.555143 M 38.009125 108.134198 L 38.009125 148.976089 M 45.66943 110.686326 L 45.66943 146.423961 M 53.325815 113.238454 L 53.325815 143.871833 M 60.98612 115.790582 L 60.98612 141.319704 M 68.642504 118.34271 L 68.642504 138.767576 M 76.302809 120.894838 L 76.302809 136.211528 " transform="matrix(0.996411, 0, 0, -0.996411, 14.478849, 256.199236)"/>
<path fill="none" stroke-width="1.19553" stroke-linecap="butt" stroke-linejoin="miter" stroke="rgb(0%, 0%, 0%)" stroke-opacity="1" stroke-miterlimit="10" d="M 41.839278 128.555143 L 41.839278 17.257265 " transform="matrix(0.996411, 0, 0, -0.996411, 14.478849, 256.199236)"/>
<path fill="none" stroke-width="1.19553" stroke-linecap="butt" stroke-linejoin="miter" stroke="rgb(0%, 0%, 0%)" stroke-opacity="1" stroke-miterlimit="10" d="M 41.839278 17.257265 L 228.470021 17.257265 " transform="matrix(0.996411, 0, 0, -0.996411, 14.478849, 256.199236)"/>
<path fill="none" stroke-width="1.19553" stroke-linecap="butt" stroke-linejoin="miter" stroke="rgb(0%, 0%, 0%)" stroke-opacity="1" stroke-miterlimit="10" d="M 41.839278 17.257265 L -13.935111 17.257265 " transform="matrix(0.996411, 0, 0, -0.996411, 14.478849, 256.199236)"/>
</svg>
