<?xml version="1.0" encoding="UTF-8"?>
<svg xmlns="http://www.w3.org/2000/svg" xmlns:xlink="http://www.w3.org/1999/xlink" width="195.067pt" height="162.185pt" viewBox="0 0 195.067 162.185" version="1.2">
<defs>
<clipPath id="clip1">
  <path d="M 0.0234375 0 L 194 0 L 194 161.375 L 0.0234375 161.375 Z M 0.0234375 0 "/>
</clipPath>
<clipPath id="clip2">
  <path d="M 0.0234375 0 L 194.113281 0 L 194.113281 161.375 L 0.0234375 161.375 Z M 0.0234375 0 "/>
</clipPath>
<clipPath id="clip3">
  <path d="M 0.417969 12 L 193.71875 12 L 193.71875 149 L 0.417969 149 Z M 0.417969 12 "/>
</clipPath>
</defs>
<g id="surface1">
<g clip-path="url(#clip1)" clip-rule="nonzero">
<path style="fill:none;stroke-width:0.19925;stroke-linecap:butt;stroke-linejoin:miter;stroke:rgb(0%,0%,0%);stroke-opacity:1;stroke-miterlimit:10;" d="M -0.00154899 0.00151005 L -0.00154899 161.390486 M 32.379104 0.00151005 L 32.379104 161.390486 M 64.755832 0.00151005 L 64.755832 161.390486 M 97.136485 0.00151005 L 97.136485 161.390486 M 129.513212 0.00151005 L 129.513212 161.390486 M 161.893866 0.00151005 L 161.893866 161.390486 M 194.270593 0.00151005 L 194.270593 161.390486 " transform="matrix(0.995,0,0,-0.995,0.41951,160.978065)"/>
<path style="fill:none;stroke-width:0.19925;stroke-linecap:butt;stroke-linejoin:miter;stroke:rgb(0%,0%,0%);stroke-opacity:1;stroke-miterlimit:10;" d="M -0.00154899 0.00151005 L 194.270593 0.00151005 M -0.00154899 26.89771 L 194.270593 26.89771 M -0.00154899 53.797835 L 194.270593 53.797835 M -0.00154899 80.694035 L 194.270593 80.694035 M -0.00154899 107.594161 L 194.270593 107.594161 M -0.00154899 134.490361 L 194.270593 134.490361 M -0.00154899 161.390486 L 194.270593 161.390486 " transform="matrix(0.995,0,0,-0.995,0.41951,160.978065)"/>
</g>
<g clip-path="url(#clip2)" clip-rule="nonzero">
<path style="fill:none;stroke-width:0.79701;stroke-linecap:butt;stroke-linejoin:miter;stroke:rgb(0%,0%,0%);stroke-opacity:1;stroke-miterlimit:10;" d="M -0.00154899 0.00151005 L -0.00154899 161.390486 L 194.270593 161.390486 L 194.270593 0.00151005 Z M -0.00154899 0.00151005 " transform="matrix(0.995,0,0,-0.995,0.41951,160.978065)"/>
</g>
<g clip-path="url(#clip3)" clip-rule="nonzero">
<path style="fill:none;stroke-width:1.59404;stroke-linecap:butt;stroke-linejoin:miter;stroke:rgb(0%,0%,0%);stroke-opacity:1;stroke-miterlimit:10;" d="M -0.00154899 80.694035 C -0.00154899 80.694035 0.705109 82.543124 0.975995 83.249783 C 1.246881 83.956441 1.682653 85.09102 1.953539 85.797678 C 2.224425 86.504337 2.656271 87.631064 2.927157 88.333796 C 3.198043 89.036529 3.633815 90.155405 3.904701 90.854211 C 4.175587 91.549092 4.611359 92.660116 4.882245 93.35107 C 5.153131 94.038099 5.584977 95.137345 5.855863 95.816523 C 6.126749 96.4957 6.562521 97.579242 6.833407 98.250568 C 7.104293 98.921893 7.540065 99.985807 7.810951 100.645354 C 8.081837 101.300976 8.513683 102.349186 8.784569 102.99303 C 9.055455 103.6408 9.491227 104.661529 9.762113 105.293595 C 10.032999 105.921736 10.468771 106.922835 10.739657 107.535273 C 11.010543 108.151636 11.442389 109.121328 11.713275 109.718062 C 11.984161 110.314795 12.419933 111.257006 12.690819 111.838036 C 12.961705 112.415141 13.397477 113.325945 13.668363 113.88342 C 13.939249 114.440894 14.371095 115.320291 14.641981 115.858137 C 14.912867 116.392057 15.348639 117.236121 15.619525 117.750411 C 15.890411 118.264701 16.326183 119.069506 16.597069 119.560241 C 16.867955 120.050976 17.299802 120.816523 17.570687 121.279776 C 17.841573 121.746956 18.277345 122.473244 18.548231 122.912942 C 18.819117 123.352641 19.254889 124.035744 19.525775 124.447961 C 19.796661 124.860178 20.228508 125.610021 20.499393 125.884833 C 20.770279 126.155719 21.206052 126.348087 21.476937 126.422678 C 21.747823 126.49727 22.183595 126.422678 22.454481 126.422678 C 22.725367 126.422678 23.157214 126.422678 23.428099 126.422678 C 23.698985 126.422678 24.134758 126.422678 24.405643 126.422678 C 24.676529 126.422678 25.112302 126.422678 25.383187 126.422678 C 25.654073 126.422678 26.08592 126.422678 26.360731 126.422678 C 26.631617 126.422678 27.063464 126.422678 27.334349 126.422678 C 27.605235 126.422678 28.041008 126.422678 28.311893 126.422678 C 28.582779 126.422678 29.018552 126.422678 29.289437 126.422678 C 29.560323 126.422678 29.99217 126.422678 30.263055 126.422678 C 30.533941 126.422678 30.969714 126.422678 31.240599 126.422678 C 31.511485 126.422678 31.947258 126.422678 32.218143 126.422678 C 32.489029 126.422678 32.920876 126.422678 33.191761 126.422678 C 33.462647 126.422678 33.89842 126.422678 34.169305 126.422678 C 34.440191 126.422678 34.875964 126.422678 35.146849 126.422678 C 35.417735 126.422678 35.849582 126.422678 36.120467 126.422678 C 36.391353 126.422678 36.827126 126.422678 37.098011 126.422678 C 37.368897 126.422678 37.80467 126.422678 38.075555 126.422678 C 38.346441 126.422678 38.778288 126.422678 39.049173 126.422678 C 39.320059 126.422678 39.755832 126.422678 40.026717 126.422678 C 40.297603 126.422678 40.733376 126.422678 41.004261 126.422678 C 41.275147 126.422678 41.706994 126.422678 41.977879 126.422678 C 42.248765 126.422678 42.684538 126.465863 42.955423 126.422678 C 43.226309 126.379494 43.662082 126.340235 43.932967 126.100756 C 44.203853 125.857352 44.6357 125.087879 44.906585 124.679588 C 45.177471 124.271296 45.613244 123.592119 45.884129 123.156347 C 46.155015 122.7245 46.590788 122.002138 46.861673 121.54281 C 47.132559 121.079557 47.564406 120.321862 47.835291 119.835053 C 48.106177 119.348244 48.54195 118.547364 48.812835 118.037 C 49.083721 117.526636 49.519494 116.690423 49.790379 116.156504 C 50.061265 115.62651 50.493112 114.751039 50.763997 114.19749 C 51.034883 113.643941 51.470656 112.737063 51.741541 112.159959 C 52.012427 111.58678 52.4482 110.648495 52.719085 110.055687 C 52.989971 109.458954 53.421818 108.493187 53.692704 107.88075 C 53.963589 107.268313 54.399362 106.275065 54.670247 105.646925 C 54.941133 105.018784 55.376906 103.998055 55.647791 103.358137 C 55.918677 102.714293 56.350524 101.670009 56.62141 101.014387 C 56.892295 100.358765 57.328068 99.294852 57.598954 98.627452 C 57.869839 97.960053 58.305612 96.87651 58.576497 96.201259 C 58.847383 95.522082 59.27923 94.422835 59.550116 93.735807 C 59.821001 93.048778 60.256774 91.937754 60.52766 91.242873 C 60.798545 90.547992 61.234318 89.429117 61.505204 88.73031 C 61.776089 88.027578 62.207936 86.900851 62.478822 86.194192 C 62.749707 85.49146 63.18548 84.356881 63.456366 83.646296 C 63.727251 82.939638 64.163024 81.805059 64.43391 81.094475 C 64.704795 80.387817 65.136642 79.249312 65.407528 78.538727 C 65.678413 77.832069 66.114186 76.69749 66.385072 75.990832 C 66.655957 75.284173 67.09173 74.15352 67.362616 73.450788 C 67.633501 72.751981 68.065348 71.62918 68.336234 70.930373 C 68.607119 70.235492 69.042892 69.120543 69.313778 68.429588 C 69.584663 67.738633 70.020436 66.639387 70.291322 65.956284 C 70.562207 65.277107 70.994054 64.189638 71.26494 63.518313 C 71.535825 62.846987 71.971598 61.779148 72.242484 61.115675 C 72.513369 60.456127 72.949142 59.407917 73.220028 58.760147 C 73.490913 58.112377 73.92276 57.087722 74.193646 56.455656 C 74.464531 55.819663 74.900304 54.818564 75.17119 54.202201 C 75.442075 53.585838 75.877848 52.608294 76.148734 52.007634 C 76.419619 51.410901 76.851466 50.460838 77.122352 49.879808 C 77.393237 49.298778 77.82901 48.384048 78.099896 47.822647 C 78.370781 47.261246 78.806554 46.377923 79.07744 45.836152 C 79.348325 45.298307 79.780172 44.450317 80.051058 43.932101 C 80.321943 43.413884 80.757716 42.601227 81.028602 42.110492 C 81.299487 41.615832 81.73526 40.842433 82.006146 40.371328 C 82.277031 39.904148 82.708878 39.170009 82.979764 38.726384 C 83.250649 38.28276 83.686422 37.595731 83.957308 37.175662 C 84.228193 36.759519 84.663966 36.033231 84.934852 35.727013 C 85.205737 35.416868 85.637584 35.071391 85.90847 34.969318 C 86.179356 34.863319 86.615128 34.969318 86.886014 34.969318 C 87.156899 34.969318 87.592672 34.969318 87.863558 34.969318 C 88.134443 34.969318 88.56629 34.969318 88.837176 34.969318 C 89.108062 34.969318 89.543834 34.969318 89.81472 34.969318 C 90.085606 34.969318 90.521378 34.969318 90.792264 34.969318 C 91.063149 34.969318 91.494996 34.969318 91.765882 34.969318 C 92.036768 34.969318 92.47254 34.969318 92.743426 34.969318 C 93.014312 34.969318 93.450084 34.969318 93.72097 34.969318 C 93.991856 34.969318 94.423702 34.969318 94.694588 34.969318 C 94.965474 34.969318 95.401246 34.969318 95.672132 34.969318 C 95.943018 34.969318 96.37879 34.969318 96.649676 34.969318 C 96.920562 34.969318 97.352408 34.969318 97.623294 34.969318 C 97.89418 34.969318 98.329952 34.969318 98.600838 34.969318 C 98.871724 34.969318 99.307496 34.969318 99.578382 34.969318 C 99.849268 34.969318 100.281114 34.969318 100.552 34.969318 C 100.822886 34.969318 101.258658 34.969318 101.529544 34.969318 C 101.80043 34.969318 102.236202 34.969318 102.507088 34.969318 C 102.777974 34.969318 103.20982 34.969318 103.480706 34.969318 C 103.751592 34.969318 104.187364 34.969318 104.45825 34.969318 C 104.729136 34.969318 105.164908 34.969318 105.435794 34.969318 C 105.70668 34.969318 106.138526 34.969318 106.413338 34.969318 C 106.684224 34.969318 107.11607 34.953614 107.386956 34.969318 C 107.657842 34.985021 108.093614 34.867245 108.3645 35.079242 C 108.635386 35.29124 109.071158 36.080342 109.342044 36.484707 C 109.61293 36.889073 110.044776 37.556472 110.315662 37.988319 C 110.586548 38.420166 111.02232 39.134676 111.293206 39.590078 C 111.564092 40.04548 111.999864 40.803175 112.27075 41.282132 C 112.541636 41.765015 112.973482 42.561969 113.244368 43.068407 C 113.515254 43.574845 113.951026 44.403206 114.221912 44.9332 C 114.492798 45.463193 114.92857 46.330813 115.199456 46.880436 C 115.470342 47.433985 115.902188 48.333011 116.173074 48.90619 C 116.44396 49.479368 116.879732 50.409802 117.150618 51.002609 C 117.421504 51.595417 117.857276 52.557258 118.128162 53.165769 C 118.399048 53.77428 118.830894 54.763602 119.10178 55.391742 C 119.372666 56.015957 119.808438 57.03276 120.079324 57.672678 C 120.35021 58.312597 120.785982 59.352955 121.056868 60.008577 C 121.327754 60.660273 121.759601 61.72026 122.030486 62.38766 C 122.301372 63.055059 122.737144 64.13075 123.00803 64.809927 C 123.278916 65.485178 123.714688 66.580499 123.985574 67.267528 C 124.25646 67.954557 124.688307 69.061655 124.959192 69.756535 C 125.230078 70.44749 125.665851 71.566366 125.936736 72.269098 C 126.207622 72.967905 126.643394 74.094632 126.91428 74.80129 C 127.185166 75.504023 127.617013 76.638602 127.887898 77.34526 C 128.158784 78.051918 128.594557 79.186497 128.865442 79.897082 C 129.136328 80.60374 129.572101 81.742245 129.842986 82.452829 C 130.113872 83.159487 130.545719 84.294067 130.816604 85.000725 C 131.08749 85.707383 131.523263 86.838036 131.794148 87.540769 C 132.065034 88.243501 132.500807 89.370229 132.771692 90.069035 C 133.042578 90.763916 133.474425 91.878866 133.74531 92.56982 C 134.016196 93.264701 134.451969 94.367873 134.722854 95.04705 C 134.99374 95.730153 135.429513 96.821548 135.700398 97.492873 C 135.971284 98.168124 136.403131 99.239889 136.674016 99.899437 C 136.944902 100.562911 137.380675 101.615046 137.65156 102.266742 C 137.922446 102.914513 138.358219 103.943093 138.629104 104.579085 C 138.89999 105.215078 139.331837 106.220103 139.602722 106.840392 C 139.873608 107.460681 140.309381 108.442151 140.580266 109.04281 C 140.851152 109.647396 141.286925 110.597459 141.55781 111.182415 C 141.828696 111.767371 142.260543 112.686026 142.531428 113.251353 C 142.802314 113.81668 143.238087 114.703928 143.508972 115.249626 C 143.779858 115.791397 144.215631 116.647239 144.486516 117.165455 C 144.757402 117.687597 145.189249 118.50418 145.460134 119.002766 C 145.73102 119.501353 146.166793 120.278677 146.437678 120.753709 C 146.708564 121.224814 147.144337 121.962879 147.415222 122.41043 C 147.686108 122.85798 148.117955 123.556786 148.38884 123.976856 C 148.659726 124.396925 149.095499 125.107509 149.366384 125.445134 C 149.63727 125.78276 150.073043 126.285273 150.343928 126.422678 C 150.614814 126.560084 151.046661 126.422678 151.317546 126.422678 C 151.588432 126.422678 152.024205 126.422678 152.29509 126.422678 C 152.565976 126.422678 153.001749 126.422678 153.272634 126.422678 C 153.54352 126.422678 153.975367 126.422678 154.246253 126.422678 C 154.517138 126.422678 154.952911 126.422678 155.223796 126.422678 C 155.494682 126.422678 155.930455 126.422678 156.20134 126.422678 C 156.472226 126.422678 156.904073 126.422678 157.174959 126.422678 C 157.445844 126.422678 157.881617 126.422678 158.152503 126.422678 C 158.423388 126.422678 158.859161 126.422678 159.130046 126.422678 C 159.400932 126.422678 159.832779 126.422678 160.103665 126.422678 C 160.37455 126.422678 160.810323 126.422678 161.081209 126.422678 C 161.352094 126.422678 161.787867 126.422678 162.058753 126.422678 C 162.329638 126.422678 162.761485 126.422678 163.032371 126.422678 C 163.303256 126.422678 163.739029 126.422678 164.009915 126.422678 C 164.2808 126.422678 164.716573 126.422678 164.987459 126.422678 C 165.258344 126.422678 165.690191 126.422678 165.961077 126.422678 C 166.231962 126.422678 166.667735 126.422678 166.938621 126.422678 C 167.209506 126.422678 167.645279 126.422678 167.916165 126.422678 C 168.18705 126.422678 168.618897 126.422678 168.889783 126.422678 C 169.160668 126.422678 169.596441 126.422678 169.867327 126.422678 C 170.138212 126.422678 170.573985 126.422678 170.844871 126.422678 C 171.115756 126.422678 171.547603 126.422678 171.818489 126.422678 C 172.089374 126.422678 172.525147 126.603269 172.796033 126.422678 C 173.066918 126.242088 173.502691 125.519726 173.773577 125.131064 C 174.044462 124.746328 174.476309 124.071077 174.747195 123.643156 C 175.01808 123.215235 175.453853 122.508577 175.724739 122.057101 C 175.995624 121.605624 176.431397 120.855781 176.702283 120.376824 C 176.973168 119.897867 177.405015 119.112691 177.675901 118.610178 C 177.946786 118.107666 178.382559 117.279305 178.653445 116.753237 C 178.92433 116.22717 179.360103 115.367402 179.630989 114.817779 C 179.901874 114.272082 180.333721 113.373055 180.604607 112.803803 C 180.875492 112.238476 181.311265 111.308043 181.582151 110.719161 C 181.853036 110.134205 182.288809 109.172364 182.559695 108.567779 C 182.83058 107.963193 183.262427 106.973872 183.533313 106.353583 C 183.804198 105.729368 184.239971 104.716491 184.510857 104.076573 C 184.781742 103.44058 185.217515 102.404148 185.488401 101.752452 C 185.759286 101.100756 186.191133 100.044695 186.462019 99.377295 C 186.732905 98.713822 187.168677 97.638131 187.439563 96.962879 C 187.710448 96.287628 188.146221 95.196234 188.417107 94.509205 C 188.687992 93.826102 189.123765 92.719004 189.394651 92.028049 C 189.665536 91.333168 190.097383 90.218219 190.368269 89.515486 C 190.639155 88.81668 191.074927 87.693878 191.345813 86.98722 C 191.616698 86.284487 192.052471 85.149908 192.323357 84.44325 C 192.594242 83.736592 193.026089 82.602013 193.296975 81.891428 C 193.567861 81.18477 194.274519 79.339607 194.274519 79.339607 " transform="matrix(0.995,0,0,-0.995,0.41951,160.978065)"/>
</g>
</g>
</svg>
