<?xml version="1.0" encoding="UTF-8"?>
<svg xmlns="http://www.w3.org/2000/svg" xmlns:xlink="http://www.w3.org/1999/xlink" width="255.416pt" height="47.744pt" viewBox="0 0 255.416 47.744">
<defs>
<clipPath id="clip-0">
<path clip-rule="nonzero" d="M 0.390625 22 L 254.445312 22 L 254.445312 25 L 0.390625 25 Z M 0.390625 22 "/>
</clipPath>
<clipPath id="clip-1">
<path clip-rule="nonzero" d="M 23 0 L 48 0 L 48 47.488281 L 23 47.488281 Z M 23 0 "/>
</clipPath>
<clipPath id="clip-2">
<path clip-rule="nonzero" d="M 69 0 L 140 0 L 140 47.488281 L 69 47.488281 Z M 69 0 "/>
</clipPath>
<clipPath id="clip-3">
<path clip-rule="nonzero" d="M 161 0 L 186 0 L 186 47.488281 L 161 47.488281 Z M 161 0 "/>
</clipPath>
<clipPath id="clip-4">
<path clip-rule="nonzero" d="M 206 0 L 232 0 L 232 47.488281 L 206 47.488281 Z M 206 0 "/>
</clipPath>
</defs>
<g clip-path="url(#clip-0)">
<path fill="none" stroke-width="1.59404" stroke-linecap="butt" stroke-linejoin="miter" stroke="rgb(0%, 0%, 0%)" stroke-opacity="1" stroke-miterlimit="10" d="M 0.000178703 -0.00141865 L 253.826576 -0.00141865 " transform="matrix(0.994667, 0, 0, -0.994667, 1.183416, 23.744683)"/>
</g>
<path fill-rule="nonzero" fill="rgb(75%, 75%, 75%)" fill-opacity="1" d="M 24.136719 46.695312 L 24.136719 0.792969 L 47.085938 0.792969 L 47.085938 46.695312 Z M 24.136719 46.695312 "/>
<g clip-path="url(#clip-1)">
<path fill="none" stroke-width="1.59404" stroke-linecap="butt" stroke-linejoin="miter" stroke="rgb(0%, 0%, 0%)" stroke-opacity="1" stroke-miterlimit="10" d="M 23.076377 -23.07369 L 23.076377 23.074779 L 46.148648 23.074779 L 46.148648 -23.07369 Z M 23.076377 -23.07369 " transform="matrix(0.994667, 0, 0, -0.994667, 1.183416, 23.744683)"/>
</g>
<path fill-rule="nonzero" fill="rgb(75%, 75%, 75%)" fill-opacity="1" d="M 70.039062 46.695312 L 70.039062 0.792969 L 138.894531 0.792969 L 138.894531 46.695312 Z M 70.039062 46.695312 "/>
<g clip-path="url(#clip-2)">
<path fill="none" stroke-width="1.59404" stroke-linecap="butt" stroke-linejoin="miter" stroke="rgb(0%, 0%, 0%)" stroke-opacity="1" stroke-miterlimit="10" d="M 69.224846 -23.07369 L 69.224846 23.074779 L 138.449513 23.074779 L 138.449513 -23.07369 Z M 69.224846 -23.07369 " transform="matrix(0.994667, 0, 0, -0.994667, 1.183416, 23.744683)"/>
</g>
<path fill-rule="nonzero" fill="rgb(75%, 75%, 75%)" fill-opacity="1" d="M 161.847656 46.695312 L 161.847656 0.792969 L 184.800781 0.792969 L 184.800781 46.695312 Z M 161.847656 46.695312 "/>
<g clip-path="url(#clip-3)">
<path fill="none" stroke-width="1.59404" stroke-linecap="butt" stroke-linejoin="miter" stroke="rgb(0%, 0%, 0%)" stroke-opacity="1" stroke-miterlimit="10" d="M 161.525711 -23.07369 L 161.525711 23.074779 L 184.601909 23.074779 L 184.601909 -23.07369 Z M 161.525711 -23.07369 " transform="matrix(0.994667, 0, 0, -0.994667, 1.183416, 23.744683)"/>
</g>
<path fill-rule="nonzero" fill="rgb(75%, 75%, 75%)" fill-opacity="1" d="M 207.75 46.695312 L 207.75 0.792969 L 230.703125 0.792969 L 230.703125 46.695312 Z M 207.75 46.695312 "/>
<g clip-path="url(#clip-4)">
<path fill="none" stroke-width="1.59404" stroke-linecap="butt" stroke-linejoin="miter" stroke="rgb(0%, 0%, 0%)" stroke-opacity="1" stroke-miterlimit="10" d="M 207.67418 -23.07369 L 207.67418 23.074779 L 230.750378 23.074779 L 230.750378 -23.07369 Z M 207.67418 -23.07369 " transform="matrix(0.994667, 0, 0, -0.994667, 1.183416, 23.744683)"/>
</g>
</svg>
