<?xml version="1.0" encoding="UTF-8"?>
<svg xmlns="http://www.w3.org/2000/svg" xmlns:xlink="http://www.w3.org/1999/xlink" width="253.736pt" height="18.456pt" viewBox="0 0 253.736 18.456" version="1.2">
<defs>
<clipPath id="clip1">
  <path d="M 3.503906 11 L 249.976562 11 L 249.976562 12 L 3.503906 12 Z M 3.503906 11 "/>
</clipPath>
<clipPath id="clip2">
  <path d="M 110 5 L 143 5 L 143 17.925781 L 110 17.925781 Z M 110 5 "/>
</clipPath>
</defs>
<g id="surface1">
<g clip-path="url(#clip1)" clip-rule="nonzero">
<path style="fill:none;stroke-width:0.3985;stroke-linecap:butt;stroke-linejoin:miter;stroke:rgb(0%,0%,0%);stroke-opacity:1;stroke-miterlimit:10;" d="M 0.00175619 0.000619988 L 110.795036 0.000619988 M 142.5439 0.000619988 L 253.341202 0.000619988 " transform="matrix(0.971368,0,0,-0.971368,3.697513,11.758415)"/>
</g>
<g clip-path="url(#clip2)" clip-rule="nonzero">
<path style="fill:none;stroke-width:0.797;stroke-linecap:butt;stroke-linejoin:miter;stroke:rgb(0%,0%,0%);stroke-opacity:1;stroke-miterlimit:10;" d="M 110.795036 -5.951035 L 142.5439 -5.951035 L 142.5439 5.952275 L 110.795036 5.952275 Z M 110.795036 -5.951035 " transform="matrix(0.971368,0,0,-0.971368,3.697513,11.758415)"/>
</g>
<path style="fill:none;stroke-width:0.3985;stroke-linecap:butt;stroke-linejoin:miter;stroke:rgb(0%,0%,0%);stroke-opacity:1;stroke-miterlimit:10;" d="M 137.782576 11.903931 L 134.211583 9.225686 " transform="matrix(0.971368,0,0,-0.971368,3.697513,11.758415)"/>
<path style="fill-rule:nonzero;fill:rgb(0%,0%,0%);fill-opacity:1;stroke-width:0.3985;stroke-linecap:butt;stroke-linejoin:miter;stroke:rgb(0%,0%,0%);stroke-opacity:1;stroke-miterlimit:10;" d="M 3.173509 -0.00179168 L 0.198414 1.762072 L 0.200005 0.00145526 L 0.199183 -1.762379 Z M 3.173509 -0.00179168 " transform="matrix(-0.777066,0.582811,0.582811,0.777066,134.14285,2.737773)"/>
<path style="fill:none;stroke-width:0.3985;stroke-linecap:butt;stroke-linejoin:miter;stroke:rgb(0%,0%,0%);stroke-opacity:1;stroke-miterlimit:10;" d="M 133.813465 11.903931 L 130.242472 9.225686 " transform="matrix(0.971368,0,0,-0.971368,3.697513,11.758415)"/>
<path style="fill-rule:nonzero;fill:rgb(0%,0%,0%);fill-opacity:1;stroke-width:0.3985;stroke-linecap:butt;stroke-linejoin:miter;stroke:rgb(0%,0%,0%);stroke-opacity:1;stroke-miterlimit:10;" d="M 3.173973 -0.00214009 L 0.198879 1.761724 L 0.20047 0.00110685 L 0.199648 -1.762727 Z M 3.173973 -0.00214009 " transform="matrix(-0.777066,0.582811,0.582811,0.777066,130.287945,2.737773)"/>
</g>
</svg>
