<?xml version="1.0" encoding="UTF-8"?>
<svg xmlns="http://www.w3.org/2000/svg" xmlns:xlink="http://www.w3.org/1999/xlink" width="253.443pt" height="180.671pt" viewBox="0 0 253.443 180.671" version="1.2">
<defs>
<clipPath id="clip1">
  <path d="M 0 176 L 4 176 L 4 180.308594 L 0 180.308594 Z M 0 176 "/>
</clipPath>
<clipPath id="clip2">
  <path d="M 0 171 L 9 171 L 9 180.308594 L 0 180.308594 Z M 0 171 "/>
</clipPath>
<clipPath id="clip3">
  <path d="M 249 176 L 252.886719 176 L 252.886719 180.308594 L 249 180.308594 Z M 249 176 "/>
</clipPath>
<clipPath id="clip4">
  <path d="M 243 171 L 252.886719 171 L 252.886719 180.308594 L 243 180.308594 Z M 243 171 "/>
</clipPath>
<clipPath id="clip5">
  <path d="M 59 0.0351562 L 69 0.0351562 L 69 25 L 59 25 Z M 59 0.0351562 "/>
</clipPath>
<clipPath id="clip6">
  <path d="M 184 0.0351562 L 194 0.0351562 L 194 25 L 184 25 Z M 184 0.0351562 "/>
</clipPath>
<clipPath id="clip7">
  <path d="M 249 10 L 252.886719 10 L 252.886719 14 L 249 14 Z M 249 10 "/>
</clipPath>
<clipPath id="clip8">
  <path d="M 243 5 L 252.886719 5 L 252.886719 20 L 243 20 Z M 243 5 "/>
</clipPath>
<clipPath id="clip9">
  <path d="M 124 176 L 129 176 L 129 180.308594 L 124 180.308594 Z M 124 176 "/>
</clipPath>
<clipPath id="clip10">
  <path d="M 119 171 L 134 171 L 134 180.308594 L 119 180.308594 Z M 119 171 "/>
</clipPath>
</defs>
<g id="surface1">
<path style="fill:none;stroke-width:0.3985;stroke-linecap:butt;stroke-linejoin:miter;stroke:rgb(0%,0%,0%);stroke-opacity:1;stroke-miterlimit:10;" d="M -0.000835288 -0.00066586 L 62.468185 -0.00066586 M 62.468185 -0.00066586 L 187.406226 -0.00066586 M 187.406226 -0.00066586 L 249.875246 -0.00066586 " transform="matrix(0.997807,0,0,-0.997807,1.782083,178.526679)"/>
<g clip-path="url(#clip1)" clip-rule="nonzero">
<path style=" stroke:none;fill-rule:nonzero;fill:rgb(100%,100%,100%);fill-opacity:1;" d="M 3.367188 178.527344 C 3.367188 177.652344 2.65625 176.941406 1.78125 176.941406 C 0.90625 176.941406 0.199219 177.652344 0.199219 178.527344 C 0.199219 179.402344 0.90625 180.109375 1.78125 180.109375 C 2.65625 180.109375 3.367188 179.402344 3.367188 178.527344 Z M 3.367188 178.527344 "/>
</g>
<g clip-path="url(#clip2)" clip-rule="nonzero">
<path style="fill:none;stroke-width:0.3985;stroke-linecap:butt;stroke-linejoin:miter;stroke:rgb(0%,0%,0%);stroke-opacity:1;stroke-miterlimit:10;" d="M 1.588588 -0.00066586 C 1.588588 0.876257 0.876088 1.588757 -0.000835288 1.588757 C -0.877758 1.588757 -1.586343 0.876257 -1.586343 -0.00066586 C -1.586343 -0.877589 -0.877758 -1.586174 -0.000835288 -1.586174 C 0.876088 -1.586174 1.588588 -0.877589 1.588588 -0.00066586 Z M 1.588588 -0.00066586 " transform="matrix(0.997807,0,0,-0.997807,1.782083,178.526679)"/>
</g>
<g clip-path="url(#clip3)" clip-rule="nonzero">
<path style=" stroke:none;fill-rule:nonzero;fill:rgb(100%,100%,100%);fill-opacity:1;" d="M 252.691406 178.527344 C 252.691406 177.652344 251.984375 176.941406 251.109375 176.941406 C 250.234375 176.941406 249.523438 177.652344 249.523438 178.527344 C 249.523438 179.402344 250.234375 180.109375 251.109375 180.109375 C 251.984375 180.109375 252.691406 179.402344 252.691406 178.527344 Z M 252.691406 178.527344 "/>
</g>
<g clip-path="url(#clip4)" clip-rule="nonzero">
<path style="fill:none;stroke-width:0.3985;stroke-linecap:butt;stroke-linejoin:miter;stroke:rgb(0%,0%,0%);stroke-opacity:1;stroke-miterlimit:10;" d="M 251.460754 -0.00066586 C 251.460754 0.876257 250.752169 1.588757 249.875246 1.588757 C 248.998323 1.588757 248.285823 0.876257 248.285823 -0.00066586 C 248.285823 -0.877589 248.998323 -1.586174 249.875246 -1.586174 C 250.752169 -1.586174 251.460754 -0.877589 251.460754 -0.00066586 Z M 251.460754 -0.00066586 " transform="matrix(0.997807,0,0,-0.997807,1.782083,178.526679)"/>
</g>
<path style="fill:none;stroke-width:0.3985;stroke-linecap:butt;stroke-linejoin:miter;stroke:rgb(0%,0%,0%);stroke-opacity:1;stroke-miterlimit:10;" d="M -0.000835288 166.583389 L 58.498543 166.583389 M 66.437828 166.583389 L 183.436583 166.583389 M 191.371954 166.583389 L 249.875246 166.583389 " transform="matrix(0.997807,0,0,-0.997807,1.782083,178.526679)"/>
<g clip-path="url(#clip5)" clip-rule="nonzero">
<path style="fill:none;stroke-width:0.797;stroke-linecap:butt;stroke-linejoin:miter;stroke:rgb(0%,0%,0%);stroke-opacity:1;stroke-miterlimit:10;" d="M 58.498543 178.488401 L 58.498543 154.678376 M 66.437828 178.488401 L 66.437828 154.678376 " transform="matrix(0.997807,0,0,-0.997807,1.782083,178.526679)"/>
</g>
<path style="fill-rule:nonzero;fill:rgb(100%,100%,100%);fill-opacity:1;stroke-width:0.3985;stroke-linecap:butt;stroke-linejoin:miter;stroke:rgb(0%,0%,0%);stroke-opacity:1;stroke-miterlimit:10;" d="M 1.588588 166.583389 C 1.588588 167.460312 0.876088 168.168897 -0.000835288 168.168897 C -0.877758 168.168897 -1.586343 167.460312 -1.586343 166.583389 C -1.586343 165.706466 -0.877758 164.993966 -0.000835288 164.993966 C 0.876088 164.993966 1.588588 165.706466 1.588588 166.583389 Z M 1.588588 166.583389 " transform="matrix(0.997807,0,0,-0.997807,1.782083,178.526679)"/>
<path style="fill-rule:nonzero;fill:rgb(0%,0%,0%);fill-opacity:1;stroke-width:0.3985;stroke-linecap:butt;stroke-linejoin:miter;stroke:rgb(0%,0%,0%);stroke-opacity:1;stroke-miterlimit:10;" d="M 126.522714 166.583389 C 126.522714 167.460312 125.814129 168.168897 124.937206 168.168897 C 124.060282 168.168897 123.351697 167.460312 123.351697 166.583389 C 123.351697 165.706466 124.060282 164.993966 124.937206 164.993966 C 125.814129 164.993966 126.522714 165.706466 126.522714 166.583389 Z M 126.522714 166.583389 " transform="matrix(0.997807,0,0,-0.997807,1.782083,178.526679)"/>
<g clip-path="url(#clip6)" clip-rule="nonzero">
<path style="fill:none;stroke-width:0.797;stroke-linecap:butt;stroke-linejoin:miter;stroke:rgb(0%,0%,0%);stroke-opacity:1;stroke-miterlimit:10;" d="M 183.436583 178.488401 L 183.436583 154.678376 M 191.371954 178.488401 L 191.371954 154.678376 " transform="matrix(0.997807,0,0,-0.997807,1.782083,178.526679)"/>
</g>
<g clip-path="url(#clip7)" clip-rule="nonzero">
<path style=" stroke:none;fill-rule:nonzero;fill:rgb(100%,100%,100%);fill-opacity:1;" d="M 252.691406 12.308594 C 252.691406 11.433594 251.984375 10.726562 251.109375 10.726562 C 250.234375 10.726562 249.523438 11.433594 249.523438 12.308594 C 249.523438 13.183594 250.234375 13.894531 251.109375 13.894531 C 251.984375 13.894531 252.691406 13.183594 252.691406 12.308594 Z M 252.691406 12.308594 "/>
</g>
<g clip-path="url(#clip8)" clip-rule="nonzero">
<path style="fill:none;stroke-width:0.3985;stroke-linecap:butt;stroke-linejoin:miter;stroke:rgb(0%,0%,0%);stroke-opacity:1;stroke-miterlimit:10;" d="M 251.460754 166.583389 C 251.460754 167.460312 250.752169 168.168897 249.875246 168.168897 C 248.998323 168.168897 248.285823 167.460312 248.285823 166.583389 C 248.285823 165.706466 248.998323 164.993966 249.875246 164.993966 C 250.752169 164.993966 251.460754 165.706466 251.460754 166.583389 Z M 251.460754 166.583389 " transform="matrix(0.997807,0,0,-0.997807,1.782083,178.526679)"/>
</g>
<path style="fill:none;stroke-width:0.3985;stroke-linecap:butt;stroke-linejoin:miter;stroke:rgb(0%,0%,0%);stroke-opacity:1;stroke-miterlimit:10;" d="M 124.937206 -0.00066586 L 124.937206 67.416706 M 124.937206 99.166017 L 124.937206 166.583389 " transform="matrix(0.997807,0,0,-0.997807,1.782083,178.526679)"/>
<g clip-path="url(#clip9)" clip-rule="nonzero">
<path style=" stroke:none;fill-rule:nonzero;fill:rgb(0%,0%,0%);fill-opacity:1;" d="M 128.027344 178.527344 C 128.027344 177.652344 127.320312 176.941406 126.445312 176.941406 C 125.570312 176.941406 124.863281 177.652344 124.863281 178.527344 C 124.863281 179.402344 125.570312 180.109375 126.445312 180.109375 C 127.320312 180.109375 128.027344 179.402344 128.027344 178.527344 Z M 128.027344 178.527344 "/>
</g>
<g clip-path="url(#clip10)" clip-rule="nonzero">
<path style="fill:none;stroke-width:0.3985;stroke-linecap:butt;stroke-linejoin:miter;stroke:rgb(0%,0%,0%);stroke-opacity:1;stroke-miterlimit:10;" d="M 126.522714 -0.00066586 C 126.522714 0.876257 125.814129 1.588757 124.937206 1.588757 C 124.060282 1.588757 123.351697 0.876257 123.351697 -0.00066586 C 123.351697 -0.877589 124.060282 -1.586174 124.937206 -1.586174 C 125.814129 -1.586174 126.522714 -0.877589 126.522714 -0.00066586 Z M 126.522714 -0.00066586 " transform="matrix(0.997807,0,0,-0.997807,1.782083,178.526679)"/>
</g>
<path style="fill:none;stroke-width:0.797;stroke-linecap:butt;stroke-linejoin:bevel;stroke:rgb(0%,0%,0%);stroke-opacity:1;stroke-miterlimit:10;" d="M 125.097714 67.017393 C 121.809252 67.017393 119.14325 68.841706 119.14325 71.084906 C 119.14325 73.332021 121.809252 75.156334 125.097714 75.156334 C 121.809252 75.156334 119.14325 76.976733 119.14325 79.223848 C 119.14325 81.470963 121.809252 83.291361 125.097714 83.291361 C 121.809252 83.291361 119.14325 85.11176 119.14325 87.358875 C 119.14325 89.60599 121.809252 91.426388 125.097714 91.426388 C 121.809252 91.426388 119.14325 93.250701 119.14325 95.493902 C 119.14325 97.741017 121.809252 99.56533 125.097714 99.56533 " transform="matrix(0.997807,0,0,-0.997807,1.782083,178.526679)"/>
<path style="fill:none;stroke-width:0.3985;stroke-linecap:butt;stroke-linejoin:miter;stroke:rgb(0%,0%,0%);stroke-opacity:1;stroke-dasharray:2.98883,1.99255;stroke-miterlimit:10;" d="M 116.990091 67.416706 L 116.990091 99.166017 " transform="matrix(0.997807,0,0,-0.997807,1.782083,178.526679)"/>
</g>
</svg>
