<?xml version="1.0" encoding="UTF-8"?>
<svg xmlns="http://www.w3.org/2000/svg" xmlns:xlink="http://www.w3.org/1999/xlink" width="250.898pt" height="213.648pt" viewBox="0 0 250.898 213.648" version="1.2">
<defs>
<clipPath id="clip1">
  <path d="M 0.15625 209 L 4 209 L 4 213.296875 L 0.15625 213.296875 Z M 0.15625 209 "/>
</clipPath>
<clipPath id="clip2">
  <path d="M 0.15625 204 L 10 204 L 10 213.296875 L 0.15625 213.296875 Z M 0.15625 204 "/>
</clipPath>
<clipPath id="clip3">
  <path d="M 123 209 L 127 209 L 127 213.296875 L 123 213.296875 Z M 123 209 "/>
</clipPath>
<clipPath id="clip4">
  <path d="M 118 204 L 133 204 L 133 213.296875 L 118 213.296875 Z M 118 204 "/>
</clipPath>
<clipPath id="clip5">
  <path d="M 247 209 L 250.640625 209 L 250.640625 213.296875 L 247 213.296875 Z M 247 209 "/>
</clipPath>
<clipPath id="clip6">
  <path d="M 241 204 L 250.640625 204 L 250.640625 213.296875 L 241 213.296875 Z M 241 204 "/>
</clipPath>
<clipPath id="clip7">
  <path d="M 0.15625 24 L 4 24 L 4 28 L 0.15625 28 Z M 0.15625 24 "/>
</clipPath>
<clipPath id="clip8">
  <path d="M 0.15625 19 L 10 19 L 10 34 L 0.15625 34 Z M 0.15625 19 "/>
</clipPath>
<clipPath id="clip9">
  <path d="M 247 24 L 250.640625 24 L 250.640625 28 L 247 28 Z M 247 24 "/>
</clipPath>
<clipPath id="clip10">
  <path d="M 241 19 L 250.640625 19 L 250.640625 34 L 241 34 Z M 241 19 "/>
</clipPath>
<clipPath id="clip11">
  <path d="M 123 209 L 127 209 L 127 213.296875 L 123 213.296875 Z M 123 209 "/>
</clipPath>
<clipPath id="clip12">
  <path d="M 118 204 L 133 204 L 133 213.296875 L 118 213.296875 Z M 118 204 "/>
</clipPath>
</defs>
<g id="surface1">
<path style="fill:none;stroke-width:0.3985;stroke-linecap:butt;stroke-linejoin:miter;stroke:rgb(0%,0%,0%);stroke-opacity:1;stroke-miterlimit:10;" d="M -0.000993822 0.00180092 L 61.83118 0.00180092 M 61.83118 0.00180092 L 185.495528 0.00180092 M 185.495528 0.00180092 L 247.327702 0.00180092 " transform="matrix(0.998355,0,0,-0.998355,1.938492,211.513517)"/>
<g clip-path="url(#clip1)" clip-rule="nonzero">
<path style=" stroke:none;fill-rule:nonzero;fill:rgb(100%,100%,100%);fill-opacity:1;" d="M 3.523438 211.511719 C 3.523438 210.636719 2.8125 209.929688 1.9375 209.929688 C 1.0625 209.929688 0.355469 210.636719 0.355469 211.511719 C 0.355469 212.386719 1.0625 213.097656 1.9375 213.097656 C 2.8125 213.097656 3.523438 212.386719 3.523438 211.511719 Z M 3.523438 211.511719 "/>
</g>
<g clip-path="url(#clip2)" clip-rule="nonzero">
<path style="fill:none;stroke-width:0.3985;stroke-linecap:butt;stroke-linejoin:miter;stroke:rgb(0%,0%,0%);stroke-opacity:1;stroke-miterlimit:10;" d="M 1.587557 0.00180092 C 1.587557 0.878243 0.875448 1.586439 -0.000993822 1.586439 C -0.877435 1.586439 -1.585632 0.878243 -1.585632 0.00180092 C -1.585632 -0.874641 -0.877435 -1.58675 -0.000993822 -1.58675 C 0.875448 -1.58675 1.587557 -0.874641 1.587557 0.00180092 Z M 1.587557 0.00180092 " transform="matrix(0.998355,0,0,-0.998355,1.938492,211.513517)"/>
</g>
<g clip-path="url(#clip3)" clip-rule="nonzero">
<path style=" stroke:none;fill-rule:nonzero;fill:rgb(0%,0%,0%);fill-opacity:1;" d="M 126.984375 211.511719 C 126.984375 210.636719 126.273438 209.929688 125.398438 209.929688 C 124.523438 209.929688 123.816406 210.636719 123.816406 211.511719 C 123.816406 212.386719 124.523438 213.097656 125.398438 213.097656 C 126.273438 213.097656 126.984375 212.386719 126.984375 211.511719 Z M 126.984375 211.511719 "/>
</g>
<g clip-path="url(#clip4)" clip-rule="nonzero">
<path style="fill:none;stroke-width:0.3985;stroke-linecap:butt;stroke-linejoin:miter;stroke:rgb(0%,0%,0%);stroke-opacity:1;stroke-miterlimit:10;" d="M 125.251905 0.00180092 C 125.251905 0.878243 124.539796 1.586439 123.663354 1.586439 C 122.786913 1.586439 122.078716 0.878243 122.078716 0.00180092 C 122.078716 -0.874641 122.786913 -1.58675 123.663354 -1.58675 C 124.539796 -1.58675 125.251905 -0.874641 125.251905 0.00180092 Z M 125.251905 0.00180092 " transform="matrix(0.998355,0,0,-0.998355,1.938492,211.513517)"/>
</g>
<g clip-path="url(#clip5)" clip-rule="nonzero">
<path style=" stroke:none;fill-rule:nonzero;fill:rgb(100%,100%,100%);fill-opacity:1;" d="M 250.445312 211.511719 C 250.445312 210.636719 249.734375 209.929688 248.859375 209.929688 C 247.984375 209.929688 247.277344 210.636719 247.277344 211.511719 C 247.277344 212.386719 247.984375 213.097656 248.859375 213.097656 C 249.734375 213.097656 250.445312 212.386719 250.445312 211.511719 Z M 250.445312 211.511719 "/>
</g>
<g clip-path="url(#clip6)" clip-rule="nonzero">
<path style="fill:none;stroke-width:0.3985;stroke-linecap:butt;stroke-linejoin:miter;stroke:rgb(0%,0%,0%);stroke-opacity:1;stroke-miterlimit:10;" d="M 248.916253 0.00180092 C 248.916253 0.878243 248.204144 1.586439 247.327702 1.586439 C 246.451261 1.586439 245.743064 0.878243 245.743064 0.00180092 C 245.743064 -0.874641 246.451261 -1.58675 247.327702 -1.58675 C 248.204144 -1.58675 248.916253 -0.874641 248.916253 0.00180092 Z M 248.916253 0.00180092 " transform="matrix(0.998355,0,0,-0.998355,1.938492,211.513517)"/>
</g>
<path style="fill:none;stroke-width:0.3985;stroke-linecap:butt;stroke-linejoin:miter;stroke:rgb(0%,0%,0%);stroke-opacity:1;stroke-miterlimit:10;" d="M -0.000993822 185.498323 L 53.176319 185.498323 M 70.489954 185.498323 L 176.840667 185.498323 M 194.154302 185.498323 L 247.327702 185.498323 " transform="matrix(0.998355,0,0,-0.998355,1.938492,211.513517)"/>
<path style="fill:none;stroke-width:0.797;stroke-linecap:butt;stroke-linejoin:miter;stroke:rgb(0%,0%,0%);stroke-opacity:1;stroke-miterlimit:10;" d="M 53.176319 211.466819 L 53.176319 159.525914 M 70.489954 211.466819 L 70.489954 159.525914 " transform="matrix(0.998355,0,0,-0.998355,1.938492,211.513517)"/>
<g clip-path="url(#clip7)" clip-rule="nonzero">
<path style=" stroke:none;fill-rule:nonzero;fill:rgb(100%,100%,100%);fill-opacity:1;" d="M 3.523438 26.320312 C 3.523438 25.445312 2.8125 24.738281 1.9375 24.738281 C 1.0625 24.738281 0.355469 25.445312 0.355469 26.320312 C 0.355469 27.195312 1.0625 27.90625 1.9375 27.90625 C 2.8125 27.90625 3.523438 27.195312 3.523438 26.320312 Z M 3.523438 26.320312 "/>
</g>
<g clip-path="url(#clip8)" clip-rule="nonzero">
<path style="fill:none;stroke-width:0.3985;stroke-linecap:butt;stroke-linejoin:miter;stroke:rgb(0%,0%,0%);stroke-opacity:1;stroke-miterlimit:10;" d="M 1.587557 185.498323 C 1.587557 186.374765 0.875448 187.082961 -0.000993822 187.082961 C -0.877435 187.082961 -1.585632 186.374765 -1.585632 185.498323 C -1.585632 184.621881 -0.877435 183.909773 -0.000993822 183.909773 C 0.875448 183.909773 1.587557 184.621881 1.587557 185.498323 Z M 1.587557 185.498323 " transform="matrix(0.998355,0,0,-0.998355,1.938492,211.513517)"/>
</g>
<path style="fill-rule:nonzero;fill:rgb(0%,0%,0%);fill-opacity:1;stroke-width:0.3985;stroke-linecap:butt;stroke-linejoin:miter;stroke:rgb(0%,0%,0%);stroke-opacity:1;stroke-miterlimit:10;" d="M 125.251905 185.498323 C 125.251905 186.374765 124.539796 187.082961 123.663354 187.082961 C 122.786913 187.082961 122.078716 186.374765 122.078716 185.498323 C 122.078716 184.621881 122.786913 183.909773 123.663354 183.909773 C 124.539796 183.909773 125.251905 184.621881 125.251905 185.498323 Z M 125.251905 185.498323 " transform="matrix(0.998355,0,0,-0.998355,1.938492,211.513517)"/>
<path style="fill:none;stroke-width:0.797;stroke-linecap:butt;stroke-linejoin:miter;stroke:rgb(0%,0%,0%);stroke-opacity:1;stroke-miterlimit:10;" d="M 176.840667 211.466819 L 176.840667 159.525914 M 194.154302 211.466819 L 194.154302 159.525914 " transform="matrix(0.998355,0,0,-0.998355,1.938492,211.513517)"/>
<g clip-path="url(#clip9)" clip-rule="nonzero">
<path style=" stroke:none;fill-rule:nonzero;fill:rgb(100%,100%,100%);fill-opacity:1;" d="M 250.445312 26.320312 C 250.445312 25.445312 249.734375 24.738281 248.859375 24.738281 C 247.984375 24.738281 247.277344 25.445312 247.277344 26.320312 C 247.277344 27.195312 247.984375 27.90625 248.859375 27.90625 C 249.734375 27.90625 250.445312 27.195312 250.445312 26.320312 Z M 250.445312 26.320312 "/>
</g>
<g clip-path="url(#clip10)" clip-rule="nonzero">
<path style="fill:none;stroke-width:0.3985;stroke-linecap:butt;stroke-linejoin:miter;stroke:rgb(0%,0%,0%);stroke-opacity:1;stroke-miterlimit:10;" d="M 248.916253 185.498323 C 248.916253 186.374765 248.204144 187.082961 247.327702 187.082961 C 246.451261 187.082961 245.743064 186.374765 245.743064 185.498323 C 245.743064 184.621881 246.451261 183.909773 247.327702 183.909773 C 248.204144 183.909773 248.916253 184.621881 248.916253 185.498323 Z M 248.916253 185.498323 " transform="matrix(0.998355,0,0,-0.998355,1.938492,211.513517)"/>
</g>
<path style="fill:none;stroke-width:0.3985;stroke-linecap:butt;stroke-linejoin:miter;stroke:rgb(0%,0%,0%);stroke-opacity:1;stroke-miterlimit:10;" d="M 123.663354 0.00180092 L 123.663354 58.120836 M 123.663354 127.375375 L 123.663354 185.498323 " transform="matrix(0.998355,0,0,-0.998355,1.938492,211.513517)"/>
<g clip-path="url(#clip11)" clip-rule="nonzero">
<path style=" stroke:none;fill-rule:nonzero;fill:rgb(0%,0%,0%);fill-opacity:1;" d="M 126.984375 211.511719 C 126.984375 210.636719 126.273438 209.929688 125.398438 209.929688 C 124.523438 209.929688 123.816406 210.636719 123.816406 211.511719 C 123.816406 212.386719 124.523438 213.097656 125.398438 213.097656 C 126.273438 213.097656 126.984375 212.386719 126.984375 211.511719 Z M 126.984375 211.511719 "/>
</g>
<g clip-path="url(#clip12)" clip-rule="nonzero">
<path style="fill:none;stroke-width:0.3985;stroke-linecap:butt;stroke-linejoin:miter;stroke:rgb(0%,0%,0%);stroke-opacity:1;stroke-miterlimit:10;" d="M 125.251905 0.00180092 C 125.251905 0.878243 124.539796 1.586439 123.663354 1.586439 C 122.786913 1.586439 122.078716 0.878243 122.078716 0.00180092 C 122.078716 -0.874641 122.786913 -1.58675 123.663354 -1.58675 C 124.539796 -1.58675 125.251905 -0.874641 125.251905 0.00180092 Z M 125.251905 0.00180092 " transform="matrix(0.998355,0,0,-0.998355,1.938492,211.513517)"/>
</g>
<path style="fill:none;stroke-width:0.797;stroke-linecap:butt;stroke-linejoin:bevel;stroke:rgb(0%,0%,0%);stroke-opacity:1;stroke-miterlimit:10;" d="M 123.823774 57.725655 C 116.651821 57.725655 110.841483 61.642253 110.841483 66.478333 C 110.841483 71.314413 116.651821 75.234924 123.823774 75.234924 C 116.651821 75.234924 110.841483 79.155435 110.841483 83.991515 C 110.841483 88.827594 116.651821 92.748106 123.823774 92.748106 C 116.651821 92.748106 110.841483 96.668617 110.841483 101.504696 C 110.841483 106.340776 116.651821 110.261287 123.823774 110.261287 C 116.651821 110.261287 110.841483 114.181799 110.841483 119.017878 C 110.841483 123.853958 116.651821 127.774469 123.823774 127.774469 " transform="matrix(0.998355,0,0,-0.998355,1.938492,211.513517)"/>
</g>
</svg>
