<?xml version="1.0" encoding="UTF-8"?>
<svg xmlns="http://www.w3.org/2000/svg" xmlns:xlink="http://www.w3.org/1999/xlink" width="253.443pt" height="174.718pt" viewBox="0 0 253.443 174.718" version="1.2">
<defs>
<clipPath id="clip1">
  <path d="M 0 171 L 4 171 L 4 174.386719 L 0 174.386719 Z M 0 171 "/>
</clipPath>
<clipPath id="clip2">
  <path d="M 0 165 L 9 165 L 9 174.386719 L 0 174.386719 Z M 0 165 "/>
</clipPath>
<clipPath id="clip3">
  <path d="M 249 171 L 252.886719 171 L 252.886719 174.386719 L 249 174.386719 Z M 249 171 "/>
</clipPath>
<clipPath id="clip4">
  <path d="M 243 165 L 252.886719 165 L 252.886719 174.386719 L 243 174.386719 Z M 243 165 "/>
</clipPath>
<clipPath id="clip5">
  <path d="M 0 0.0507812 L 9 0.0507812 L 9 14 L 0 14 Z M 0 0.0507812 "/>
</clipPath>
<clipPath id="clip6">
  <path d="M 36 0.0507812 L 51 0.0507812 L 51 14 L 36 14 Z M 36 0.0507812 "/>
</clipPath>
<clipPath id="clip7">
  <path d="M 110 0.0507812 L 143 0.0507812 L 143 13 L 110 13 Z M 110 0.0507812 "/>
</clipPath>
<clipPath id="clip8">
  <path d="M 202 0.0507812 L 217 0.0507812 L 217 14 L 202 14 Z M 202 0.0507812 "/>
</clipPath>
<clipPath id="clip9">
  <path d="M 249 4 L 252.886719 4 L 252.886719 8 L 249 8 Z M 249 4 "/>
</clipPath>
<clipPath id="clip10">
  <path d="M 243 0.0507812 L 252.886719 0.0507812 L 252.886719 14 L 243 14 Z M 243 0.0507812 "/>
</clipPath>
</defs>
<g id="surface1">
<path style="fill:none;stroke-width:0.3985;stroke-linecap:butt;stroke-linejoin:miter;stroke:rgb(0%,0%,0%);stroke-opacity:1;stroke-miterlimit:10;" d="M -0.000835288 -0.00181771 L 124.937206 -0.00181771 M 124.937206 -0.00181771 L 249.875246 -0.00181771 " transform="matrix(0.997807,0,0,-0.997807,1.782083,172.603655)"/>
<g clip-path="url(#clip1)" clip-rule="nonzero">
<path style=" stroke:none;fill-rule:nonzero;fill:rgb(100%,100%,100%);fill-opacity:1;" d="M 3.367188 172.605469 C 3.367188 171.730469 2.65625 171.019531 1.78125 171.019531 C 0.90625 171.019531 0.199219 171.730469 0.199219 172.605469 C 0.199219 173.476562 0.90625 174.1875 1.78125 174.1875 C 2.65625 174.1875 3.367188 173.476562 3.367188 172.605469 Z M 3.367188 172.605469 "/>
</g>
<g clip-path="url(#clip2)" clip-rule="nonzero">
<path style="fill:none;stroke-width:0.3985;stroke-linecap:butt;stroke-linejoin:miter;stroke:rgb(0%,0%,0%);stroke-opacity:1;stroke-miterlimit:10;" d="M 1.588588 -0.00181771 C 1.588588 0.875105 0.876088 1.587605 -0.000835288 1.587605 C -0.877758 1.587605 -1.586343 0.875105 -1.586343 -0.00181771 C -1.586343 -0.874826 -0.877758 -1.587326 -0.000835288 -1.587326 C 0.876088 -1.587326 1.588588 -0.874826 1.588588 -0.00181771 Z M 1.588588 -0.00181771 " transform="matrix(0.997807,0,0,-0.997807,1.782083,172.603655)"/>
</g>
<g clip-path="url(#clip3)" clip-rule="nonzero">
<path style=" stroke:none;fill-rule:nonzero;fill:rgb(100%,100%,100%);fill-opacity:1;" d="M 252.691406 172.605469 C 252.691406 171.730469 251.984375 171.019531 251.109375 171.019531 C 250.234375 171.019531 249.523438 171.730469 249.523438 172.605469 C 249.523438 173.476562 250.234375 174.1875 251.109375 174.1875 C 251.984375 174.1875 252.691406 173.476562 252.691406 172.605469 Z M 252.691406 172.605469 "/>
</g>
<g clip-path="url(#clip4)" clip-rule="nonzero">
<path style="fill:none;stroke-width:0.3985;stroke-linecap:butt;stroke-linejoin:miter;stroke:rgb(0%,0%,0%);stroke-opacity:1;stroke-miterlimit:10;" d="M 251.460754 -0.00181771 C 251.460754 0.875105 250.752169 1.587605 249.875246 1.587605 C 248.998323 1.587605 248.285823 0.875105 248.285823 -0.00181771 C 248.285823 -0.874826 248.998323 -1.587326 249.875246 -1.587326 C 250.752169 -1.587326 251.460754 -0.874826 251.460754 -0.00181771 Z M 251.460754 -0.00181771 " transform="matrix(0.997807,0,0,-0.997807,1.782083,172.603655)"/>
</g>
<path style="fill:none;stroke-width:0.3985;stroke-linecap:butt;stroke-linejoin:miter;stroke:rgb(0%,0%,0%);stroke-opacity:1;stroke-miterlimit:10;" d="M -0.000835288 166.582237 L 20.822172 166.582237 M 20.822172 166.582237 L 109.06255 166.582237 M 140.811861 166.582237 L 229.05224 166.582237 M 229.05224 166.582237 L 249.875246 166.582237 " transform="matrix(0.997807,0,0,-0.997807,1.782083,172.603655)"/>
<path style=" stroke:none;fill-rule:nonzero;fill:rgb(100%,100%,100%);fill-opacity:1;" d="M 3.367188 6.386719 C 3.367188 5.511719 2.65625 4.804688 1.78125 4.804688 C 0.90625 4.804688 0.199219 5.511719 0.199219 6.386719 C 0.199219 7.261719 0.90625 7.96875 1.78125 7.96875 C 2.65625 7.96875 3.367188 7.261719 3.367188 6.386719 Z M 3.367188 6.386719 "/>
<g clip-path="url(#clip5)" clip-rule="nonzero">
<path style="fill:none;stroke-width:0.3985;stroke-linecap:butt;stroke-linejoin:miter;stroke:rgb(0%,0%,0%);stroke-opacity:1;stroke-miterlimit:10;" d="M 1.588588 166.582237 C 1.588588 167.45916 0.876088 168.167745 -0.000835288 168.167745 C -0.877758 168.167745 -1.586343 167.45916 -1.586343 166.582237 C -1.586343 165.705314 -0.877758 164.996729 -0.000835288 164.996729 C 0.876088 164.996729 1.588588 165.705314 1.588588 166.582237 Z M 1.588588 166.582237 " transform="matrix(0.997807,0,0,-0.997807,1.782083,172.603655)"/>
</g>
<path style=" stroke:none;fill-rule:nonzero;fill:rgb(0%,0%,0%);fill-opacity:1;" d="M 44.921875 6.386719 C 44.921875 5.511719 44.210938 4.804688 43.335938 4.804688 C 42.460938 4.804688 41.753906 5.511719 41.753906 6.386719 C 41.753906 7.261719 42.460938 7.96875 43.335938 7.96875 C 44.210938 7.96875 44.921875 7.261719 44.921875 6.386719 Z M 44.921875 6.386719 "/>
<g clip-path="url(#clip6)" clip-rule="nonzero">
<path style="fill:none;stroke-width:0.3985;stroke-linecap:butt;stroke-linejoin:miter;stroke:rgb(0%,0%,0%);stroke-opacity:1;stroke-miterlimit:10;" d="M 43.234601 166.582237 C 43.234601 167.45916 42.522101 168.167745 41.645178 168.167745 C 40.768255 168.167745 40.05967 167.45916 40.05967 166.582237 C 40.05967 165.705314 40.768255 164.996729 41.645178 164.996729 C 42.522101 164.996729 43.234601 165.705314 43.234601 166.582237 Z M 43.234601 166.582237 " transform="matrix(0.997807,0,0,-0.997807,1.782083,172.603655)"/>
</g>
<g clip-path="url(#clip7)" clip-rule="nonzero">
<path style="fill:none;stroke-width:0.797;stroke-linecap:butt;stroke-linejoin:miter;stroke:rgb(0%,0%,0%);stroke-opacity:1;stroke-miterlimit:10;" d="M 109.06255 172.536701 L 140.811861 172.536701 L 140.811861 160.627773 L 109.06255 160.627773 Z M 109.06255 172.536701 " transform="matrix(0.997807,0,0,-0.997807,1.782083,172.603655)"/>
</g>
<path style=" stroke:none;fill-rule:nonzero;fill:rgb(0%,0%,0%);fill-opacity:1;" d="M 211.136719 6.386719 C 211.136719 5.511719 210.429688 4.804688 209.554688 4.804688 C 208.679688 4.804688 207.96875 5.511719 207.96875 6.386719 C 207.96875 7.261719 208.679688 7.96875 209.554688 7.96875 C 210.429688 7.96875 211.136719 7.261719 211.136719 6.386719 Z M 211.136719 6.386719 "/>
<g clip-path="url(#clip8)" clip-rule="nonzero">
<path style="fill:none;stroke-width:0.3985;stroke-linecap:butt;stroke-linejoin:miter;stroke:rgb(0%,0%,0%);stroke-opacity:1;stroke-miterlimit:10;" d="M 209.814741 166.582237 C 209.814741 167.45916 209.106156 168.167745 208.229233 168.167745 C 207.35231 168.167745 206.63981 167.45916 206.63981 166.582237 C 206.63981 165.705314 207.35231 164.996729 208.229233 164.996729 C 209.106156 164.996729 209.814741 165.705314 209.814741 166.582237 Z M 209.814741 166.582237 " transform="matrix(0.997807,0,0,-0.997807,1.782083,172.603655)"/>
</g>
<g clip-path="url(#clip9)" clip-rule="nonzero">
<path style=" stroke:none;fill-rule:nonzero;fill:rgb(100%,100%,100%);fill-opacity:1;" d="M 252.691406 6.386719 C 252.691406 5.511719 251.984375 4.804688 251.109375 4.804688 C 250.234375 4.804688 249.523438 5.511719 249.523438 6.386719 C 249.523438 7.261719 250.234375 7.96875 251.109375 7.96875 C 251.984375 7.96875 252.691406 7.261719 252.691406 6.386719 Z M 252.691406 6.386719 "/>
</g>
<g clip-path="url(#clip10)" clip-rule="nonzero">
<path style="fill:none;stroke-width:0.3985;stroke-linecap:butt;stroke-linejoin:miter;stroke:rgb(0%,0%,0%);stroke-opacity:1;stroke-miterlimit:10;" d="M 251.460754 166.582237 C 251.460754 167.45916 250.752169 168.167745 249.875246 168.167745 C 248.998323 168.167745 248.285823 167.45916 248.285823 166.582237 C 248.285823 165.705314 248.998323 164.996729 249.875246 164.996729 C 250.752169 164.996729 251.460754 165.705314 251.460754 166.582237 Z M 251.460754 166.582237 " transform="matrix(0.997807,0,0,-0.997807,1.782083,172.603655)"/>
</g>
<path style="fill:none;stroke-width:0.3985;stroke-linecap:butt;stroke-linejoin:miter;stroke:rgb(0%,0%,0%);stroke-opacity:1;stroke-miterlimit:10;" d="M 41.645178 166.582237 L 41.645178 124.936223 M 41.645178 124.936223 L 41.645178 83.290209 L 120.967563 83.290209 M 128.906848 83.290209 L 208.229233 83.290209 L 208.229233 124.936223 M 208.229233 124.936223 L 208.229233 166.582237 " transform="matrix(0.997807,0,0,-0.997807,1.782083,172.603655)"/>
<path style="fill:none;stroke-width:0.797;stroke-linecap:butt;stroke-linejoin:miter;stroke:rgb(0%,0%,0%);stroke-opacity:1;stroke-miterlimit:10;" d="M 120.967563 95.195222 L 120.967563 71.385197 M 128.906848 95.195222 L 128.906848 71.385197 " transform="matrix(0.997807,0,0,-0.997807,1.782083,172.603655)"/>
</g>
</svg>
