<?xml version="1.0" encoding="UTF-8"?>
<svg xmlns="http://www.w3.org/2000/svg" xmlns:xlink="http://www.w3.org/1999/xlink" width="253.443pt" height="191.189pt" viewBox="0 0 253.443 191.189" version="1.2">
<defs>
<clipPath id="clip1">
  <path d="M 0.257812 176 L 4 176 L 4 180 L 0.257812 180 Z M 0.257812 176 "/>
</clipPath>
<clipPath id="clip2">
  <path d="M 0.257812 170 L 10 170 L 10 186 L 0.257812 186 Z M 0.257812 170 "/>
</clipPath>
<clipPath id="clip3">
  <path d="M 122 165 L 131 165 L 131 190.382812 L 122 190.382812 Z M 122 165 "/>
</clipPath>
<clipPath id="clip4">
  <path d="M 249 176 L 252.628906 176 L 252.628906 180 L 249 180 Z M 249 176 "/>
</clipPath>
<clipPath id="clip5">
  <path d="M 243 170 L 252.628906 170 L 252.628906 186 L 243 186 Z M 243 170 "/>
</clipPath>
<clipPath id="clip6">
  <path d="M 0.257812 10 L 4 10 L 4 14 L 0.257812 14 Z M 0.257812 10 "/>
</clipPath>
<clipPath id="clip7">
  <path d="M 0.257812 5 L 10 5 L 10 20 L 0.257812 20 Z M 0.257812 5 "/>
</clipPath>
<clipPath id="clip8">
  <path d="M 249 10 L 252.628906 10 L 252.628906 14 L 249 14 Z M 249 10 "/>
</clipPath>
<clipPath id="clip9">
  <path d="M 243 5 L 252.628906 5 L 252.628906 20 L 243 20 Z M 243 5 "/>
</clipPath>
</defs>
<g id="surface1">
<path style="fill:none;stroke-width:0.3985;stroke-linecap:butt;stroke-linejoin:miter;stroke:rgb(0%,0%,0%);stroke-opacity:1;stroke-miterlimit:10;" d="M -0.00124774 0.000493046 L 20.82108 0.000493046 M 20.82108 0.000493046 L 120.966747 0.000493046 M 128.906535 0.000493046 L 229.052202 0.000493046 M 229.052202 0.000493046 L 249.87453 0.000493046 " transform="matrix(0.995776,0,0,-0.995776,2.036399,178.129397)"/>
<g clip-path="url(#clip1)" clip-rule="nonzero">
<path style=" stroke:none;fill-rule:nonzero;fill:rgb(100%,100%,100%);fill-opacity:1;" d="M 3.617188 178.128906 C 3.617188 177.257812 2.910156 176.550781 2.035156 176.550781 C 1.164062 176.550781 0.457031 177.257812 0.457031 178.128906 C 0.457031 179.003906 1.164062 179.710938 2.035156 179.710938 C 2.910156 179.710938 3.617188 179.003906 3.617188 178.128906 Z M 3.617188 178.128906 "/>
</g>
<g clip-path="url(#clip2)" clip-rule="nonzero">
<path style="fill:none;stroke-width:0.3985;stroke-linecap:butt;stroke-linejoin:miter;stroke:rgb(0%,0%,0%);stroke-opacity:1;stroke-miterlimit:10;" d="M 1.587494 0.000493046 C 1.587494 0.875282 0.877464 1.585312 -0.00124774 1.585312 C -0.876037 1.585312 -1.586067 0.875282 -1.586067 0.000493046 C -1.586067 -0.878219 -0.876037 -1.588249 -0.00124774 -1.588249 C 0.877464 -1.588249 1.587494 -0.878219 1.587494 0.000493046 Z M 1.587494 0.000493046 " transform="matrix(0.995776,0,0,-0.995776,2.036399,178.129397)"/>
</g>
<path style="fill-rule:nonzero;fill:rgb(0%,0%,0%);fill-opacity:1;stroke-width:0.3985;stroke-linecap:butt;stroke-linejoin:miter;stroke:rgb(0%,0%,0%);stroke-opacity:1;stroke-miterlimit:10;" d="M 43.23215 0.000493046 C 43.23215 0.875282 42.522119 1.585312 41.64733 1.585312 C 40.768619 1.585312 40.058588 0.875282 40.058588 0.000493046 C 40.058588 -0.878219 40.768619 -1.588249 41.64733 -1.588249 C 42.522119 -1.588249 43.23215 -0.878219 43.23215 0.000493046 Z M 43.23215 0.000493046 " transform="matrix(0.995776,0,0,-0.995776,2.036399,178.129397)"/>
<g clip-path="url(#clip3)" clip-rule="nonzero">
<path style="fill:none;stroke-width:0.797;stroke-linecap:butt;stroke-linejoin:miter;stroke:rgb(0%,0%,0%);stroke-opacity:1;stroke-miterlimit:10;" d="M 120.966747 11.906251 L 120.966747 -11.905265 M 128.906535 11.906251 L 128.906535 -11.905265 " transform="matrix(0.995776,0,0,-0.995776,2.036399,178.129397)"/>
</g>
<path style="fill-rule:nonzero;fill:rgb(0%,0%,0%);fill-opacity:1;stroke-width:0.3985;stroke-linecap:butt;stroke-linejoin:miter;stroke:rgb(0%,0%,0%);stroke-opacity:1;stroke-miterlimit:10;" d="M 209.814694 0.000493046 C 209.814694 0.875282 209.104663 1.585312 208.229874 1.585312 C 207.351163 1.585312 206.641132 0.875282 206.641132 0.000493046 C 206.641132 -0.878219 207.351163 -1.588249 208.229874 -1.588249 C 209.104663 -1.588249 209.814694 -0.878219 209.814694 0.000493046 Z M 209.814694 0.000493046 " transform="matrix(0.995776,0,0,-0.995776,2.036399,178.129397)"/>
<g clip-path="url(#clip4)" clip-rule="nonzero">
<path style=" stroke:none;fill-rule:nonzero;fill:rgb(100%,100%,100%);fill-opacity:1;" d="M 252.433594 178.128906 C 252.433594 177.257812 251.726562 176.550781 250.855469 176.550781 C 249.980469 176.550781 249.273438 177.257812 249.273438 178.128906 C 249.273438 179.003906 249.980469 179.710938 250.855469 179.710938 C 251.726562 179.710938 252.433594 179.003906 252.433594 178.128906 Z M 252.433594 178.128906 "/>
</g>
<g clip-path="url(#clip5)" clip-rule="nonzero">
<path style="fill:none;stroke-width:0.3985;stroke-linecap:butt;stroke-linejoin:miter;stroke:rgb(0%,0%,0%);stroke-opacity:1;stroke-miterlimit:10;" d="M 251.459349 0.000493046 C 251.459349 0.875282 250.749318 1.585312 249.87453 1.585312 C 248.995818 1.585312 248.285788 0.875282 248.285788 0.000493046 C 248.285788 -0.878219 248.995818 -1.588249 249.87453 -1.588249 C 250.749318 -1.588249 251.459349 -0.878219 251.459349 0.000493046 Z M 251.459349 0.000493046 " transform="matrix(0.995776,0,0,-0.995776,2.036399,178.129397)"/>
</g>
<path style="fill:none;stroke-width:0.3985;stroke-linecap:butt;stroke-linejoin:miter;stroke:rgb(0%,0%,0%);stroke-opacity:1;stroke-miterlimit:10;" d="M -0.00124774 166.583037 L 20.82108 166.583037 M 20.82108 166.583037 L 120.966747 166.583037 M 128.906535 166.583037 L 229.052202 166.583037 M 229.052202 166.583037 L 249.87453 166.583037 " transform="matrix(0.995776,0,0,-0.995776,2.036399,178.129397)"/>
<g clip-path="url(#clip6)" clip-rule="nonzero">
<path style=" stroke:none;fill-rule:nonzero;fill:rgb(100%,100%,100%);fill-opacity:1;" d="M 3.617188 12.25 C 3.617188 11.378906 2.910156 10.671875 2.035156 10.671875 C 1.164062 10.671875 0.457031 11.378906 0.457031 12.25 C 0.457031 13.125 1.164062 13.832031 2.035156 13.832031 C 2.910156 13.832031 3.617188 13.125 3.617188 12.25 Z M 3.617188 12.25 "/>
</g>
<g clip-path="url(#clip7)" clip-rule="nonzero">
<path style="fill:none;stroke-width:0.3985;stroke-linecap:butt;stroke-linejoin:miter;stroke:rgb(0%,0%,0%);stroke-opacity:1;stroke-miterlimit:10;" d="M 1.587494 166.583037 C 1.587494 167.457826 0.877464 168.167856 -0.00124774 168.167856 C -0.876037 168.167856 -1.586067 167.457826 -1.586067 166.583037 C -1.586067 165.704325 -0.876037 164.994295 -0.00124774 164.994295 C 0.877464 164.994295 1.587494 165.704325 1.587494 166.583037 Z M 1.587494 166.583037 " transform="matrix(0.995776,0,0,-0.995776,2.036399,178.129397)"/>
</g>
<path style="fill-rule:nonzero;fill:rgb(0%,0%,0%);fill-opacity:1;stroke-width:0.3985;stroke-linecap:butt;stroke-linejoin:miter;stroke:rgb(0%,0%,0%);stroke-opacity:1;stroke-miterlimit:10;" d="M 43.23215 166.583037 C 43.23215 167.457826 42.522119 168.167856 41.64733 168.167856 C 40.768619 168.167856 40.058588 167.457826 40.058588 166.583037 C 40.058588 165.704325 40.768619 164.994295 41.64733 164.994295 C 42.522119 164.994295 43.23215 165.704325 43.23215 166.583037 Z M 43.23215 166.583037 " transform="matrix(0.995776,0,0,-0.995776,2.036399,178.129397)"/>
<path style="fill:none;stroke-width:0.797;stroke-linecap:butt;stroke-linejoin:miter;stroke:rgb(0%,0%,0%);stroke-opacity:1;stroke-miterlimit:10;" d="M 120.966747 178.488795 L 120.966747 154.677279 M 128.906535 178.488795 L 128.906535 154.677279 " transform="matrix(0.995776,0,0,-0.995776,2.036399,178.129397)"/>
<path style="fill-rule:nonzero;fill:rgb(0%,0%,0%);fill-opacity:1;stroke-width:0.3985;stroke-linecap:butt;stroke-linejoin:miter;stroke:rgb(0%,0%,0%);stroke-opacity:1;stroke-miterlimit:10;" d="M 209.814694 166.583037 C 209.814694 167.457826 209.104663 168.167856 208.229874 168.167856 C 207.351163 168.167856 206.641132 167.457826 206.641132 166.583037 C 206.641132 165.704325 207.351163 164.994295 208.229874 164.994295 C 209.104663 164.994295 209.814694 165.704325 209.814694 166.583037 Z M 209.814694 166.583037 " transform="matrix(0.995776,0,0,-0.995776,2.036399,178.129397)"/>
<g clip-path="url(#clip8)" clip-rule="nonzero">
<path style=" stroke:none;fill-rule:nonzero;fill:rgb(100%,100%,100%);fill-opacity:1;" d="M 252.433594 12.25 C 252.433594 11.378906 251.726562 10.671875 250.855469 10.671875 C 249.980469 10.671875 249.273438 11.378906 249.273438 12.25 C 249.273438 13.125 249.980469 13.832031 250.855469 13.832031 C 251.726562 13.832031 252.433594 13.125 252.433594 12.25 Z M 252.433594 12.25 "/>
</g>
<g clip-path="url(#clip9)" clip-rule="nonzero">
<path style="fill:none;stroke-width:0.3985;stroke-linecap:butt;stroke-linejoin:miter;stroke:rgb(0%,0%,0%);stroke-opacity:1;stroke-miterlimit:10;" d="M 251.459349 166.583037 C 251.459349 167.457826 250.749318 168.167856 249.87453 168.167856 C 248.995818 168.167856 248.285788 167.457826 248.285788 166.583037 C 248.285788 165.704325 248.995818 164.994295 249.87453 164.994295 C 250.749318 164.994295 251.459349 165.704325 251.459349 166.583037 Z M 251.459349 166.583037 " transform="matrix(0.995776,0,0,-0.995776,2.036399,178.129397)"/>
</g>
<path style="fill:none;stroke-width:0.3985;stroke-linecap:butt;stroke-linejoin:miter;stroke:rgb(0%,0%,0%);stroke-opacity:1;stroke-miterlimit:10;" d="M 41.64733 0.000493046 L 41.64733 67.418075 M 41.64733 99.165455 L 41.64733 166.583037 " transform="matrix(0.995776,0,0,-0.995776,2.036399,178.129397)"/>
<path style="fill:none;stroke-width:0.797;stroke-linecap:butt;stroke-linejoin:bevel;stroke:rgb(0%,0%,0%);stroke-opacity:1;stroke-miterlimit:10;" d="M 41.804243 67.017947 C 38.51692 67.017947 35.853325 68.838135 35.853325 71.085911 C 35.853325 73.333687 38.51692 75.153875 41.804243 75.153875 C 38.51692 75.153875 35.853325 76.977987 35.853325 79.221839 C 35.853325 81.469615 38.51692 83.289804 41.804243 83.289804 C 38.51692 83.289804 35.853325 85.113915 35.853325 87.357768 C 35.853325 89.605544 38.51692 91.425732 41.804243 91.425732 C 38.51692 91.425732 35.853325 93.249843 35.853325 95.497619 C 35.853325 97.741472 38.51692 99.565583 41.804243 99.565583 " transform="matrix(0.995776,0,0,-0.995776,2.036399,178.129397)"/>
<path style="fill:none;stroke-width:0.3985;stroke-linecap:butt;stroke-linejoin:miter;stroke:rgb(0%,0%,0%);stroke-opacity:1;stroke-miterlimit:10;" d="M 208.229874 0.000493046 L 208.229874 67.418075 M 208.229874 99.165455 L 208.229874 166.583037 " transform="matrix(0.995776,0,0,-0.995776,2.036399,178.129397)"/>
<path style="fill:none;stroke-width:0.797;stroke-linecap:butt;stroke-linejoin:bevel;stroke:rgb(0%,0%,0%);stroke-opacity:1;stroke-miterlimit:10;" d="M 208.386787 67.017947 C 205.099464 67.017947 202.435869 68.838135 202.435869 71.085911 C 202.435869 73.333687 205.099464 75.153875 208.386787 75.153875 C 205.099464 75.153875 202.435869 76.977987 202.435869 79.221839 C 202.435869 81.469615 205.099464 83.289804 208.386787 83.289804 C 205.099464 83.289804 202.435869 85.113915 202.435869 87.357768 C 202.435869 89.605544 205.099464 91.425732 208.386787 91.425732 C 205.099464 91.425732 202.435869 93.249843 202.435869 95.497619 C 202.435869 97.741472 205.099464 99.565583 208.386787 99.565583 " transform="matrix(0.995776,0,0,-0.995776,2.036399,178.129397)"/>
<path style="fill:none;stroke-width:0.3985;stroke-linecap:butt;stroke-linejoin:miter;stroke:rgb(0%,0%,0%);stroke-opacity:1;stroke-dasharray:2.98883,1.99255;stroke-miterlimit:10;" d="M 33.699697 99.165455 L 33.699697 67.418075 " transform="matrix(0.995776,0,0,-0.995776,2.036399,178.129397)"/>
<path style="fill:none;stroke-width:0.3985;stroke-linecap:butt;stroke-linejoin:miter;stroke:rgb(0%,0%,0%);stroke-opacity:1;stroke-dasharray:2.98883,1.99255;stroke-miterlimit:10;" d="M 200.282241 99.165455 L 200.282241 67.418075 " transform="matrix(0.995776,0,0,-0.995776,2.036399,178.129397)"/>
</g>
</svg>
