<?xml version="1.0" encoding="UTF-8"?>
<svg xmlns="http://www.w3.org/2000/svg" xmlns:xlink="http://www.w3.org/1999/xlink" width="253.443pt" height="176.511pt" viewBox="0 0 253.443 176.511" version="1.2">
<defs>
<clipPath id="clip1">
  <path d="M 0.0742188 172 L 4 172 L 4 176 L 0.0742188 176 Z M 0.0742188 172 "/>
</clipPath>
<clipPath id="clip2">
  <path d="M 0.0742188 167 L 10 167 L 10 176.023438 L 0.0742188 176.023438 Z M 0.0742188 167 "/>
</clipPath>
<clipPath id="clip3">
  <path d="M 249 172 L 252.816406 172 L 252.816406 176 L 249 176 Z M 249 172 "/>
</clipPath>
<clipPath id="clip4">
  <path d="M 243 167 L 252.816406 167 L 252.816406 176.023438 L 243 176.023438 Z M 243 167 "/>
</clipPath>
<clipPath id="clip5">
  <path d="M 0.0742188 6 L 4 6 L 4 10 L 0.0742188 10 Z M 0.0742188 6 "/>
</clipPath>
<clipPath id="clip6">
  <path d="M 0.0742188 0 L 10 0 L 10 16 L 0.0742188 16 Z M 0.0742188 0 "/>
</clipPath>
<clipPath id="clip7">
  <path d="M 249 6 L 252.816406 6 L 252.816406 10 L 249 10 Z M 249 6 "/>
</clipPath>
<clipPath id="clip8">
  <path d="M 243 0 L 252.816406 0 L 252.816406 16 L 243 16 Z M 243 0 "/>
</clipPath>
<clipPath id="clip9">
  <path d="M 36 167 L 51 167 L 51 176.023438 L 36 176.023438 Z M 36 167 "/>
</clipPath>
<clipPath id="clip10">
  <path d="M 202 167 L 217 167 L 217 176.023438 L 202 176.023438 Z M 202 167 "/>
</clipPath>
</defs>
<g id="surface1">
<path style="fill:none;stroke-width:0.3985;stroke-linecap:butt;stroke-linejoin:miter;stroke:rgb(0%,0%,0%);stroke-opacity:1;stroke-miterlimit:10;" d="M -0.00187288 0.0000979401 L 20.82128 0.0000979401 M 20.82128 0.0000979401 L 109.061156 0.0000979401 M 140.812939 0.0000979401 L 229.052814 0.0000979401 M 229.052814 0.0000979401 L 249.872051 0.0000979401 " transform="matrix(0.997237,0,0,-0.997237,1.85343,174.242285)"/>
<g clip-path="url(#clip1)" clip-rule="nonzero">
<path style=" stroke:none;fill-rule:nonzero;fill:rgb(100%,100%,100%);fill-opacity:1;" d="M 3.4375 174.242188 C 3.4375 173.367188 2.726562 172.660156 1.851562 172.660156 C 0.980469 172.660156 0.269531 173.367188 0.269531 174.242188 C 0.269531 175.117188 0.980469 175.824219 1.851562 175.824219 C 2.726562 175.824219 3.4375 175.117188 3.4375 174.242188 Z M 3.4375 174.242188 "/>
</g>
<g clip-path="url(#clip2)" clip-rule="nonzero">
<path style="fill:none;stroke-width:0.3985;stroke-linecap:butt;stroke-linejoin:miter;stroke:rgb(0%,0%,0%);stroke-opacity:1;stroke-miterlimit:10;" d="M 1.588458 0.0000979401 C 1.588458 0.877522 0.875551 1.586512 -0.00187288 1.586512 C -0.87538 1.586512 -1.588287 0.877522 -1.588287 0.0000979401 C -1.588287 -0.877326 -0.87538 -1.586316 -0.00187288 -1.586316 C 0.875551 -1.586316 1.588458 -0.877326 1.588458 0.0000979401 Z M 1.588458 0.0000979401 " transform="matrix(0.997237,0,0,-0.997237,1.85343,174.242285)"/>
</g>
<path style="fill:none;stroke-width:0.797;stroke-linecap:butt;stroke-linejoin:bevel;stroke:rgb(0%,0%,0%);stroke-opacity:1;stroke-miterlimit:10;" d="M 108.665531 -0.160502 C 108.665531 3.129838 110.48697 5.793447 112.731452 5.793447 C 114.979851 5.793447 116.801289 3.129838 116.801289 -0.160502 C 116.801289 3.129838 118.622728 5.793447 120.86721 5.793447 C 123.115609 5.793447 124.937047 3.129838 124.937047 -0.160502 C 124.937047 3.129838 126.758486 5.793447 129.006885 5.793447 C 131.251367 5.793447 133.072805 3.129838 133.072805 -0.160502 C 133.072805 3.129838 134.894244 5.793447 137.142643 5.793447 C 139.387125 5.793447 141.208563 3.129838 141.208563 -0.160502 " transform="matrix(0.997237,0,0,-0.997237,1.85343,174.242285)"/>
<g clip-path="url(#clip3)" clip-rule="nonzero">
<path style=" stroke:none;fill-rule:nonzero;fill:rgb(100%,100%,100%);fill-opacity:1;" d="M 252.621094 174.242188 C 252.621094 173.367188 251.910156 172.660156 251.035156 172.660156 C 250.164062 172.660156 249.453125 173.367188 249.453125 174.242188 C 249.453125 175.117188 250.164062 175.824219 251.035156 175.824219 C 251.910156 175.824219 252.621094 175.117188 252.621094 174.242188 Z M 252.621094 174.242188 "/>
</g>
<g clip-path="url(#clip4)" clip-rule="nonzero">
<path style="fill:none;stroke-width:0.3985;stroke-linecap:butt;stroke-linejoin:miter;stroke:rgb(0%,0%,0%);stroke-opacity:1;stroke-miterlimit:10;" d="M 251.462382 0.0000979401 C 251.462382 0.877522 250.749475 1.586512 249.872051 1.586512 C 248.998544 1.586512 248.285636 0.877522 248.285636 0.0000979401 C 248.285636 -0.877326 248.998544 -1.586316 249.872051 -1.586316 C 250.749475 -1.586316 251.462382 -0.877326 251.462382 0.0000979401 Z M 251.462382 0.0000979401 " transform="matrix(0.997237,0,0,-0.997237,1.85343,174.242285)"/>
</g>
<path style="fill:none;stroke-width:0.3985;stroke-linecap:butt;stroke-linejoin:miter;stroke:rgb(0%,0%,0%);stroke-opacity:1;stroke-miterlimit:10;" d="M -0.00187288 166.581408 L 20.82128 166.581408 M 20.82128 166.581408 L 109.061156 166.581408 M 140.812939 166.581408 L 229.052814 166.581408 M 229.052814 166.581408 L 249.872051 166.581408 " transform="matrix(0.997237,0,0,-0.997237,1.85343,174.242285)"/>
<g clip-path="url(#clip5)" clip-rule="nonzero">
<path style=" stroke:none;fill-rule:nonzero;fill:rgb(100%,100%,100%);fill-opacity:1;" d="M 3.4375 8.121094 C 3.4375 7.246094 2.726562 6.539062 1.851562 6.539062 C 0.980469 6.539062 0.269531 7.246094 0.269531 8.121094 C 0.269531 8.992188 0.980469 9.703125 1.851562 9.703125 C 2.726562 9.703125 3.4375 8.992188 3.4375 8.121094 Z M 3.4375 8.121094 "/>
</g>
<g clip-path="url(#clip6)" clip-rule="nonzero">
<path style="fill:none;stroke-width:0.3985;stroke-linecap:butt;stroke-linejoin:miter;stroke:rgb(0%,0%,0%);stroke-opacity:1;stroke-miterlimit:10;" d="M 1.588458 166.581408 C 1.588458 167.458832 0.875551 168.167822 -0.00187288 168.167822 C -0.87538 168.167822 -1.588287 167.458832 -1.588287 166.581408 C -1.588287 165.707901 -0.87538 164.994994 -0.00187288 164.994994 C 0.875551 164.994994 1.588458 165.707901 1.588458 166.581408 Z M 1.588458 166.581408 " transform="matrix(0.997237,0,0,-0.997237,1.85343,174.242285)"/>
</g>
<path style="fill:none;stroke-width:0.797;stroke-linecap:butt;stroke-linejoin:bevel;stroke:rgb(0%,0%,0%);stroke-opacity:1;stroke-miterlimit:10;" d="M 108.665531 166.424725 C 108.665531 169.711148 110.48697 172.374757 112.731452 172.374757 C 114.979851 172.374757 116.801289 169.711148 116.801289 166.424725 C 116.801289 169.711148 118.622728 172.374757 120.86721 172.374757 C 123.115609 172.374757 124.937047 169.711148 124.937047 166.424725 C 124.937047 169.711148 126.758486 172.374757 129.006885 172.374757 C 131.251367 172.374757 133.072805 169.711148 133.072805 166.424725 C 133.072805 169.711148 134.894244 172.374757 137.142643 172.374757 C 139.387125 172.374757 141.208563 169.711148 141.208563 166.424725 " transform="matrix(0.997237,0,0,-0.997237,1.85343,174.242285)"/>
<g clip-path="url(#clip7)" clip-rule="nonzero">
<path style=" stroke:none;fill-rule:nonzero;fill:rgb(100%,100%,100%);fill-opacity:1;" d="M 252.621094 8.121094 C 252.621094 7.246094 251.910156 6.539062 251.035156 6.539062 C 250.164062 6.539062 249.453125 7.246094 249.453125 8.121094 C 249.453125 8.992188 250.164062 9.703125 251.035156 9.703125 C 251.910156 9.703125 252.621094 8.992188 252.621094 8.121094 Z M 252.621094 8.121094 "/>
</g>
<g clip-path="url(#clip8)" clip-rule="nonzero">
<path style="fill:none;stroke-width:0.3985;stroke-linecap:butt;stroke-linejoin:miter;stroke:rgb(0%,0%,0%);stroke-opacity:1;stroke-miterlimit:10;" d="M 251.462382 166.581408 C 251.462382 167.458832 250.749475 168.167822 249.872051 168.167822 C 248.998544 168.167822 248.285636 167.458832 248.285636 166.581408 C 248.285636 165.707901 248.998544 164.994994 249.872051 164.994994 C 250.749475 164.994994 251.462382 165.707901 251.462382 166.581408 Z M 251.462382 166.581408 " transform="matrix(0.997237,0,0,-0.997237,1.85343,174.242285)"/>
</g>
<path style="fill:none;stroke-width:0.3985;stroke-linecap:butt;stroke-linejoin:miter;stroke:rgb(0%,0%,0%);stroke-opacity:1;stroke-miterlimit:10;" d="M 41.644434 0.0000979401 L 41.644434 79.324718 M 41.644434 87.260705 L 41.644434 166.581408 " transform="matrix(0.997237,0,0,-0.997237,1.85343,174.242285)"/>
<path style="fill:none;stroke-width:0.797;stroke-linecap:butt;stroke-linejoin:miter;stroke:rgb(0%,0%,0%);stroke-opacity:1;stroke-miterlimit:10;" d="M 29.740453 79.324718 L 53.552332 79.324718 M 29.740453 87.260705 L 53.552332 87.260705 " transform="matrix(0.997237,0,0,-0.997237,1.85343,174.242285)"/>
<path style=" stroke:none;fill-rule:nonzero;fill:rgb(0%,0%,0%);fill-opacity:1;" d="M 44.964844 174.242188 C 44.964844 173.367188 44.257812 172.660156 43.382812 172.660156 C 42.511719 172.660156 41.800781 173.367188 41.800781 174.242188 C 41.800781 175.117188 42.511719 175.824219 43.382812 175.824219 C 44.257812 175.824219 44.964844 175.117188 44.964844 174.242188 Z M 44.964844 174.242188 "/>
<g clip-path="url(#clip9)" clip-rule="nonzero">
<path style="fill:none;stroke-width:0.3985;stroke-linecap:butt;stroke-linejoin:miter;stroke:rgb(0%,0%,0%);stroke-opacity:1;stroke-miterlimit:10;" d="M 43.230848 0.0000979401 C 43.230848 0.877522 42.521858 1.586512 41.644434 1.586512 C 40.770927 1.586512 40.05802 0.877522 40.05802 0.0000979401 C 40.05802 -0.877326 40.770927 -1.586316 41.644434 -1.586316 C 42.521858 -1.586316 43.230848 -0.877326 43.230848 0.0000979401 Z M 43.230848 0.0000979401 " transform="matrix(0.997237,0,0,-0.997237,1.85343,174.242285)"/>
</g>
<path style="fill-rule:nonzero;fill:rgb(0%,0%,0%);fill-opacity:1;stroke-width:0.3985;stroke-linecap:butt;stroke-linejoin:miter;stroke:rgb(0%,0%,0%);stroke-opacity:1;stroke-miterlimit:10;" d="M 43.230848 166.581408 C 43.230848 167.458832 42.521858 168.167822 41.644434 168.167822 C 40.770927 168.167822 40.05802 167.458832 40.05802 166.581408 C 40.05802 165.707901 40.770927 164.994994 41.644434 164.994994 C 42.521858 164.994994 43.230848 165.707901 43.230848 166.581408 Z M 43.230848 166.581408 " transform="matrix(0.997237,0,0,-0.997237,1.85343,174.242285)"/>
<path style="fill:none;stroke-width:0.3985;stroke-linecap:butt;stroke-linejoin:miter;stroke:rgb(0%,0%,0%);stroke-opacity:1;stroke-miterlimit:10;" d="M 208.229661 0.0000979401 L 208.229661 79.324718 M 208.229661 87.260705 L 208.229661 166.581408 " transform="matrix(0.997237,0,0,-0.997237,1.85343,174.242285)"/>
<path style="fill:none;stroke-width:0.797;stroke-linecap:butt;stroke-linejoin:miter;stroke:rgb(0%,0%,0%);stroke-opacity:1;stroke-miterlimit:10;" d="M 196.321763 79.324718 L 220.133642 79.324718 M 196.321763 87.260705 L 220.133642 87.260705 " transform="matrix(0.997237,0,0,-0.997237,1.85343,174.242285)"/>
<path style=" stroke:none;fill-rule:nonzero;fill:rgb(0%,0%,0%);fill-opacity:1;" d="M 211.089844 174.242188 C 211.089844 173.367188 210.378906 172.660156 209.507812 172.660156 C 208.632812 172.660156 207.921875 173.367188 207.921875 174.242188 C 207.921875 175.117188 208.632812 175.824219 209.507812 175.824219 C 210.378906 175.824219 211.089844 175.117188 211.089844 174.242188 Z M 211.089844 174.242188 "/>
<g clip-path="url(#clip10)" clip-rule="nonzero">
<path style="fill:none;stroke-width:0.3985;stroke-linecap:butt;stroke-linejoin:miter;stroke:rgb(0%,0%,0%);stroke-opacity:1;stroke-miterlimit:10;" d="M 209.816075 0.0000979401 C 209.816075 0.877522 209.103168 1.586512 208.229661 1.586512 C 207.352237 1.586512 206.63933 0.877522 206.63933 0.0000979401 C 206.63933 -0.877326 207.352237 -1.586316 208.229661 -1.586316 C 209.103168 -1.586316 209.816075 -0.877326 209.816075 0.0000979401 Z M 209.816075 0.0000979401 " transform="matrix(0.997237,0,0,-0.997237,1.85343,174.242285)"/>
</g>
<path style="fill-rule:nonzero;fill:rgb(0%,0%,0%);fill-opacity:1;stroke-width:0.3985;stroke-linecap:butt;stroke-linejoin:miter;stroke:rgb(0%,0%,0%);stroke-opacity:1;stroke-miterlimit:10;" d="M 209.816075 166.581408 C 209.816075 167.458832 209.103168 168.167822 208.229661 168.167822 C 207.352237 168.167822 206.63933 167.458832 206.63933 166.581408 C 206.63933 165.707901 207.352237 164.994994 208.229661 164.994994 C 209.103168 164.994994 209.816075 165.707901 209.816075 166.581408 Z M 209.816075 166.581408 " transform="matrix(0.997237,0,0,-0.997237,1.85343,174.242285)"/>
<path style="fill:none;stroke-width:0.3985;stroke-linecap:butt;stroke-linejoin:miter;stroke:rgb(0%,0%,0%);stroke-opacity:1;stroke-dasharray:2.98883,1.99255;stroke-miterlimit:10;" d="M 109.061156 7.943919 L 140.812939 7.943919 " transform="matrix(0.997237,0,0,-0.997237,1.85343,174.242285)"/>
<path style="fill:none;stroke-width:0.3985;stroke-linecap:butt;stroke-linejoin:miter;stroke:rgb(0%,0%,0%);stroke-opacity:1;stroke-dasharray:2.98883,1.99255;stroke-miterlimit:10;" d="M 109.061156 174.529146 L 140.812939 174.529146 " transform="matrix(0.997237,0,0,-0.997237,1.85343,174.242285)"/>
</g>
</svg>
