<?xml version="1.0" encoding="UTF-8"?>
<svg xmlns="http://www.w3.org/2000/svg" xmlns:xlink="http://www.w3.org/1999/xlink" width="250.898pt" height="213.648pt" viewBox="0 0 250.898 213.648" version="1.2">
<defs>
<clipPath id="clip1">
  <path d="M 0.15625 209 L 4 209 L 4 213.296875 L 0.15625 213.296875 Z M 0.15625 209 "/>
</clipPath>
<clipPath id="clip2">
  <path d="M 0.15625 204 L 10 204 L 10 213.296875 L 0.15625 213.296875 Z M 0.15625 204 "/>
</clipPath>
<clipPath id="clip3">
  <path d="M 62 209 L 66 209 L 66 213.296875 L 62 213.296875 Z M 62 209 "/>
</clipPath>
<clipPath id="clip4">
  <path d="M 56 204 L 71 204 L 71 213.296875 L 56 213.296875 Z M 56 204 "/>
</clipPath>
<clipPath id="clip5">
  <path d="M 185 209 L 189 209 L 189 213.296875 L 185 213.296875 Z M 185 209 "/>
</clipPath>
<clipPath id="clip6">
  <path d="M 179 204 L 195 204 L 195 213.296875 L 179 213.296875 Z M 179 204 "/>
</clipPath>
<clipPath id="clip7">
  <path d="M 247 209 L 250.640625 209 L 250.640625 213.296875 L 247 213.296875 Z M 247 209 "/>
</clipPath>
<clipPath id="clip8">
  <path d="M 241 204 L 250.640625 204 L 250.640625 213.296875 L 241 213.296875 Z M 241 204 "/>
</clipPath>
<clipPath id="clip9">
  <path d="M 0.15625 24 L 4 24 L 4 28 L 0.15625 28 Z M 0.15625 24 "/>
</clipPath>
<clipPath id="clip10">
  <path d="M 0.15625 19 L 10 19 L 10 34 L 0.15625 34 Z M 0.15625 19 "/>
</clipPath>
<clipPath id="clip11">
  <path d="M 247 24 L 250.640625 24 L 250.640625 28 L 247 28 Z M 247 24 "/>
</clipPath>
<clipPath id="clip12">
  <path d="M 241 19 L 250.640625 19 L 250.640625 34 L 241 34 Z M 241 19 "/>
</clipPath>
</defs>
<g id="surface1">
<path style="fill:none;stroke-width:0.3985;stroke-linecap:butt;stroke-linejoin:miter;stroke:rgb(0%,0%,0%);stroke-opacity:1;stroke-miterlimit:10;" d="M -0.000993822 0.00180092 L 30.91705 0.00180092 M 30.91705 0.00180092 L 123.663354 0.00180092 M 123.663354 0.00180092 L 216.413572 0.00180092 M 216.413572 0.00180092 L 247.327702 0.00180092 " transform="matrix(0.998355,0,0,-0.998355,1.938492,211.513517)"/>
<g clip-path="url(#clip1)" clip-rule="nonzero">
<path style=" stroke:none;fill-rule:nonzero;fill:rgb(100%,100%,100%);fill-opacity:1;" d="M 3.523438 211.511719 C 3.523438 210.636719 2.8125 209.929688 1.9375 209.929688 C 1.0625 209.929688 0.355469 210.636719 0.355469 211.511719 C 0.355469 212.386719 1.0625 213.097656 1.9375 213.097656 C 2.8125 213.097656 3.523438 212.386719 3.523438 211.511719 Z M 3.523438 211.511719 "/>
</g>
<g clip-path="url(#clip2)" clip-rule="nonzero">
<path style="fill:none;stroke-width:0.3985;stroke-linecap:butt;stroke-linejoin:miter;stroke:rgb(0%,0%,0%);stroke-opacity:1;stroke-miterlimit:10;" d="M 1.587557 0.00180092 C 1.587557 0.878243 0.875448 1.586439 -0.000993822 1.586439 C -0.877435 1.586439 -1.585632 0.878243 -1.585632 0.00180092 C -1.585632 -0.874641 -0.877435 -1.58675 -0.000993822 -1.58675 C 0.875448 -1.58675 1.587557 -0.874641 1.587557 0.00180092 Z M 1.587557 0.00180092 " transform="matrix(0.998355,0,0,-0.998355,1.938492,211.513517)"/>
</g>
<g clip-path="url(#clip3)" clip-rule="nonzero">
<path style=" stroke:none;fill-rule:nonzero;fill:rgb(0%,0%,0%);fill-opacity:1;" d="M 65.253906 211.511719 C 65.253906 210.636719 64.542969 209.929688 63.667969 209.929688 C 62.792969 209.929688 62.085938 210.636719 62.085938 211.511719 C 62.085938 212.386719 62.792969 213.097656 63.667969 213.097656 C 64.542969 213.097656 65.253906 212.386719 65.253906 211.511719 Z M 65.253906 211.511719 "/>
</g>
<g clip-path="url(#clip4)" clip-rule="nonzero">
<path style="fill:none;stroke-width:0.3985;stroke-linecap:butt;stroke-linejoin:miter;stroke:rgb(0%,0%,0%);stroke-opacity:1;stroke-miterlimit:10;" d="M 63.419731 0.00180092 C 63.419731 0.878243 62.707622 1.586439 61.83118 1.586439 C 60.954739 1.586439 60.246542 0.878243 60.246542 0.00180092 C 60.246542 -0.874641 60.954739 -1.58675 61.83118 -1.58675 C 62.707622 -1.58675 63.419731 -0.874641 63.419731 0.00180092 Z M 63.419731 0.00180092 " transform="matrix(0.998355,0,0,-0.998355,1.938492,211.513517)"/>
</g>
<g clip-path="url(#clip5)" clip-rule="nonzero">
<path style=" stroke:none;fill-rule:nonzero;fill:rgb(0%,0%,0%);fill-opacity:1;" d="M 188.714844 211.511719 C 188.714844 210.636719 188.003906 209.929688 187.128906 209.929688 C 186.253906 209.929688 185.546875 210.636719 185.546875 211.511719 C 185.546875 212.386719 186.253906 213.097656 187.128906 213.097656 C 188.003906 213.097656 188.714844 212.386719 188.714844 211.511719 Z M 188.714844 211.511719 "/>
</g>
<g clip-path="url(#clip6)" clip-rule="nonzero">
<path style="fill:none;stroke-width:0.3985;stroke-linecap:butt;stroke-linejoin:miter;stroke:rgb(0%,0%,0%);stroke-opacity:1;stroke-miterlimit:10;" d="M 187.084079 0.00180092 C 187.084079 0.878243 186.37197 1.586439 185.495528 1.586439 C 184.619087 1.586439 183.91089 0.878243 183.91089 0.00180092 C 183.91089 -0.874641 184.619087 -1.58675 185.495528 -1.58675 C 186.37197 -1.58675 187.084079 -0.874641 187.084079 0.00180092 Z M 187.084079 0.00180092 " transform="matrix(0.998355,0,0,-0.998355,1.938492,211.513517)"/>
</g>
<g clip-path="url(#clip7)" clip-rule="nonzero">
<path style=" stroke:none;fill-rule:nonzero;fill:rgb(100%,100%,100%);fill-opacity:1;" d="M 250.445312 211.511719 C 250.445312 210.636719 249.734375 209.929688 248.859375 209.929688 C 247.984375 209.929688 247.277344 210.636719 247.277344 211.511719 C 247.277344 212.386719 247.984375 213.097656 248.859375 213.097656 C 249.734375 213.097656 250.445312 212.386719 250.445312 211.511719 Z M 250.445312 211.511719 "/>
</g>
<g clip-path="url(#clip8)" clip-rule="nonzero">
<path style="fill:none;stroke-width:0.3985;stroke-linecap:butt;stroke-linejoin:miter;stroke:rgb(0%,0%,0%);stroke-opacity:1;stroke-miterlimit:10;" d="M 248.916253 0.00180092 C 248.916253 0.878243 248.204144 1.586439 247.327702 1.586439 C 246.451261 1.586439 245.743064 0.878243 245.743064 0.00180092 C 245.743064 -0.874641 246.451261 -1.58675 247.327702 -1.58675 C 248.204144 -1.58675 248.916253 -0.874641 248.916253 0.00180092 Z M 248.916253 0.00180092 " transform="matrix(0.998355,0,0,-0.998355,1.938492,211.513517)"/>
</g>
<path style="fill:none;stroke-width:0.3985;stroke-linecap:butt;stroke-linejoin:miter;stroke:rgb(0%,0%,0%);stroke-opacity:1;stroke-miterlimit:10;" d="M -0.000993822 185.498323 L 30.91705 185.498323 M 30.91705 185.498323 L 115.008493 185.498323 M 132.322128 185.498323 L 216.413572 185.498323 M 216.413572 185.498323 L 247.327702 185.498323 " transform="matrix(0.998355,0,0,-0.998355,1.938492,211.513517)"/>
<g clip-path="url(#clip9)" clip-rule="nonzero">
<path style=" stroke:none;fill-rule:nonzero;fill:rgb(100%,100%,100%);fill-opacity:1;" d="M 3.523438 26.320312 C 3.523438 25.445312 2.8125 24.738281 1.9375 24.738281 C 1.0625 24.738281 0.355469 25.445312 0.355469 26.320312 C 0.355469 27.195312 1.0625 27.90625 1.9375 27.90625 C 2.8125 27.90625 3.523438 27.195312 3.523438 26.320312 Z M 3.523438 26.320312 "/>
</g>
<g clip-path="url(#clip10)" clip-rule="nonzero">
<path style="fill:none;stroke-width:0.3985;stroke-linecap:butt;stroke-linejoin:miter;stroke:rgb(0%,0%,0%);stroke-opacity:1;stroke-miterlimit:10;" d="M 1.587557 185.498323 C 1.587557 186.374765 0.875448 187.082961 -0.000993822 187.082961 C -0.877435 187.082961 -1.585632 186.374765 -1.585632 185.498323 C -1.585632 184.621881 -0.877435 183.909773 -0.000993822 183.909773 C 0.875448 183.909773 1.587557 184.621881 1.587557 185.498323 Z M 1.587557 185.498323 " transform="matrix(0.998355,0,0,-0.998355,1.938492,211.513517)"/>
</g>
<path style="fill-rule:nonzero;fill:rgb(0%,0%,0%);fill-opacity:1;stroke-width:0.3985;stroke-linecap:butt;stroke-linejoin:miter;stroke:rgb(0%,0%,0%);stroke-opacity:1;stroke-miterlimit:10;" d="M 63.419731 185.498323 C 63.419731 186.374765 62.707622 187.082961 61.83118 187.082961 C 60.954739 187.082961 60.246542 186.374765 60.246542 185.498323 C 60.246542 184.621881 60.954739 183.909773 61.83118 183.909773 C 62.707622 183.909773 63.419731 184.621881 63.419731 185.498323 Z M 63.419731 185.498323 " transform="matrix(0.998355,0,0,-0.998355,1.938492,211.513517)"/>
<path style="fill:none;stroke-width:0.797;stroke-linecap:butt;stroke-linejoin:miter;stroke:rgb(0%,0%,0%);stroke-opacity:1;stroke-miterlimit:10;" d="M 115.008493 211.466819 L 115.008493 159.525914 M 132.322128 211.466819 L 132.322128 159.525914 " transform="matrix(0.998355,0,0,-0.998355,1.938492,211.513517)"/>
<path style="fill-rule:nonzero;fill:rgb(0%,0%,0%);fill-opacity:1;stroke-width:0.3985;stroke-linecap:butt;stroke-linejoin:miter;stroke:rgb(0%,0%,0%);stroke-opacity:1;stroke-miterlimit:10;" d="M 187.084079 185.498323 C 187.084079 186.374765 186.37197 187.082961 185.495528 187.082961 C 184.619087 187.082961 183.91089 186.374765 183.91089 185.498323 C 183.91089 184.621881 184.619087 183.909773 185.495528 183.909773 C 186.37197 183.909773 187.084079 184.621881 187.084079 185.498323 Z M 187.084079 185.498323 " transform="matrix(0.998355,0,0,-0.998355,1.938492,211.513517)"/>
<g clip-path="url(#clip11)" clip-rule="nonzero">
<path style=" stroke:none;fill-rule:nonzero;fill:rgb(100%,100%,100%);fill-opacity:1;" d="M 250.445312 26.320312 C 250.445312 25.445312 249.734375 24.738281 248.859375 24.738281 C 247.984375 24.738281 247.277344 25.445312 247.277344 26.320312 C 247.277344 27.195312 247.984375 27.90625 248.859375 27.90625 C 249.734375 27.90625 250.445312 27.195312 250.445312 26.320312 Z M 250.445312 26.320312 "/>
</g>
<g clip-path="url(#clip12)" clip-rule="nonzero">
<path style="fill:none;stroke-width:0.3985;stroke-linecap:butt;stroke-linejoin:miter;stroke:rgb(0%,0%,0%);stroke-opacity:1;stroke-miterlimit:10;" d="M 248.916253 185.498323 C 248.916253 186.374765 248.204144 187.082961 247.327702 187.082961 C 246.451261 187.082961 245.743064 186.374765 245.743064 185.498323 C 245.743064 184.621881 246.451261 183.909773 247.327702 183.909773 C 248.204144 183.909773 248.916253 184.621881 248.916253 185.498323 Z M 248.916253 185.498323 " transform="matrix(0.998355,0,0,-0.998355,1.938492,211.513517)"/>
</g>
<path style="fill:none;stroke-width:0.3985;stroke-linecap:butt;stroke-linejoin:miter;stroke:rgb(0%,0%,0%);stroke-opacity:1;stroke-miterlimit:10;" d="M 61.83118 0.00180092 L 61.83118 58.120836 M 61.83118 127.375375 L 61.83118 185.498323 " transform="matrix(0.998355,0,0,-0.998355,1.938492,211.513517)"/>
<path style="fill:none;stroke-width:0.797;stroke-linecap:butt;stroke-linejoin:bevel;stroke:rgb(0%,0%,0%);stroke-opacity:1;stroke-miterlimit:10;" d="M 61.9916 57.725655 C 54.819647 57.725655 49.009309 61.642253 49.009309 66.478333 C 49.009309 71.314413 54.819647 75.234924 61.9916 75.234924 C 54.819647 75.234924 49.009309 79.155435 49.009309 83.991515 C 49.009309 88.827594 54.819647 92.748106 61.9916 92.748106 C 54.819647 92.748106 49.009309 96.668617 49.009309 101.504696 C 49.009309 106.340776 54.819647 110.261287 61.9916 110.261287 C 54.819647 110.261287 49.009309 114.181799 49.009309 119.017878 C 49.009309 123.853958 54.819647 127.774469 61.9916 127.774469 " transform="matrix(0.998355,0,0,-0.998355,1.938492,211.513517)"/>
<path style="fill:none;stroke-width:0.3985;stroke-linecap:butt;stroke-linejoin:miter;stroke:rgb(0%,0%,0%);stroke-opacity:1;stroke-miterlimit:10;" d="M 185.495528 0.00180092 L 185.495528 58.120836 M 185.495528 127.375375 L 185.495528 185.498323 " transform="matrix(0.998355,0,0,-0.998355,1.938492,211.513517)"/>
<path style="fill:none;stroke-width:0.797;stroke-linecap:butt;stroke-linejoin:bevel;stroke:rgb(0%,0%,0%);stroke-opacity:1;stroke-miterlimit:10;" d="M 185.655948 57.725655 C 178.483995 57.725655 172.673657 61.642253 172.673657 66.478333 C 172.673657 71.314413 178.483995 75.234924 185.655948 75.234924 C 178.483995 75.234924 172.673657 79.155435 172.673657 83.991515 C 172.673657 88.827594 178.483995 92.748106 185.655948 92.748106 C 178.483995 92.748106 172.673657 96.668617 172.673657 101.504696 C 172.673657 106.340776 178.483995 110.261287 185.655948 110.261287 C 178.483995 110.261287 172.673657 114.181799 172.673657 119.017878 C 172.673657 123.853958 178.483995 127.774469 185.655948 127.774469 " transform="matrix(0.998355,0,0,-0.998355,1.938492,211.513517)"/>
</g>
</svg>
