<?xml version="1.0" encoding="UTF-8"?>
<svg xmlns="http://www.w3.org/2000/svg" xmlns:xlink="http://www.w3.org/1999/xlink" width="250.898pt" height="200.504pt" viewBox="0 0 250.898 200.504" version="1.2">
<defs>
<clipPath id="clip1">
  <path d="M 0.257812 196 L 4 196 L 4 200 L 0.257812 200 Z M 0.257812 196 "/>
</clipPath>
<clipPath id="clip2">
  <path d="M 0.257812 191 L 10 191 L 10 200.007812 L 0.257812 200.007812 Z M 0.257812 191 "/>
</clipPath>
<clipPath id="clip3">
  <path d="M 247 196 L 250.539062 196 L 250.539062 200 L 247 200 Z M 247 196 "/>
</clipPath>
<clipPath id="clip4">
  <path d="M 241 191 L 250.539062 191 L 250.539062 200.007812 L 241 200.007812 Z M 241 191 "/>
</clipPath>
<clipPath id="clip5">
  <path d="M 0.257812 11 L 4 11 L 4 15 L 0.257812 15 Z M 0.257812 11 "/>
</clipPath>
<clipPath id="clip6">
  <path d="M 0.257812 5 L 10 5 L 10 21 L 0.257812 21 Z M 0.257812 5 "/>
</clipPath>
<clipPath id="clip7">
  <path d="M 56 191 L 71 191 L 71 200.007812 L 56 200.007812 Z M 56 191 "/>
</clipPath>
<clipPath id="clip8">
  <path d="M 179 191 L 195 191 L 195 200.007812 L 179 200.007812 Z M 179 191 "/>
</clipPath>
</defs>
<g id="surface1">
<path style="fill:none;stroke-width:0.3985;stroke-linecap:butt;stroke-linejoin:miter;stroke:rgb(0%,0%,0%);stroke-opacity:1;stroke-miterlimit:10;" d="M -0.00122482 0.00107135 L 30.914909 0.00107135 M 30.914909 0.00107135 L 89.038808 0.00107135 M 158.291732 0.00107135 L 216.411715 0.00107135 M 216.411715 0.00107135 L 247.32785 0.00107135 " transform="matrix(0.997532,0,0,-0.997532,2.040284,198.227631)"/>
<g clip-path="url(#clip1)" clip-rule="nonzero">
<path style=" stroke:none;fill-rule:nonzero;fill:rgb(100%,100%,100%);fill-opacity:1;" d="M 3.625 198.226562 C 3.625 197.351562 2.914062 196.644531 2.039062 196.644531 C 1.164062 196.644531 0.457031 197.351562 0.457031 198.226562 C 0.457031 199.101562 1.164062 199.8125 2.039062 199.8125 C 2.914062 199.8125 3.625 199.101562 3.625 198.226562 Z M 3.625 198.226562 "/>
</g>
<g clip-path="url(#clip2)" clip-rule="nonzero">
<path style="fill:none;stroke-width:0.3985;stroke-linecap:butt;stroke-linejoin:miter;stroke:rgb(0%,0%,0%);stroke-opacity:1;stroke-miterlimit:10;" d="M 1.588636 0.00107135 C 1.588636 0.878236 0.87594 1.587016 -0.00122482 1.587016 C -0.878389 1.587016 -1.58717 0.878236 -1.58717 0.00107135 C -1.58717 -0.876093 -0.878389 -1.588789 -0.00122482 -1.588789 C 0.87594 -1.588789 1.588636 -0.876093 1.588636 0.00107135 Z M 1.588636 0.00107135 " transform="matrix(0.997532,0,0,-0.997532,2.040284,198.227631)"/>
</g>
<path style="fill:none;stroke-width:0.797;stroke-linecap:butt;stroke-linejoin:bevel;stroke:rgb(0%,0%,0%);stroke-opacity:1;stroke-miterlimit:10;" d="M 88.639385 -0.159481 C 88.639385 7.010556 92.559214 12.825687 97.395367 12.825687 C 102.23152 12.825687 106.151349 7.010556 106.151349 -0.159481 C 106.151349 7.010556 110.071178 12.825687 114.907331 12.825687 C 119.743483 12.825687 123.663312 7.010556 123.663312 -0.159481 C 123.663312 7.010556 127.583141 12.825687 132.419294 12.825687 C 137.255447 12.825687 141.175276 7.010556 141.175276 -0.159481 C 141.175276 7.010556 145.095105 12.825687 149.931258 12.825687 C 154.767411 12.825687 158.68724 7.010556 158.68724 -0.159481 " transform="matrix(0.997532,0,0,-0.997532,2.040284,198.227631)"/>
<g clip-path="url(#clip3)" clip-rule="nonzero">
<path style=" stroke:none;fill-rule:nonzero;fill:rgb(100%,100%,100%);fill-opacity:1;" d="M 250.34375 198.226562 C 250.34375 197.351562 249.632812 196.644531 248.757812 196.644531 C 247.882812 196.644531 247.175781 197.351562 247.175781 198.226562 C 247.175781 199.101562 247.882812 199.8125 248.757812 199.8125 C 249.632812 199.8125 250.34375 199.101562 250.34375 198.226562 Z M 250.34375 198.226562 "/>
</g>
<g clip-path="url(#clip4)" clip-rule="nonzero">
<path style="fill:none;stroke-width:0.3985;stroke-linecap:butt;stroke-linejoin:miter;stroke:rgb(0%,0%,0%);stroke-opacity:1;stroke-miterlimit:10;" d="M 248.91771 0.00107135 C 248.91771 0.878236 248.205014 1.587016 247.32785 1.587016 C 246.450685 1.587016 245.741905 0.878236 245.741905 0.00107135 C 245.741905 -0.876093 246.450685 -1.588789 247.32785 -1.588789 C 248.205014 -1.588789 248.91771 -0.876093 248.91771 0.00107135 Z M 248.91771 0.00107135 " transform="matrix(0.997532,0,0,-0.997532,2.040284,198.227631)"/>
</g>
<path style="fill:none;stroke-width:0.3985;stroke-linecap:butt;stroke-linejoin:miter;stroke:rgb(0%,0%,0%);stroke-opacity:1;stroke-miterlimit:10;" d="M -0.00122482 185.497877 L 30.914909 185.497877 M 30.914909 185.497877 L 89.038808 185.497877 M 158.291732 185.497877 L 216.411715 185.497877 M 216.411715 185.497877 L 247.32785 185.497877 " transform="matrix(0.997532,0,0,-0.997532,2.040284,198.227631)"/>
<g clip-path="url(#clip5)" clip-rule="nonzero">
<path style=" stroke:none;fill-rule:nonzero;fill:rgb(100%,100%,100%);fill-opacity:1;" d="M 3.625 13.1875 C 3.625 12.3125 2.914062 11.605469 2.039062 11.605469 C 1.164062 11.605469 0.457031 12.3125 0.457031 13.1875 C 0.457031 14.0625 1.164062 14.773438 2.039062 14.773438 C 2.914062 14.773438 3.625 14.0625 3.625 13.1875 Z M 3.625 13.1875 "/>
</g>
<g clip-path="url(#clip6)" clip-rule="nonzero">
<path style="fill:none;stroke-width:0.3985;stroke-linecap:butt;stroke-linejoin:miter;stroke:rgb(0%,0%,0%);stroke-opacity:1;stroke-miterlimit:10;" d="M 1.588636 185.497877 C 1.588636 186.375042 0.87594 187.083822 -0.00122482 187.083822 C -0.878389 187.083822 -1.58717 186.375042 -1.58717 185.497877 C -1.58717 184.620713 -0.878389 183.908016 -0.00122482 183.908016 C 0.87594 183.908016 1.588636 184.620713 1.588636 185.497877 Z M 1.588636 185.497877 " transform="matrix(0.997532,0,0,-0.997532,2.040284,198.227631)"/>
</g>
<path style="fill:none;stroke-width:0.797;stroke-linecap:butt;stroke-linejoin:bevel;stroke:rgb(0%,0%,0%);stroke-opacity:1;stroke-miterlimit:10;" d="M 88.639385 185.337325 C 88.639385 192.507362 92.559214 198.322493 97.395367 198.322493 C 102.23152 198.322493 106.151349 192.507362 106.151349 185.337325 C 106.151349 192.507362 110.071178 198.322493 114.907331 198.322493 C 119.743483 198.322493 123.663312 192.507362 123.663312 185.337325 C 123.663312 192.507362 127.583141 198.322493 132.419294 198.322493 C 137.255447 198.322493 141.175276 192.507362 141.175276 185.337325 C 141.175276 192.507362 145.095105 198.322493 149.931258 198.322493 C 154.767411 198.322493 158.68724 192.507362 158.68724 185.337325 " transform="matrix(0.997532,0,0,-0.997532,2.040284,198.227631)"/>
<path style="fill:none;stroke-width:0.3985;stroke-linecap:butt;stroke-linejoin:miter;stroke:rgb(0%,0%,0%);stroke-opacity:1;stroke-miterlimit:10;" d="M 61.831044 0.00107135 L 61.831044 84.09139 M 61.831044 101.403642 L 61.831044 185.497877 " transform="matrix(0.997532,0,0,-0.997532,2.040284,198.227631)"/>
<path style="fill:none;stroke-width:0.797;stroke-linecap:butt;stroke-linejoin:miter;stroke:rgb(0%,0%,0%);stroke-opacity:1;stroke-miterlimit:10;" d="M 35.860708 84.09139 L 87.80138 84.09139 M 35.860708 101.403642 L 87.80138 101.403642 " transform="matrix(0.997532,0,0,-0.997532,2.040284,198.227631)"/>
<path style=" stroke:none;fill-rule:nonzero;fill:rgb(0%,0%,0%);fill-opacity:1;" d="M 65.304688 198.226562 C 65.304688 197.351562 64.59375 196.644531 63.71875 196.644531 C 62.84375 196.644531 62.136719 197.351562 62.136719 198.226562 C 62.136719 199.101562 62.84375 199.8125 63.71875 199.8125 C 64.59375 199.8125 65.304688 199.101562 65.304688 198.226562 Z M 65.304688 198.226562 "/>
<g clip-path="url(#clip7)" clip-rule="nonzero">
<path style="fill:none;stroke-width:0.3985;stroke-linecap:butt;stroke-linejoin:miter;stroke:rgb(0%,0%,0%);stroke-opacity:1;stroke-miterlimit:10;" d="M 63.420905 0.00107135 C 63.420905 0.878236 62.708208 1.587016 61.831044 1.587016 C 60.953879 1.587016 60.245099 0.878236 60.245099 0.00107135 C 60.245099 -0.876093 60.953879 -1.588789 61.831044 -1.588789 C 62.708208 -1.588789 63.420905 -0.876093 63.420905 0.00107135 Z M 63.420905 0.00107135 " transform="matrix(0.997532,0,0,-0.997532,2.040284,198.227631)"/>
</g>
<path style="fill-rule:nonzero;fill:rgb(0%,0%,0%);fill-opacity:1;stroke-width:0.3985;stroke-linecap:butt;stroke-linejoin:miter;stroke:rgb(0%,0%,0%);stroke-opacity:1;stroke-miterlimit:10;" d="M 63.420905 185.497877 C 63.420905 186.375042 62.708208 187.083822 61.831044 187.083822 C 60.953879 187.083822 60.245099 186.375042 60.245099 185.497877 C 60.245099 184.620713 60.953879 183.908016 61.831044 183.908016 C 62.708208 183.908016 63.420905 184.620713 63.420905 185.497877 Z M 63.420905 185.497877 " transform="matrix(0.997532,0,0,-0.997532,2.040284,198.227631)"/>
<path style="fill:none;stroke-width:0.3985;stroke-linecap:butt;stroke-linejoin:miter;stroke:rgb(0%,0%,0%);stroke-opacity:1;stroke-miterlimit:10;" d="M 185.495581 0.00107135 L 185.495581 84.09139 M 185.495581 101.403642 L 185.495581 185.497877 " transform="matrix(0.997532,0,0,-0.997532,2.040284,198.227631)"/>
<path style="fill:none;stroke-width:0.797;stroke-linecap:butt;stroke-linejoin:miter;stroke:rgb(0%,0%,0%);stroke-opacity:1;stroke-miterlimit:10;" d="M 159.525245 84.09139 L 211.465917 84.09139 M 159.525245 101.403642 L 211.465917 101.403642 " transform="matrix(0.997532,0,0,-0.997532,2.040284,198.227631)"/>
<path style=" stroke:none;fill-rule:nonzero;fill:rgb(0%,0%,0%);fill-opacity:1;" d="M 188.664062 198.226562 C 188.664062 197.351562 187.953125 196.644531 187.078125 196.644531 C 186.203125 196.644531 185.496094 197.351562 185.496094 198.226562 C 185.496094 199.101562 186.203125 199.8125 187.078125 199.8125 C 187.953125 199.8125 188.664062 199.101562 188.664062 198.226562 Z M 188.664062 198.226562 "/>
<g clip-path="url(#clip8)" clip-rule="nonzero">
<path style="fill:none;stroke-width:0.3985;stroke-linecap:butt;stroke-linejoin:miter;stroke:rgb(0%,0%,0%);stroke-opacity:1;stroke-miterlimit:10;" d="M 187.085442 0.00107135 C 187.085442 0.878236 186.372746 1.587016 185.495581 1.587016 C 184.618416 1.587016 183.909636 0.878236 183.909636 0.00107135 C 183.909636 -0.876093 184.618416 -1.588789 185.495581 -1.588789 C 186.372746 -1.588789 187.085442 -0.876093 187.085442 0.00107135 Z M 187.085442 0.00107135 " transform="matrix(0.997532,0,0,-0.997532,2.040284,198.227631)"/>
</g>
<path style="fill-rule:nonzero;fill:rgb(0%,0%,0%);fill-opacity:1;stroke-width:0.3985;stroke-linecap:butt;stroke-linejoin:miter;stroke:rgb(0%,0%,0%);stroke-opacity:1;stroke-miterlimit:10;" d="M 187.085442 185.497877 C 187.085442 186.375042 186.372746 187.083822 185.495581 187.083822 C 184.618416 187.083822 183.909636 186.375042 183.909636 185.497877 C 183.909636 184.620713 184.618416 183.908016 185.495581 183.908016 C 186.372746 183.908016 187.085442 184.620713 187.085442 185.497877 Z M 187.085442 185.497877 " transform="matrix(0.997532,0,0,-0.997532,2.040284,198.227631)"/>
</g>
</svg>
