<?xml version="1.0" encoding="UTF-8"?>
<svg xmlns="http://www.w3.org/2000/svg" xmlns:xlink="http://www.w3.org/1999/xlink" width="250.898pt" height="200.504pt" viewBox="0 0 250.898 200.504" version="1.2">
<defs>
<clipPath id="clip1">
  <path d="M 0.257812 196 L 4 196 L 4 200 L 0.257812 200 Z M 0.257812 196 "/>
</clipPath>
<clipPath id="clip2">
  <path d="M 0.257812 191 L 10 191 L 10 200.007812 L 0.257812 200.007812 Z M 0.257812 191 "/>
</clipPath>
<clipPath id="clip3">
  <path d="M 247 196 L 250.539062 196 L 250.539062 200 L 247 200 Z M 247 196 "/>
</clipPath>
<clipPath id="clip4">
  <path d="M 241 191 L 250.539062 191 L 250.539062 200.007812 L 241 200.007812 Z M 241 191 "/>
</clipPath>
<clipPath id="clip5">
  <path d="M 0.257812 11 L 4 11 L 4 15 L 0.257812 15 Z M 0.257812 11 "/>
</clipPath>
<clipPath id="clip6">
  <path d="M 0.257812 5 L 10 5 L 10 21 L 0.257812 21 Z M 0.257812 5 "/>
</clipPath>
<clipPath id="clip7">
  <path d="M 247 11 L 250.539062 11 L 250.539062 15 L 247 15 Z M 247 11 "/>
</clipPath>
<clipPath id="clip8">
  <path d="M 241 5 L 250.539062 5 L 250.539062 21 L 241 21 Z M 241 5 "/>
</clipPath>
<clipPath id="clip9">
  <path d="M 118 191 L 133 191 L 133 200.007812 L 118 200.007812 Z M 118 191 "/>
</clipPath>
</defs>
<g id="surface1">
<path style="fill:none;stroke-width:0.3985;stroke-linecap:butt;stroke-linejoin:miter;stroke:rgb(0%,0%,0%);stroke-opacity:1;stroke-miterlimit:10;" d="M -0.00122482 0.00107135 L 61.831044 0.00107135 M 61.831044 0.00107135 L 185.495581 0.00107135 M 185.495581 0.00107135 L 247.32785 0.00107135 " transform="matrix(0.997532,0,0,-0.997532,2.040284,198.227631)"/>
<g clip-path="url(#clip1)" clip-rule="nonzero">
<path style=" stroke:none;fill-rule:nonzero;fill:rgb(100%,100%,100%);fill-opacity:1;" d="M 3.625 198.226562 C 3.625 197.351562 2.914062 196.644531 2.039062 196.644531 C 1.164062 196.644531 0.457031 197.351562 0.457031 198.226562 C 0.457031 199.101562 1.164062 199.8125 2.039062 199.8125 C 2.914062 199.8125 3.625 199.101562 3.625 198.226562 Z M 3.625 198.226562 "/>
</g>
<g clip-path="url(#clip2)" clip-rule="nonzero">
<path style="fill:none;stroke-width:0.3985;stroke-linecap:butt;stroke-linejoin:miter;stroke:rgb(0%,0%,0%);stroke-opacity:1;stroke-miterlimit:10;" d="M 1.588636 0.00107135 C 1.588636 0.878236 0.87594 1.587016 -0.00122482 1.587016 C -0.878389 1.587016 -1.58717 0.878236 -1.58717 0.00107135 C -1.58717 -0.876093 -0.878389 -1.588789 -0.00122482 -1.588789 C 0.87594 -1.588789 1.588636 -0.876093 1.588636 0.00107135 Z M 1.588636 0.00107135 " transform="matrix(0.997532,0,0,-0.997532,2.040284,198.227631)"/>
</g>
<g clip-path="url(#clip3)" clip-rule="nonzero">
<path style=" stroke:none;fill-rule:nonzero;fill:rgb(100%,100%,100%);fill-opacity:1;" d="M 250.34375 198.226562 C 250.34375 197.351562 249.632812 196.644531 248.757812 196.644531 C 247.882812 196.644531 247.175781 197.351562 247.175781 198.226562 C 247.175781 199.101562 247.882812 199.8125 248.757812 199.8125 C 249.632812 199.8125 250.34375 199.101562 250.34375 198.226562 Z M 250.34375 198.226562 "/>
</g>
<g clip-path="url(#clip4)" clip-rule="nonzero">
<path style="fill:none;stroke-width:0.3985;stroke-linecap:butt;stroke-linejoin:miter;stroke:rgb(0%,0%,0%);stroke-opacity:1;stroke-miterlimit:10;" d="M 248.91771 0.00107135 C 248.91771 0.878236 248.205014 1.587016 247.32785 1.587016 C 246.450685 1.587016 245.741905 0.878236 245.741905 0.00107135 C 245.741905 -0.876093 246.450685 -1.588789 247.32785 -1.588789 C 248.205014 -1.588789 248.91771 -0.876093 248.91771 0.00107135 Z M 248.91771 0.00107135 " transform="matrix(0.997532,0,0,-0.997532,2.040284,198.227631)"/>
</g>
<path style="fill:none;stroke-width:0.3985;stroke-linecap:butt;stroke-linejoin:miter;stroke:rgb(0%,0%,0%);stroke-opacity:1;stroke-miterlimit:10;" d="M -0.00122482 185.497877 L 27.20654 185.497877 M 96.459464 185.497877 L 150.871077 185.497877 M 220.124001 185.497877 L 247.32785 185.497877 " transform="matrix(0.997532,0,0,-0.997532,2.040284,198.227631)"/>
<path style="fill:none;stroke-width:0.797;stroke-linecap:butt;stroke-linejoin:bevel;stroke:rgb(0%,0%,0%);stroke-opacity:1;stroke-miterlimit:10;" d="M 26.807117 185.337325 C 26.807117 192.507362 30.726946 198.322493 35.563098 198.322493 C 40.399251 198.322493 44.31908 192.507362 44.31908 185.337325 C 44.31908 192.507362 48.238909 198.322493 53.075062 198.322493 C 57.911215 198.322493 61.831044 192.507362 61.831044 185.337325 C 61.831044 192.507362 65.750873 198.322493 70.587026 198.322493 C 75.423178 198.322493 79.343007 192.507362 79.343007 185.337325 C 79.343007 192.507362 83.262836 198.322493 88.098989 198.322493 C 92.935142 198.322493 96.854971 192.507362 96.854971 185.337325 " transform="matrix(0.997532,0,0,-0.997532,2.040284,198.227631)"/>
<g clip-path="url(#clip5)" clip-rule="nonzero">
<path style=" stroke:none;fill-rule:nonzero;fill:rgb(100%,100%,100%);fill-opacity:1;" d="M 3.625 13.1875 C 3.625 12.3125 2.914062 11.605469 2.039062 11.605469 C 1.164062 11.605469 0.457031 12.3125 0.457031 13.1875 C 0.457031 14.0625 1.164062 14.773438 2.039062 14.773438 C 2.914062 14.773438 3.625 14.0625 3.625 13.1875 Z M 3.625 13.1875 "/>
</g>
<g clip-path="url(#clip6)" clip-rule="nonzero">
<path style="fill:none;stroke-width:0.3985;stroke-linecap:butt;stroke-linejoin:miter;stroke:rgb(0%,0%,0%);stroke-opacity:1;stroke-miterlimit:10;" d="M 1.588636 185.497877 C 1.588636 186.375042 0.87594 187.083822 -0.00122482 187.083822 C -0.878389 187.083822 -1.58717 186.375042 -1.58717 185.497877 C -1.58717 184.620713 -0.878389 183.908016 -0.00122482 183.908016 C 0.87594 183.908016 1.588636 184.620713 1.588636 185.497877 Z M 1.588636 185.497877 " transform="matrix(0.997532,0,0,-0.997532,2.040284,198.227631)"/>
</g>
<path style="fill:none;stroke-width:0.797;stroke-linecap:butt;stroke-linejoin:bevel;stroke:rgb(0%,0%,0%);stroke-opacity:1;stroke-miterlimit:10;" d="M 150.471654 185.337325 C 150.471654 192.507362 154.391483 198.322493 159.227636 198.322493 C 164.063788 198.322493 167.983617 192.507362 167.983617 185.337325 C 167.983617 192.507362 171.903447 198.322493 176.739599 198.322493 C 181.575752 198.322493 185.495581 192.507362 185.495581 185.337325 C 185.495581 192.507362 189.41541 198.322493 194.251563 198.322493 C 199.087716 198.322493 203.007545 192.507362 203.007545 185.337325 C 203.007545 192.507362 206.927374 198.322493 211.763526 198.322493 C 216.599679 198.322493 220.519508 192.507362 220.519508 185.337325 " transform="matrix(0.997532,0,0,-0.997532,2.040284,198.227631)"/>
<g clip-path="url(#clip7)" clip-rule="nonzero">
<path style=" stroke:none;fill-rule:nonzero;fill:rgb(100%,100%,100%);fill-opacity:1;" d="M 250.34375 13.1875 C 250.34375 12.3125 249.632812 11.605469 248.757812 11.605469 C 247.882812 11.605469 247.175781 12.3125 247.175781 13.1875 C 247.175781 14.0625 247.882812 14.773438 248.757812 14.773438 C 249.632812 14.773438 250.34375 14.0625 250.34375 13.1875 Z M 250.34375 13.1875 "/>
</g>
<g clip-path="url(#clip8)" clip-rule="nonzero">
<path style="fill:none;stroke-width:0.3985;stroke-linecap:butt;stroke-linejoin:miter;stroke:rgb(0%,0%,0%);stroke-opacity:1;stroke-miterlimit:10;" d="M 248.91771 185.497877 C 248.91771 186.375042 248.205014 187.083822 247.32785 187.083822 C 246.450685 187.083822 245.741905 186.375042 245.741905 185.497877 C 245.741905 184.620713 246.450685 183.908016 247.32785 183.908016 C 248.205014 183.908016 248.91771 184.620713 248.91771 185.497877 Z M 248.91771 185.497877 " transform="matrix(0.997532,0,0,-0.997532,2.040284,198.227631)"/>
</g>
<path style="fill:none;stroke-width:0.3985;stroke-linecap:butt;stroke-linejoin:miter;stroke:rgb(0%,0%,0%);stroke-opacity:1;stroke-miterlimit:10;" d="M 123.663312 0.00107135 L 123.663312 84.09139 M 123.663312 101.403642 L 123.663312 185.497877 " transform="matrix(0.997532,0,0,-0.997532,2.040284,198.227631)"/>
<path style="fill:none;stroke-width:0.797;stroke-linecap:butt;stroke-linejoin:miter;stroke:rgb(0%,0%,0%);stroke-opacity:1;stroke-miterlimit:10;" d="M 97.692976 84.09139 L 149.633648 84.09139 M 97.692976 101.403642 L 149.633648 101.403642 " transform="matrix(0.997532,0,0,-0.997532,2.040284,198.227631)"/>
<path style=" stroke:none;fill-rule:nonzero;fill:rgb(0%,0%,0%);fill-opacity:1;" d="M 126.984375 198.226562 C 126.984375 197.351562 126.273438 196.644531 125.398438 196.644531 C 124.523438 196.644531 123.816406 197.351562 123.816406 198.226562 C 123.816406 199.101562 124.523438 199.8125 125.398438 199.8125 C 126.273438 199.8125 126.984375 199.101562 126.984375 198.226562 Z M 126.984375 198.226562 "/>
<g clip-path="url(#clip9)" clip-rule="nonzero">
<path style="fill:none;stroke-width:0.3985;stroke-linecap:butt;stroke-linejoin:miter;stroke:rgb(0%,0%,0%);stroke-opacity:1;stroke-miterlimit:10;" d="M 125.253173 0.00107135 C 125.253173 0.878236 124.540477 1.587016 123.663312 1.587016 C 122.786148 1.587016 122.077368 0.878236 122.077368 0.00107135 C 122.077368 -0.876093 122.786148 -1.588789 123.663312 -1.588789 C 124.540477 -1.588789 125.253173 -0.876093 125.253173 0.00107135 Z M 125.253173 0.00107135 " transform="matrix(0.997532,0,0,-0.997532,2.040284,198.227631)"/>
</g>
<path style="fill-rule:nonzero;fill:rgb(0%,0%,0%);fill-opacity:1;stroke-width:0.3985;stroke-linecap:butt;stroke-linejoin:miter;stroke:rgb(0%,0%,0%);stroke-opacity:1;stroke-miterlimit:10;" d="M 125.253173 185.497877 C 125.253173 186.375042 124.540477 187.083822 123.663312 187.083822 C 122.786148 187.083822 122.077368 186.375042 122.077368 185.497877 C 122.077368 184.620713 122.786148 183.908016 123.663312 183.908016 C 124.540477 183.908016 125.253173 184.620713 125.253173 185.497877 Z M 125.253173 185.497877 " transform="matrix(0.997532,0,0,-0.997532,2.040284,198.227631)"/>
</g>
</svg>
