<?xml version="1.0" encoding="UTF-8"?>
<svg xmlns="http://www.w3.org/2000/svg" xmlns:xlink="http://www.w3.org/1999/xlink" width="250.898pt" height="213.648pt" viewBox="0 0 250.898 213.648" version="1.2">
<defs>
<clipPath id="clip1">
  <path d="M 0.15625 209 L 4 209 L 4 213.296875 L 0.15625 213.296875 Z M 0.15625 209 "/>
</clipPath>
<clipPath id="clip2">
  <path d="M 0.15625 204 L 10 204 L 10 213.296875 L 0.15625 213.296875 Z M 0.15625 204 "/>
</clipPath>
<clipPath id="clip3">
  <path d="M 92 209 L 97 209 L 97 213.296875 L 92 213.296875 Z M 92 209 "/>
</clipPath>
<clipPath id="clip4">
  <path d="M 87 204 L 102 204 L 102 213.296875 L 87 213.296875 Z M 87 204 "/>
</clipPath>
<clipPath id="clip5">
  <path d="M 247 209 L 250.640625 209 L 250.640625 213.296875 L 247 213.296875 Z M 247 209 "/>
</clipPath>
<clipPath id="clip6">
  <path d="M 241 204 L 250.640625 204 L 250.640625 213.296875 L 241 213.296875 Z M 241 204 "/>
</clipPath>
<clipPath id="clip7">
  <path d="M 0.15625 24 L 4 24 L 4 28 L 0.15625 28 Z M 0.15625 24 "/>
</clipPath>
<clipPath id="clip8">
  <path d="M 0.15625 19 L 10 19 L 10 34 L 0.15625 34 Z M 0.15625 19 "/>
</clipPath>
<clipPath id="clip9">
  <path d="M 247 24 L 250.640625 24 L 250.640625 28 L 247 28 Z M 247 24 "/>
</clipPath>
<clipPath id="clip10">
  <path d="M 241 19 L 250.640625 19 L 250.640625 34 L 241 34 Z M 241 19 "/>
</clipPath>
</defs>
<g id="surface1">
<path style="fill:none;stroke-width:0.3985;stroke-linecap:butt;stroke-linejoin:miter;stroke:rgb(0%,0%,0%);stroke-opacity:1;stroke-miterlimit:10;" d="M -0.000993822 0.00180092 L 46.376071 0.00180092 M 46.376071 0.00180092 L 170.040419 0.00180092 M 170.040419 0.00180092 L 247.327702 0.00180092 " transform="matrix(0.998355,0,0,-0.998355,1.938492,211.513517)"/>
<g clip-path="url(#clip1)" clip-rule="nonzero">
<path style=" stroke:none;fill-rule:nonzero;fill:rgb(100%,100%,100%);fill-opacity:1;" d="M 3.523438 211.511719 C 3.523438 210.636719 2.8125 209.929688 1.9375 209.929688 C 1.0625 209.929688 0.355469 210.636719 0.355469 211.511719 C 0.355469 212.386719 1.0625 213.097656 1.9375 213.097656 C 2.8125 213.097656 3.523438 212.386719 3.523438 211.511719 Z M 3.523438 211.511719 "/>
</g>
<g clip-path="url(#clip2)" clip-rule="nonzero">
<path style="fill:none;stroke-width:0.3985;stroke-linecap:butt;stroke-linejoin:miter;stroke:rgb(0%,0%,0%);stroke-opacity:1;stroke-miterlimit:10;" d="M 1.587557 0.00180092 C 1.587557 0.878243 0.875448 1.586439 -0.000993822 1.586439 C -0.877435 1.586439 -1.585632 0.878243 -1.585632 0.00180092 C -1.585632 -0.874641 -0.877435 -1.58675 -0.000993822 -1.58675 C 0.875448 -1.58675 1.587557 -0.874641 1.587557 0.00180092 Z M 1.587557 0.00180092 " transform="matrix(0.998355,0,0,-0.998355,1.938492,211.513517)"/>
</g>
<g clip-path="url(#clip3)" clip-rule="nonzero">
<path style=" stroke:none;fill-rule:nonzero;fill:rgb(0%,0%,0%);fill-opacity:1;" d="M 96.117188 211.511719 C 96.117188 210.636719 95.410156 209.929688 94.535156 209.929688 C 93.660156 209.929688 92.949219 210.636719 92.949219 211.511719 C 92.949219 212.386719 93.660156 213.097656 94.535156 213.097656 C 95.410156 213.097656 96.117188 212.386719 96.117188 211.511719 Z M 96.117188 211.511719 "/>
</g>
<g clip-path="url(#clip4)" clip-rule="nonzero">
<path style="fill:none;stroke-width:0.3985;stroke-linecap:butt;stroke-linejoin:miter;stroke:rgb(0%,0%,0%);stroke-opacity:1;stroke-miterlimit:10;" d="M 94.333861 0.00180092 C 94.333861 0.878243 93.625665 1.586439 92.749224 1.586439 C 91.872782 1.586439 91.160673 0.878243 91.160673 0.00180092 C 91.160673 -0.874641 91.872782 -1.58675 92.749224 -1.58675 C 93.625665 -1.58675 94.333861 -0.874641 94.333861 0.00180092 Z M 94.333861 0.00180092 " transform="matrix(0.998355,0,0,-0.998355,1.938492,211.513517)"/>
</g>
<g clip-path="url(#clip5)" clip-rule="nonzero">
<path style=" stroke:none;fill-rule:nonzero;fill:rgb(100%,100%,100%);fill-opacity:1;" d="M 250.445312 211.511719 C 250.445312 210.636719 249.734375 209.929688 248.859375 209.929688 C 247.984375 209.929688 247.277344 210.636719 247.277344 211.511719 C 247.277344 212.386719 247.984375 213.097656 248.859375 213.097656 C 249.734375 213.097656 250.445312 212.386719 250.445312 211.511719 Z M 250.445312 211.511719 "/>
</g>
<g clip-path="url(#clip6)" clip-rule="nonzero">
<path style="fill:none;stroke-width:0.3985;stroke-linecap:butt;stroke-linejoin:miter;stroke:rgb(0%,0%,0%);stroke-opacity:1;stroke-miterlimit:10;" d="M 248.916253 0.00180092 C 248.916253 0.878243 248.204144 1.586439 247.327702 1.586439 C 246.451261 1.586439 245.743064 0.878243 245.743064 0.00180092 C 245.743064 -0.874641 246.451261 -1.58675 247.327702 -1.58675 C 248.204144 -1.58675 248.916253 -0.874641 248.916253 0.00180092 Z M 248.916253 0.00180092 " transform="matrix(0.998355,0,0,-0.998355,1.938492,211.513517)"/>
</g>
<path style="fill:none;stroke-width:0.3985;stroke-linecap:butt;stroke-linejoin:miter;stroke:rgb(0%,0%,0%);stroke-opacity:1;stroke-miterlimit:10;" d="M -0.000993822 185.498323 L 37.717297 185.498323 M 55.030932 185.498323 L 135.41315 185.498323 M 204.663776 185.498323 L 247.327702 185.498323 " transform="matrix(0.998355,0,0,-0.998355,1.938492,211.513517)"/>
<path style="fill:none;stroke-width:0.797;stroke-linecap:butt;stroke-linejoin:miter;stroke:rgb(0%,0%,0%);stroke-opacity:1;stroke-miterlimit:10;" d="M 37.717297 211.466819 L 37.717297 159.525914 M 55.030932 211.466819 L 55.030932 159.525914 " transform="matrix(0.998355,0,0,-0.998355,1.938492,211.513517)"/>
<g clip-path="url(#clip7)" clip-rule="nonzero">
<path style=" stroke:none;fill-rule:nonzero;fill:rgb(100%,100%,100%);fill-opacity:1;" d="M 3.523438 26.320312 C 3.523438 25.445312 2.8125 24.738281 1.9375 24.738281 C 1.0625 24.738281 0.355469 25.445312 0.355469 26.320312 C 0.355469 27.195312 1.0625 27.90625 1.9375 27.90625 C 2.8125 27.90625 3.523438 27.195312 3.523438 26.320312 Z M 3.523438 26.320312 "/>
</g>
<g clip-path="url(#clip8)" clip-rule="nonzero">
<path style="fill:none;stroke-width:0.3985;stroke-linecap:butt;stroke-linejoin:miter;stroke:rgb(0%,0%,0%);stroke-opacity:1;stroke-miterlimit:10;" d="M 1.587557 185.498323 C 1.587557 186.374765 0.875448 187.082961 -0.000993822 187.082961 C -0.877435 187.082961 -1.585632 186.374765 -1.585632 185.498323 C -1.585632 184.621881 -0.877435 183.909773 -0.000993822 183.909773 C 0.875448 183.909773 1.587557 184.621881 1.587557 185.498323 Z M 1.587557 185.498323 " transform="matrix(0.998355,0,0,-0.998355,1.938492,211.513517)"/>
</g>
<path style="fill-rule:nonzero;fill:rgb(0%,0%,0%);fill-opacity:1;stroke-width:0.3985;stroke-linecap:butt;stroke-linejoin:miter;stroke:rgb(0%,0%,0%);stroke-opacity:1;stroke-miterlimit:10;" d="M 94.333861 185.498323 C 94.333861 186.374765 93.625665 187.082961 92.749224 187.082961 C 91.872782 187.082961 91.160673 186.374765 91.160673 185.498323 C 91.160673 184.621881 91.872782 183.909773 92.749224 183.909773 C 93.625665 183.909773 94.333861 184.621881 94.333861 185.498323 Z M 94.333861 185.498323 " transform="matrix(0.998355,0,0,-0.998355,1.938492,211.513517)"/>
<path style="fill:none;stroke-width:0.797;stroke-linecap:butt;stroke-linejoin:bevel;stroke:rgb(0%,0%,0%);stroke-opacity:1;stroke-miterlimit:10;" d="M 135.014056 185.337903 C 135.014056 192.509856 138.934567 198.320194 143.770647 198.320194 C 148.606726 198.320194 152.527237 192.509856 152.527237 185.337903 C 152.527237 192.509856 156.447749 198.320194 161.283828 198.320194 C 166.119908 198.320194 170.040419 192.509856 170.040419 185.337903 C 170.040419 192.509856 173.957018 198.320194 178.793097 198.320194 C 183.629177 198.320194 187.549688 192.509856 187.549688 185.337903 C 187.549688 192.509856 191.470199 198.320194 196.306279 198.320194 C 201.142359 198.320194 205.06287 192.509856 205.06287 185.337903 " transform="matrix(0.998355,0,0,-0.998355,1.938492,211.513517)"/>
<g clip-path="url(#clip9)" clip-rule="nonzero">
<path style=" stroke:none;fill-rule:nonzero;fill:rgb(100%,100%,100%);fill-opacity:1;" d="M 250.445312 26.320312 C 250.445312 25.445312 249.734375 24.738281 248.859375 24.738281 C 247.984375 24.738281 247.277344 25.445312 247.277344 26.320312 C 247.277344 27.195312 247.984375 27.90625 248.859375 27.90625 C 249.734375 27.90625 250.445312 27.195312 250.445312 26.320312 Z M 250.445312 26.320312 "/>
</g>
<g clip-path="url(#clip10)" clip-rule="nonzero">
<path style="fill:none;stroke-width:0.3985;stroke-linecap:butt;stroke-linejoin:miter;stroke:rgb(0%,0%,0%);stroke-opacity:1;stroke-miterlimit:10;" d="M 248.916253 185.498323 C 248.916253 186.374765 248.204144 187.082961 247.327702 187.082961 C 246.451261 187.082961 245.743064 186.374765 245.743064 185.498323 C 245.743064 184.621881 246.451261 183.909773 247.327702 183.909773 C 248.204144 183.909773 248.916253 184.621881 248.916253 185.498323 Z M 248.916253 185.498323 " transform="matrix(0.998355,0,0,-0.998355,1.938492,211.513517)"/>
</g>
<path style="fill:none;stroke-width:0.3985;stroke-linecap:butt;stroke-linejoin:miter;stroke:rgb(0%,0%,0%);stroke-opacity:1;stroke-miterlimit:10;" d="M 92.749224 0.00180092 L 92.749224 84.093245 M 92.749224 101.402967 L 92.749224 185.498323 " transform="matrix(0.998355,0,0,-0.998355,1.938492,211.513517)"/>
<path style="fill:none;stroke-width:0.797;stroke-linecap:butt;stroke-linejoin:miter;stroke:rgb(0%,0%,0%);stroke-opacity:1;stroke-miterlimit:10;" d="M 66.776815 84.093245 L 118.717719 84.093245 M 66.776815 101.402967 L 118.717719 101.402967 " transform="matrix(0.998355,0,0,-0.998355,1.938492,211.513517)"/>
</g>
</svg>
