<?xml version="1.0" encoding="UTF-8"?>
<svg xmlns="http://www.w3.org/2000/svg" xmlns:xlink="http://www.w3.org/1999/xlink" width="250.898pt" height="200.664pt" viewBox="0 0 250.898 200.664" version="1.2">
<defs>
<clipPath id="clip1">
  <path d="M 0.160156 196 L 4 196 L 4 200.328125 L 0.160156 200.328125 Z M 0.160156 196 "/>
</clipPath>
<clipPath id="clip2">
  <path d="M 0.160156 191 L 10 191 L 10 200.328125 L 0.160156 200.328125 Z M 0.160156 191 "/>
</clipPath>
<clipPath id="clip3">
  <path d="M 62 196 L 66 196 L 66 200.328125 L 62 200.328125 Z M 62 196 "/>
</clipPath>
<clipPath id="clip4">
  <path d="M 56 191 L 71 191 L 71 200.328125 L 56 200.328125 Z M 56 191 "/>
</clipPath>
<clipPath id="clip5">
  <path d="M 185 196 L 189 196 L 189 200.328125 L 185 200.328125 Z M 185 196 "/>
</clipPath>
<clipPath id="clip6">
  <path d="M 179 191 L 195 191 L 195 200.328125 L 179 200.328125 Z M 179 191 "/>
</clipPath>
<clipPath id="clip7">
  <path d="M 247 196 L 250.636719 196 L 250.636719 200.328125 L 247 200.328125 Z M 247 196 "/>
</clipPath>
<clipPath id="clip8">
  <path d="M 241 191 L 250.636719 191 L 250.636719 200.328125 L 241 200.328125 Z M 241 191 "/>
</clipPath>
<clipPath id="clip9">
  <path d="M 0.160156 11 L 4 11 L 4 15 L 0.160156 15 Z M 0.160156 11 "/>
</clipPath>
<clipPath id="clip10">
  <path d="M 0.160156 6 L 10 6 L 10 21 L 0.160156 21 Z M 0.160156 6 "/>
</clipPath>
<clipPath id="clip11">
  <path d="M 247 11 L 250.636719 11 L 250.636719 15 L 247 15 Z M 247 11 "/>
</clipPath>
<clipPath id="clip12">
  <path d="M 241 6 L 250.636719 6 L 250.636719 21 L 241 21 Z M 241 6 "/>
</clipPath>
</defs>
<g id="surface1">
<path style="fill:none;stroke-width:0.3985;stroke-linecap:butt;stroke-linejoin:miter;stroke:rgb(0%,0%,0%);stroke-opacity:1;stroke-miterlimit:10;" d="M -0.000399911 -0.00133 L 30.91456 -0.00133 M 30.91456 -0.00133 L 123.663353 -0.00133 M 123.663353 -0.00133 L 216.412146 -0.00133 M 216.412146 -0.00133 L 247.327106 -0.00133 " transform="matrix(0.998328,0,0,-0.998328,1.941805,198.545547)"/>
<g clip-path="url(#clip1)" clip-rule="nonzero">
<path style=" stroke:none;fill-rule:nonzero;fill:rgb(100%,100%,100%);fill-opacity:1;" d="M 3.527344 198.546875 C 3.527344 197.671875 2.816406 196.960938 1.941406 196.960938 C 1.066406 196.960938 0.355469 197.671875 0.355469 198.546875 C 0.355469 199.421875 1.066406 200.128906 1.941406 200.128906 C 2.816406 200.128906 3.527344 199.421875 3.527344 198.546875 Z M 3.527344 198.546875 "/>
</g>
<g clip-path="url(#clip2)" clip-rule="nonzero">
<path style="fill:none;stroke-width:0.3985;stroke-linecap:butt;stroke-linejoin:miter;stroke:rgb(0%,0%,0%);stroke-opacity:1;stroke-miterlimit:10;" d="M 1.588193 -0.00133 C 1.588193 0.875135 0.876065 1.587263 -0.000399911 1.587263 C -0.876865 1.587263 -1.588993 0.875135 -1.588993 -0.00133 C -1.588993 -0.877795 -0.876865 -1.58601 -0.000399911 -1.58601 C 0.876065 -1.58601 1.588193 -0.877795 1.588193 -0.00133 Z M 1.588193 -0.00133 " transform="matrix(0.998328,0,0,-0.998328,1.941805,198.545547)"/>
</g>
<g clip-path="url(#clip3)" clip-rule="nonzero">
<path style=" stroke:none;fill-rule:nonzero;fill:rgb(0%,0%,0%);fill-opacity:1;" d="M 65.253906 198.546875 C 65.253906 197.671875 64.546875 196.960938 63.671875 196.960938 C 62.796875 196.960938 62.085938 197.671875 62.085938 198.546875 C 62.085938 199.421875 62.796875 200.128906 63.671875 200.128906 C 64.546875 200.128906 65.253906 199.421875 65.253906 198.546875 Z M 65.253906 198.546875 "/>
</g>
<g clip-path="url(#clip4)" clip-rule="nonzero">
<path style="fill:none;stroke-width:0.3985;stroke-linecap:butt;stroke-linejoin:miter;stroke:rgb(0%,0%,0%);stroke-opacity:1;stroke-miterlimit:10;" d="M 63.418113 -0.00133 C 63.418113 0.875135 62.709898 1.587263 61.833433 1.587263 C 60.956968 1.587263 60.24484 0.875135 60.24484 -0.00133 C 60.24484 -0.877795 60.956968 -1.58601 61.833433 -1.58601 C 62.709898 -1.58601 63.418113 -0.877795 63.418113 -0.00133 Z M 63.418113 -0.00133 " transform="matrix(0.998328,0,0,-0.998328,1.941805,198.545547)"/>
</g>
<g clip-path="url(#clip5)" clip-rule="nonzero">
<path style=" stroke:none;fill-rule:nonzero;fill:rgb(0%,0%,0%);fill-opacity:1;" d="M 188.710938 198.546875 C 188.710938 197.671875 188.003906 196.960938 187.128906 196.960938 C 186.253906 196.960938 185.542969 197.671875 185.542969 198.546875 C 185.542969 199.421875 186.253906 200.128906 187.128906 200.128906 C 188.003906 200.128906 188.710938 199.421875 188.710938 198.546875 Z M 188.710938 198.546875 "/>
</g>
<g clip-path="url(#clip6)" clip-rule="nonzero">
<path style="fill:none;stroke-width:0.3985;stroke-linecap:butt;stroke-linejoin:miter;stroke:rgb(0%,0%,0%);stroke-opacity:1;stroke-miterlimit:10;" d="M 187.081866 -0.00133 C 187.081866 0.875135 186.373651 1.587263 185.497186 1.587263 C 184.62072 1.587263 183.908593 0.875135 183.908593 -0.00133 C 183.908593 -0.877795 184.62072 -1.58601 185.497186 -1.58601 C 186.373651 -1.58601 187.081866 -0.877795 187.081866 -0.00133 Z M 187.081866 -0.00133 " transform="matrix(0.998328,0,0,-0.998328,1.941805,198.545547)"/>
</g>
<g clip-path="url(#clip7)" clip-rule="nonzero">
<path style=" stroke:none;fill-rule:nonzero;fill:rgb(100%,100%,100%);fill-opacity:1;" d="M 250.441406 198.546875 C 250.441406 197.671875 249.730469 196.960938 248.855469 196.960938 C 247.980469 196.960938 247.273438 197.671875 247.273438 198.546875 C 247.273438 199.421875 247.980469 200.128906 248.855469 200.128906 C 249.730469 200.128906 250.441406 199.421875 250.441406 198.546875 Z M 250.441406 198.546875 "/>
</g>
<g clip-path="url(#clip8)" clip-rule="nonzero">
<path style="fill:none;stroke-width:0.3985;stroke-linecap:butt;stroke-linejoin:miter;stroke:rgb(0%,0%,0%);stroke-opacity:1;stroke-miterlimit:10;" d="M 248.915699 -0.00133 C 248.915699 0.875135 248.203571 1.587263 247.327106 1.587263 C 246.45064 1.587263 245.742425 0.875135 245.742425 -0.00133 C 245.742425 -0.877795 246.45064 -1.58601 247.327106 -1.58601 C 248.203571 -1.58601 248.915699 -0.877795 248.915699 -0.00133 Z M 248.915699 -0.00133 " transform="matrix(0.998328,0,0,-0.998328,1.941805,198.545547)"/>
</g>
<path style="fill:none;stroke-width:0.3985;stroke-linecap:butt;stroke-linejoin:miter;stroke:rgb(0%,0%,0%);stroke-opacity:1;stroke-miterlimit:10;" d="M -0.000399911 185.496256 L 30.91456 185.496256 M 30.91456 185.496256 L 89.039067 185.496256 M 158.291551 185.496256 L 216.412146 185.496256 M 216.412146 185.496256 L 247.327106 185.496256 " transform="matrix(0.998328,0,0,-0.998328,1.941805,198.545547)"/>
<g clip-path="url(#clip9)" clip-rule="nonzero">
<path style=" stroke:none;fill-rule:nonzero;fill:rgb(100%,100%,100%);fill-opacity:1;" d="M 3.527344 13.359375 C 3.527344 12.484375 2.816406 11.773438 1.941406 11.773438 C 1.066406 11.773438 0.355469 12.484375 0.355469 13.359375 C 0.355469 14.234375 1.066406 14.945312 1.941406 14.945312 C 2.816406 14.945312 3.527344 14.234375 3.527344 13.359375 Z M 3.527344 13.359375 "/>
</g>
<g clip-path="url(#clip10)" clip-rule="nonzero">
<path style="fill:none;stroke-width:0.3985;stroke-linecap:butt;stroke-linejoin:miter;stroke:rgb(0%,0%,0%);stroke-opacity:1;stroke-miterlimit:10;" d="M 1.588193 185.496256 C 1.588193 186.372721 0.876065 187.084849 -0.000399911 187.084849 C -0.876865 187.084849 -1.588993 186.372721 -1.588993 185.496256 C -1.588993 184.61979 -0.876865 183.907662 -0.000399911 183.907662 C 0.876065 183.907662 1.588193 184.61979 1.588193 185.496256 Z M 1.588193 185.496256 " transform="matrix(0.998328,0,0,-0.998328,1.941805,198.545547)"/>
</g>
<path style="fill-rule:nonzero;fill:rgb(0%,0%,0%);fill-opacity:1;stroke-width:0.3985;stroke-linecap:butt;stroke-linejoin:miter;stroke:rgb(0%,0%,0%);stroke-opacity:1;stroke-miterlimit:10;" d="M 63.418113 185.496256 C 63.418113 186.372721 62.709898 187.084849 61.833433 187.084849 C 60.956968 187.084849 60.24484 186.372721 60.24484 185.496256 C 60.24484 184.61979 60.956968 183.907662 61.833433 183.907662 C 62.709898 183.907662 63.418113 184.61979 63.418113 185.496256 Z M 63.418113 185.496256 " transform="matrix(0.998328,0,0,-0.998328,1.941805,198.545547)"/>
<path style="fill:none;stroke-width:0.797;stroke-linecap:butt;stroke-linejoin:miter;stroke:rgb(0%,0%,0%);stroke-opacity:1;stroke-miterlimit:10;" d="M 89.039067 198.482808 L 158.291551 198.482808 L 158.291551 172.513616 L 89.039067 172.513616 Z M 89.039067 198.482808 " transform="matrix(0.998328,0,0,-0.998328,1.941805,198.545547)"/>
<path style="fill-rule:nonzero;fill:rgb(0%,0%,0%);fill-opacity:1;stroke-width:0.3985;stroke-linecap:butt;stroke-linejoin:miter;stroke:rgb(0%,0%,0%);stroke-opacity:1;stroke-miterlimit:10;" d="M 187.081866 185.496256 C 187.081866 186.372721 186.373651 187.084849 185.497186 187.084849 C 184.62072 187.084849 183.908593 186.372721 183.908593 185.496256 C 183.908593 184.61979 184.62072 183.907662 185.497186 183.907662 C 186.373651 183.907662 187.081866 184.61979 187.081866 185.496256 Z M 187.081866 185.496256 " transform="matrix(0.998328,0,0,-0.998328,1.941805,198.545547)"/>
<g clip-path="url(#clip11)" clip-rule="nonzero">
<path style=" stroke:none;fill-rule:nonzero;fill:rgb(100%,100%,100%);fill-opacity:1;" d="M 250.441406 13.359375 C 250.441406 12.484375 249.730469 11.773438 248.855469 11.773438 C 247.980469 11.773438 247.273438 12.484375 247.273438 13.359375 C 247.273438 14.234375 247.980469 14.945312 248.855469 14.945312 C 249.730469 14.945312 250.441406 14.234375 250.441406 13.359375 Z M 250.441406 13.359375 "/>
</g>
<g clip-path="url(#clip12)" clip-rule="nonzero">
<path style="fill:none;stroke-width:0.3985;stroke-linecap:butt;stroke-linejoin:miter;stroke:rgb(0%,0%,0%);stroke-opacity:1;stroke-miterlimit:10;" d="M 248.915699 185.496256 C 248.915699 186.372721 248.203571 187.084849 247.327106 187.084849 C 246.45064 187.084849 245.742425 186.372721 245.742425 185.496256 C 245.742425 184.61979 246.45064 183.907662 247.327106 183.907662 C 248.203571 183.907662 248.915699 184.61979 248.915699 185.496256 Z M 248.915699 185.496256 " transform="matrix(0.998328,0,0,-0.998328,1.941805,198.545547)"/>
</g>
<path style="fill:none;stroke-width:0.3985;stroke-linecap:butt;stroke-linejoin:miter;stroke:rgb(0%,0%,0%);stroke-opacity:1;stroke-miterlimit:10;" d="M 61.833433 -0.00133 L 61.833433 58.123177 M 61.833433 127.375661 L 61.833433 185.496256 " transform="matrix(0.998328,0,0,-0.998328,1.941805,198.545547)"/>
<path style="fill:none;stroke-width:0.797;stroke-linecap:butt;stroke-linejoin:bevel;stroke:rgb(0%,0%,0%);stroke-opacity:1;stroke-miterlimit:10;" d="M 61.989944 57.724072 C 54.821712 57.724072 49.007305 61.644689 49.007305 66.480898 C 49.007305 71.317108 54.821712 75.237724 61.989944 75.237724 C 54.821712 75.237724 49.007305 79.154428 49.007305 83.990637 C 49.007305 88.826846 54.821712 92.747463 61.989944 92.747463 C 54.821712 92.747463 49.007305 96.668079 49.007305 101.504289 C 49.007305 106.340498 54.821712 110.261114 61.989944 110.261114 C 54.821712 110.261114 49.007305 114.181731 49.007305 119.01794 C 49.007305 123.854149 54.821712 127.770853 61.989944 127.770853 " transform="matrix(0.998328,0,0,-0.998328,1.941805,198.545547)"/>
<path style="fill:none;stroke-width:0.3985;stroke-linecap:butt;stroke-linejoin:miter;stroke:rgb(0%,0%,0%);stroke-opacity:1;stroke-miterlimit:10;" d="M 185.497186 -0.00133 L 185.497186 58.123177 M 185.497186 127.375661 L 185.497186 185.496256 " transform="matrix(0.998328,0,0,-0.998328,1.941805,198.545547)"/>
<path style="fill:none;stroke-width:0.797;stroke-linecap:butt;stroke-linejoin:bevel;stroke:rgb(0%,0%,0%);stroke-opacity:1;stroke-miterlimit:10;" d="M 185.65761 57.724072 C 178.485465 57.724072 172.671057 61.644689 172.671057 66.480898 C 172.671057 71.317108 178.485465 75.237724 185.65761 75.237724 C 178.485465 75.237724 172.671057 79.154428 172.671057 83.990637 C 172.671057 88.826846 178.485465 92.747463 185.65761 92.747463 C 178.485465 92.747463 172.671057 96.668079 172.671057 101.504289 C 172.671057 106.340498 178.485465 110.261114 185.65761 110.261114 C 178.485465 110.261114 172.671057 114.181731 172.671057 119.01794 C 172.671057 123.854149 178.485465 127.770853 185.65761 127.770853 " transform="matrix(0.998328,0,0,-0.998328,1.941805,198.545547)"/>
</g>
</svg>
