<?xml version="1.0" encoding="UTF-8"?>
<svg xmlns="http://www.w3.org/2000/svg" xmlns:xlink="http://www.w3.org/1999/xlink" width="250.898pt" height="200.504pt" viewBox="0 0 250.898 200.504" version="1.2">
<defs>
<clipPath id="clip1">
  <path d="M 0.257812 196 L 4 196 L 4 200 L 0.257812 200 Z M 0.257812 196 "/>
</clipPath>
<clipPath id="clip2">
  <path d="M 0.257812 191 L 10 191 L 10 200.007812 L 0.257812 200.007812 Z M 0.257812 191 "/>
</clipPath>
<clipPath id="clip3">
  <path d="M 247 196 L 250.539062 196 L 250.539062 200 L 247 200 Z M 247 196 "/>
</clipPath>
<clipPath id="clip4">
  <path d="M 241 191 L 250.539062 191 L 250.539062 200.007812 L 241 200.007812 Z M 241 191 "/>
</clipPath>
<clipPath id="clip5">
  <path d="M 0.257812 11 L 4 11 L 4 15 L 0.257812 15 Z M 0.257812 11 "/>
</clipPath>
<clipPath id="clip6">
  <path d="M 0.257812 5 L 10 5 L 10 21 L 0.257812 21 Z M 0.257812 5 "/>
</clipPath>
<clipPath id="clip7">
  <path d="M 247 11 L 250.539062 11 L 250.539062 15 L 247 15 Z M 247 11 "/>
</clipPath>
<clipPath id="clip8">
  <path d="M 241 5 L 250.539062 5 L 250.539062 21 L 241 21 Z M 241 5 "/>
</clipPath>
</defs>
<g id="surface1">
<path style="fill:none;stroke-width:0.3985;stroke-linecap:butt;stroke-linejoin:miter;stroke:rgb(0%,0%,0%);stroke-opacity:1;stroke-miterlimit:10;" d="M -0.00122482 0.00107135 L 123.663312 0.00107135 M 123.663312 0.00107135 L 247.32785 0.00107135 " transform="matrix(0.997532,0,0,-0.997532,2.040284,198.227631)"/>
<g clip-path="url(#clip1)" clip-rule="nonzero">
<path style=" stroke:none;fill-rule:nonzero;fill:rgb(100%,100%,100%);fill-opacity:1;" d="M 3.625 198.226562 C 3.625 197.351562 2.914062 196.644531 2.039062 196.644531 C 1.164062 196.644531 0.457031 197.351562 0.457031 198.226562 C 0.457031 199.101562 1.164062 199.8125 2.039062 199.8125 C 2.914062 199.8125 3.625 199.101562 3.625 198.226562 Z M 3.625 198.226562 "/>
</g>
<g clip-path="url(#clip2)" clip-rule="nonzero">
<path style="fill:none;stroke-width:0.3985;stroke-linecap:butt;stroke-linejoin:miter;stroke:rgb(0%,0%,0%);stroke-opacity:1;stroke-miterlimit:10;" d="M 1.588636 0.00107135 C 1.588636 0.878236 0.87594 1.587016 -0.00122482 1.587016 C -0.878389 1.587016 -1.58717 0.878236 -1.58717 0.00107135 C -1.58717 -0.876093 -0.878389 -1.588789 -0.00122482 -1.588789 C 0.87594 -1.588789 1.588636 -0.876093 1.588636 0.00107135 Z M 1.588636 0.00107135 " transform="matrix(0.997532,0,0,-0.997532,2.040284,198.227631)"/>
</g>
<g clip-path="url(#clip3)" clip-rule="nonzero">
<path style=" stroke:none;fill-rule:nonzero;fill:rgb(100%,100%,100%);fill-opacity:1;" d="M 250.34375 198.226562 C 250.34375 197.351562 249.632812 196.644531 248.757812 196.644531 C 247.882812 196.644531 247.175781 197.351562 247.175781 198.226562 C 247.175781 199.101562 247.882812 199.8125 248.757812 199.8125 C 249.632812 199.8125 250.34375 199.101562 250.34375 198.226562 Z M 250.34375 198.226562 "/>
</g>
<g clip-path="url(#clip4)" clip-rule="nonzero">
<path style="fill:none;stroke-width:0.3985;stroke-linecap:butt;stroke-linejoin:miter;stroke:rgb(0%,0%,0%);stroke-opacity:1;stroke-miterlimit:10;" d="M 248.91771 0.00107135 C 248.91771 0.878236 248.205014 1.587016 247.32785 1.587016 C 246.450685 1.587016 245.741905 0.878236 245.741905 0.00107135 C 245.741905 -0.876093 246.450685 -1.588789 247.32785 -1.588789 C 248.205014 -1.588789 248.91771 -0.876093 248.91771 0.00107135 Z M 248.91771 0.00107135 " transform="matrix(0.997532,0,0,-0.997532,2.040284,198.227631)"/>
</g>
<path style="fill:none;stroke-width:0.3985;stroke-linecap:butt;stroke-linejoin:miter;stroke:rgb(0%,0%,0%);stroke-opacity:1;stroke-miterlimit:10;" d="M -0.00122482 185.497877 L 15.4588 185.497877 M 15.4588 185.497877 L 89.038808 185.497877 M 158.291732 185.497877 L 231.87174 185.497877 M 231.87174 185.497877 L 247.32785 185.497877 " transform="matrix(0.997532,0,0,-0.997532,2.040284,198.227631)"/>
<g clip-path="url(#clip5)" clip-rule="nonzero">
<path style=" stroke:none;fill-rule:nonzero;fill:rgb(100%,100%,100%);fill-opacity:1;" d="M 3.625 13.1875 C 3.625 12.3125 2.914062 11.605469 2.039062 11.605469 C 1.164062 11.605469 0.457031 12.3125 0.457031 13.1875 C 0.457031 14.0625 1.164062 14.773438 2.039062 14.773438 C 2.914062 14.773438 3.625 14.0625 3.625 13.1875 Z M 3.625 13.1875 "/>
</g>
<g clip-path="url(#clip6)" clip-rule="nonzero">
<path style="fill:none;stroke-width:0.3985;stroke-linecap:butt;stroke-linejoin:miter;stroke:rgb(0%,0%,0%);stroke-opacity:1;stroke-miterlimit:10;" d="M 1.588636 185.497877 C 1.588636 186.375042 0.87594 187.083822 -0.00122482 187.083822 C -0.878389 187.083822 -1.58717 186.375042 -1.58717 185.497877 C -1.58717 184.620713 -0.878389 183.908016 -0.00122482 183.908016 C 0.87594 183.908016 1.588636 184.620713 1.588636 185.497877 Z M 1.588636 185.497877 " transform="matrix(0.997532,0,0,-0.997532,2.040284,198.227631)"/>
</g>
<path style="fill-rule:nonzero;fill:rgb(0%,0%,0%);fill-opacity:1;stroke-width:0.3985;stroke-linecap:butt;stroke-linejoin:miter;stroke:rgb(0%,0%,0%);stroke-opacity:1;stroke-miterlimit:10;" d="M 32.50477 185.497877 C 32.50477 186.375042 31.792074 187.083822 30.914909 187.083822 C 30.037745 187.083822 29.328965 186.375042 29.328965 185.497877 C 29.328965 184.620713 30.037745 183.908016 30.914909 183.908016 C 31.792074 183.908016 32.50477 184.620713 32.50477 185.497877 Z M 32.50477 185.497877 " transform="matrix(0.997532,0,0,-0.997532,2.040284,198.227631)"/>
<path style="fill:none;stroke-width:0.797;stroke-linecap:butt;stroke-linejoin:bevel;stroke:rgb(0%,0%,0%);stroke-opacity:1;stroke-miterlimit:10;" d="M 88.639385 185.337325 C 88.639385 192.507362 92.559214 198.322493 97.395367 198.322493 C 102.23152 198.322493 106.151349 192.507362 106.151349 185.337325 C 106.151349 192.507362 110.071178 198.322493 114.907331 198.322493 C 119.743483 198.322493 123.663312 192.507362 123.663312 185.337325 C 123.663312 192.507362 127.583141 198.322493 132.419294 198.322493 C 137.255447 198.322493 141.175276 192.507362 141.175276 185.337325 C 141.175276 192.507362 145.095105 198.322493 149.931258 198.322493 C 154.767411 198.322493 158.68724 192.507362 158.68724 185.337325 " transform="matrix(0.997532,0,0,-0.997532,2.040284,198.227631)"/>
<path style="fill-rule:nonzero;fill:rgb(0%,0%,0%);fill-opacity:1;stroke-width:0.3985;stroke-linecap:butt;stroke-linejoin:miter;stroke:rgb(0%,0%,0%);stroke-opacity:1;stroke-miterlimit:10;" d="M 218.001576 185.497877 C 218.001576 186.375042 217.28888 187.083822 216.411715 187.083822 C 215.534551 187.083822 214.825771 186.375042 214.825771 185.497877 C 214.825771 184.620713 215.534551 183.908016 216.411715 183.908016 C 217.28888 183.908016 218.001576 184.620713 218.001576 185.497877 Z M 218.001576 185.497877 " transform="matrix(0.997532,0,0,-0.997532,2.040284,198.227631)"/>
<g clip-path="url(#clip7)" clip-rule="nonzero">
<path style=" stroke:none;fill-rule:nonzero;fill:rgb(100%,100%,100%);fill-opacity:1;" d="M 250.34375 13.1875 C 250.34375 12.3125 249.632812 11.605469 248.757812 11.605469 C 247.882812 11.605469 247.175781 12.3125 247.175781 13.1875 C 247.175781 14.0625 247.882812 14.773438 248.757812 14.773438 C 249.632812 14.773438 250.34375 14.0625 250.34375 13.1875 Z M 250.34375 13.1875 "/>
</g>
<g clip-path="url(#clip8)" clip-rule="nonzero">
<path style="fill:none;stroke-width:0.3985;stroke-linecap:butt;stroke-linejoin:miter;stroke:rgb(0%,0%,0%);stroke-opacity:1;stroke-miterlimit:10;" d="M 248.91771 185.497877 C 248.91771 186.375042 248.205014 187.083822 247.32785 187.083822 C 246.450685 187.083822 245.741905 186.375042 245.741905 185.497877 C 245.741905 184.620713 246.450685 183.908016 247.32785 183.908016 C 248.205014 183.908016 248.91771 184.620713 248.91771 185.497877 Z M 248.91771 185.497877 " transform="matrix(0.997532,0,0,-0.997532,2.040284,198.227631)"/>
</g>
<path style="fill:none;stroke-width:0.3985;stroke-linecap:butt;stroke-linejoin:miter;stroke:rgb(0%,0%,0%);stroke-opacity:1;stroke-miterlimit:10;" d="M 30.914909 185.497877 L 30.914909 154.581743 M 30.914909 154.581743 L 30.914909 123.665609 L 115.009144 123.665609 M 132.321396 123.665609 L 216.411715 123.665609 L 216.411715 154.581743 M 216.411715 154.581743 L 216.411715 185.497877 " transform="matrix(0.997532,0,0,-0.997532,2.040284,198.227631)"/>
<path style="fill:none;stroke-width:0.797;stroke-linecap:butt;stroke-linejoin:miter;stroke:rgb(0%,0%,0%);stroke-opacity:1;stroke-miterlimit:10;" d="M 115.009144 149.635945 L 115.009144 97.695273 M 132.321396 149.635945 L 132.321396 97.695273 " transform="matrix(0.997532,0,0,-0.997532,2.040284,198.227631)"/>
</g>
</svg>
