<?xml version="1.0" encoding="UTF-8"?>
<svg xmlns="http://www.w3.org/2000/svg" xmlns:xlink="http://www.w3.org/1999/xlink" width="250.898pt" height="213.648pt" viewBox="0 0 250.898 213.648" version="1.2">
<defs>
<clipPath id="clip1">
  <path d="M 0.15625 209 L 4 209 L 4 213.296875 L 0.15625 213.296875 Z M 0.15625 209 "/>
</clipPath>
<clipPath id="clip2">
  <path d="M 0.15625 204 L 10 204 L 10 213.296875 L 0.15625 213.296875 Z M 0.15625 204 "/>
</clipPath>
<clipPath id="clip3">
  <path d="M 216 209 L 220 209 L 220 213.296875 L 216 213.296875 Z M 216 209 "/>
</clipPath>
<clipPath id="clip4">
  <path d="M 210 204 L 226 204 L 226 213.296875 L 210 213.296875 Z M 210 204 "/>
</clipPath>
<clipPath id="clip5">
  <path d="M 247 209 L 250.640625 209 L 250.640625 213.296875 L 247 213.296875 Z M 247 209 "/>
</clipPath>
<clipPath id="clip6">
  <path d="M 241 204 L 250.640625 204 L 250.640625 213.296875 L 241 213.296875 Z M 241 204 "/>
</clipPath>
<clipPath id="clip7">
  <path d="M 0.15625 24 L 4 24 L 4 28 L 0.15625 28 Z M 0.15625 24 "/>
</clipPath>
<clipPath id="clip8">
  <path d="M 0.15625 19 L 10 19 L 10 34 L 0.15625 34 Z M 0.15625 19 "/>
</clipPath>
<clipPath id="clip9">
  <path d="M 247 24 L 250.640625 24 L 250.640625 28 L 247 28 Z M 247 24 "/>
</clipPath>
<clipPath id="clip10">
  <path d="M 241 19 L 250.640625 19 L 250.640625 34 L 241 34 Z M 241 19 "/>
</clipPath>
</defs>
<g id="surface1">
<path style="fill:none;stroke-width:0.3985;stroke-linecap:butt;stroke-linejoin:miter;stroke:rgb(0%,0%,0%);stroke-opacity:1;stroke-miterlimit:10;" d="M -0.000993822 0.00180092 L 108.208245 0.00180092 M 108.208245 0.00180092 L 231.872593 0.00180092 M 231.872593 0.00180092 L 247.327702 0.00180092 " transform="matrix(0.998355,0,0,-0.998355,1.938492,211.513517)"/>
<g clip-path="url(#clip1)" clip-rule="nonzero">
<path style=" stroke:none;fill-rule:nonzero;fill:rgb(100%,100%,100%);fill-opacity:1;" d="M 3.523438 211.511719 C 3.523438 210.636719 2.8125 209.929688 1.9375 209.929688 C 1.0625 209.929688 0.355469 210.636719 0.355469 211.511719 C 0.355469 212.386719 1.0625 213.097656 1.9375 213.097656 C 2.8125 213.097656 3.523438 212.386719 3.523438 211.511719 Z M 3.523438 211.511719 "/>
</g>
<g clip-path="url(#clip2)" clip-rule="nonzero">
<path style="fill:none;stroke-width:0.3985;stroke-linecap:butt;stroke-linejoin:miter;stroke:rgb(0%,0%,0%);stroke-opacity:1;stroke-miterlimit:10;" d="M 1.587557 0.00180092 C 1.587557 0.878243 0.875448 1.586439 -0.000993822 1.586439 C -0.877435 1.586439 -1.585632 0.878243 -1.585632 0.00180092 C -1.585632 -0.874641 -0.877435 -1.58675 -0.000993822 -1.58675 C 0.875448 -1.58675 1.587557 -0.874641 1.587557 0.00180092 Z M 1.587557 0.00180092 " transform="matrix(0.998355,0,0,-0.998355,1.938492,211.513517)"/>
</g>
<g clip-path="url(#clip3)" clip-rule="nonzero">
<path style=" stroke:none;fill-rule:nonzero;fill:rgb(0%,0%,0%);fill-opacity:1;" d="M 219.578125 211.511719 C 219.578125 210.636719 218.871094 209.929688 217.996094 209.929688 C 217.121094 209.929688 216.410156 210.636719 216.410156 211.511719 C 216.410156 212.386719 217.121094 213.097656 217.996094 213.097656 C 218.871094 213.097656 219.578125 212.386719 219.578125 211.511719 Z M 219.578125 211.511719 "/>
</g>
<g clip-path="url(#clip4)" clip-rule="nonzero">
<path style="fill:none;stroke-width:0.3985;stroke-linecap:butt;stroke-linejoin:miter;stroke:rgb(0%,0%,0%);stroke-opacity:1;stroke-miterlimit:10;" d="M 217.998209 0.00180092 C 217.998209 0.878243 217.290013 1.586439 216.413572 1.586439 C 215.53713 1.586439 214.825021 0.878243 214.825021 0.00180092 C 214.825021 -0.874641 215.53713 -1.58675 216.413572 -1.58675 C 217.290013 -1.58675 217.998209 -0.874641 217.998209 0.00180092 Z M 217.998209 0.00180092 " transform="matrix(0.998355,0,0,-0.998355,1.938492,211.513517)"/>
</g>
<g clip-path="url(#clip5)" clip-rule="nonzero">
<path style=" stroke:none;fill-rule:nonzero;fill:rgb(100%,100%,100%);fill-opacity:1;" d="M 250.445312 211.511719 C 250.445312 210.636719 249.734375 209.929688 248.859375 209.929688 C 247.984375 209.929688 247.277344 210.636719 247.277344 211.511719 C 247.277344 212.386719 247.984375 213.097656 248.859375 213.097656 C 249.734375 213.097656 250.445312 212.386719 250.445312 211.511719 Z M 250.445312 211.511719 "/>
</g>
<g clip-path="url(#clip6)" clip-rule="nonzero">
<path style="fill:none;stroke-width:0.3985;stroke-linecap:butt;stroke-linejoin:miter;stroke:rgb(0%,0%,0%);stroke-opacity:1;stroke-miterlimit:10;" d="M 248.916253 0.00180092 C 248.916253 0.878243 248.204144 1.586439 247.327702 1.586439 C 246.451261 1.586439 245.743064 0.878243 245.743064 0.00180092 C 245.743064 -0.874641 246.451261 -1.58675 247.327702 -1.58675 C 248.204144 -1.58675 248.916253 -0.874641 248.916253 0.00180092 Z M 248.916253 0.00180092 " transform="matrix(0.998355,0,0,-0.998355,1.938492,211.513517)"/>
</g>
<path style="fill:none;stroke-width:0.3985;stroke-linecap:butt;stroke-linejoin:miter;stroke:rgb(0%,0%,0%);stroke-opacity:1;stroke-miterlimit:10;" d="M -0.000993822 185.498323 L 37.717297 185.498323 M 55.030932 185.498323 L 104.495106 185.498323 M 173.749645 185.498323 L 200.95455 185.498323 M 200.95455 185.498323 L 231.872593 185.498323 M 231.872593 185.498323 L 247.327702 185.498323 " transform="matrix(0.998355,0,0,-0.998355,1.938492,211.513517)"/>
<path style="fill:none;stroke-width:0.797;stroke-linecap:butt;stroke-linejoin:miter;stroke:rgb(0%,0%,0%);stroke-opacity:1;stroke-miterlimit:10;" d="M 37.717297 211.466819 L 37.717297 159.525914 M 55.030932 211.466819 L 55.030932 159.525914 " transform="matrix(0.998355,0,0,-0.998355,1.938492,211.513517)"/>
<g clip-path="url(#clip7)" clip-rule="nonzero">
<path style=" stroke:none;fill-rule:nonzero;fill:rgb(100%,100%,100%);fill-opacity:1;" d="M 3.523438 26.320312 C 3.523438 25.445312 2.8125 24.738281 1.9375 24.738281 C 1.0625 24.738281 0.355469 25.445312 0.355469 26.320312 C 0.355469 27.195312 1.0625 27.90625 1.9375 27.90625 C 2.8125 27.90625 3.523438 27.195312 3.523438 26.320312 Z M 3.523438 26.320312 "/>
</g>
<g clip-path="url(#clip8)" clip-rule="nonzero">
<path style="fill:none;stroke-width:0.3985;stroke-linecap:butt;stroke-linejoin:miter;stroke:rgb(0%,0%,0%);stroke-opacity:1;stroke-miterlimit:10;" d="M 1.587557 185.498323 C 1.587557 186.374765 0.875448 187.082961 -0.000993822 187.082961 C -0.877435 187.082961 -1.585632 186.374765 -1.585632 185.498323 C -1.585632 184.621881 -0.877435 183.909773 -0.000993822 183.909773 C 0.875448 183.909773 1.587557 184.621881 1.587557 185.498323 Z M 1.587557 185.498323 " transform="matrix(0.998355,0,0,-0.998355,1.938492,211.513517)"/>
</g>
<path style="fill:none;stroke-width:0.797;stroke-linecap:butt;stroke-linejoin:miter;stroke:rgb(0%,0%,0%);stroke-opacity:1;stroke-miterlimit:10;" d="M 104.495106 198.480614 L 173.749645 198.480614 L 173.749645 172.512119 L 104.495106 172.512119 Z M 104.495106 198.480614 " transform="matrix(0.998355,0,0,-0.998355,1.938492,211.513517)"/>
<path style="fill-rule:nonzero;fill:rgb(0%,0%,0%);fill-opacity:1;stroke-width:0.3985;stroke-linecap:butt;stroke-linejoin:miter;stroke:rgb(0%,0%,0%);stroke-opacity:1;stroke-miterlimit:10;" d="M 217.998209 185.498323 C 217.998209 186.374765 217.290013 187.082961 216.413572 187.082961 C 215.53713 187.082961 214.825021 186.374765 214.825021 185.498323 C 214.825021 184.621881 215.53713 183.909773 216.413572 183.909773 C 217.290013 183.909773 217.998209 184.621881 217.998209 185.498323 Z M 217.998209 185.498323 " transform="matrix(0.998355,0,0,-0.998355,1.938492,211.513517)"/>
<g clip-path="url(#clip9)" clip-rule="nonzero">
<path style=" stroke:none;fill-rule:nonzero;fill:rgb(100%,100%,100%);fill-opacity:1;" d="M 250.445312 26.320312 C 250.445312 25.445312 249.734375 24.738281 248.859375 24.738281 C 247.984375 24.738281 247.277344 25.445312 247.277344 26.320312 C 247.277344 27.195312 247.984375 27.90625 248.859375 27.90625 C 249.734375 27.90625 250.445312 27.195312 250.445312 26.320312 Z M 250.445312 26.320312 "/>
</g>
<g clip-path="url(#clip10)" clip-rule="nonzero">
<path style="fill:none;stroke-width:0.3985;stroke-linecap:butt;stroke-linejoin:miter;stroke:rgb(0%,0%,0%);stroke-opacity:1;stroke-miterlimit:10;" d="M 248.916253 185.498323 C 248.916253 186.374765 248.204144 187.082961 247.327702 187.082961 C 246.451261 187.082961 245.743064 186.374765 245.743064 185.498323 C 245.743064 184.621881 246.451261 183.909773 247.327702 183.909773 C 248.204144 183.909773 248.916253 184.621881 248.916253 185.498323 Z M 248.916253 185.498323 " transform="matrix(0.998355,0,0,-0.998355,1.938492,211.513517)"/>
</g>
<path style="fill:none;stroke-width:0.3985;stroke-linecap:butt;stroke-linejoin:miter;stroke:rgb(0%,0%,0%);stroke-opacity:1;stroke-miterlimit:10;" d="M 216.413572 0.00180092 L 216.413572 58.120836 M 216.413572 127.375375 L 216.413572 185.498323 " transform="matrix(0.998355,0,0,-0.998355,1.938492,211.513517)"/>
<path style="fill:none;stroke-width:0.797;stroke-linecap:butt;stroke-linejoin:bevel;stroke:rgb(0%,0%,0%);stroke-opacity:1;stroke-miterlimit:10;" d="M 216.573992 57.725655 C 209.402039 57.725655 203.587787 61.642253 203.587787 66.478333 C 203.587787 71.314413 209.402039 75.234924 216.573992 75.234924 C 209.402039 75.234924 203.587787 79.155435 203.587787 83.991515 C 203.587787 88.827594 209.402039 92.748106 216.573992 92.748106 C 209.402039 92.748106 203.587787 96.668617 203.587787 101.504696 C 203.587787 106.340776 209.402039 110.261287 216.573992 110.261287 C 209.402039 110.261287 203.587787 114.181799 203.587787 119.017878 C 203.587787 123.853958 209.402039 127.774469 216.573992 127.774469 " transform="matrix(0.998355,0,0,-0.998355,1.938492,211.513517)"/>
</g>
</svg>
