<?xml version="1.0" encoding="UTF-8"?>
<svg xmlns="http://www.w3.org/2000/svg" xmlns:xlink="http://www.w3.org/1999/xlink" width="253.443pt" height="24.608pt" viewBox="0 0 253.443 24.608" version="1.2">
<defs>
<clipPath id="clip1">
  <path d="M 204 0 L 213 0 L 213 24.222656 L 204 24.222656 Z M 204 0 "/>
</clipPath>
<clipPath id="clip2">
  <path d="M 1.710938 10 L 6 10 L 6 14 L 1.710938 14 Z M 1.710938 10 "/>
</clipPath>
<clipPath id="clip3">
  <path d="M 1.710938 5 L 11 5 L 11 20 L 1.710938 20 Z M 1.710938 5 "/>
</clipPath>
<clipPath id="clip4">
  <path d="M 242 5 L 251.183594 5 L 251.183594 20 L 242 20 Z M 242 5 "/>
</clipPath>
</defs>
<g id="surface1">
<path style="fill:none;stroke-width:0.3985;stroke-linecap:butt;stroke-linejoin:miter;stroke:rgb(0%,0%,0%);stroke-opacity:1;stroke-miterlimit:10;" d="M 0.00182942 0.00172533 L 25.773111 0.00172533 M 57.520916 0.00172533 L 109.063479 0.00172533 M 140.811284 0.00172533 L 204.259274 0.00172533 M 212.196225 0.00172533 L 249.872933 0.00172533 " transform="matrix(0.98432,0,0,-0.98432,3.470856,12.111073)"/>
<path style="fill:none;stroke-width:0.797;stroke-linecap:butt;stroke-linejoin:miter;stroke:rgb(0%,0%,0%);stroke-opacity:1;stroke-miterlimit:10;" d="M 25.773111 5.954439 L 57.520916 5.954439 L 57.520916 -5.950988 L 25.773111 -5.950988 Z M 25.773111 5.954439 " transform="matrix(0.98432,0,0,-0.98432,3.470856,12.111073)"/>
<path style="fill:none;stroke-width:0.797;stroke-linecap:butt;stroke-linejoin:bevel;stroke:rgb(0%,0%,0%);stroke-opacity:1;stroke-miterlimit:10;" d="M 108.662663 -0.160982 C 108.662663 3.128884 110.484193 5.791731 112.734319 5.791731 C 114.980476 5.791731 116.802006 3.128884 116.802006 -0.160982 C 116.802006 3.128884 118.623537 5.791731 120.869694 5.791731 C 123.115851 5.791731 124.937381 3.128884 124.937381 -0.160982 C 124.937381 3.128884 126.758912 5.791731 129.005069 5.791731 C 131.251226 5.791731 133.072757 3.128884 133.072757 -0.160982 C 133.072757 3.128884 134.894287 5.791731 137.140444 5.791731 C 139.386601 5.791731 141.208132 3.128884 141.208132 -0.160982 " transform="matrix(0.98432,0,0,-0.98432,3.470856,12.111073)"/>
<g clip-path="url(#clip1)" clip-rule="nonzero">
<path style="fill:none;stroke-width:0.797;stroke-linecap:butt;stroke-linejoin:miter;stroke:rgb(0%,0%,0%);stroke-opacity:1;stroke-miterlimit:10;" d="M 204.259274 11.907152 L 204.259274 -11.90767 M 212.196225 11.907152 L 212.196225 -11.90767 " transform="matrix(0.98432,0,0,-0.98432,3.470856,12.111073)"/>
</g>
<g clip-path="url(#clip2)" clip-rule="nonzero">
<path style=" stroke:none;fill-rule:nonzero;fill:rgb(100%,100%,100%);fill-opacity:1;" d="M 5.03125 12.109375 C 5.03125 11.25 4.332031 10.546875 3.472656 10.546875 C 2.609375 10.546875 1.910156 11.25 1.910156 12.109375 C 1.910156 12.972656 2.609375 13.671875 3.472656 13.671875 C 4.332031 13.671875 5.03125 12.972656 5.03125 12.109375 Z M 5.03125 12.109375 "/>
</g>
<g clip-path="url(#clip3)" clip-rule="nonzero">
<path style="fill:none;stroke-width:0.3985;stroke-linecap:butt;stroke-linejoin:miter;stroke:rgb(0%,0%,0%);stroke-opacity:1;stroke-miterlimit:10;" d="M 1.585251 0.00172533 C 1.585251 0.87479 0.874894 1.589116 0.00182942 1.589116 C -0.875204 1.589116 -1.585561 0.87479 -1.585561 0.00172533 C -1.585561 -0.875308 -0.875204 -1.585665 0.00182942 -1.585665 C 0.874894 -1.585665 1.585251 -0.875308 1.585251 0.00172533 Z M 1.585251 0.00172533 " transform="matrix(0.98432,0,0,-0.98432,3.470856,12.111073)"/>
</g>
<path style=" stroke:none;fill-rule:nonzero;fill:rgb(100%,100%,100%);fill-opacity:1;" d="M 250.988281 12.109375 C 250.988281 11.25 250.289062 10.546875 249.425781 10.546875 C 248.5625 10.546875 247.863281 11.25 247.863281 12.109375 C 247.863281 12.972656 248.5625 13.671875 249.425781 13.671875 C 250.289062 13.671875 250.988281 12.972656 250.988281 12.109375 Z M 250.988281 12.109375 "/>
<g clip-path="url(#clip4)" clip-rule="nonzero">
<path style="fill:none;stroke-width:0.3985;stroke-linecap:butt;stroke-linejoin:miter;stroke:rgb(0%,0%,0%);stroke-opacity:1;stroke-miterlimit:10;" d="M 251.460324 0.00172533 C 251.460324 0.87479 250.749966 1.589116 249.872933 1.589116 C 248.9959 1.589116 248.285543 0.87479 248.285543 0.00172533 C 248.285543 -0.875308 248.9959 -1.585665 249.872933 -1.585665 C 250.749966 -1.585665 251.460324 -0.875308 251.460324 0.00172533 Z M 251.460324 0.00172533 " transform="matrix(0.98432,0,0,-0.98432,3.470856,12.111073)"/>
</g>
</g>
</svg>
