<?xml version="1.0" encoding="UTF-8"?>
<svg xmlns="http://www.w3.org/2000/svg" xmlns:xlink="http://www.w3.org/1999/xlink" width="250.898pt" height="200.664pt" viewBox="0 0 250.898 200.664" version="1.2">
<defs>
<clipPath id="clip1">
  <path d="M 0.160156 196 L 4 196 L 4 200.328125 L 0.160156 200.328125 Z M 0.160156 196 "/>
</clipPath>
<clipPath id="clip2">
  <path d="M 0.160156 191 L 10 191 L 10 200.328125 L 0.160156 200.328125 Z M 0.160156 191 "/>
</clipPath>
<clipPath id="clip3">
  <path d="M 247 196 L 250.636719 196 L 250.636719 200.328125 L 247 200.328125 Z M 247 196 "/>
</clipPath>
<clipPath id="clip4">
  <path d="M 241 191 L 250.636719 191 L 250.636719 200.328125 L 241 200.328125 Z M 241 191 "/>
</clipPath>
<clipPath id="clip5">
  <path d="M 0.160156 11 L 4 11 L 4 15 L 0.160156 15 Z M 0.160156 11 "/>
</clipPath>
<clipPath id="clip6">
  <path d="M 0.160156 6 L 10 6 L 10 21 L 0.160156 21 Z M 0.160156 6 "/>
</clipPath>
<clipPath id="clip7">
  <path d="M 247 11 L 250.636719 11 L 250.636719 15 L 247 15 Z M 247 11 "/>
</clipPath>
<clipPath id="clip8">
  <path d="M 241 6 L 250.636719 6 L 250.636719 21 L 241 21 Z M 241 6 "/>
</clipPath>
</defs>
<g id="surface1">
<path style="fill:none;stroke-width:0.3985;stroke-linecap:butt;stroke-linejoin:miter;stroke:rgb(0%,0%,0%);stroke-opacity:1;stroke-miterlimit:10;" d="M -0.000399911 -0.00133 L 61.833433 -0.00133 M 61.833433 -0.00133 L 185.497186 -0.00133 M 185.497186 -0.00133 L 247.327106 -0.00133 " transform="matrix(0.998328,0,0,-0.998328,1.941805,198.545547)"/>
<g clip-path="url(#clip1)" clip-rule="nonzero">
<path style=" stroke:none;fill-rule:nonzero;fill:rgb(100%,100%,100%);fill-opacity:1;" d="M 3.527344 198.546875 C 3.527344 197.671875 2.816406 196.960938 1.941406 196.960938 C 1.066406 196.960938 0.355469 197.671875 0.355469 198.546875 C 0.355469 199.421875 1.066406 200.128906 1.941406 200.128906 C 2.816406 200.128906 3.527344 199.421875 3.527344 198.546875 Z M 3.527344 198.546875 "/>
</g>
<g clip-path="url(#clip2)" clip-rule="nonzero">
<path style="fill:none;stroke-width:0.3985;stroke-linecap:butt;stroke-linejoin:miter;stroke:rgb(0%,0%,0%);stroke-opacity:1;stroke-miterlimit:10;" d="M 1.588193 -0.00133 C 1.588193 0.875135 0.876065 1.587263 -0.000399911 1.587263 C -0.876865 1.587263 -1.588993 0.875135 -1.588993 -0.00133 C -1.588993 -0.877795 -0.876865 -1.58601 -0.000399911 -1.58601 C 0.876065 -1.58601 1.588193 -0.877795 1.588193 -0.00133 Z M 1.588193 -0.00133 " transform="matrix(0.998328,0,0,-0.998328,1.941805,198.545547)"/>
</g>
<g clip-path="url(#clip3)" clip-rule="nonzero">
<path style=" stroke:none;fill-rule:nonzero;fill:rgb(100%,100%,100%);fill-opacity:1;" d="M 250.441406 198.546875 C 250.441406 197.671875 249.730469 196.960938 248.855469 196.960938 C 247.980469 196.960938 247.273438 197.671875 247.273438 198.546875 C 247.273438 199.421875 247.980469 200.128906 248.855469 200.128906 C 249.730469 200.128906 250.441406 199.421875 250.441406 198.546875 Z M 250.441406 198.546875 "/>
</g>
<g clip-path="url(#clip4)" clip-rule="nonzero">
<path style="fill:none;stroke-width:0.3985;stroke-linecap:butt;stroke-linejoin:miter;stroke:rgb(0%,0%,0%);stroke-opacity:1;stroke-miterlimit:10;" d="M 248.915699 -0.00133 C 248.915699 0.875135 248.203571 1.587263 247.327106 1.587263 C 246.45064 1.587263 245.742425 0.875135 245.742425 -0.00133 C 245.742425 -0.877795 246.45064 -1.58601 247.327106 -1.58601 C 248.203571 -1.58601 248.915699 -0.877795 248.915699 -0.00133 Z M 248.915699 -0.00133 " transform="matrix(0.998328,0,0,-0.998328,1.941805,198.545547)"/>
</g>
<path style="fill:none;stroke-width:0.3985;stroke-linecap:butt;stroke-linejoin:miter;stroke:rgb(0%,0%,0%);stroke-opacity:1;stroke-miterlimit:10;" d="M -0.000399911 185.496256 L 27.205234 185.496256 M 96.457719 185.496256 L 150.868987 185.496256 M 220.121471 185.496256 L 247.327106 185.496256 " transform="matrix(0.998328,0,0,-0.998328,1.941805,198.545547)"/>
<path style="fill:none;stroke-width:0.797;stroke-linecap:butt;stroke-linejoin:miter;stroke:rgb(0%,0%,0%);stroke-opacity:1;stroke-miterlimit:10;" d="M 27.205234 198.482808 L 96.457719 198.482808 L 96.457719 172.513616 L 27.205234 172.513616 Z M 27.205234 198.482808 " transform="matrix(0.998328,0,0,-0.998328,1.941805,198.545547)"/>
<g clip-path="url(#clip5)" clip-rule="nonzero">
<path style=" stroke:none;fill-rule:nonzero;fill:rgb(100%,100%,100%);fill-opacity:1;" d="M 3.527344 13.359375 C 3.527344 12.484375 2.816406 11.773438 1.941406 11.773438 C 1.066406 11.773438 0.355469 12.484375 0.355469 13.359375 C 0.355469 14.234375 1.066406 14.945312 1.941406 14.945312 C 2.816406 14.945312 3.527344 14.234375 3.527344 13.359375 Z M 3.527344 13.359375 "/>
</g>
<g clip-path="url(#clip6)" clip-rule="nonzero">
<path style="fill:none;stroke-width:0.3985;stroke-linecap:butt;stroke-linejoin:miter;stroke:rgb(0%,0%,0%);stroke-opacity:1;stroke-miterlimit:10;" d="M 1.588193 185.496256 C 1.588193 186.372721 0.876065 187.084849 -0.000399911 187.084849 C -0.876865 187.084849 -1.588993 186.372721 -1.588993 185.496256 C -1.588993 184.61979 -0.876865 183.907662 -0.000399911 183.907662 C 0.876065 183.907662 1.588193 184.61979 1.588193 185.496256 Z M 1.588193 185.496256 " transform="matrix(0.998328,0,0,-0.998328,1.941805,198.545547)"/>
</g>
<path style="fill-rule:nonzero;fill:rgb(0%,0%,0%);fill-opacity:1;stroke-width:0.3985;stroke-linecap:butt;stroke-linejoin:miter;stroke:rgb(0%,0%,0%);stroke-opacity:1;stroke-miterlimit:10;" d="M 125.251946 185.496256 C 125.251946 186.372721 124.539818 187.084849 123.663353 187.084849 C 122.786888 187.084849 122.078673 186.372721 122.078673 185.496256 C 122.078673 184.61979 122.786888 183.907662 123.663353 183.907662 C 124.539818 183.907662 125.251946 184.61979 125.251946 185.496256 Z M 125.251946 185.496256 " transform="matrix(0.998328,0,0,-0.998328,1.941805,198.545547)"/>
<path style="fill:none;stroke-width:0.797;stroke-linecap:butt;stroke-linejoin:miter;stroke:rgb(0%,0%,0%);stroke-opacity:1;stroke-miterlimit:10;" d="M 150.868987 198.482808 L 220.121471 198.482808 L 220.121471 172.513616 L 150.868987 172.513616 Z M 150.868987 198.482808 " transform="matrix(0.998328,0,0,-0.998328,1.941805,198.545547)"/>
<g clip-path="url(#clip7)" clip-rule="nonzero">
<path style=" stroke:none;fill-rule:nonzero;fill:rgb(100%,100%,100%);fill-opacity:1;" d="M 250.441406 13.359375 C 250.441406 12.484375 249.730469 11.773438 248.855469 11.773438 C 247.980469 11.773438 247.273438 12.484375 247.273438 13.359375 C 247.273438 14.234375 247.980469 14.945312 248.855469 14.945312 C 249.730469 14.945312 250.441406 14.234375 250.441406 13.359375 Z M 250.441406 13.359375 "/>
</g>
<g clip-path="url(#clip8)" clip-rule="nonzero">
<path style="fill:none;stroke-width:0.3985;stroke-linecap:butt;stroke-linejoin:miter;stroke:rgb(0%,0%,0%);stroke-opacity:1;stroke-miterlimit:10;" d="M 248.915699 185.496256 C 248.915699 186.372721 248.203571 187.084849 247.327106 187.084849 C 246.45064 187.084849 245.742425 186.372721 245.742425 185.496256 C 245.742425 184.61979 246.45064 183.907662 247.327106 183.907662 C 248.203571 183.907662 248.915699 184.61979 248.915699 185.496256 Z M 248.915699 185.496256 " transform="matrix(0.998328,0,0,-0.998328,1.941805,198.545547)"/>
</g>
<path style="fill:none;stroke-width:0.3985;stroke-linecap:butt;stroke-linejoin:miter;stroke:rgb(0%,0%,0%);stroke-opacity:1;stroke-miterlimit:10;" d="M 123.663353 -0.00133 L 123.663353 84.09237 M 123.663353 101.406469 L 123.663353 185.496256 " transform="matrix(0.998328,0,0,-0.998328,1.941805,198.545547)"/>
<path style="fill:none;stroke-width:0.797;stroke-linecap:butt;stroke-linejoin:miter;stroke:rgb(0%,0%,0%);stroke-opacity:1;stroke-miterlimit:10;" d="M 97.69416 84.09237 L 149.632545 84.09237 M 97.69416 101.406469 L 149.632545 101.406469 " transform="matrix(0.998328,0,0,-0.998328,1.941805,198.545547)"/>
</g>
</svg>
