<?xml version="1.0" encoding="UTF-8"?>
<svg xmlns="http://www.w3.org/2000/svg" xmlns:xlink="http://www.w3.org/1999/xlink" width="254.679pt" height="81.135pt" viewBox="0 0 254.679 81.135" version="1.2">
<defs>
<clipPath id="clip1">
  <path d="M 1.183594 0 L 253.175781 0 L 253.175781 80.277344 L 1.183594 80.277344 Z M 1.183594 0 "/>
</clipPath>
</defs>
<g id="surface1">
<path style=" stroke:none;fill-rule:nonzero;fill:rgb(75%,75%,75%);fill-opacity:1;" d="M 16.28125 40.140625 L 41.324219 40.140625 C 49.226562 40.140625 59.402344 34.957031 64.050781 28.566406 L 75.835938 12.359375 C 80.484375 5.96875 90.660156 0.789062 98.5625 0.789062 L 155.800781 0.789062 C 163.703125 0.789062 173.878906 5.96875 178.527344 12.359375 L 190.3125 28.566406 C 194.960938 34.957031 205.136719 40.140625 213.039062 40.140625 L 238.082031 40.140625 C 245.984375 40.140625 245.984375 40.140625 238.082031 40.140625 L 213.039062 40.140625 C 205.136719 40.140625 194.960938 45.320312 190.3125 51.710938 L 178.527344 67.917969 C 173.878906 74.308594 163.703125 79.492188 155.800781 79.492188 L 98.5625 79.492188 C 90.660156 79.492188 80.484375 74.308594 75.835938 67.917969 L 64.050781 51.710938 C 59.402344 45.320312 49.226562 40.140625 41.324219 40.140625 L 16.28125 40.140625 C 8.378906 40.140625 8.378906 40.140625 16.28125 40.140625 Z M 16.28125 40.140625 "/>
<g clip-path="url(#clip1)" clip-rule="nonzero">
<path style="fill:none;stroke-width:1.59404;stroke-linecap:butt;stroke-linejoin:miter;stroke:rgb(0%,0%,0%);stroke-opacity:1;stroke-miterlimit:10;" d="M 14.460731 -0.00157398 L 39.770689 -0.00157398 C 47.757281 -0.00157398 58.041549 5.237283 62.739545 11.69604 L 74.650345 28.075859 C 79.348341 34.534616 89.632609 39.769525 97.619201 39.769525 L 155.467714 39.769525 C 163.454306 39.769525 173.738574 34.534616 178.43657 28.075859 L 190.34737 11.69604 C 195.045366 5.237283 205.329634 -0.00157398 213.316226 -0.00157398 L 238.626184 -0.00157398 C 246.612777 -0.00157398 246.612777 -0.00157398 238.626184 -0.00157398 L 213.316226 -0.00157398 C 205.329634 -0.00157398 195.045366 -5.236483 190.34737 -11.69524 L 178.43657 -28.075059 C 173.738574 -34.533816 163.454306 -39.772673 155.467714 -39.772673 L 97.619201 -39.772673 C 89.632609 -39.772673 79.348341 -34.533816 74.650345 -28.075059 L 62.739545 -11.69524 C 58.041549 -5.236483 47.757281 -0.00157398 39.770689 -0.00157398 L 14.460731 -0.00157398 C 6.474138 -0.00157398 6.474138 -0.00157398 14.460731 -0.00157398 Z M 14.460731 -0.00157398 " transform="matrix(0.989451,0,0,-0.989451,1.973062,40.139068)"/>
</g>
</g>
</svg>
