<?xml version="1.0" encoding="UTF-8"?>
<svg xmlns="http://www.w3.org/2000/svg" xmlns:xlink="http://www.w3.org/1999/xlink" width="255.262pt" height="101.057pt" viewBox="0 0 255.262 101.057" version="1.2">
<defs>
<clipPath id="clip1">
  <path d="M 158 90 L 174 90 L 174 100.121094 L 158 100.121094 Z M 158 90 "/>
</clipPath>
<clipPath id="clip2">
  <path d="M 81 0 L 87 0 L 87 100.121094 L 81 100.121094 Z M 81 0 "/>
</clipPath>
<clipPath id="clip3">
  <path d="M 167 0 L 174 0 L 174 100.121094 L 167 100.121094 Z M 167 0 "/>
</clipPath>
<clipPath id="clip4">
  <path d="M 0.8125 48 L 86 48 L 86 53 L 0.8125 53 Z M 0.8125 48 "/>
</clipPath>
<clipPath id="clip5">
  <path d="M 168 48 L 253.714844 48 L 253.714844 53 L 168 53 Z M 168 48 "/>
</clipPath>
</defs>
<g id="surface1">
<path style="fill:none;stroke-width:0.3985;stroke-linecap:butt;stroke-linejoin:miter;stroke:rgb(50%,50%,50%);stroke-opacity:1;stroke-miterlimit:10;" d="M 0.000613055 -0.00129155 L 78.468241 -0.00129155 " transform="matrix(0.990755,0,0,-0.990755,86.675174,2.705752)"/>
<path style="fill-rule:nonzero;fill:rgb(50%,50%,50%);fill-opacity:1;stroke-width:0.3985;stroke-linecap:butt;stroke-linejoin:miter;stroke:rgb(50%,50%,50%);stroke-opacity:1;stroke-miterlimit:10;" d="M 3.172465 -0.00129155 L 0.199669 1.765038 L 0.199669 -1.763679 Z M 3.172465 -0.00129155 " transform="matrix(0.990755,0,0,-0.990755,164.317802,2.705752)"/>
<path style="fill:none;stroke-width:0.3985;stroke-linecap:butt;stroke-linejoin:miter;stroke:rgb(50%,50%,50%);stroke-opacity:1;stroke-miterlimit:10;" d="M 0.000613055 -6.830049 L 78.468241 -6.830049 " transform="matrix(0.990755,0,0,-0.990755,86.675174,2.705752)"/>
<path style="fill-rule:nonzero;fill:rgb(50%,50%,50%);fill-opacity:1;stroke-width:0.3985;stroke-linecap:butt;stroke-linejoin:miter;stroke:rgb(50%,50%,50%);stroke-opacity:1;stroke-miterlimit:10;" d="M 3.172465 -0.00179909 L 0.199669 1.764531 L 0.199669 -1.764186 Z M 3.172465 -0.00179909 " transform="matrix(0.990755,0,0,-0.990755,164.317802,9.470874)"/>
<path style="fill:none;stroke-width:0.3985;stroke-linecap:butt;stroke-linejoin:miter;stroke:rgb(50%,50%,50%);stroke-opacity:1;stroke-miterlimit:10;" d="M 0.000613055 -13.654864 L 78.468241 -13.654864 " transform="matrix(0.990755,0,0,-0.990755,86.675174,2.705752)"/>
<path style="fill-rule:nonzero;fill:rgb(50%,50%,50%);fill-opacity:1;stroke-width:0.3985;stroke-linecap:butt;stroke-linejoin:miter;stroke:rgb(50%,50%,50%);stroke-opacity:1;stroke-miterlimit:10;" d="M 3.172465 0.00164608 L 0.199669 1.764033 L 0.199669 -1.764684 Z M 3.172465 0.00164608 " transform="matrix(0.990755,0,0,-0.990755,164.317802,16.236006)"/>
<path style="fill:none;stroke-width:0.3985;stroke-linecap:butt;stroke-linejoin:miter;stroke:rgb(50%,50%,50%);stroke-opacity:1;stroke-miterlimit:10;" d="M 0.000613055 -20.483621 L 78.468241 -20.483621 " transform="matrix(0.990755,0,0,-0.990755,86.675174,2.705752)"/>
<path style="fill-rule:nonzero;fill:rgb(50%,50%,50%);fill-opacity:1;stroke-width:0.3985;stroke-linecap:butt;stroke-linejoin:miter;stroke:rgb(50%,50%,50%);stroke-opacity:1;stroke-miterlimit:10;" d="M 3.172465 0.00114855 L 0.199669 1.763536 L 0.199669 -1.765181 Z M 3.172465 0.00114855 " transform="matrix(0.990755,0,0,-0.990755,164.317802,23.001138)"/>
<path style="fill:none;stroke-width:0.3985;stroke-linecap:butt;stroke-linejoin:miter;stroke:rgb(50%,50%,50%);stroke-opacity:1;stroke-miterlimit:10;" d="M 0.000613055 -27.312379 L 78.468241 -27.312379 " transform="matrix(0.990755,0,0,-0.990755,86.675174,2.705752)"/>
<path style="fill-rule:nonzero;fill:rgb(50%,50%,50%);fill-opacity:1;stroke-width:0.3985;stroke-linecap:butt;stroke-linejoin:miter;stroke:rgb(50%,50%,50%);stroke-opacity:1;stroke-miterlimit:10;" d="M 3.172465 0.000641016 L 0.199669 1.763028 L 0.199669 -1.761746 Z M 3.172465 0.000641016 " transform="matrix(0.990755,0,0,-0.990755,164.317802,29.76626)"/>
<path style="fill:none;stroke-width:0.3985;stroke-linecap:butt;stroke-linejoin:miter;stroke:rgb(50%,50%,50%);stroke-opacity:1;stroke-miterlimit:10;" d="M 0.000613055 -34.141137 L 78.468241 -34.141137 " transform="matrix(0.990755,0,0,-0.990755,86.675174,2.705752)"/>
<path style="fill-rule:nonzero;fill:rgb(50%,50%,50%);fill-opacity:1;stroke-width:0.3985;stroke-linecap:butt;stroke-linejoin:miter;stroke:rgb(50%,50%,50%);stroke-opacity:1;stroke-miterlimit:10;" d="M 3.172465 0.000143483 L 0.199669 1.762531 L 0.199669 -1.762244 Z M 3.172465 0.000143483 " transform="matrix(0.990755,0,0,-0.990755,164.317802,36.531392)"/>
<path style="fill:none;stroke-width:0.3985;stroke-linecap:butt;stroke-linejoin:miter;stroke:rgb(50%,50%,50%);stroke-opacity:1;stroke-miterlimit:10;" d="M 0.000613055 -40.969894 L 78.468241 -40.969894 " transform="matrix(0.990755,0,0,-0.990755,86.675174,2.705752)"/>
<path style="fill-rule:nonzero;fill:rgb(50%,50%,50%);fill-opacity:1;stroke-width:0.3985;stroke-linecap:butt;stroke-linejoin:miter;stroke:rgb(50%,50%,50%);stroke-opacity:1;stroke-miterlimit:10;" d="M 3.172465 -0.00035405 L 0.199669 1.762033 L 0.199669 -1.762741 Z M 3.172465 -0.00035405 " transform="matrix(0.990755,0,0,-0.990755,164.317802,43.296524)"/>
<path style="fill:none;stroke-width:0.3985;stroke-linecap:butt;stroke-linejoin:miter;stroke:rgb(50%,50%,50%);stroke-opacity:1;stroke-miterlimit:10;" d="M 0.000613055 -47.798652 L 78.468241 -47.798652 " transform="matrix(0.990755,0,0,-0.990755,86.675174,2.705752)"/>
<path style="fill-rule:nonzero;fill:rgb(50%,50%,50%);fill-opacity:1;stroke-width:0.3985;stroke-linecap:butt;stroke-linejoin:miter;stroke:rgb(50%,50%,50%);stroke-opacity:1;stroke-miterlimit:10;" d="M 3.172465 -0.000861583 L 0.199669 1.761526 L 0.199669 -1.763249 Z M 3.172465 -0.000861583 " transform="matrix(0.990755,0,0,-0.990755,164.317802,50.061646)"/>
<path style="fill:none;stroke-width:0.3985;stroke-linecap:butt;stroke-linejoin:miter;stroke:rgb(50%,50%,50%);stroke-opacity:1;stroke-miterlimit:10;" d="M 0.000613055 -54.627409 L 78.468241 -54.627409 " transform="matrix(0.990755,0,0,-0.990755,86.675174,2.705752)"/>
<path style="fill-rule:nonzero;fill:rgb(50%,50%,50%);fill-opacity:1;stroke-width:0.3985;stroke-linecap:butt;stroke-linejoin:miter;stroke:rgb(50%,50%,50%);stroke-opacity:1;stroke-miterlimit:10;" d="M 3.172465 -0.00135912 L 0.199669 1.764971 L 0.199669 -1.763746 Z M 3.172465 -0.00135912 " transform="matrix(0.990755,0,0,-0.990755,164.317802,56.826778)"/>
<path style="fill:none;stroke-width:0.3985;stroke-linecap:butt;stroke-linejoin:miter;stroke:rgb(50%,50%,50%);stroke-opacity:1;stroke-miterlimit:10;" d="M 0.000613055 -61.456167 L 78.468241 -61.456167 " transform="matrix(0.990755,0,0,-0.990755,86.675174,2.705752)"/>
<path style="fill-rule:nonzero;fill:rgb(50%,50%,50%);fill-opacity:1;stroke-width:0.3985;stroke-linecap:butt;stroke-linejoin:miter;stroke:rgb(50%,50%,50%);stroke-opacity:1;stroke-miterlimit:10;" d="M 3.172465 -0.00184665 L 0.199669 1.764483 L 0.199669 -1.764234 Z M 3.172465 -0.00184665 " transform="matrix(0.990755,0,0,-0.990755,164.317802,63.59192)"/>
<path style="fill:none;stroke-width:0.3985;stroke-linecap:butt;stroke-linejoin:miter;stroke:rgb(50%,50%,50%);stroke-opacity:1;stroke-miterlimit:10;" d="M 0.000613055 -68.280981 L 78.468241 -68.280981 " transform="matrix(0.990755,0,0,-0.990755,86.675174,2.705752)"/>
<path style="fill-rule:nonzero;fill:rgb(50%,50%,50%);fill-opacity:1;stroke-width:0.3985;stroke-linecap:butt;stroke-linejoin:miter;stroke:rgb(50%,50%,50%);stroke-opacity:1;stroke-miterlimit:10;" d="M 3.172465 0.00157852 L 0.199669 1.763966 L 0.199669 -1.764751 Z M 3.172465 0.00157852 " transform="matrix(0.990755,0,0,-0.990755,164.317802,70.357033)"/>
<path style="fill:none;stroke-width:0.3985;stroke-linecap:butt;stroke-linejoin:miter;stroke:rgb(50%,50%,50%);stroke-opacity:1;stroke-miterlimit:10;" d="M 0.000613055 -75.109739 L 78.468241 -75.109739 " transform="matrix(0.990755,0,0,-0.990755,86.675174,2.705752)"/>
<path style="fill-rule:nonzero;fill:rgb(50%,50%,50%);fill-opacity:1;stroke-width:0.3985;stroke-linecap:butt;stroke-linejoin:miter;stroke:rgb(50%,50%,50%);stroke-opacity:1;stroke-miterlimit:10;" d="M 3.172465 0.00108099 L 0.199669 1.763468 L 0.199669 -1.765249 Z M 3.172465 0.00108099 " transform="matrix(0.990755,0,0,-0.990755,164.317802,77.122165)"/>
<path style="fill:none;stroke-width:0.3985;stroke-linecap:butt;stroke-linejoin:miter;stroke:rgb(50%,50%,50%);stroke-opacity:1;stroke-miterlimit:10;" d="M 0.000613055 -81.938497 L 78.468241 -81.938497 " transform="matrix(0.990755,0,0,-0.990755,86.675174,2.705752)"/>
<path style="fill-rule:nonzero;fill:rgb(50%,50%,50%);fill-opacity:1;stroke-width:0.3985;stroke-linecap:butt;stroke-linejoin:miter;stroke:rgb(50%,50%,50%);stroke-opacity:1;stroke-miterlimit:10;" d="M 3.172465 0.000593453 L 0.199669 1.762981 L 0.199669 -1.761794 Z M 3.172465 0.000593453 " transform="matrix(0.990755,0,0,-0.990755,164.317802,83.887307)"/>
<path style="fill:none;stroke-width:0.3985;stroke-linecap:butt;stroke-linejoin:miter;stroke:rgb(50%,50%,50%);stroke-opacity:1;stroke-miterlimit:10;" d="M 0.000613055 -88.767254 L 78.468241 -88.767254 " transform="matrix(0.990755,0,0,-0.990755,86.675174,2.705752)"/>
<path style="fill-rule:nonzero;fill:rgb(50%,50%,50%);fill-opacity:1;stroke-width:0.3985;stroke-linecap:butt;stroke-linejoin:miter;stroke:rgb(50%,50%,50%);stroke-opacity:1;stroke-miterlimit:10;" d="M 3.172465 0.0000759206 L 0.199669 1.762463 L 0.199669 -1.762311 Z M 3.172465 0.0000759206 " transform="matrix(0.990755,0,0,-0.990755,164.317802,90.652419)"/>
<path style="fill:none;stroke-width:0.3985;stroke-linecap:butt;stroke-linejoin:miter;stroke:rgb(50%,50%,50%);stroke-opacity:1;stroke-miterlimit:10;" d="M 0.000613055 -95.596012 L 78.468241 -95.596012 " transform="matrix(0.990755,0,0,-0.990755,86.675174,2.705752)"/>
<path style=" stroke:none;fill-rule:nonzero;fill:rgb(50%,50%,50%);fill-opacity:1;" d="M 167.460938 97.417969 L 164.515625 95.671875 L 164.515625 99.164062 Z M 167.460938 97.417969 "/>
<g clip-path="url(#clip1)" clip-rule="nonzero">
<path style="fill:none;stroke-width:0.3985;stroke-linecap:butt;stroke-linejoin:miter;stroke:rgb(50%,50%,50%);stroke-opacity:1;stroke-miterlimit:10;" d="M 3.172465 -0.000411612 L 0.199669 1.761976 L 0.199669 -1.762799 Z M 3.172465 -0.000411612 " transform="matrix(0.990755,0,0,-0.990755,164.317802,97.417561)"/>
</g>
<g clip-path="url(#clip2)" clip-rule="nonzero">
<path style=" stroke:none;fill-rule:nonzero;fill:rgb(0%,0%,0%);fill-opacity:1;" d="M 86.675781 0 L 86.675781 100.125 L 81.261719 100.125 L 81.261719 0 Z M 86.675781 0 "/>
</g>
<g clip-path="url(#clip3)" clip-rule="nonzero">
<path style=" stroke:none;fill-rule:nonzero;fill:rgb(0%,0%,0%);fill-opacity:1;" d="M 167.855469 0 L 167.855469 100.125 L 173.269531 100.125 L 173.269531 0 Z M 167.855469 0 "/>
</g>
<g clip-path="url(#clip4)" clip-rule="nonzero">
<path style="fill:none;stroke-width:3.9851;stroke-linecap:butt;stroke-linejoin:miter;stroke:rgb(0%,0%,0%);stroke-opacity:1;stroke-miterlimit:10;" d="M -2.731678 -47.798652 L -84.668883 -47.798652 " transform="matrix(0.990755,0,0,-0.990755,86.675174,2.705752)"/>
</g>
<g clip-path="url(#clip5)" clip-rule="nonzero">
<path style="fill:none;stroke-width:3.9851;stroke-linecap:butt;stroke-linejoin:miter;stroke:rgb(0%,0%,0%);stroke-opacity:1;stroke-miterlimit:10;" d="M 84.67011 -47.798652 L 166.611257 -47.798652 " transform="matrix(0.990755,0,0,-0.990755,86.675174,2.705752)"/>
</g>
</g>
</svg>
