<?xml version="1.0" encoding="UTF-8"?>
<svg xmlns="http://www.w3.org/2000/svg" xmlns:xlink="http://www.w3.org/1999/xlink" width="254.679pt" height="81.135pt" viewBox="0 0 254.679 81.135" version="1.2">
<defs>
<clipPath id="clip1">
  <path d="M 1.183594 0 L 245 0 L 245 80 L 1.183594 80 Z M 1.183594 0 "/>
</clipPath>
<clipPath id="clip2">
  <path d="M 1.183594 0 L 253.175781 0 L 253.175781 80.277344 L 1.183594 80.277344 Z M 1.183594 0 "/>
</clipPath>
</defs>
<g id="surface1">
<g clip-path="url(#clip1)" clip-rule="nonzero">
<path style=" stroke:none;fill-rule:nonzero;fill:rgb(75%,75%,75%);fill-opacity:1;" d="M 1.972656 40.140625 L 66.367188 40.140625 L 66.367188 0.789062 L 155.800781 0.789062 C 163.703125 0.789062 173.878906 5.96875 178.527344 12.359375 L 190.3125 28.566406 C 194.960938 34.957031 205.136719 40.140625 213.039062 40.140625 L 238.082031 40.140625 C 245.984375 40.140625 245.984375 40.140625 238.082031 40.140625 L 213.039062 40.140625 C 205.136719 40.140625 194.960938 45.320312 190.3125 51.710938 L 178.527344 67.917969 C 173.878906 74.308594 163.703125 79.492188 155.800781 79.492188 L 66.367188 79.492188 L 66.367188 40.140625 Z M 1.972656 40.140625 "/>
</g>
<g clip-path="url(#clip2)" clip-rule="nonzero">
<path style="fill:none;stroke-width:1.59404;stroke-linecap:butt;stroke-linejoin:miter;stroke:rgb(0%,0%,0%);stroke-opacity:1;stroke-miterlimit:10;" d="M -0.000410211 -0.00157398 L 65.080647 -0.00157398 L 65.080647 39.769525 L 155.467714 39.769525 C 163.454306 39.769525 173.738574 34.534616 178.43657 28.075859 L 190.34737 11.69604 C 195.045366 5.237283 205.329634 -0.00157398 213.316226 -0.00157398 L 238.626184 -0.00157398 C 246.612777 -0.00157398 246.612777 -0.00157398 238.626184 -0.00157398 L 213.316226 -0.00157398 C 205.329634 -0.00157398 195.045366 -5.236483 190.34737 -11.69524 L 178.43657 -28.075059 C 173.738574 -34.533816 163.454306 -39.772673 155.467714 -39.772673 L 65.080647 -39.772673 L 65.080647 -0.00157398 Z M -0.000410211 -0.00157398 " transform="matrix(0.989451,0,0,-0.989451,1.973062,40.139068)"/>
</g>
</g>
</svg>
