<?xml version="1.0" encoding="UTF-8"?>
<svg xmlns="http://www.w3.org/2000/svg" xmlns:xlink="http://www.w3.org/1999/xlink" width="254.679pt" height="81.135pt" viewBox="0 0 254.679 81.135" version="1.2">
<defs>
<clipPath id="clip1">
  <path d="M 1.183594 0 L 253.175781 0 L 253.175781 80.277344 L 1.183594 80.277344 Z M 1.183594 0 "/>
</clipPath>
</defs>
<g id="surface1">
<path style=" stroke:none;fill-rule:nonzero;fill:rgb(75%,75%,75%);fill-opacity:1;" d="M 16.28125 40.140625 L 41.324219 40.140625 C 49.226562 40.140625 59.402344 34.957031 64.050781 28.566406 L 75.835938 12.359375 C 80.484375 5.96875 90.660156 0.789062 98.5625 0.789062 L 187.996094 0.789062 L 187.996094 40.140625 L 252.390625 40.140625 L 187.996094 40.140625 L 187.996094 79.492188 L 98.5625 79.492188 C 90.660156 79.492188 80.484375 74.308594 75.835938 67.917969 L 64.050781 51.710938 C 59.402344 45.320312 49.226562 40.140625 41.324219 40.140625 L 16.28125 40.140625 C 8.378906 40.140625 8.378906 40.140625 16.28125 40.140625 Z M 16.28125 40.140625 "/>
<g clip-path="url(#clip1)" clip-rule="nonzero">
<path style="fill:none;stroke-width:1.59404;stroke-linecap:butt;stroke-linejoin:miter;stroke:rgb(0%,0%,0%);stroke-opacity:1;stroke-miterlimit:10;" d="M 14.460731 -0.00157398 L 39.770689 -0.00157398 C 47.757281 -0.00157398 58.041549 5.237283 62.739545 11.69604 L 74.650345 28.075859 C 79.348341 34.534616 89.632609 39.769525 97.619201 39.769525 L 188.006268 39.769525 L 188.006268 -0.00157398 L 253.087326 -0.00157398 L 188.006268 -0.00157398 L 188.006268 -39.772673 L 97.619201 -39.772673 C 89.632609 -39.772673 79.348341 -34.533816 74.650345 -28.075059 L 62.739545 -11.69524 C 58.041549 -5.236483 47.757281 -0.00157398 39.770689 -0.00157398 L 14.460731 -0.00157398 C 6.474138 -0.00157398 6.474138 -0.00157398 14.460731 -0.00157398 Z M 14.460731 -0.00157398 " transform="matrix(0.989451,0,0,-0.989451,1.973062,40.139068)"/>
</g>
</g>
</svg>
