<?xml version="1.0" encoding="UTF-8"?>
<svg xmlns="http://www.w3.org/2000/svg" xmlns:xlink="http://www.w3.org/1999/xlink" width="255.295pt" height="85.437pt" viewBox="0 0 255.295 85.437" version="1.2">
<defs>
<clipPath id="clip1">
  <path d="M 244 35 L 254.109375 35 L 254.109375 50 L 244 50 Z M 244 35 "/>
</clipPath>
<clipPath id="clip2">
  <path d="M 8 3 L 9 3 L 9 84.878906 L 8 84.878906 Z M 8 3 "/>
</clipPath>
<clipPath id="clip3">
  <path d="M 8.734375 0.195312 L 243 0.195312 L 243 54 L 8.734375 54 Z M 8.734375 0.195312 "/>
</clipPath>
</defs>
<g id="surface1">
<path style="fill:none;stroke-width:0.3985;stroke-linecap:butt;stroke-linejoin:miter;stroke:rgb(0%,0%,0%);stroke-opacity:1;stroke-miterlimit:10;" d="M 0.00127902 42.520852 L 243.324667 42.520852 " transform="matrix(0.993453,0,0,-0.993453,8.733104,84.679988)"/>
<path style=" stroke:none;fill-rule:nonzero;fill:rgb(0%,0%,0%);fill-opacity:1;" d="M 253.519531 42.4375 L 250.5625 40.6875 L 250.5625 44.191406 Z M 253.519531 42.4375 "/>
<g clip-path="url(#clip1)" clip-rule="nonzero">
<path style="fill:none;stroke-width:0.3985;stroke-linecap:butt;stroke-linejoin:miter;stroke:rgb(0%,0%,0%);stroke-opacity:1;stroke-miterlimit:10;" d="M 3.174984 0.000921692 L 0.198467 1.762454 L 0.198467 -1.764542 Z M 3.174984 0.000921692 " transform="matrix(0.993453,0,0,-0.993453,250.365332,42.438416)"/>
</g>
<g clip-path="url(#clip2)" clip-rule="nonzero">
<path style="fill:none;stroke-width:0.3985;stroke-linecap:butt;stroke-linejoin:miter;stroke:rgb(0%,0%,0%);stroke-opacity:1;stroke-miterlimit:10;" d="M 0.00127902 0.000302925 L 0.00127902 81.569453 " transform="matrix(0.993453,0,0,-0.993453,8.733104,84.679988)"/>
</g>
<path style="fill-rule:nonzero;fill:rgb(0%,0%,0%);fill-opacity:1;stroke-width:0.3985;stroke-linecap:butt;stroke-linejoin:miter;stroke:rgb(0%,0%,0%);stroke-opacity:1;stroke-miterlimit:10;" d="M 3.172457 -0.00127902 L 0.199872 1.764185 L 0.199872 -1.762811 Z M 3.172457 -0.00127902 " transform="matrix(0,-0.993453,-0.993453,0,8.733104,3.745439)"/>
<g clip-path="url(#clip3)" clip-rule="nonzero">
<path style="fill:none;stroke-width:0.79701;stroke-linecap:butt;stroke-linejoin:miter;stroke:rgb(0%,0%,0%);stroke-opacity:1;stroke-miterlimit:10;" d="M 0.00127902 42.520852 C 0.00127902 42.520852 0.323702 42.984827 0.449526 43.161766 C 0.57535 43.338706 0.775881 43.625741 0.897773 43.802681 C 1.023597 43.983552 1.224128 44.266656 1.349952 44.447527 C 1.471844 44.624467 1.672375 44.90757 1.798199 45.088442 C 1.924023 45.265381 2.124554 45.548485 2.246446 45.729356 C 2.372269 45.906296 2.572801 46.189399 2.698625 46.366339 C 2.820516 46.543278 3.021048 46.826382 3.146872 47.003321 C 3.272695 47.180261 3.473227 47.463364 3.595119 47.640304 C 3.720942 47.817243 3.921474 48.100347 4.047298 48.273354 C 4.173121 48.450294 4.369721 48.729465 4.495545 48.906405 C 4.621368 49.083344 4.8219 49.362516 4.947723 49.535523 C 5.069615 49.712463 5.270147 49.991634 5.39597 50.164642 C 5.521794 50.337649 5.718394 50.616821 5.844217 50.789828 C 5.970041 50.962836 6.170573 51.238075 6.296396 51.411083 C 6.418288 51.580159 6.61882 51.855398 6.744643 52.028406 C 6.870467 52.201413 7.070999 52.47272 7.19289 52.641796 C 7.318714 52.814804 7.519245 53.086111 7.645069 53.255187 C 7.766961 53.424262 7.967492 53.69557 8.093316 53.864645 C 8.21914 54.029789 8.419671 54.301096 8.541563 54.46624 C 8.667387 54.631383 8.867918 54.898759 8.993742 55.063902 C 9.115634 55.232978 9.316165 55.496421 9.441989 55.661565 C 9.567813 55.826709 9.768344 56.08622 9.890236 56.251364 C 10.01606 56.412575 10.216591 56.676019 10.342415 56.83723 C 10.464307 56.998442 10.664838 57.257953 10.790662 57.415233 C 10.916486 57.576445 11.117017 57.832024 11.238909 57.993236 C 11.364733 58.150515 11.565264 58.402163 11.691088 58.559442 C 11.812979 58.716722 12.013511 58.968369 12.139335 59.125649 C 12.265158 59.278997 12.46569 59.526712 12.587582 59.683992 C 12.713405 59.837339 12.913937 60.081123 13.039761 60.23447 C 13.165584 60.387818 13.362184 60.627669 13.488008 60.777085 C 13.613831 60.930433 13.814363 61.170284 13.936255 61.3197 C 14.062078 61.465183 14.26261 61.705035 14.388433 61.850519 C 14.514257 61.996002 14.710857 62.231922 14.83668 62.373473 C 14.962504 62.518957 15.163036 62.750944 15.288859 62.892496 C 15.410751 63.034048 15.611283 63.262103 15.737106 63.403655 C 15.86293 63.545207 16.063462 63.76933 16.185353 63.90695 C 16.311177 64.044569 16.511708 64.264761 16.637532 64.402381 C 16.759424 64.54 16.959955 64.75626 17.085779 64.889947 C 17.211603 65.023635 17.412134 65.239895 17.534026 65.36965 C 17.65985 65.503338 17.860381 65.711734 17.986205 65.841489 C 18.108097 65.971245 18.308628 66.17964 18.434452 66.305464 C 18.560276 66.43522 18.760807 66.635751 18.882699 66.761575 C 19.008523 66.887399 19.209054 67.083998 19.334878 67.20589 C 19.45677 67.331714 19.657301 67.524381 19.783125 67.646273 C 19.908949 67.764233 20.10948 67.9569 20.231372 68.07486 C 20.357196 68.19282 20.557727 68.377623 20.683551 68.491651 C 20.805442 68.609611 21.005974 68.790482 21.131798 68.90451 C 21.257621 69.014606 21.458153 69.195477 21.580045 69.305573 C 21.705868 69.415669 21.9064 69.588677 22.032224 69.69484 C 22.158047 69.801004 22.354647 69.974012 22.480471 70.076243 C 22.606294 70.182407 22.806826 70.347551 22.928718 70.449783 C 23.054541 70.552014 23.255073 70.713226 23.380896 70.811526 C 23.50672 70.909825 23.70332 71.067105 23.829143 71.161473 C 23.954967 71.259773 24.155499 71.409188 24.281322 71.503556 C 24.403214 71.597924 24.603746 71.743407 24.729569 71.833843 C 24.855393 71.924279 25.051993 72.069763 25.177816 72.156267 C 25.30364 72.24277 25.504172 72.38039 25.629995 72.466894 C 25.751887 72.549466 25.952418 72.683153 26.078242 72.765725 C 26.204066 72.848297 26.404597 72.974121 26.526489 73.05276 C 26.652313 73.1314 26.852844 73.257224 26.978668 73.331932 C 27.10056 73.40664 27.301091 73.524599 27.426915 73.599307 C 27.552739 73.670083 27.75327 73.784111 27.875162 73.854887 C 28.000986 73.92173 28.201517 74.031826 28.327341 74.09867 C 28.449233 74.165514 28.649764 74.267746 28.775588 74.330657 C 28.901412 74.393569 29.101943 74.491869 29.223835 74.554781 C 29.349659 74.613761 29.55019 74.708129 29.676014 74.763176 C 29.797905 74.818224 29.998437 74.90866 30.124261 74.963708 C 30.250084 75.014824 30.450616 75.097396 30.572508 75.148512 C 30.698331 75.199627 30.898863 75.278267 31.024687 75.325451 C 31.146578 75.372635 31.34711 75.447343 31.472934 75.490595 C 31.598757 75.533847 31.799289 75.60069 31.921181 75.64001 C 32.047004 75.683262 32.247536 75.746174 32.373359 75.781562 C 32.499183 75.820882 32.695783 75.87593 32.821606 75.911318 C 32.94743 75.942774 33.147962 75.997822 33.273785 76.025346 C 33.395677 76.056801 33.596209 76.103985 33.722032 76.131509 C 33.847856 76.159033 34.044456 76.202285 34.170279 76.225877 C 34.296103 76.249469 34.496635 76.284857 34.622458 76.304517 C 34.74435 76.324177 34.944881 76.355633 35.070705 76.375293 C 35.196529 76.391021 35.39706 76.414613 35.518952 76.430341 C 35.644776 76.446069 35.845307 76.465728 35.971131 76.473592 C 36.093023 76.485388 36.293554 76.501116 36.419378 76.50898 C 36.545202 76.512912 36.745733 76.524708 36.867625 76.52864 C 36.993449 76.532572 37.19398 76.536504 37.319804 76.536504 C 37.441696 76.536504 37.642227 76.532572 37.768051 76.532572 C 37.893875 76.52864 38.094406 76.520776 38.216298 76.516844 C 38.342122 76.50898 38.542653 76.497184 38.668477 76.485388 C 38.790368 76.477524 38.9909 76.457864 39.116724 76.446069 C 39.242547 76.434273 39.443079 76.410681 39.564971 76.394953 C 39.690794 76.379225 39.891326 76.347769 40.01715 76.328109 C 40.139041 76.308449 40.339573 76.276993 40.465397 76.253401 C 40.59122 76.229809 40.791752 76.190489 40.913644 76.162965 C 41.039467 76.139373 41.239999 76.092189 41.365822 76.064665 C 41.491646 76.033209 41.688246 75.982094 41.814069 75.950638 C 41.939893 75.919182 42.140425 75.864134 42.262316 75.824814 C 42.38814 75.789426 42.588672 75.730446 42.714495 75.691126 C 42.840319 75.651806 43.036919 75.584963 43.162742 75.541711 C 43.288566 75.498459 43.489098 75.427683 43.614921 75.380499 C 43.736813 75.333315 43.937344 75.258607 44.063168 75.211423 C 44.188992 75.160308 44.385591 75.077736 44.511415 75.02662 C 44.637239 74.971572 44.83777 74.885068 44.963594 74.83002 C 45.085486 74.774972 45.286017 74.684537 45.411841 74.625557 C 45.537665 74.566577 45.738196 74.468277 45.860088 74.405365 C 45.985912 74.342453 46.186443 74.240222 46.312267 74.17731 C 46.434159 74.110466 46.63469 74.004302 46.760514 73.937458 C 46.886338 73.866683 47.086869 73.756587 47.208761 73.685811 C 47.334585 73.611103 47.535116 73.497075 47.66094 73.422368 C 47.782832 73.34766 47.983363 73.225768 48.109187 73.147128 C 48.23501 73.068488 48.435542 72.942665 48.557434 72.864025 C 48.683257 72.781453 48.883789 72.651697 49.009613 72.565194 C 49.131504 72.482622 49.332036 72.345002 49.45786 72.258498 C 49.583683 72.171994 49.784215 72.030443 49.906107 71.943939 C 50.03193 71.853503 50.232462 71.70802 50.358286 71.613652 C 50.480177 71.523216 50.680709 71.3738 50.806532 71.275501 C 50.932356 71.181133 51.132888 71.027785 51.254779 70.929485 C 51.380603 70.831186 51.581135 70.669974 51.706958 70.571674 C 51.832782 70.469442 52.029382 70.304299 52.155205 70.202067 C 52.281029 70.099835 52.481561 69.93076 52.607384 69.824596 C 52.729276 69.718432 52.929808 69.545425 53.055631 69.435329 C 53.181455 69.325233 53.378054 69.148294 53.503878 69.038198 C 53.629702 68.928102 53.830233 68.743298 53.956057 68.629271 C 54.077949 68.515243 54.27848 68.330439 54.404304 68.216412 C 54.530128 68.098452 54.730659 67.909716 54.852551 67.787825 C 54.978375 67.669865 55.178906 67.477197 55.30473 67.355306 C 55.426622 67.233414 55.627153 67.036814 55.752977 66.910991 C 55.878801 66.785167 56.079332 66.584636 56.201224 66.458812 C 56.327048 66.332988 56.527579 66.128525 56.653403 65.998769 C 56.775295 65.869013 56.975826 65.660618 57.10165 65.530862 C 57.227473 65.397174 57.428005 65.184847 57.549897 65.051159 C 57.67572 64.917471 57.876252 64.701212 58.002076 64.567524 C 58.123967 64.429905 58.324499 64.209713 58.450323 64.072093 C 58.576146 63.934474 58.776678 63.714282 58.89857 63.572731 C 59.024393 63.431179 59.224925 63.207055 59.350749 63.065504 C 59.47264 62.923952 59.673172 62.691965 59.798995 62.550413 C 59.924819 62.404929 60.125351 62.172942 60.247242 62.027458 C 60.373066 61.878043 60.573598 61.642123 60.699421 61.496639 C 60.825245 61.347224 61.021845 61.107372 61.147668 60.957957 C 61.273492 60.808541 61.474024 60.56869 61.595915 60.415342 C 61.721739 60.265926 61.922271 60.018211 62.048094 59.864863 C 62.173918 59.711516 62.370517 59.467732 62.496341 59.310453 C 62.622165 59.157105 62.822696 58.905457 62.94852 58.748178 C 63.070412 58.590898 63.270943 58.339251 63.396767 58.181971 C 63.522591 58.024692 63.723122 57.769112 63.845014 57.6079 C 63.970838 57.450621 64.171369 57.191109 64.297193 57.029898 C 64.419085 56.868686 64.619616 56.609175 64.74544 56.447963 C 64.871264 56.28282 65.071795 56.023308 65.193687 55.858165 C 65.319511 55.693021 65.520042 55.429578 65.645866 55.264434 C 65.767758 55.09929 65.968289 54.831915 66.094113 54.666771 C 66.219936 54.501628 66.420468 54.23032 66.54236 54.065177 C 66.668183 53.896101 66.868715 53.628726 66.994539 53.45965 C 67.11643 53.290575 67.316962 53.019267 67.442786 52.84626 C 67.568609 52.677184 67.769141 52.405877 67.891033 52.232869 C 68.016856 52.063793 68.217388 51.788554 68.343212 51.615546 C 68.465103 51.446471 68.665635 51.1673 68.791458 50.994292 C 68.917282 50.821284 69.117814 50.546045 69.239705 50.373037 C 69.365529 50.20003 69.566061 49.920858 69.691884 49.743919 C 69.817708 49.570911 70.014308 49.29174 70.140131 49.1148 C 70.265955 48.941793 70.466487 48.662621 70.588378 48.485682 C 70.714202 48.308742 70.914734 48.029571 71.040557 47.852631 C 71.166381 47.675692 71.36298 47.392588 71.488804 47.215649 C 71.614628 47.038709 71.815159 46.755606 71.940983 46.578666 C 72.062875 46.401727 72.263406 46.118623 72.38923 45.941684 C 72.515054 45.764744 72.711653 45.477709 72.837477 45.300769 C 72.963301 45.12383 73.163832 44.836794 73.289656 44.659855 C 73.411548 44.482915 73.612079 44.19588 73.737903 44.01894 C 73.863727 43.842001 74.064258 43.554965 74.18615 43.378026 C 74.311974 43.197154 74.512505 42.851139 74.638329 42.733179 C 74.760221 42.615219 74.960752 42.548376 75.086576 42.520852 C 75.212399 42.489396 75.412931 42.520852 75.534823 42.520852 C 75.660646 42.520852 75.861178 42.520852 75.987002 42.520852 C 76.108893 42.520852 76.309425 42.520852 76.435249 42.520852 C 76.561072 42.520852 76.761604 42.520852 76.883496 42.520852 C 77.009319 42.520852 77.209851 42.520852 77.335675 42.520852 C 77.457566 42.520852 77.658098 42.520852 77.783921 42.520852 C 77.909745 42.520852 78.110277 42.520852 78.232168 42.520852 C 78.357992 42.520852 78.558524 42.520852 78.684347 42.520852 C 78.806239 42.520852 79.006771 42.520852 79.132594 42.520852 C 79.258418 42.520852 79.45895 42.520852 79.580841 42.520852 C 79.706665 42.520852 79.907197 42.520852 80.03302 42.520852 C 80.158844 42.520852 80.355443 42.520852 80.481267 42.520852 C 80.607091 42.520852 80.807622 42.520852 80.929514 42.520852 C 81.055338 42.520852 81.255869 42.520852 81.381693 42.520852 C 81.507517 42.520852 81.704116 42.520852 81.82994 42.520852 C 81.955764 42.520852 82.156295 42.520852 82.282119 42.520852 C 82.404011 42.520852 82.604542 42.520852 82.730366 42.520852 C 82.85619 42.520852 83.056721 42.520852 83.178613 42.520852 C 83.304437 42.520852 83.504968 42.520852 83.630792 42.520852 C 83.752684 42.520852 83.953215 42.520852 84.079039 42.520852 C 84.204863 42.520852 84.405394 42.520852 84.527286 42.520852 C 84.653109 42.520852 84.853641 42.520852 84.979465 42.520852 C 85.101356 42.520852 85.301888 42.520852 85.427712 42.520852 C 85.553535 42.520852 85.754067 42.520852 85.875959 42.520852 C 86.001782 42.520852 86.202314 42.520852 86.328138 42.520852 C 86.450029 42.520852 86.650561 42.520852 86.776385 42.520852 C 86.902208 42.520852 87.10274 42.520852 87.224631 42.520852 C 87.350455 42.520852 87.550987 42.520852 87.67681 42.520852 C 87.798702 42.520852 87.999234 42.520852 88.125057 42.520852 C 88.250881 42.520852 88.451413 42.520852 88.573304 42.520852 C 88.699128 42.520852 88.89966 42.520852 89.025483 42.520852 C 89.151307 42.520852 89.347907 42.520852 89.47373 42.520852 C 89.599554 42.520852 89.800085 42.520852 89.921977 42.520852 C 90.047801 42.520852 90.248332 42.520852 90.374156 42.520852 C 90.49998 42.520852 90.696579 42.520852 90.822403 42.520852 C 90.948227 42.520852 91.148758 42.520852 91.274582 42.520852 C 91.396474 42.520852 91.597005 42.520852 91.722829 42.520852 C 91.848653 42.520852 92.045252 42.520852 92.171076 42.520852 C 92.2969 42.520852 92.497431 42.520852 92.623255 42.520852 C 92.745147 42.520852 92.945678 42.520852 93.071502 42.520852 C 93.197326 42.520852 93.397857 42.520852 93.519749 42.520852 C 93.645572 42.520852 93.846104 42.520852 93.971928 42.520852 C 94.093819 42.520852 94.294351 42.520852 94.420175 42.520852 C 94.545998 42.520852 94.74653 42.520852 94.868422 42.520852 C 94.994245 42.520852 95.194777 42.520852 95.320601 42.520852 C 95.442492 42.520852 95.643024 42.520852 95.768848 42.520852 C 95.894671 42.520852 96.095203 42.520852 96.217094 42.520852 C 96.342918 42.520852 96.54345 42.520852 96.669273 42.520852 C 96.791165 42.520852 96.991697 42.520852 97.11752 42.520852 C 97.243344 42.520852 97.443876 42.520852 97.565767 42.520852 C 97.691591 42.520852 97.892123 42.520852 98.017946 42.520852 C 98.139838 42.520852 98.34037 42.520852 98.466193 42.520852 C 98.592017 42.520852 98.792548 42.520852 98.91444 42.520852 C 99.040264 42.520852 99.240795 42.520852 99.366619 42.520852 C 99.492443 42.520852 99.689042 42.520852 99.814866 42.520852 C 99.94069 42.520852 100.141221 42.520852 100.267045 42.520852 C 100.388937 42.520852 100.589468 42.520852 100.715292 42.520852 C 100.841116 42.520852 101.037715 42.520852 101.163539 42.520852 C 101.289363 42.520852 101.489894 42.520852 101.615718 42.520852 C 101.73761 42.520852 101.938141 42.520852 102.063965 42.520852 C 102.189789 42.520852 102.39032 42.520852 102.512212 42.520852 C 102.638035 42.520852 102.838567 42.520852 102.964391 42.520852 C 103.086282 42.520852 103.286814 42.520852 103.412638 42.520852 C 103.538461 42.520852 103.738993 42.520852 103.860885 42.520852 C 103.986708 42.520852 104.18724 42.520852 104.313064 42.520852 C 104.434955 42.520852 104.635487 42.520852 104.761311 42.520852 C 104.887134 42.520852 105.087666 42.520852 105.209557 42.520852 C 105.335381 42.520852 105.535913 42.520852 105.661736 42.520852 C 105.783628 42.520852 105.98416 42.520852 106.109983 42.520852 C 106.235807 42.520852 106.436339 42.520852 106.55823 42.520852 C 106.684054 42.520852 106.884586 42.520852 107.010409 42.520852 C 107.132301 42.520852 107.332833 42.520852 107.458656 42.520852 C 107.58448 42.520852 107.785011 42.520852 107.906903 42.520852 C 108.032727 42.520852 108.233258 42.520852 108.359082 42.520852 C 108.484906 42.520852 108.681505 42.520852 108.807329 42.520852 C 108.933153 42.520852 109.133684 42.520852 109.255576 42.520852 C 109.3814 42.520852 109.581931 42.520852 109.707755 42.520852 C 109.833579 42.520852 110.030178 42.520852 110.156002 42.520852 C 110.281826 42.520852 110.482357 42.520852 110.608181 42.520852 C 110.730073 42.520852 110.930604 42.520852 111.056428 42.520852 C 111.182252 42.520852 111.378851 42.520852 111.504675 42.520852 C 111.630499 42.520852 111.83103 42.520852 111.956854 42.520852 C 112.078745 42.520852 112.279277 42.520852 112.405101 42.520852 C 112.530924 42.520852 112.731456 42.520852 112.853348 42.520852 C 112.979171 42.520852 113.179703 42.520852 113.305527 42.520852 C 113.427418 42.520852 113.62795 42.520852 113.753774 42.520852 C 113.879597 42.520852 114.080129 42.520852 114.202021 42.520852 C 114.327844 42.520852 114.528376 42.520852 114.654199 42.520852 C 114.776091 42.520852 114.976623 42.520852 115.102446 42.520852 C 115.22827 42.520852 115.428802 42.520852 115.550693 42.520852 C 115.676517 42.520852 115.877049 42.520852 116.002872 42.520852 C 116.124764 42.520852 116.325296 42.520852 116.451119 42.520852 C 116.576943 42.520852 116.777474 42.520852 116.899366 42.520852 C 117.02519 42.520852 117.225721 42.520852 117.351545 42.520852 C 117.473437 42.520852 117.673968 42.520852 117.799792 42.520852 C 117.925616 42.520852 118.126147 42.520852 118.248039 42.520852 C 118.373863 42.520852 118.574394 42.520852 118.700218 42.520852 C 118.826042 42.520852 119.022641 42.520852 119.148465 42.520852 C 119.274289 42.520852 119.47482 42.520852 119.600644 42.520852 C 119.722536 42.520852 119.923067 42.520852 120.048891 42.520852 C 120.174715 42.520852 120.371314 42.520852 120.497138 42.520852 C 120.622962 42.520852 120.823493 42.520852 120.949317 42.520852 C 121.071208 42.520852 121.27174 42.520852 121.397564 42.520852 C 121.523387 42.520852 121.723919 42.520852 121.845811 42.520852 C 121.971634 42.520852 122.172166 42.520852 122.29799 42.520852 C 122.419881 42.520852 122.620413 42.520852 122.746237 42.520852 C 122.87206 42.520852 123.072592 42.520852 123.194484 42.520852 C 123.320307 42.520852 123.520839 42.520852 123.646662 42.520852 C 123.768554 42.520852 123.969086 42.520852 124.094909 42.520852 C 124.220733 42.520852 124.421265 42.520852 124.543156 42.520852 C 124.66898 42.520852 124.869512 42.520852 124.995335 42.520852 C 125.117227 42.520852 125.317759 42.520852 125.443582 42.520852 C 125.569406 42.520852 125.769938 42.520852 125.891829 42.520852 C 126.017653 42.520852 126.218184 42.520852 126.344008 42.520852 C 126.4659 42.520852 126.666431 42.520852 126.792255 42.520852 C 126.918079 42.520852 127.11861 42.520852 127.240502 42.520852 C 127.366326 42.520852 127.566857 42.520852 127.692681 42.520852 C 127.818505 42.520852 128.015104 42.520852 128.140928 42.520852 C 128.266752 42.520852 128.467283 42.520852 128.589175 42.520852 C 128.714999 42.520852 128.91553 42.520852 129.041354 42.520852 C 129.167178 42.520852 129.363777 42.520852 129.489601 42.520852 C 129.615425 42.520852 129.815956 42.520852 129.94178 42.520852 C 130.063671 42.520852 130.264203 42.520852 130.390027 42.520852 C 130.51585 42.520852 130.716382 42.520852 130.838274 42.520852 C 130.964097 42.520852 131.164629 42.520852 131.290453 42.520852 C 131.412344 42.520852 131.612876 42.520852 131.7387 42.520852 C 131.864523 42.520852 132.065055 42.520852 132.186947 42.520852 C 132.31277 42.520852 132.513302 42.520852 132.639125 42.520852 C 132.761017 42.520852 132.961549 42.520852 133.087372 42.520852 C 133.213196 42.520852 133.413728 42.520852 133.535619 42.520852 C 133.661443 42.520852 133.861975 42.520852 133.987798 42.520852 C 134.10969 42.520852 134.310222 42.520852 134.436045 42.520852 C 134.561869 42.520852 134.762401 42.520852 134.884292 42.520852 C 135.010116 42.520852 135.210647 42.520852 135.336471 42.520852 C 135.458363 42.520852 135.658894 42.520852 135.784718 42.520852 C 135.910542 42.520852 136.111073 42.520852 136.232965 42.520852 C 136.358789 42.520852 136.55932 42.520852 136.685144 42.520852 C 136.807036 42.520852 137.007567 42.520852 137.133391 42.520852 C 137.259215 42.520852 137.459746 42.520852 137.581638 42.520852 C 137.707462 42.520852 137.907993 42.520852 138.033817 42.520852 C 138.159641 42.520852 138.35624 42.520852 138.482064 42.520852 C 138.607888 42.520852 138.808419 42.520852 138.934243 42.520852 C 139.056135 42.520852 139.256666 42.520852 139.38249 42.520852 C 139.508313 42.520852 139.704913 42.520852 139.830737 42.520852 C 139.95656 42.520852 140.157092 42.520852 140.282916 42.520852 C 140.404807 42.520852 140.605339 42.520852 140.731163 42.520852 C 140.856986 42.520852 141.057518 42.520852 141.17941 42.520852 C 141.305233 42.520852 141.505765 42.520852 141.631588 42.520852 C 141.75348 42.520852 141.954012 42.520852 142.079835 42.520852 C 142.205659 42.520852 142.406191 42.520852 142.528082 42.520852 C 142.653906 42.520852 142.854438 42.520852 142.980261 42.520852 C 143.102153 42.520852 143.302685 42.520852 143.428508 42.520852 C 143.554332 42.520852 143.754864 42.520852 143.876755 42.520852 C 144.002579 42.520852 144.20311 42.520852 144.328934 42.520852 C 144.450826 42.520852 144.651357 42.520852 144.777181 42.520852 C 144.903005 42.520852 145.103536 42.520852 145.225428 42.520852 C 145.351252 42.520852 145.551783 42.520852 145.677607 42.520852 C 145.799499 42.520852 146.00003 42.520852 146.125854 42.520852 C 146.251678 42.520852 146.452209 42.520852 146.574101 42.520852 C 146.699925 42.520852 146.900456 42.520852 147.02628 42.520852 C 147.152104 42.520852 147.348703 42.520852 147.474527 42.520852 C 147.600351 42.520852 147.800882 42.520852 147.922774 42.520852 C 148.048598 42.520852 148.249129 42.520852 148.374953 42.520852 C 148.500776 42.520852 148.697376 42.520852 148.8232 42.520852 C 148.949023 42.520852 149.149555 42.489396 149.275379 42.520852 C 149.39727 42.548376 149.597802 42.615219 149.723626 42.733179 C 149.849449 42.851139 150.049981 43.197154 150.171873 43.378026 C 150.297696 43.554965 150.498228 43.842001 150.624052 44.01894 C 150.745943 44.19588 150.946475 44.482915 151.072298 44.659855 C 151.198122 44.836794 151.398654 45.12383 151.520545 45.300769 C 151.646369 45.477709 151.846901 45.764744 151.972724 45.941684 C 152.094616 46.118623 152.295148 46.401727 152.420971 46.578666 C 152.546795 46.755606 152.747327 47.038709 152.869218 47.215649 C 152.995042 47.392588 153.195574 47.675692 153.321397 47.852631 C 153.443289 48.029571 153.64382 48.308742 153.769644 48.485682 C 153.895468 48.662621 154.095999 48.941793 154.217891 49.1148 C 154.343715 49.29174 154.544246 49.570911 154.67007 49.743919 C 154.791962 49.920858 154.992493 50.20003 155.118317 50.373037 C 155.244141 50.546045 155.444672 50.821284 155.566564 50.994292 C 155.692388 51.1673 155.892919 51.446471 156.018743 51.615546 C 156.144567 51.788554 156.341166 52.063793 156.46699 52.232869 C 156.592814 52.405877 156.793345 52.677184 156.915237 52.84626 C 157.041061 53.019267 157.241592 53.290575 157.367416 53.45965 C 157.493239 53.628726 157.689839 53.896101 157.815663 54.065177 C 157.941486 54.23032 158.142018 54.501628 158.267842 54.666771 C 158.389733 54.831915 158.590265 55.09929 158.716089 55.264434 C 158.841912 55.429578 159.038512 55.693021 159.164336 55.858165 C 159.290159 56.023308 159.490691 56.28282 159.616515 56.447963 C 159.738406 56.609175 159.938938 56.868686 160.064761 57.029898 C 160.190585 57.191109 160.391117 57.450621 160.513008 57.6079 C 160.638832 57.769112 160.839364 58.024692 160.965187 58.181971 C 161.087079 58.339251 161.287611 58.590898 161.413434 58.748178 C 161.539258 58.905457 161.73979 59.157105 161.861681 59.310453 C 161.987505 59.467732 162.188037 59.711516 162.31386 59.864863 C 162.435752 60.018211 162.636283 60.265926 162.762107 60.415342 C 162.887931 60.56869 163.088462 60.808541 163.210354 60.957957 C 163.336178 61.107372 163.536709 61.347224 163.662533 61.496639 C 163.784425 61.642123 163.984956 61.878043 164.11078 62.027458 C 164.236604 62.172942 164.437135 62.404929 164.559027 62.550413 C 164.684851 62.691965 164.885382 62.923952 165.011206 63.065504 C 165.133098 63.207055 165.333629 63.431179 165.459453 63.572731 C 165.585277 63.714282 165.785808 63.934474 165.9077 64.072093 C 166.033524 64.209713 166.234055 64.429905 166.359879 64.567524 C 166.485702 64.701212 166.682302 64.917471 166.808126 65.051159 C 166.933949 65.184847 167.134481 65.397174 167.260305 65.530862 C 167.382196 65.660618 167.582728 65.869013 167.708552 65.998769 C 167.834375 66.128525 168.030975 66.332988 168.156799 66.458812 C 168.282622 66.584636 168.483154 66.785167 168.608978 66.910991 C 168.730869 67.036814 168.931401 67.233414 169.057224 67.355306 C 169.183048 67.477197 169.38358 67.669865 169.505471 67.787825 C 169.631295 67.909716 169.831827 68.098452 169.95765 68.216412 C 170.079542 68.330439 170.280074 68.515243 170.405897 68.629271 C 170.531721 68.743298 170.732253 68.928102 170.854144 69.038198 C 170.979968 69.148294 171.1805 69.325233 171.306323 69.435329 C 171.428215 69.545425 171.628746 69.718432 171.75457 69.824596 C 171.880394 69.93076 172.080925 70.099835 172.202817 70.202067 C 172.328641 70.304299 172.529172 70.469442 172.654996 70.571674 C 172.776888 70.669974 172.977419 70.831186 173.103243 70.929485 C 173.229067 71.027785 173.429598 71.181133 173.55149 71.275501 C 173.677314 71.3738 173.877845 71.523216 174.003669 71.613652 C 174.125561 71.70802 174.326092 71.853503 174.451916 71.943939 C 174.57774 72.030443 174.778271 72.171994 174.900163 72.258498 C 175.025987 72.345002 175.226518 72.482622 175.352342 72.565194 C 175.478166 72.651697 175.674765 72.781453 175.800589 72.864025 C 175.926412 72.942665 176.126944 73.068488 176.248836 73.147128 C 176.374659 73.225768 176.575191 73.34766 176.701015 73.422368 C 176.826838 73.497075 177.023438 73.611103 177.149262 73.685811 C 177.275085 73.756587 177.475617 73.866683 177.601441 73.937458 C 177.723332 74.004302 177.923864 74.110466 178.049688 74.17731 C 178.175511 74.240222 178.376043 74.342453 178.497934 74.405365 C 178.623758 74.468277 178.82429 74.566577 178.950113 74.625557 C 179.072005 74.684537 179.272537 74.774972 179.39836 74.83002 C 179.524184 74.885068 179.724716 74.971572 179.846607 75.02662 C 179.972431 75.077736 180.172963 75.160308 180.298786 75.211423 C 180.420678 75.258607 180.621209 75.333315 180.747033 75.380499 C 180.872857 75.427683 181.073388 75.498459 181.19528 75.541711 C 181.321104 75.584963 181.521635 75.651806 181.647459 75.691126 C 181.769351 75.730446 181.969882 75.789426 182.095706 75.824814 C 182.22153 75.864134 182.422061 75.919182 182.543953 75.950638 C 182.669777 75.982094 182.870308 76.033209 182.996132 76.064665 C 183.118024 76.092189 183.318555 76.139373 183.444379 76.162965 C 183.570203 76.190489 183.770734 76.229809 183.892626 76.253401 C 184.01845 76.276993 184.218981 76.308449 184.344805 76.328109 C 184.466697 76.347769 184.667228 76.379225 184.793052 76.394953 C 184.918875 76.410681 185.119407 76.434273 185.241299 76.446069 C 185.367122 76.457864 185.567654 76.477524 185.693478 76.485388 C 185.819301 76.497184 186.015901 76.50898 186.141725 76.516844 C 186.267548 76.520776 186.46808 76.52864 186.593904 76.532572 C 186.715795 76.532572 186.916327 76.536504 187.042151 76.536504 C 187.167974 76.536504 187.364574 76.532572 187.490397 76.52864 C 187.616221 76.524708 187.816753 76.512912 187.942576 76.50898 C 188.064468 76.501116 188.265 76.485388 188.390823 76.473592 C 188.516647 76.465728 188.717179 76.446069 188.83907 76.430341 C 188.964894 76.414613 189.165426 76.391021 189.291249 76.375293 C 189.413141 76.355633 189.613673 76.324177 189.739496 76.304517 C 189.86532 76.284857 190.065851 76.249469 190.187743 76.225877 C 190.313567 76.202285 190.514098 76.159033 190.639922 76.131509 C 190.761814 76.103985 190.962345 76.056801 191.088169 76.025346 C 191.213993 75.997822 191.414524 75.942774 191.536416 75.911318 C 191.66224 75.87593 191.862771 75.820882 191.988595 75.781562 C 192.110487 75.746174 192.311018 75.683262 192.436842 75.64001 C 192.562666 75.60069 192.763197 75.533847 192.885089 75.490595 C 193.010913 75.447343 193.211444 75.372635 193.337268 75.325451 C 193.45916 75.278267 193.659691 75.199627 193.785515 75.148512 C 193.911338 75.097396 194.11187 75.014824 194.233762 74.963708 C 194.359585 74.90866 194.560117 74.818224 194.685941 74.763176 C 194.811764 74.708129 195.008364 74.613761 195.134188 74.554781 C 195.260011 74.491869 195.460543 74.393569 195.582435 74.330657 C 195.708258 74.267746 195.90879 74.165514 196.034614 74.09867 C 196.160437 74.031826 196.357037 73.92173 196.48286 73.854887 C 196.608684 73.784111 196.809216 73.670083 196.935039 73.599307 C 197.056931 73.524599 197.257463 73.40664 197.383286 73.331932 C 197.50911 73.257224 197.709642 73.1314 197.831533 73.05276 C 197.957357 72.974121 198.157889 72.848297 198.283712 72.765725 C 198.405604 72.683153 198.606136 72.549466 198.731959 72.466894 C 198.857783 72.38039 199.058314 72.24277 199.180206 72.156267 C 199.30603 72.069763 199.506561 71.924279 199.632385 71.833843 C 199.754277 71.743407 199.954808 71.597924 200.080632 71.503556 C 200.206456 71.409188 200.406987 71.259773 200.528879 71.161473 C 200.654703 71.067105 200.855234 70.909825 200.981058 70.811526 C 201.10295 70.713226 201.303481 70.552014 201.429305 70.449783 C 201.555129 70.347551 201.75566 70.182407 201.877552 70.076243 C 202.003376 69.974012 202.203907 69.801004 202.329731 69.69484 C 202.451623 69.588677 202.652154 69.415669 202.777978 69.305573 C 202.903801 69.195477 203.104333 69.014606 203.226225 68.90451 C 203.352048 68.790482 203.55258 68.609611 203.678404 68.491651 C 203.804227 68.377623 204.000827 68.19282 204.126651 68.07486 C 204.252474 67.9569 204.453006 67.764233 204.574898 67.646273 C 204.700721 67.524381 204.901253 67.331714 205.027077 67.20589 C 205.1529 67.083998 205.3495 66.887399 205.475323 66.761575 C 205.601147 66.635751 205.801679 66.43522 205.927502 66.305464 C 206.049394 66.17964 206.249926 65.971245 206.375749 65.841489 C 206.501573 65.711734 206.698173 65.503338 206.823996 65.36965 C 206.94982 65.239895 207.150352 65.023635 207.276175 64.889947 C 207.398067 64.75626 207.598599 64.54 207.724422 64.402381 C 207.850246 64.264761 208.050777 64.044569 208.172669 63.90695 C 208.298493 63.76933 208.499024 63.545207 208.624848 63.403655 C 208.74674 63.262103 208.947271 63.034048 209.073095 62.892496 C 209.198919 62.750944 209.39945 62.518957 209.521342 62.373473 C 209.647166 62.231922 209.847697 61.996002 209.973521 61.850519 C 210.095413 61.705035 210.295944 61.465183 210.421768 61.3197 C 210.547592 61.170284 210.748123 60.930433 210.870015 60.777085 C 210.995839 60.627669 211.19637 60.387818 211.322194 60.23447 C 211.444086 60.081123 211.644617 59.837339 211.770441 59.683992 C 211.896265 59.526712 212.096796 59.278997 212.218688 59.125649 C 212.344511 58.968369 212.545043 58.716722 212.670867 58.559442 C 212.792758 58.402163 212.99329 58.150515 213.119114 57.993236 C 213.244937 57.832024 213.445469 57.576445 213.567361 57.415233 C 213.693184 57.257953 213.893716 56.998442 214.01954 56.83723 C 214.145363 56.676019 214.341963 56.412575 214.467787 56.251364 C 214.59361 56.08622 214.794142 55.826709 214.919965 55.661565 C 215.041857 55.496421 215.242389 55.232978 215.368212 55.063902 C 215.494036 54.898759 215.690636 54.635315 215.816459 54.46624 C 215.942283 54.301096 216.142815 54.029789 216.268638 53.864645 C 216.39053 53.69557 216.591062 53.424262 216.716885 53.255187 C 216.842709 53.086111 217.04324 52.814804 217.165132 52.641796 C 217.290956 52.47272 217.491487 52.201413 217.617311 52.028406 C 217.739203 51.855398 217.939734 51.580159 218.065558 51.411083 C 218.191382 51.238075 218.391913 50.962836 218.513805 50.789828 C 218.639629 50.616821 218.84016 50.337649 218.965984 50.164642 C 219.087876 49.991634 219.288407 49.712463 219.414231 49.535523 C 219.540055 49.362516 219.740586 49.083344 219.862478 48.906405 C 219.988302 48.729465 220.188833 48.450294 220.314657 48.273354 C 220.436549 48.100347 220.63708 47.817243 220.762904 47.640304 C 220.888728 47.463364 221.089259 47.180261 221.211151 47.003321 C 221.336974 46.826382 221.537506 46.543278 221.66333 46.366339 C 221.785221 46.189399 221.985753 45.906296 222.111577 45.729356 C 222.2374 45.548485 222.437932 45.265381 222.559824 45.088442 C 222.685647 44.911502 222.886179 44.624467 223.012003 44.447527 C 223.137826 44.266656 223.334426 43.983552 223.46025 43.802681 C 223.586073 43.625741 223.786605 43.338706 223.908496 43.161766 C 224.03432 42.984827 224.360675 42.520852 224.360675 42.520852 " transform="matrix(0.993453,0,0,-0.993453,8.733104,84.679988)"/>
</g>
</g>
</svg>
