<?xml version="1.0" encoding="UTF-8"?>
<svg xmlns="http://www.w3.org/2000/svg" xmlns:xlink="http://www.w3.org/1999/xlink" width="255.471pt" height="85.437pt" viewBox="0 0 255.471 85.437" version="1.2">
<defs>
<clipPath id="clip1">
  <path d="M 242 35 L 254.371094 35 L 254.371094 50 L 242 50 Z M 242 35 "/>
</clipPath>
<clipPath id="clip2">
  <path d="M 8 3 L 10 3 L 10 84.878906 L 8 84.878906 Z M 8 3 "/>
</clipPath>
<clipPath id="clip3">
  <path d="M 8.820312 0.195312 L 251.40625 0.195312 L 251.40625 49 L 8.820312 49 Z M 8.820312 0.195312 "/>
</clipPath>
</defs>
<g id="surface1">
<path style="fill:none;stroke-width:0.3985;stroke-linecap:butt;stroke-linejoin:miter;stroke:rgb(0%,0%,0%);stroke-opacity:1;stroke-miterlimit:10;" d="M -0.000797067 42.520852 L 240.711749 42.520852 " transform="matrix(0.993453,0,0,-0.993453,8.821104,84.679988)"/>
<path style=" stroke:none;fill-rule:nonzero;fill:rgb(0%,0%,0%);fill-opacity:1;" d="M 251.011719 42.4375 L 248.054688 40.6875 L 248.054688 44.191406 Z M 251.011719 42.4375 "/>
<g clip-path="url(#clip1)" clip-rule="nonzero">
<path style="fill:none;stroke-width:0.3985;stroke-linecap:butt;stroke-linejoin:miter;stroke:rgb(0%,0%,0%);stroke-opacity:1;stroke-miterlimit:10;" d="M 3.175256 0.000921692 L 0.198739 1.762454 L 0.198739 -1.764542 Z M 3.175256 0.000921692 " transform="matrix(0.993453,0,0,-0.993453,247.85725,42.438416)"/>
</g>
<g clip-path="url(#clip2)" clip-rule="nonzero">
<path style="fill:none;stroke-width:0.3985;stroke-linecap:butt;stroke-linejoin:miter;stroke:rgb(0%,0%,0%);stroke-opacity:1;stroke-miterlimit:10;" d="M -0.000797067 0.000302925 L -0.000797067 81.569453 " transform="matrix(0.993453,0,0,-0.993453,8.821104,84.679988)"/>
</g>
<path style="fill-rule:nonzero;fill:rgb(0%,0%,0%);fill-opacity:1;stroke-width:0.3985;stroke-linecap:butt;stroke-linejoin:miter;stroke:rgb(0%,0%,0%);stroke-opacity:1;stroke-miterlimit:10;" d="M 3.172457 0.000797067 L 0.199872 1.762329 L 0.199872 -1.764667 Z M 3.172457 0.000797067 " transform="matrix(0,-0.993453,-0.993453,0,8.821104,3.745439)"/>
<g clip-path="url(#clip3)" clip-rule="nonzero">
<path style="fill:none;stroke-width:0.3985;stroke-linecap:butt;stroke-linejoin:miter;stroke:rgb(0%,0%,0%);stroke-opacity:1;stroke-miterlimit:10;" d="M -0.000797067 42.520852 L 1.709619 42.520852 L 1.953402 42.548376 L 2.197186 42.910119 L 2.440969 43.661129 L 2.684753 44.443595 L 2.928536 45.229993 L 3.176252 46.008528 L 3.420035 46.787062 L 3.907602 48.328402 L 4.151385 49.091208 L 4.395169 49.850083 L 4.638952 50.605025 L 4.882736 51.356035 L 5.126519 52.099181 L 5.370302 52.838396 L 5.618018 53.569746 L 5.861801 54.297164 L 6.105585 55.016719 L 6.349368 55.728409 L 6.593152 56.432235 L 6.836935 57.13213 L 7.080718 57.82416 L 7.324502 58.504394 L 7.568285 59.180697 L 7.812069 59.849135 L 8.059784 60.505778 L 8.303568 61.154556 L 8.547351 61.795471 L 8.791134 62.428521 L 9.034918 63.049776 L 9.278701 63.663166 L 9.522485 64.268693 L 9.766268 64.858492 L 10.010052 65.444358 L 10.257767 66.014497 L 10.50155 66.576772 L 10.745334 67.12725 L 10.989117 67.669865 L 11.232901 68.196752 L 11.476684 68.715775 L 11.720468 69.219069 L 11.964251 69.7145 L 12.208034 70.198135 L 12.451818 70.669974 L 12.699533 71.126085 L 12.943317 71.574332 L 13.1871 72.006851 L 13.430884 72.427574 L 13.674667 72.836501 L 13.91845 73.2297 L 14.162234 73.611103 L 14.406017 73.98071 L 14.649801 74.338521 L 14.893584 74.680605 L 15.1413 75.010892 L 15.385083 75.325451 L 15.628866 75.628214 L 15.87265 75.91525 L 16.116433 76.190489 L 16.360217 76.453932 L 16.604 76.697716 L 16.847784 76.933635 L 17.091567 77.153827 L 17.33535 77.35829 L 17.583066 77.550958 L 17.826849 77.727898 L 18.070633 77.893041 L 18.314416 78.046389 L 18.5582 78.184008 L 18.801983 78.3059 L 19.045766 78.419928 L 19.28955 78.518228 L 19.533333 78.604731 L 19.781049 78.675507 L 20.024832 78.738419 L 20.268616 78.789535 L 20.512399 78.828855 L 20.756182 78.860311 L 20.999966 78.883903 L 21.243749 78.899631 L 21.487533 78.907495 L 21.9751 78.907495 L 22.222815 78.899631 L 22.466598 78.895699 L 22.710382 78.883903 L 22.954165 78.876039 L 23.441732 78.852447 L 23.685516 78.844583 L 24.416866 78.809195 L 24.664581 78.801331 L 25.395932 78.765943 L 25.639715 78.758079 L 26.371065 78.722691 L 26.614849 78.714827 L 26.862564 78.703031 L 27.350131 78.679439 L 27.593915 78.671575 L 28.325265 78.636187 L 28.569048 78.628323 L 29.056615 78.604731 L 29.304331 78.592936 L 29.548114 78.58114 L 29.791897 78.573276 L 30.523248 78.537888 L 30.767031 78.530024 L 31.254598 78.506432 L 31.498381 78.498568 L 31.746097 78.486772 L 32.233664 78.46318 L 32.477447 78.455316 L 33.208797 78.419928 L 33.452581 78.412064 L 33.940148 78.388472 L 34.187863 78.376676 L 34.431647 78.368812 L 35.162997 78.333424 L 35.40678 78.32556 L 35.894347 78.301968 L 36.138131 78.294104 L 36.385846 78.282308 L 36.873413 78.258716 L 37.117196 78.250852 L 37.848547 78.215464 L 38.09233 78.2076 L 38.579897 78.184008 L 38.827612 78.176144 L 39.558963 78.140757 L 39.802746 78.132893 L 40.534096 78.097505 L 40.77788 78.089641 L 41.021663 78.077845 L 41.269379 78.066049 L 41.513162 78.058185 L 42.000729 78.034593 L 42.244512 78.026729 L 42.975863 77.991341 L 43.219646 77.983477 L 43.463429 77.971681 L 43.711145 77.959885 L 43.954928 77.952021 L 44.686279 77.916633 L 44.930062 77.908769 L 45.417629 77.885177 L 45.661412 77.877313 L 45.909128 77.865517 L 46.152911 77.853721 L 46.396695 77.845857 L 46.884262 77.822265 L 47.128045 77.814401 L 47.859395 77.779013 L 48.103179 77.771149 L 48.350894 77.759353 L 48.594678 77.747557 L 48.838461 77.739693 L 49.326028 77.716102 L 49.569811 77.708238 L 50.057378 77.684646 L 50.301162 77.676782 L 50.544945 77.664986 L 50.79266 77.65319 L 51.036444 77.645326 L 51.767794 77.609938 L 52.011578 77.602074 L 52.499144 77.578482 L 52.742928 77.570618 L 52.990643 77.558822 L 53.234427 77.547026 L 53.47821 77.539162 L 53.965777 77.51557 L 54.20956 77.507706 L 54.697127 77.484114 L 54.940911 77.47625 L 55.184694 77.464454 L 55.43241 77.452658 L 55.676193 77.444794 L 56.16376 77.421202 L 56.407543 77.413338 L 56.89511 77.389746 L 57.138894 77.381882 L 57.62646 77.35829 L 57.874176 77.350426 L 58.361743 77.326834 L 58.605526 77.31897 L 58.84931 77.307175 L 59.093093 77.299311 L 59.58066 77.275719 L 59.824443 77.267855 L 60.068227 77.256059 L 60.315942 77.244263 L 60.559726 77.236399 L 61.047292 77.212807 L 61.291076 77.204943 L 61.778643 77.181351 L 62.022426 77.173487 L 62.26621 77.161691 L 62.513925 77.149895 L 62.757708 77.142031 L 63.001492 77.130235 L 63.245275 77.122371 L 63.732842 77.098779 L 63.976626 77.090915 L 64.464192 77.067323 L 64.707976 77.059459 L 64.955691 77.047663 L 65.199475 77.035867 L 65.443258 77.028003 L 65.687042 77.016207 L 65.930825 77.008343 L 66.418392 76.984751 L 66.662175 76.976887 L 67.149742 76.953295 L 67.397458 76.945431 L 67.641241 76.933635 L 67.885025 76.925771 L 68.372591 76.902179 L 68.616375 76.894315 L 69.103942 76.870724 L 69.347725 76.86286 L 69.591509 76.851064 L 69.839224 76.8432 L 70.326791 76.819608 L 70.570574 76.811744 L 71.058141 76.788152 L 71.301925 76.780288 L 71.545708 76.768492 L 71.789491 76.760628 L 72.037207 76.748832 L 72.28099 76.737036 L 72.524774 76.729172 L 72.768557 76.717376 L 73.012341 76.709512 L 73.499907 76.68592 L 73.743691 76.678056 L 73.987474 76.66626 L 74.231258 76.658396 L 74.478973 76.6466 L 74.722757 76.634804 L 74.96654 76.62694 L 75.210323 76.615144 L 75.454107 76.60728 L 75.941674 76.583688 L 76.185457 76.575824 L 76.429241 76.564028 L 76.673024 76.556164 L 76.920739 76.544368 L 77.164523 76.532572 L 77.408306 76.524708 L 77.65209 76.512912 L 77.895873 76.505048 L 78.38344 76.481456 L 78.627223 76.473592 L 78.871007 76.461796 L 79.11479 76.453932 L 79.362506 76.442137 L 79.606289 76.430341 L 79.850073 76.422477 L 80.093856 76.410681 L 80.337639 76.402817 L 80.581423 76.391021 L 80.825206 76.383157 L 81.312773 76.359565 L 81.560489 76.351701 L 81.804272 76.339905 L 82.048055 76.332041 L 82.535622 76.308449 L 82.779406 76.300585 L 83.023189 76.288789 L 83.266973 76.280925 L 83.510756 76.269129 L 83.754539 76.261265 L 84.002255 76.249469 L 84.246038 76.237673 L 84.489822 76.229809 L 84.733605 76.218013 L 84.977389 76.210149 L 85.221172 76.198353 L 85.464955 76.190489 L 85.952522 76.166897 L 86.196306 76.159033 L 86.444021 76.147237 L 86.687805 76.139373 L 86.931588 76.127577 L 87.175371 76.119713 L 87.662938 76.096121 L 87.906722 76.088257 L 88.150505 76.076461 L 88.394289 76.068597 L 88.642004 76.056801 L 88.885787 76.048937 L 89.129571 76.037141 L 89.373354 76.029277 L 89.860921 76.005686 L 90.104705 75.997822 L 90.348488 75.986026 L 90.592272 75.978162 L 90.836055 75.966366 L 91.08377 75.958502 L 91.327554 75.946706 L 91.571337 75.938842 L 92.058904 75.91525 L 92.302688 75.907386 L 92.546471 75.89559 L 92.790254 75.887726 L 93.034038 75.87593 L 93.277821 75.868066 L 93.525537 75.85627 L 93.76932 75.848406 L 94.013104 75.83661 L 94.256887 75.828746 L 94.744454 75.805154 L 94.988237 75.79729 L 95.232021 75.785494 L 95.475804 75.77763 L 95.719588 75.765834 L 95.967303 75.75797 L 96.45487 75.742242 L 96.698653 75.750106 L 96.942437 75.79729 L 97.18622 75.923114 L 97.430004 76.131509 L 97.673787 76.375293 L 97.91757 76.623008 L 98.165286 76.858928 L 98.409069 77.083051 L 98.652853 77.291447 L 98.896636 77.488046 L 99.14042 77.67285 L 99.384203 77.841925 L 99.627986 77.995273 L 99.87177 78.136825 L 100.115553 78.26658 L 100.359337 78.38454 L 100.607052 78.486772 L 100.850836 78.577208 L 101.094619 78.651915 L 101.338402 78.718759 L 101.582186 78.773807 L 101.825969 78.817059 L 102.069753 78.852447 L 102.313536 78.876039 L 102.55732 78.895699 L 102.801103 78.903563 L 103.048818 78.907495 L 103.292602 78.907495 L 103.536385 78.903563 L 104.267736 78.879971 L 104.755302 78.856379 L 104.999086 78.848515 L 105.242869 78.836719 L 105.490585 78.824923 L 105.734368 78.813127 L 105.978152 78.805263 L 106.709502 78.769875 L 106.953285 78.762011 L 107.440852 78.738419 L 107.688568 78.726623 L 107.932351 78.714827 L 108.176134 78.706963 L 108.907485 78.671575 L 109.151268 78.663711 L 109.882618 78.628323 L 110.130334 78.620459 L 110.861684 78.585072 L 111.105468 78.577208 L 111.836818 78.54182 L 112.080601 78.533956 L 112.324385 78.52216 L 112.5721 78.510364 L 112.815884 78.498568 L 113.059667 78.490704 L 113.791017 78.455316 L 114.034801 78.447452 L 114.522368 78.42386 L 114.766151 78.415996 L 115.013867 78.4042 L 115.501433 78.380608 L 115.745217 78.372744 L 116.476567 78.337356 L 116.720351 78.329492 L 116.964134 78.317696 L 117.211849 78.3059 L 117.455633 78.294104 L 117.699416 78.28624 L 118.430767 78.250852 L 118.67455 78.242988 L 119.162117 78.219396 L 119.4059 78.211532 L 119.653616 78.199736 L 120.141183 78.176144 L 120.384966 78.16828 L 120.872533 78.144689 L 121.116316 78.136825 L 121.847667 78.101437 L 122.095382 78.093573 L 122.582949 78.069981 L 122.826732 78.062117 L 123.558083 78.026729 L 123.801866 78.018865 L 124.045649 78.007069 L 124.293365 77.995273 L 124.537148 77.987409 L 125.268499 77.952021 L 125.512282 77.944157 L 125.999849 77.920565 L 126.243632 77.912701 L 126.487416 77.900905 L 126.735131 77.889109 L 126.978915 77.881245 L 127.710265 77.845857 L 127.954048 77.837993 L 128.441615 77.814401 L 128.685399 77.806537 L 128.929182 77.794741 L 129.176897 77.782945 L 129.420681 77.775081 L 129.908248 77.751489 L 130.152031 77.743625 L 130.639598 77.720034 L 130.883381 77.71217 L 131.370948 77.688578 L 131.618664 77.676782 L 131.862447 77.668918 L 132.350014 77.645326 L 132.593797 77.637462 L 133.081364 77.61387 L 133.325148 77.606006 L 133.568931 77.59421 L 133.816647 77.582414 L 134.06043 77.57455 L 134.547997 77.550958 L 134.79178 77.543094 L 135.279347 77.519502 L 135.523131 77.511638 L 136.010698 77.488046 L 136.258413 77.480182 L 136.74598 77.45659 L 136.989763 77.448726 L 137.47733 77.425134 L 137.721114 77.41727 L 138.20868 77.393678 L 138.452464 77.385814 L 138.700179 77.374018 L 138.943963 77.362222 L 139.187746 77.354358 L 139.675313 77.330766 L 139.919096 77.322902 L 140.406663 77.299311 L 140.650447 77.291447 L 140.89423 77.279651 L 141.141946 77.267855 L 141.385729 77.259991 L 141.629512 77.248195 L 141.873296 77.240331 L 142.360863 77.216739 L 142.604646 77.208875 L 143.092213 77.185283 L 143.339928 77.177419 L 143.827495 77.153827 L 144.071279 77.145963 L 144.558846 77.122371 L 144.802629 77.114507 L 145.046412 77.102711 L 145.290196 77.094847 L 145.533979 77.083051 L 145.781695 77.071255 L 146.025478 77.063391 L 146.513045 77.039799 L 146.756828 77.031935 L 147.244395 77.008343 L 147.488179 77.000479 L 147.731962 76.988683 L 147.975746 76.980819 L 148.223461 76.969023 L 148.467244 76.957227 L 148.711028 76.949363 L 149.198595 76.925771 L 149.442378 76.917907 L 149.686162 76.906111 L 149.929945 76.898247 L 150.417512 76.874656 L 150.665227 76.866792 L 151.152794 76.8432 L 151.396578 76.835336 L 151.640361 76.82354 L 151.884144 76.815676 L 152.371711 76.792084 L 152.615495 76.78422 L 152.86321 76.772424 L 153.106994 76.760628 L 153.350777 76.752764 L 153.59456 76.740968 L 153.838344 76.733104 L 154.325911 76.709512 L 154.569694 76.701648 L 154.813478 76.689852 L 155.057261 76.681988 L 155.304976 76.670192 L 155.54876 76.658396 L 155.792543 76.650532 L 156.036327 76.638736 L 156.28011 76.630872 L 156.767677 76.60728 L 157.011461 76.599416 L 157.255244 76.58762 L 157.499027 76.579756 L 157.746743 76.56796 L 157.990526 76.556164 L 158.23431 76.5483 L 158.478093 76.536504 L 158.721877 76.52864 L 159.209443 76.505048 L 159.453227 76.497184 L 159.69701 76.485388 L 159.944726 76.477524 L 160.432293 76.453932 L 160.676076 76.446069 L 160.919859 76.434273 L 161.163643 76.426409 L 161.407426 76.414613 L 161.65121 76.406749 L 162.138777 76.383157 L 162.386492 76.375293 L 162.630275 76.363497 L 162.874059 76.355633 L 163.361626 76.332041 L 163.605409 76.324177 L 163.849193 76.312381 L 164.092976 76.304517 L 164.336759 76.292721 L 164.580543 76.284857 L 164.828258 76.273061 L 165.072042 76.261265 L 165.315825 76.253401 L 165.559609 76.241605 L 165.803392 76.233741 L 166.047175 76.221945 L 166.290959 76.214081 L 166.778526 76.190489 L 167.022309 76.182625 L 167.270025 76.170829 L 167.513808 76.162965 L 167.757591 76.151169 L 168.001375 76.143305 L 168.488942 76.119713 L 168.732725 76.111849 L 168.976509 76.100053 L 169.220292 76.092189 L 169.468007 76.080393 L 169.711791 76.072529 L 169.955574 76.060733 L 170.199358 76.052869 L 170.686925 76.029277 L 170.930708 76.021414 L 171.174491 76.009618 L 171.418275 76.001754 L 171.662058 75.989958 L 171.909774 75.982094 L 172.153557 75.970298 L 172.397341 75.962434 L 172.884907 75.938842 L 173.128691 75.930978 L 173.372474 75.919182 L 173.616258 75.911318 L 173.860041 75.899522 L 174.103825 75.891658 L 174.35154 75.879862 L 174.595323 75.871998 L 174.839107 75.860202 L 175.08289 75.852338 L 175.570457 75.828746 L 175.814241 75.820882 L 176.058024 75.809086 L 176.301807 75.801222 L 176.545591 75.789426 L 176.793306 75.781562 L 177.03709 75.769766 L 177.280873 75.761902 L 177.524657 75.750106 L 177.76844 75.742242 L 178.012223 75.742242 L 178.256007 75.773698 L 178.49979 75.871998 L 178.743574 76.056801 L 178.991289 76.292721 L 179.235073 76.540436 L 179.478856 76.780288 L 179.72264 77.008343 L 179.966423 77.224603 L 180.210206 77.425134 L 180.45399 77.61387 L 180.697773 77.786877 L 180.941557 77.948089 L 181.18534 78.093573 L 181.433056 78.22726 L 181.676839 78.34522 L 181.920622 78.451384 L 182.164406 78.545752 L 182.408189 78.628323 L 182.651973 78.699099 L 182.895756 78.758079 L 183.13954 78.805263 L 183.383323 78.840651 L 183.627106 78.868175 L 183.874822 78.887835 L 184.118605 78.899631 L 184.362389 78.907495 L 184.606172 78.907495 L 185.093739 78.899631 L 185.337522 78.891767 L 185.581306 78.879971 L 185.825089 78.872107 L 186.072805 78.860311 L 186.316588 78.852447 L 187.047938 78.817059 L 187.291722 78.809195 L 188.266856 78.762011 L 188.514571 78.754147 L 189.245921 78.718759 L 189.489705 78.710895 L 190.221055 78.675507 L 190.464838 78.667643 L 190.708622 78.655847 L 190.956337 78.644051 L 191.200121 78.632255 L 191.443904 78.624391 L 192.175254 78.589004 L 192.419038 78.58114 L 193.150388 78.545752 L 193.398104 78.537888 L 194.129454 78.5025 L 194.373237 78.494636 L 195.104588 78.459248 L 195.348371 78.451384 L 195.596086 78.439588 L 196.083653 78.415996 L 196.327437 78.408132 L 197.058787 78.372744 L 197.30257 78.36488 L 197.790137 78.341288 L 198.037853 78.333424 L 198.769203 78.298036 L 199.012986 78.290172 L 199.744337 78.254784 L 199.98812 78.24692 L 200.231904 78.235124 L 200.479619 78.223328 L 200.723402 78.215464 L 201.454753 78.180076 L 201.698536 78.172212 L 202.429887 78.136825 L 202.67367 78.128961 L 202.921385 78.117165 L 203.165169 78.105369 L 203.408952 78.097505 L 204.140303 78.062117 L 204.384086 78.054253 L 204.871653 78.030661 L 205.119368 78.022797 L 205.606935 77.999205 L 205.850719 77.991341 L 206.582069 77.955953 L 206.825852 77.948089 L 207.313419 77.924497 L 207.561135 77.916633 L 208.292485 77.881245 L 208.536268 77.873381 L 209.023835 77.849789 L 209.267619 77.841925 L 209.755185 77.818333 L 210.002901 77.810469 L 210.490468 77.786877 L 210.734251 77.779013 L 211.465601 77.743625 L 211.709385 77.735762 L 212.196952 77.71217 L 212.444667 77.704306 L 212.932234 77.680714 L 213.176017 77.67285 L 213.663584 77.649258 L 213.907368 77.641394 L 214.394935 77.617802 L 214.64265 77.609938 L 215.130217 77.586346 L 215.374 77.578482 L 215.861567 77.55489 L 216.105351 77.547026 L 216.592917 77.523434 L 216.836701 77.51557 L 217.084416 77.503774 L 217.3282 77.491978 L 217.571983 77.484114 L 218.05955 77.460522 L 218.303333 77.452658 L 218.7909 77.429066 L 219.034684 77.421202 L 219.278467 77.409406 L 219.526183 77.39761 L 219.769966 77.389746 L 220.257533 77.366154 L 220.501316 77.35829 L 220.988883 77.334698 L 221.232667 77.326834 L 221.47645 77.315038 L 221.724165 77.303243 L 221.967949 77.295379 L 222.455516 77.271787 L 222.699299 77.263923 L 223.186866 77.240331 L 223.430649 77.232467 L 223.918216 77.208875 L 224.165932 77.201011 L 224.409715 77.189215 L 224.653499 77.181351 L 225.141066 77.157759 L 225.384849 77.149895 L 225.872416 77.126303 L 226.116199 77.118439 L 226.359983 77.106643 L 226.607698 77.094847 L 226.851482 77.086983 L 227.339048 77.063391 L 227.582832 77.055527 L 227.826615 77.043731 L 228.070399 77.035867 L 228.557966 77.012275 L 228.801749 77.004411 L 229.049464 76.992615 L 229.293248 76.980819 L 229.537031 76.972955 L 229.780815 76.961159 L 230.024598 76.953295 L 230.512165 76.929703 L 230.755948 76.921839 L 230.999732 76.910043 L 231.247447 76.898247 L 231.491231 76.890383 L 231.735014 76.878588 L 231.978798 76.870724 L 232.466364 76.847132 L 232.710148 76.839268 L 233.197715 76.815676 L 233.441498 76.807812 L 233.689214 76.796016 L 233.932997 76.788152 L 234.420564 76.76456 L 234.664347 76.756696 L 234.908131 76.7449 L 235.151914 76.737036 L 235.639481 76.713444 L 235.883264 76.70558 L 236.13098 76.693784 L 236.374763 76.681988 L 236.618547 76.674124 L 236.86233 76.662328 L 237.106114 76.654464 L 237.59368 76.630872 L 237.837464 76.623008 L 238.081247 76.611212 L 238.325031 76.603348 L 238.572746 76.591552 L 238.81653 76.579756 L 239.060313 76.571892 L 239.304096 76.560096 L 239.54788 76.552232 L 240.035447 76.52864 L 240.27923 76.520776 L 240.523014 76.50898 L 240.770729 76.501116 L 241.014512 76.48932 L 241.258296 76.481456 L 241.745863 76.457864 L 241.989646 76.450001 L 242.23343 76.438205 L 242.477213 76.430341 L 242.96478 76.406749 L 243.212495 76.398885 L 243.456279 76.387089 L 243.700062 76.379225 L 244.187629 76.355633 " transform="matrix(0.993453,0,0,-0.993453,8.821104,84.679988)"/>
</g>
</g>
</svg>
