<?xml version="1.0" encoding="UTF-8"?>
<svg xmlns="http://www.w3.org/2000/svg" xmlns:xlink="http://www.w3.org/1999/xlink" width="254.679pt" height="81.135pt" viewBox="0 0 254.679 81.135" version="1.2">
<defs>
<clipPath id="clip1">
  <path d="M 1.183594 0 L 253 0 L 253 80 L 1.183594 80 Z M 1.183594 0 "/>
</clipPath>
<clipPath id="clip2">
  <path d="M 1.183594 0 L 253.175781 0 L 253.175781 80.277344 L 1.183594 80.277344 Z M 1.183594 0 "/>
</clipPath>
</defs>
<g id="surface1">
<g clip-path="url(#clip1)" clip-rule="nonzero">
<path style=" stroke:none;fill-rule:nonzero;fill:rgb(75%,75%,75%);fill-opacity:1;" d="M 1.972656 40.140625 L 66.367188 40.140625 L 66.367188 0.789062 L 187.996094 0.789062 L 187.996094 40.140625 L 252.390625 40.140625 L 187.996094 40.140625 L 187.996094 79.492188 L 66.367188 79.492188 L 66.367188 40.140625 Z M 1.972656 40.140625 "/>
</g>
<g clip-path="url(#clip2)" clip-rule="nonzero">
<path style="fill:none;stroke-width:1.59404;stroke-linecap:butt;stroke-linejoin:miter;stroke:rgb(0%,0%,0%);stroke-opacity:1;stroke-miterlimit:10;" d="M -0.000410211 -0.00157398 L 65.080647 -0.00157398 L 65.080647 39.769525 L 188.006268 39.769525 L 188.006268 -0.00157398 L 253.087326 -0.00157398 L 188.006268 -0.00157398 L 188.006268 -39.772673 L 65.080647 -39.772673 L 65.080647 -0.00157398 Z M -0.000410211 -0.00157398 " transform="matrix(0.989451,0,0,-0.989451,1.973062,40.139068)"/>
</g>
</g>
</svg>
