<?xml version="1.0" encoding="UTF-8"?>
<svg xmlns="http://www.w3.org/2000/svg" xmlns:xlink="http://www.w3.org/1999/xlink" width="255.124pt" height="85.041pt" viewBox="0 0 255.124 85.041" version="1.2">
<defs>
<clipPath id="clip1">
  <path d="M 0.988281 3 L 253.269531 3 L 253.269531 81 L 0.988281 81 Z M 0.988281 3 "/>
</clipPath>
<clipPath id="clip2">
  <path d="M 0.988281 0 L 253.269531 0 L 253.269531 65 L 0.988281 65 Z M 0.988281 0 "/>
</clipPath>
<clipPath id="clip3">
  <path d="M 0.988281 19 L 253.269531 19 L 253.269531 84.09375 L 0.988281 84.09375 Z M 0.988281 19 "/>
</clipPath>
</defs>
<g id="surface1">
<g clip-path="url(#clip1)" clip-rule="nonzero">
<path style=" stroke:none;fill-rule:nonzero;fill:rgb(50%,50%,50%);fill-opacity:0.5;" d="M 0.988281 22.933594 C 0.988281 22.933594 1.90625 24.003906 2.257812 24.410156 C 2.609375 24.820312 3.171875 25.476562 3.523438 25.878906 C 3.875 26.285156 4.441406 26.933594 4.792969 27.332031 C 5.144531 27.730469 5.707031 28.363281 6.058594 28.753906 C 6.414062 29.144531 6.976562 29.765625 7.328125 30.144531 C 7.679688 30.523438 8.242188 31.125 8.597656 31.492188 C 8.949219 31.859375 9.511719 32.4375 9.863281 32.789062 C 10.214844 33.140625 10.78125 33.691406 11.132812 34.023438 C 11.484375 34.359375 12.046875 34.878906 12.398438 35.195312 C 12.75 35.507812 13.316406 35.996094 13.667969 36.292969 C 14.019531 36.585938 14.582031 37.039062 14.933594 37.308594 C 15.285156 37.578125 15.851562 37.992188 16.203125 38.238281 C 16.554688 38.484375 17.117188 38.859375 17.46875 39.078125 C 17.820312 39.296875 18.386719 39.628906 18.738281 39.820312 C 19.089844 40.011719 19.652344 40.296875 20.003906 40.460938 C 20.355469 40.625 20.921875 40.863281 21.273438 41 C 21.625 41.132812 22.1875 41.324219 22.542969 41.425781 C 22.894531 41.53125 23.457031 41.671875 23.808594 41.746094 C 24.160156 41.816406 24.726562 41.910156 25.078125 41.949219 C 25.429688 41.992188 25.992188 42.03125 26.34375 42.039062 C 26.695312 42.050781 27.261719 42.039062 27.613281 42.015625 C 27.964844 41.996094 28.527344 41.933594 28.878906 41.878906 C 29.230469 41.828125 29.796875 41.714844 30.148438 41.628906 C 30.5 41.542969 31.0625 41.382812 31.414062 41.265625 C 31.765625 41.152344 32.332031 40.941406 32.683594 40.792969 C 33.035156 40.648438 33.597656 40.390625 33.949219 40.214844 C 34.300781 40.039062 34.867188 39.734375 35.21875 39.53125 C 35.570312 39.328125 36.132812 38.980469 36.484375 38.75 C 36.839844 38.519531 37.402344 38.128906 37.753906 37.875 C 38.105469 37.617188 38.671875 37.1875 39.023438 36.90625 C 39.375 36.628906 39.9375 36.160156 40.289062 35.855469 C 40.640625 35.554688 41.207031 35.050781 41.558594 34.730469 C 41.910156 34.40625 42.472656 33.875 42.824219 33.53125 C 43.175781 33.191406 43.742188 32.628906 44.09375 32.269531 C 44.445312 31.914062 45.007812 31.324219 45.359375 30.953125 C 45.710938 30.582031 46.277344 29.972656 46.628906 29.589844 C 46.980469 29.203125 47.542969 28.578125 47.894531 28.183594 C 48.246094 27.789062 48.8125 27.148438 49.164062 26.746094 C 49.515625 26.34375 50.078125 25.695312 50.429688 25.289062 C 50.785156 24.882812 51.347656 24.222656 51.699219 23.816406 C 52.050781 23.40625 52.613281 22.746094 52.96875 22.335938 C 53.320312 21.925781 53.882812 21.269531 54.234375 20.859375 C 54.585938 20.453125 55.152344 19.800781 55.503906 19.398438 C 55.855469 18.996094 56.417969 18.351562 56.769531 17.957031 C 57.121094 17.5625 57.6875 16.929688 58.039062 16.546875 C 58.390625 16.160156 58.953125 15.546875 59.304688 15.171875 C 59.65625 14.796875 60.222656 14.207031 60.574219 13.84375 C 60.925781 13.484375 61.488281 12.917969 61.839844 12.570312 C 62.191406 12.226562 62.757812 11.6875 63.109375 11.363281 C 63.460938 11.035156 64.023438 10.527344 64.375 10.21875 C 64.726562 9.914062 65.292969 9.4375 65.644531 9.15625 C 65.996094 8.871094 66.558594 8.433594 66.914062 8.171875 C 67.265625 7.910156 67.828125 7.511719 68.179688 7.277344 C 68.53125 7.042969 69.097656 6.6875 69.449219 6.476562 C 69.800781 6.269531 70.363281 5.957031 70.714844 5.773438 C 71.066406 5.59375 71.632812 5.328125 71.984375 5.175781 C 72.335938 5.023438 72.898438 4.804688 73.25 4.683594 C 73.601562 4.5625 74.167969 4.390625 74.519531 4.296875 C 74.871094 4.207031 75.433594 4.085938 75.785156 4.027344 C 76.136719 3.964844 76.703125 3.894531 77.054688 3.867188 C 77.40625 3.839844 77.96875 3.820312 78.320312 3.820312 C 78.671875 3.824219 79.238281 3.855469 79.589844 3.890625 C 79.941406 3.925781 80.503906 4.007812 80.855469 4.074219 C 81.210938 4.140625 81.773438 4.273438 82.125 4.371094 C 82.476562 4.46875 83.042969 4.648438 83.394531 4.777344 C 83.746094 4.90625 84.308594 5.136719 84.660156 5.292969 C 85.011719 5.453125 85.578125 5.730469 85.929688 5.914062 C 86.28125 6.101562 86.84375 6.425781 87.195312 6.640625 C 87.546875 6.851562 88.113281 7.21875 88.464844 7.460938 C 88.816406 7.699219 89.378906 8.109375 89.730469 8.375 C 90.082031 8.640625 90.648438 9.085938 91 9.375 C 91.351562 9.664062 91.914062 10.144531 92.265625 10.457031 C 92.617188 10.765625 93.183594 11.28125 93.535156 11.613281 C 93.886719 11.941406 94.449219 12.488281 94.800781 12.835938 C 95.15625 13.183594 95.71875 13.757812 96.070312 14.121094 C 96.421875 14.484375 96.984375 15.082031 97.339844 15.460938 C 97.691406 15.835938 98.253906 16.453125 98.605469 16.84375 C 98.957031 17.230469 99.523438 17.863281 99.875 18.261719 C 100.226562 18.65625 100.789062 19.304688 101.140625 19.707031 C 101.492188 20.113281 102.058594 20.765625 102.410156 21.171875 C 102.761719 21.582031 103.324219 22.238281 103.675781 22.648438 C 104.027344 23.058594 104.59375 23.71875 104.945312 24.128906 C 105.296875 24.539062 105.859375 25.191406 106.210938 25.597656 C 106.5625 26.003906 107.128906 26.652344 107.480469 27.054688 C 107.832031 27.453125 108.394531 28.09375 108.746094 28.484375 C 109.097656 28.878906 109.664062 29.5 110.015625 29.882812 C 110.367188 30.265625 110.929688 30.867188 111.285156 31.238281 C 111.636719 31.605469 112.199219 32.1875 112.550781 32.542969 C 112.902344 32.898438 113.46875 33.453125 113.820312 33.792969 C 114.171875 34.128906 114.734375 34.65625 115.085938 34.976562 C 115.4375 35.292969 116.003906 35.789062 116.355469 36.085938 C 116.707031 36.382812 117.269531 36.84375 117.621094 37.121094 C 117.972656 37.394531 118.539062 37.816406 118.890625 38.066406 C 119.242188 38.316406 119.804688 38.699219 120.15625 38.925781 C 120.507812 39.148438 121.074219 39.488281 121.425781 39.6875 C 121.777344 39.882812 122.339844 40.179688 122.691406 40.347656 C 123.042969 40.515625 123.609375 40.765625 123.960938 40.902344 C 124.3125 41.042969 124.875 41.242188 125.230469 41.351562 C 125.582031 41.460938 126.144531 41.613281 126.496094 41.691406 C 126.847656 41.769531 127.414062 41.871094 127.765625 41.917969 C 128.117188 41.964844 128.679688 42.015625 129.03125 42.03125 C 129.382812 42.046875 129.949219 42.046875 130.300781 42.03125 C 130.652344 42.015625 131.214844 41.964844 131.566406 41.914062 C 131.917969 41.867188 132.484375 41.765625 132.835938 41.6875 C 133.1875 41.605469 133.75 41.453125 134.101562 41.34375 C 134.453125 41.234375 135.019531 41.035156 135.371094 40.894531 C 135.722656 40.753906 136.285156 40.503906 136.636719 40.335938 C 136.988281 40.164062 137.554688 39.867188 137.90625 39.671875 C 138.257812 39.472656 138.820312 39.132812 139.171875 38.90625 C 139.527344 38.683594 140.089844 38.300781 140.441406 38.046875 C 140.792969 37.796875 141.359375 37.375 141.710938 37.097656 C 142.0625 36.824219 142.625 36.363281 142.976562 36.066406 C 143.328125 35.765625 143.894531 35.269531 144.246094 34.953125 C 144.597656 34.632812 145.160156 34.105469 145.511719 33.765625 C 145.863281 33.429688 146.429688 32.871094 146.78125 32.515625 C 147.132812 32.164062 147.695312 31.578125 148.046875 31.210938 C 148.398438 30.839844 148.964844 30.234375 149.316406 29.855469 C 149.667969 29.472656 150.230469 28.847656 150.582031 28.457031 C 150.933594 28.0625 151.5 27.425781 151.851562 27.023438 C 152.203125 26.625 152.765625 25.976562 153.117188 25.570312 C 153.472656 25.164062 154.035156 24.507812 154.386719 24.097656 C 154.738281 23.6875 155.300781 23.03125 155.65625 22.621094 C 156.007812 22.210938 156.570312 21.550781 156.921875 21.144531 C 157.273438 20.734375 157.839844 20.082031 158.191406 19.675781 C 158.542969 19.273438 159.105469 18.628906 159.457031 18.230469 C 159.808594 17.832031 160.375 17.203125 160.726562 16.8125 C 161.078125 16.425781 161.640625 15.808594 161.992188 15.433594 C 162.34375 15.054688 162.910156 14.457031 163.261719 14.09375 C 163.613281 13.730469 164.175781 13.160156 164.527344 12.8125 C 164.878906 12.464844 165.445312 11.917969 165.796875 11.589844 C 166.148438 11.257812 166.710938 10.742188 167.0625 10.433594 C 167.414062 10.125 167.980469 9.640625 168.332031 9.351562 C 168.683594 9.066406 169.246094 8.621094 169.601562 8.355469 C 169.953125 8.089844 170.515625 7.683594 170.867188 7.441406 C 171.21875 7.203125 171.785156 6.835938 172.136719 6.625 C 172.488281 6.410156 173.050781 6.089844 173.402344 5.902344 C 173.753906 5.714844 174.320312 5.441406 174.671875 5.28125 C 175.023438 5.125 175.585938 4.894531 175.9375 4.769531 C 176.289062 4.640625 176.855469 4.460938 177.207031 4.363281 C 177.558594 4.265625 178.121094 4.136719 178.472656 4.070312 C 178.824219 4.003906 179.390625 3.921875 179.742188 3.890625 C 180.09375 3.855469 180.65625 3.824219 181.007812 3.820312 C 181.359375 3.820312 181.925781 3.839844 182.277344 3.867188 C 182.628906 3.898438 183.191406 3.96875 183.542969 4.03125 C 183.898438 4.089844 184.460938 4.214844 184.8125 4.304688 C 185.164062 4.398438 185.730469 4.570312 186.082031 4.691406 C 186.433594 4.8125 186.996094 5.035156 187.347656 5.1875 C 187.699219 5.339844 188.265625 5.605469 188.617188 5.789062 C 188.96875 5.96875 189.53125 6.285156 189.882812 6.492188 C 190.234375 6.703125 190.800781 7.058594 191.152344 7.296875 C 191.503906 7.53125 192.066406 7.929688 192.417969 8.191406 C 192.769531 8.453125 193.335938 8.890625 193.6875 9.175781 C 194.039062 9.460938 194.601562 9.9375 194.953125 10.242188 C 195.304688 10.550781 195.871094 11.058594 196.222656 11.386719 C 196.574219 11.710938 197.136719 12.253906 197.488281 12.597656 C 197.84375 12.941406 198.40625 13.511719 198.757812 13.871094 C 199.109375 14.230469 199.671875 14.824219 200.027344 15.199219 C 200.378906 15.574219 200.941406 16.1875 201.292969 16.574219 C 201.644531 16.960938 202.210938 17.589844 202.5625 17.984375 C 202.914062 18.382812 203.476562 19.023438 203.828125 19.429688 C 204.179688 19.832031 204.746094 20.484375 205.097656 20.890625 C 205.449219 21.296875 206.011719 21.957031 206.363281 22.367188 C 206.714844 22.777344 207.28125 23.433594 207.632812 23.84375 C 207.984375 24.253906 208.546875 24.910156 208.898438 25.316406 C 209.25 25.726562 209.816406 26.375 210.167969 26.777344 C 210.519531 27.179688 211.082031 27.820312 211.433594 28.210938 C 211.785156 28.605469 212.351562 29.234375 212.703125 29.617188 C 213.054688 30 213.617188 30.609375 213.972656 30.980469 C 214.324219 31.351562 214.886719 31.941406 215.238281 32.296875 C 215.589844 32.65625 216.15625 33.214844 216.507812 33.558594 C 216.859375 33.898438 217.421875 34.433594 217.773438 34.753906 C 218.125 35.074219 218.691406 35.578125 219.042969 35.878906 C 219.394531 36.179688 219.957031 36.648438 220.308594 36.929688 C 220.660156 37.207031 221.226562 37.636719 221.578125 37.890625 C 221.929688 38.148438 222.492188 38.539062 222.84375 38.765625 C 223.195312 38.996094 223.761719 39.34375 224.113281 39.546875 C 224.464844 39.75 225.027344 40.054688 225.378906 40.226562 C 225.730469 40.402344 226.296875 40.660156 226.648438 40.804688 C 227 40.949219 227.5625 41.160156 227.917969 41.273438 C 228.269531 41.390625 228.832031 41.550781 229.183594 41.636719 C 229.535156 41.71875 230.101562 41.832031 230.453125 41.882812 C 230.804688 41.9375 231.367188 41.996094 231.71875 42.019531 C 232.070312 42.039062 232.636719 42.050781 232.988281 42.039062 C 233.339844 42.03125 233.902344 41.988281 234.253906 41.945312 C 234.605469 41.90625 235.171875 41.8125 235.523438 41.738281 C 235.875 41.664062 236.4375 41.523438 236.789062 41.417969 C 237.140625 41.316406 237.707031 41.121094 238.058594 40.988281 C 238.410156 40.855469 238.972656 40.613281 239.324219 40.449219 C 239.675781 40.285156 240.242188 40 240.59375 39.804688 C 240.945312 39.613281 241.507812 39.28125 241.859375 39.0625 C 242.214844 38.839844 242.777344 38.464844 243.128906 38.21875 C 243.480469 37.972656 244.046875 37.558594 244.398438 37.289062 C 244.75 37.015625 245.3125 36.5625 245.664062 36.269531 C 246.015625 35.976562 246.582031 35.484375 246.933594 35.171875 C 247.285156 34.855469 247.847656 34.332031 248.199219 34 C 248.550781 33.664062 249.117188 33.113281 249.46875 32.761719 C 249.820312 32.410156 250.382812 31.832031 250.734375 31.464844 C 251.085938 31.097656 251.652344 30.496094 252.003906 30.117188 C 252.355469 29.738281 253.269531 28.726562 253.269531 28.726562 L 253.269531 55.363281 C 253.269531 55.363281 252.355469 54.355469 252.003906 53.972656 C 251.652344 53.59375 251.085938 52.992188 250.734375 52.625 C 250.382812 52.257812 249.820312 51.679688 249.46875 51.328125 C 249.117188 50.976562 248.550781 50.425781 248.199219 50.09375 C 247.847656 49.757812 247.285156 49.234375 246.933594 48.921875 C 246.582031 48.605469 246.015625 48.117188 245.664062 47.820312 C 245.3125 47.527344 244.75 47.074219 244.398438 46.804688 C 244.046875 46.53125 243.480469 46.117188 243.128906 45.871094 C 242.777344 45.625 242.214844 45.25 241.859375 45.03125 C 241.507812 44.808594 240.945312 44.476562 240.59375 44.285156 C 240.242188 44.09375 239.675781 43.804688 239.324219 43.640625 C 238.972656 43.476562 238.410156 43.238281 238.058594 43.101562 C 237.707031 42.96875 237.140625 42.777344 236.789062 42.671875 C 236.4375 42.570312 235.875 42.425781 235.523438 42.351562 C 235.171875 42.28125 234.605469 42.1875 234.253906 42.144531 C 233.902344 42.101562 233.339844 42.0625 232.988281 42.050781 C 232.636719 42.042969 232.070312 42.050781 231.71875 42.074219 C 231.367188 42.09375 230.804688 42.152344 230.453125 42.207031 C 230.101562 42.261719 229.535156 42.371094 229.183594 42.457031 C 228.832031 42.539062 228.269531 42.699219 227.917969 42.816406 C 227.5625 42.929688 227 43.140625 226.648438 43.285156 C 226.296875 43.433594 225.730469 43.6875 225.378906 43.863281 C 225.027344 44.039062 224.464844 44.339844 224.113281 44.542969 C 223.761719 44.746094 223.195312 45.09375 222.84375 45.324219 C 222.492188 45.554688 221.929688 45.945312 221.578125 46.199219 C 221.226562 46.453125 220.660156 46.882812 220.308594 47.164062 C 219.957031 47.441406 219.394531 47.910156 219.042969 48.210938 C 218.691406 48.511719 218.125 49.015625 217.773438 49.335938 C 217.421875 49.660156 216.859375 50.191406 216.507812 50.535156 C 216.15625 50.875 215.589844 51.4375 215.238281 51.792969 C 214.886719 52.152344 214.324219 52.738281 213.972656 53.109375 C 213.617188 53.480469 213.054688 54.089844 212.703125 54.472656 C 212.351562 54.859375 211.785156 55.484375 211.433594 55.878906 C 211.082031 56.273438 210.519531 56.914062 210.167969 57.316406 C 209.816406 57.714844 209.25 58.367188 208.898438 58.773438 C 208.546875 59.179688 207.984375 59.835938 207.632812 60.246094 C 207.28125 60.65625 206.714844 61.316406 206.363281 61.726562 C 206.011719 62.136719 205.449219 62.792969 205.097656 63.199219 C 204.746094 63.609375 204.179688 64.261719 203.828125 64.664062 C 203.476562 65.066406 202.914062 65.710938 202.5625 66.105469 C 202.210938 66.5 201.644531 67.132812 201.292969 67.519531 C 200.941406 67.90625 200.378906 68.515625 200.027344 68.890625 C 199.671875 69.265625 199.109375 69.859375 198.757812 70.21875 C 198.40625 70.582031 197.84375 71.148438 197.488281 71.492188 C 197.136719 71.839844 196.574219 72.378906 196.222656 72.707031 C 195.871094 73.03125 195.304688 73.542969 194.953125 73.847656 C 194.601562 74.15625 194.039062 74.632812 193.6875 74.914062 C 193.335938 75.199219 192.769531 75.640625 192.417969 75.898438 C 192.066406 76.160156 191.503906 76.5625 191.152344 76.796875 C 190.800781 77.03125 190.234375 77.390625 189.882812 77.597656 C 189.53125 77.808594 188.96875 78.121094 188.617188 78.304688 C 188.265625 78.484375 187.699219 78.753906 187.347656 78.90625 C 186.996094 79.058594 186.433594 79.277344 186.082031 79.398438 C 185.730469 79.523438 185.164062 79.695312 184.8125 79.785156 C 184.460938 79.878906 183.898438 80 183.542969 80.0625 C 183.191406 80.121094 182.628906 80.195312 182.277344 80.222656 C 181.925781 80.25 181.359375 80.273438 181.007812 80.269531 C 180.65625 80.265625 180.09375 80.238281 179.742188 80.203125 C 179.390625 80.167969 178.824219 80.085938 178.472656 80.023438 C 178.121094 79.957031 177.558594 79.824219 177.207031 79.726562 C 176.855469 79.632812 176.289062 79.449219 175.9375 79.324219 C 175.585938 79.195312 175.023438 78.964844 174.671875 78.808594 C 174.320312 78.652344 173.753906 78.375 173.402344 78.191406 C 173.050781 78.003906 172.488281 77.683594 172.136719 77.46875 C 171.785156 77.253906 171.21875 76.890625 170.867188 76.648438 C 170.515625 76.410156 169.953125 76.003906 169.601562 75.738281 C 169.246094 75.472656 168.683594 75.027344 168.332031 74.738281 C 167.980469 74.449219 167.414062 73.96875 167.0625 73.65625 C 166.710938 73.347656 166.148438 72.832031 165.796875 72.503906 C 165.445312 72.171875 164.878906 71.628906 164.527344 71.28125 C 164.175781 70.933594 163.613281 70.359375 163.261719 69.996094 C 162.910156 69.632812 162.34375 69.035156 161.992188 68.660156 C 161.640625 68.28125 161.078125 67.667969 160.726562 67.277344 C 160.375 66.890625 159.808594 66.257812 159.457031 65.859375 C 159.105469 65.464844 158.542969 64.816406 158.191406 64.414062 C 157.839844 64.011719 157.273438 63.355469 156.921875 62.949219 C 156.570312 62.539062 156.007812 61.882812 155.65625 61.472656 C 155.300781 61.0625 154.738281 60.402344 154.386719 59.992188 C 154.035156 59.585938 153.472656 58.929688 153.117188 58.523438 C 152.765625 58.117188 152.203125 57.46875 151.851562 57.066406 C 151.5 56.667969 150.933594 56.027344 150.582031 55.636719 C 150.230469 55.242188 149.667969 54.621094 149.316406 54.238281 C 148.964844 53.855469 148.398438 53.25 148.046875 52.882812 C 147.695312 52.511719 147.132812 51.929688 146.78125 51.574219 C 146.429688 51.21875 145.863281 50.664062 145.511719 50.324219 C 145.160156 49.988281 144.597656 49.457031 144.246094 49.140625 C 143.894531 48.820312 143.328125 48.324219 142.976562 48.027344 C 142.625 47.730469 142.0625 47.269531 141.710938 46.992188 C 141.359375 46.71875 140.792969 46.292969 140.441406 46.042969 C 140.089844 45.792969 139.527344 45.410156 139.171875 45.183594 C 138.820312 44.957031 138.257812 44.617188 137.90625 44.421875 C 137.554688 44.222656 136.988281 43.925781 136.636719 43.757812 C 136.285156 43.585938 135.722656 43.339844 135.371094 43.199219 C 135.019531 43.058594 134.453125 42.855469 134.101562 42.746094 C 133.75 42.636719 133.1875 42.484375 132.835938 42.40625 C 132.484375 42.324219 131.917969 42.222656 131.566406 42.175781 C 131.214844 42.128906 130.652344 42.078125 130.300781 42.0625 C 129.949219 42.042969 129.382812 42.042969 129.03125 42.058594 C 128.679688 42.074219 128.117188 42.125 127.765625 42.171875 C 127.414062 42.21875 126.847656 42.320312 126.496094 42.398438 C 126.144531 42.476562 125.582031 42.628906 125.230469 42.738281 C 124.875 42.847656 124.3125 43.046875 123.960938 43.1875 C 123.609375 43.328125 123.042969 43.574219 122.691406 43.746094 C 122.339844 43.914062 121.777344 44.207031 121.425781 44.40625 C 121.074219 44.601562 120.507812 44.941406 120.15625 45.167969 C 119.804688 45.390625 119.242188 45.773438 118.890625 46.023438 C 118.539062 46.273438 117.972656 46.699219 117.621094 46.972656 C 117.269531 47.246094 116.707031 47.707031 116.355469 48.003906 C 116.003906 48.300781 115.4375 48.796875 115.085938 49.117188 C 114.734375 49.433594 114.171875 49.960938 113.820312 50.300781 C 113.46875 50.636719 112.902344 51.195312 112.550781 51.546875 C 112.199219 51.902344 111.636719 52.484375 111.285156 52.855469 C 110.929688 53.222656 110.367188 53.828125 110.015625 54.210938 C 109.664062 54.589844 109.097656 55.214844 108.746094 55.605469 C 108.394531 56 107.832031 56.636719 107.480469 57.039062 C 107.128906 57.4375 106.5625 58.085938 106.210938 58.492188 C 105.859375 58.898438 105.296875 59.554688 104.945312 59.964844 C 104.59375 60.371094 104.027344 61.03125 103.675781 61.441406 C 103.324219 61.851562 102.761719 62.511719 102.410156 62.917969 C 102.058594 63.328125 101.492188 63.980469 101.140625 64.382812 C 100.789062 64.789062 100.226562 65.433594 99.875 65.832031 C 99.523438 66.230469 98.957031 66.859375 98.605469 67.25 C 98.253906 67.636719 97.691406 68.253906 97.339844 68.632812 C 96.984375 69.007812 96.421875 69.605469 96.070312 69.96875 C 95.71875 70.332031 95.15625 70.90625 94.800781 71.253906 C 94.449219 71.601562 93.886719 72.148438 93.535156 72.480469 C 93.183594 72.808594 92.617188 73.324219 92.265625 73.636719 C 91.914062 73.945312 91.351562 74.429688 91 74.71875 C 90.648438 75.007812 90.082031 75.453125 89.730469 75.71875 C 89.378906 75.984375 88.816406 76.390625 88.464844 76.632812 C 88.113281 76.871094 87.546875 77.238281 87.195312 77.453125 C 86.84375 77.667969 86.28125 77.988281 85.929688 78.175781 C 85.578125 78.363281 85.011719 78.640625 84.660156 78.796875 C 84.308594 78.957031 83.746094 79.183594 83.394531 79.3125 C 83.042969 79.441406 82.476562 79.625 82.125 79.722656 C 81.773438 79.816406 81.210938 79.949219 80.855469 80.015625 C 80.503906 80.082031 79.941406 80.164062 79.589844 80.199219 C 79.238281 80.234375 78.671875 80.265625 78.320312 80.269531 C 77.96875 80.273438 77.40625 80.253906 77.054688 80.222656 C 76.703125 80.195312 76.136719 80.125 75.785156 80.066406 C 75.433594 80.003906 74.871094 79.882812 74.519531 79.792969 C 74.167969 79.703125 73.601562 79.53125 73.25 79.410156 C 72.898438 79.289062 72.335938 79.066406 71.984375 78.914062 C 71.632812 78.765625 71.066406 78.496094 70.714844 78.316406 C 70.363281 78.136719 69.800781 77.824219 69.449219 77.613281 C 69.097656 77.40625 68.53125 77.050781 68.179688 76.8125 C 67.828125 76.578125 67.265625 76.179688 66.914062 75.917969 C 66.558594 75.660156 65.996094 75.222656 65.644531 74.9375 C 65.292969 74.652344 64.726562 74.175781 64.375 73.871094 C 64.023438 73.566406 63.460938 73.054688 63.109375 72.730469 C 62.757812 72.402344 62.191406 71.863281 61.839844 71.519531 C 61.488281 71.175781 60.925781 70.609375 60.574219 70.246094 C 60.222656 69.886719 59.65625 69.292969 59.304688 68.917969 C 58.953125 68.546875 58.390625 67.933594 58.039062 67.546875 C 57.6875 67.160156 57.121094 66.53125 56.769531 66.132812 C 56.417969 65.738281 55.855469 65.097656 55.503906 64.691406 C 55.152344 64.289062 54.585938 63.636719 54.234375 63.230469 C 53.882812 62.824219 53.320312 62.164062 52.96875 61.753906 C 52.613281 61.347656 52.050781 60.6875 51.699219 60.277344 C 51.347656 59.867188 50.785156 59.210938 50.429688 58.804688 C 50.078125 58.398438 49.515625 57.746094 49.164062 57.34375 C 48.8125 56.941406 48.246094 56.300781 47.894531 55.90625 C 47.542969 55.515625 46.980469 54.886719 46.628906 54.503906 C 46.277344 54.117188 45.710938 53.511719 45.359375 53.136719 C 45.007812 52.765625 44.445312 52.179688 44.09375 51.820312 C 43.742188 51.460938 43.175781 50.902344 42.824219 50.558594 C 42.472656 50.21875 41.910156 49.683594 41.558594 49.363281 C 41.207031 49.039062 40.640625 48.535156 40.289062 48.234375 C 39.9375 47.933594 39.375 47.464844 39.023438 47.183594 C 38.671875 46.90625 38.105469 46.472656 37.753906 46.21875 C 37.402344 45.960938 36.839844 45.570312 36.484375 45.339844 C 36.132812 45.109375 35.570312 44.761719 35.21875 44.558594 C 34.867188 44.355469 34.300781 44.050781 33.949219 43.875 C 33.597656 43.703125 33.035156 43.441406 32.683594 43.296875 C 32.332031 43.152344 31.765625 42.941406 31.414062 42.824219 C 31.0625 42.707031 30.5 42.546875 30.148438 42.460938 C 29.796875 42.378906 29.230469 42.265625 28.878906 42.210938 C 28.527344 42.15625 27.964844 42.097656 27.613281 42.074219 C 27.261719 42.050781 26.695312 42.042969 26.34375 42.050781 C 25.992188 42.058594 25.429688 42.101562 25.078125 42.140625 C 24.726562 42.183594 24.160156 42.273438 23.808594 42.347656 C 23.457031 42.417969 22.894531 42.5625 22.542969 42.664062 C 22.1875 42.769531 21.625 42.960938 21.273438 43.09375 C 20.921875 43.226562 20.355469 43.464844 20.003906 43.628906 C 19.652344 43.792969 19.089844 44.078125 18.738281 44.269531 C 18.386719 44.464844 17.820312 44.792969 17.46875 45.011719 C 17.117188 45.234375 16.554688 45.605469 16.203125 45.851562 C 15.851562 46.097656 15.285156 46.511719 14.933594 46.785156 C 14.582031 47.054688 14.019531 47.507812 13.667969 47.800781 C 13.316406 48.09375 12.75 48.582031 12.398438 48.898438 C 12.046875 49.210938 11.484375 49.734375 11.132812 50.066406 C 10.78125 50.402344 10.214844 50.953125 9.863281 51.304688 C 9.511719 51.65625 8.949219 52.234375 8.597656 52.597656 C 8.242188 52.964844 7.679688 53.566406 7.328125 53.945312 C 6.976562 54.324219 6.414062 54.945312 6.058594 55.335938 C 5.707031 55.726562 5.144531 56.363281 4.792969 56.761719 C 4.441406 57.160156 3.875 57.804688 3.523438 58.210938 C 3.171875 58.617188 2.609375 59.273438 2.257812 59.679688 C 1.90625 60.089844 0.988281 61.15625 0.988281 61.15625 Z M 0.988281 22.933594 "/>
</g>
<g clip-path="url(#clip2)" clip-rule="nonzero">
<path style="fill:none;stroke-width:1.59404;stroke-linecap:butt;stroke-linejoin:miter;stroke:rgb(0%,0%,0%);stroke-opacity:1;stroke-miterlimit:10;" d="M -0.00107963 61.848786 C -0.00107963 61.848786 0.927241 60.766404 1.282768 60.355573 C 1.638295 59.940791 2.207138 59.277141 2.562665 58.87026 C 2.918192 58.459428 3.490986 57.803678 3.846513 57.400748 C 4.20204 56.997817 4.770883 56.357868 5.12641 55.962838 C 5.485888 55.567808 6.054731 54.939711 6.410258 54.556531 C 6.765785 54.173352 7.334628 53.565006 7.694106 53.193678 C 8.049633 52.82235 8.618476 52.237705 8.974003 51.882178 C 9.32953 51.526651 9.902324 50.969659 10.257851 50.633883 C 10.613378 50.294157 11.182221 49.768767 11.537748 49.448793 C 11.893275 49.132769 12.466069 48.638981 12.821596 48.338759 C 13.177123 48.042486 13.745966 47.584251 14.101493 47.31168 C 14.45702 47.03911 15.029814 46.620378 15.385341 46.371509 C 15.740868 46.12264 16.309711 45.743411 16.665238 45.522194 C 17.020765 45.300978 17.593559 44.965202 17.949086 44.771637 C 18.304613 44.578073 18.873456 44.289701 19.228983 44.123788 C 19.58451 43.957875 20.157304 43.716907 20.512831 43.578647 C 20.868358 43.444336 21.437201 43.250772 21.796678 43.148064 C 22.152205 43.041406 22.721049 42.899195 23.076576 42.824139 C 23.432103 42.753034 24.004896 42.658227 24.360423 42.618724 C 24.71595 42.57527 25.284794 42.535767 25.640321 42.527867 C 25.995848 42.516016 26.568641 42.527867 26.924168 42.551568 C 27.279695 42.57132 27.848538 42.634525 28.204066 42.689829 C 28.559593 42.741183 29.132386 42.855742 29.487913 42.942648 C 29.84344 43.029555 30.412283 43.191517 30.767811 43.310026 C 31.123338 43.424585 31.696131 43.637901 32.051658 43.788012 C 32.407185 43.934174 32.976028 44.194893 33.331556 44.372657 C 33.687083 44.55042 34.259876 44.858544 34.615403 45.06396 C 34.97093 45.269375 35.539773 45.620952 35.895301 45.85402 C 36.254778 46.087087 36.823621 46.482117 37.179148 46.738887 C 37.534675 46.999607 38.107469 47.43414 38.462996 47.718561 C 38.818523 47.999033 39.387366 48.473069 39.742893 48.781192 C 40.09842 49.085365 40.671214 49.594954 41.026741 49.918879 C 41.382268 50.246754 41.951111 50.783995 42.306638 51.131621 C 42.662165 51.475297 43.234959 52.04414 43.590486 52.407568 C 43.946013 52.767045 44.514856 53.363541 44.870383 53.738819 C 45.22591 54.114098 45.798704 54.730345 46.154231 55.117474 C 46.509758 55.508554 47.078601 56.140602 47.434128 56.539582 C 47.789655 56.938563 48.362449 57.586412 48.717976 57.993293 C 49.073503 58.400174 49.642346 59.055924 49.997873 59.466755 C 50.35735 59.877586 50.926194 60.545187 51.281721 60.956018 C 51.637248 61.3708 52.206091 62.038401 52.565568 62.453182 C 52.921095 62.867964 53.489939 63.531614 53.845466 63.946396 C 54.200993 64.357227 54.773786 65.016927 55.129313 65.423808 C 55.48484 65.830689 56.053684 66.482489 56.409211 66.881469 C 56.764738 67.280449 57.337531 67.920398 57.693058 68.307527 C 58.048585 68.698607 58.617429 69.318804 58.972956 69.698033 C 59.328483 70.077262 59.901276 70.673757 60.256803 71.041135 C 60.61233 71.404563 61.181174 71.977356 61.536701 72.328933 C 61.892228 72.67656 62.465021 73.221701 62.820548 73.549576 C 63.176075 73.881401 63.744919 74.39494 64.100446 74.707014 C 64.455973 75.015137 65.028766 75.497074 65.384293 75.781496 C 65.73982 76.069868 66.308664 76.512301 66.668141 76.776971 C 67.023668 77.041642 67.592511 77.444572 67.948038 77.68159 C 68.303565 77.918608 68.876359 78.278086 69.231886 78.491402 C 69.587413 78.700768 70.156256 79.016792 70.511783 79.202456 C 70.86731 79.38417 71.440104 79.65279 71.795631 79.806852 C 72.151158 79.960914 72.720001 80.18213 73.075528 80.30459 C 73.431055 80.427049 74.003849 80.600862 74.359376 80.69567 C 74.714903 80.786526 75.283746 80.908986 75.639273 80.96824 C 75.9948 81.031445 76.567594 81.10255 76.923121 81.130203 C 77.278648 81.157855 77.847491 81.177606 78.203018 81.177606 C 78.558545 81.173656 79.131339 81.142053 79.486866 81.106501 C 79.842393 81.070948 80.411236 80.987992 80.766763 80.920837 C 81.126241 80.853682 81.695084 80.719371 82.050611 80.620614 C 82.406138 80.521856 82.978931 80.340142 83.334459 80.209783 C 83.689986 80.079423 84.258829 79.846355 84.614356 79.688343 C 84.969883 79.526381 85.542676 79.245909 85.898204 79.060245 C 86.253731 78.870631 86.822574 78.542756 87.178101 78.325489 C 87.533628 78.112173 88.106421 77.740845 88.461949 77.495926 C 88.817476 77.254958 89.386319 76.840176 89.741846 76.571556 C 90.097373 76.302935 90.670166 75.852601 91.025693 75.560279 C 91.381221 75.267957 91.950064 74.78207 92.305591 74.466046 C 92.661118 74.153972 93.233911 73.632532 93.589438 73.296757 C 93.944966 72.964932 94.513809 72.411889 94.869336 72.060313 C 95.228813 71.708736 95.797656 71.128042 96.153183 70.760664 C 96.508711 70.393286 97.077554 69.78889 97.437031 69.405711 C 97.792558 69.026482 98.361401 68.402335 98.716928 68.007304 C 99.072455 67.616225 99.645249 66.976276 100.000776 66.573345 C 100.356303 66.174365 100.925146 65.518615 101.280673 65.111734 C 101.6362 64.700903 102.208994 64.041203 102.564521 63.630372 C 102.920048 63.21559 103.488891 62.55194 103.844418 62.137158 C 104.199945 61.722376 104.772739 61.054776 105.128266 60.639994 C 105.483793 60.225213 106.052636 59.565512 106.408163 59.154681 C 106.76369 58.74385 107.336484 58.0881 107.692011 57.681219 C 108.047538 57.278288 108.616381 56.630439 108.971908 56.235409 C 109.327435 55.836429 109.900229 55.208331 110.255756 54.821202 C 110.611283 54.434072 111.180126 53.825726 111.539604 53.450447 C 111.895131 53.079119 112.463974 52.490524 112.819501 52.131047 C 113.175028 51.77157 113.747822 51.210627 114.103349 50.866951 C 114.458876 50.527225 115.027719 49.993934 115.383246 49.67001 C 115.738773 49.350035 116.311567 48.848347 116.667094 48.548125 C 117.022621 48.247902 117.591464 47.781766 117.946991 47.501295 C 118.302518 47.224774 118.875312 46.798141 119.230839 46.545322 C 119.586366 46.292503 120.155209 45.905374 120.510736 45.676256 C 120.866263 45.451089 121.439057 45.107413 121.794584 44.905947 C 122.150111 44.708432 122.718954 44.40821 123.074481 44.238347 C 123.430008 44.068484 124.002802 43.815665 124.358329 43.677404 C 124.713856 43.535193 125.282699 43.333728 125.642176 43.22312 C 125.997703 43.112511 126.566547 42.958449 126.922074 42.879443 C 127.277601 42.800437 127.850394 42.69773 128.205921 42.650326 C 128.561448 42.602922 129.130292 42.551568 129.485819 42.535767 C 129.841346 42.519966 130.414139 42.519966 130.769666 42.535767 C 131.125193 42.551568 131.694037 42.602922 132.049564 42.654276 C 132.405091 42.70168 132.977884 42.804388 133.333411 42.883394 C 133.688938 42.96635 134.257782 43.120412 134.613309 43.23102 C 134.968836 43.341629 135.541629 43.543094 135.897156 43.685305 C 136.252683 43.827515 136.821527 44.080335 137.177054 44.250198 C 137.532581 44.424011 138.105374 44.724234 138.460901 44.921749 C 138.816428 45.123214 139.385272 45.46689 139.740799 45.696008 C 140.100276 45.921175 140.669119 46.308304 141.024646 46.565074 C 141.380173 46.817893 141.952967 47.244525 142.308494 47.524997 C 142.664021 47.801518 143.232864 48.267653 143.588391 48.567876 C 143.943918 48.872049 144.516712 49.373737 144.872239 49.693712 C 145.227766 50.017636 145.796609 50.550927 146.152136 50.894603 C 146.507663 51.234329 147.080457 51.799222 147.435984 52.158699 C 147.791511 52.514226 148.360354 53.106771 148.715881 53.478099 C 149.071408 53.853378 149.644202 54.465675 149.999729 54.848854 C 150.355256 55.235983 150.924099 55.868031 151.279626 56.263061 C 151.635153 56.662042 152.207947 57.305941 152.563474 57.712822 C 152.919001 58.115752 153.487844 58.771502 153.843371 59.182333 C 154.202848 59.593165 154.771692 60.256815 155.127219 60.671597 C 155.482746 61.086378 156.051589 61.750029 156.411066 62.16481 C 156.766593 62.579592 157.335437 63.247192 157.690964 63.658024 C 158.046491 64.072805 158.619284 64.732505 158.974811 65.143337 C 159.330338 65.550218 159.899182 66.202017 160.254709 66.604948 C 160.610236 67.007878 161.183029 67.643877 161.538556 68.038907 C 161.894083 68.429987 162.462927 69.054134 162.818454 69.433363 C 163.173981 69.816542 163.746774 70.420938 164.102301 70.788316 C 164.457828 71.155694 165.026672 71.732438 165.382199 72.084015 C 165.737726 72.435591 166.310519 72.988633 166.666046 73.320459 C 167.021573 73.656234 167.590417 74.177674 167.945944 74.489748 C 168.301471 74.801821 168.874264 75.291659 169.229791 75.583981 C 169.585318 75.872353 170.154162 76.322687 170.513639 76.591307 C 170.869166 76.859928 171.438009 77.270759 171.793536 77.515678 C 172.149063 77.756646 172.721857 78.127974 173.077384 78.34129 C 173.432911 78.558557 174.001754 78.882482 174.357281 79.072096 C 174.712808 79.26171 175.285602 79.538231 175.641129 79.700194 C 175.996656 79.858206 176.565499 80.091274 176.921026 80.217683 C 177.276553 80.348043 177.849347 80.529757 178.204874 80.628514 C 178.560401 80.727272 179.129244 80.857632 179.484771 80.924787 C 179.840298 80.991942 180.413092 81.074898 180.768619 81.106501 C 181.124146 81.142053 181.692989 81.173656 182.048516 81.177606 C 182.404043 81.177606 182.976837 81.157855 183.332364 81.130203 C 183.687891 81.0986 184.256734 81.027495 184.612261 80.96429 C 184.971739 80.905035 185.540582 80.778626 185.896109 80.687769 C 186.251636 80.592962 186.82443 80.419148 187.179957 80.296689 C 187.535484 80.17423 188.104327 79.949063 188.459854 79.795001 C 188.815381 79.640939 189.388175 79.372319 189.743702 79.186655 C 190.099229 79.004941 190.668072 78.684967 191.023599 78.475601 C 191.379126 78.262284 191.95192 77.902807 192.307447 77.661839 C 192.662974 77.424821 193.231817 77.02189 193.587344 76.75722 C 193.942871 76.49255 194.515665 76.050116 194.871192 75.761744 C 195.226719 75.473372 195.795562 74.991436 196.151089 74.683312 C 196.506616 74.371239 197.079409 73.857699 197.434937 73.525874 C 197.790464 73.197999 198.359307 72.648908 198.714834 72.301281 C 199.074311 71.953655 199.643154 71.376911 199.998682 71.013483 C 200.354209 70.650055 200.923052 70.04961 201.282529 69.670381 C 201.638056 69.291152 202.206899 68.670955 202.562427 68.279875 C 202.917954 67.888795 203.490747 67.252797 203.846274 66.853817 C 204.201801 66.450886 204.770644 65.803037 205.126171 65.392206 C 205.481699 64.985325 206.054492 64.325624 206.410019 63.914793 C 206.765546 63.503962 207.334389 62.836361 207.689916 62.42158 C 208.045444 62.006798 208.618237 61.343148 208.973764 60.928366 C 209.329291 60.513585 209.898134 59.849934 210.253661 59.439103 C 210.609189 59.024321 211.181982 58.368571 211.537509 57.96169 C 211.893036 57.55481 212.461879 56.90696 212.817406 56.51193 C 213.172933 56.11295 213.745727 55.476951 214.101254 55.089822 C 214.456781 54.702693 215.025624 54.086446 215.385102 53.711167 C 215.740629 53.335889 216.309472 52.739393 216.664999 52.379916 C 217.020526 52.016488 217.59332 51.451595 217.948847 51.103969 C 218.304374 50.760293 218.873217 50.219102 219.228744 49.895177 C 219.584271 49.571252 220.157065 49.061664 220.512592 48.75749 C 220.868119 48.453317 221.436962 47.979281 221.792489 47.69486 C 222.148016 47.414388 222.72081 46.979855 223.076337 46.723086 C 223.431864 46.462366 224.000707 46.067336 224.356234 45.838218 C 224.711761 45.605151 225.284555 45.253574 225.640082 45.048158 C 225.995609 44.842743 226.564452 44.534619 226.919979 44.360806 C 227.275506 44.183043 227.8483 43.922323 228.203827 43.776162 C 228.559354 43.63 229.128197 43.416684 229.487674 43.302126 C 229.843201 43.183617 230.412045 43.021654 230.767572 42.934748 C 231.123099 42.851791 231.695892 42.737233 232.051419 42.685879 C 232.406946 42.630574 232.97579 42.57132 233.331317 42.547618 C 233.686844 42.527867 234.259637 42.516016 234.615164 42.527867 C 234.970691 42.535767 235.539535 42.579221 235.895062 42.622674 C 236.250589 42.662177 236.823382 42.756984 237.178909 42.83204 C 237.534436 42.907095 238.10328 43.049306 238.458807 43.155964 C 238.814334 43.258672 239.387127 43.456187 239.742654 43.590497 C 240.098181 43.724808 240.667025 43.969726 241.022552 44.135639 C 241.378079 44.301552 241.950872 44.589923 242.306399 44.787438 C 242.661926 44.981003 243.23077 45.316779 243.586297 45.537996 C 243.945774 45.763163 244.514617 46.142392 244.870144 46.39126 C 245.225671 46.640129 245.798465 47.058861 246.153992 47.331432 C 246.509519 47.607953 247.078362 48.066188 247.433889 48.36246 C 247.789416 48.658733 248.36221 49.156471 248.717737 49.472495 C 249.073264 49.792469 249.642107 50.321809 249.997634 50.657585 C 250.353161 50.997311 250.925955 51.554303 251.281482 51.90983 C 251.637009 52.265357 252.205852 52.850002 252.561379 53.22133 C 252.916906 53.592658 253.4897 54.201004 253.845227 54.584184 C 254.200754 54.967363 255.125124 55.990491 255.125124 55.990491 " transform="matrix(0.988849,0,0,-0.988849,0.989349,84.092694)"/>
</g>
<g clip-path="url(#clip3)" clip-rule="nonzero">
<path style="fill:none;stroke-width:1.59404;stroke-linecap:butt;stroke-linejoin:miter;stroke:rgb(0%,0%,0%);stroke-opacity:1;stroke-miterlimit:10;" d="M -0.00107963 23.195096 C -0.00107963 23.195096 0.927241 24.273528 1.282768 24.68831 C 1.638295 25.099141 2.207138 25.762792 2.562665 26.173623 C 2.918192 26.584454 3.490986 27.236254 3.846513 27.639184 C 4.20204 28.042115 4.770883 28.686014 5.12641 29.081044 C 5.485888 29.476074 6.054731 30.104172 6.410258 30.487351 C 6.765785 30.87053 7.334628 31.478876 7.694106 31.850205 C 8.049633 32.217582 8.618476 32.802227 8.974003 33.157754 C 9.32953 33.513281 9.902324 34.070273 10.257851 34.409999 C 10.613378 34.745775 11.182221 35.275115 11.537748 35.591139 C 11.893275 35.911113 12.466069 36.404901 12.821596 36.701173 C 13.177123 36.997446 13.745966 37.455681 14.101493 37.728252 C 14.45702 38.004773 15.029814 38.423504 15.385341 38.672373 C 15.740868 38.921242 16.309711 39.296521 16.665238 39.521688 C 17.020765 39.742905 17.593559 40.07473 17.949086 40.272245 C 18.304613 40.46581 18.873456 40.754182 19.228983 40.920094 C 19.58451 41.086007 20.157304 41.326975 20.512831 41.461286 C 20.868358 41.595596 21.437201 41.78916 21.796678 41.895819 C 22.152205 41.998526 22.721049 42.144687 23.076576 42.215793 C 23.432103 42.290849 24.004896 42.381706 24.360423 42.425159 C 24.71595 42.464662 25.284794 42.508115 25.640321 42.516016 C 25.995848 42.523916 26.568641 42.516016 26.924168 42.492314 C 27.279695 42.468612 27.848538 42.409358 28.204066 42.354053 C 28.559593 42.298749 29.132386 42.18419 29.487913 42.101234 C 29.84344 42.014328 30.412283 41.852365 30.767811 41.733856 C 31.123338 41.615347 31.696131 41.402031 32.051658 41.25587 C 32.407185 41.109709 32.976028 40.845039 33.331556 40.671225 C 33.687083 40.493462 34.259876 40.185338 34.615403 39.979923 C 34.97093 39.774507 35.539773 39.42293 35.895301 39.189863 C 36.254778 38.956795 36.823621 38.561765 37.179148 38.301045 C 37.534675 38.044276 38.107469 37.605792 38.462996 37.325321 C 38.818523 37.040899 39.387366 36.566863 39.742893 36.26269 C 40.09842 35.958517 40.671214 35.448928 41.026741 35.121053 C 41.382268 34.797129 41.951111 34.255938 42.306638 33.912261 C 42.662165 33.564635 43.234959 32.999742 43.590486 32.636314 C 43.946013 32.272887 44.514856 31.680342 44.870383 31.305063 C 45.22591 30.925834 45.798704 30.313538 46.154231 29.922458 C 46.509758 29.535328 47.078601 28.89933 47.434128 28.5043 C 47.789655 28.10532 48.362449 27.45747 48.717976 27.050589 C 49.073503 26.643709 49.642346 25.984008 49.997873 25.573177 C 50.35735 25.162346 50.926194 24.498695 51.281721 24.083914 C 51.637248 23.669132 52.206091 23.001532 52.565568 22.5907 C 52.921095 22.175919 53.489939 21.508318 53.845466 21.097487 C 54.200993 20.686655 54.773786 20.026955 55.129313 19.620074 C 55.48484 19.209243 56.053684 18.561394 56.409211 18.162413 C 56.764738 17.759483 57.337531 17.123484 57.693058 16.732405 C 58.048585 16.341325 58.617429 15.721128 58.972956 15.345849 C 59.328483 14.96662 59.901276 14.366175 60.256803 14.002747 C 60.61233 13.635369 61.181174 13.062576 61.536701 12.714949 C 61.892228 12.367323 62.465021 11.822181 62.820548 11.490356 C 63.176075 11.162481 63.744919 10.644992 64.100446 10.336868 C 64.455973 10.028745 65.028766 9.546808 65.384293 9.258436 C 65.73982 8.970064 66.308664 8.527631 66.668141 8.266911 C 67.023668 8.002241 67.592511 7.59931 67.948038 7.362292 C 68.303565 7.121324 68.876359 6.761846 69.231886 6.55248 C 69.587413 6.339164 70.156256 6.02314 70.511783 5.841426 C 70.86731 5.659713 71.440104 5.387142 71.795631 5.23703 C 72.151158 5.082969 72.720001 4.857802 73.075528 4.735342 C 73.431055 4.612883 74.003849 4.43907 74.359376 4.348213 C 74.714903 4.257356 75.283746 4.134897 75.639273 4.071692 C 75.9948 4.012437 76.567594 3.941332 76.923121 3.91368 C 77.278648 3.882077 77.847491 3.862326 78.203018 3.866276 C 78.558545 3.870226 79.131339 3.901829 79.486866 3.937382 C 79.842393 3.972934 80.411236 4.055891 80.766763 4.123046 C 81.126241 4.190201 81.695084 4.324511 82.050611 4.419318 C 82.406138 4.518076 82.978931 4.70374 83.334459 4.8341 C 83.689986 4.96446 84.258829 5.193577 84.614356 5.355539 C 84.969883 5.513551 85.542676 5.794023 85.898204 5.983637 C 86.253731 6.173252 86.822574 6.497176 87.178101 6.714443 C 87.533628 6.931709 88.106421 7.303038 88.461949 7.544006 C 88.817476 7.788925 89.386319 8.199756 89.741846 8.468376 C 90.097373 8.736997 90.670166 9.187331 91.025693 9.479653 C 91.381221 9.771975 91.950064 10.261813 92.305591 10.573886 C 92.661118 10.88991 93.233911 11.41135 93.589438 11.743175 C 93.944966 12.078951 94.513809 12.631993 94.869336 12.98357 C 95.228813 13.335146 95.797656 13.915841 96.153183 14.283218 C 96.508711 14.650596 97.077554 15.254992 97.437031 15.634221 C 97.792558 16.0174 98.361401 16.641548 98.716928 17.032628 C 99.072455 17.427658 99.645249 18.063656 100.000776 18.466587 C 100.356303 18.869517 100.925146 19.521317 101.280673 19.932148 C 101.6362 20.339029 102.208994 20.998729 102.564521 21.413511 C 102.920048 21.824342 103.488891 22.491943 103.844418 22.906724 C 104.199945 23.321506 104.772739 23.989107 105.128266 24.399938 C 105.483793 24.814719 106.052636 25.47837 106.408163 25.889201 C 106.76369 26.300032 107.336484 26.955782 107.692011 27.358713 C 108.047538 27.765594 108.616381 28.409493 108.971908 28.808473 C 109.327435 29.203503 109.900229 29.835551 110.255756 30.21873 C 110.611283 30.60586 111.180126 31.218156 111.539604 31.589485 C 111.895131 31.964763 112.463974 32.553358 112.819501 32.912835 C 113.175028 33.268362 113.747822 33.833255 114.103349 34.172981 C 114.458876 34.516657 115.027719 35.049948 115.383246 35.369922 C 115.738773 35.693847 116.311567 36.195535 116.667094 36.495758 C 117.022621 36.795981 117.591464 37.262116 117.946991 37.538637 C 118.302518 37.815158 118.875312 38.245741 119.230839 38.49856 C 119.586366 38.751379 120.155209 39.138509 120.510736 39.363676 C 120.866263 39.592793 121.439057 39.93647 121.794584 40.133985 C 122.150111 40.33545 122.718954 40.631722 123.074481 40.801585 C 123.430008 40.975399 124.002802 41.224267 124.358329 41.366478 C 124.713856 41.508689 125.282699 41.710154 125.642176 41.820763 C 125.997703 41.931371 126.566547 42.085433 126.922074 42.164439 C 127.277601 42.243445 127.850394 42.346153 128.205921 42.393556 C 128.561448 42.44096 129.130292 42.492314 129.485819 42.508115 C 129.841346 42.523916 130.414139 42.523916 130.769666 42.504165 C 131.125193 42.488364 131.694037 42.43701 132.049564 42.389606 C 132.405091 42.342203 132.977884 42.239495 133.333411 42.156538 C 133.688938 42.077532 134.257782 41.923471 134.613309 41.812862 C 134.968836 41.702254 135.541629 41.496838 135.897156 41.354627 C 136.252683 41.212417 136.821527 40.963548 137.177054 40.789734 C 137.532581 40.619872 138.105374 40.319649 138.460901 40.118183 C 138.816428 39.920668 139.385272 39.576992 139.740799 39.347875 C 140.100276 39.118757 140.669119 38.731628 141.024646 38.478809 C 141.380173 38.225989 141.952967 37.795407 142.308494 37.518886 C 142.664021 37.238414 143.232864 36.772279 143.588391 36.472056 C 143.943918 36.171833 144.516712 35.670145 144.872239 35.34622 C 145.227766 35.026246 145.796609 34.489005 146.152136 34.149279 C 146.507663 33.805603 147.080457 33.244661 147.435984 32.885183 C 147.791511 32.525706 148.360354 31.937111 148.715881 31.561833 C 149.071408 31.190504 149.644202 30.578208 149.999729 30.191078 C 150.355256 29.803949 150.924099 29.175851 151.279626 28.776871 C 151.635153 28.381841 152.207947 27.733991 152.563474 27.331061 C 152.919001 26.92418 153.487844 26.26843 153.843371 25.857599 C 154.202848 25.446768 154.771692 24.783117 155.127219 24.372286 C 155.482746 23.957504 156.051589 23.289903 156.411066 22.875122 C 156.766593 22.46034 157.335437 21.79669 157.690964 21.381908 C 158.046491 20.971077 158.619284 20.307427 158.974811 19.900546 C 159.330338 19.493665 159.899182 18.837915 160.254709 18.438935 C 160.610236 18.036004 161.183029 17.396055 161.538556 17.004975 C 161.894083 16.609945 162.462927 15.989748 162.818454 15.606569 C 163.173981 15.22734 163.746774 14.622944 164.102301 14.255566 C 164.457828 13.888188 165.026672 13.307494 165.382199 12.955918 C 165.737726 12.604341 166.310519 12.055249 166.666046 11.719473 C 167.021573 11.387648 167.590417 10.866209 167.945944 10.554135 C 168.301471 10.238111 168.874264 9.752224 169.229791 9.459902 C 169.585318 9.167579 170.154162 8.717245 170.513639 8.448625 C 170.869166 8.180004 171.438009 7.769173 171.793536 7.528205 C 172.149063 7.283286 172.721857 6.915908 173.077384 6.698642 C 173.432911 6.481375 174.001754 6.15745 174.357281 5.967836 C 174.712808 5.782172 175.285602 5.501701 175.641129 5.343689 C 175.996656 5.185677 176.565499 4.952609 176.921026 4.822249 C 177.276553 4.695839 177.849347 4.510175 178.204874 4.415368 C 178.560401 4.31661 179.129244 4.1823 179.484771 4.115145 C 179.840298 4.05194 180.413092 3.968984 180.768619 3.933431 C 181.124146 3.897879 181.692989 3.870226 182.048516 3.866276 C 182.404043 3.862326 182.976837 3.886028 183.332364 3.91368 C 183.687891 3.941332 184.256734 4.016388 184.612261 4.075642 C 184.971739 4.138847 185.540582 4.261306 185.896109 4.356113 C 186.251636 4.44697 186.82443 4.620784 187.179957 4.747193 C 187.535484 4.869653 188.104327 5.090869 188.459854 5.244931 C 188.815381 5.398993 189.388175 5.671563 189.743702 5.853277 C 190.099229 6.038941 190.668072 6.354965 191.023599 6.568282 C 191.379126 6.777648 191.95192 7.141075 192.307447 7.378093 C 192.662974 7.615111 193.231817 8.021992 193.587344 8.286662 C 193.942871 8.547382 194.515665 8.993766 194.871192 9.282138 C 195.226719 9.56656 195.795562 10.048496 196.151089 10.36057 C 196.506616 10.668694 197.079409 11.186183 197.434937 11.514058 C 197.790464 11.845883 198.359307 12.391025 198.714834 12.742601 C 199.074311 13.090228 199.643154 13.663021 199.998682 14.030399 C 200.354209 14.393827 200.923052 14.994273 201.282529 15.373501 C 201.638056 15.75273 202.206899 16.368977 202.562427 16.760057 C 202.917954 17.151137 203.490747 17.791085 203.846274 18.190066 C 204.201801 18.589046 204.770644 19.240846 205.126171 19.647726 C 205.481699 20.054607 206.054492 20.714308 206.410019 21.129089 C 206.765546 21.53992 207.334389 22.203571 207.689916 22.618352 C 208.045444 23.033134 208.618237 23.700735 208.973764 24.115516 C 209.329291 24.530298 209.898134 25.193948 210.253661 25.60478 C 210.609189 26.015611 211.181982 26.675311 211.537509 27.078242 C 211.893036 27.485123 212.461879 28.132972 212.817406 28.531952 C 213.172933 28.930933 213.745727 29.562981 214.101254 29.95406 C 214.456781 30.34119 215.025624 30.957437 215.385102 31.332715 C 215.740629 31.707994 216.309472 32.300539 216.664999 32.663966 C 217.020526 33.023444 217.59332 33.592287 217.948847 33.935963 C 218.304374 34.28359 218.873217 34.82083 219.228744 35.148705 C 219.584271 35.47263 220.157065 35.982219 220.512592 36.286392 C 220.868119 36.590565 221.436962 37.064601 221.792489 37.345072 C 222.148016 37.629494 222.72081 38.064027 223.076337 38.320797 C 223.431864 38.577566 224.000707 38.972596 224.356234 39.205664 C 224.711761 39.438732 225.284555 39.790308 225.640082 39.995724 C 225.995609 40.20114 226.564452 40.505313 226.919979 40.683076 C 227.275506 40.86084 227.8483 41.117609 228.203827 41.267721 C 228.559354 41.413882 229.128197 41.627198 229.487674 41.741757 C 229.843201 41.860266 230.412045 42.022228 230.767572 42.105184 C 231.123099 42.192091 231.695892 42.3027 232.051419 42.358004 C 232.406946 42.413308 232.97579 42.472562 233.331317 42.492314 C 233.686844 42.516016 234.259637 42.523916 234.615164 42.516016 C 234.970691 42.504165 235.539535 42.464662 235.895062 42.421209 C 236.250589 42.377755 236.823382 42.282948 237.178909 42.211843 C 237.534436 42.136787 238.10328 41.990626 238.458807 41.887918 C 238.814334 41.78126 239.387127 41.587695 239.742654 41.453385 C 240.098181 41.315124 240.667025 41.074156 241.022552 40.908243 C 241.378079 40.742331 241.950872 40.450009 242.306399 40.256444 C 242.661926 40.062879 243.23077 39.727104 243.586297 39.501936 C 243.945774 39.28072 244.514617 38.901491 244.870144 38.652622 C 245.225671 38.403753 245.798465 37.985021 246.153992 37.7085 C 246.509519 37.435929 247.078362 36.977695 247.433889 36.681422 C 247.789416 36.381199 248.36221 35.887412 248.717737 35.567437 C 249.073264 35.251413 249.642107 34.722073 249.997634 34.382347 C 250.353161 34.046572 250.925955 33.489579 251.281482 33.134052 C 251.637009 32.778525 252.205852 32.193881 252.561379 31.822552 C 252.916906 31.451224 253.4897 30.842878 253.845227 30.459699 C 254.200754 30.072569 255.125124 29.053392 255.125124 29.053392 " transform="matrix(0.988849,0,0,-0.988849,0.989349,84.092694)"/>
</g>
</g>
</svg>
