<?xml version="1.0" encoding="UTF-8"?>
<svg xmlns="http://www.w3.org/2000/svg" xmlns:xlink="http://www.w3.org/1999/xlink" width="255.124pt" height="85.041pt" viewBox="0 0 255.124 85.041" version="1.2">
<defs>
<clipPath id="clip1">
  <path d="M 0.988281 5 L 253.269531 5 L 253.269531 79 L 0.988281 79 Z M 0.988281 5 "/>
</clipPath>
<clipPath id="clip2">
  <path d="M 0.988281 0 L 253.269531 0 L 253.269531 48 L 0.988281 48 Z M 0.988281 0 "/>
</clipPath>
<clipPath id="clip3">
  <path d="M 0.988281 36 L 253.269531 36 L 253.269531 84.09375 L 0.988281 84.09375 Z M 0.988281 36 "/>
</clipPath>
</defs>
<g id="surface1">
<g clip-path="url(#clip1)" clip-rule="nonzero">
<path style=" stroke:none;fill-rule:nonzero;fill:rgb(50%,50%,50%);fill-opacity:0.5;" d="M 0.988281 15.289062 C 0.988281 15.289062 1.90625 15.824219 2.257812 16.027344 C 2.609375 16.230469 3.171875 16.558594 3.523438 16.761719 C 3.875 16.964844 4.441406 17.289062 4.792969 17.488281 C 5.144531 17.6875 5.707031 18.003906 6.058594 18.199219 C 6.414062 18.394531 6.976562 18.703125 7.328125 18.894531 C 7.679688 19.085938 8.242188 19.382812 8.597656 19.566406 C 8.949219 19.75 9.511719 20.039062 9.863281 20.214844 C 10.214844 20.390625 10.78125 20.667969 11.132812 20.835938 C 11.484375 21 12.046875 21.261719 12.398438 21.417969 C 12.75 21.578125 13.316406 21.820312 13.667969 21.96875 C 14.019531 22.113281 14.582031 22.339844 14.933594 22.476562 C 15.285156 22.609375 15.851562 22.820312 16.203125 22.941406 C 16.554688 23.0625 17.117188 23.25 17.46875 23.359375 C 17.820312 23.46875 18.386719 23.636719 18.738281 23.730469 C 19.089844 23.828125 19.652344 23.972656 20.003906 24.054688 C 20.355469 24.132812 20.921875 24.253906 21.273438 24.320312 C 21.625 24.386719 22.1875 24.484375 22.542969 24.535156 C 22.894531 24.585938 23.457031 24.65625 23.808594 24.695312 C 24.160156 24.730469 24.726562 24.777344 25.078125 24.796875 C 25.429688 24.816406 25.992188 24.835938 26.34375 24.84375 C 26.695312 24.847656 27.261719 24.839844 27.613281 24.832031 C 27.964844 24.820312 28.527344 24.789062 28.878906 24.761719 C 29.230469 24.734375 29.796875 24.679688 30.148438 24.636719 C 30.5 24.59375 31.0625 24.511719 31.414062 24.457031 C 31.765625 24.398438 32.332031 24.292969 32.683594 24.21875 C 33.035156 24.144531 33.597656 24.015625 33.949219 23.929688 C 34.300781 23.84375 34.867188 23.691406 35.21875 23.589844 C 35.570312 23.488281 36.132812 23.3125 36.484375 23.195312 C 36.839844 23.082031 37.402344 22.886719 37.753906 22.757812 C 38.105469 22.628906 38.671875 22.414062 39.023438 22.277344 C 39.375 22.136719 39.9375 21.902344 40.289062 21.75 C 40.640625 21.597656 41.207031 21.347656 41.558594 21.1875 C 41.910156 21.027344 42.472656 20.757812 42.824219 20.589844 C 43.175781 20.417969 43.742188 20.136719 44.09375 19.957031 C 44.445312 19.777344 45.007812 19.484375 45.359375 19.296875 C 45.710938 19.113281 46.277344 18.808594 46.628906 18.617188 C 46.980469 18.425781 47.542969 18.109375 47.894531 17.914062 C 48.246094 17.714844 48.8125 17.394531 49.164062 17.195312 C 49.515625 16.996094 50.078125 16.667969 50.429688 16.464844 C 50.785156 16.261719 51.347656 15.933594 51.699219 15.730469 C 52.050781 15.523438 52.613281 15.195312 52.96875 14.988281 C 53.320312 14.785156 53.882812 14.457031 54.234375 14.253906 C 54.585938 14.046875 55.152344 13.722656 55.503906 13.519531 C 55.855469 13.320312 56.417969 13 56.769531 12.800781 C 57.121094 12.601562 57.6875 12.289062 58.039062 12.09375 C 58.390625 11.902344 58.953125 11.59375 59.304688 11.40625 C 59.65625 11.21875 60.222656 10.925781 60.574219 10.746094 C 60.925781 10.5625 61.488281 10.28125 61.839844 10.109375 C 62.191406 9.9375 62.757812 9.664062 63.109375 9.503906 C 63.460938 9.339844 64.023438 9.085938 64.375 8.933594 C 64.726562 8.777344 65.292969 8.542969 65.644531 8.398438 C 65.996094 8.257812 66.558594 8.039062 66.914062 7.90625 C 67.265625 7.777344 67.828125 7.578125 68.179688 7.460938 C 68.53125 7.34375 69.097656 7.164062 69.449219 7.058594 C 69.800781 6.957031 70.363281 6.800781 70.714844 6.710938 C 71.066406 6.617188 71.632812 6.484375 71.984375 6.410156 C 72.335938 6.332031 72.898438 6.222656 73.25 6.164062 C 73.601562 6.101562 74.167969 6.015625 74.519531 5.972656 C 74.871094 5.925781 75.433594 5.863281 75.785156 5.835938 C 76.136719 5.804688 76.703125 5.769531 77.054688 5.753906 C 77.40625 5.742188 77.96875 5.730469 78.320312 5.734375 C 78.671875 5.734375 79.238281 5.75 79.589844 5.765625 C 79.941406 5.785156 80.503906 5.824219 80.855469 5.859375 C 81.210938 5.890625 81.773438 5.957031 82.125 6.007812 C 82.476562 6.054688 83.042969 6.148438 83.394531 6.210938 C 83.746094 6.273438 84.308594 6.390625 84.660156 6.46875 C 85.011719 6.546875 85.578125 6.6875 85.929688 6.78125 C 86.28125 6.871094 86.84375 7.035156 87.195312 7.140625 C 87.546875 7.25 88.113281 7.429688 88.464844 7.550781 C 88.816406 7.671875 89.378906 7.875 89.730469 8.007812 C 90.082031 8.140625 90.648438 8.363281 91 8.507812 C 91.351562 8.652344 91.914062 8.894531 92.265625 9.050781 C 92.617188 9.207031 93.183594 9.464844 93.535156 9.628906 C 93.886719 9.792969 94.449219 10.066406 94.800781 10.242188 C 95.15625 10.414062 95.71875 10.699219 96.070312 10.882812 C 96.421875 11.066406 96.984375 11.363281 97.339844 11.550781 C 97.691406 11.742188 98.253906 12.046875 98.605469 12.242188 C 98.957031 12.4375 99.523438 12.753906 99.875 12.953125 C 100.226562 13.152344 100.789062 13.472656 101.140625 13.675781 C 101.492188 13.878906 102.058594 14.203125 102.410156 14.410156 C 102.761719 14.613281 103.324219 14.941406 103.675781 15.148438 C 104.027344 15.351562 104.59375 15.679688 104.945312 15.886719 C 105.296875 16.089844 105.859375 16.417969 106.210938 16.621094 C 106.5625 16.824219 107.128906 17.148438 107.480469 17.347656 C 107.832031 17.550781 108.394531 17.867188 108.746094 18.0625 C 109.097656 18.261719 109.664062 18.570312 110.015625 18.761719 C 110.367188 18.953125 110.929688 19.257812 111.285156 19.441406 C 111.636719 19.625 112.199219 19.917969 112.550781 20.09375 C 112.902344 20.269531 113.46875 20.550781 113.820312 20.71875 C 114.171875 20.886719 114.734375 21.152344 115.085938 21.308594 C 115.4375 21.46875 116.003906 21.714844 116.355469 21.867188 C 116.707031 22.015625 117.269531 22.246094 117.621094 22.382812 C 117.972656 22.519531 118.539062 22.730469 118.890625 22.855469 C 119.242188 22.980469 119.804688 23.171875 120.15625 23.285156 C 120.507812 23.394531 121.074219 23.566406 121.425781 23.664062 C 121.777344 23.761719 122.339844 23.910156 122.691406 23.996094 C 123.042969 24.078125 123.609375 24.203125 123.960938 24.273438 C 124.3125 24.34375 124.875 24.445312 125.230469 24.5 C 125.582031 24.554688 126.144531 24.628906 126.496094 24.667969 C 126.847656 24.707031 127.414062 24.757812 127.765625 24.78125 C 128.117188 24.804688 128.679688 24.832031 129.03125 24.835938 C 129.382812 24.84375 129.949219 24.84375 130.300781 24.835938 C 130.652344 24.828125 131.214844 24.804688 131.566406 24.78125 C 131.917969 24.753906 132.484375 24.703125 132.835938 24.664062 C 133.1875 24.625 133.75 24.550781 134.101562 24.496094 C 134.453125 24.4375 135.019531 24.339844 135.371094 24.269531 C 135.722656 24.199219 136.285156 24.074219 136.636719 23.988281 C 136.988281 23.902344 137.554688 23.757812 137.90625 23.65625 C 138.257812 23.558594 138.820312 23.386719 139.171875 23.277344 C 139.527344 23.164062 140.089844 22.972656 140.441406 22.847656 C 140.792969 22.722656 141.359375 22.507812 141.710938 22.371094 C 142.0625 22.234375 142.625 22.003906 142.976562 21.855469 C 143.328125 21.707031 143.894531 21.457031 144.246094 21.296875 C 144.597656 21.136719 145.160156 20.875 145.511719 20.707031 C 145.863281 20.535156 146.429688 20.257812 146.78125 20.082031 C 147.132812 19.902344 147.695312 19.613281 148.046875 19.425781 C 148.398438 19.242188 148.964844 18.941406 149.316406 18.75 C 149.667969 18.558594 150.230469 18.246094 150.582031 18.050781 C 150.933594 17.851562 151.5 17.535156 151.851562 17.335938 C 152.203125 17.132812 152.765625 16.808594 153.117188 16.605469 C 153.472656 16.402344 154.035156 16.074219 154.386719 15.871094 C 154.738281 15.667969 155.300781 15.335938 155.65625 15.132812 C 156.007812 14.925781 156.570312 14.597656 156.921875 14.394531 C 157.273438 14.1875 157.839844 13.863281 158.191406 13.660156 C 158.542969 13.457031 159.105469 13.136719 159.457031 12.9375 C 159.808594 12.738281 160.375 12.421875 160.726562 12.226562 C 161.078125 12.035156 161.640625 11.726562 161.992188 11.539062 C 162.34375 11.347656 162.910156 11.050781 163.261719 10.871094 C 163.613281 10.6875 164.175781 10.402344 164.527344 10.226562 C 164.878906 10.054688 165.445312 9.78125 165.796875 9.617188 C 166.148438 9.449219 166.710938 9.195312 167.0625 9.039062 C 167.414062 8.882812 167.980469 8.644531 168.332031 8.5 C 168.683594 8.355469 169.246094 8.132812 169.601562 8 C 169.953125 7.867188 170.515625 7.664062 170.867188 7.542969 C 171.21875 7.421875 171.785156 7.242188 172.136719 7.132812 C 172.488281 7.027344 173.050781 6.867188 173.402344 6.773438 C 173.753906 6.679688 174.320312 6.542969 174.671875 6.464844 C 175.023438 6.382812 175.585938 6.269531 175.9375 6.207031 C 176.289062 6.140625 176.855469 6.050781 177.207031 6.003906 C 177.558594 5.957031 178.121094 5.890625 178.472656 5.855469 C 178.824219 5.824219 179.390625 5.785156 179.742188 5.765625 C 180.09375 5.75 180.65625 5.734375 181.007812 5.734375 C 181.359375 5.730469 181.925781 5.742188 182.277344 5.757812 C 182.628906 5.769531 183.191406 5.808594 183.542969 5.835938 C 183.898438 5.867188 184.460938 5.929688 184.8125 5.972656 C 185.164062 6.019531 185.730469 6.105469 186.082031 6.167969 C 186.433594 6.230469 186.996094 6.339844 187.347656 6.414062 C 187.699219 6.492188 188.265625 6.625 188.617188 6.714844 C 188.96875 6.808594 189.53125 6.964844 189.882812 7.066406 C 190.234375 7.171875 190.800781 7.351562 191.152344 7.46875 C 191.503906 7.585938 192.066406 7.789062 192.417969 7.917969 C 192.769531 8.046875 193.335938 8.265625 193.6875 8.410156 C 194.039062 8.550781 194.601562 8.789062 194.953125 8.941406 C 195.304688 9.097656 195.871094 9.351562 196.222656 9.515625 C 196.574219 9.679688 197.136719 9.949219 197.488281 10.121094 C 197.84375 10.292969 198.40625 10.578125 198.757812 10.757812 C 199.109375 10.9375 199.671875 11.234375 200.027344 11.421875 C 200.378906 11.609375 200.941406 11.914062 201.292969 12.109375 C 201.644531 12.300781 202.210938 12.617188 202.5625 12.816406 C 202.914062 13.011719 203.476562 13.335938 203.828125 13.535156 C 204.179688 13.738281 204.746094 14.0625 205.097656 14.265625 C 205.449219 14.472656 206.011719 14.800781 206.363281 15.003906 C 206.714844 15.210938 207.28125 15.539062 207.632812 15.746094 C 207.984375 15.949219 208.546875 16.277344 208.898438 16.480469 C 209.25 16.683594 209.816406 17.007812 210.167969 17.210938 C 210.519531 17.410156 211.082031 17.730469 211.433594 17.929688 C 211.785156 18.125 212.351562 18.4375 212.703125 18.628906 C 213.054688 18.824219 213.617188 19.125 213.972656 19.3125 C 214.324219 19.5 214.886719 19.792969 215.238281 19.96875 C 215.589844 20.148438 216.15625 20.429688 216.507812 20.601562 C 216.859375 20.769531 217.421875 21.039062 217.773438 21.199219 C 218.125 21.359375 218.691406 21.609375 219.042969 21.761719 C 219.394531 21.914062 219.957031 22.144531 220.308594 22.285156 C 220.660156 22.425781 221.226562 22.640625 221.578125 22.769531 C 221.929688 22.894531 222.492188 23.089844 222.84375 23.207031 C 223.195312 23.320312 223.761719 23.496094 224.113281 23.59375 C 224.464844 23.695312 225.027344 23.847656 225.378906 23.9375 C 225.730469 24.023438 226.296875 24.152344 226.648438 24.222656 C 227 24.296875 227.5625 24.402344 227.917969 24.460938 C 228.269531 24.515625 228.832031 24.597656 229.183594 24.640625 C 229.535156 24.683594 230.101562 24.738281 230.453125 24.765625 C 230.804688 24.789062 231.367188 24.820312 231.71875 24.832031 C 232.070312 24.84375 232.636719 24.847656 232.988281 24.84375 C 233.339844 24.835938 233.902344 24.816406 234.253906 24.796875 C 234.605469 24.773438 235.171875 24.726562 235.523438 24.691406 C 235.875 24.65625 236.4375 24.582031 236.789062 24.53125 C 237.140625 24.480469 237.707031 24.382812 238.058594 24.316406 C 238.410156 24.25 238.972656 24.128906 239.324219 24.046875 C 239.675781 23.964844 240.242188 23.820312 240.59375 23.726562 C 240.945312 23.628906 241.507812 23.460938 241.859375 23.351562 C 242.214844 23.242188 242.777344 23.054688 243.128906 22.933594 C 243.480469 22.808594 244.046875 22.601562 244.398438 22.464844 C 244.75 22.332031 245.3125 22.101562 245.664062 21.957031 C 246.015625 21.808594 246.582031 21.566406 246.933594 21.40625 C 247.285156 21.25 247.847656 20.988281 248.199219 20.820312 C 248.550781 20.65625 249.117188 20.378906 249.46875 20.203125 C 249.820312 20.027344 250.382812 19.738281 250.734375 19.554688 C 251.085938 19.371094 251.652344 19.070312 252.003906 18.878906 C 252.355469 18.691406 253.269531 18.183594 253.269531 18.183594 L 253.269531 65.90625 C 253.269531 65.90625 252.355469 65.402344 252.003906 65.210938 C 251.652344 65.019531 251.085938 64.71875 250.734375 64.535156 C 250.382812 64.355469 249.820312 64.066406 249.46875 63.890625 C 249.117188 63.714844 248.550781 63.4375 248.199219 63.269531 C 247.847656 63.101562 247.285156 62.839844 246.933594 62.683594 C 246.582031 62.527344 246.015625 62.28125 245.664062 62.136719 C 245.3125 61.988281 244.75 61.761719 244.398438 61.625 C 244.046875 61.492188 243.480469 61.28125 243.128906 61.160156 C 242.777344 61.035156 242.214844 60.847656 241.859375 60.738281 C 241.507812 60.628906 240.945312 60.460938 240.59375 60.367188 C 240.242188 60.269531 239.675781 60.125 239.324219 60.042969 C 238.972656 59.960938 238.410156 59.84375 238.058594 59.777344 C 237.707031 59.707031 237.140625 59.613281 236.789062 59.558594 C 236.4375 59.507812 235.875 59.4375 235.523438 59.398438 C 235.171875 59.363281 234.605469 59.316406 234.253906 59.296875 C 233.902344 59.277344 233.339844 59.253906 232.988281 59.25 C 232.636719 59.246094 232.070312 59.25 231.71875 59.261719 C 231.367188 59.269531 230.804688 59.300781 230.453125 59.328125 C 230.101562 59.355469 229.535156 59.410156 229.183594 59.453125 C 228.832031 59.492188 228.269531 59.574219 227.917969 59.632812 C 227.5625 59.691406 227 59.792969 226.648438 59.867188 C 226.296875 59.941406 225.730469 60.070312 225.378906 60.15625 C 225.027344 60.242188 224.464844 60.394531 224.113281 60.496094 C 223.761719 60.597656 223.195312 60.769531 222.84375 60.886719 C 222.492188 61 221.929688 61.195312 221.578125 61.324219 C 221.226562 61.449219 220.660156 61.667969 220.308594 61.804688 C 219.957031 61.945312 219.394531 62.179688 219.042969 62.328125 C 218.691406 62.480469 218.125 62.730469 217.773438 62.894531 C 217.421875 63.054688 216.859375 63.320312 216.507812 63.492188 C 216.15625 63.660156 215.589844 63.941406 215.238281 64.121094 C 214.886719 64.300781 214.324219 64.59375 213.972656 64.777344 C 213.617188 64.964844 213.054688 65.269531 212.703125 65.460938 C 212.351562 65.652344 211.785156 65.964844 211.433594 66.164062 C 211.082031 66.359375 210.519531 66.679688 210.167969 66.882812 C 209.816406 67.082031 209.25 67.40625 208.898438 67.609375 C 208.546875 67.8125 207.984375 68.140625 207.632812 68.347656 C 207.28125 68.550781 206.714844 68.882812 206.363281 69.085938 C 206.011719 69.292969 205.449219 69.621094 205.097656 69.824219 C 204.746094 70.027344 204.179688 70.355469 203.828125 70.554688 C 203.476562 70.757812 202.914062 71.078125 202.5625 71.277344 C 202.210938 71.476562 201.644531 71.789062 201.292969 71.984375 C 200.941406 72.175781 200.378906 72.484375 200.027344 72.671875 C 199.671875 72.859375 199.109375 73.152344 198.757812 73.335938 C 198.40625 73.515625 197.84375 73.796875 197.488281 73.972656 C 197.136719 74.144531 196.574219 74.414062 196.222656 74.578125 C 195.871094 74.738281 195.304688 74.996094 194.953125 75.148438 C 194.601562 75.300781 194.039062 75.539062 193.6875 75.683594 C 193.335938 75.824219 192.769531 76.042969 192.417969 76.175781 C 192.066406 76.304688 191.503906 76.503906 191.152344 76.621094 C 190.800781 76.738281 190.234375 76.917969 189.882812 77.023438 C 189.53125 77.128906 188.96875 77.285156 188.617188 77.375 C 188.265625 77.464844 187.699219 77.601562 187.347656 77.675781 C 186.996094 77.753906 186.433594 77.863281 186.082031 77.925781 C 185.730469 77.984375 185.164062 78.070312 184.8125 78.117188 C 184.460938 78.164062 183.898438 78.222656 183.542969 78.253906 C 183.191406 78.285156 182.628906 78.320312 182.277344 78.335938 C 181.925781 78.347656 181.359375 78.359375 181.007812 78.359375 C 180.65625 78.359375 180.09375 78.34375 179.742188 78.324219 C 179.390625 78.308594 178.824219 78.269531 178.472656 78.234375 C 178.121094 78.203125 177.558594 78.136719 177.207031 78.085938 C 176.855469 78.039062 176.289062 77.949219 175.9375 77.886719 C 175.585938 77.820312 175.023438 77.707031 174.671875 77.628906 C 174.320312 77.550781 173.753906 77.410156 173.402344 77.320312 C 173.050781 77.226562 172.488281 77.066406 172.136719 76.957031 C 171.785156 76.851562 171.21875 76.667969 170.867188 76.546875 C 170.515625 76.429688 169.953125 76.226562 169.601562 76.09375 C 169.246094 75.960938 168.683594 75.738281 168.332031 75.59375 C 167.980469 75.449219 167.414062 75.207031 167.0625 75.054688 C 166.710938 74.898438 166.148438 74.640625 165.796875 74.476562 C 165.445312 74.308594 164.878906 74.039062 164.527344 73.863281 C 164.175781 73.691406 163.613281 73.402344 163.261719 73.222656 C 162.910156 73.039062 162.34375 72.742188 161.992188 72.554688 C 161.640625 72.367188 161.078125 72.058594 160.726562 71.863281 C 160.375 71.667969 159.808594 71.351562 159.457031 71.152344 C 159.105469 70.957031 158.542969 70.632812 158.191406 70.429688 C 157.839844 70.230469 157.273438 69.902344 156.921875 69.699219 C 156.570312 69.492188 156.007812 69.164062 155.65625 68.960938 C 155.300781 68.753906 154.738281 68.425781 154.386719 68.222656 C 154.035156 68.015625 153.472656 67.6875 153.117188 67.484375 C 152.765625 67.28125 152.203125 66.957031 151.851562 66.757812 C 151.5 66.558594 150.933594 66.238281 150.582031 66.042969 C 150.230469 65.84375 149.667969 65.535156 149.316406 65.34375 C 148.964844 65.152344 148.398438 64.847656 148.046875 64.664062 C 147.695312 64.480469 147.132812 64.1875 146.78125 64.011719 C 146.429688 63.832031 145.863281 63.554688 145.511719 63.386719 C 145.160156 63.21875 144.597656 62.953125 144.246094 62.792969 C 143.894531 62.632812 143.328125 62.386719 142.976562 62.238281 C 142.625 62.089844 142.0625 61.859375 141.710938 61.71875 C 141.359375 61.582031 140.792969 61.371094 140.441406 61.246094 C 140.089844 61.121094 139.527344 60.929688 139.171875 60.816406 C 138.820312 60.703125 138.257812 60.53125 137.90625 60.433594 C 137.554688 60.335938 136.988281 60.1875 136.636719 60.101562 C 136.285156 60.019531 135.722656 59.894531 135.371094 59.824219 C 135.019531 59.753906 134.453125 59.652344 134.101562 59.597656 C 133.75 59.542969 133.1875 59.464844 132.835938 59.425781 C 132.484375 59.386719 131.917969 59.335938 131.566406 59.3125 C 131.214844 59.289062 130.652344 59.261719 130.300781 59.253906 C 129.949219 59.246094 129.382812 59.246094 129.03125 59.253906 C 128.679688 59.261719 128.117188 59.285156 127.765625 59.308594 C 127.414062 59.332031 126.847656 59.382812 126.496094 59.421875 C 126.144531 59.460938 125.582031 59.539062 125.230469 59.59375 C 124.875 59.648438 124.3125 59.746094 123.960938 59.816406 C 123.609375 59.886719 123.042969 60.011719 122.691406 60.097656 C 122.339844 60.179688 121.777344 60.328125 121.425781 60.425781 C 121.074219 60.527344 120.507812 60.695312 120.15625 60.808594 C 119.804688 60.917969 119.242188 61.109375 118.890625 61.234375 C 118.539062 61.359375 117.972656 61.574219 117.621094 61.710938 C 117.269531 61.847656 116.707031 62.078125 116.355469 62.226562 C 116.003906 62.375 115.4375 62.621094 115.085938 62.78125 C 114.734375 62.941406 114.171875 63.203125 113.820312 63.375 C 113.46875 63.542969 112.902344 63.820312 112.550781 63.996094 C 112.199219 64.175781 111.636719 64.464844 111.285156 64.652344 C 110.929688 64.835938 110.367188 65.136719 110.015625 65.328125 C 109.664062 65.519531 109.097656 65.832031 108.746094 66.027344 C 108.394531 66.222656 107.832031 66.542969 107.480469 66.742188 C 107.128906 66.941406 106.5625 67.265625 106.210938 67.46875 C 105.859375 67.671875 105.296875 68 104.945312 68.207031 C 104.59375 68.410156 104.027344 68.738281 103.675781 68.945312 C 103.324219 69.148438 102.761719 69.480469 102.410156 69.683594 C 102.058594 69.886719 101.492188 70.214844 101.140625 70.417969 C 100.789062 70.617188 100.226562 70.941406 99.875 71.140625 C 99.523438 71.339844 98.957031 71.65625 98.605469 71.847656 C 98.253906 72.042969 97.691406 72.351562 97.339844 72.539062 C 96.984375 72.730469 96.421875 73.027344 96.070312 73.207031 C 95.71875 73.390625 95.15625 73.675781 94.800781 73.851562 C 94.449219 74.023438 93.886719 74.296875 93.535156 74.464844 C 93.183594 74.628906 92.617188 74.886719 92.265625 75.042969 C 91.914062 75.195312 91.351562 75.4375 91 75.582031 C 90.648438 75.726562 90.082031 75.949219 89.730469 76.082031 C 89.378906 76.214844 88.816406 76.417969 88.464844 76.539062 C 88.113281 76.660156 87.546875 76.84375 87.195312 76.949219 C 86.84375 77.058594 86.28125 77.21875 85.929688 77.3125 C 85.578125 77.40625 85.011719 77.542969 84.660156 77.621094 C 84.308594 77.703125 83.746094 77.816406 83.394531 77.878906 C 83.042969 77.945312 82.476562 78.035156 82.125 78.085938 C 81.773438 78.132812 81.210938 78.199219 80.855469 78.230469 C 80.503906 78.265625 79.941406 78.304688 79.589844 78.324219 C 79.238281 78.339844 78.671875 78.355469 78.320312 78.359375 C 77.96875 78.359375 77.40625 78.351562 77.054688 78.335938 C 76.703125 78.320312 76.136719 78.285156 75.785156 78.257812 C 75.433594 78.226562 74.871094 78.164062 74.519531 78.121094 C 74.167969 78.074219 73.601562 77.988281 73.25 77.929688 C 72.898438 77.867188 72.335938 77.757812 71.984375 77.683594 C 71.632812 77.605469 71.066406 77.472656 70.714844 77.382812 C 70.363281 77.292969 69.800781 77.136719 69.449219 77.03125 C 69.097656 76.925781 68.53125 76.75 68.179688 76.628906 C 67.828125 76.511719 67.265625 76.3125 66.914062 76.183594 C 66.558594 76.054688 65.996094 75.835938 65.644531 75.691406 C 65.292969 75.550781 64.726562 75.3125 64.375 75.160156 C 64.023438 75.007812 63.460938 74.753906 63.109375 74.589844 C 62.757812 74.425781 62.191406 74.15625 61.839844 73.984375 C 61.488281 73.8125 60.925781 73.527344 60.574219 73.347656 C 60.222656 73.167969 59.65625 72.871094 59.304688 72.683594 C 58.953125 72.496094 58.390625 72.191406 58.039062 71.996094 C 57.6875 71.804688 57.121094 71.488281 56.769531 71.292969 C 56.417969 71.09375 55.855469 70.773438 55.503906 70.570312 C 55.152344 70.367188 54.585938 70.042969 54.234375 69.839844 C 53.882812 69.636719 53.320312 69.304688 52.96875 69.101562 C 52.613281 68.898438 52.050781 68.566406 51.699219 68.363281 C 51.347656 68.15625 50.785156 67.828125 50.429688 67.625 C 50.078125 67.421875 49.515625 67.097656 49.164062 66.894531 C 48.8125 66.695312 48.246094 66.375 47.894531 66.179688 C 47.542969 65.980469 46.980469 65.667969 46.628906 65.476562 C 46.277344 65.28125 45.710938 64.980469 45.359375 64.792969 C 45.007812 64.605469 44.445312 64.3125 44.09375 64.132812 C 43.742188 63.957031 43.175781 63.675781 42.824219 63.503906 C 42.472656 63.332031 41.910156 63.066406 41.558594 62.90625 C 41.207031 62.742188 40.640625 62.492188 40.289062 62.339844 C 39.9375 62.191406 39.375 61.957031 39.023438 61.816406 C 38.671875 61.675781 38.105469 61.460938 37.753906 61.332031 C 37.402344 61.207031 36.839844 61.007812 36.484375 60.894531 C 36.132812 60.78125 35.570312 60.605469 35.21875 60.503906 C 34.867188 60.402344 34.300781 60.25 33.949219 60.164062 C 33.597656 60.074219 33.035156 59.945312 32.683594 59.871094 C 32.332031 59.800781 31.765625 59.695312 31.414062 59.636719 C 31.0625 59.578125 30.5 59.496094 30.148438 59.453125 C 29.796875 59.414062 29.230469 59.355469 28.878906 59.328125 C 28.527344 59.300781 27.964844 59.273438 27.613281 59.261719 C 27.261719 59.25 26.695312 59.246094 26.34375 59.25 C 25.992188 59.253906 25.429688 59.273438 25.078125 59.296875 C 24.726562 59.316406 24.160156 59.359375 23.808594 59.398438 C 23.457031 59.433594 22.894531 59.503906 22.542969 59.554688 C 22.1875 59.609375 21.625 59.703125 21.273438 59.769531 C 20.921875 59.835938 20.355469 59.957031 20.003906 60.039062 C 19.652344 60.121094 19.089844 60.261719 18.738281 60.359375 C 18.386719 60.457031 17.820312 60.621094 17.46875 60.730469 C 17.117188 60.839844 16.554688 61.027344 16.203125 61.148438 C 15.851562 61.273438 15.285156 61.480469 14.933594 61.617188 C 14.582031 61.75 14.019531 61.976562 13.667969 62.125 C 13.316406 62.269531 12.75 62.515625 12.398438 62.671875 C 12.046875 62.828125 11.484375 63.089844 11.132812 63.257812 C 10.78125 63.425781 10.214844 63.699219 9.863281 63.875 C 9.511719 64.050781 8.949219 64.339844 8.597656 64.523438 C 8.242188 64.707031 7.679688 65.007812 7.328125 65.195312 C 6.976562 65.386719 6.414062 65.695312 6.058594 65.890625 C 5.707031 66.085938 5.144531 66.40625 4.792969 66.605469 C 4.441406 66.804688 3.875 67.128906 3.523438 67.328125 C 3.171875 67.53125 2.609375 67.859375 2.257812 68.0625 C 1.90625 68.269531 0.988281 68.804688 0.988281 68.804688 Z M 0.988281 15.289062 "/>
</g>
<g clip-path="url(#clip2)" clip-rule="nonzero">
<path style="fill:none;stroke-width:1.59404;stroke-linecap:butt;stroke-linejoin:miter;stroke:rgb(0%,0%,0%);stroke-opacity:1;stroke-miterlimit:10;" d="M -0.00107963 69.579524 C -0.00107963 69.579524 0.927241 69.038333 1.282768 68.832917 C 1.638295 68.627502 2.207138 68.295676 2.562665 68.090261 C 2.918192 67.884845 3.490986 67.55697 3.846513 67.355505 C 4.20204 67.15404 4.770883 66.834065 5.12641 66.63655 C 5.485888 66.439035 6.054731 66.126961 6.410258 65.933397 C 6.765785 65.739832 7.334628 65.439609 7.694106 65.253945 C 8.049633 65.068281 8.618476 64.775959 8.974003 64.598195 C 9.32953 64.420432 9.902324 64.13996 10.257851 63.970097 C 10.613378 63.804185 11.182221 63.539515 11.537748 63.381503 C 11.893275 63.21954 12.466069 62.974622 12.821596 62.82451 C 13.177123 62.678349 13.745966 62.449232 14.101493 62.310971 C 14.45702 62.176661 15.029814 61.963345 15.385341 61.840885 C 15.740868 61.718426 16.309711 61.528812 16.665238 61.418203 C 17.020765 61.307595 17.593559 61.137732 17.949086 61.042925 C 18.304613 60.944167 18.873456 60.798006 19.228983 60.71505 C 19.58451 60.636044 20.157304 60.513585 20.512831 60.446429 C 20.868358 60.379274 21.437201 60.280517 21.796678 60.229163 C 22.152205 60.177809 22.721049 60.106704 23.076576 60.067201 C 23.432103 60.031648 24.004896 59.984244 24.360423 59.964493 C 24.71595 59.944741 25.284794 59.92499 25.640321 59.917089 C 25.995848 59.913139 26.568641 59.921039 26.924168 59.92894 C 27.279695 59.940791 27.848538 59.972393 28.204066 60.000045 C 28.559593 60.027698 29.132386 60.083002 29.487913 60.126455 C 29.84344 60.169908 30.412283 60.252865 30.767811 60.308169 C 31.123338 60.367423 31.696131 60.474082 32.051658 60.549137 C 32.407185 60.624193 32.976028 60.754553 33.331556 60.841459 C 33.687083 60.928366 34.259876 61.082428 34.615403 61.185136 C 34.97093 61.287843 35.539773 61.465607 35.895301 61.584116 C 36.254778 61.698675 36.823621 61.89619 37.179148 62.02655 C 37.534675 62.15691 38.107469 62.374176 38.462996 62.512437 C 38.818523 62.654647 39.387366 62.891665 39.742893 63.045727 C 40.09842 63.199789 40.671214 63.452608 41.026741 63.61457 C 41.382268 63.776533 41.951111 64.049103 42.306638 64.218966 C 42.662165 64.39278 43.234959 64.677201 43.590486 64.858915 C 43.946013 65.040629 44.514856 65.336901 44.870383 65.526516 C 45.22591 65.71218 45.798704 66.020303 46.154231 66.213868 C 46.509758 66.407433 47.078601 66.727407 47.434128 66.924922 C 47.789655 67.126387 48.362449 67.450312 48.717976 67.651777 C 49.073503 67.853243 49.642346 68.185068 49.997873 68.390484 C 50.35735 68.595899 50.926194 68.927724 51.281721 69.13314 C 51.637248 69.342506 52.206091 69.674331 52.565568 69.883697 C 52.921095 70.089113 53.489939 70.420938 53.845466 70.626354 C 54.200993 70.83572 54.773786 71.163595 55.129313 71.36901 C 55.48484 71.570475 56.053684 71.8944 56.409211 72.095865 C 56.764738 72.297331 57.337531 72.613355 57.693058 72.81087 C 58.048585 73.004435 58.617429 73.316508 58.972956 73.506123 C 59.328483 73.695737 59.901276 73.99201 60.256803 74.173723 C 60.61233 74.359388 61.181174 74.643809 61.536701 74.817622 C 61.892228 74.991436 62.465021 75.267957 62.820548 75.429919 C 63.176075 75.595832 63.744919 75.852601 64.100446 76.006663 C 64.455973 76.164675 65.028766 76.401693 65.384293 76.547854 C 65.73982 76.690065 66.308664 76.911282 66.668141 77.045592 C 67.023668 77.175952 67.592511 77.377417 67.948038 77.495926 C 68.303565 77.614435 68.876359 77.796149 69.231886 77.902807 C 69.587413 78.005515 70.156256 78.163527 70.511783 78.254384 C 70.86731 78.349191 71.440104 78.483501 71.795631 78.558557 C 72.151158 78.637563 72.720001 78.748171 73.075528 78.807426 C 73.431055 78.870631 74.003849 78.957537 74.359376 79.000991 C 74.714903 79.048394 75.283746 79.111599 75.639273 79.139251 C 75.9948 79.170854 76.567594 79.206406 76.923121 79.222207 C 77.278648 79.234058 77.847491 79.245909 78.203018 79.241959 C 78.558545 79.241959 79.131339 79.226158 79.486866 79.210357 C 79.842393 79.190605 80.411236 79.151102 80.766763 79.115549 C 81.126241 79.083947 81.695084 79.016792 82.050611 78.965438 C 82.406138 78.918034 82.978931 78.823227 83.334459 78.760022 C 83.689986 78.696817 84.258829 78.578308 84.614356 78.499302 C 84.969883 78.420296 85.542676 78.278086 85.898204 78.183278 C 86.253731 78.092422 86.822574 77.926509 87.178101 77.819851 C 87.533628 77.709242 88.106421 77.527529 88.461949 77.405069 C 88.817476 77.28261 89.386319 77.077194 89.741846 76.942884 C 90.097373 76.808574 90.670166 76.583407 91.025693 76.437246 C 91.381221 76.291085 91.950064 76.046166 92.305591 75.888154 C 92.661118 75.730142 93.233911 75.469422 93.589438 75.303509 C 93.944966 75.137597 94.513809 74.861076 94.869336 74.683312 C 95.228813 74.509499 95.797656 74.221127 96.153183 74.035463 C 96.508711 73.849799 97.077554 73.549576 97.437031 73.359962 C 97.792558 73.166397 98.361401 72.858273 98.716928 72.660758 C 99.072455 72.463243 99.645249 72.143269 100.000776 71.941804 C 100.356303 71.740338 100.925146 71.416414 101.280673 71.210998 C 101.6362 71.005583 102.208994 70.677708 102.564521 70.468342 C 102.920048 70.262926 103.488891 69.931101 103.844418 69.721735 C 104.199945 69.516319 104.772739 69.184494 105.128266 68.975128 C 105.483793 68.769712 106.052636 68.437887 106.408163 68.232472 C 106.76369 68.027056 107.336484 67.699181 107.692011 67.497716 C 108.047538 67.2923 108.616381 66.972326 108.971908 66.774811 C 109.327435 66.573345 109.900229 66.261272 110.255756 66.067707 C 110.611283 65.874142 111.180126 65.566019 111.539604 65.380355 C 111.895131 65.194691 112.463974 64.898418 112.819501 64.720655 C 113.175028 64.542891 113.747822 64.258469 114.103349 64.088606 C 114.458876 63.918744 115.027719 63.650123 115.383246 63.492111 C 115.738773 63.330149 116.311567 63.08128 116.667094 62.927218 C 117.022621 62.777107 117.591464 62.544039 117.946991 62.405778 C 118.302518 62.267518 118.875312 62.054202 119.230839 61.927792 C 119.586366 61.801382 120.155209 61.607818 120.510736 61.493259 C 120.866263 61.382651 121.439057 61.208837 121.794584 61.11008 C 122.150111 61.011322 122.718954 60.861211 123.074481 60.774304 C 123.430008 60.691348 124.002802 60.564938 124.358329 60.493833 C 124.713856 60.422728 125.282699 60.32002 125.642176 60.264716 C 125.997703 60.209411 126.566547 60.134356 126.922074 60.094853 C 127.277601 60.05535 127.850394 60.003996 128.205921 59.980294 C 128.561448 59.956592 129.130292 59.92894 129.485819 59.92499 C 129.841346 59.917089 130.414139 59.917089 130.769666 59.92499 C 131.125193 59.93289 131.694037 59.956592 132.049564 59.980294 C 132.405091 60.007946 132.977884 60.0593 133.333411 60.098803 C 133.688938 60.138306 134.257782 60.213362 134.613309 60.268666 C 134.968836 60.32792 135.541629 60.426678 135.897156 60.497783 C 136.252683 60.568889 136.821527 60.695298 137.177054 60.782205 C 137.532581 60.869112 138.105374 61.015273 138.460901 61.117981 C 138.816428 61.216738 139.385272 61.390551 139.740799 61.50116 C 140.100276 61.615718 140.669119 61.809283 141.024646 61.935693 C 141.380173 62.062102 141.952967 62.279369 142.308494 62.417629 C 142.664021 62.55589 143.232864 62.788958 143.588391 62.939069 C 143.943918 63.08918 144.516712 63.342 144.872239 63.503962 C 145.227766 63.665924 145.796609 63.930594 146.152136 64.100457 C 146.507663 64.274271 147.080457 64.554742 147.435984 64.732505 C 147.791511 64.914219 148.360354 65.206541 148.715881 65.396156 C 149.071408 65.58182 149.644202 65.885993 149.999729 66.079558 C 150.355256 66.273123 150.924099 66.589147 151.279626 66.786662 C 151.635153 66.988127 152.207947 67.308101 152.563474 67.509567 C 152.919001 67.714982 153.487844 68.042857 153.843371 68.248273 C 154.202848 68.453688 154.771692 68.785514 155.127219 68.990929 C 155.482746 69.196345 156.051589 69.53212 156.411066 69.737536 C 156.766593 69.946902 157.335437 70.278727 157.690964 70.484143 C 158.046491 70.693509 158.619284 71.021384 158.974811 71.226799 C 159.330338 71.432215 159.899182 71.75614 160.254709 71.957605 C 160.610236 72.15907 161.183029 72.479045 161.538556 72.67656 C 161.894083 72.870124 162.462927 73.182198 162.818454 73.371812 C 163.173981 73.565377 163.746774 73.8656 164.102301 74.047314 C 164.457828 74.232978 165.026672 74.52135 165.382199 74.699113 C 165.737726 74.872927 166.310519 75.149448 166.666046 75.31536 C 167.021573 75.485223 167.590417 75.741993 167.945944 75.900005 C 168.301471 76.058017 168.874264 76.298985 169.229791 76.445146 C 169.585318 76.591307 170.154162 76.816474 170.513639 76.950785 C 170.869166 77.085095 171.438009 77.290511 171.793536 77.41297 C 172.149063 77.535429 172.721857 77.717143 173.077384 77.827751 C 173.432911 77.93441 174.001754 78.096372 174.357281 78.191179 C 174.712808 78.285986 175.285602 78.424247 175.641129 78.503253 C 175.996656 78.586209 176.565499 78.700768 176.921026 78.763973 C 177.276553 78.831128 177.849347 78.921985 178.204874 78.969388 C 178.560401 79.016792 179.129244 79.083947 179.484771 79.1195 C 179.840298 79.151102 180.413092 79.190605 180.768619 79.210357 C 181.124146 79.226158 181.692989 79.241959 182.048516 79.241959 C 182.404043 79.245909 182.976837 79.234058 183.332364 79.218257 C 183.687891 79.206406 184.256734 79.166903 184.612261 79.139251 C 184.971739 79.107649 185.540582 79.044444 185.896109 79.000991 C 186.251636 78.953587 186.82443 78.86668 187.179957 78.803476 C 187.535484 78.740271 188.104327 78.629662 188.459854 78.554607 C 188.815381 78.475601 189.388175 78.34129 189.743702 78.250434 C 190.099229 78.155626 190.668072 77.997614 191.023599 77.894906 C 191.379126 77.788248 191.95192 77.606535 192.307447 77.488026 C 192.662974 77.369517 193.231817 77.164101 193.587344 77.033741 C 193.942871 76.903381 194.515665 76.682164 194.871192 76.536003 C 195.226719 76.393792 195.795562 76.152824 196.151089 75.998762 C 196.506616 75.84075 197.079409 75.583981 197.434937 75.418068 C 197.790464 75.252156 198.359307 74.979585 198.714834 74.805772 C 199.074311 74.631958 199.643154 74.343586 199.998682 74.161873 C 200.354209 73.980159 200.923052 73.679936 201.282529 73.490322 C 201.638056 73.300707 202.206899 72.992584 202.562427 72.795069 C 202.917954 72.601504 203.490747 72.28153 203.846274 72.080064 C 204.201801 71.882549 204.770644 71.554674 205.126171 71.353209 C 205.481699 71.147793 206.054492 70.819918 206.410019 70.614503 C 206.765546 70.405137 207.334389 70.073312 207.689916 69.867896 C 208.045444 69.65853 208.618237 69.326705 208.973764 69.117339 C 209.329291 68.911923 209.898134 68.580098 210.253661 68.374682 C 210.609189 68.169267 211.181982 67.841392 211.537509 67.635976 C 211.893036 67.434511 212.461879 67.110586 212.817406 66.909121 C 213.172933 66.711606 213.745727 66.395582 214.101254 66.202017 C 214.456781 66.004502 215.025624 65.700329 215.385102 65.510715 C 215.740629 65.3211 216.309472 65.024828 216.664999 64.847064 C 217.020526 64.66535 217.59332 64.380929 217.948847 64.207115 C 218.304374 64.037253 218.873217 63.764682 219.228744 63.602719 C 219.584271 63.440757 220.157065 63.187938 220.512592 63.033876 C 220.868119 62.879815 221.436962 62.646747 221.792489 62.504536 C 222.148016 62.362325 222.72081 62.145059 223.076337 62.014699 C 223.431864 61.888289 224.000707 61.690774 224.356234 61.572265 C 224.711761 61.457706 225.284555 61.279943 225.640082 61.181185 C 225.995609 61.078478 226.564452 60.924416 226.919979 60.833559 C 227.275506 60.746652 227.8483 60.616292 228.203827 60.545187 C 228.559354 60.470131 229.128197 60.363473 229.487674 60.304219 C 229.843201 60.248914 230.412045 60.165958 230.767572 60.122505 C 231.123099 60.079051 231.695892 60.023747 232.051419 59.996095 C 232.406946 59.972393 232.97579 59.940791 233.331317 59.92894 C 233.686844 59.917089 234.259637 59.913139 234.615164 59.917089 C 234.970691 59.92499 235.539535 59.944741 235.895062 59.964493 C 236.250589 59.988195 236.823382 60.035598 237.178909 60.071151 C 237.534436 60.106704 238.10328 60.181759 238.458807 60.233113 C 238.814334 60.284467 239.387127 60.383225 239.742654 60.45038 C 240.098181 60.517535 240.667025 60.639994 241.022552 60.72295 C 241.378079 60.805907 241.950872 60.952068 242.306399 61.046875 C 242.661926 61.145633 243.23077 61.315496 243.586297 61.426104 C 243.945774 61.536712 244.514617 61.726327 244.870144 61.848786 C 245.225671 61.975196 245.798465 62.184562 246.153992 62.322822 C 246.509519 62.457132 247.078362 62.6902 247.433889 62.836361 C 247.789416 62.986473 248.36221 63.231391 248.717737 63.393354 C 249.073264 63.551366 249.642107 63.816036 249.997634 63.985899 C 250.353161 64.151811 250.925955 64.432283 251.281482 64.610046 C 251.637009 64.78781 252.205852 65.080132 252.561379 65.265796 C 252.916906 65.45146 253.4897 65.755633 253.845227 65.949198 C 254.200754 66.138812 255.125124 66.652351 255.125124 66.652351 " transform="matrix(0.988849,0,0,-0.988849,0.989349,84.092694)"/>
</g>
<g clip-path="url(#clip3)" clip-rule="nonzero">
<path style="fill:none;stroke-width:1.59404;stroke-linecap:butt;stroke-linejoin:miter;stroke:rgb(0%,0%,0%);stroke-opacity:1;stroke-miterlimit:10;" d="M -0.00107963 15.460408 C -0.00107963 15.460408 0.927241 16.001599 1.282768 16.210965 C 1.638295 16.416381 2.207138 16.748206 2.562665 16.953622 C 2.918192 17.155087 3.490986 17.482962 3.846513 17.684427 C 4.20204 17.885892 4.770883 18.209817 5.12641 18.407332 C 5.485888 18.604847 6.054731 18.916921 6.410258 19.110486 C 6.765785 19.3001 7.334628 19.604273 7.694106 19.789937 C 8.049633 19.975601 8.618476 20.267924 8.974003 20.445687 C 9.32953 20.623451 9.902324 20.899972 10.257851 21.069835 C 10.613378 21.239698 11.182221 21.504368 11.537748 21.66238 C 11.893275 21.820392 12.466069 22.069261 12.821596 22.215422 C 13.177123 22.365533 13.745966 22.594651 14.101493 22.728961 C 14.45702 22.867221 15.029814 23.076587 15.385341 23.202997 C 15.740868 23.325456 16.309711 23.515071 16.665238 23.625679 C 17.020765 23.736287 17.593559 23.9022 17.949086 24.000958 C 18.304613 24.099715 18.873456 24.241926 19.228983 24.324882 C 19.58451 24.407838 20.157304 24.530298 20.512831 24.597453 C 20.868358 24.664608 21.437201 24.759415 21.796678 24.814719 C 22.152205 24.866073 22.721049 24.937179 23.076576 24.972731 C 23.432103 25.012234 24.004896 25.055688 24.360423 25.075439 C 24.71595 25.099141 25.284794 25.118893 25.640321 25.122843 C 25.995848 25.126793 26.568641 25.122843 26.924168 25.110992 C 27.279695 25.099141 27.848538 25.071489 28.204066 25.043837 C 28.559593 25.016185 29.132386 24.95693 29.487913 24.917427 C 29.84344 24.873974 30.412283 24.791018 30.767811 24.731763 C 31.123338 24.672509 31.696131 24.565851 32.051658 24.494745 C 32.407185 24.419689 32.976028 24.289329 33.331556 24.198473 C 33.687083 24.111566 34.259876 23.957504 34.615403 23.854796 C 34.97093 23.752089 35.539773 23.574325 35.895301 23.459766 C 36.254778 23.345208 36.823621 23.143742 37.179148 23.017333 C 37.534675 22.886973 38.107469 22.669706 38.462996 22.527495 C 38.818523 22.385285 39.387366 22.148267 39.742893 21.998155 C 40.09842 21.844094 40.671214 21.591274 41.026741 21.425362 C 41.382268 21.263399 41.951111 20.994779 42.306638 20.820966 C 42.662165 20.647152 43.234959 20.362731 43.590486 20.184967 C 43.946013 20.003254 44.514856 19.706981 44.870383 19.517367 C 45.22591 19.327752 45.798704 19.023579 46.154231 18.826064 C 46.509758 18.632499 47.078601 18.316475 47.434128 18.11501 C 47.789655 17.917495 48.362449 17.59357 48.717976 17.392105 C 49.073503 17.186689 49.642346 16.858814 49.997873 16.653399 C 50.35735 16.447983 50.926194 16.116158 51.281721 15.906792 C 51.637248 15.701376 52.206091 15.365601 52.565568 15.160185 C 52.921095 14.95477 53.489939 14.618994 53.845466 14.413578 C 54.200993 14.208163 54.773786 13.880288 55.129313 13.674872 C 55.48484 13.469457 56.053684 13.145532 56.409211 12.944067 C 56.764738 12.746552 57.337531 12.426577 57.693058 12.233013 C 58.048585 12.035498 58.617429 11.727374 58.972956 11.53776 C 59.328483 11.348145 59.901276 11.047922 60.256803 10.866209 C 60.61233 10.684495 61.181174 10.396123 61.536701 10.22231 C 61.892228 10.048496 62.465021 9.775926 62.820548 9.610013 C 63.176075 9.4441 63.744919 9.187331 64.100446 9.033269 C 64.455973 8.879207 65.028766 8.638239 65.384293 8.496028 C 65.73982 8.349867 66.308664 8.12865 66.668141 7.99829 C 67.023668 7.867931 67.592511 7.666465 67.948038 7.547956 C 68.303565 7.425497 68.876359 7.247733 69.231886 7.141075 C 69.587413 7.034417 70.156256 6.876405 70.511783 6.785548 C 70.86731 6.694691 71.440104 6.560381 71.795631 6.481375 C 72.151158 6.406319 72.720001 6.295711 73.075528 6.232506 C 73.431055 6.173252 74.003849 6.086345 74.359376 6.038941 C 74.714903 5.995488 75.283746 5.932283 75.639273 5.900681 C 75.9948 5.873029 76.567594 5.837476 76.923121 5.821675 C 77.278648 5.805874 77.847491 5.797973 78.203018 5.797973 C 78.558545 5.801923 79.131339 5.817725 79.486866 5.833526 C 79.842393 5.853277 80.411236 5.89278 80.766763 5.928333 C 81.126241 5.959935 81.695084 6.027091 82.050611 6.074494 C 82.406138 6.125848 82.978931 6.216705 83.334459 6.28386 C 83.689986 6.347065 84.258829 6.461624 84.614356 6.54458 C 84.969883 6.623586 85.542676 6.761846 85.898204 6.856654 C 86.253731 6.951461 86.822574 7.113423 87.178101 7.224032 C 87.533628 7.33069 88.106421 7.516354 88.461949 7.638813 C 88.817476 7.761272 89.386319 7.966688 89.741846 8.100998 C 90.097373 8.235308 90.670166 8.460476 91.025693 8.606637 C 91.381221 8.752798 91.950064 8.997716 92.305591 9.151778 C 92.661118 9.30979 93.233911 9.57051 93.589438 9.736423 C 93.944966 9.906286 94.513809 10.182807 94.869336 10.35662 C 95.228813 10.534383 95.797656 10.822755 96.153183 11.008419 C 96.508711 11.190133 97.077554 11.490356 97.437031 11.683921 C 97.792558 11.873535 98.361401 12.185609 98.716928 12.383124 C 99.072455 12.576689 99.645249 12.896663 100.000776 13.098128 C 100.356303 13.299594 100.925146 13.627469 101.280673 13.828934 C 101.6362 14.03435 102.208994 14.366175 102.564521 14.57159 C 102.920048 14.777006 103.488891 15.112782 103.844418 15.318197 C 104.199945 15.527563 104.772739 15.859388 105.128266 16.064804 C 105.483793 16.27417 106.052636 16.605995 106.408163 16.811411 C 106.76369 17.016826 107.336484 17.344701 107.692011 17.546167 C 108.047538 17.747632 108.616381 18.071557 108.971908 18.269072 C 109.327435 18.466587 109.900229 18.782611 110.255756 18.976175 C 110.611283 19.16974 111.180126 19.473913 111.539604 19.659577 C 111.895131 19.849192 112.463974 20.141514 112.819501 20.323228 C 113.175028 20.500991 113.747822 20.781463 114.103349 20.951326 C 114.458876 21.125139 115.027719 21.389809 115.383246 21.551771 C 115.738773 21.713734 116.311567 21.962603 116.667094 22.112714 C 117.022621 22.262825 117.591464 22.495893 117.946991 22.634154 C 118.302518 22.772414 118.875312 22.989681 119.230839 23.11609 C 119.586366 23.2425 120.155209 23.436065 120.510736 23.546673 C 120.866263 23.661232 121.439057 23.831095 121.794584 23.933802 C 122.150111 24.03256 122.718954 24.182671 123.074481 24.265628 C 123.430008 24.352534 124.002802 24.478944 124.358329 24.550049 C 124.713856 24.621155 125.282699 24.719912 125.642176 24.775216 C 125.997703 24.830521 126.566547 24.909527 126.922074 24.94903 C 127.277601 24.988533 127.850394 25.039887 128.205921 25.063588 C 128.561448 25.08729 129.130292 25.110992 129.485819 25.118893 C 129.841346 25.126793 130.414139 25.126793 130.769666 25.118893 C 131.125193 25.110992 131.694037 25.08334 132.049564 25.059638 C 132.405091 25.035936 132.977884 24.984582 133.333411 24.945079 C 133.688938 24.905576 134.257782 24.82657 134.613309 24.771266 C 134.968836 24.715962 135.541629 24.613254 135.897156 24.542149 C 136.252683 24.471043 136.821527 24.344634 137.177054 24.261677 C 137.532581 24.174771 138.105374 24.024659 138.460901 23.925902 C 138.816428 23.827144 139.385272 23.653331 139.740799 23.538772 C 140.100276 23.424214 140.669119 23.230649 141.024646 23.104239 C 141.380173 22.97783 141.952967 22.764514 142.308494 22.626253 C 142.664021 22.484042 143.232864 22.250974 143.588391 22.100863 C 143.943918 21.950752 144.516712 21.701883 144.872239 21.53992 C 145.227766 21.377958 145.796609 21.109338 146.152136 20.939475 C 146.507663 20.769612 147.080457 20.48914 147.435984 20.307427 C 147.791511 20.129663 148.360354 19.833391 148.715881 19.647726 C 149.071408 19.462062 149.644202 19.153939 149.999729 18.960374 C 150.355256 18.766809 150.924099 18.454736 151.279626 18.25327 C 151.635153 18.055755 152.207947 17.731831 152.563474 17.530365 C 152.919001 17.3289 153.487844 17.001025 153.843371 16.79561 C 154.202848 16.590194 154.771692 16.258369 155.127219 16.049003 C 155.482746 15.843587 156.051589 15.511762 156.411066 15.302396 C 156.766593 15.09698 157.335437 14.765155 157.690964 14.555789 C 158.046491 14.350374 158.619284 14.018548 158.974811 13.817083 C 159.330338 13.611667 159.899182 13.283792 160.254709 13.086277 C 160.610236 12.884812 161.183029 12.564838 161.538556 12.367323 C 161.894083 12.169808 162.462927 11.857734 162.818454 11.66812 C 163.173981 11.478505 163.746774 11.178282 164.102301 10.992618 C 164.457828 10.810904 165.026672 10.518582 165.382199 10.344769 C 165.737726 10.167005 166.310519 9.894435 166.666046 9.724572 C 167.021573 9.558659 167.590417 9.297939 167.945944 9.139927 C 168.301471 8.985866 168.874264 8.740947 169.229791 8.594786 C 169.585318 8.448625 170.154162 8.223458 170.513639 8.089147 C 170.869166 7.954837 171.438009 7.749422 171.793536 7.630913 C 172.149063 7.508453 172.721857 7.322789 173.077384 7.216131 C 173.432911 7.105523 174.001754 6.94356 174.357281 6.848753 C 174.712808 6.757896 175.285602 6.615685 175.641129 6.536679 C 175.996656 6.457673 176.565499 6.343115 176.921026 6.275959 C 177.276553 6.212755 177.849347 6.121898 178.204874 6.074494 C 178.560401 6.02314 179.129244 5.955985 179.484771 5.924383 C 179.840298 5.88883 180.413092 5.849327 180.768619 5.833526 C 181.124146 5.813774 181.692989 5.797973 182.048516 5.797973 C 182.404043 5.797973 182.976837 5.809824 183.332364 5.821675 C 183.687891 5.837476 184.256734 5.873029 184.612261 5.904631 C 184.971739 5.936234 185.540582 5.995488 185.896109 6.042892 C 186.251636 6.090295 186.82443 6.177202 187.179957 6.236456 C 187.535484 6.299661 188.104327 6.41027 188.459854 6.489276 C 188.815381 6.564331 189.388175 6.702592 189.743702 6.793449 C 190.099229 6.884306 190.668072 7.042318 191.023599 7.148976 C 191.379126 7.255634 191.95192 7.437348 192.307447 7.555857 C 192.662974 7.674366 193.231817 7.875831 193.587344 8.006191 C 193.942871 8.140501 194.515665 8.361718 194.871192 8.503929 C 195.226719 8.65009 195.795562 8.891058 196.151089 9.04512 C 196.506616 9.199182 197.079409 9.459902 197.434937 9.621864 C 197.790464 9.787777 198.359307 10.060347 198.714834 10.234161 C 199.074311 10.411924 199.643154 10.696346 199.998682 10.878059 C 200.354209 11.063724 200.923052 11.359996 201.282529 11.549611 C 201.638056 11.739225 202.206899 12.051299 202.562427 12.244863 C 202.917954 12.442378 203.490747 12.758402 203.846274 12.959868 C 204.201801 13.161333 204.770644 13.485258 205.126171 13.690673 C 205.481699 13.892139 206.054492 14.223964 206.410019 14.42938 C 206.765546 14.634795 207.334389 14.96662 207.689916 15.175986 C 208.045444 15.381402 208.618237 15.717178 208.973764 15.922593 C 209.329291 16.131959 209.898134 16.463784 210.253661 16.6692 C 210.609189 16.874616 211.181982 17.20249 211.537509 17.403956 C 211.893036 17.609371 212.461879 17.933296 212.817406 18.130811 C 213.172933 18.332276 213.745727 18.6483 214.101254 18.841865 C 214.456781 19.03543 215.025624 19.343553 215.385102 19.533168 C 215.740629 19.718832 216.309472 20.015104 216.664999 20.196818 C 217.020526 20.378532 217.59332 20.662954 217.948847 20.832817 C 218.304374 21.00663 218.873217 21.27525 219.228744 21.437213 C 219.584271 21.603125 220.157065 21.855944 220.512592 22.010006 C 220.868119 22.160118 221.436962 22.397136 221.792489 22.539346 C 222.148016 22.677607 222.72081 22.898824 223.076337 23.025233 C 223.431864 23.155593 224.000707 23.353108 224.356234 23.467667 C 224.711761 23.586176 225.284555 23.759989 225.640082 23.862697 C 225.995609 23.965405 226.564452 24.119467 226.919979 24.206373 C 227.275506 24.29328 227.8483 24.42364 228.203827 24.498695 C 228.559354 24.573751 229.128197 24.676459 229.487674 24.735713 C 229.843201 24.794968 230.412045 24.877924 230.767572 24.917427 C 231.123099 24.960881 231.695892 25.016185 232.051419 25.043837 C 232.406946 25.071489 232.97579 25.103091 233.331317 25.110992 C 233.686844 25.122843 234.259637 25.126793 234.615164 25.122843 C 234.970691 25.118893 235.539535 25.095191 235.895062 25.075439 C 236.250589 25.055688 236.823382 25.008284 237.178909 24.972731 C 237.534436 24.933228 238.10328 24.862123 238.458807 24.810769 C 238.814334 24.755465 239.387127 24.660658 239.742654 24.589552 C 240.098181 24.522397 240.667025 24.403888 241.022552 24.320932 C 241.378079 24.237976 241.950872 24.091814 242.306399 23.993057 C 242.661926 23.89825 243.23077 23.728387 243.586297 23.617778 C 243.945774 23.50717 244.514617 23.317556 244.870144 23.191146 C 245.225671 23.068687 245.798465 22.85537 246.153992 22.72106 C 246.509519 22.5828 247.078362 22.353682 247.433889 22.203571 C 247.789416 22.05741 248.36221 21.808541 248.717737 21.650529 C 249.073264 21.492517 249.642107 21.227847 249.997634 21.057984 C 250.353161 20.888121 250.925955 20.607649 251.281482 20.429886 C 251.637009 20.252122 252.205852 19.9598 252.561379 19.778086 C 252.916906 19.592422 253.4897 19.288249 253.845227 19.094684 C 254.200754 18.90112 255.125124 18.391531 255.125124 18.391531 " transform="matrix(0.988849,0,0,-0.988849,0.989349,84.092694)"/>
</g>
</g>
</svg>
