<?xml version="1.0" encoding="UTF-8"?>
<svg xmlns="http://www.w3.org/2000/svg" xmlns:xlink="http://www.w3.org/1999/xlink" width="255.124pt" height="85.041pt" viewBox="0 0 255.124 85.041" version="1.2">
<defs>
<clipPath id="clip1">
  <path d="M 0.988281 2 L 253.269531 2 L 253.269531 82 L 0.988281 82 Z M 0.988281 2 "/>
</clipPath>
<clipPath id="clip2">
  <path d="M 0.988281 0 L 253.269531 0 L 253.269531 35 L 0.988281 35 Z M 0.988281 0 "/>
</clipPath>
<clipPath id="clip3">
  <path d="M 0.988281 49 L 253.269531 49 L 253.269531 84.09375 L 0.988281 84.09375 Z M 0.988281 49 "/>
</clipPath>
</defs>
<g id="surface1">
<g clip-path="url(#clip1)" clip-rule="nonzero">
<path style=" stroke:none;fill-rule:nonzero;fill:rgb(50%,50%,50%);fill-opacity:0.5;" d="M 0.988281 7.644531 C 0.988281 7.644531 1.90625 7.910156 2.257812 8.011719 C 2.609375 8.117188 3.171875 8.277344 3.523438 8.378906 C 3.875 8.480469 4.441406 8.644531 4.792969 8.742188 C 5.144531 8.84375 5.707031 9 6.058594 9.097656 C 6.414062 9.195312 6.976562 9.351562 7.328125 9.445312 C 7.679688 9.542969 8.242188 9.691406 8.597656 9.785156 C 8.949219 9.875 9.511719 10.019531 9.863281 10.105469 C 10.214844 10.195312 10.78125 10.332031 11.132812 10.417969 C 11.484375 10.5 12.046875 10.628906 12.398438 10.707031 C 12.75 10.789062 13.316406 10.910156 13.667969 10.984375 C 14.019531 11.054688 14.582031 11.167969 14.933594 11.238281 C 15.285156 11.304688 15.851562 11.410156 16.203125 11.46875 C 16.554688 11.53125 17.117188 11.625 17.46875 11.679688 C 17.820312 11.734375 18.386719 11.816406 18.738281 11.867188 C 19.089844 11.914062 19.652344 11.984375 20.003906 12.027344 C 20.355469 12.066406 20.921875 12.125 21.273438 12.160156 C 21.625 12.195312 22.1875 12.242188 22.542969 12.265625 C 22.894531 12.292969 23.457031 12.328125 23.808594 12.347656 C 24.160156 12.363281 24.726562 12.386719 25.078125 12.398438 C 25.429688 12.40625 25.992188 12.417969 26.34375 12.421875 C 26.695312 12.421875 27.261719 12.421875 27.613281 12.414062 C 27.964844 12.410156 28.527344 12.394531 28.878906 12.378906 C 29.230469 12.367188 29.796875 12.339844 30.148438 12.316406 C 30.5 12.296875 31.0625 12.257812 31.414062 12.226562 C 31.765625 12.199219 32.332031 12.144531 32.683594 12.109375 C 33.035156 12.074219 33.597656 12.007812 33.949219 11.964844 C 34.300781 11.921875 34.867188 11.84375 35.21875 11.792969 C 35.570312 11.742188 36.132812 11.65625 36.484375 11.597656 C 36.839844 11.539062 37.402344 11.441406 37.753906 11.378906 C 38.105469 11.316406 38.671875 11.207031 39.023438 11.136719 C 39.375 11.066406 39.9375 10.949219 40.289062 10.875 C 40.640625 10.800781 41.207031 10.671875 41.558594 10.59375 C 41.910156 10.511719 42.472656 10.378906 42.824219 10.292969 C 43.175781 10.207031 43.742188 10.066406 44.09375 9.976562 C 44.445312 9.886719 45.007812 9.742188 45.359375 9.648438 C 45.710938 9.554688 46.277344 9.402344 46.628906 9.308594 C 46.980469 9.210938 47.542969 9.054688 47.894531 8.957031 C 48.246094 8.859375 48.8125 8.699219 49.164062 8.597656 C 49.515625 8.496094 50.078125 8.335938 50.429688 8.230469 C 50.785156 8.128906 51.347656 7.964844 51.699219 7.863281 C 52.050781 7.761719 52.613281 7.597656 52.96875 7.496094 C 53.320312 7.390625 53.882812 7.226562 54.234375 7.125 C 54.585938 7.023438 55.152344 6.859375 55.503906 6.761719 C 55.855469 6.660156 56.417969 6.5 56.769531 6.398438 C 57.121094 6.300781 57.6875 6.144531 58.039062 6.046875 C 58.390625 5.949219 58.953125 5.796875 59.304688 5.703125 C 59.65625 5.609375 60.222656 5.460938 60.574219 5.371094 C 60.925781 5.28125 61.488281 5.140625 61.839844 5.054688 C 62.191406 4.96875 62.757812 4.832031 63.109375 4.75 C 63.460938 4.667969 64.023438 4.542969 64.375 4.464844 C 64.726562 4.390625 65.292969 4.269531 65.644531 4.199219 C 65.996094 4.128906 66.558594 4.019531 66.914062 3.953125 C 67.265625 3.886719 67.828125 3.789062 68.179688 3.730469 C 68.53125 3.671875 69.097656 3.582031 69.449219 3.53125 C 69.800781 3.476562 70.363281 3.398438 70.714844 3.355469 C 71.066406 3.308594 71.632812 3.242188 71.984375 3.203125 C 72.335938 3.167969 72.898438 3.113281 73.25 3.082031 C 73.601562 3.050781 74.167969 3.007812 74.519531 2.984375 C 74.871094 2.960938 75.433594 2.933594 75.785156 2.917969 C 76.136719 2.902344 76.703125 2.882812 77.054688 2.878906 C 77.40625 2.871094 77.96875 2.863281 78.320312 2.867188 C 78.671875 2.867188 79.238281 2.875 79.589844 2.882812 C 79.941406 2.890625 80.503906 2.914062 80.855469 2.929688 C 81.210938 2.945312 81.773438 2.980469 82.125 3.003906 C 82.476562 3.027344 83.042969 3.074219 83.394531 3.105469 C 83.746094 3.136719 84.308594 3.195312 84.660156 3.234375 C 85.011719 3.273438 85.578125 3.34375 85.929688 3.390625 C 86.28125 3.4375 86.84375 3.515625 87.195312 3.570312 C 87.546875 3.625 88.113281 3.714844 88.464844 3.773438 C 88.816406 3.835938 89.378906 3.9375 89.730469 4.003906 C 90.082031 4.070312 90.648438 4.183594 91 4.253906 C 91.351562 4.328125 91.914062 4.445312 92.265625 4.523438 C 92.617188 4.601562 93.183594 4.730469 93.535156 4.8125 C 93.886719 4.894531 94.449219 5.03125 94.800781 5.121094 C 95.15625 5.207031 95.71875 5.351562 96.070312 5.441406 C 96.421875 5.53125 96.984375 5.679688 97.339844 5.773438 C 97.691406 5.871094 98.253906 6.023438 98.605469 6.121094 C 98.957031 6.21875 99.523438 6.375 99.875 6.476562 C 100.226562 6.574219 100.789062 6.734375 101.140625 6.835938 C 101.492188 6.9375 102.058594 7.101562 102.410156 7.203125 C 102.761719 7.304688 103.324219 7.46875 103.675781 7.574219 C 104.027344 7.675781 104.59375 7.839844 104.945312 7.941406 C 105.296875 8.042969 105.859375 8.207031 106.210938 8.308594 C 106.5625 8.410156 107.128906 8.574219 107.480469 8.675781 C 107.832031 8.773438 108.394531 8.933594 108.746094 9.03125 C 109.097656 9.128906 109.664062 9.285156 110.015625 9.382812 C 110.367188 9.476562 110.929688 9.628906 111.285156 9.71875 C 111.636719 9.8125 112.199219 9.957031 112.550781 10.046875 C 112.902344 10.136719 113.46875 10.273438 113.820312 10.359375 C 114.171875 10.441406 114.734375 10.574219 115.085938 10.652344 C 115.4375 10.734375 116.003906 10.859375 116.355469 10.933594 C 116.707031 11.007812 117.269531 11.121094 117.621094 11.191406 C 117.972656 11.257812 118.539062 11.363281 118.890625 11.425781 C 119.242188 11.488281 119.804688 11.585938 120.15625 11.640625 C 120.507812 11.699219 121.074219 11.78125 121.425781 11.832031 C 121.777344 11.882812 122.339844 11.953125 122.691406 11.996094 C 123.042969 12.039062 123.609375 12.101562 123.960938 12.136719 C 124.3125 12.171875 124.875 12.222656 125.230469 12.25 C 125.582031 12.277344 126.144531 12.3125 126.496094 12.332031 C 126.847656 12.351562 127.414062 12.378906 127.765625 12.390625 C 128.117188 12.402344 128.679688 12.414062 129.03125 12.417969 C 129.382812 12.421875 129.949219 12.421875 130.300781 12.417969 C 130.652344 12.414062 131.214844 12.402344 131.566406 12.390625 C 131.917969 12.378906 132.484375 12.351562 132.835938 12.332031 C 133.1875 12.3125 133.75 12.273438 134.101562 12.246094 C 134.453125 12.21875 135.019531 12.167969 135.371094 12.132812 C 135.722656 12.097656 136.285156 12.035156 136.636719 11.992188 C 136.988281 11.953125 137.554688 11.878906 137.90625 11.828125 C 138.257812 11.777344 138.820312 11.695312 139.171875 11.636719 C 139.527344 11.582031 140.089844 11.484375 140.441406 11.421875 C 140.792969 11.359375 141.359375 11.253906 141.710938 11.183594 C 142.0625 11.117188 142.625 11 142.976562 10.925781 C 143.328125 10.851562 143.894531 10.726562 144.246094 10.648438 C 144.597656 10.570312 145.160156 10.4375 145.511719 10.351562 C 145.863281 10.269531 146.429688 10.128906 146.78125 10.039062 C 147.132812 9.949219 147.695312 9.804688 148.046875 9.714844 C 148.398438 9.621094 148.964844 9.46875 149.316406 9.375 C 149.667969 9.277344 150.230469 9.121094 150.582031 9.023438 C 150.933594 8.925781 151.5 8.765625 151.851562 8.667969 C 152.203125 8.566406 152.765625 8.402344 153.117188 8.300781 C 153.472656 8.199219 154.035156 8.039062 154.386719 7.933594 C 154.738281 7.832031 155.300781 7.667969 155.65625 7.566406 C 156.007812 7.460938 156.570312 7.296875 156.921875 7.195312 C 157.273438 7.09375 157.839844 6.929688 158.191406 6.828125 C 158.542969 6.730469 159.105469 6.566406 159.457031 6.46875 C 159.808594 6.367188 160.375 6.210938 160.726562 6.113281 C 161.078125 6.015625 161.640625 5.863281 161.992188 5.769531 C 162.34375 5.675781 162.910156 5.523438 163.261719 5.433594 C 163.613281 5.34375 164.175781 5.199219 164.527344 5.113281 C 164.878906 5.027344 165.445312 4.890625 165.796875 4.808594 C 166.148438 4.726562 166.710938 4.597656 167.0625 4.519531 C 167.414062 4.441406 167.980469 4.320312 168.332031 4.25 C 168.683594 4.175781 169.246094 4.066406 169.601562 4 C 169.953125 3.933594 170.515625 3.832031 170.867188 3.769531 C 171.21875 3.710938 171.785156 3.621094 172.136719 3.566406 C 172.488281 3.511719 173.050781 3.433594 173.402344 3.386719 C 173.753906 3.339844 174.320312 3.269531 174.671875 3.230469 C 175.023438 3.191406 175.585938 3.132812 175.9375 3.101562 C 176.289062 3.070312 176.855469 3.027344 177.207031 3 C 177.558594 2.976562 178.121094 2.945312 178.472656 2.929688 C 178.824219 2.910156 179.390625 2.890625 179.742188 2.882812 C 180.09375 2.875 180.65625 2.867188 181.007812 2.867188 C 181.359375 2.863281 181.925781 2.871094 182.277344 2.878906 C 182.628906 2.886719 183.191406 2.902344 183.542969 2.917969 C 183.898438 2.933594 184.460938 2.964844 184.8125 2.988281 C 185.164062 3.007812 185.730469 3.050781 186.082031 3.082031 C 186.433594 3.113281 186.996094 3.167969 187.347656 3.207031 C 187.699219 3.246094 188.265625 3.3125 188.617188 3.359375 C 188.96875 3.402344 189.53125 3.480469 189.882812 3.535156 C 190.234375 3.585938 190.800781 3.675781 191.152344 3.734375 C 191.503906 3.792969 192.066406 3.894531 192.417969 3.957031 C 192.769531 4.023438 193.335938 4.132812 193.6875 4.203125 C 194.039062 4.277344 194.601562 4.394531 194.953125 4.472656 C 195.304688 4.546875 195.871094 4.675781 196.222656 4.757812 C 196.574219 4.839844 197.136719 4.972656 197.488281 5.058594 C 197.84375 5.144531 198.40625 5.289062 198.757812 5.378906 C 199.109375 5.46875 199.671875 5.617188 200.027344 5.710938 C 200.378906 5.804688 200.941406 5.957031 201.292969 6.054688 C 201.644531 6.152344 202.210938 6.308594 202.5625 6.40625 C 202.914062 6.503906 203.476562 6.667969 203.828125 6.765625 C 204.179688 6.867188 204.746094 7.03125 205.097656 7.132812 C 205.449219 7.234375 206.011719 7.398438 206.363281 7.5 C 206.714844 7.605469 207.28125 7.769531 207.632812 7.871094 C 207.984375 7.972656 208.546875 8.136719 208.898438 8.238281 C 209.25 8.339844 209.816406 8.503906 210.167969 8.605469 C 210.519531 8.703125 211.082031 8.863281 211.433594 8.964844 C 211.785156 9.0625 212.351562 9.21875 212.703125 9.316406 C 213.054688 9.410156 213.617188 9.5625 213.972656 9.65625 C 214.324219 9.75 214.886719 9.894531 215.238281 9.984375 C 215.589844 10.074219 216.15625 10.214844 216.507812 10.300781 C 216.859375 10.386719 217.421875 10.519531 217.773438 10.597656 C 218.125 10.679688 218.691406 10.804688 219.042969 10.878906 C 219.394531 10.957031 219.957031 11.074219 220.308594 11.140625 C 220.660156 11.210938 221.226562 11.320312 221.578125 11.382812 C 221.929688 11.445312 222.492188 11.542969 222.84375 11.601562 C 223.195312 11.660156 223.761719 11.746094 224.113281 11.796875 C 224.464844 11.847656 225.027344 11.921875 225.378906 11.96875 C 225.730469 12.011719 226.296875 12.074219 226.648438 12.113281 C 227 12.148438 227.5625 12.199219 227.917969 12.230469 C 228.269531 12.257812 228.832031 12.296875 229.183594 12.320312 C 229.535156 12.339844 230.101562 12.367188 230.453125 12.382812 C 230.804688 12.394531 231.367188 12.410156 231.71875 12.414062 C 232.070312 12.421875 232.636719 12.421875 232.988281 12.421875 C 233.339844 12.417969 233.902344 12.40625 234.253906 12.398438 C 234.605469 12.386719 235.171875 12.363281 235.523438 12.34375 C 235.875 12.328125 236.4375 12.292969 236.789062 12.265625 C 237.140625 12.238281 237.707031 12.191406 238.058594 12.15625 C 238.410156 12.125 238.972656 12.0625 239.324219 12.023438 C 239.675781 11.980469 240.242188 11.910156 240.59375 11.863281 C 240.945312 11.8125 241.507812 11.730469 241.859375 11.675781 C 242.214844 11.621094 242.777344 11.527344 243.128906 11.464844 C 243.480469 11.402344 244.046875 11.300781 244.398438 11.230469 C 244.75 11.164062 245.3125 11.050781 245.664062 10.976562 C 246.015625 10.90625 246.582031 10.78125 246.933594 10.703125 C 247.285156 10.625 247.847656 10.492188 248.199219 10.410156 C 248.550781 10.328125 249.117188 10.1875 249.46875 10.101562 C 249.820312 10.011719 250.382812 9.867188 250.734375 9.777344 C 251.085938 9.683594 251.652344 9.535156 252.003906 9.441406 C 252.355469 9.34375 253.269531 9.09375 253.269531 9.09375 L 253.269531 75 C 253.269531 75 252.355469 74.746094 252.003906 74.652344 C 251.652344 74.558594 251.085938 74.40625 250.734375 74.316406 C 250.382812 74.222656 249.820312 74.078125 249.46875 73.992188 C 249.117188 73.902344 248.550781 73.765625 248.199219 73.679688 C 247.847656 73.597656 247.285156 73.46875 246.933594 73.386719 C 246.582031 73.308594 246.015625 73.1875 245.664062 73.113281 C 245.3125 73.039062 244.75 72.925781 244.398438 72.859375 C 244.046875 72.792969 243.480469 72.6875 243.128906 72.625 C 242.777344 72.566406 242.214844 72.472656 241.859375 72.414062 C 241.507812 72.359375 240.945312 72.277344 240.59375 72.230469 C 240.242188 72.179688 239.675781 72.109375 239.324219 72.070312 C 238.972656 72.027344 238.410156 71.96875 238.058594 71.933594 C 237.707031 71.902344 237.140625 71.851562 236.789062 71.828125 C 236.4375 71.800781 235.875 71.765625 235.523438 71.746094 C 235.171875 71.726562 234.605469 71.703125 234.253906 71.695312 C 233.902344 71.683594 233.339844 71.671875 232.988281 71.671875 C 232.636719 71.667969 232.070312 71.671875 231.71875 71.675781 C 231.367188 71.683594 230.804688 71.695312 230.453125 71.710938 C 230.101562 71.722656 229.535156 71.75 229.183594 71.773438 C 228.832031 71.792969 228.269531 71.832031 227.917969 71.863281 C 227.5625 71.890625 227 71.945312 226.648438 71.980469 C 226.296875 72.015625 225.730469 72.082031 225.378906 72.125 C 225.027344 72.167969 224.464844 72.242188 224.113281 72.292969 C 223.761719 72.34375 223.195312 72.433594 222.84375 72.488281 C 222.492188 72.546875 221.929688 72.644531 221.578125 72.707031 C 221.226562 72.773438 220.660156 72.878906 220.308594 72.949219 C 219.957031 73.019531 219.394531 73.136719 219.042969 73.210938 C 218.691406 73.285156 218.125 73.414062 217.773438 73.492188 C 217.421875 73.574219 216.859375 73.707031 216.507812 73.792969 C 216.15625 73.878906 215.589844 74.015625 215.238281 74.105469 C 214.886719 74.195312 214.324219 74.34375 213.972656 74.4375 C 213.617188 74.527344 213.054688 74.679688 212.703125 74.777344 C 212.351562 74.871094 211.785156 75.03125 211.433594 75.128906 C 211.082031 75.226562 210.519531 75.386719 210.167969 75.488281 C 209.816406 75.585938 209.25 75.75 208.898438 75.851562 C 208.546875 75.953125 207.984375 76.117188 207.632812 76.21875 C 207.28125 76.324219 206.714844 76.488281 206.363281 76.589844 C 206.011719 76.691406 205.449219 76.855469 205.097656 76.957031 C 204.746094 77.058594 204.179688 77.222656 203.828125 77.324219 C 203.476562 77.425781 202.914062 77.585938 202.5625 77.683594 C 202.210938 77.785156 201.644531 77.941406 201.292969 78.039062 C 200.941406 78.132812 200.378906 78.289062 200.027344 78.382812 C 199.671875 78.476562 199.109375 78.625 198.757812 78.714844 C 198.40625 78.804688 197.84375 78.945312 197.488281 79.03125 C 197.136719 79.117188 196.574219 79.253906 196.222656 79.335938 C 195.871094 79.417969 195.304688 79.542969 194.953125 79.621094 C 194.601562 79.695312 194.039062 79.816406 193.6875 79.886719 C 193.335938 79.957031 192.769531 80.066406 192.417969 80.132812 C 192.066406 80.199219 191.503906 80.296875 191.152344 80.355469 C 190.800781 80.417969 190.234375 80.503906 189.882812 80.558594 C 189.53125 80.609375 188.96875 80.6875 188.617188 80.734375 C 188.265625 80.78125 187.699219 80.847656 187.347656 80.882812 C 186.996094 80.921875 186.433594 80.976562 186.082031 81.007812 C 185.730469 81.039062 185.164062 81.082031 184.8125 81.105469 C 184.460938 81.128906 183.898438 81.160156 183.542969 81.171875 C 183.191406 81.1875 182.628906 81.207031 182.277344 81.214844 C 181.925781 81.222656 181.359375 81.226562 181.007812 81.226562 C 180.65625 81.226562 180.09375 81.21875 179.742188 81.210938 C 179.390625 81.199219 178.824219 81.179688 178.472656 81.164062 C 178.121094 81.148438 177.558594 81.113281 177.207031 81.089844 C 176.855469 81.066406 176.289062 81.019531 175.9375 80.988281 C 175.585938 80.957031 175.023438 80.898438 174.671875 80.859375 C 174.320312 80.820312 173.753906 80.753906 173.402344 80.707031 C 173.050781 80.660156 172.488281 80.578125 172.136719 80.523438 C 171.785156 80.472656 171.21875 80.378906 170.867188 80.320312 C 170.515625 80.261719 169.953125 80.160156 169.601562 80.09375 C 169.246094 80.027344 168.683594 79.914062 168.332031 79.84375 C 167.980469 79.769531 167.414062 79.648438 167.0625 79.574219 C 166.710938 79.496094 166.148438 79.367188 165.796875 79.285156 C 165.445312 79.203125 164.878906 79.066406 164.527344 78.976562 C 164.175781 78.890625 163.613281 78.75 163.261719 78.65625 C 162.910156 78.566406 162.34375 78.417969 161.992188 78.324219 C 161.640625 78.230469 161.078125 78.074219 160.726562 77.976562 C 160.375 77.878906 159.808594 77.722656 159.457031 77.625 C 159.105469 77.523438 158.542969 77.363281 158.191406 77.261719 C 157.839844 77.160156 157.273438 76.996094 156.921875 76.894531 C 156.570312 76.792969 156.007812 76.628906 155.65625 76.527344 C 155.300781 76.421875 154.738281 76.257812 154.386719 76.15625 C 154.035156 76.054688 153.472656 75.890625 153.117188 75.789062 C 152.765625 75.6875 152.203125 75.523438 151.851562 75.425781 C 151.5 75.324219 150.933594 75.164062 150.582031 75.066406 C 150.230469 74.96875 149.667969 74.8125 149.316406 74.71875 C 148.964844 74.621094 148.398438 74.472656 148.046875 74.378906 C 147.695312 74.285156 147.132812 74.140625 146.78125 74.050781 C 146.429688 73.964844 145.863281 73.824219 145.511719 73.738281 C 145.160156 73.65625 144.597656 73.523438 144.246094 73.441406 C 143.894531 73.363281 143.328125 73.238281 142.976562 73.164062 C 142.625 73.089844 142.0625 72.976562 141.710938 72.90625 C 141.359375 72.835938 140.792969 72.730469 140.441406 72.667969 C 140.089844 72.605469 139.527344 72.511719 139.171875 72.453125 C 138.820312 72.398438 138.257812 72.3125 137.90625 72.261719 C 137.554688 72.214844 136.988281 72.140625 136.636719 72.097656 C 136.285156 72.054688 135.722656 71.992188 135.371094 71.957031 C 135.019531 71.921875 134.453125 71.871094 134.101562 71.84375 C 133.75 71.816406 133.1875 71.78125 132.835938 71.757812 C 132.484375 71.738281 131.917969 71.714844 131.566406 71.703125 C 131.214844 71.691406 130.652344 71.675781 130.300781 71.671875 C 129.949219 71.667969 129.382812 71.667969 129.03125 71.671875 C 128.679688 71.675781 128.117188 71.691406 127.765625 71.703125 C 127.414062 71.714844 126.847656 71.738281 126.496094 71.757812 C 126.144531 71.777344 125.582031 71.816406 125.230469 71.84375 C 124.875 71.871094 124.3125 71.921875 123.960938 71.957031 C 123.609375 71.988281 123.042969 72.050781 122.691406 72.09375 C 122.339844 72.136719 121.777344 72.210938 121.425781 72.257812 C 121.074219 72.308594 120.507812 72.394531 120.15625 72.449219 C 119.804688 72.507812 119.242188 72.601562 118.890625 72.664062 C 118.539062 72.726562 117.972656 72.832031 117.621094 72.902344 C 117.269531 72.96875 116.707031 73.085938 116.355469 73.160156 C 116.003906 73.234375 115.4375 73.359375 115.085938 73.4375 C 114.734375 73.515625 114.171875 73.648438 113.820312 73.734375 C 113.46875 73.816406 112.902344 73.957031 112.550781 74.046875 C 112.199219 74.132812 111.636719 74.28125 111.285156 74.371094 C 110.929688 74.464844 110.367188 74.613281 110.015625 74.710938 C 109.664062 74.804688 109.097656 74.960938 108.746094 75.058594 C 108.394531 75.15625 107.832031 75.316406 107.480469 75.417969 C 107.128906 75.519531 106.5625 75.679688 106.210938 75.78125 C 105.859375 75.882812 105.296875 76.046875 104.945312 76.148438 C 104.59375 76.25 104.027344 76.417969 103.675781 76.519531 C 103.324219 76.621094 102.761719 76.785156 102.410156 76.886719 C 102.058594 76.988281 101.492188 77.152344 101.140625 77.253906 C 100.789062 77.355469 100.226562 77.515625 99.875 77.617188 C 99.523438 77.714844 98.957031 77.875 98.605469 77.972656 C 98.253906 78.066406 97.691406 78.222656 97.339844 78.316406 C 96.984375 78.410156 96.421875 78.558594 96.070312 78.652344 C 95.71875 78.742188 95.15625 78.886719 94.800781 78.972656 C 94.449219 79.058594 93.886719 79.195312 93.535156 79.277344 C 93.183594 79.359375 92.617188 79.488281 92.265625 79.566406 C 91.914062 79.644531 91.351562 79.765625 91 79.835938 C 90.648438 79.910156 90.082031 80.019531 89.730469 80.085938 C 89.378906 80.152344 88.816406 80.257812 88.464844 80.316406 C 88.113281 80.375 87.546875 80.46875 87.195312 80.519531 C 86.84375 80.574219 86.28125 80.65625 85.929688 80.703125 C 85.578125 80.75 85.011719 80.816406 84.660156 80.859375 C 84.308594 80.898438 83.746094 80.953125 83.394531 80.988281 C 83.042969 81.019531 82.476562 81.0625 82.125 81.089844 C 81.773438 81.113281 81.210938 81.144531 80.855469 81.164062 C 80.503906 81.179688 79.941406 81.199219 79.589844 81.207031 C 79.238281 81.21875 78.671875 81.226562 78.320312 81.226562 C 77.96875 81.226562 77.40625 81.222656 77.054688 81.214844 C 76.703125 81.207031 76.136719 81.191406 75.785156 81.175781 C 75.433594 81.160156 74.871094 81.128906 74.519531 81.105469 C 74.167969 81.082031 73.601562 81.039062 73.25 81.011719 C 72.898438 80.980469 72.335938 80.925781 71.984375 80.886719 C 71.632812 80.847656 71.066406 80.78125 70.714844 80.738281 C 70.363281 80.691406 69.800781 80.613281 69.449219 80.5625 C 69.097656 80.507812 68.53125 80.421875 68.179688 80.363281 C 67.828125 80.304688 67.265625 80.203125 66.914062 80.136719 C 66.558594 80.074219 65.996094 79.964844 65.644531 79.890625 C 65.292969 79.820312 64.726562 79.703125 64.375 79.625 C 64.023438 79.550781 63.460938 79.421875 63.109375 79.339844 C 62.757812 79.257812 62.191406 79.125 61.839844 79.039062 C 61.488281 78.953125 60.925781 78.808594 60.574219 78.71875 C 60.222656 78.628906 59.65625 78.480469 59.304688 78.386719 C 58.953125 78.292969 58.390625 78.140625 58.039062 78.042969 C 57.6875 77.949219 57.121094 77.789062 56.769531 77.691406 C 56.417969 77.59375 55.855469 77.433594 55.503906 77.332031 C 55.152344 77.230469 54.585938 77.066406 54.234375 76.964844 C 53.882812 76.863281 53.320312 76.699219 52.96875 76.597656 C 52.613281 76.496094 52.050781 76.328125 51.699219 76.226562 C 51.347656 76.125 50.785156 75.960938 50.429688 75.859375 C 50.078125 75.757812 49.515625 75.59375 49.164062 75.496094 C 48.8125 75.394531 48.246094 75.234375 47.894531 75.136719 C 47.542969 75.035156 46.980469 74.878906 46.628906 74.785156 C 46.277344 74.6875 45.710938 74.535156 45.359375 74.441406 C 45.007812 74.351562 44.445312 74.203125 44.09375 74.113281 C 43.742188 74.023438 43.175781 73.882812 42.824219 73.796875 C 42.472656 73.710938 41.910156 73.578125 41.558594 73.5 C 41.207031 73.417969 40.640625 73.292969 40.289062 73.21875 C 39.9375 73.140625 39.375 73.023438 39.023438 72.953125 C 38.671875 72.882812 38.105469 72.777344 37.753906 72.710938 C 37.402344 72.648438 36.839844 72.550781 36.484375 72.492188 C 36.132812 72.4375 35.570312 72.347656 35.21875 72.296875 C 34.867188 72.246094 34.300781 72.171875 33.949219 72.128906 C 33.597656 72.082031 33.035156 72.019531 32.683594 71.984375 C 32.332031 71.945312 31.765625 71.894531 31.414062 71.863281 C 31.0625 71.835938 30.5 71.796875 30.148438 71.773438 C 29.796875 71.753906 29.230469 71.722656 28.878906 71.710938 C 28.527344 71.699219 27.964844 71.683594 27.613281 71.675781 C 27.261719 71.671875 26.695312 71.667969 26.34375 71.671875 C 25.992188 71.671875 25.429688 71.683594 25.078125 71.695312 C 24.726562 71.703125 24.160156 71.726562 23.808594 71.746094 C 23.457031 71.761719 22.894531 71.796875 22.542969 71.824219 C 22.1875 71.851562 21.625 71.898438 21.273438 71.929688 C 20.921875 71.964844 20.355469 72.023438 20.003906 72.066406 C 19.652344 72.105469 19.089844 72.179688 18.738281 72.226562 C 18.386719 72.273438 17.820312 72.355469 17.46875 72.410156 C 17.117188 72.464844 16.554688 72.558594 16.203125 72.621094 C 15.851562 72.683594 15.285156 72.785156 14.933594 72.855469 C 14.582031 72.921875 14.019531 73.035156 13.667969 73.109375 C 13.316406 73.183594 12.75 73.304688 12.398438 73.382812 C 12.046875 73.460938 11.484375 73.589844 11.132812 73.675781 C 10.78125 73.757812 10.214844 73.894531 9.863281 73.984375 C 9.511719 74.070312 8.949219 74.214844 8.597656 74.308594 C 8.242188 74.398438 7.679688 74.550781 7.328125 74.644531 C 6.976562 74.738281 6.414062 74.894531 6.058594 74.992188 C 5.707031 75.089844 5.144531 75.25 4.792969 75.347656 C 4.441406 75.449219 3.875 75.609375 3.523438 75.710938 C 3.171875 75.8125 2.609375 75.976562 2.257812 76.078125 C 1.90625 76.179688 0.988281 76.449219 0.988281 76.449219 Z M 0.988281 7.644531 "/>
</g>
<g clip-path="url(#clip2)" clip-rule="nonzero">
<path style="fill:none;stroke-width:1.59404;stroke-linecap:butt;stroke-linejoin:miter;stroke:rgb(0%,0%,0%);stroke-opacity:1;stroke-miterlimit:10;" d="M -0.00107963 77.310262 C -0.00107963 77.310262 0.927241 77.041642 1.282768 76.938934 C 1.638295 76.832276 2.207138 76.670313 2.562665 76.567606 C 2.918192 76.464898 3.490986 76.298985 3.846513 76.200228 C 4.20204 76.09752 4.770883 75.939508 5.12641 75.84075 C 5.485888 75.741993 6.054731 75.583981 6.410258 75.489174 C 6.765785 75.390416 7.334628 75.240305 7.694106 75.145497 C 8.049633 75.05464 8.618476 74.908479 8.974003 74.821573 C 9.32953 74.730716 9.902324 74.592455 10.257851 74.505549 C 10.613378 74.422592 11.182221 74.292232 11.537748 74.213226 C 11.893275 74.13027 12.466069 74.007811 12.821596 73.932755 C 13.177123 73.86165 13.745966 73.747091 14.101493 73.675986 C 14.45702 73.608831 15.029814 73.502172 15.385341 73.442918 C 15.740868 73.379713 16.309711 73.284906 16.665238 73.229602 C 17.020765 73.174297 17.593559 73.091341 17.949086 73.039987 C 18.304613 72.992584 18.873456 72.921478 19.228983 72.878025 C 19.58451 72.838522 20.157304 72.779267 20.512831 72.743715 C 20.868358 72.708162 21.437201 72.660758 21.796678 72.637057 C 22.152205 72.609405 22.721049 72.573852 23.076576 72.5541 C 23.432103 72.538299 24.004896 72.514597 24.360423 72.502746 C 24.71595 72.494846 25.284794 72.482995 25.640321 72.479045 C 25.995848 72.479045 26.568641 72.479045 26.924168 72.486945 C 27.279695 72.490895 27.848538 72.506697 28.204066 72.522498 C 28.559593 72.534349 29.132386 72.562001 29.487913 72.585703 C 29.84344 72.605454 30.412283 72.644957 30.767811 72.67656 C 31.123338 72.704212 31.696131 72.759516 32.051658 72.795069 C 32.407185 72.830621 32.976028 72.897776 33.331556 72.94123 C 33.687083 72.984683 34.259876 73.063689 34.615403 73.115043 C 34.97093 73.166397 35.539773 73.253303 35.895301 73.312558 C 36.254778 73.371812 36.823621 73.47057 37.179148 73.533775 C 37.534675 73.59698 38.107469 73.707588 38.462996 73.778693 C 38.818523 73.849799 39.387366 73.968308 39.742893 74.043364 C 40.09842 74.118419 40.671214 74.248779 41.026741 74.327785 C 41.382268 74.410742 41.951111 74.545052 42.306638 74.631958 C 42.662165 74.718865 43.234959 74.861076 43.590486 74.951933 C 43.946013 75.04279 44.514856 75.188951 44.870383 75.283758 C 45.22591 75.378565 45.798704 75.532627 46.154231 75.627434 C 46.509758 75.726192 47.078601 75.884204 47.434128 75.982961 C 47.789655 76.081719 48.362449 76.243681 48.717976 76.346389 C 49.073503 76.449097 49.642346 76.611059 49.997873 76.717717 C 50.35735 76.820425 50.926194 76.986337 51.281721 77.089045 C 51.637248 77.191753 52.206091 77.357666 52.565568 77.460373 C 52.921095 77.567032 53.489939 77.732944 53.845466 77.835652 C 54.200993 77.93836 54.773786 78.104272 55.129313 78.20303 C 55.48484 78.305738 56.053684 78.4677 56.409211 78.570408 C 56.764738 78.669165 57.337531 78.827177 57.693058 78.925935 C 58.048585 79.024692 58.617429 79.178754 58.972956 79.273561 C 59.328483 79.368369 59.901276 79.51848 60.256803 79.609337 C 60.61233 79.700194 61.181174 79.842405 61.536701 79.929311 C 61.892228 80.016218 62.465021 80.154478 62.820548 80.237435 C 63.176075 80.320391 63.744919 80.446801 64.100446 80.525807 C 64.455973 80.600862 65.028766 80.723322 65.384293 80.794427 C 65.73982 80.865532 66.308664 80.976141 66.668141 81.043296 C 67.023668 81.110451 67.592511 81.209209 67.948038 81.268463 C 68.303565 81.327718 68.876359 81.418574 69.231886 81.469928 C 69.587413 81.525233 70.156256 81.604239 70.511783 81.647692 C 70.86731 81.695096 71.440104 81.762251 71.795631 81.801754 C 72.151158 81.837306 72.720001 81.892611 73.075528 81.924213 C 73.431055 81.955815 74.003849 81.999269 74.359376 82.02297 C 74.714903 82.046672 75.283746 82.074324 75.639273 82.090126 C 75.9948 82.105927 76.567594 82.125678 76.923121 82.129629 C 77.278648 82.137529 77.847491 82.14543 78.203018 82.141479 C 78.558545 82.141479 79.131339 82.133579 79.486866 82.125678 C 79.842393 82.117778 80.411236 82.094076 80.766763 82.078275 C 81.126241 82.062473 81.695084 82.026921 82.050611 82.003219 C 82.406138 81.979517 82.978931 81.932114 83.334459 81.900511 C 83.689986 81.868909 84.258829 81.809654 84.614356 81.770151 C 84.969883 81.730648 85.542676 81.659543 85.898204 81.612139 C 86.253731 81.564736 86.822574 81.48573 87.178101 81.430425 C 87.533628 81.375121 88.106421 81.284264 88.461949 81.22501 C 88.817476 81.161805 89.386319 81.059097 89.741846 80.991942 C 90.097373 80.924787 90.670166 80.810228 91.025693 80.739123 C 91.381221 80.664067 91.950064 80.545558 92.305591 80.466552 C 92.661118 80.387546 93.233911 80.257186 93.589438 80.17423 C 93.944966 80.091274 94.513809 79.953013 94.869336 79.862156 C 95.228813 79.77525 95.797656 79.629088 96.153183 79.538231 C 96.508711 79.447375 97.077554 79.297263 97.437031 79.202456 C 97.792558 79.103698 98.361401 78.949637 98.716928 78.850879 C 99.072455 78.752122 99.645249 78.59411 100.000776 78.491402 C 100.356303 78.392644 100.925146 78.230682 101.280673 78.127974 C 101.6362 78.025266 102.208994 77.859354 102.564521 77.756646 C 102.920048 77.653938 103.488891 77.488026 103.844418 77.381367 C 104.199945 77.27866 104.772739 77.112747 105.128266 77.010039 C 105.483793 76.907331 106.052636 76.741419 106.408163 76.638711 C 106.76369 76.536003 107.336484 76.370091 107.692011 76.267383 C 108.047538 76.168625 108.616381 76.006663 108.971908 75.907905 C 109.327435 75.809148 109.900229 75.651136 110.255756 75.552378 C 110.611283 75.457571 111.180126 75.303509 111.539604 75.212652 C 111.895131 75.117845 112.463974 74.971684 112.819501 74.880827 C 113.175028 74.78997 113.747822 74.65171 114.103349 74.564803 C 114.458876 74.481847 115.027719 74.347537 115.383246 74.268531 C 115.738773 74.185574 116.311567 74.059165 116.667094 73.984109 C 117.022621 73.909053 117.591464 73.794495 117.946991 73.723389 C 118.302518 73.656234 118.875312 73.549576 119.230839 73.486371 C 119.586366 73.423166 120.155209 73.324409 120.510736 73.269105 C 120.866263 73.20985 121.439057 73.126894 121.794584 73.07554 C 122.150111 73.024186 122.718954 72.953081 123.074481 72.909627 C 123.430008 72.866174 124.002802 72.802969 124.358329 72.767417 C 124.713856 72.731864 125.282699 72.68051 125.642176 72.652858 C 125.997703 72.625206 126.566547 72.589653 126.922074 72.569902 C 127.277601 72.55015 127.850394 72.522498 128.205921 72.510647 C 128.561448 72.498796 129.130292 72.486945 129.485819 72.482995 C 129.841346 72.479045 130.414139 72.479045 130.769666 72.482995 C 131.125193 72.486945 131.694037 72.498796 132.049564 72.510647 C 132.405091 72.522498 132.977884 72.55015 133.333411 72.569902 C 133.688938 72.589653 134.257782 72.629156 134.613309 72.656808 C 134.968836 72.68446 135.541629 72.735814 135.897156 72.771367 C 136.252683 72.80692 136.821527 72.870124 137.177054 72.913578 C 137.532581 72.953081 138.105374 73.028136 138.460901 73.07949 C 138.816428 73.130844 139.385272 73.2138 139.740799 73.273055 C 140.100276 73.328359 140.669119 73.427117 141.024646 73.490322 C 141.380173 73.553526 141.952967 73.660184 142.308494 73.73129 C 142.664021 73.798445 143.232864 73.916954 143.588391 73.99201 C 143.943918 74.067065 144.516712 74.193475 144.872239 74.272481 C 145.227766 74.351487 145.796609 74.485797 146.152136 74.572704 C 146.507663 74.65566 147.080457 74.797871 147.435984 74.888728 C 147.791511 74.979585 148.360354 75.125746 148.715881 75.216603 C 149.071408 75.31141 149.644202 75.465472 149.999729 75.560279 C 150.355256 75.659036 150.924099 75.817048 151.279626 75.915806 C 151.635153 76.014563 152.207947 76.176526 152.563474 76.275283 C 152.919001 76.377991 153.487844 76.543904 153.843371 76.646612 C 154.202848 76.749319 154.771692 76.911282 155.127219 77.01794 C 155.482746 77.120648 156.051589 77.28656 156.411066 77.389268 C 156.766593 77.495926 157.335437 77.661839 157.690964 77.764547 C 158.046491 77.867254 158.619284 78.033167 158.974811 78.135875 C 159.330338 78.234632 159.899182 78.400545 160.254709 78.499302 C 160.610236 78.60201 161.183029 78.760022 161.538556 78.85878 C 161.894083 78.957537 162.462927 79.111599 162.818454 79.206406 C 163.173981 79.301213 163.746774 79.455275 164.102301 79.546132 C 164.457828 79.636989 165.026672 79.78315 165.382199 79.870057 C 165.737726 79.956963 166.310519 80.095224 166.666046 80.17818 C 167.021573 80.261136 167.590417 80.391496 167.945944 80.470502 C 168.301471 80.549508 168.874264 80.671968 169.229791 80.743073 C 169.585318 80.818129 170.154162 80.928737 170.513639 80.995892 C 170.869166 81.063047 171.438009 81.165755 171.793536 81.22896 C 172.149063 81.288215 172.721857 81.379071 173.077384 81.434376 C 173.432911 81.48968 174.001754 81.568686 174.357281 81.61609 C 174.712808 81.663493 175.285602 81.734599 175.641129 81.774102 C 175.996656 81.813605 176.565499 81.872859 176.921026 81.904461 C 177.276553 81.936064 177.849347 81.979517 178.204874 82.007169 C 178.560401 82.030871 179.129244 82.062473 179.484771 82.078275 C 179.840298 82.098026 180.413092 82.117778 180.768619 82.125678 C 181.124146 82.133579 181.692989 82.141479 182.048516 82.141479 C 182.404043 82.14543 182.976837 82.137529 183.332364 82.129629 C 183.687891 82.121728 184.256734 82.105927 184.612261 82.090126 C 184.971739 82.074324 185.540582 82.042722 185.896109 82.01902 C 186.251636 81.999269 186.82443 81.955815 187.179957 81.924213 C 187.535484 81.892611 188.104327 81.837306 188.459854 81.797803 C 188.815381 81.7583 189.388175 81.691145 189.743702 81.643742 C 190.099229 81.600288 190.668072 81.521282 191.023599 81.465978 C 191.379126 81.414624 191.95192 81.323767 192.307447 81.264513 C 192.662974 81.205258 193.231817 81.10255 193.587344 81.039346 C 193.942871 80.972191 194.515665 80.861582 194.871192 80.790477 C 195.226719 80.715421 195.795562 80.596912 196.151089 80.517906 C 196.506616 80.44285 197.079409 80.31249 197.434937 80.229534 C 197.790464 80.146578 198.359307 80.012268 198.714834 79.925361 C 199.074311 79.838454 199.643154 79.692293 199.998682 79.601436 C 200.354209 79.510579 200.923052 79.360468 201.282529 79.265661 C 201.638056 79.170854 202.206899 79.016792 202.562427 78.918034 C 202.917954 78.819277 203.490747 78.661265 203.846274 78.562507 C 204.201801 78.46375 204.770644 78.297837 205.126171 78.19908 C 205.481699 78.096372 206.054492 77.930459 206.410019 77.827751 C 206.765546 77.725044 207.334389 77.559131 207.689916 77.456423 C 208.045444 77.349765 208.618237 77.183852 208.973764 77.081145 C 209.329291 76.978437 209.898134 76.812524 210.253661 76.709816 C 210.609189 76.607109 211.181982 76.441196 211.537509 76.338488 C 211.893036 76.239731 212.461879 76.077768 212.817406 75.97506 C 213.172933 75.876303 213.745727 75.718291 214.101254 75.619533 C 214.456781 75.524726 215.025624 75.370665 215.385102 75.275857 C 215.740629 75.18105 216.309472 75.034889 216.664999 74.944032 C 217.020526 74.853175 217.59332 74.710964 217.948847 74.624058 C 218.304374 74.537151 218.873217 74.402841 219.228744 74.323835 C 219.584271 74.240879 220.157065 74.114469 220.512592 74.039413 C 220.868119 73.960407 221.436962 73.841898 221.792489 73.774743 C 222.148016 73.703638 222.72081 73.593029 223.076337 73.529825 C 223.431864 73.46662 224.000707 73.367862 224.356234 73.308608 C 224.711761 73.249353 225.284555 73.162447 225.640082 73.111093 C 225.995609 73.059739 226.564452 72.984683 226.919979 72.937279 C 227.275506 72.893826 227.8483 72.830621 228.203827 72.791118 C 228.559354 72.755566 229.128197 72.704212 229.487674 72.672609 C 229.843201 72.644957 230.412045 72.605454 230.767572 72.581752 C 231.123099 72.562001 231.695892 72.534349 232.051419 72.518548 C 232.406946 72.506697 232.97579 72.490895 233.331317 72.486945 C 233.686844 72.479045 234.259637 72.479045 234.615164 72.479045 C 234.970691 72.482995 235.539535 72.494846 235.895062 72.502746 C 236.250589 72.514597 236.823382 72.538299 237.178909 72.558051 C 237.534436 72.573852 238.10328 72.609405 238.458807 72.637057 C 238.814334 72.664709 239.387127 72.712112 239.742654 72.747665 C 240.098181 72.779267 240.667025 72.842472 241.022552 72.881975 C 241.378079 72.925429 241.950872 72.996534 242.306399 73.043938 C 242.661926 73.095291 243.23077 73.178248 243.586297 73.233552 C 243.945774 73.288856 244.514617 73.383663 244.870144 73.446868 C 245.225671 73.510073 245.798465 73.612781 246.153992 73.683886 C 246.509519 73.751041 247.078362 73.8656 247.433889 73.940656 C 247.789416 74.011761 248.36221 74.138171 248.717737 74.217177 C 249.073264 74.296183 249.642107 74.430493 249.997634 74.513449 C 250.353161 74.596406 250.925955 74.738616 251.281482 74.825523 C 251.637009 74.91638 252.205852 75.062541 252.561379 75.153398 C 252.916906 75.248205 253.4897 75.398317 253.845227 75.493124 C 254.200754 75.591881 255.125124 75.844701 255.125124 75.844701 " transform="matrix(0.988849,0,0,-0.988849,0.989349,84.092694)"/>
</g>
<g clip-path="url(#clip3)" clip-rule="nonzero">
<path style="fill:none;stroke-width:1.59404;stroke-linecap:butt;stroke-linejoin:miter;stroke:rgb(0%,0%,0%);stroke-opacity:1;stroke-miterlimit:10;" d="M -0.00107963 7.72967 C -0.00107963 7.72967 0.927241 8.002241 1.282768 8.104949 C 1.638295 8.207656 2.207138 8.373569 2.562665 8.476277 C 2.918192 8.578985 3.490986 8.740947 3.846513 8.843655 C 4.20204 8.942412 4.770883 9.104375 5.12641 9.203132 C 5.485888 9.30189 6.054731 9.459902 6.410258 9.554709 C 6.765785 9.649516 7.334628 9.803578 7.694106 9.894435 C 8.049633 9.989242 8.618476 10.135403 8.974003 10.22231 C 9.32953 10.313167 9.902324 10.451427 10.257851 10.534383 C 10.613378 10.62129 11.182221 10.75165 11.537748 10.830656 C 11.893275 10.909662 12.466069 11.032121 12.821596 11.107177 C 13.177123 11.182233 13.745966 11.296791 14.101493 11.363946 C 14.45702 11.435052 15.029814 11.53776 15.385341 11.600964 C 15.740868 11.664169 16.309711 11.758976 16.665238 11.814281 C 17.020765 11.869585 17.593559 11.952541 17.949086 11.999945 C 18.304613 12.047348 18.873456 12.122404 19.228983 12.161907 C 19.58451 12.20536 20.157304 12.264615 20.512831 12.300168 C 20.868358 12.33177 21.437201 12.379174 21.796678 12.406826 C 22.152205 12.434478 22.721049 12.470031 23.076576 12.485832 C 23.432103 12.505583 24.004896 12.529285 24.360423 12.537186 C 24.71595 12.549037 25.284794 12.560887 25.640321 12.560887 C 25.995848 12.564838 26.568641 12.560887 26.924168 12.556937 C 27.279695 12.549037 27.848538 12.533235 28.204066 12.521384 C 28.559593 12.509534 29.132386 12.477931 29.487913 12.45818 C 29.84344 12.434478 30.412283 12.394975 30.767811 12.367323 C 31.123338 12.33572 31.696131 12.284366 32.051658 12.244863 C 32.407185 12.209311 32.976028 12.146106 33.331556 12.098702 C 33.687083 12.055249 34.259876 11.980193 34.615403 11.928839 C 34.97093 11.877485 35.539773 11.786629 35.895301 11.731324 C 36.254778 11.67207 36.823621 11.573312 37.179148 11.510108 C 37.534675 11.442952 38.107469 11.336294 38.462996 11.265189 C 38.818523 11.194084 39.387366 11.075574 39.742893 10.996568 C 40.09842 10.921513 40.671214 10.795103 41.026741 10.712147 C 41.382268 10.633141 41.951111 10.498831 42.306638 10.411924 C 42.662165 10.325017 43.234959 10.182807 43.590486 10.09195 C 43.946013 10.001093 44.514856 9.850981 44.870383 9.760124 C 45.22591 9.665317 45.798704 9.511256 46.154231 9.412498 C 46.509758 9.317691 47.078601 9.159679 47.434128 9.056971 C 47.789655 8.958213 48.362449 8.796251 48.717976 8.693543 C 49.073503 8.594786 49.642346 8.428873 49.997873 8.326165 C 50.35735 8.223458 50.926194 8.057545 51.281721 7.954837 C 51.637248 7.852129 52.206091 7.682266 52.565568 7.579559 C 52.921095 7.476851 53.489939 7.310938 53.845466 7.20823 C 54.200993 7.105523 54.773786 6.93961 55.129313 6.836902 C 55.48484 6.734194 56.053684 6.572232 56.409211 6.473474 C 56.764738 6.374717 57.337531 6.212755 57.693058 6.117947 C 58.048585 6.01919 58.617429 5.865128 58.972956 5.770321 C 59.328483 5.675514 59.901276 5.525402 60.256803 5.434545 C 60.61233 5.343689 61.181174 5.197527 61.536701 5.110621 C 61.892228 5.023714 62.465021 4.889404 62.820548 4.806448 C 63.176075 4.723491 63.744919 4.593131 64.100446 4.518076 C 64.455973 4.43907 65.028766 4.320561 65.384293 4.249455 C 65.73982 4.1744 66.308664 4.063791 66.668141 4.000586 C 67.023668 3.933431 67.592511 3.830723 67.948038 3.771469 C 68.303565 3.712214 68.876359 3.625308 69.231886 3.570004 C 69.587413 3.51865 70.156256 3.439644 70.511783 3.39224 C 70.86731 3.348787 71.440104 3.281632 71.795631 3.242129 C 72.151158 3.202626 72.720001 3.147322 73.075528 3.115719 C 73.431055 3.088067 74.003849 3.044614 74.359376 3.020912 C 74.714903 2.99721 75.283746 2.965608 75.639273 2.949806 C 75.9948 2.934005 76.567594 2.918204 76.923121 2.910303 C 77.278648 2.902403 77.847491 2.898453 78.203018 2.898453 C 78.558545 2.898453 79.131339 2.906353 79.486866 2.918204 C 79.842393 2.926105 80.411236 2.945856 80.766763 2.961657 C 81.126241 2.981409 81.695084 3.013011 82.050611 3.036713 C 82.406138 3.064365 82.978931 3.107819 83.334459 3.139421 C 83.689986 3.174974 84.258829 3.230278 84.614356 3.269781 C 84.969883 3.313234 85.542676 3.380389 85.898204 3.427793 C 86.253731 3.475196 86.822574 3.558153 87.178101 3.613457 C 87.533628 3.664811 88.106421 3.759618 88.461949 3.818873 C 88.817476 3.878127 89.386319 3.984785 89.741846 4.05194 C 90.097373 4.119095 90.670166 4.229704 91.025693 4.30476 C 91.381221 4.375865 91.950064 4.498324 92.305591 4.57733 C 92.661118 4.656336 93.233911 4.786696 93.589438 4.869653 C 93.944966 4.952609 94.513809 5.090869 94.869336 5.177776 C 95.228813 5.264683 95.797656 5.410844 96.153183 5.501701 C 96.508711 5.596508 97.077554 5.746619 97.437031 5.841426 C 97.792558 5.936234 98.361401 6.094246 98.716928 6.189053 C 99.072455 6.28781 99.645249 6.449773 100.000776 6.54853 C 100.356303 6.651238 100.925146 6.8132 101.280673 6.915908 C 101.6362 7.018616 102.208994 7.184529 102.564521 7.287236 C 102.920048 7.389944 103.488891 7.555857 103.844418 7.658565 C 104.199945 7.761272 104.772739 7.931135 105.128266 8.033843 C 105.483793 8.136551 106.052636 8.302464 106.408163 8.405171 C 106.76369 8.507879 107.336484 8.669842 107.692011 8.772549 C 108.047538 8.875257 108.616381 9.037219 108.971908 9.135977 C 109.327435 9.234734 109.900229 9.392747 110.255756 9.487554 C 110.611283 9.586311 111.180126 9.736423 111.539604 9.83123 C 111.895131 9.922087 112.463974 10.072198 112.819501 10.159105 C 113.175028 10.249962 113.747822 10.392173 114.103349 10.475129 C 114.458876 10.562035 115.027719 10.696346 115.383246 10.775352 C 115.738773 10.854358 116.311567 10.980767 116.667094 11.055823 C 117.022621 11.130879 117.591464 11.249388 117.946991 11.316543 C 118.302518 11.387648 118.875312 11.494306 119.230839 11.557511 C 119.586366 11.620716 120.155209 11.715523 120.510736 11.774778 C 120.866263 11.830082 121.439057 11.916988 121.794584 11.968342 C 122.150111 12.015746 122.718954 12.090802 123.074481 12.134255 C 123.430008 12.177708 124.002802 12.240913 124.358329 12.272516 C 124.713856 12.308068 125.282699 12.359422 125.642176 12.387074 C 125.997703 12.414726 126.566547 12.454229 126.922074 12.473981 C 127.277601 12.493732 127.850394 12.517434 128.205921 12.529285 C 128.561448 12.541136 129.130292 12.556937 129.485819 12.560887 C 129.841346 12.564838 130.414139 12.564838 130.769666 12.560887 C 131.125193 12.556937 131.694037 12.541136 132.049564 12.529285 C 132.405091 12.517434 132.977884 12.493732 133.333411 12.473981 C 133.688938 12.450279 134.257782 12.414726 134.613309 12.387074 C 134.968836 12.359422 135.541629 12.308068 135.897156 12.272516 C 136.252683 12.236963 136.821527 12.173758 137.177054 12.130305 C 137.532581 12.086851 138.105374 12.011796 138.460901 11.964392 C 138.816428 11.913038 139.385272 11.826132 139.740799 11.770827 C 140.100276 11.711573 140.669119 11.616766 141.024646 11.553561 C 141.380173 11.490356 141.952967 11.383698 142.308494 11.312593 C 142.664021 11.241487 143.232864 11.126928 143.588391 11.051873 C 143.943918 10.976817 144.516712 10.850407 144.872239 10.771401 C 145.227766 10.688445 145.796609 10.554135 146.152136 10.471179 C 146.507663 10.384272 147.080457 10.242061 147.435984 10.155154 C 147.791511 10.064298 148.360354 9.918136 148.715881 9.823329 C 149.071408 9.728522 149.644202 9.578411 149.999729 9.479653 C 150.355256 9.384846 150.924099 9.226834 151.279626 9.128076 C 151.635153 9.029319 152.207947 8.867357 152.563474 8.764649 C 152.919001 8.665891 153.487844 8.499979 153.843371 8.397271 C 154.202848 8.294563 154.771692 8.12865 155.127219 8.025943 C 155.482746 7.923235 156.051589 7.757322 156.411066 7.650664 C 156.766593 7.547956 157.335437 7.382044 157.690964 7.279336 C 158.046491 7.176628 158.619284 7.010715 158.974811 6.908008 C 159.330338 6.8053 159.899182 6.643337 160.254709 6.54063 C 160.610236 6.441872 161.183029 6.28386 161.538556 6.185103 C 161.894083 6.086345 162.462927 5.928333 162.818454 5.833526 C 163.173981 5.738719 163.746774 5.588607 164.102301 5.49775 C 164.457828 5.402943 165.026672 5.260732 165.382199 5.173826 C 165.737726 5.082969 166.310519 4.944708 166.666046 4.861752 C 167.021573 4.778796 167.590417 4.648436 167.945944 4.56943 C 168.301471 4.494374 168.874264 4.371915 169.229791 4.296859 C 169.585318 4.225754 170.154162 4.111195 170.513639 4.04404 C 170.869166 3.976885 171.438009 3.874177 171.793536 3.814922 C 172.149063 3.755668 172.721857 3.660861 173.077384 3.609507 C 173.432911 3.554202 174.001754 3.471246 174.357281 3.423843 C 174.712808 3.376439 175.285602 3.309284 175.641129 3.269781 C 175.996656 3.230278 176.565499 3.171023 176.921026 3.139421 C 177.276553 3.107819 177.849347 3.060415 178.204874 3.036713 C 178.560401 3.013011 179.129244 2.977459 179.484771 2.961657 C 179.840298 2.945856 180.413092 2.926105 180.768619 2.914254 C 181.124146 2.906353 181.692989 2.898453 182.048516 2.898453 C 182.404043 2.898453 182.976837 2.902403 183.332364 2.910303 C 183.687891 2.918204 184.256734 2.937956 184.612261 2.953757 C 184.971739 2.965608 185.540582 2.99721 185.896109 3.020912 C 186.251636 3.044614 186.82443 3.088067 187.179957 3.119669 C 187.535484 3.151272 188.104327 3.206576 188.459854 3.246079 C 188.815381 3.281632 189.388175 3.348787 189.743702 3.39619 C 190.099229 3.443594 190.668072 3.5226 191.023599 3.573954 C 191.379126 3.629258 191.95192 3.716165 192.307447 3.77937 C 192.662974 3.838624 193.231817 3.937382 193.587344 4.004537 C 193.942871 4.071692 194.515665 4.1823 194.871192 4.253406 C 195.226719 4.324511 195.795562 4.44697 196.151089 4.522026 C 196.506616 4.601032 197.079409 4.727442 197.434937 4.810398 C 197.790464 4.893354 198.359307 5.031615 198.714834 5.118521 C 199.074311 5.205428 199.643154 5.347639 199.998682 5.438496 C 200.354209 5.529353 200.923052 5.679464 201.282529 5.774271 C 201.638056 5.869079 202.206899 6.027091 202.562427 6.121898 C 202.917954 6.220655 203.490747 6.378667 203.846274 6.481375 C 204.201801 6.580133 204.770644 6.742095 205.126171 6.844803 C 205.481699 6.947511 206.054492 7.113423 206.410019 7.216131 C 206.765546 7.318839 207.334389 7.484751 207.689916 7.587459 C 208.045444 7.690167 208.618237 7.85608 208.973764 7.962738 C 209.329291 8.065446 209.898134 8.231358 210.253661 8.334066 C 210.609189 8.436774 211.181982 8.602686 211.537509 8.701444 C 211.893036 8.804152 212.461879 8.966114 212.817406 9.064872 C 213.172933 9.163629 213.745727 9.325591 214.101254 9.420399 C 214.456781 9.519156 215.025624 9.673218 215.385102 9.764075 C 215.740629 9.858882 216.309472 10.008993 216.664999 10.09985 C 217.020526 10.190707 217.59332 10.328968 217.948847 10.415874 C 218.304374 10.502781 218.873217 10.637091 219.228744 10.720047 C 219.584271 10.799053 220.157065 10.929413 220.512592 11.004469 C 220.868119 11.079525 221.436962 11.198034 221.792489 11.269139 C 222.148016 11.340245 222.72081 11.446903 223.076337 11.514058 C 223.431864 11.577263 224.000707 11.67602 224.356234 11.735275 C 224.711761 11.790579 225.284555 11.881436 225.640082 11.93279 C 225.995609 11.984144 226.564452 12.059199 226.919979 12.102653 C 227.275506 12.146106 227.8483 12.213261 228.203827 12.248814 C 228.559354 12.284366 229.128197 12.339671 229.487674 12.367323 C 229.843201 12.398925 230.412045 12.438428 230.767572 12.45818 C 231.123099 12.481881 231.695892 12.509534 232.051419 12.521384 C 232.406946 12.537186 232.97579 12.549037 233.331317 12.556937 C 233.686844 12.560887 234.259637 12.564838 234.615164 12.560887 C 234.970691 12.560887 235.539535 12.549037 235.895062 12.537186 C 236.250589 12.529285 236.823382 12.505583 237.178909 12.485832 C 237.534436 12.46608 238.10328 12.430528 238.458807 12.402875 C 238.814334 12.379174 239.387127 12.32782 239.742654 12.296217 C 240.098181 12.260665 240.667025 12.20141 241.022552 12.157957 C 241.378079 12.118454 241.950872 12.047348 242.306399 11.995995 C 242.661926 11.948591 243.23077 11.865635 243.586297 11.81033 C 243.945774 11.751076 244.514617 11.656269 244.870144 11.597014 C 245.225671 11.533809 245.798465 11.427151 246.153992 11.359996 C 246.509519 11.292841 247.078362 11.178282 247.433889 11.103227 C 247.789416 11.028171 248.36221 10.905712 248.717737 10.826706 C 249.073264 10.743749 249.642107 10.613389 249.997634 10.530433 C 250.353161 10.443526 250.925955 10.305266 251.281482 10.214409 C 251.637009 10.127502 252.205852 9.981341 252.561379 9.886534 C 252.916906 9.795677 253.4897 9.641615 253.845227 9.546808 C 254.200754 9.452001 255.125124 9.195231 255.125124 9.195231 " transform="matrix(0.988849,0,0,-0.988849,0.989349,84.092694)"/>
</g>
</g>
</svg>
