<?xml version="1.0" encoding="UTF-8"?>
<svg xmlns="http://www.w3.org/2000/svg" xmlns:xlink="http://www.w3.org/1999/xlink" width="254.623pt" height="149.609pt" viewBox="0 0 254.623 149.609" version="1.2">
<defs>
<clipPath id="clip1">
  <path d="M 58 0 L 254.101562 0 L 254.101562 149.21875 L 58 149.21875 Z M 58 0 "/>
</clipPath>
<clipPath id="clip2">
  <path d="M 0.144531 44 L 70 44 L 70 105 L 0.144531 105 Z M 0.144531 44 "/>
</clipPath>
</defs>
<g id="surface1">
<g clip-path="url(#clip1)" clip-rule="nonzero">
<path style="fill:none;stroke-width:0.3985;stroke-linecap:butt;stroke-linejoin:miter;stroke:rgb(0%,0%,0%);stroke-opacity:1;stroke-miterlimit:10;" d="M 0.00171751 -0.000448586 C 0.00171751 -0.000448586 -0.00219895 -0.000448586 0.00171751 -0.000448586 C 0.00171751 -0.000448586 -0.00219895 -0.000448586 0.00563397 -0.000448586 C 0.00955043 0.00346787 0.0173833 0.00346787 0.0369656 0.0113008 C 0.0604644 0.0230502 0.103545 0.038716 0.162292 0.0739641 C 0.224956 0.109212 0.342449 0.171876 0.46386 0.261954 C 0.589186 0.352033 0.83984 0.528273 1.063078 0.724096 C 1.286316 0.916003 1.724959 1.299816 2.085274 1.66013 C 2.445588 2.020444 3.130968 2.725407 3.663607 3.324625 C 4.196245 3.919927 5.183193 5.067449 5.92732 5.976068 C 6.671447 6.884686 8.026542 8.592262 9.025239 9.865111 C 10.023936 11.141877 11.82159 13.491752 13.129688 15.16408 C 14.437785 16.836408 16.771995 19.855998 18.456072 21.916055 C 20.140149 23.976113 23.132324 27.622336 25.27071 30.011376 C 27.413013 32.400416 31.204146 36.53228 33.883003 39.132809 C 36.565778 41.733337 41.300777 46.123688 44.590602 48.751632 C 47.880428 51.379576 53.657204 55.660265 57.593246 58.07672 C 61.533203 60.497092 68.402672 64.260809 72.96143 66.191623 C 77.520189 68.126354 85.384438 70.860042 90.452336 72.011481 C 95.52415 73.16292 104.120777 74.380939 109.505908 74.4906 C 114.891039 74.600261 123.87148 73.934463 129.260527 72.802606 C 134.653491 71.666833 143.33628 68.784319 148.353264 66.320866 C 153.370248 63.857414 161.179667 58.769934 165.425109 55.041465 C 169.67055 51.312996 175.862472 44.228122 178.940808 39.446125 C 182.023061 34.668046 185.994351 26.067502 187.619681 20.596209 C 189.248928 15.120999 190.670603 5.713665 190.670603 -0.000448586 C 190.670603 -5.714562 189.248928 -15.121896 187.619681 -20.597106 C 185.994351 -26.068399 182.023061 -34.668943 178.940808 -39.447023 C 175.862472 -44.225103 169.654884 -51.309977 165.409443 -55.038446 C 161.167918 -58.766914 153.370248 -63.858311 148.353264 -66.321764 C 143.340197 -68.785216 134.649575 -71.66773 129.260527 -72.803503 C 123.87148 -73.93536 114.902789 -74.608991 109.517658 -74.49933 C 104.132527 -74.389669 95.52415 -73.159901 90.452336 -72.008462 C 85.376605 -70.853107 77.512356 -68.119418 72.953597 -66.188604 C 68.394839 -64.253873 61.529287 -60.497989 57.593246 -58.077618 C 53.661121 -55.657246 47.880428 -51.380473 44.590602 -48.752529 C 41.300777 -46.124585 36.565778 -41.738151 33.88692 -39.137622 C 31.208062 -36.537094 27.41693 -32.40523 25.274627 -30.01619 C 23.13624 -27.62715 20.140149 -23.97701 18.456072 -21.916953 C 16.771995 -19.856895 14.437785 -16.833389 13.129688 -15.164977 C 11.82159 -13.49265 10.023936 -11.142774 9.025239 -9.866009 C 8.026542 -8.593159 6.671447 -6.885583 5.92732 -5.976965 C 5.183193 -5.068346 4.196245 -3.920824 3.663607 -3.321606 C 3.130968 -2.722388 2.445588 -2.021341 2.085274 -1.661027 C 1.724959 -1.296796 1.286316 -0.9169 1.063078 -0.721077 C 0.83984 -0.529171 0.589186 -0.35293 0.46386 -0.262851 C 0.342449 -0.172773 0.224956 -0.106193 0.162292 -0.0709448 C 0.103545 -0.0396132 0.0604644 -0.0239473 0.0369656 -0.012198 C 0.0173833 -0.00436504 0.00955043 -0.00436504 0.00563397 -0.000448586 C -0.00219895 -0.000448586 0.00171751 -0.000448586 0.00171751 -0.000448586 C -0.00219895 -0.000448586 0.00171751 -0.000448586 0.00171751 -0.000448586 " transform="matrix(0.997393,0,0,-0.997393,63.732662,74.605021)"/>
</g>
<g clip-path="url(#clip2)" clip-rule="nonzero">
<path style="fill:none;stroke-width:0.3985;stroke-linecap:butt;stroke-linejoin:miter;stroke:rgb(0%,0%,0%);stroke-opacity:1;stroke-miterlimit:10;" d="M 0.00171751 -0.000448586 C 0.00171751 -0.000448586 0.00171751 -0.000448586 -0.00219895 -0.000448586 C -0.00219895 -0.000448586 -0.00611541 -0.000448586 -0.0139483 -0.00436504 C -0.0217812 -0.0082815 -0.0335306 -0.012198 -0.0531129 -0.0239473 C -0.0726952 -0.0356967 -0.11186 -0.0591955 -0.154941 -0.0866107 C -0.198022 -0.117942 -0.280268 -0.176689 -0.35468 -0.239353 C -0.429093 -0.305932 -0.574002 -0.431259 -0.695412 -0.552669 C -0.812906 -0.67408 -1.043977 -0.909067 -1.220218 -1.108806 C -1.396458 -1.308546 -1.725441 -1.688442 -1.976094 -1.993926 C -2.222831 -2.295494 -2.673224 -2.86338 -3.006123 -3.290274 C -3.339022 -3.713252 -3.93824 -4.496543 -4.376884 -5.052681 C -4.81161 -5.612734 -5.590986 -6.619264 -6.151039 -7.304644 C -6.71501 -7.990025 -7.70979 -9.208043 -8.422586 -10.003085 C -9.135381 -10.798126 -10.400397 -12.176719 -11.29335 -13.042257 C -12.186303 -13.911711 -13.768552 -15.37255 -14.86516 -16.249837 C -15.961769 -17.127123 -17.88475 -18.552714 -19.196764 -19.359505 C -20.508778 -20.166295 -22.799906 -21.419562 -24.319492 -22.061862 C -25.839078 -22.708077 -28.459189 -23.620612 -30.1511 -24.004425 C -31.839093 -24.388238 -34.705941 -24.79555 -36.499679 -24.830798 C -38.297334 -24.866046 -41.289509 -24.646724 -43.087163 -24.266828 C -44.884818 -23.890848 -47.779081 -22.927399 -49.451409 -22.104943 C -51.123737 -21.286403 -53.728182 -19.590576 -55.142024 -18.349059 C -56.555866 -17.103625 -58.619839 -14.742 -59.645952 -13.148001 C -60.672064 -11.554002 -61.995827 -8.691071 -62.540215 -6.866001 C -63.080686 -5.040931 -63.558494 -1.903848 -63.558494 -0.000448586 C -63.558494 1.906867 -63.080686 5.040034 -62.540215 6.865104 C -61.995827 8.690174 -60.67598 11.557022 -59.645952 13.147104 C -58.619839 14.741103 -56.551949 17.102727 -55.138107 18.344245 C -53.720349 19.589679 -51.123737 21.285506 -49.451409 22.107962 C -47.779081 22.926502 -44.884818 23.889951 -43.087163 24.265931 C -41.289509 24.645827 -38.301251 24.869065 -36.507512 24.833817 C -34.709858 24.794653 -31.839093 24.387341 -30.1511 23.999612 C -28.459189 23.615799 -25.839078 22.70718 -24.319492 22.060964 C -22.799906 21.418665 -20.508778 20.165398 -19.196764 19.358608 C -17.88475 18.551817 -15.961769 17.126226 -14.86516 16.248939 C -13.768552 15.375569 -12.190219 13.910813 -11.29335 13.045276 C -10.400397 12.179739 -9.139298 10.801145 -8.426502 10.006104 C -7.70979 9.207146 -6.71501 7.993044 -6.151039 7.303747 C -5.590986 6.618367 -4.81161 5.611837 -4.376884 5.0557 C -3.93824 4.495646 -3.339022 3.712354 -3.006123 3.289377 C -2.673224 2.862483 -2.222831 2.294596 -1.976094 1.993029 C -1.725441 1.687545 -1.396458 1.307649 -1.220218 1.107909 C -1.043977 0.90817 -0.812906 0.673182 -0.695412 0.551772 C -0.574002 0.434278 -0.429093 0.305035 -0.35468 0.242372 C -0.280268 0.175792 -0.198022 0.117045 -0.154941 0.0857135 C -0.11186 0.0582983 -0.0726952 0.0347995 -0.0531129 0.0230502 C -0.0335306 0.0113008 -0.0217812 0.00738433 -0.0139483 0.00346787 C -0.00611541 -0.000448586 -0.00219895 -0.000448586 -0.00219895 -0.000448586 C 0.00171751 -0.000448586 0.00171751 -0.000448586 0.00171751 -0.000448586 " transform="matrix(0.997393,0,0,-0.997393,63.732662,74.605021)"/>
</g>
<path style="fill:none;stroke-width:1.19553;stroke-linecap:butt;stroke-linejoin:miter;stroke:rgb(0%,0%,0%);stroke-opacity:1;stroke-miterlimit:10;" d="M 0.00171751 -31.782513 L 0.00171751 31.781615 " transform="matrix(0.997393,0,0,-0.997393,63.732662,74.605021)"/>
</g>
</svg>
