<?xml version="1.0" encoding="UTF-8"?>
<svg xmlns="http://www.w3.org/2000/svg" xmlns:xlink="http://www.w3.org/1999/xlink" width="252.833pt" height="60.335pt" viewBox="0 0 252.833 60.335" version="1.2">
<defs>
<clipPath id="clip1">
  <path d="M 45 0 L 237 0 L 237 59.675781 L 45 59.675781 Z M 45 0 "/>
</clipPath>
</defs>
<g id="surface1">
<g clip-path="url(#clip1)" clip-rule="nonzero">
<path style="fill:none;stroke-width:0.3985;stroke-linecap:butt;stroke-linejoin:miter;stroke:rgb(0%,0%,0%);stroke-opacity:1;stroke-miterlimit:10;" d="M -0.00158204 -0.00173239 C 0.00236726 -0.00173239 -0.00158204 -0.00173239 0.00236726 -0.00173239 C 0.0102659 0.00221691 0.0181645 0.00221691 0.037911 0.00616622 C 0.0616068 0.0101155 0.1011 0.0140648 0.164289 0.029862 C 0.231427 0.04171 0.357805 0.0654058 0.49998 0.104899 C 0.642154 0.140443 0.922555 0.21153 1.191108 0.290516 C 1.46361 0.369502 1.988867 0.527474 2.450936 0.677548 C 2.913004 0.823672 3.793699 1.115921 4.512472 1.368676 C 5.231246 1.621432 6.585857 2.107196 7.632422 2.494228 C 8.678988 2.881259 10.618096 3.611881 12.059592 4.156885 C 13.501088 4.701889 16.123426 5.71291 18.015142 6.431684 C 19.906859 7.150457 23.311159 8.449778 25.692589 9.330473 C 28.074019 10.211167 32.295825 11.767193 35.182766 12.778215 C 38.069707 13.785287 43.120867 15.522981 46.505421 16.601141 C 49.893923 17.679301 55.75469 19.484133 59.593414 20.542546 C 63.428188 21.60096 69.960336 23.299161 74.170294 24.235146 C 78.376303 25.171131 85.465303 26.59288 89.928017 27.295856 C 94.39073 27.998832 101.771979 28.946665 106.329476 29.306052 C 110.883023 29.669388 118.291917 29.965586 122.762529 29.902397 C 127.233141 29.835258 134.381381 29.381089 138.555796 28.832135 C 142.73021 28.283182 149.183372 26.98781 152.844377 25.945194 C 156.505382 24.898629 161.994914 22.805498 164.948993 21.308711 C 167.903073 19.811925 172.065639 17.015818 174.139024 15.147797 C 176.212408 13.283726 178.807101 9.97026 179.881311 7.86923 C 180.955522 5.768201 181.891507 2.182233 181.891507 -0.00173239 C 181.891507 -2.181748 180.955522 -5.767716 179.881311 -7.868746 C 178.807101 -9.969775 176.212408 -13.283241 174.139024 -15.151262 C 172.065639 -17.015334 167.895174 -19.811441 164.941095 -21.308227 C 161.987015 -22.805013 156.505382 -24.898144 152.844377 -25.94471 C 149.183372 -26.987326 142.73021 -28.282698 138.555796 -28.831651 C 134.385331 -29.380604 127.244989 -29.838723 122.770428 -29.905861 C 118.299816 -29.96905 110.883023 -29.664954 106.325526 -29.305567 C 101.76803 -28.942231 94.378882 -27.998348 89.916169 -27.295372 C 85.453455 -26.592395 78.376303 -25.170646 74.170294 -24.234661 C 69.960336 -23.298676 63.428188 -21.600475 59.593414 -20.542062 C 55.75469 -19.483648 49.897873 -17.678817 46.50937 -16.600657 C 43.124816 -15.526446 38.073657 -13.788752 35.186716 -12.77773 C 32.295825 -11.770658 28.074019 -10.210683 25.692589 -9.329988 C 23.311159 -8.449293 19.906859 -7.149972 18.015142 -6.431199 C 16.123426 -5.712426 13.501088 -4.705353 12.059592 -4.1564 C 10.618096 -3.611396 8.678988 -2.880775 7.632422 -2.493743 C 6.585857 -2.106711 5.231246 -1.620947 4.512472 -1.368192 C 3.793699 -1.119385 2.909055 -0.823188 2.446986 -0.673114 C 1.988867 -0.523041 1.46361 -0.369018 1.191108 -0.290032 C 0.922555 -0.211045 0.642154 -0.139958 0.49998 -0.104414 C 0.357805 -0.0688706 0.231427 -0.0412254 0.164289 -0.0293775 C 0.1011 -0.0135803 0.0616068 -0.009631 0.037911 -0.00568169 C 0.0181645 -0.00173239 0.0102659 -0.00173239 0.00236726 -0.00173239 C -0.00158204 0.00221691 0.00236726 -0.00173239 -0.00158204 -0.00173239 " transform="matrix(0.989098,0,0,-0.989098,50.759377,29.83813)"/>
</g>
<path style="fill:none;stroke-width:0.3985;stroke-linecap:butt;stroke-linejoin:miter;stroke:rgb(0%,0%,0%);stroke-opacity:1;stroke-miterlimit:10;" d="M -0.00158204 -0.00173239 C -0.00158204 -0.00173239 0.00236726 -0.00173239 -0.00158204 -0.00173239 C -0.00158204 -0.00173239 -0.00158204 -0.00173239 -0.00553135 -0.00173239 C -0.00948065 -0.00173239 -0.0173793 -0.00173239 -0.0292272 -0.00568169 C -0.0371258 -0.009631 -0.0608216 -0.0175296 -0.0845174 -0.0254282 C -0.108213 -0.0372761 -0.151656 -0.0530733 -0.199047 -0.0728199 C -0.24249 -0.0925664 -0.329374 -0.132059 -0.400462 -0.171552 C -0.475499 -0.211045 -0.621623 -0.282133 -0.736153 -0.349271 C -0.850682 -0.41246 -1.063945 -0.534888 -1.229816 -0.629672 C -1.395686 -0.728404 -1.703732 -0.910072 -1.928842 -1.048298 C -2.157902 -1.186524 -2.572579 -1.439279 -2.868777 -1.620947 C -3.168924 -1.802615 -3.70208 -2.130407 -4.081213 -2.351568 C -4.460346 -2.572729 -5.127778 -2.96371 -5.589847 -3.220415 C -6.051916 -3.473171 -6.861523 -3.911543 -7.406527 -4.184045 C -7.95548 -4.456547 -8.911212 -4.918616 -9.5431 -5.187168 C -10.174989 -5.45967 -11.257098 -5.894094 -11.964024 -6.135001 C -12.670949 -6.375909 -13.871537 -6.743194 -14.637702 -6.928811 C -15.403867 -7.110479 -16.683442 -7.363235 -17.481201 -7.461967 C -18.27896 -7.5607 -19.590129 -7.647585 -20.387889 -7.635737 C -21.185648 -7.627838 -22.48102 -7.521207 -23.243235 -7.386931 C -24.001502 -7.252654 -25.190242 -6.928811 -25.869522 -6.664208 C -26.544853 -6.403554 -27.575622 -5.870398 -28.128524 -5.487315 C -28.685376 -5.108182 -29.475237 -4.389409 -29.866218 -3.911543 C -30.261148 -3.429728 -30.754811 -2.576679 -30.960175 -2.035624 C -31.165539 -1.49062 -31.343258 -0.562534 -31.343258 -0.00173239 C -31.343258 0.563018 -31.165539 1.491104 -30.960175 2.032159 C -30.754811 2.577163 -30.261148 3.430213 -29.866218 3.912028 C -29.475237 4.389894 -28.681427 5.104718 -28.128524 5.4878 C -27.571672 5.870882 -26.544853 6.404039 -25.869522 6.664693 C -25.190242 6.929296 -24.001502 7.253139 -23.243235 7.387415 C -22.48102 7.521692 -21.189597 7.628323 -20.391838 7.636221 C -19.590129 7.648069 -18.27896 7.561185 -17.481201 7.462452 C -16.683442 7.363719 -15.399918 7.110964 -14.637702 6.925347 C -13.871537 6.743679 -12.670949 6.376393 -11.964024 6.135486 C -11.257098 5.890629 -10.174989 5.456206 -9.5431 5.187653 C -8.911212 4.915151 -7.95548 4.457032 -7.410476 4.18453 C -6.861523 3.912028 -6.051916 3.473655 -5.589847 3.2209 C -5.127778 2.964195 -4.460346 2.573214 -4.081213 2.352053 C -3.70208 2.126942 -3.168924 1.803099 -2.868777 1.621432 C -2.572579 1.439764 -2.157902 1.187008 -1.928842 1.048782 C -1.703732 0.910557 -1.395686 0.728889 -1.229816 0.630156 C -1.063945 0.531424 -0.850682 0.412945 -0.736153 0.345806 C -0.621623 0.282617 -0.475499 0.21153 -0.400462 0.172037 C -0.329374 0.132544 -0.24249 0.0930509 -0.199047 0.0733044 C -0.151656 0.0535579 -0.108213 0.0338113 -0.0845174 0.0259127 C -0.0608216 0.0180141 -0.0371258 0.0101155 -0.0292272 0.00616622 C -0.0173793 0.00221691 -0.00948065 0.00221691 -0.00553135 0.00221691 C -0.00158204 -0.00173239 -0.00158204 -0.00173239 -0.00158204 -0.00173239 C 0.00236726 -0.00173239 -0.00158204 -0.00173239 -0.00158204 -0.00173239 " transform="matrix(0.989098,0,0,-0.989098,50.759377,29.83813)"/>
<path style="fill:none;stroke-width:0.3985;stroke-linecap:butt;stroke-linejoin:miter;stroke:rgb(0%,0%,0%);stroke-opacity:1;stroke-miterlimit:10;" d="M -43.834906 -0.00173239 L 196.650056 -0.00173239 " transform="matrix(0.989098,0,0,-0.989098,50.759377,29.83813)"/>
</g>
</svg>
