<?xml version="1.0" encoding="UTF-8"?>
<svg xmlns="http://www.w3.org/2000/svg" xmlns:xlink="http://www.w3.org/1999/xlink" width="255.124pt" height="85.041pt" viewBox="0 0 255.124 85.041" version="1.2">
<defs>
<clipPath id="clip1">
  <path d="M 0.988281 3 L 253.269531 3 L 253.269531 81 L 0.988281 81 Z M 0.988281 3 "/>
</clipPath>
<clipPath id="clip2">
  <path d="M 0.988281 0 L 253.269531 0 L 253.269531 27 L 0.988281 27 Z M 0.988281 0 "/>
</clipPath>
<clipPath id="clip3">
  <path d="M 0.988281 57 L 253.269531 57 L 253.269531 84.09375 L 0.988281 84.09375 Z M 0.988281 57 "/>
</clipPath>
</defs>
<g id="surface1">
<g clip-path="url(#clip1)" clip-rule="nonzero">
<path style=" stroke:none;fill-rule:nonzero;fill:rgb(50%,50%,50%);fill-opacity:0.5;" d="M 0.988281 3.820312 C 0.988281 3.820312 1.90625 3.820312 2.257812 3.820312 C 2.609375 3.820312 3.171875 3.820312 3.523438 3.820312 C 3.875 3.820312 4.441406 3.820312 4.792969 3.820312 C 5.144531 3.820312 5.707031 3.820312 6.058594 3.820312 C 6.414062 3.820312 6.976562 3.820312 7.328125 3.820312 C 7.679688 3.820312 8.242188 3.820312 8.597656 3.820312 C 8.949219 3.820312 9.511719 3.820312 9.863281 3.820312 C 10.214844 3.820312 10.78125 3.820312 11.132812 3.820312 C 11.484375 3.820312 12.046875 3.820312 12.398438 3.820312 C 12.75 3.820312 13.316406 3.820312 13.667969 3.820312 C 14.019531 3.820312 14.582031 3.820312 14.933594 3.820312 C 15.285156 3.820312 15.851562 3.820312 16.203125 3.820312 C 16.554688 3.820312 17.117188 3.820312 17.46875 3.820312 C 17.820312 3.820312 18.386719 3.820312 18.738281 3.820312 C 19.089844 3.820312 19.652344 3.820312 20.003906 3.820312 C 20.355469 3.820312 20.921875 3.820312 21.273438 3.820312 C 21.625 3.820312 22.1875 3.820312 22.542969 3.820312 C 22.894531 3.820312 23.457031 3.820312 23.808594 3.820312 C 24.160156 3.820312 24.726562 3.820312 25.078125 3.820312 C 25.429688 3.820312 25.992188 3.820312 26.34375 3.820312 C 26.695312 3.820312 27.261719 3.820312 27.613281 3.820312 C 27.964844 3.820312 28.527344 3.820312 28.878906 3.820312 C 29.230469 3.820312 29.796875 3.820312 30.148438 3.820312 C 30.5 3.820312 31.0625 3.820312 31.414062 3.820312 C 31.765625 3.820312 32.332031 3.820312 32.683594 3.820312 C 33.035156 3.820312 33.597656 3.820312 33.949219 3.820312 C 34.300781 3.820312 34.867188 3.820312 35.21875 3.820312 C 35.570312 3.820312 36.132812 3.820312 36.484375 3.820312 C 36.839844 3.820312 37.402344 3.820312 37.753906 3.820312 C 38.105469 3.820312 38.671875 3.820312 39.023438 3.820312 C 39.375 3.820312 39.9375 3.820312 40.289062 3.820312 C 40.640625 3.820312 41.207031 3.820312 41.558594 3.820312 C 41.910156 3.820312 42.472656 3.820312 42.824219 3.820312 C 43.175781 3.820312 43.742188 3.820312 44.09375 3.820312 C 44.445312 3.820312 45.007812 3.820312 45.359375 3.820312 C 45.710938 3.820312 46.277344 3.820312 46.628906 3.820312 C 46.980469 3.820312 47.542969 3.820312 47.894531 3.820312 C 48.246094 3.820312 48.8125 3.820312 49.164062 3.820312 C 49.515625 3.820312 50.078125 3.820312 50.429688 3.820312 C 50.785156 3.820312 51.347656 3.820312 51.699219 3.820312 C 52.050781 3.820312 52.613281 3.820312 52.96875 3.820312 C 53.320312 3.820312 53.882812 3.820312 54.234375 3.820312 C 54.585938 3.820312 55.152344 3.820312 55.503906 3.820312 C 55.855469 3.820312 56.417969 3.820312 56.769531 3.820312 C 57.121094 3.820312 57.6875 3.820312 58.039062 3.820312 C 58.390625 3.820312 58.953125 3.820312 59.304688 3.820312 C 59.65625 3.820312 60.222656 3.820312 60.574219 3.820312 C 60.925781 3.820312 61.488281 3.820312 61.839844 3.820312 C 62.191406 3.820312 62.757812 3.820312 63.109375 3.820312 C 63.460938 3.820312 64.023438 3.820312 64.375 3.820312 C 64.726562 3.820312 65.292969 3.820312 65.644531 3.820312 C 65.996094 3.820312 66.558594 3.820312 66.914062 3.820312 C 67.265625 3.820312 67.828125 3.820312 68.179688 3.820312 C 68.53125 3.820312 69.097656 3.820312 69.449219 3.820312 C 69.800781 3.820312 70.363281 3.820312 70.714844 3.820312 C 71.066406 3.820312 71.632812 3.820312 71.984375 3.820312 C 72.335938 3.820312 72.898438 3.820312 73.25 3.820312 C 73.601562 3.820312 74.167969 3.820312 74.519531 3.820312 C 74.871094 3.820312 75.433594 3.820312 75.785156 3.820312 C 76.136719 3.820312 76.703125 3.820312 77.054688 3.820312 C 77.40625 3.820312 77.96875 3.820312 78.320312 3.820312 C 78.671875 3.820312 79.238281 3.820312 79.589844 3.820312 C 79.941406 3.820312 80.503906 3.820312 80.855469 3.820312 C 81.210938 3.820312 81.773438 3.820312 82.125 3.820312 C 82.476562 3.820312 83.042969 3.820312 83.394531 3.820312 C 83.746094 3.820312 84.308594 3.820312 84.660156 3.820312 C 85.011719 3.820312 85.578125 3.820312 85.929688 3.820312 C 86.28125 3.820312 86.84375 3.820312 87.195312 3.820312 C 87.546875 3.820312 88.113281 3.820312 88.464844 3.820312 C 88.816406 3.820312 89.378906 3.820312 89.730469 3.820312 C 90.082031 3.820312 90.648438 3.820312 91 3.820312 C 91.351562 3.820312 91.914062 3.820312 92.265625 3.820312 C 92.617188 3.820312 93.183594 3.820312 93.535156 3.820312 C 93.886719 3.820312 94.449219 3.820312 94.800781 3.820312 C 95.15625 3.820312 95.71875 3.820312 96.070312 3.820312 C 96.421875 3.820312 96.984375 3.820312 97.339844 3.820312 C 97.691406 3.820312 98.253906 3.820312 98.605469 3.820312 C 98.957031 3.820312 99.523438 3.820312 99.875 3.820312 C 100.226562 3.820312 100.789062 3.820312 101.140625 3.820312 C 101.492188 3.820312 102.058594 3.820312 102.410156 3.820312 C 102.761719 3.820312 103.324219 3.820312 103.675781 3.820312 C 104.027344 3.820312 104.59375 3.820312 104.945312 3.820312 C 105.296875 3.820312 105.859375 3.820312 106.210938 3.820312 C 106.5625 3.820312 107.128906 3.820312 107.480469 3.820312 C 107.832031 3.820312 108.394531 3.820312 108.746094 3.820312 C 109.097656 3.820312 109.664062 3.820312 110.015625 3.820312 C 110.367188 3.820312 110.929688 3.820312 111.285156 3.820312 C 111.636719 3.820312 112.199219 3.820312 112.550781 3.820312 C 112.902344 3.820312 113.46875 3.820312 113.820312 3.820312 C 114.171875 3.820312 114.734375 3.820312 115.085938 3.820312 C 115.4375 3.820312 116.003906 3.820312 116.355469 3.820312 C 116.707031 3.820312 117.269531 3.820312 117.621094 3.820312 C 117.972656 3.820312 118.539062 3.820312 118.890625 3.820312 C 119.242188 3.820312 119.804688 3.820312 120.15625 3.820312 C 120.507812 3.820312 121.074219 3.820312 121.425781 3.820312 C 121.777344 3.820312 122.339844 3.820312 122.691406 3.820312 C 123.042969 3.820312 123.609375 3.820312 123.960938 3.820312 C 124.3125 3.820312 124.875 3.820312 125.230469 3.820312 C 125.582031 3.820312 126.144531 3.820312 126.496094 3.820312 C 126.847656 3.820312 127.414062 3.820312 127.765625 3.820312 C 128.117188 3.820312 128.679688 3.820312 129.03125 3.820312 C 129.382812 3.820312 129.949219 3.820312 130.300781 3.820312 C 130.652344 3.820312 131.214844 3.820312 131.566406 3.820312 C 131.917969 3.820312 132.484375 3.820312 132.835938 3.820312 C 133.1875 3.820312 133.75 3.820312 134.101562 3.820312 C 134.453125 3.820312 135.019531 3.820312 135.371094 3.820312 C 135.722656 3.820312 136.285156 3.820312 136.636719 3.820312 C 136.988281 3.820312 137.554688 3.820312 137.90625 3.820312 C 138.257812 3.820312 138.820312 3.820312 139.171875 3.820312 C 139.527344 3.820312 140.089844 3.820312 140.441406 3.820312 C 140.792969 3.820312 141.359375 3.820312 141.710938 3.820312 C 142.0625 3.820312 142.625 3.820312 142.976562 3.820312 C 143.328125 3.820312 143.894531 3.820312 144.246094 3.820312 C 144.597656 3.820312 145.160156 3.820312 145.511719 3.820312 C 145.863281 3.820312 146.429688 3.820312 146.78125 3.820312 C 147.132812 3.820312 147.695312 3.820312 148.046875 3.820312 C 148.398438 3.820312 148.964844 3.820312 149.316406 3.820312 C 149.667969 3.820312 150.230469 3.820312 150.582031 3.820312 C 150.933594 3.820312 151.5 3.820312 151.851562 3.820312 C 152.203125 3.820312 152.765625 3.820312 153.117188 3.820312 C 153.472656 3.820312 154.035156 3.820312 154.386719 3.820312 C 154.738281 3.820312 155.300781 3.820312 155.65625 3.820312 C 156.007812 3.820312 156.570312 3.820312 156.921875 3.820312 C 157.273438 3.820312 157.839844 3.820312 158.191406 3.820312 C 158.542969 3.820312 159.105469 3.820312 159.457031 3.820312 C 159.808594 3.820312 160.375 3.820312 160.726562 3.820312 C 161.078125 3.820312 161.640625 3.820312 161.992188 3.820312 C 162.34375 3.820312 162.910156 3.820312 163.261719 3.820312 C 163.613281 3.820312 164.175781 3.820312 164.527344 3.820312 C 164.878906 3.820312 165.445312 3.820312 165.796875 3.820312 C 166.148438 3.820312 166.710938 3.820312 167.0625 3.820312 C 167.414062 3.820312 167.980469 3.820312 168.332031 3.820312 C 168.683594 3.820312 169.246094 3.820312 169.601562 3.820312 C 169.953125 3.820312 170.515625 3.820312 170.867188 3.820312 C 171.21875 3.820312 171.785156 3.820312 172.136719 3.820312 C 172.488281 3.820312 173.050781 3.820312 173.402344 3.820312 C 173.753906 3.820312 174.320312 3.820312 174.671875 3.820312 C 175.023438 3.820312 175.585938 3.820312 175.9375 3.820312 C 176.289062 3.820312 176.855469 3.820312 177.207031 3.820312 C 177.558594 3.820312 178.121094 3.820312 178.472656 3.820312 C 178.824219 3.820312 179.390625 3.820312 179.742188 3.820312 C 180.09375 3.820312 180.65625 3.820312 181.007812 3.820312 C 181.359375 3.820312 181.925781 3.820312 182.277344 3.820312 C 182.628906 3.820312 183.191406 3.820312 183.542969 3.820312 C 183.898438 3.820312 184.460938 3.820312 184.8125 3.820312 C 185.164062 3.820312 185.730469 3.820312 186.082031 3.820312 C 186.433594 3.820312 186.996094 3.820312 187.347656 3.820312 C 187.699219 3.820312 188.265625 3.820312 188.617188 3.820312 C 188.96875 3.820312 189.53125 3.820312 189.882812 3.820312 C 190.234375 3.820312 190.800781 3.820312 191.152344 3.820312 C 191.503906 3.820312 192.066406 3.820312 192.417969 3.820312 C 192.769531 3.820312 193.335938 3.820312 193.6875 3.820312 C 194.039062 3.820312 194.601562 3.820312 194.953125 3.820312 C 195.304688 3.820312 195.871094 3.820312 196.222656 3.820312 C 196.574219 3.820312 197.136719 3.820312 197.488281 3.820312 C 197.84375 3.820312 198.40625 3.820312 198.757812 3.820312 C 199.109375 3.820312 199.671875 3.820312 200.027344 3.820312 C 200.378906 3.820312 200.941406 3.820312 201.292969 3.820312 C 201.644531 3.820312 202.210938 3.820312 202.5625 3.820312 C 202.914062 3.820312 203.476562 3.820312 203.828125 3.820312 C 204.179688 3.820312 204.746094 3.820312 205.097656 3.820312 C 205.449219 3.820312 206.011719 3.820312 206.363281 3.820312 C 206.714844 3.820312 207.28125 3.820312 207.632812 3.820312 C 207.984375 3.820312 208.546875 3.820312 208.898438 3.820312 C 209.25 3.820312 209.816406 3.820312 210.167969 3.820312 C 210.519531 3.820312 211.082031 3.820312 211.433594 3.820312 C 211.785156 3.820312 212.351562 3.820312 212.703125 3.820312 C 213.054688 3.820312 213.617188 3.820312 213.972656 3.820312 C 214.324219 3.820312 214.886719 3.820312 215.238281 3.820312 C 215.589844 3.820312 216.15625 3.820312 216.507812 3.820312 C 216.859375 3.820312 217.421875 3.820312 217.773438 3.820312 C 218.125 3.820312 218.691406 3.820312 219.042969 3.820312 C 219.394531 3.820312 219.957031 3.820312 220.308594 3.820312 C 220.660156 3.820312 221.226562 3.820312 221.578125 3.820312 C 221.929688 3.820312 222.492188 3.820312 222.84375 3.820312 C 223.195312 3.820312 223.761719 3.820312 224.113281 3.820312 C 224.464844 3.820312 225.027344 3.820312 225.378906 3.820312 C 225.730469 3.820312 226.296875 3.820312 226.648438 3.820312 C 227 3.820312 227.5625 3.820312 227.917969 3.820312 C 228.269531 3.820312 228.832031 3.820312 229.183594 3.820312 C 229.535156 3.820312 230.101562 3.820312 230.453125 3.820312 C 230.804688 3.820312 231.367188 3.820312 231.71875 3.820312 C 232.070312 3.820312 232.636719 3.820312 232.988281 3.820312 C 233.339844 3.820312 233.902344 3.820312 234.253906 3.820312 C 234.605469 3.820312 235.171875 3.820312 235.523438 3.820312 C 235.875 3.820312 236.4375 3.820312 236.789062 3.820312 C 237.140625 3.820312 237.707031 3.820312 238.058594 3.820312 C 238.410156 3.820312 238.972656 3.820312 239.324219 3.820312 C 239.675781 3.820312 240.242188 3.820312 240.59375 3.820312 C 240.945312 3.820312 241.507812 3.820312 241.859375 3.820312 C 242.214844 3.820312 242.777344 3.820312 243.128906 3.820312 C 243.480469 3.820312 244.046875 3.820312 244.398438 3.820312 C 244.75 3.820312 245.3125 3.820312 245.664062 3.820312 C 246.015625 3.820312 246.582031 3.820312 246.933594 3.820312 C 247.285156 3.820312 247.847656 3.820312 248.199219 3.820312 C 248.550781 3.820312 249.117188 3.820312 249.46875 3.820312 C 249.820312 3.820312 250.382812 3.820312 250.734375 3.820312 C 251.085938 3.820312 251.652344 3.820312 252.003906 3.820312 C 252.355469 3.820312 253.269531 3.820312 253.269531 3.820312 L 253.269531 80.269531 C 253.269531 80.269531 252.355469 80.269531 252.003906 80.269531 C 251.652344 80.269531 251.085938 80.269531 250.734375 80.269531 C 250.382812 80.269531 249.820312 80.269531 249.46875 80.269531 C 249.117188 80.269531 248.550781 80.269531 248.199219 80.269531 C 247.847656 80.269531 247.285156 80.269531 246.933594 80.269531 C 246.582031 80.269531 246.015625 80.269531 245.664062 80.269531 C 245.3125 80.269531 244.75 80.269531 244.398438 80.269531 C 244.046875 80.269531 243.480469 80.269531 243.128906 80.269531 C 242.777344 80.269531 242.214844 80.269531 241.859375 80.269531 C 241.507812 80.269531 240.945312 80.269531 240.59375 80.269531 C 240.242188 80.269531 239.675781 80.269531 239.324219 80.269531 C 238.972656 80.269531 238.410156 80.269531 238.058594 80.269531 C 237.707031 80.269531 237.140625 80.269531 236.789062 80.269531 C 236.4375 80.269531 235.875 80.269531 235.523438 80.269531 C 235.171875 80.269531 234.605469 80.269531 234.253906 80.269531 C 233.902344 80.269531 233.339844 80.269531 232.988281 80.269531 C 232.636719 80.269531 232.070312 80.269531 231.71875 80.269531 C 231.367188 80.269531 230.804688 80.269531 230.453125 80.269531 C 230.101562 80.269531 229.535156 80.269531 229.183594 80.269531 C 228.832031 80.269531 228.269531 80.269531 227.917969 80.269531 C 227.5625 80.269531 227 80.269531 226.648438 80.269531 C 226.296875 80.269531 225.730469 80.269531 225.378906 80.269531 C 225.027344 80.269531 224.464844 80.269531 224.113281 80.269531 C 223.761719 80.269531 223.195312 80.269531 222.84375 80.269531 C 222.492188 80.269531 221.929688 80.269531 221.578125 80.269531 C 221.226562 80.269531 220.660156 80.269531 220.308594 80.269531 C 219.957031 80.269531 219.394531 80.269531 219.042969 80.269531 C 218.691406 80.269531 218.125 80.269531 217.773438 80.269531 C 217.421875 80.269531 216.859375 80.269531 216.507812 80.269531 C 216.15625 80.269531 215.589844 80.269531 215.238281 80.269531 C 214.886719 80.269531 214.324219 80.269531 213.972656 80.269531 C 213.617188 80.269531 213.054688 80.269531 212.703125 80.269531 C 212.351562 80.269531 211.785156 80.269531 211.433594 80.269531 C 211.082031 80.269531 210.519531 80.269531 210.167969 80.269531 C 209.816406 80.269531 209.25 80.269531 208.898438 80.269531 C 208.546875 80.269531 207.984375 80.269531 207.632812 80.269531 C 207.28125 80.269531 206.714844 80.269531 206.363281 80.269531 C 206.011719 80.269531 205.449219 80.269531 205.097656 80.269531 C 204.746094 80.269531 204.179688 80.269531 203.828125 80.269531 C 203.476562 80.269531 202.914062 80.269531 202.5625 80.269531 C 202.210938 80.269531 201.644531 80.269531 201.292969 80.269531 C 200.941406 80.269531 200.378906 80.269531 200.027344 80.269531 C 199.671875 80.269531 199.109375 80.269531 198.757812 80.269531 C 198.40625 80.269531 197.84375 80.269531 197.488281 80.269531 C 197.136719 80.269531 196.574219 80.269531 196.222656 80.269531 C 195.871094 80.269531 195.304688 80.269531 194.953125 80.269531 C 194.601562 80.269531 194.039062 80.269531 193.6875 80.269531 C 193.335938 80.269531 192.769531 80.269531 192.417969 80.269531 C 192.066406 80.269531 191.503906 80.269531 191.152344 80.269531 C 190.800781 80.269531 190.234375 80.269531 189.882812 80.269531 C 189.53125 80.269531 188.96875 80.269531 188.617188 80.269531 C 188.265625 80.269531 187.699219 80.269531 187.347656 80.269531 C 186.996094 80.269531 186.433594 80.269531 186.082031 80.269531 C 185.730469 80.269531 185.164062 80.269531 184.8125 80.269531 C 184.460938 80.269531 183.898438 80.269531 183.542969 80.269531 C 183.191406 80.269531 182.628906 80.269531 182.277344 80.269531 C 181.925781 80.269531 181.359375 80.269531 181.007812 80.269531 C 180.65625 80.269531 180.09375 80.269531 179.742188 80.269531 C 179.390625 80.269531 178.824219 80.269531 178.472656 80.269531 C 178.121094 80.269531 177.558594 80.269531 177.207031 80.269531 C 176.855469 80.269531 176.289062 80.269531 175.9375 80.269531 C 175.585938 80.269531 175.023438 80.269531 174.671875 80.269531 C 174.320312 80.269531 173.753906 80.269531 173.402344 80.269531 C 173.050781 80.269531 172.488281 80.269531 172.136719 80.269531 C 171.785156 80.269531 171.21875 80.269531 170.867188 80.269531 C 170.515625 80.269531 169.953125 80.269531 169.601562 80.269531 C 169.246094 80.269531 168.683594 80.269531 168.332031 80.269531 C 167.980469 80.269531 167.414062 80.269531 167.0625 80.269531 C 166.710938 80.269531 166.148438 80.269531 165.796875 80.269531 C 165.445312 80.269531 164.878906 80.269531 164.527344 80.269531 C 164.175781 80.269531 163.613281 80.269531 163.261719 80.269531 C 162.910156 80.269531 162.34375 80.269531 161.992188 80.269531 C 161.640625 80.269531 161.078125 80.269531 160.726562 80.269531 C 160.375 80.269531 159.808594 80.269531 159.457031 80.269531 C 159.105469 80.269531 158.542969 80.269531 158.191406 80.269531 C 157.839844 80.269531 157.273438 80.269531 156.921875 80.269531 C 156.570312 80.269531 156.007812 80.269531 155.65625 80.269531 C 155.300781 80.269531 154.738281 80.269531 154.386719 80.269531 C 154.035156 80.269531 153.472656 80.269531 153.117188 80.269531 C 152.765625 80.269531 152.203125 80.269531 151.851562 80.269531 C 151.5 80.269531 150.933594 80.269531 150.582031 80.269531 C 150.230469 80.269531 149.667969 80.269531 149.316406 80.269531 C 148.964844 80.269531 148.398438 80.269531 148.046875 80.269531 C 147.695312 80.269531 147.132812 80.269531 146.78125 80.269531 C 146.429688 80.269531 145.863281 80.269531 145.511719 80.269531 C 145.160156 80.269531 144.597656 80.269531 144.246094 80.269531 C 143.894531 80.269531 143.328125 80.269531 142.976562 80.269531 C 142.625 80.269531 142.0625 80.269531 141.710938 80.269531 C 141.359375 80.269531 140.792969 80.269531 140.441406 80.269531 C 140.089844 80.269531 139.527344 80.269531 139.171875 80.269531 C 138.820312 80.269531 138.257812 80.269531 137.90625 80.269531 C 137.554688 80.269531 136.988281 80.269531 136.636719 80.269531 C 136.285156 80.269531 135.722656 80.269531 135.371094 80.269531 C 135.019531 80.269531 134.453125 80.269531 134.101562 80.269531 C 133.75 80.269531 133.1875 80.269531 132.835938 80.269531 C 132.484375 80.269531 131.917969 80.269531 131.566406 80.269531 C 131.214844 80.269531 130.652344 80.269531 130.300781 80.269531 C 129.949219 80.269531 129.382812 80.269531 129.03125 80.269531 C 128.679688 80.269531 128.117188 80.269531 127.765625 80.269531 C 127.414062 80.269531 126.847656 80.269531 126.496094 80.269531 C 126.144531 80.269531 125.582031 80.269531 125.230469 80.269531 C 124.875 80.269531 124.3125 80.269531 123.960938 80.269531 C 123.609375 80.269531 123.042969 80.269531 122.691406 80.269531 C 122.339844 80.269531 121.777344 80.269531 121.425781 80.269531 C 121.074219 80.269531 120.507812 80.269531 120.15625 80.269531 C 119.804688 80.269531 119.242188 80.269531 118.890625 80.269531 C 118.539062 80.269531 117.972656 80.269531 117.621094 80.269531 C 117.269531 80.269531 116.707031 80.269531 116.355469 80.269531 C 116.003906 80.269531 115.4375 80.269531 115.085938 80.269531 C 114.734375 80.269531 114.171875 80.269531 113.820312 80.269531 C 113.46875 80.269531 112.902344 80.269531 112.550781 80.269531 C 112.199219 80.269531 111.636719 80.269531 111.285156 80.269531 C 110.929688 80.269531 110.367188 80.269531 110.015625 80.269531 C 109.664062 80.269531 109.097656 80.269531 108.746094 80.269531 C 108.394531 80.269531 107.832031 80.269531 107.480469 80.269531 C 107.128906 80.269531 106.5625 80.269531 106.210938 80.269531 C 105.859375 80.269531 105.296875 80.269531 104.945312 80.269531 C 104.59375 80.269531 104.027344 80.269531 103.675781 80.269531 C 103.324219 80.269531 102.761719 80.269531 102.410156 80.269531 C 102.058594 80.269531 101.492188 80.269531 101.140625 80.269531 C 100.789062 80.269531 100.226562 80.269531 99.875 80.269531 C 99.523438 80.269531 98.957031 80.269531 98.605469 80.269531 C 98.253906 80.269531 97.691406 80.269531 97.339844 80.269531 C 96.984375 80.269531 96.421875 80.269531 96.070312 80.269531 C 95.71875 80.269531 95.15625 80.269531 94.800781 80.269531 C 94.449219 80.269531 93.886719 80.269531 93.535156 80.269531 C 93.183594 80.269531 92.617188 80.269531 92.265625 80.269531 C 91.914062 80.269531 91.351562 80.269531 91 80.269531 C 90.648438 80.269531 90.082031 80.269531 89.730469 80.269531 C 89.378906 80.269531 88.816406 80.269531 88.464844 80.269531 C 88.113281 80.269531 87.546875 80.269531 87.195312 80.269531 C 86.84375 80.269531 86.28125 80.269531 85.929688 80.269531 C 85.578125 80.269531 85.011719 80.269531 84.660156 80.269531 C 84.308594 80.269531 83.746094 80.269531 83.394531 80.269531 C 83.042969 80.269531 82.476562 80.269531 82.125 80.269531 C 81.773438 80.269531 81.210938 80.269531 80.855469 80.269531 C 80.503906 80.269531 79.941406 80.269531 79.589844 80.269531 C 79.238281 80.269531 78.671875 80.269531 78.320312 80.269531 C 77.96875 80.269531 77.40625 80.269531 77.054688 80.269531 C 76.703125 80.269531 76.136719 80.269531 75.785156 80.269531 C 75.433594 80.269531 74.871094 80.269531 74.519531 80.269531 C 74.167969 80.269531 73.601562 80.269531 73.25 80.269531 C 72.898438 80.269531 72.335938 80.269531 71.984375 80.269531 C 71.632812 80.269531 71.066406 80.269531 70.714844 80.269531 C 70.363281 80.269531 69.800781 80.269531 69.449219 80.269531 C 69.097656 80.269531 68.53125 80.269531 68.179688 80.269531 C 67.828125 80.269531 67.265625 80.269531 66.914062 80.269531 C 66.558594 80.269531 65.996094 80.269531 65.644531 80.269531 C 65.292969 80.269531 64.726562 80.269531 64.375 80.269531 C 64.023438 80.269531 63.460938 80.269531 63.109375 80.269531 C 62.757812 80.269531 62.191406 80.269531 61.839844 80.269531 C 61.488281 80.269531 60.925781 80.269531 60.574219 80.269531 C 60.222656 80.269531 59.65625 80.269531 59.304688 80.269531 C 58.953125 80.269531 58.390625 80.269531 58.039062 80.269531 C 57.6875 80.269531 57.121094 80.269531 56.769531 80.269531 C 56.417969 80.269531 55.855469 80.269531 55.503906 80.269531 C 55.152344 80.269531 54.585938 80.269531 54.234375 80.269531 C 53.882812 80.269531 53.320312 80.269531 52.96875 80.269531 C 52.613281 80.269531 52.050781 80.269531 51.699219 80.269531 C 51.347656 80.269531 50.785156 80.269531 50.429688 80.269531 C 50.078125 80.269531 49.515625 80.269531 49.164062 80.269531 C 48.8125 80.269531 48.246094 80.269531 47.894531 80.269531 C 47.542969 80.269531 46.980469 80.269531 46.628906 80.269531 C 46.277344 80.269531 45.710938 80.269531 45.359375 80.269531 C 45.007812 80.269531 44.445312 80.269531 44.09375 80.269531 C 43.742188 80.269531 43.175781 80.269531 42.824219 80.269531 C 42.472656 80.269531 41.910156 80.269531 41.558594 80.269531 C 41.207031 80.269531 40.640625 80.269531 40.289062 80.269531 C 39.9375 80.269531 39.375 80.269531 39.023438 80.269531 C 38.671875 80.269531 38.105469 80.269531 37.753906 80.269531 C 37.402344 80.269531 36.839844 80.269531 36.484375 80.269531 C 36.132812 80.269531 35.570312 80.269531 35.21875 80.269531 C 34.867188 80.269531 34.300781 80.269531 33.949219 80.269531 C 33.597656 80.269531 33.035156 80.269531 32.683594 80.269531 C 32.332031 80.269531 31.765625 80.269531 31.414062 80.269531 C 31.0625 80.269531 30.5 80.269531 30.148438 80.269531 C 29.796875 80.269531 29.230469 80.269531 28.878906 80.269531 C 28.527344 80.269531 27.964844 80.269531 27.613281 80.269531 C 27.261719 80.269531 26.695312 80.269531 26.34375 80.269531 C 25.992188 80.269531 25.429688 80.269531 25.078125 80.269531 C 24.726562 80.269531 24.160156 80.269531 23.808594 80.269531 C 23.457031 80.269531 22.894531 80.269531 22.542969 80.269531 C 22.1875 80.269531 21.625 80.269531 21.273438 80.269531 C 20.921875 80.269531 20.355469 80.269531 20.003906 80.269531 C 19.652344 80.269531 19.089844 80.269531 18.738281 80.269531 C 18.386719 80.269531 17.820312 80.269531 17.46875 80.269531 C 17.117188 80.269531 16.554688 80.269531 16.203125 80.269531 C 15.851562 80.269531 15.285156 80.269531 14.933594 80.269531 C 14.582031 80.269531 14.019531 80.269531 13.667969 80.269531 C 13.316406 80.269531 12.75 80.269531 12.398438 80.269531 C 12.046875 80.269531 11.484375 80.269531 11.132812 80.269531 C 10.78125 80.269531 10.214844 80.269531 9.863281 80.269531 C 9.511719 80.269531 8.949219 80.269531 8.597656 80.269531 C 8.242188 80.269531 7.679688 80.269531 7.328125 80.269531 C 6.976562 80.269531 6.414062 80.269531 6.058594 80.269531 C 5.707031 80.269531 5.144531 80.269531 4.792969 80.269531 C 4.441406 80.269531 3.875 80.269531 3.523438 80.269531 C 3.171875 80.269531 2.609375 80.269531 2.257812 80.269531 C 1.90625 80.269531 0.988281 80.269531 0.988281 80.269531 Z M 0.988281 3.820312 "/>
</g>
<g clip-path="url(#clip2)" clip-rule="nonzero">
<path style="fill:none;stroke-width:1.59404;stroke-linecap:butt;stroke-linejoin:miter;stroke:rgb(0%,0%,0%);stroke-opacity:1;stroke-miterlimit:10;" d="M -0.00107963 81.177606 C -0.00107963 81.177606 0.927241 81.177606 1.282768 81.177606 C 1.638295 81.177606 2.207138 81.177606 2.562665 81.177606 C 2.918192 81.177606 3.490986 81.177606 3.846513 81.177606 C 4.20204 81.177606 4.770883 81.177606 5.12641 81.177606 C 5.485888 81.177606 6.054731 81.177606 6.410258 81.177606 C 6.765785 81.177606 7.334628 81.177606 7.694106 81.177606 C 8.049633 81.177606 8.618476 81.177606 8.974003 81.177606 C 9.32953 81.177606 9.902324 81.177606 10.257851 81.177606 C 10.613378 81.177606 11.182221 81.177606 11.537748 81.177606 C 11.893275 81.177606 12.466069 81.177606 12.821596 81.177606 C 13.177123 81.177606 13.745966 81.177606 14.101493 81.177606 C 14.45702 81.177606 15.029814 81.177606 15.385341 81.177606 C 15.740868 81.177606 16.309711 81.177606 16.665238 81.177606 C 17.020765 81.177606 17.593559 81.177606 17.949086 81.177606 C 18.304613 81.177606 18.873456 81.177606 19.228983 81.177606 C 19.58451 81.177606 20.157304 81.177606 20.512831 81.177606 C 20.868358 81.177606 21.437201 81.177606 21.796678 81.177606 C 22.152205 81.177606 22.721049 81.177606 23.076576 81.177606 C 23.432103 81.177606 24.004896 81.177606 24.360423 81.177606 C 24.71595 81.177606 25.284794 81.177606 25.640321 81.177606 C 25.995848 81.177606 26.568641 81.177606 26.924168 81.177606 C 27.279695 81.177606 27.848538 81.177606 28.204066 81.177606 C 28.559593 81.177606 29.132386 81.177606 29.487913 81.177606 C 29.84344 81.177606 30.412283 81.177606 30.767811 81.177606 C 31.123338 81.177606 31.696131 81.177606 32.051658 81.177606 C 32.407185 81.177606 32.976028 81.177606 33.331556 81.177606 C 33.687083 81.177606 34.259876 81.177606 34.615403 81.177606 C 34.97093 81.177606 35.539773 81.177606 35.895301 81.177606 C 36.254778 81.177606 36.823621 81.177606 37.179148 81.177606 C 37.534675 81.177606 38.107469 81.177606 38.462996 81.177606 C 38.818523 81.177606 39.387366 81.177606 39.742893 81.177606 C 40.09842 81.177606 40.671214 81.177606 41.026741 81.177606 C 41.382268 81.177606 41.951111 81.177606 42.306638 81.177606 C 42.662165 81.177606 43.234959 81.177606 43.590486 81.177606 C 43.946013 81.177606 44.514856 81.177606 44.870383 81.177606 C 45.22591 81.177606 45.798704 81.177606 46.154231 81.177606 C 46.509758 81.177606 47.078601 81.177606 47.434128 81.177606 C 47.789655 81.177606 48.362449 81.177606 48.717976 81.177606 C 49.073503 81.177606 49.642346 81.177606 49.997873 81.177606 C 50.35735 81.177606 50.926194 81.177606 51.281721 81.177606 C 51.637248 81.177606 52.206091 81.177606 52.565568 81.177606 C 52.921095 81.177606 53.489939 81.177606 53.845466 81.177606 C 54.200993 81.177606 54.773786 81.177606 55.129313 81.177606 C 55.48484 81.177606 56.053684 81.177606 56.409211 81.177606 C 56.764738 81.177606 57.337531 81.177606 57.693058 81.177606 C 58.048585 81.177606 58.617429 81.177606 58.972956 81.177606 C 59.328483 81.177606 59.901276 81.177606 60.256803 81.177606 C 60.61233 81.177606 61.181174 81.177606 61.536701 81.177606 C 61.892228 81.177606 62.465021 81.177606 62.820548 81.177606 C 63.176075 81.177606 63.744919 81.177606 64.100446 81.177606 C 64.455973 81.177606 65.028766 81.177606 65.384293 81.177606 C 65.73982 81.177606 66.308664 81.177606 66.668141 81.177606 C 67.023668 81.177606 67.592511 81.177606 67.948038 81.177606 C 68.303565 81.177606 68.876359 81.177606 69.231886 81.177606 C 69.587413 81.177606 70.156256 81.177606 70.511783 81.177606 C 70.86731 81.177606 71.440104 81.177606 71.795631 81.177606 C 72.151158 81.177606 72.720001 81.177606 73.075528 81.177606 C 73.431055 81.177606 74.003849 81.177606 74.359376 81.177606 C 74.714903 81.177606 75.283746 81.177606 75.639273 81.177606 C 75.9948 81.177606 76.567594 81.177606 76.923121 81.177606 C 77.278648 81.177606 77.847491 81.177606 78.203018 81.177606 C 78.558545 81.177606 79.131339 81.177606 79.486866 81.177606 C 79.842393 81.177606 80.411236 81.177606 80.766763 81.177606 C 81.126241 81.177606 81.695084 81.177606 82.050611 81.177606 C 82.406138 81.177606 82.978931 81.177606 83.334459 81.177606 C 83.689986 81.177606 84.258829 81.177606 84.614356 81.177606 C 84.969883 81.177606 85.542676 81.177606 85.898204 81.177606 C 86.253731 81.177606 86.822574 81.177606 87.178101 81.177606 C 87.533628 81.177606 88.106421 81.177606 88.461949 81.177606 C 88.817476 81.177606 89.386319 81.177606 89.741846 81.177606 C 90.097373 81.177606 90.670166 81.177606 91.025693 81.177606 C 91.381221 81.177606 91.950064 81.177606 92.305591 81.177606 C 92.661118 81.177606 93.233911 81.177606 93.589438 81.177606 C 93.944966 81.177606 94.513809 81.177606 94.869336 81.177606 C 95.228813 81.177606 95.797656 81.177606 96.153183 81.177606 C 96.508711 81.177606 97.077554 81.177606 97.437031 81.177606 C 97.792558 81.177606 98.361401 81.177606 98.716928 81.177606 C 99.072455 81.177606 99.645249 81.177606 100.000776 81.177606 C 100.356303 81.177606 100.925146 81.177606 101.280673 81.177606 C 101.6362 81.177606 102.208994 81.177606 102.564521 81.177606 C 102.920048 81.177606 103.488891 81.177606 103.844418 81.177606 C 104.199945 81.177606 104.772739 81.177606 105.128266 81.177606 C 105.483793 81.177606 106.052636 81.177606 106.408163 81.177606 C 106.76369 81.177606 107.336484 81.177606 107.692011 81.177606 C 108.047538 81.177606 108.616381 81.177606 108.971908 81.177606 C 109.327435 81.177606 109.900229 81.177606 110.255756 81.177606 C 110.611283 81.177606 111.180126 81.177606 111.539604 81.177606 C 111.895131 81.177606 112.463974 81.177606 112.819501 81.177606 C 113.175028 81.177606 113.747822 81.177606 114.103349 81.177606 C 114.458876 81.177606 115.027719 81.177606 115.383246 81.177606 C 115.738773 81.177606 116.311567 81.177606 116.667094 81.177606 C 117.022621 81.177606 117.591464 81.177606 117.946991 81.177606 C 118.302518 81.177606 118.875312 81.177606 119.230839 81.177606 C 119.586366 81.177606 120.155209 81.177606 120.510736 81.177606 C 120.866263 81.177606 121.439057 81.177606 121.794584 81.177606 C 122.150111 81.177606 122.718954 81.177606 123.074481 81.177606 C 123.430008 81.177606 124.002802 81.177606 124.358329 81.177606 C 124.713856 81.177606 125.282699 81.177606 125.642176 81.177606 C 125.997703 81.177606 126.566547 81.177606 126.922074 81.177606 C 127.277601 81.177606 127.850394 81.177606 128.205921 81.177606 C 128.561448 81.177606 129.130292 81.177606 129.485819 81.177606 C 129.841346 81.177606 130.414139 81.177606 130.769666 81.177606 C 131.125193 81.177606 131.694037 81.177606 132.049564 81.177606 C 132.405091 81.177606 132.977884 81.177606 133.333411 81.177606 C 133.688938 81.177606 134.257782 81.177606 134.613309 81.177606 C 134.968836 81.177606 135.541629 81.177606 135.897156 81.177606 C 136.252683 81.177606 136.821527 81.177606 137.177054 81.177606 C 137.532581 81.177606 138.105374 81.177606 138.460901 81.177606 C 138.816428 81.177606 139.385272 81.177606 139.740799 81.177606 C 140.100276 81.177606 140.669119 81.177606 141.024646 81.177606 C 141.380173 81.177606 141.952967 81.177606 142.308494 81.177606 C 142.664021 81.177606 143.232864 81.177606 143.588391 81.177606 C 143.943918 81.177606 144.516712 81.177606 144.872239 81.177606 C 145.227766 81.177606 145.796609 81.177606 146.152136 81.177606 C 146.507663 81.177606 147.080457 81.177606 147.435984 81.177606 C 147.791511 81.177606 148.360354 81.177606 148.715881 81.177606 C 149.071408 81.177606 149.644202 81.177606 149.999729 81.177606 C 150.355256 81.177606 150.924099 81.177606 151.279626 81.177606 C 151.635153 81.177606 152.207947 81.177606 152.563474 81.177606 C 152.919001 81.177606 153.487844 81.177606 153.843371 81.177606 C 154.202848 81.177606 154.771692 81.177606 155.127219 81.177606 C 155.482746 81.177606 156.051589 81.177606 156.411066 81.177606 C 156.766593 81.177606 157.335437 81.177606 157.690964 81.177606 C 158.046491 81.177606 158.619284 81.177606 158.974811 81.177606 C 159.330338 81.177606 159.899182 81.177606 160.254709 81.177606 C 160.610236 81.177606 161.183029 81.177606 161.538556 81.177606 C 161.894083 81.177606 162.462927 81.177606 162.818454 81.177606 C 163.173981 81.177606 163.746774 81.177606 164.102301 81.177606 C 164.457828 81.177606 165.026672 81.177606 165.382199 81.177606 C 165.737726 81.177606 166.310519 81.177606 166.666046 81.177606 C 167.021573 81.177606 167.590417 81.177606 167.945944 81.177606 C 168.301471 81.177606 168.874264 81.177606 169.229791 81.177606 C 169.585318 81.177606 170.154162 81.177606 170.513639 81.177606 C 170.869166 81.177606 171.438009 81.177606 171.793536 81.177606 C 172.149063 81.177606 172.721857 81.177606 173.077384 81.177606 C 173.432911 81.177606 174.001754 81.177606 174.357281 81.177606 C 174.712808 81.177606 175.285602 81.177606 175.641129 81.177606 C 175.996656 81.177606 176.565499 81.177606 176.921026 81.177606 C 177.276553 81.177606 177.849347 81.177606 178.204874 81.177606 C 178.560401 81.177606 179.129244 81.177606 179.484771 81.177606 C 179.840298 81.177606 180.413092 81.177606 180.768619 81.177606 C 181.124146 81.177606 181.692989 81.177606 182.048516 81.177606 C 182.404043 81.177606 182.976837 81.177606 183.332364 81.177606 C 183.687891 81.177606 184.256734 81.177606 184.612261 81.177606 C 184.971739 81.177606 185.540582 81.177606 185.896109 81.177606 C 186.251636 81.177606 186.82443 81.177606 187.179957 81.177606 C 187.535484 81.177606 188.104327 81.177606 188.459854 81.177606 C 188.815381 81.177606 189.388175 81.177606 189.743702 81.177606 C 190.099229 81.177606 190.668072 81.177606 191.023599 81.177606 C 191.379126 81.177606 191.95192 81.177606 192.307447 81.177606 C 192.662974 81.177606 193.231817 81.177606 193.587344 81.177606 C 193.942871 81.177606 194.515665 81.177606 194.871192 81.177606 C 195.226719 81.177606 195.795562 81.177606 196.151089 81.177606 C 196.506616 81.177606 197.079409 81.177606 197.434937 81.177606 C 197.790464 81.177606 198.359307 81.177606 198.714834 81.177606 C 199.074311 81.177606 199.643154 81.177606 199.998682 81.177606 C 200.354209 81.177606 200.923052 81.177606 201.282529 81.177606 C 201.638056 81.177606 202.206899 81.177606 202.562427 81.177606 C 202.917954 81.177606 203.490747 81.177606 203.846274 81.177606 C 204.201801 81.177606 204.770644 81.177606 205.126171 81.177606 C 205.481699 81.177606 206.054492 81.177606 206.410019 81.177606 C 206.765546 81.177606 207.334389 81.177606 207.689916 81.177606 C 208.045444 81.177606 208.618237 81.177606 208.973764 81.177606 C 209.329291 81.177606 209.898134 81.177606 210.253661 81.177606 C 210.609189 81.177606 211.181982 81.177606 211.537509 81.177606 C 211.893036 81.177606 212.461879 81.177606 212.817406 81.177606 C 213.172933 81.177606 213.745727 81.177606 214.101254 81.177606 C 214.456781 81.177606 215.025624 81.177606 215.385102 81.177606 C 215.740629 81.177606 216.309472 81.177606 216.664999 81.177606 C 217.020526 81.177606 217.59332 81.177606 217.948847 81.177606 C 218.304374 81.177606 218.873217 81.177606 219.228744 81.177606 C 219.584271 81.177606 220.157065 81.177606 220.512592 81.177606 C 220.868119 81.177606 221.436962 81.177606 221.792489 81.177606 C 222.148016 81.177606 222.72081 81.177606 223.076337 81.177606 C 223.431864 81.177606 224.000707 81.177606 224.356234 81.177606 C 224.711761 81.177606 225.284555 81.177606 225.640082 81.177606 C 225.995609 81.177606 226.564452 81.177606 226.919979 81.177606 C 227.275506 81.177606 227.8483 81.177606 228.203827 81.177606 C 228.559354 81.177606 229.128197 81.177606 229.487674 81.177606 C 229.843201 81.177606 230.412045 81.177606 230.767572 81.177606 C 231.123099 81.177606 231.695892 81.177606 232.051419 81.177606 C 232.406946 81.177606 232.97579 81.177606 233.331317 81.177606 C 233.686844 81.177606 234.259637 81.177606 234.615164 81.177606 C 234.970691 81.177606 235.539535 81.177606 235.895062 81.177606 C 236.250589 81.177606 236.823382 81.177606 237.178909 81.177606 C 237.534436 81.177606 238.10328 81.177606 238.458807 81.177606 C 238.814334 81.177606 239.387127 81.177606 239.742654 81.177606 C 240.098181 81.177606 240.667025 81.177606 241.022552 81.177606 C 241.378079 81.177606 241.950872 81.177606 242.306399 81.177606 C 242.661926 81.177606 243.23077 81.177606 243.586297 81.177606 C 243.945774 81.177606 244.514617 81.177606 244.870144 81.177606 C 245.225671 81.177606 245.798465 81.177606 246.153992 81.177606 C 246.509519 81.177606 247.078362 81.177606 247.433889 81.177606 C 247.789416 81.177606 248.36221 81.177606 248.717737 81.177606 C 249.073264 81.177606 249.642107 81.177606 249.997634 81.177606 C 250.353161 81.177606 250.925955 81.177606 251.281482 81.177606 C 251.637009 81.177606 252.205852 81.177606 252.561379 81.177606 C 252.916906 81.177606 253.4897 81.177606 253.845227 81.177606 C 254.200754 81.177606 255.125124 81.177606 255.125124 81.177606 " transform="matrix(0.988849,0,0,-0.988849,0.989349,84.092694)"/>
</g>
<g clip-path="url(#clip3)" clip-rule="nonzero">
<path style="fill:none;stroke-width:1.59404;stroke-linecap:butt;stroke-linejoin:miter;stroke:rgb(0%,0%,0%);stroke-opacity:1;stroke-miterlimit:10;" d="M -0.00107963 3.866276 C -0.00107963 3.866276 0.927241 3.866276 1.282768 3.866276 C 1.638295 3.866276 2.207138 3.866276 2.562665 3.866276 C 2.918192 3.866276 3.490986 3.866276 3.846513 3.866276 C 4.20204 3.866276 4.770883 3.866276 5.12641 3.866276 C 5.485888 3.866276 6.054731 3.866276 6.410258 3.866276 C 6.765785 3.866276 7.334628 3.866276 7.694106 3.866276 C 8.049633 3.866276 8.618476 3.866276 8.974003 3.866276 C 9.32953 3.866276 9.902324 3.866276 10.257851 3.866276 C 10.613378 3.866276 11.182221 3.866276 11.537748 3.866276 C 11.893275 3.866276 12.466069 3.866276 12.821596 3.866276 C 13.177123 3.866276 13.745966 3.866276 14.101493 3.866276 C 14.45702 3.866276 15.029814 3.866276 15.385341 3.866276 C 15.740868 3.866276 16.309711 3.866276 16.665238 3.866276 C 17.020765 3.866276 17.593559 3.866276 17.949086 3.866276 C 18.304613 3.866276 18.873456 3.866276 19.228983 3.866276 C 19.58451 3.866276 20.157304 3.866276 20.512831 3.866276 C 20.868358 3.866276 21.437201 3.866276 21.796678 3.866276 C 22.152205 3.866276 22.721049 3.866276 23.076576 3.866276 C 23.432103 3.866276 24.004896 3.866276 24.360423 3.866276 C 24.71595 3.866276 25.284794 3.866276 25.640321 3.866276 C 25.995848 3.866276 26.568641 3.866276 26.924168 3.866276 C 27.279695 3.866276 27.848538 3.866276 28.204066 3.866276 C 28.559593 3.866276 29.132386 3.866276 29.487913 3.866276 C 29.84344 3.866276 30.412283 3.866276 30.767811 3.866276 C 31.123338 3.866276 31.696131 3.866276 32.051658 3.866276 C 32.407185 3.866276 32.976028 3.866276 33.331556 3.866276 C 33.687083 3.866276 34.259876 3.866276 34.615403 3.866276 C 34.97093 3.866276 35.539773 3.866276 35.895301 3.866276 C 36.254778 3.866276 36.823621 3.866276 37.179148 3.866276 C 37.534675 3.866276 38.107469 3.866276 38.462996 3.866276 C 38.818523 3.866276 39.387366 3.866276 39.742893 3.866276 C 40.09842 3.866276 40.671214 3.866276 41.026741 3.866276 C 41.382268 3.866276 41.951111 3.866276 42.306638 3.866276 C 42.662165 3.866276 43.234959 3.866276 43.590486 3.866276 C 43.946013 3.866276 44.514856 3.866276 44.870383 3.866276 C 45.22591 3.866276 45.798704 3.866276 46.154231 3.866276 C 46.509758 3.866276 47.078601 3.866276 47.434128 3.866276 C 47.789655 3.866276 48.362449 3.866276 48.717976 3.866276 C 49.073503 3.866276 49.642346 3.866276 49.997873 3.866276 C 50.35735 3.866276 50.926194 3.866276 51.281721 3.866276 C 51.637248 3.866276 52.206091 3.866276 52.565568 3.866276 C 52.921095 3.866276 53.489939 3.866276 53.845466 3.866276 C 54.200993 3.866276 54.773786 3.866276 55.129313 3.866276 C 55.48484 3.866276 56.053684 3.866276 56.409211 3.866276 C 56.764738 3.866276 57.337531 3.866276 57.693058 3.866276 C 58.048585 3.866276 58.617429 3.866276 58.972956 3.866276 C 59.328483 3.866276 59.901276 3.866276 60.256803 3.866276 C 60.61233 3.866276 61.181174 3.866276 61.536701 3.866276 C 61.892228 3.866276 62.465021 3.866276 62.820548 3.866276 C 63.176075 3.866276 63.744919 3.866276 64.100446 3.866276 C 64.455973 3.866276 65.028766 3.866276 65.384293 3.866276 C 65.73982 3.866276 66.308664 3.866276 66.668141 3.866276 C 67.023668 3.866276 67.592511 3.866276 67.948038 3.866276 C 68.303565 3.866276 68.876359 3.866276 69.231886 3.866276 C 69.587413 3.866276 70.156256 3.866276 70.511783 3.866276 C 70.86731 3.866276 71.440104 3.866276 71.795631 3.866276 C 72.151158 3.866276 72.720001 3.866276 73.075528 3.866276 C 73.431055 3.866276 74.003849 3.866276 74.359376 3.866276 C 74.714903 3.866276 75.283746 3.866276 75.639273 3.866276 C 75.9948 3.866276 76.567594 3.866276 76.923121 3.866276 C 77.278648 3.866276 77.847491 3.866276 78.203018 3.866276 C 78.558545 3.866276 79.131339 3.866276 79.486866 3.866276 C 79.842393 3.866276 80.411236 3.866276 80.766763 3.866276 C 81.126241 3.866276 81.695084 3.866276 82.050611 3.866276 C 82.406138 3.866276 82.978931 3.866276 83.334459 3.866276 C 83.689986 3.866276 84.258829 3.866276 84.614356 3.866276 C 84.969883 3.866276 85.542676 3.866276 85.898204 3.866276 C 86.253731 3.866276 86.822574 3.866276 87.178101 3.866276 C 87.533628 3.866276 88.106421 3.866276 88.461949 3.866276 C 88.817476 3.866276 89.386319 3.866276 89.741846 3.866276 C 90.097373 3.866276 90.670166 3.866276 91.025693 3.866276 C 91.381221 3.866276 91.950064 3.866276 92.305591 3.866276 C 92.661118 3.866276 93.233911 3.866276 93.589438 3.866276 C 93.944966 3.866276 94.513809 3.866276 94.869336 3.866276 C 95.228813 3.866276 95.797656 3.866276 96.153183 3.866276 C 96.508711 3.866276 97.077554 3.866276 97.437031 3.866276 C 97.792558 3.866276 98.361401 3.866276 98.716928 3.866276 C 99.072455 3.866276 99.645249 3.866276 100.000776 3.866276 C 100.356303 3.866276 100.925146 3.866276 101.280673 3.866276 C 101.6362 3.866276 102.208994 3.866276 102.564521 3.866276 C 102.920048 3.866276 103.488891 3.866276 103.844418 3.866276 C 104.199945 3.866276 104.772739 3.866276 105.128266 3.866276 C 105.483793 3.866276 106.052636 3.866276 106.408163 3.866276 C 106.76369 3.866276 107.336484 3.866276 107.692011 3.866276 C 108.047538 3.866276 108.616381 3.866276 108.971908 3.866276 C 109.327435 3.866276 109.900229 3.866276 110.255756 3.866276 C 110.611283 3.866276 111.180126 3.866276 111.539604 3.866276 C 111.895131 3.866276 112.463974 3.866276 112.819501 3.866276 C 113.175028 3.866276 113.747822 3.866276 114.103349 3.866276 C 114.458876 3.866276 115.027719 3.866276 115.383246 3.866276 C 115.738773 3.866276 116.311567 3.866276 116.667094 3.866276 C 117.022621 3.866276 117.591464 3.866276 117.946991 3.866276 C 118.302518 3.866276 118.875312 3.866276 119.230839 3.866276 C 119.586366 3.866276 120.155209 3.866276 120.510736 3.866276 C 120.866263 3.866276 121.439057 3.866276 121.794584 3.866276 C 122.150111 3.866276 122.718954 3.866276 123.074481 3.866276 C 123.430008 3.866276 124.002802 3.866276 124.358329 3.866276 C 124.713856 3.866276 125.282699 3.866276 125.642176 3.866276 C 125.997703 3.866276 126.566547 3.866276 126.922074 3.866276 C 127.277601 3.866276 127.850394 3.866276 128.205921 3.866276 C 128.561448 3.866276 129.130292 3.866276 129.485819 3.866276 C 129.841346 3.866276 130.414139 3.866276 130.769666 3.866276 C 131.125193 3.866276 131.694037 3.866276 132.049564 3.866276 C 132.405091 3.866276 132.977884 3.866276 133.333411 3.866276 C 133.688938 3.866276 134.257782 3.866276 134.613309 3.866276 C 134.968836 3.866276 135.541629 3.866276 135.897156 3.866276 C 136.252683 3.866276 136.821527 3.866276 137.177054 3.866276 C 137.532581 3.866276 138.105374 3.866276 138.460901 3.866276 C 138.816428 3.866276 139.385272 3.866276 139.740799 3.866276 C 140.100276 3.866276 140.669119 3.866276 141.024646 3.866276 C 141.380173 3.866276 141.952967 3.866276 142.308494 3.866276 C 142.664021 3.866276 143.232864 3.866276 143.588391 3.866276 C 143.943918 3.866276 144.516712 3.866276 144.872239 3.866276 C 145.227766 3.866276 145.796609 3.866276 146.152136 3.866276 C 146.507663 3.866276 147.080457 3.866276 147.435984 3.866276 C 147.791511 3.866276 148.360354 3.866276 148.715881 3.866276 C 149.071408 3.866276 149.644202 3.866276 149.999729 3.866276 C 150.355256 3.866276 150.924099 3.866276 151.279626 3.866276 C 151.635153 3.866276 152.207947 3.866276 152.563474 3.866276 C 152.919001 3.866276 153.487844 3.866276 153.843371 3.866276 C 154.202848 3.866276 154.771692 3.866276 155.127219 3.866276 C 155.482746 3.866276 156.051589 3.866276 156.411066 3.866276 C 156.766593 3.866276 157.335437 3.866276 157.690964 3.866276 C 158.046491 3.866276 158.619284 3.866276 158.974811 3.866276 C 159.330338 3.866276 159.899182 3.866276 160.254709 3.866276 C 160.610236 3.866276 161.183029 3.866276 161.538556 3.866276 C 161.894083 3.866276 162.462927 3.866276 162.818454 3.866276 C 163.173981 3.866276 163.746774 3.866276 164.102301 3.866276 C 164.457828 3.866276 165.026672 3.866276 165.382199 3.866276 C 165.737726 3.866276 166.310519 3.866276 166.666046 3.866276 C 167.021573 3.866276 167.590417 3.866276 167.945944 3.866276 C 168.301471 3.866276 168.874264 3.866276 169.229791 3.866276 C 169.585318 3.866276 170.154162 3.866276 170.513639 3.866276 C 170.869166 3.866276 171.438009 3.866276 171.793536 3.866276 C 172.149063 3.866276 172.721857 3.866276 173.077384 3.866276 C 173.432911 3.866276 174.001754 3.866276 174.357281 3.866276 C 174.712808 3.866276 175.285602 3.866276 175.641129 3.866276 C 175.996656 3.866276 176.565499 3.866276 176.921026 3.866276 C 177.276553 3.866276 177.849347 3.866276 178.204874 3.866276 C 178.560401 3.866276 179.129244 3.866276 179.484771 3.866276 C 179.840298 3.866276 180.413092 3.866276 180.768619 3.866276 C 181.124146 3.866276 181.692989 3.866276 182.048516 3.866276 C 182.404043 3.866276 182.976837 3.866276 183.332364 3.866276 C 183.687891 3.866276 184.256734 3.866276 184.612261 3.866276 C 184.971739 3.866276 185.540582 3.866276 185.896109 3.866276 C 186.251636 3.866276 186.82443 3.866276 187.179957 3.866276 C 187.535484 3.866276 188.104327 3.866276 188.459854 3.866276 C 188.815381 3.866276 189.388175 3.866276 189.743702 3.866276 C 190.099229 3.866276 190.668072 3.866276 191.023599 3.866276 C 191.379126 3.866276 191.95192 3.866276 192.307447 3.866276 C 192.662974 3.866276 193.231817 3.866276 193.587344 3.866276 C 193.942871 3.866276 194.515665 3.866276 194.871192 3.866276 C 195.226719 3.866276 195.795562 3.866276 196.151089 3.866276 C 196.506616 3.866276 197.079409 3.866276 197.434937 3.866276 C 197.790464 3.866276 198.359307 3.866276 198.714834 3.866276 C 199.074311 3.866276 199.643154 3.866276 199.998682 3.866276 C 200.354209 3.866276 200.923052 3.866276 201.282529 3.866276 C 201.638056 3.866276 202.206899 3.866276 202.562427 3.866276 C 202.917954 3.866276 203.490747 3.866276 203.846274 3.866276 C 204.201801 3.866276 204.770644 3.866276 205.126171 3.866276 C 205.481699 3.866276 206.054492 3.866276 206.410019 3.866276 C 206.765546 3.866276 207.334389 3.866276 207.689916 3.866276 C 208.045444 3.866276 208.618237 3.866276 208.973764 3.866276 C 209.329291 3.866276 209.898134 3.866276 210.253661 3.866276 C 210.609189 3.866276 211.181982 3.866276 211.537509 3.866276 C 211.893036 3.866276 212.461879 3.866276 212.817406 3.866276 C 213.172933 3.866276 213.745727 3.866276 214.101254 3.866276 C 214.456781 3.866276 215.025624 3.866276 215.385102 3.866276 C 215.740629 3.866276 216.309472 3.866276 216.664999 3.866276 C 217.020526 3.866276 217.59332 3.866276 217.948847 3.866276 C 218.304374 3.866276 218.873217 3.866276 219.228744 3.866276 C 219.584271 3.866276 220.157065 3.866276 220.512592 3.866276 C 220.868119 3.866276 221.436962 3.866276 221.792489 3.866276 C 222.148016 3.866276 222.72081 3.866276 223.076337 3.866276 C 223.431864 3.866276 224.000707 3.866276 224.356234 3.866276 C 224.711761 3.866276 225.284555 3.866276 225.640082 3.866276 C 225.995609 3.866276 226.564452 3.866276 226.919979 3.866276 C 227.275506 3.866276 227.8483 3.866276 228.203827 3.866276 C 228.559354 3.866276 229.128197 3.866276 229.487674 3.866276 C 229.843201 3.866276 230.412045 3.866276 230.767572 3.866276 C 231.123099 3.866276 231.695892 3.866276 232.051419 3.866276 C 232.406946 3.866276 232.97579 3.866276 233.331317 3.866276 C 233.686844 3.866276 234.259637 3.866276 234.615164 3.866276 C 234.970691 3.866276 235.539535 3.866276 235.895062 3.866276 C 236.250589 3.866276 236.823382 3.866276 237.178909 3.866276 C 237.534436 3.866276 238.10328 3.866276 238.458807 3.866276 C 238.814334 3.866276 239.387127 3.866276 239.742654 3.866276 C 240.098181 3.866276 240.667025 3.866276 241.022552 3.866276 C 241.378079 3.866276 241.950872 3.866276 242.306399 3.866276 C 242.661926 3.866276 243.23077 3.866276 243.586297 3.866276 C 243.945774 3.866276 244.514617 3.866276 244.870144 3.866276 C 245.225671 3.866276 245.798465 3.866276 246.153992 3.866276 C 246.509519 3.866276 247.078362 3.866276 247.433889 3.866276 C 247.789416 3.866276 248.36221 3.866276 248.717737 3.866276 C 249.073264 3.866276 249.642107 3.866276 249.997634 3.866276 C 250.353161 3.866276 250.925955 3.866276 251.281482 3.866276 C 251.637009 3.866276 252.205852 3.866276 252.561379 3.866276 C 252.916906 3.866276 253.4897 3.866276 253.845227 3.866276 C 254.200754 3.866276 255.125124 3.866276 255.125124 3.866276 " transform="matrix(0.988849,0,0,-0.988849,0.989349,84.092694)"/>
</g>
</g>
</svg>
