<?xml version="1.0" encoding="UTF-8"?>
<svg xmlns="http://www.w3.org/2000/svg" xmlns:xlink="http://www.w3.org/1999/xlink" width="35.436pt" height="44.451pt" viewBox="0 0 35.436 44.451" version="1.2">
<defs>
<clipPath id="clip1">
  <path d="M 0 0.078125 L 34.878906 0.078125 L 34.878906 43.832031 L 0 43.832031 Z M 0 0.078125 "/>
</clipPath>
<clipPath id="clip2">
  <path d="M 13 29 L 28 29 L 28 43.832031 L 13 43.832031 Z M 13 29 "/>
</clipPath>
<clipPath id="clip3">
  <path d="M 13 0.078125 L 29 0.078125 L 29 23 L 13 23 Z M 13 0.078125 "/>
</clipPath>
<clipPath id="clip4">
  <path d="M 27 21 L 28 21 L 28 43.832031 L 27 43.832031 Z M 27 21 "/>
</clipPath>
<clipPath id="clip5">
  <path d="M 21 22 L 34.878906 22 L 34.878906 37 L 21 37 Z M 21 22 "/>
</clipPath>
</defs>
<g id="surface1">
<g clip-path="url(#clip1)" clip-rule="nonzero">
<path style="fill:none;stroke-width:0.797;stroke-linecap:butt;stroke-linejoin:miter;stroke:rgb(0%,0%,0%);stroke-opacity:1;stroke-miterlimit:10;" d="M 6.859197 -0.0012583 C 6.859197 -8.79925 -0.272057 -15.930504 -9.070048 -15.930504 C -17.86804 -15.930504 -25.003262 -8.79925 -25.003262 -0.0012583 C -25.003262 8.796733 -17.86804 15.931956 -9.070048 15.931956 C -0.272057 15.931956 6.859197 8.796733 6.859197 -0.0012583 Z M 6.859197 -0.0012583 " transform="matrix(0.984333,0,0,-0.984333,27.736545,21.955793)"/>
</g>
<g clip-path="url(#clip2)" clip-rule="nonzero">
<path style="fill:none;stroke-width:0.3985;stroke-linecap:butt;stroke-linejoin:miter;stroke:rgb(0%,0%,0%);stroke-opacity:1;stroke-miterlimit:10;" d="M 0.00176422 -22.026 L 0.00176422 -7.640471 L -13.891681 -7.640471 " transform="matrix(0.984333,0,0,-0.984333,27.736545,21.955793)"/>
</g>
<path style="fill:none;stroke-width:0.797;stroke-linecap:butt;stroke-linejoin:miter;stroke:rgb(0%,0%,0%);stroke-opacity:1;stroke-miterlimit:10;" d="M -13.891681 -10.914419 L -13.891681 10.911902 " transform="matrix(0.984333,0,0,-0.984333,27.736545,21.955793)"/>
<g clip-path="url(#clip3)" clip-rule="nonzero">
<path style="fill:none;stroke-width:0.3985;stroke-linecap:butt;stroke-linejoin:miter;stroke:rgb(0%,0%,0%);stroke-opacity:1;stroke-miterlimit:10;" d="M -13.891681 -0.0012583 L 0.200185 -0.0012583 M -13.891681 7.637954 L 0.00176422 7.637954 L 0.00176422 22.027452 " transform="matrix(0.984333,0,0,-0.984333,27.736545,21.955793)"/>
</g>
<path style="fill:none;stroke-width:0.797;stroke-linecap:butt;stroke-linejoin:miter;stroke:rgb(0%,0%,0%);stroke-opacity:1;stroke-miterlimit:10;" d="M -17.225155 -7.838892 L -17.225155 7.840343 " transform="matrix(0.984333,0,0,-0.984333,27.736545,21.955793)"/>
<path style=" stroke:none;fill-rule:nonzero;fill:rgb(0%,0%,0%);fill-opacity:1;" d="M 17.628906 21.957031 L 17.628906 24.207031 L 22.660156 21.957031 L 17.628906 19.703125 Z M 17.628906 21.957031 "/>
<path style="fill:none;stroke-width:0.3985;stroke-linecap:butt;stroke-linejoin:miter;stroke:rgb(0%,0%,0%);stroke-opacity:1;stroke-miterlimit:10;" d="M -17.225155 -7.640471 L -27.979579 -7.640471 " transform="matrix(0.984333,0,0,-0.984333,27.736545,21.955793)"/>
<g clip-path="url(#clip4)" clip-rule="nonzero">
<path style="fill:none;stroke-width:0.3985;stroke-linecap:butt;stroke-linejoin:miter;stroke:rgb(0%,0%,0%);stroke-opacity:1;stroke-miterlimit:10;" d="M 0.00176422 -0.0012583 L 0.00176422 -21.827579 " transform="matrix(0.984333,0,0,-0.984333,27.736545,21.955793)"/>
</g>
<path style=" stroke:none;fill-rule:nonzero;fill:rgb(0%,0%,0%);fill-opacity:1;" d="M 28.832031 29.476562 C 28.832031 30.078125 28.339844 30.570312 27.738281 30.570312 C 27.132812 30.570312 26.644531 30.078125 26.644531 29.476562 C 26.644531 28.871094 27.132812 28.382812 27.738281 28.382812 C 28.339844 28.382812 28.832031 28.871094 28.832031 29.476562 Z M 28.832031 29.476562 "/>
<g clip-path="url(#clip5)" clip-rule="nonzero">
<path style="fill:none;stroke-width:0.3985;stroke-linecap:butt;stroke-linejoin:miter;stroke:rgb(0%,0%,0%);stroke-opacity:1;stroke-miterlimit:10;" d="M 1.112922 -7.640471 C 1.112922 -8.251608 0.612901 -8.751629 0.00176422 -8.751629 C -0.613341 -8.751629 -1.109394 -8.251608 -1.109394 -7.640471 C -1.109394 -7.025365 -0.613341 -6.529312 0.00176422 -6.529312 C 0.612901 -6.529312 1.112922 -7.025365 1.112922 -7.640471 Z M 1.112922 -7.640471 " transform="matrix(0.984333,0,0,-0.984333,27.736545,21.955793)"/>
</g>
</g>
</svg>
