<?xml version="1.0" encoding="UTF-8"?>
<svg xmlns="http://www.w3.org/2000/svg" xmlns:xlink="http://www.w3.org/1999/xlink" width="255.124pt" height="85.041pt" viewBox="0 0 255.124 85.041" version="1.2">
<defs>
<clipPath id="clip1">
  <path d="M 0.988281 9 L 253.269531 9 L 253.269531 75 L 0.988281 75 Z M 0.988281 9 "/>
</clipPath>
<clipPath id="clip2">
  <path d="M 0.988281 0 L 253.269531 0 L 253.269531 65 L 0.988281 65 Z M 0.988281 0 "/>
</clipPath>
<clipPath id="clip3">
  <path d="M 0.988281 19 L 253.269531 19 L 253.269531 84.09375 L 0.988281 84.09375 Z M 0.988281 19 "/>
</clipPath>
</defs>
<g id="surface1">
<g clip-path="url(#clip1)" clip-rule="nonzero">
<path style=" stroke:none;fill-rule:nonzero;fill:rgb(50%,50%,50%);fill-opacity:0.5;" d="M 0.988281 28.667969 C 0.988281 28.667969 1.90625 29.734375 2.257812 30.144531 C 2.609375 30.554688 3.171875 31.207031 3.523438 31.613281 C 3.875 32.019531 4.441406 32.664062 4.792969 33.066406 C 5.144531 33.464844 5.707031 34.097656 6.058594 34.488281 C 6.414062 34.878906 6.976562 35.5 7.328125 35.878906 C 7.679688 36.257812 8.242188 36.859375 8.597656 37.226562 C 8.949219 37.59375 9.511719 38.171875 9.863281 38.523438 C 10.214844 38.871094 10.78125 39.425781 11.132812 39.757812 C 11.484375 40.09375 12.046875 40.613281 12.398438 40.929688 C 12.75 41.242188 13.316406 41.871094 13.667969 42.023438 C 14.019531 42.179688 14.582031 42.042969 14.933594 42.046875 C 15.285156 42.046875 15.851562 42.046875 16.203125 42.046875 C 16.554688 42.046875 17.117188 42.046875 17.46875 42.046875 C 17.820312 42.046875 18.386719 42.046875 18.738281 42.046875 C 19.089844 42.046875 19.652344 42.046875 20.003906 42.046875 C 20.355469 42.046875 20.921875 42.046875 21.273438 42.046875 C 21.625 42.046875 22.1875 42.046875 22.542969 42.046875 C 22.894531 42.046875 23.457031 42.046875 23.808594 42.046875 C 24.160156 42.046875 24.726562 42.046875 25.078125 42.046875 C 25.429688 42.046875 25.992188 42.046875 26.34375 42.046875 C 26.695312 42.046875 27.261719 42.046875 27.613281 42.046875 C 27.964844 42.046875 28.527344 42.046875 28.878906 42.046875 C 29.230469 42.046875 29.796875 42.046875 30.148438 42.046875 C 30.5 42.046875 31.0625 42.046875 31.414062 42.046875 C 31.765625 42.046875 32.332031 42.046875 32.683594 42.046875 C 33.035156 42.046875 33.597656 42.046875 33.949219 42.046875 C 34.300781 42.046875 34.867188 42.046875 35.21875 42.046875 C 35.570312 42.046875 36.132812 42.046875 36.484375 42.046875 C 36.839844 42.046875 37.402344 42.046875 37.753906 42.046875 C 38.105469 42.046875 38.671875 42.109375 39.023438 42.046875 C 39.375 41.984375 39.9375 41.808594 40.289062 41.589844 C 40.640625 41.371094 41.207031 40.785156 41.558594 40.464844 C 41.910156 40.140625 42.472656 39.605469 42.824219 39.265625 C 43.175781 38.925781 43.742188 38.363281 44.09375 38.003906 C 44.445312 37.648438 45.007812 37.058594 45.359375 36.6875 C 45.710938 36.316406 46.277344 35.707031 46.628906 35.324219 C 46.980469 34.9375 47.542969 34.3125 47.894531 33.917969 C 48.246094 33.523438 48.8125 32.882812 49.164062 32.480469 C 49.515625 32.078125 50.078125 31.429688 50.429688 31.023438 C 50.785156 30.613281 51.347656 29.957031 51.699219 29.546875 C 52.050781 29.140625 52.613281 28.480469 52.96875 28.070312 C 53.320312 27.660156 53.882812 27.003906 54.234375 26.59375 C 54.585938 26.1875 55.152344 25.535156 55.503906 25.132812 C 55.855469 24.730469 56.417969 24.085938 56.769531 23.691406 C 57.121094 23.292969 57.6875 22.664062 58.039062 22.277344 C 58.390625 21.890625 58.953125 21.28125 59.304688 20.90625 C 59.65625 20.53125 60.222656 19.9375 60.574219 19.578125 C 60.925781 19.21875 61.488281 18.648438 61.839844 18.304688 C 62.191406 17.960938 62.757812 17.421875 63.109375 17.09375 C 63.460938 16.769531 64.023438 16.261719 64.375 15.953125 C 64.726562 15.648438 65.292969 15.171875 65.644531 14.886719 C 65.996094 14.605469 66.558594 14.167969 66.914062 13.90625 C 67.265625 13.644531 67.828125 13.246094 68.179688 13.011719 C 68.53125 12.777344 69.097656 12.417969 69.449219 12.210938 C 69.800781 12.003906 70.363281 11.6875 70.714844 11.507812 C 71.066406 11.328125 71.632812 11.0625 71.984375 10.910156 C 72.335938 10.757812 72.898438 10.539062 73.25 10.417969 C 73.601562 10.292969 74.167969 10.125 74.519531 10.03125 C 74.871094 9.941406 75.433594 9.820312 75.785156 9.761719 C 76.136719 9.699219 76.703125 9.628906 77.054688 9.601562 C 77.40625 9.574219 77.96875 9.550781 78.320312 9.554688 C 78.671875 9.558594 79.238281 9.589844 79.589844 9.625 C 79.941406 9.660156 80.503906 9.742188 80.855469 9.808594 C 81.210938 9.875 81.773438 10.007812 82.125 10.105469 C 82.476562 10.203125 83.042969 10.382812 83.394531 10.511719 C 83.746094 10.640625 84.308594 10.871094 84.660156 11.027344 C 85.011719 11.1875 85.578125 11.460938 85.929688 11.648438 C 86.28125 11.835938 86.84375 12.160156 87.195312 12.371094 C 87.546875 12.585938 88.113281 12.953125 88.464844 13.195312 C 88.816406 13.433594 89.378906 13.839844 89.730469 14.105469 C 90.082031 14.371094 90.648438 14.820312 91 15.109375 C 91.351562 15.398438 91.914062 15.878906 92.265625 16.191406 C 92.617188 16.5 93.183594 17.015625 93.535156 17.347656 C 93.886719 17.675781 94.449219 18.222656 94.800781 18.570312 C 95.15625 18.917969 95.71875 19.492188 96.070312 19.855469 C 96.421875 20.21875 96.984375 20.816406 97.339844 21.191406 C 97.691406 21.570312 98.253906 22.1875 98.605469 22.574219 C 98.957031 22.964844 99.523438 23.597656 99.875 23.996094 C 100.226562 24.390625 100.789062 25.035156 101.140625 25.441406 C 101.492188 25.84375 102.058594 26.5 102.410156 26.90625 C 102.761719 27.316406 103.324219 27.972656 103.675781 28.382812 C 104.027344 28.792969 104.59375 29.453125 104.945312 29.863281 C 105.296875 30.269531 105.859375 30.925781 106.210938 31.332031 C 106.5625 31.738281 107.128906 32.386719 107.480469 32.789062 C 107.832031 33.1875 108.394531 33.824219 108.746094 34.21875 C 109.097656 34.609375 109.664062 35.234375 110.015625 35.617188 C 110.367188 35.996094 110.929688 36.601562 111.285156 36.972656 C 111.636719 37.339844 112.199219 37.921875 112.550781 38.277344 C 112.902344 38.632812 113.46875 39.1875 113.820312 39.527344 C 114.171875 39.863281 114.734375 40.390625 115.085938 40.710938 C 115.4375 41.027344 116.003906 41.636719 116.355469 41.820312 C 116.707031 42.007812 117.269531 42.015625 117.621094 42.046875 C 117.972656 42.078125 118.539062 42.046875 118.890625 42.046875 C 119.242188 42.046875 119.804688 42.046875 120.15625 42.046875 C 120.507812 42.046875 121.074219 42.046875 121.425781 42.046875 C 121.777344 42.046875 122.339844 42.046875 122.691406 42.046875 C 123.042969 42.046875 123.609375 42.046875 123.960938 42.046875 C 124.3125 42.046875 124.875 42.046875 125.230469 42.046875 C 125.582031 42.046875 126.144531 42.046875 126.496094 42.046875 C 126.847656 42.046875 127.414062 42.046875 127.765625 42.046875 C 128.117188 42.046875 128.679688 42.046875 129.03125 42.046875 C 129.382812 42.046875 129.949219 42.046875 130.300781 42.046875 C 130.652344 42.046875 131.214844 42.046875 131.566406 42.046875 C 131.917969 42.046875 132.484375 42.046875 132.835938 42.046875 C 133.1875 42.046875 133.75 42.046875 134.101562 42.046875 C 134.453125 42.046875 135.019531 42.046875 135.371094 42.046875 C 135.722656 42.046875 136.285156 42.046875 136.636719 42.046875 C 136.988281 42.046875 137.554688 42.046875 137.90625 42.046875 C 138.257812 42.046875 138.820312 42.046875 139.171875 42.046875 C 139.527344 42.046875 140.089844 42.046875 140.441406 42.046875 C 140.792969 42.046875 141.359375 42.078125 141.710938 42.046875 C 142.0625 42.011719 142.625 41.988281 142.976562 41.796875 C 143.328125 41.609375 143.894531 41.003906 144.246094 40.6875 C 144.597656 40.367188 145.160156 39.839844 145.511719 39.5 C 145.863281 39.164062 146.429688 38.605469 146.78125 38.25 C 147.132812 37.894531 147.695312 37.3125 148.046875 36.945312 C 148.398438 36.574219 148.964844 35.96875 149.316406 35.585938 C 149.667969 35.207031 150.230469 34.582031 150.582031 34.191406 C 150.933594 33.796875 151.5 33.160156 151.851562 32.757812 C 152.203125 32.359375 152.765625 31.707031 153.117188 31.304688 C 153.472656 30.898438 154.035156 30.242188 154.386719 29.832031 C 154.738281 29.421875 155.300781 28.761719 155.65625 28.351562 C 156.007812 27.941406 156.570312 27.285156 156.921875 26.875 C 157.273438 26.46875 157.839844 25.816406 158.191406 25.410156 C 158.542969 25.007812 159.105469 24.363281 159.457031 23.964844 C 159.808594 23.566406 160.375 22.933594 160.726562 22.546875 C 161.078125 22.160156 161.640625 21.542969 161.992188 21.164062 C 162.34375 20.789062 162.910156 20.191406 163.261719 19.828125 C 163.613281 19.464844 164.175781 18.894531 164.527344 18.546875 C 164.878906 18.199219 165.445312 17.652344 165.796875 17.320312 C 166.148438 16.992188 166.710938 16.476562 167.0625 16.167969 C 167.414062 15.855469 167.980469 15.375 168.332031 15.085938 C 168.683594 14.796875 169.246094 14.351562 169.601562 14.085938 C 169.953125 13.824219 170.515625 13.417969 170.867188 13.175781 C 171.21875 12.9375 171.785156 12.570312 172.136719 12.355469 C 172.488281 12.144531 173.050781 11.820312 173.402344 11.636719 C 173.753906 11.449219 174.320312 11.171875 174.671875 11.015625 C 175.023438 10.859375 175.585938 10.628906 175.9375 10.503906 C 176.289062 10.375 176.855469 10.195312 177.207031 10.097656 C 177.558594 10 178.121094 9.871094 178.472656 9.804688 C 178.824219 9.738281 179.390625 9.65625 179.742188 9.621094 C 180.09375 9.589844 180.65625 9.558594 181.007812 9.554688 C 181.359375 9.550781 181.925781 9.574219 182.277344 9.601562 C 182.628906 9.632812 183.191406 9.703125 183.542969 9.765625 C 183.898438 9.824219 184.460938 9.949219 184.8125 10.039062 C 185.164062 10.128906 185.730469 10.304688 186.082031 10.425781 C 186.433594 10.546875 186.996094 10.769531 187.347656 10.921875 C 187.699219 11.074219 188.265625 11.339844 188.617188 11.523438 C 188.96875 11.703125 189.53125 12.015625 189.882812 12.226562 C 190.234375 12.433594 190.800781 12.792969 191.152344 13.027344 C 191.503906 13.265625 192.066406 13.664062 192.417969 13.925781 C 192.769531 14.1875 193.335938 14.625 193.6875 14.910156 C 194.039062 15.195312 194.601562 15.667969 194.953125 15.976562 C 195.304688 16.28125 195.871094 16.792969 196.222656 17.121094 C 196.574219 17.445312 197.136719 17.984375 197.488281 18.332031 C 197.84375 18.675781 198.40625 19.242188 198.757812 19.605469 C 199.109375 19.964844 199.671875 20.558594 200.027344 20.933594 C 200.378906 21.308594 200.941406 21.921875 201.292969 22.308594 C 201.644531 22.695312 202.210938 23.324219 202.5625 23.71875 C 202.914062 24.117188 203.476562 24.757812 203.828125 25.160156 C 204.179688 25.566406 204.746094 26.21875 205.097656 26.625 C 205.449219 27.03125 206.011719 27.691406 206.363281 28.101562 C 206.714844 28.507812 207.28125 29.167969 207.632812 29.578125 C 207.984375 29.988281 208.546875 30.644531 208.898438 31.050781 C 209.25 31.457031 209.816406 32.109375 210.167969 32.511719 C 210.519531 32.914062 211.082031 33.550781 211.433594 33.945312 C 211.785156 34.339844 212.351562 34.964844 212.703125 35.351562 C 213.054688 35.734375 213.617188 36.34375 213.972656 36.714844 C 214.324219 37.085938 214.886719 37.671875 215.238281 38.03125 C 215.589844 38.386719 216.15625 38.949219 216.507812 39.292969 C 216.859375 39.632812 217.421875 40.164062 217.773438 40.488281 C 218.125 40.808594 218.691406 41.398438 219.042969 41.613281 C 219.394531 41.828125 219.957031 41.984375 220.308594 42.046875 C 220.660156 42.105469 221.226562 42.046875 221.578125 42.046875 C 221.929688 42.046875 222.492188 42.046875 222.84375 42.046875 C 223.195312 42.046875 223.761719 42.046875 224.113281 42.046875 C 224.464844 42.046875 225.027344 42.046875 225.378906 42.046875 C 225.730469 42.046875 226.296875 42.046875 226.648438 42.046875 C 227 42.046875 227.5625 42.046875 227.917969 42.046875 C 228.269531 42.046875 228.832031 42.046875 229.183594 42.046875 C 229.535156 42.046875 230.101562 42.046875 230.453125 42.046875 C 230.804688 42.046875 231.367188 42.046875 231.71875 42.046875 C 232.070312 42.046875 232.636719 42.046875 232.988281 42.046875 C 233.339844 42.046875 233.902344 42.046875 234.253906 42.046875 C 234.605469 42.046875 235.171875 42.046875 235.523438 42.046875 C 235.875 42.046875 236.4375 42.046875 236.789062 42.046875 C 237.140625 42.046875 237.707031 42.046875 238.058594 42.046875 C 238.410156 42.046875 238.972656 42.046875 239.324219 42.046875 C 239.675781 42.046875 240.242188 42.046875 240.59375 42.046875 C 240.945312 42.046875 241.507812 42.046875 241.859375 42.046875 C 242.214844 42.046875 242.777344 42.046875 243.128906 42.046875 C 243.480469 42.046875 244.046875 42.050781 244.398438 42.046875 C 244.75 42.039062 245.3125 42.160156 245.664062 42.003906 C 246.015625 41.84375 246.582031 41.21875 246.933594 40.90625 C 247.285156 40.589844 247.847656 40.066406 248.199219 39.734375 C 248.550781 39.398438 249.117188 38.847656 249.46875 38.496094 C 249.820312 38.144531 250.382812 37.566406 250.734375 37.199219 C 251.085938 36.832031 251.652344 36.230469 252.003906 35.851562 C 252.355469 35.472656 253.269531 34.460938 253.269531 34.460938 L 253.269531 49.632812 C 253.269531 49.632812 252.355469 48.621094 252.003906 48.242188 C 251.652344 47.859375 251.085938 47.257812 250.734375 46.894531 C 250.382812 46.527344 249.820312 45.949219 249.46875 45.597656 C 249.117188 45.246094 248.550781 44.691406 248.199219 44.359375 C 247.847656 44.023438 247.285156 43.5 246.933594 43.1875 C 246.582031 42.871094 246.015625 42.246094 245.664062 42.089844 C 245.3125 41.929688 244.75 42.050781 244.398438 42.046875 C 244.046875 42.039062 243.480469 42.046875 243.128906 42.046875 C 242.777344 42.046875 242.214844 42.046875 241.859375 42.046875 C 241.507812 42.046875 240.945312 42.046875 240.59375 42.046875 C 240.242188 42.046875 239.675781 42.046875 239.324219 42.046875 C 238.972656 42.046875 238.410156 42.046875 238.058594 42.046875 C 237.707031 42.046875 237.140625 42.046875 236.789062 42.046875 C 236.4375 42.046875 235.875 42.046875 235.523438 42.046875 C 235.171875 42.046875 234.605469 42.046875 234.253906 42.046875 C 233.902344 42.046875 233.339844 42.046875 232.988281 42.046875 C 232.636719 42.046875 232.070312 42.046875 231.71875 42.046875 C 231.367188 42.046875 230.804688 42.046875 230.453125 42.046875 C 230.101562 42.046875 229.535156 42.046875 229.183594 42.046875 C 228.832031 42.046875 228.269531 42.046875 227.917969 42.046875 C 227.5625 42.046875 227 42.046875 226.648438 42.046875 C 226.296875 42.046875 225.730469 42.046875 225.378906 42.046875 C 225.027344 42.046875 224.464844 42.046875 224.113281 42.046875 C 223.761719 42.046875 223.195312 42.046875 222.84375 42.046875 C 222.492188 42.046875 221.929688 42.046875 221.578125 42.046875 C 221.226562 42.046875 220.660156 41.984375 220.308594 42.046875 C 219.957031 42.105469 219.394531 42.261719 219.042969 42.476562 C 218.691406 42.695312 218.125 43.28125 217.773438 43.605469 C 217.421875 43.925781 216.859375 44.460938 216.507812 44.800781 C 216.15625 45.140625 215.589844 45.703125 215.238281 46.058594 C 214.886719 46.417969 214.324219 47.003906 213.972656 47.375 C 213.617188 47.75 213.054688 48.355469 212.703125 48.742188 C 212.351562 49.125 211.785156 49.75 211.433594 50.144531 C 211.082031 50.539062 210.519531 51.179688 210.167969 51.582031 C 209.816406 51.984375 209.25 52.632812 208.898438 53.039062 C 208.546875 53.445312 207.984375 54.101562 207.632812 54.511719 C 207.28125 54.921875 206.714844 55.582031 206.363281 55.992188 C 206.011719 56.402344 205.449219 57.058594 205.097656 57.46875 C 204.746094 57.875 204.179688 58.527344 203.828125 58.929688 C 203.476562 59.332031 202.914062 59.976562 202.5625 60.371094 C 202.210938 60.769531 201.644531 61.398438 201.292969 61.785156 C 200.941406 62.171875 200.378906 62.785156 200.027344 63.160156 C 199.671875 63.535156 199.109375 64.125 198.757812 64.488281 C 198.40625 64.847656 197.84375 65.414062 197.488281 65.761719 C 197.136719 66.105469 196.574219 66.644531 196.222656 66.972656 C 195.871094 67.300781 195.304688 67.808594 194.953125 68.113281 C 194.601562 68.421875 194.039062 68.898438 193.6875 69.183594 C 193.335938 69.464844 192.769531 69.90625 192.417969 70.167969 C 192.066406 70.425781 191.503906 70.828125 191.152344 71.0625 C 190.800781 71.296875 190.234375 71.65625 189.882812 71.863281 C 189.53125 72.074219 188.96875 72.386719 188.617188 72.570312 C 188.265625 72.75 187.699219 73.019531 187.347656 73.171875 C 186.996094 73.324219 186.433594 73.542969 186.082031 73.667969 C 185.730469 73.789062 185.164062 73.960938 184.8125 74.050781 C 184.460938 74.144531 183.898438 74.265625 183.542969 74.328125 C 183.191406 74.386719 182.628906 74.460938 182.277344 74.488281 C 181.925781 74.519531 181.359375 74.539062 181.007812 74.535156 C 180.65625 74.535156 180.09375 74.503906 179.742188 74.46875 C 179.390625 74.433594 178.824219 74.355469 178.472656 74.289062 C 178.121094 74.222656 177.558594 74.089844 177.207031 73.996094 C 176.855469 73.898438 176.289062 73.714844 175.9375 73.589844 C 175.585938 73.460938 175.023438 73.234375 174.671875 73.074219 C 174.320312 72.917969 173.753906 72.640625 173.402344 72.457031 C 173.050781 72.269531 172.488281 71.949219 172.136719 71.734375 C 171.785156 71.519531 171.21875 71.15625 170.867188 70.914062 C 170.515625 70.675781 169.953125 70.269531 169.601562 70.003906 C 169.246094 69.738281 168.683594 69.292969 168.332031 69.003906 C 167.980469 68.714844 167.414062 68.234375 167.0625 67.925781 C 166.710938 67.613281 166.148438 67.097656 165.796875 66.769531 C 165.445312 66.4375 164.878906 65.894531 164.527344 65.546875 C 164.175781 65.199219 163.613281 64.625 163.261719 64.261719 C 162.910156 63.898438 162.34375 63.304688 161.992188 62.925781 C 161.640625 62.550781 161.078125 61.933594 160.726562 61.542969 C 160.375 61.15625 159.808594 60.523438 159.457031 60.125 C 159.105469 59.730469 158.542969 59.085938 158.191406 58.679688 C 157.839844 58.277344 157.273438 57.621094 156.921875 57.214844 C 156.570312 56.804688 156.007812 56.148438 155.65625 55.738281 C 155.300781 55.328125 154.738281 54.667969 154.386719 54.261719 C 154.035156 53.851562 153.472656 53.195312 153.117188 52.789062 C 152.765625 52.382812 152.203125 51.734375 151.851562 51.332031 C 151.5 50.933594 150.933594 50.292969 150.582031 49.902344 C 150.230469 49.507812 149.667969 48.886719 149.316406 48.503906 C 148.964844 48.121094 148.398438 47.515625 148.046875 47.148438 C 147.695312 46.777344 147.132812 46.195312 146.78125 45.839844 C 146.429688 45.484375 145.863281 44.929688 145.511719 44.589844 C 145.160156 44.253906 144.597656 43.726562 144.246094 43.40625 C 143.894531 43.085938 143.328125 42.480469 142.976562 42.292969 C 142.625 42.105469 142.0625 42.078125 141.710938 42.046875 C 141.359375 42.011719 140.792969 42.046875 140.441406 42.046875 C 140.089844 42.046875 139.527344 42.046875 139.171875 42.046875 C 138.820312 42.046875 138.257812 42.046875 137.90625 42.046875 C 137.554688 42.046875 136.988281 42.046875 136.636719 42.046875 C 136.285156 42.046875 135.722656 42.046875 135.371094 42.046875 C 135.019531 42.046875 134.453125 42.046875 134.101562 42.046875 C 133.75 42.046875 133.1875 42.046875 132.835938 42.046875 C 132.484375 42.046875 131.917969 42.046875 131.566406 42.046875 C 131.214844 42.046875 130.652344 42.046875 130.300781 42.046875 C 129.949219 42.046875 129.382812 42.046875 129.03125 42.046875 C 128.679688 42.046875 128.117188 42.046875 127.765625 42.046875 C 127.414062 42.046875 126.847656 42.046875 126.496094 42.046875 C 126.144531 42.046875 125.582031 42.046875 125.230469 42.046875 C 124.875 42.046875 124.3125 42.046875 123.960938 42.046875 C 123.609375 42.046875 123.042969 42.046875 122.691406 42.046875 C 122.339844 42.046875 121.777344 42.046875 121.425781 42.046875 C 121.074219 42.046875 120.507812 42.046875 120.15625 42.046875 C 119.804688 42.046875 119.242188 42.046875 118.890625 42.046875 C 118.539062 42.046875 117.972656 42.015625 117.621094 42.046875 C 117.269531 42.078125 116.707031 42.085938 116.355469 42.269531 C 116.003906 42.457031 115.4375 43.0625 115.085938 43.382812 C 114.734375 43.699219 114.171875 44.226562 113.820312 44.566406 C 113.46875 44.902344 112.902344 45.460938 112.550781 45.8125 C 112.199219 46.167969 111.636719 46.75 111.285156 47.121094 C 110.929688 47.488281 110.367188 48.09375 110.015625 48.476562 C 109.664062 48.859375 109.097656 49.480469 108.746094 49.875 C 108.394531 50.265625 107.832031 50.902344 107.480469 51.304688 C 107.128906 51.703125 106.5625 52.351562 106.210938 52.757812 C 105.859375 53.164062 105.296875 53.820312 104.945312 54.230469 C 104.59375 54.640625 104.027344 55.296875 103.675781 55.707031 C 103.324219 56.117188 102.761719 56.777344 102.410156 57.183594 C 102.058594 57.59375 101.492188 58.246094 101.140625 58.652344 C 100.789062 59.054688 100.226562 59.699219 99.875 60.097656 C 99.523438 60.496094 98.957031 61.128906 98.605469 61.515625 C 98.253906 61.90625 97.691406 62.519531 97.339844 62.898438 C 96.984375 63.277344 96.421875 63.871094 96.070312 64.234375 C 95.71875 64.601562 95.15625 65.171875 94.800781 65.519531 C 94.449219 65.867188 93.886719 66.414062 93.535156 66.746094 C 93.183594 67.074219 92.617188 67.589844 92.265625 67.902344 C 91.914062 68.210938 91.351562 68.695312 91 68.984375 C 90.648438 69.273438 90.082031 69.71875 89.730469 69.984375 C 89.378906 70.25 88.816406 70.65625 88.464844 70.898438 C 88.113281 71.136719 87.546875 71.503906 87.195312 71.71875 C 86.84375 71.933594 86.28125 72.253906 85.929688 72.441406 C 85.578125 72.628906 85.011719 72.90625 84.660156 73.0625 C 84.308594 73.222656 83.746094 73.453125 83.394531 73.578125 C 83.042969 73.707031 82.476562 73.890625 82.125 73.988281 C 81.773438 74.085938 81.210938 74.214844 80.855469 74.285156 C 80.503906 74.351562 79.941406 74.429688 79.589844 74.464844 C 79.238281 74.5 78.671875 74.53125 78.320312 74.535156 C 77.96875 74.539062 77.40625 74.519531 77.054688 74.492188 C 76.703125 74.460938 76.136719 74.390625 75.785156 74.332031 C 75.433594 74.273438 74.871094 74.148438 74.519531 74.058594 C 74.167969 73.96875 73.601562 73.796875 73.25 73.675781 C 72.898438 73.554688 72.335938 73.332031 71.984375 73.183594 C 71.632812 73.03125 71.066406 72.761719 70.714844 72.582031 C 70.363281 72.402344 69.800781 72.089844 69.449219 71.878906 C 69.097656 71.671875 68.53125 71.316406 68.179688 71.078125 C 67.828125 70.84375 67.265625 70.445312 66.914062 70.1875 C 66.558594 69.925781 65.996094 69.488281 65.644531 69.203125 C 65.292969 68.917969 64.726562 68.445312 64.375 68.136719 C 64.023438 67.832031 63.460938 67.324219 63.109375 66.996094 C 62.757812 66.671875 62.191406 66.128906 61.839844 65.785156 C 61.488281 65.441406 60.925781 64.875 60.574219 64.511719 C 60.222656 64.152344 59.65625 63.5625 59.304688 63.1875 C 58.953125 62.8125 58.390625 62.199219 58.039062 61.8125 C 57.6875 61.425781 57.121094 60.796875 56.769531 60.402344 C 56.417969 60.003906 55.855469 59.363281 55.503906 58.960938 C 55.152344 58.558594 54.585938 57.90625 54.234375 57.496094 C 53.882812 57.089844 53.320312 56.433594 52.96875 56.023438 C 52.613281 55.613281 52.050781 54.953125 51.699219 54.542969 C 51.347656 54.132812 50.785156 53.476562 50.429688 53.070312 C 50.078125 52.664062 49.515625 52.011719 49.164062 51.609375 C 48.8125 51.207031 48.246094 50.570312 47.894531 50.175781 C 47.542969 49.78125 46.980469 49.152344 46.628906 48.769531 C 46.277344 48.386719 45.710938 47.777344 45.359375 47.402344 C 45.007812 47.03125 44.445312 46.445312 44.09375 46.085938 C 43.742188 45.730469 43.175781 45.167969 42.824219 44.824219 C 42.472656 44.484375 41.910156 43.949219 41.558594 43.628906 C 41.207031 43.304688 40.640625 42.71875 40.289062 42.5 C 39.9375 42.28125 39.375 42.109375 39.023438 42.046875 C 38.671875 41.984375 38.105469 42.046875 37.753906 42.046875 C 37.402344 42.046875 36.839844 42.046875 36.484375 42.046875 C 36.132812 42.046875 35.570312 42.046875 35.21875 42.046875 C 34.867188 42.046875 34.300781 42.046875 33.949219 42.046875 C 33.597656 42.046875 33.035156 42.046875 32.683594 42.046875 C 32.332031 42.046875 31.765625 42.046875 31.414062 42.046875 C 31.0625 42.046875 30.5 42.046875 30.148438 42.046875 C 29.796875 42.046875 29.230469 42.046875 28.878906 42.046875 C 28.527344 42.046875 27.964844 42.046875 27.613281 42.046875 C 27.261719 42.046875 26.695312 42.046875 26.34375 42.046875 C 25.992188 42.046875 25.429688 42.046875 25.078125 42.046875 C 24.726562 42.046875 24.160156 42.046875 23.808594 42.046875 C 23.457031 42.046875 22.894531 42.046875 22.542969 42.046875 C 22.1875 42.046875 21.625 42.046875 21.273438 42.046875 C 20.921875 42.046875 20.355469 42.046875 20.003906 42.046875 C 19.652344 42.046875 19.089844 42.046875 18.738281 42.046875 C 18.386719 42.046875 17.820312 42.046875 17.46875 42.046875 C 17.117188 42.046875 16.554688 42.046875 16.203125 42.046875 C 15.851562 42.046875 15.285156 42.042969 14.933594 42.046875 C 14.582031 42.046875 14.019531 41.910156 13.667969 42.066406 C 13.316406 42.222656 12.75 42.847656 12.398438 43.164062 C 12.046875 43.476562 11.484375 44 11.132812 44.332031 C 10.78125 44.667969 10.214844 45.21875 9.863281 45.570312 C 9.511719 45.921875 8.949219 46.5 8.597656 46.867188 C 8.242188 47.230469 7.679688 47.832031 7.328125 48.210938 C 6.976562 48.59375 6.414062 49.210938 6.058594 49.601562 C 5.707031 49.992188 5.144531 50.628906 4.792969 51.027344 C 4.441406 51.425781 3.875 52.074219 3.523438 52.476562 C 3.171875 52.882812 2.609375 53.539062 2.257812 53.945312 C 1.90625 54.355469 0.988281 55.425781 0.988281 55.425781 Z M 0.988281 28.667969 "/>
</g>
<g clip-path="url(#clip2)" clip-rule="nonzero">
<path style="fill:none;stroke-width:1.59404;stroke-linecap:butt;stroke-linejoin:miter;stroke:rgb(0%,0%,0%);stroke-opacity:1;stroke-miterlimit:10;" d="M -0.00107963 56.049745 C -0.00107963 56.049745 0.927241 54.971313 1.282768 54.556531 C 1.638295 54.14175 2.207138 53.48205 2.562665 53.071219 C 2.918192 52.660387 3.490986 52.008588 3.846513 51.601707 C 4.20204 51.198776 4.770883 50.558827 5.12641 50.163797 C 5.485888 49.768767 6.054731 49.14067 6.410258 48.75749 C 6.765785 48.374311 7.334628 47.765965 7.694106 47.394637 C 8.049633 47.023309 8.618476 46.438664 8.974003 46.083137 C 9.32953 45.73156 9.902324 45.170618 10.257851 44.834842 C 10.613378 44.495116 11.182221 43.969726 11.537748 43.649752 C 11.893275 43.333728 12.466069 42.69773 12.821596 42.543668 C 13.177123 42.385656 13.745966 42.523916 14.101493 42.519966 C 14.45702 42.519966 15.029814 42.519966 15.385341 42.519966 C 15.740868 42.519966 16.309711 42.519966 16.665238 42.519966 C 17.020765 42.519966 17.593559 42.519966 17.949086 42.519966 C 18.304613 42.519966 18.873456 42.519966 19.228983 42.519966 C 19.58451 42.519966 20.157304 42.519966 20.512831 42.519966 C 20.868358 42.519966 21.437201 42.519966 21.796678 42.519966 C 22.152205 42.519966 22.721049 42.519966 23.076576 42.519966 C 23.432103 42.519966 24.004896 42.519966 24.360423 42.519966 C 24.71595 42.519966 25.284794 42.519966 25.640321 42.519966 C 25.995848 42.519966 26.568641 42.519966 26.924168 42.519966 C 27.279695 42.519966 27.848538 42.519966 28.204066 42.519966 C 28.559593 42.519966 29.132386 42.519966 29.487913 42.519966 C 29.84344 42.519966 30.412283 42.519966 30.767811 42.519966 C 31.123338 42.519966 31.696131 42.519966 32.051658 42.519966 C 32.407185 42.519966 32.976028 42.519966 33.331556 42.519966 C 33.687083 42.519966 34.259876 42.519966 34.615403 42.519966 C 34.97093 42.519966 35.539773 42.519966 35.895301 42.519966 C 36.254778 42.519966 36.823621 42.519966 37.179148 42.519966 C 37.534675 42.519966 38.107469 42.456761 38.462996 42.519966 C 38.818523 42.583171 39.387366 42.760934 39.742893 42.982151 C 40.09842 43.203368 40.671214 43.795913 41.026741 44.119838 C 41.382268 44.447713 41.951111 44.988904 42.306638 45.33258 C 42.662165 45.676256 43.234959 46.245099 43.590486 46.608527 C 43.946013 46.968004 44.514856 47.5645 44.870383 47.939778 C 45.22591 48.315057 45.798704 48.931304 46.154231 49.318433 C 46.509758 49.709513 47.078601 50.341561 47.434128 50.740541 C 47.789655 51.139522 48.362449 51.787371 48.717976 52.194252 C 49.073503 52.601133 49.642346 53.256883 49.997873 53.667714 C 50.35735 54.082495 50.926194 54.746146 51.281721 55.160927 C 51.637248 55.571759 52.206091 56.239359 52.565568 56.654141 C 52.921095 57.068923 53.489939 57.732573 53.845466 58.147355 C 54.200993 58.558186 54.773786 59.217886 55.129313 59.624767 C 55.48484 60.031648 56.053684 60.683447 56.409211 61.082428 C 56.764738 61.485358 57.337531 62.121357 57.693058 62.512437 C 58.048585 62.903516 58.617429 63.519763 58.972956 63.898992 C 59.328483 64.278221 59.901276 64.878667 60.256803 65.242094 C 60.61233 65.605522 61.181174 66.182266 61.536701 66.529892 C 61.892228 66.877519 62.465021 67.42266 62.820548 67.754485 C 63.176075 68.08236 63.744919 68.595899 64.100446 68.907973 C 64.455973 69.216096 65.028766 69.698033 65.384293 69.986405 C 65.73982 70.270827 66.308664 70.71326 66.668141 70.97793 C 67.023668 71.242601 67.592511 71.645531 67.948038 71.882549 C 68.303565 72.119567 68.876359 72.482995 69.231886 72.692361 C 69.587413 72.901727 70.156256 73.221701 70.511783 73.403415 C 70.86731 73.585129 71.440104 73.853749 71.795631 74.007811 C 72.151158 74.161873 72.720001 74.383089 73.075528 74.505549 C 73.431055 74.631958 74.003849 74.801821 74.359376 74.896628 C 74.714903 74.987485 75.283746 75.109945 75.639273 75.169199 C 75.9948 75.232404 76.567594 75.303509 76.923121 75.331162 C 77.278648 75.358814 77.847491 75.382515 78.203018 75.378565 C 78.558545 75.374615 79.131339 75.343012 79.486866 75.30746 C 79.842393 75.271907 80.411236 75.188951 80.766763 75.121796 C 81.126241 75.05464 81.695084 74.92033 82.050611 74.821573 C 82.406138 74.722815 82.978931 74.541101 83.334459 74.410742 C 83.689986 74.280382 84.258829 74.047314 84.614356 73.889302 C 84.969883 73.72734 85.542676 73.450818 85.898204 73.261204 C 86.253731 73.07159 86.822574 72.743715 87.178101 72.530398 C 87.533628 72.313132 88.106421 71.941804 88.461949 71.696885 C 88.817476 71.455917 89.386319 71.045086 89.741846 70.776465 C 90.097373 70.507845 90.670166 70.05356 91.025693 69.761238 C 91.381221 69.468916 91.950064 68.983029 92.305591 68.667005 C 92.661118 68.354931 93.233911 67.833491 93.589438 67.497716 C 93.944966 67.16589 94.513809 66.612848 94.869336 66.261272 C 95.228813 65.909695 95.797656 65.329001 96.153183 64.961623 C 96.508711 64.594245 97.077554 63.989849 97.437031 63.61062 C 97.792558 63.227441 98.361401 62.603293 98.716928 62.212214 C 99.072455 61.817184 99.645249 61.177235 100.000776 60.774304 C 100.356303 60.375324 100.925146 59.723524 101.280673 59.312693 C 101.6362 58.905812 102.208994 58.242162 102.564521 57.831331 C 102.920048 57.416549 103.488891 56.752899 103.844418 56.338117 C 104.199945 55.923335 104.772739 55.255735 105.128266 54.840953 C 105.483793 54.430122 106.052636 53.766471 106.408163 53.35564 C 106.76369 52.944809 107.336484 52.289059 107.692011 51.882178 C 108.047538 51.479247 108.616381 50.835348 108.971908 50.436368 C 109.327435 50.041338 109.900229 49.40929 110.255756 49.022161 C 110.611283 48.638981 111.180126 48.026685 111.539604 47.651406 C 111.895131 47.280078 112.463974 46.691483 112.819501 46.332006 C 113.175028 45.972529 113.747822 45.411586 114.103349 45.06791 C 114.458876 44.728184 115.027719 44.194893 115.383246 43.870969 C 115.738773 43.550994 116.311567 42.934748 116.667094 42.749083 C 117.022621 42.559469 117.591464 42.551568 117.946991 42.519966 C 118.302518 42.488364 118.875312 42.519966 119.230839 42.519966 C 119.586366 42.519966 120.155209 42.519966 120.510736 42.519966 C 120.866263 42.519966 121.439057 42.519966 121.794584 42.519966 C 122.150111 42.519966 122.718954 42.519966 123.074481 42.519966 C 123.430008 42.519966 124.002802 42.519966 124.358329 42.519966 C 124.713856 42.519966 125.282699 42.519966 125.642176 42.519966 C 125.997703 42.519966 126.566547 42.519966 126.922074 42.519966 C 127.277601 42.519966 127.850394 42.519966 128.205921 42.519966 C 128.561448 42.519966 129.130292 42.519966 129.485819 42.519966 C 129.841346 42.519966 130.414139 42.519966 130.769666 42.519966 C 131.125193 42.519966 131.694037 42.519966 132.049564 42.519966 C 132.405091 42.519966 132.977884 42.519966 133.333411 42.519966 C 133.688938 42.519966 134.257782 42.519966 134.613309 42.519966 C 134.968836 42.519966 135.541629 42.519966 135.897156 42.519966 C 136.252683 42.519966 136.821527 42.519966 137.177054 42.519966 C 137.532581 42.519966 138.105374 42.519966 138.460901 42.519966 C 138.816428 42.519966 139.385272 42.519966 139.740799 42.519966 C 140.100276 42.519966 140.669119 42.519966 141.024646 42.519966 C 141.380173 42.519966 141.952967 42.488364 142.308494 42.519966 C 142.664021 42.555519 143.232864 42.579221 143.588391 42.772785 C 143.943918 42.9624 144.516712 43.574696 144.872239 43.894671 C 145.227766 44.218595 145.796609 44.751886 146.152136 45.095562 C 146.507663 45.435288 147.080457 46.000181 147.435984 46.359658 C 147.791511 46.719135 148.360354 47.30773 148.715881 47.679058 C 149.071408 48.054337 149.644202 48.666634 149.999729 49.053763 C 150.355256 49.436942 150.924099 50.06899 151.279626 50.46402 C 151.635153 50.863001 152.207947 51.5069 152.563474 51.91378 C 152.919001 52.316711 153.487844 52.976411 153.843371 53.383292 C 154.202848 53.794123 154.771692 54.457774 155.127219 54.872556 C 155.482746 55.287337 156.051589 55.954938 156.411066 56.369719 C 156.766593 56.784501 157.335437 57.448151 157.690964 57.862933 C 158.046491 58.273764 158.619284 58.933464 158.974811 59.344296 C 159.330338 59.751177 159.899182 60.402976 160.254709 60.805907 C 160.610236 61.208837 161.183029 61.848786 161.538556 62.239866 C 161.894083 62.630946 162.462927 63.255093 162.818454 63.638272 C 163.173981 64.017501 163.746774 64.621897 164.102301 64.989275 C 164.457828 65.356653 165.026672 65.933397 165.382199 66.284973 C 165.737726 66.63655 166.310519 67.189592 166.666046 67.525368 C 167.021573 67.857193 167.590417 68.378633 167.945944 68.690706 C 168.301471 69.006731 168.874264 69.492617 169.229791 69.78494 C 169.585318 70.077262 170.154162 70.527596 170.513639 70.796217 C 170.869166 71.060887 171.438009 71.471718 171.793536 71.716637 C 172.149063 71.957605 172.721857 72.328933 173.077384 72.5462 C 173.432911 72.759516 174.001754 73.087391 174.357281 73.273055 C 174.712808 73.462669 175.285602 73.743141 175.641129 73.901153 C 175.996656 74.059165 176.565499 74.292232 176.921026 74.418642 C 177.276553 74.549002 177.849347 74.730716 178.204874 74.829473 C 178.560401 74.928231 179.129244 75.058591 179.484771 75.125746 C 179.840298 75.192901 180.413092 75.275857 180.768619 75.31141 C 181.124146 75.343012 181.692989 75.374615 182.048516 75.378565 C 182.404043 75.382515 182.976837 75.358814 183.332364 75.331162 C 183.687891 75.299559 184.256734 75.228454 184.612261 75.165249 C 184.971739 75.105994 185.540582 74.979585 185.896109 74.888728 C 186.251636 74.797871 186.82443 74.620107 187.179957 74.497648 C 187.535484 74.375189 188.104327 74.150022 188.459854 73.99596 C 188.815381 73.841898 189.388175 73.573278 189.743702 73.387614 C 190.099229 73.2059 190.668072 72.889876 191.023599 72.67656 C 191.379126 72.467194 191.95192 72.103766 192.307447 71.866748 C 192.662974 71.62578 193.231817 71.222849 193.587344 70.958179 C 193.942871 70.693509 194.515665 70.251075 194.871192 69.962703 C 195.226719 69.674331 195.795562 69.196345 196.151089 68.884271 C 196.506616 68.576148 197.079409 68.058658 197.434937 67.726833 C 197.790464 67.398958 198.359307 66.853817 198.714834 66.50224 C 199.074311 66.154614 199.643154 65.58182 199.998682 65.214442 C 200.354209 64.851014 200.923052 64.250569 201.282529 63.87134 C 201.638056 63.492111 202.206899 62.871914 202.562427 62.480834 C 202.917954 62.089754 203.490747 61.453756 203.846274 61.054776 C 204.201801 60.651845 204.770644 60.003996 205.126171 59.597115 C 205.481699 59.186284 206.054492 58.526583 206.410019 58.115752 C 206.765546 57.704921 207.334389 57.03732 207.689916 56.622539 C 208.045444 56.211707 208.618237 55.544107 208.973764 55.129325 C 209.329291 54.714543 209.898134 54.050893 210.253661 53.640062 C 210.609189 53.229231 211.181982 52.56953 211.537509 52.162649 C 211.893036 51.755768 212.461879 51.111869 212.817406 50.712889 C 213.172933 50.313909 213.745727 49.681861 214.101254 49.290781 C 214.456781 48.903652 215.025624 48.287405 215.385102 47.912126 C 215.740629 47.536848 216.309472 46.944303 216.664999 46.580875 C 217.020526 46.221398 217.59332 45.652554 217.948847 45.304928 C 218.304374 44.961252 218.873217 44.424011 219.228744 44.096136 C 219.584271 43.772211 220.157065 43.175716 220.512592 42.958449 C 220.868119 42.741183 221.436962 42.583171 221.792489 42.519966 C 222.148016 42.460712 222.72081 42.519966 223.076337 42.519966 C 223.431864 42.519966 224.000707 42.519966 224.356234 42.519966 C 224.711761 42.519966 225.284555 42.519966 225.640082 42.519966 C 225.995609 42.519966 226.564452 42.519966 226.919979 42.519966 C 227.275506 42.519966 227.8483 42.519966 228.203827 42.519966 C 228.559354 42.519966 229.128197 42.519966 229.487674 42.519966 C 229.843201 42.519966 230.412045 42.519966 230.767572 42.519966 C 231.123099 42.519966 231.695892 42.519966 232.051419 42.519966 C 232.406946 42.519966 232.97579 42.519966 233.331317 42.519966 C 233.686844 42.519966 234.259637 42.519966 234.615164 42.519966 C 234.970691 42.519966 235.539535 42.519966 235.895062 42.519966 C 236.250589 42.519966 236.823382 42.519966 237.178909 42.519966 C 237.534436 42.519966 238.10328 42.519966 238.458807 42.519966 C 238.814334 42.519966 239.387127 42.519966 239.742654 42.519966 C 240.098181 42.519966 240.667025 42.519966 241.022552 42.519966 C 241.378079 42.519966 241.950872 42.519966 242.306399 42.519966 C 242.661926 42.519966 243.23077 42.519966 243.586297 42.519966 C 243.945774 42.519966 244.514617 42.519966 244.870144 42.519966 C 245.225671 42.519966 245.798465 42.516016 246.153992 42.519966 C 246.509519 42.527867 247.078362 42.405407 247.433889 42.563419 C 247.789416 42.725382 248.36221 43.35743 248.717737 43.673454 C 249.073264 43.993428 249.642107 44.522768 249.997634 44.858544 C 250.353161 45.19827 250.925955 45.755262 251.281482 46.110789 C 251.637009 46.466316 252.205852 47.050961 252.561379 47.422289 C 252.916906 47.793617 253.4897 48.401963 253.845227 48.785143 C 254.200754 49.168322 255.125124 50.191449 255.125124 50.191449 " transform="matrix(0.988849,0,0,-0.988849,0.989349,84.092694)"/>
</g>
<g clip-path="url(#clip3)" clip-rule="nonzero">
<path style="fill:none;stroke-width:1.59404;stroke-linecap:butt;stroke-linejoin:miter;stroke:rgb(0%,0%,0%);stroke-opacity:1;stroke-miterlimit:10;" d="M -0.00107963 28.990187 C -0.00107963 28.990187 0.927241 30.072569 1.282768 30.487351 C 1.638295 30.898182 2.207138 31.561833 2.562665 31.972664 C 2.918192 32.379545 3.490986 33.035295 3.846513 33.438225 C 4.20204 33.841156 4.770883 34.485055 5.12641 34.880085 C 5.485888 35.275115 6.054731 35.899262 6.410258 36.286392 C 6.765785 36.669571 7.334628 37.277917 7.694106 37.645295 C 8.049633 38.016624 8.618476 38.601268 8.974003 38.956795 C 9.32953 39.312322 9.902324 39.869314 10.257851 40.20904 C 10.613378 40.544816 11.182221 41.074156 11.537748 41.39018 C 11.893275 41.710154 12.466069 42.342203 12.821596 42.500215 C 13.177123 42.658227 13.745966 42.519966 14.101493 42.519966 C 14.45702 42.523916 15.029814 42.519966 15.385341 42.519966 C 15.740868 42.519966 16.309711 42.519966 16.665238 42.519966 C 17.020765 42.519966 17.593559 42.519966 17.949086 42.519966 C 18.304613 42.519966 18.873456 42.519966 19.228983 42.519966 C 19.58451 42.519966 20.157304 42.519966 20.512831 42.519966 C 20.868358 42.519966 21.437201 42.519966 21.796678 42.519966 C 22.152205 42.519966 22.721049 42.519966 23.076576 42.519966 C 23.432103 42.519966 24.004896 42.519966 24.360423 42.519966 C 24.71595 42.519966 25.284794 42.519966 25.640321 42.519966 C 25.995848 42.519966 26.568641 42.519966 26.924168 42.519966 C 27.279695 42.519966 27.848538 42.519966 28.204066 42.519966 C 28.559593 42.519966 29.132386 42.519966 29.487913 42.519966 C 29.84344 42.519966 30.412283 42.519966 30.767811 42.519966 C 31.123338 42.519966 31.696131 42.519966 32.051658 42.519966 C 32.407185 42.519966 32.976028 42.519966 33.331556 42.519966 C 33.687083 42.519966 34.259876 42.519966 34.615403 42.519966 C 34.97093 42.519966 35.539773 42.519966 35.895301 42.519966 C 36.254778 42.519966 36.823621 42.519966 37.179148 42.519966 C 37.534675 42.519966 38.107469 42.583171 38.462996 42.519966 C 38.818523 42.456761 39.387366 42.282948 39.742893 42.061731 C 40.09842 41.840514 40.671214 41.247969 41.026741 40.920094 C 41.382268 40.59617 41.951111 40.054979 42.306638 39.711302 C 42.662165 39.363676 43.234959 38.794833 43.590486 38.435355 C 43.946013 38.071928 44.514856 37.479383 44.870383 37.104104 C 45.22591 36.724875 45.798704 36.108628 46.154231 35.721499 C 46.509758 35.33437 47.078601 34.698371 47.434128 34.299391 C 47.789655 33.90041 48.362449 33.256511 48.717976 32.849631 C 49.073503 32.44275 49.642346 31.783049 49.997873 31.372218 C 50.35735 30.961387 50.926194 30.297736 51.281721 29.882955 C 51.637248 29.468173 52.206091 28.800573 52.565568 28.385791 C 52.921095 27.971009 53.489939 27.307359 53.845466 26.896528 C 54.200993 26.481746 54.773786 25.822046 55.129313 25.415165 C 55.48484 25.008284 56.053684 24.360435 56.409211 23.957504 C 56.764738 23.558524 57.337531 22.922526 57.693058 22.531446 C 58.048585 22.140366 58.617429 21.520169 58.972956 21.14094 C 59.328483 20.761711 59.901276 20.165216 60.256803 19.801788 C 60.61233 19.43441 61.181174 18.861617 61.536701 18.51399 C 61.892228 18.166364 62.465021 17.617272 62.820548 17.289397 C 63.176075 16.957572 63.744919 16.444033 64.100446 16.135909 C 64.455973 15.823836 65.028766 15.345849 65.384293 15.057477 C 65.73982 14.769105 66.308664 14.326672 66.668141 14.062002 C 67.023668 13.801282 67.592511 13.398351 67.948038 13.161333 C 68.303565 12.920365 68.876359 12.560887 69.231886 12.351522 C 69.587413 12.138205 70.156256 11.822181 70.511783 11.640467 C 70.86731 11.458754 71.440104 11.186183 71.795631 11.032121 C 72.151158 10.88201 72.720001 10.656843 73.075528 10.534383 C 73.431055 10.411924 74.003849 10.238111 74.359376 10.147254 C 74.714903 10.056397 75.283746 9.929987 75.639273 9.870733 C 75.9948 9.811478 76.567594 9.740373 76.923121 9.708771 C 77.278648 9.681118 77.847491 9.661367 78.203018 9.665317 C 78.558545 9.669268 79.131339 9.70087 79.486866 9.736423 C 79.842393 9.771975 80.411236 9.850981 80.766763 9.918136 C 81.126241 9.989242 81.695084 10.119602 82.050611 10.218359 C 82.406138 10.317117 82.978931 10.502781 83.334459 10.633141 C 83.689986 10.75955 84.258829 10.992618 84.614356 11.154581 C 84.969883 11.312593 85.542676 11.593064 85.898204 11.782678 C 86.253731 11.972293 86.822574 12.296217 87.178101 12.513484 C 87.533628 12.73075 88.106421 13.102079 88.461949 13.343047 C 88.817476 13.587966 89.386319 13.998797 89.741846 14.267417 C 90.097373 14.536038 90.670166 14.986372 91.025693 15.278694 C 91.381221 15.571016 91.950064 16.060854 92.305591 16.372927 C 92.661118 16.688951 93.233911 17.210391 93.589438 17.542216 C 93.944966 17.877992 94.513809 18.431034 94.869336 18.782611 C 95.228813 19.134187 95.797656 19.710931 96.153183 20.08226 C 96.508711 20.449637 97.077554 21.050083 97.437031 21.433262 C 97.792558 21.816441 98.361401 22.436639 98.716928 22.831669 C 99.072455 23.222748 99.645249 23.862697 100.000776 24.265628 C 100.356303 24.668558 100.925146 25.320358 101.280673 25.727239 C 101.6362 26.13807 102.208994 26.79777 102.564521 27.212552 C 102.920048 27.623383 103.488891 28.290984 103.844418 28.705765 C 104.199945 29.120547 104.772739 29.784197 105.128266 30.198979 C 105.483793 30.61376 106.052636 31.277411 106.408163 31.688242 C 106.76369 32.099073 107.336484 32.754823 107.692011 33.157754 C 108.047538 33.564635 108.616381 34.208534 108.971908 34.603564 C 109.327435 35.002544 109.900229 35.630642 110.255756 36.017771 C 110.611283 36.404901 111.180126 37.017198 111.539604 37.388526 C 111.895131 37.763804 112.463974 38.352399 112.819501 38.711876 C 113.175028 39.067403 113.747822 39.632296 114.103349 39.972022 C 114.458876 40.315698 115.027719 40.848989 115.383246 41.168963 C 115.738773 41.492888 116.311567 42.105184 116.667094 42.294799 C 117.022621 42.480463 117.591464 42.488364 117.946991 42.519966 C 118.302518 42.551568 118.875312 42.519966 119.230839 42.519966 C 119.586366 42.519966 120.155209 42.519966 120.510736 42.519966 C 120.866263 42.519966 121.439057 42.519966 121.794584 42.519966 C 122.150111 42.519966 122.718954 42.519966 123.074481 42.519966 C 123.430008 42.519966 124.002802 42.519966 124.358329 42.519966 C 124.713856 42.519966 125.282699 42.519966 125.642176 42.519966 C 125.997703 42.519966 126.566547 42.519966 126.922074 42.519966 C 127.277601 42.519966 127.850394 42.519966 128.205921 42.519966 C 128.561448 42.519966 129.130292 42.519966 129.485819 42.519966 C 129.841346 42.519966 130.414139 42.519966 130.769666 42.519966 C 131.125193 42.519966 131.694037 42.519966 132.049564 42.519966 C 132.405091 42.519966 132.977884 42.519966 133.333411 42.519966 C 133.688938 42.519966 134.257782 42.519966 134.613309 42.519966 C 134.968836 42.519966 135.541629 42.519966 135.897156 42.519966 C 136.252683 42.519966 136.821527 42.519966 137.177054 42.519966 C 137.532581 42.519966 138.105374 42.519966 138.460901 42.519966 C 138.816428 42.519966 139.385272 42.519966 139.740799 42.519966 C 140.100276 42.519966 140.669119 42.519966 141.024646 42.519966 C 141.380173 42.519966 141.952967 42.555519 142.308494 42.519966 C 142.664021 42.488364 143.232864 42.460712 143.588391 42.271097 C 143.943918 42.081483 144.516712 41.469186 144.872239 41.145261 C 145.227766 40.821337 145.796609 40.288046 146.152136 39.94832 C 146.507663 39.604644 147.080457 39.043702 147.435984 38.684224 C 147.791511 38.324747 148.360354 37.736152 148.715881 37.360874 C 149.071408 36.989545 149.644202 36.377249 149.999729 35.990119 C 150.355256 35.60299 150.924099 34.974892 151.279626 34.575912 C 151.635153 34.180882 152.207947 33.533033 152.563474 33.130102 C 152.919001 32.723221 153.487844 32.067471 153.843371 31.65664 C 154.202848 31.245809 154.771692 30.582158 155.127219 30.167377 C 155.482746 29.756545 156.051589 29.088945 156.411066 28.674163 C 156.766593 28.259381 157.335437 27.595731 157.690964 27.180949 C 158.046491 26.770118 158.619284 26.106468 158.974811 25.699587 C 159.330338 25.288755 159.899182 24.636956 160.254709 24.237976 C 160.610236 23.835045 161.183029 23.195096 161.538556 22.804017 C 161.894083 22.408986 162.462927 21.784839 162.818454 21.40561 C 163.173981 21.022431 163.746774 20.421985 164.102301 20.054607 C 164.457828 19.687229 165.026672 19.106535 165.382199 18.754959 C 165.737726 18.403382 166.310519 17.85429 166.666046 17.518515 C 167.021573 17.186689 167.590417 16.66525 167.945944 16.349226 C 168.301471 16.037152 168.874264 15.551265 169.229791 15.258943 C 169.585318 14.96662 170.154162 14.516286 170.513639 14.247666 C 170.869166 13.979045 171.438009 13.568214 171.793536 13.327246 C 172.149063 13.082327 172.721857 12.714949 173.077384 12.497683 C 173.432911 12.280416 174.001754 11.956491 174.357281 11.766877 C 174.712808 11.581213 175.285602 11.300742 175.641129 11.14273 C 175.996656 10.980767 176.565499 10.75165 176.921026 10.62129 C 177.276553 10.49488 177.849347 10.309216 178.204874 10.210459 C 178.560401 10.115651 179.129244 9.981341 179.484771 9.914186 C 179.840298 9.847031 180.413092 9.768025 180.768619 9.732472 C 181.124146 9.69692 181.692989 9.665317 182.048516 9.665317 C 182.404043 9.661367 182.976837 9.681118 183.332364 9.712721 C 183.687891 9.740373 184.256734 9.815429 184.612261 9.874683 C 184.971739 9.937888 185.540582 10.060347 185.896109 10.155154 C 186.251636 10.246011 186.82443 10.419825 187.179957 10.542284 C 187.535484 10.668694 188.104327 10.88991 188.459854 11.043972 C 188.815381 11.198034 189.388175 11.470605 189.743702 11.652318 C 190.099229 11.837982 190.668072 12.154007 191.023599 12.367323 C 191.379126 12.576689 191.95192 12.940116 192.307447 13.177134 C 192.662974 13.414152 193.231817 13.821033 193.587344 14.081753 C 193.942871 14.346423 194.515665 14.792807 194.871192 15.077229 C 195.226719 15.365601 195.795562 15.847537 196.151089 16.159611 C 196.506616 16.467735 197.079409 16.981274 197.434937 17.313099 C 197.790464 17.644924 198.359307 18.190066 198.714834 18.537692 C 199.074311 18.889269 199.643154 19.462062 199.998682 19.82549 C 200.354209 20.192868 200.923052 20.789363 201.282529 21.168592 C 201.638056 21.547821 202.206899 22.168018 202.562427 22.559098 C 202.917954 22.950178 203.490747 23.586176 203.846274 23.989107 C 204.201801 24.388087 204.770644 25.039887 205.126171 25.446768 C 205.481699 25.853648 206.054492 26.513349 206.410019 26.92418 C 206.765546 27.338961 207.334389 28.002612 207.689916 28.417393 C 208.045444 28.832175 208.618237 29.499776 208.973764 29.914557 C 209.329291 30.329339 209.898134 30.992989 210.253661 31.403821 C 210.609189 31.814652 211.181982 32.470402 211.537509 32.877283 C 211.893036 33.284164 212.461879 33.932013 212.817406 34.330993 C 213.172933 34.729974 213.745727 35.362022 214.101254 35.749151 C 214.456781 36.140231 215.025624 36.752527 215.385102 37.131756 C 215.740629 37.507035 216.309472 38.09958 216.664999 38.463007 C 217.020526 38.822485 217.59332 39.391328 217.948847 39.735004 C 218.304374 40.07868 218.873217 40.619872 219.228744 40.943796 C 219.584271 41.271671 220.157065 41.864216 220.512592 42.085433 C 220.868119 42.3027 221.436962 42.460712 221.792489 42.519966 C 222.148016 42.583171 222.72081 42.519966 223.076337 42.519966 C 223.431864 42.519966 224.000707 42.519966 224.356234 42.519966 C 224.711761 42.519966 225.284555 42.519966 225.640082 42.519966 C 225.995609 42.519966 226.564452 42.519966 226.919979 42.519966 C 227.275506 42.519966 227.8483 42.519966 228.203827 42.519966 C 228.559354 42.519966 229.128197 42.519966 229.487674 42.519966 C 229.843201 42.519966 230.412045 42.519966 230.767572 42.519966 C 231.123099 42.519966 231.695892 42.519966 232.051419 42.519966 C 232.406946 42.519966 232.97579 42.519966 233.331317 42.519966 C 233.686844 42.519966 234.259637 42.519966 234.615164 42.519966 C 234.970691 42.519966 235.539535 42.519966 235.895062 42.519966 C 236.250589 42.519966 236.823382 42.519966 237.178909 42.519966 C 237.534436 42.519966 238.10328 42.519966 238.458807 42.519966 C 238.814334 42.519966 239.387127 42.519966 239.742654 42.519966 C 240.098181 42.519966 240.667025 42.519966 241.022552 42.519966 C 241.378079 42.519966 241.950872 42.519966 242.306399 42.519966 C 242.661926 42.519966 243.23077 42.519966 243.586297 42.519966 C 243.945774 42.519966 244.514617 42.519966 244.870144 42.519966 C 245.225671 42.519966 245.798465 42.527867 246.153992 42.519966 C 246.509519 42.516016 247.078362 42.638475 247.433889 42.476513 C 247.789416 42.318501 248.36221 41.686453 248.717737 41.366478 C 249.073264 41.050454 249.642107 40.521114 249.997634 40.181388 C 250.353161 39.845613 250.925955 39.28467 251.281482 38.929143 C 251.637009 38.573616 252.205852 37.988971 252.561379 37.617643 C 252.916906 37.250265 253.4897 36.641919 253.845227 36.25479 C 254.200754 35.87161 255.125124 34.848483 255.125124 34.848483 " transform="matrix(0.988849,0,0,-0.988849,0.989349,84.092694)"/>
</g>
</g>
</svg>
