<?xml version="1.0" encoding="UTF-8"?>
<svg xmlns="http://www.w3.org/2000/svg" xmlns:xlink="http://www.w3.org/1999/xlink" width="255.117pt" height="183.104pt" viewBox="0 0 255.117 183.104" version="1.2">
<defs>
<clipPath id="clip1">
  <path d="M 0.183594 4 L 4 4 L 4 8 L 0.183594 8 Z M 0.183594 4 "/>
</clipPath>
<clipPath id="clip2">
  <path d="M 0.183594 0 L 10 0 L 10 14 L 0.183594 14 Z M 0.183594 0 "/>
</clipPath>
<clipPath id="clip3">
  <path d="M 213 74 L 254.054688 74 L 254.054688 113 L 213 113 Z M 213 74 "/>
</clipPath>
<clipPath id="clip4">
  <path d="M 238 84 L 254.054688 84 L 254.054688 102 L 238 102 Z M 238 84 "/>
</clipPath>
<clipPath id="clip5">
  <path d="M 244 89 L 254.054688 89 L 254.054688 104 L 244 104 Z M 244 89 "/>
</clipPath>
<clipPath id="clip6">
  <path d="M 236 89 L 254.054688 89 L 254.054688 107 L 236 107 Z M 236 89 "/>
</clipPath>
<clipPath id="clip7">
  <path d="M 242 93 L 254.054688 93 L 254.054688 109 L 242 109 Z M 242 93 "/>
</clipPath>
<clipPath id="clip8">
  <path d="M 0.183594 178 L 4 178 L 4 182.210938 L 0.183594 182.210938 Z M 0.183594 178 "/>
</clipPath>
<clipPath id="clip9">
  <path d="M 0.183594 173 L 10 173 L 10 182.210938 L 0.183594 182.210938 Z M 0.183594 173 "/>
</clipPath>
</defs>
<g id="surface1">
<path style="fill:none;stroke-width:0.3985;stroke-linecap:butt;stroke-linejoin:miter;stroke:rgb(0%,0%,0%);stroke-opacity:1;stroke-miterlimit:10;" d="M 0.00183915 174.970685 L 100.769879 174.970685 M 132.522155 174.970685 L 233.290196 174.970685 L 233.290196 95.423167 M 233.290196 79.548992 L 233.290196 0.0014736 L 116.64798 0.0014736 M 116.64798 0.0014736 L 0.00183915 0.0014736 " transform="matrix(0.99513,0,0,-0.99513,1.959107,180.43506)"/>
<path style="fill:none;stroke-width:0.797;stroke-linecap:butt;stroke-linejoin:miter;stroke:rgb(0%,0%,0%);stroke-opacity:1;stroke-miterlimit:10;" d="M 100.769879 180.921538 L 132.522155 180.921538 L 132.522155 169.015907 L 100.769879 169.015907 Z M 100.769879 180.921538 " transform="matrix(0.99513,0,0,-0.99513,1.959107,180.43506)"/>
<g clip-path="url(#clip1)" clip-rule="nonzero">
<path style=" stroke:none;fill-rule:nonzero;fill:rgb(100%,100%,100%);fill-opacity:1;" d="M 3.539062 6.316406 C 3.539062 5.445312 2.832031 4.738281 1.960938 4.738281 C 1.085938 4.738281 0.378906 5.445312 0.378906 6.316406 C 0.378906 7.191406 1.085938 7.898438 1.960938 7.898438 C 2.832031 7.898438 3.539062 7.191406 3.539062 6.316406 Z M 3.539062 6.316406 "/>
</g>
<g clip-path="url(#clip2)" clip-rule="nonzero">
<path style="fill:none;stroke-width:0.3985;stroke-linecap:butt;stroke-linejoin:miter;stroke:rgb(0%,0%,0%);stroke-opacity:1;stroke-miterlimit:10;" d="M 1.587687 174.970685 C 1.587687 175.846041 0.877196 176.556532 0.00183915 176.556532 C -0.877443 176.556532 -1.587934 175.846041 -1.587934 174.970685 C -1.587934 174.091403 -0.877443 173.380912 0.00183915 173.380912 C 0.877196 173.380912 1.587687 174.091403 1.587687 174.970685 Z M 1.587687 174.970685 " transform="matrix(0.99513,0,0,-0.99513,1.959107,180.43506)"/>
</g>
<g clip-path="url(#clip3)" clip-rule="nonzero">
<path style="fill:none;stroke-width:0.797;stroke-linecap:butt;stroke-linejoin:miter;stroke:rgb(0%,0%,0%);stroke-opacity:1;stroke-miterlimit:10;" d="M 233.290196 79.548992 L 243.213518 95.423167 L 223.370799 95.423167 Z M 233.290196 79.548992 " transform="matrix(0.99513,0,0,-0.99513,1.959107,180.43506)"/>
</g>
<path style="fill:none;stroke-width:0.3985;stroke-linecap:butt;stroke-linejoin:miter;stroke:rgb(0%,0%,0%);stroke-opacity:1;stroke-miterlimit:10;" d="M 233.290196 79.548992 L 233.290196 95.423167 " transform="matrix(0.99513,0,0,-0.99513,1.959107,180.43506)"/>
<path style="fill:none;stroke-width:0.797;stroke-linecap:butt;stroke-linejoin:miter;stroke:rgb(0%,0%,0%);stroke-opacity:1;stroke-miterlimit:10;" d="M 223.370799 79.548992 L 243.213518 79.548992 " transform="matrix(0.99513,0,0,-0.99513,1.959107,180.43506)"/>
<g clip-path="url(#clip4)" clip-rule="nonzero">
<path style="fill:none;stroke-width:0.3985;stroke-linecap:butt;stroke-linejoin:miter;stroke:rgb(0%,0%,0%);stroke-opacity:1;stroke-miterlimit:10;" d="M 243.213518 90.657774 L 250.424413 84.891413 " transform="matrix(0.99513,0,0,-0.99513,1.959107,180.43506)"/>
</g>
<path style=" stroke:none;fill-rule:nonzero;fill:rgb(0%,0%,0%);fill-opacity:1;" d="M 253.550781 97.867188 L 252.335938 94.648438 L 251.242188 96.019531 L 250.144531 97.390625 Z M 253.550781 97.867188 "/>
<g clip-path="url(#clip5)" clip-rule="nonzero">
<path style="fill:none;stroke-width:0.3985;stroke-linecap:butt;stroke-linejoin:miter;stroke:rgb(0%,0%,0%);stroke-opacity:1;stroke-miterlimit:10;" d="M 3.17243 0.0000871941 L 0.198389 1.763318 L 0.200833 0.000714197 L 0.200212 -1.764342 Z M 3.17243 0.0000871941 " transform="matrix(0.777018,0.621608,0.621608,-0.777018,251.085693,95.895247)"/>
</g>
<g clip-path="url(#clip6)" clip-rule="nonzero">
<path style="fill:none;stroke-width:0.3985;stroke-linecap:butt;stroke-linejoin:miter;stroke:rgb(0%,0%,0%);stroke-opacity:1;stroke-miterlimit:10;" d="M 241.227283 85.896307 L 248.438179 80.129946 " transform="matrix(0.99513,0,0,-0.99513,1.959107,180.43506)"/>
</g>
<path style=" stroke:none;fill-rule:nonzero;fill:rgb(0%,0%,0%);fill-opacity:1;" d="M 251.578125 102.605469 L 250.363281 99.386719 L 248.167969 102.128906 Z M 251.578125 102.605469 "/>
<g clip-path="url(#clip7)" clip-rule="nonzero">
<path style="fill:none;stroke-width:0.3985;stroke-linecap:butt;stroke-linejoin:miter;stroke:rgb(0%,0%,0%);stroke-opacity:1;stroke-miterlimit:10;" d="M 3.173571 0.0017842 L 0.19953 1.765015 L 0.198287 -1.765097 Z M 3.173571 0.0017842 " transform="matrix(0.777018,0.621608,0.621608,-0.777018,249.111095,100.634138)"/>
</g>
<g clip-path="url(#clip8)" clip-rule="nonzero">
<path style=" stroke:none;fill-rule:nonzero;fill:rgb(100%,100%,100%);fill-opacity:1;" d="M 3.539062 180.433594 C 3.539062 179.5625 2.832031 178.855469 1.960938 178.855469 C 1.085938 178.855469 0.378906 179.5625 0.378906 180.433594 C 0.378906 181.308594 1.085938 182.015625 1.960938 182.015625 C 2.832031 182.015625 3.539062 181.308594 3.539062 180.433594 Z M 3.539062 180.433594 "/>
</g>
<g clip-path="url(#clip9)" clip-rule="nonzero">
<path style="fill:none;stroke-width:0.3985;stroke-linecap:butt;stroke-linejoin:miter;stroke:rgb(0%,0%,0%);stroke-opacity:1;stroke-miterlimit:10;" d="M 1.587687 0.0014736 C 1.587687 0.87683 0.877196 1.587321 0.00183915 1.587321 C -0.877443 1.587321 -1.587934 0.87683 -1.587934 0.0014736 C -1.587934 -0.877808 -0.877443 -1.588299 0.00183915 -1.588299 C 0.877196 -1.588299 1.587687 -0.877808 1.587687 0.0014736 Z M 1.587687 0.0014736 " transform="matrix(0.99513,0,0,-0.99513,1.959107,180.43506)"/>
</g>
</g>
</svg>
