<?xml version="1.0" encoding="UTF-8"?>
<svg xmlns="http://www.w3.org/2000/svg" xmlns:xlink="http://www.w3.org/1999/xlink" width="255.464pt" height="283.122pt" viewBox="0 0 255.464 283.122" version="1.2">
<defs>
<clipPath id="clip1">
  <path d="M 121 112 L 145 112 L 145 282.246094 L 121 282.246094 Z M 121 112 "/>
</clipPath>
<clipPath id="clip2">
  <path d="M 121 273 L 145 273 L 145 282.246094 L 121 282.246094 Z M 121 273 "/>
</clipPath>
<clipPath id="clip3">
  <path d="M 121 237 L 145 237 L 145 282.246094 L 121 282.246094 Z M 121 237 "/>
</clipPath>
<clipPath id="clip4">
  <path d="M 0.128906 1 L 254.800781 1 L 254.800781 75 L 0.128906 75 Z M 0.128906 1 "/>
</clipPath>
</defs>
<g id="surface1">
<g clip-path="url(#clip1)" clip-rule="nonzero">
<path style="fill:none;stroke-width:0.99628;stroke-linecap:round;stroke-linejoin:round;stroke:rgb(0%,0%,0%);stroke-opacity:1;stroke-miterlimit:10;" d="M 0.000285555 36.881255 L 0.000285555 184.407652 L 11.061827 206.534653 M 7.374646 44.255615 L 7.374646 191.782013 L 11.061827 206.534653 M 22.127286 44.255615 L 22.127286 191.782013 L 11.061827 206.534653 M 14.752925 36.881255 L 14.752925 184.407652 L 11.061827 206.534653 " transform="matrix(0.996908,0,0,-0.996908,121.948934,318.517235)"/>
</g>
<path style="fill:none;stroke-width:1.99255;stroke-linecap:round;stroke-linejoin:round;stroke:rgb(0%,0%,0%);stroke-opacity:1;stroke-miterlimit:10;" d="M 11.061827 188.094833 L 11.061827 280.297852 " transform="matrix(0.996908,0,0,-0.996908,121.948934,318.517235)"/>
<path style="fill:none;stroke-width:0.99628;stroke-linecap:round;stroke-linejoin:round;stroke:rgb(0%,0%,0%);stroke-opacity:1;stroke-miterlimit:10;" d="M 0.000285555 184.407652 L 22.127286 191.782013 M 14.752925 184.407652 L 7.374646 191.782013 " transform="matrix(0.996908,0,0,-0.996908,121.948934,318.517235)"/>
<g clip-path="url(#clip2)" clip-rule="nonzero">
<path style="fill:none;stroke-width:0.99628;stroke-linecap:round;stroke-linejoin:round;stroke:rgb(0%,0%,0%);stroke-opacity:1;stroke-miterlimit:10;" d="M 0.000285555 36.881255 L 14.752925 36.881255 L 22.127286 44.255615 L 7.374646 44.255615 Z M 0.000285555 36.881255 " transform="matrix(0.996908,0,0,-0.996908,121.948934,318.517235)"/>
</g>
<path style="fill:none;stroke-width:0.99628;stroke-linecap:round;stroke-linejoin:round;stroke:rgb(0%,0%,0%);stroke-opacity:1;stroke-miterlimit:10;" d="M 0.000285555 73.760895 L 14.752925 73.760895 L 22.127286 81.139174 L 7.374646 81.139174 Z M 0.000285555 73.760895 " transform="matrix(0.996908,0,0,-0.996908,121.948934,318.517235)"/>
<path style="fill:none;stroke-width:0.99628;stroke-linecap:round;stroke-linejoin:round;stroke:rgb(0%,0%,0%);stroke-opacity:1;stroke-miterlimit:10;" d="M 0.000285555 110.644454 L 14.752925 110.644454 L 22.127286 118.018814 L 7.374646 118.018814 Z M 0.000285555 110.644454 " transform="matrix(0.996908,0,0,-0.996908,121.948934,318.517235)"/>
<path style="fill:none;stroke-width:0.99628;stroke-linecap:round;stroke-linejoin:round;stroke:rgb(0%,0%,0%);stroke-opacity:1;stroke-miterlimit:10;" d="M 0.000285555 147.524094 L 14.752925 147.524094 L 22.127286 154.902373 L 7.374646 154.902373 Z M 0.000285555 147.524094 " transform="matrix(0.996908,0,0,-0.996908,121.948934,318.517235)"/>
<path style="fill:none;stroke-width:0.99628;stroke-linecap:round;stroke-linejoin:round;stroke:rgb(0%,0%,0%);stroke-opacity:1;stroke-miterlimit:10;" d="M 0.000285555 184.407652 L 14.752925 184.407652 L 22.127286 191.782013 L 7.374646 191.782013 Z M 0.000285555 184.407652 " transform="matrix(0.996908,0,0,-0.996908,121.948934,318.517235)"/>
<g clip-path="url(#clip3)" clip-rule="nonzero">
<path style="fill:none;stroke-width:0.99628;stroke-linecap:round;stroke-linejoin:round;stroke:rgb(0%,0%,0%);stroke-opacity:1;stroke-miterlimit:10;" d="M 0.000285555 36.881255 L 14.752925 73.760895 M 14.752925 36.881255 L 22.127286 81.139174 M 22.127286 44.255615 L 7.374646 81.139174 M 7.374646 44.255615 L 0.000285555 73.760895 " transform="matrix(0.996908,0,0,-0.996908,121.948934,318.517235)"/>
</g>
<path style="fill:none;stroke-width:0.99628;stroke-linecap:round;stroke-linejoin:round;stroke:rgb(0%,0%,0%);stroke-opacity:1;stroke-miterlimit:10;" d="M 0.000285555 73.760895 L 14.752925 110.644454 M 14.752925 73.760895 L 22.127286 118.018814 M 22.127286 81.139174 L 7.374646 118.018814 M 7.374646 81.139174 L 0.000285555 110.644454 " transform="matrix(0.996908,0,0,-0.996908,121.948934,318.517235)"/>
<path style="fill:none;stroke-width:0.99628;stroke-linecap:round;stroke-linejoin:round;stroke:rgb(0%,0%,0%);stroke-opacity:1;stroke-miterlimit:10;" d="M 0.000285555 110.644454 L 14.752925 147.524094 M 14.752925 110.644454 L 22.127286 154.902373 M 22.127286 118.018814 L 7.374646 154.902373 M 7.374646 118.018814 L 0.000285555 147.524094 " transform="matrix(0.996908,0,0,-0.996908,121.948934,318.517235)"/>
<path style="fill:none;stroke-width:0.99628;stroke-linecap:round;stroke-linejoin:round;stroke:rgb(0%,0%,0%);stroke-opacity:1;stroke-miterlimit:10;" d="M 0.000285555 147.524094 L 14.752925 184.407652 M 14.752925 147.524094 L 22.127286 191.782013 M 22.127286 154.902373 L 7.374646 191.782013 M 7.374646 154.902373 L 0.000285555 184.407652 " transform="matrix(0.996908,0,0,-0.996908,121.948934,318.517235)"/>
<path style="fill:none;stroke-width:1.59404;stroke-linecap:round;stroke-linejoin:round;stroke:rgb(0%,0%,0%);stroke-opacity:1;stroke-miterlimit:10;" d="M 98.194483 280.286097 L -95.423628 280.286097 " transform="matrix(0.996908,0,0,-0.996908,121.948934,318.517235)"/>
<g clip-path="url(#clip4)" clip-rule="nonzero">
<path style="fill:none;stroke-width:0.99628;stroke-linecap:round;stroke-linejoin:round;stroke:rgb(0%,0%,0%);stroke-opacity:1;stroke-miterlimit:10;" d="M 63.61884 245.714373 L 132.766207 314.861739 M -35.958539 251.243184 L 22.127286 309.329009 M -70.530263 252.626366 L -15.210803 307.945827 M -121.704095 254.009549 L -69.147081 306.562644 M -1.382897 254.10359 L -1.382897 253.919426 C -1.382897 251.678122 -0.0976735 251.145225 1.485345 252.728244 L 56.601051 307.843949 C 58.18407 309.430887 59.469293 312.530312 59.469293 314.771617 L 59.469293 314.95578 C 59.469293 317.193165 58.18407 317.726063 56.601051 316.143044 L 1.485345 261.027338 C -0.0976735 259.444319 -1.382897 256.340975 -1.382897 254.10359 Z M -1.382897 254.10359 " transform="matrix(0.996908,0,0,-0.996908,121.948934,318.517235)"/>
</g>
<path style="fill:none;stroke-width:4.98138;stroke-linecap:round;stroke-linejoin:round;stroke:rgb(0%,0%,0%);stroke-opacity:1;stroke-miterlimit:10;" d="M 26.280752 280.286097 L 31.809563 280.286097 " transform="matrix(0.996908,0,0,-0.996908,121.948934,318.517235)"/>
</g>
</svg>
