<?xml version="1.0" encoding="UTF-8"?>
<svg xmlns="http://www.w3.org/2000/svg" xmlns:xlink="http://www.w3.org/1999/xlink" width="254.93pt" height="191.596pt" viewBox="0 0 254.93 191.596" version="1.2">
<defs>
<clipPath id="clip1">
  <path d="M 0.234375 0 L 254.625 0 L 254.625 191 L 0.234375 191 Z M 0.234375 0 "/>
</clipPath>
<clipPath id="clip2">
  <path d="M 0.234375 0 L 254.625 0 L 254.625 191.191406 L 0.234375 191.191406 Z M 0.234375 0 "/>
</clipPath>
</defs>
<g id="surface1">
<g clip-path="url(#clip1)" clip-rule="nonzero">
<path style="fill:none;stroke-width:0.3985;stroke-linecap:butt;stroke-linejoin:miter;stroke:rgb(0%,0%,0%);stroke-opacity:1;stroke-miterlimit:10;" d="M -0.00126314 -95.001912 L 253.340404 -95.001912 M -0.00126314 -63.333715 L 253.340404 -63.333715 M -0.00126314 -31.665517 L 253.340404 -31.665517 M -0.00126314 -0.0012338 L 253.340404 -0.0012338 M -0.00126314 31.666964 L 253.340404 31.666964 M -0.00126314 63.335162 L 253.340404 63.335162 M -0.00126314 94.991616 L 253.340404 94.991616 M -0.00126314 -95.001912 L -0.00126314 95.003359 M 31.666935 -95.001912 L 31.666935 95.003359 M 63.335132 -95.001912 L 63.335132 95.003359 M 95.00333 -95.001912 L 95.00333 95.003359 M 126.671528 -95.001912 L 126.671528 95.003359 M 158.335811 -95.001912 L 158.335811 95.003359 M 190.004008 -95.001912 L 190.004008 95.003359 M 221.672206 -95.001912 L 221.672206 95.003359 M 253.32866 -95.001912 L 253.32866 95.003359 " transform="matrix(0.997896,0,0,-0.997896,1.028604,95.596425)"/>
</g>
<g clip-path="url(#clip2)" clip-rule="nonzero">
<path style="fill:none;stroke-width:1.59404;stroke-linecap:butt;stroke-linejoin:miter;stroke:rgb(0%,0%,0%);stroke-opacity:1;stroke-miterlimit:10;" d="M -0.00126314 -0.0012338 C 20.647654 48.640178 40.407983 95.003359 63.335132 95.003359 C 86.262281 95.003359 106.02261 48.640178 126.671528 -0.0012338 C 147.316531 -48.638731 167.07686 -95.001912 190.004008 -95.001912 C 212.931157 -95.001912 232.691486 -48.638731 253.340404 -0.0012338 " transform="matrix(0.997896,0,0,-0.997896,1.028604,95.596425)"/>
</g>
</g>
</svg>
