<?xml version="1.0" encoding="UTF-8"?>
<svg xmlns="http://www.w3.org/2000/svg" xmlns:xlink="http://www.w3.org/1999/xlink" width="32.611pt" height="44.451pt" viewBox="0 0 32.611 44.451" version="1.2">
<defs>
<clipPath id="clip1">
  <path d="M 0.0078125 0 L 32.21875 0 L 32.21875 43.910156 L 0.0078125 43.910156 Z M 0.0078125 0 "/>
</clipPath>
<clipPath id="clip2">
  <path d="M 6 19 L 30 19 L 30 43.910156 L 6 43.910156 Z M 6 19 "/>
</clipPath>
<clipPath id="clip3">
  <path d="M 0.0078125 21 L 13 21 L 13 23 L 0.0078125 23 Z M 0.0078125 21 "/>
</clipPath>
</defs>
<g id="surface1">
<g clip-path="url(#clip1)" clip-rule="nonzero">
<path style="fill:none;stroke-width:0.797;stroke-linecap:butt;stroke-linejoin:miter;stroke:rgb(0%,0%,0%);stroke-opacity:1;stroke-miterlimit:10;" d="M 8.00434 0.00173902 C 8.00434 8.128226 1.416152 14.716414 -6.71429 14.716414 C -14.840777 14.716414 -21.428965 8.128226 -21.428965 0.00173902 C -21.428965 -8.128702 -14.840777 -14.716891 -6.71429 -14.716891 C 1.416152 -14.716891 8.00434 -8.128702 8.00434 0.00173902 Z M 8.00434 0.00173902 " transform="matrix(0.9878,0,0,-0.9878,23.921438,21.954843)"/>
</g>
<path style="fill:none;stroke-width:0.3985;stroke-linecap:butt;stroke-linejoin:miter;stroke:rgb(0%,0%,0%);stroke-opacity:1;stroke-miterlimit:10;" d="M 0.000442397 22.028275 L 0.000442397 8.729309 L -11.906542 3.272106 " transform="matrix(0.9878,0,0,-0.9878,23.921438,21.954843)"/>
<path style="fill:none;stroke-width:0.797;stroke-linecap:butt;stroke-linejoin:miter;stroke:rgb(0%,0%,0%);stroke-opacity:1;stroke-miterlimit:10;" d="M -11.906542 8.729309 L -11.906542 -8.729786 " transform="matrix(0.9878,0,0,-0.9878,23.921438,21.954843)"/>
<g clip-path="url(#clip2)" clip-rule="nonzero">
<path style="fill:none;stroke-width:0.3985;stroke-linecap:butt;stroke-linejoin:miter;stroke:rgb(0%,0%,0%);stroke-opacity:1;stroke-miterlimit:10;" d="M -11.906542 -3.272583 L 0.000442397 -8.729786 L 0.000442397 -22.024797 " transform="matrix(0.9878,0,0,-0.9878,23.921438,21.954843)"/>
</g>
<path style=" stroke:none;fill-rule:nonzero;fill:rgb(0%,0%,0%);fill-opacity:1;" d="M 16.304688 27.085938 L 17.246094 25.035156 L 20.890625 29.191406 L 15.363281 29.140625 Z M 16.304688 27.085938 "/>
<g clip-path="url(#clip3)" clip-rule="nonzero">
<path style="fill:none;stroke-width:0.3985;stroke-linecap:butt;stroke-linejoin:miter;stroke:rgb(0%,0%,0%);stroke-opacity:1;stroke-miterlimit:10;" d="M -11.906542 0.00173902 L -24.01125 0.00173902 " transform="matrix(0.9878,0,0,-0.9878,23.921438,21.954843)"/>
</g>
</g>
</svg>
