<?xml version="1.0" encoding="UTF-8"?>
<svg xmlns="http://www.w3.org/2000/svg" xmlns:xlink="http://www.w3.org/1999/xlink" width="255.119pt" height="301.566pt" viewBox="0 0 255.119 301.566" version="1.2">
<defs>
<clipPath id="clip1">
  <path d="M 0 6 L 254 6 L 254 300.832031 L 0 300.832031 Z M 0 6 "/>
</clipPath>
<clipPath id="clip2">
  <path d="M 0 0.300781 L 243 0.300781 L 243 300.832031 L 0 300.832031 Z M 0 0.300781 "/>
</clipPath>
<clipPath id="clip3">
  <path d="M 0 0.300781 L 254.242188 0.300781 L 254.242188 257 L 0 257 Z M 0 0.300781 "/>
</clipPath>
<clipPath id="clip4">
  <path d="M 0 0.300781 L 254.242188 0.300781 L 254.242188 241 L 0 241 Z M 0 0.300781 "/>
</clipPath>
<clipPath id="clip5">
  <path d="M 3 0.300781 L 254.242188 0.300781 L 254.242188 257 L 3 257 Z M 3 0.300781 "/>
</clipPath>
<clipPath id="clip6">
  <path d="M 14 0.300781 L 254.242188 0.300781 L 254.242188 295 L 14 295 Z M 14 0.300781 "/>
</clipPath>
<clipPath id="clip7">
  <path d="M 3 0.300781 L 254.242188 0.300781 L 254.242188 300.832031 L 3 300.832031 Z M 3 0.300781 "/>
</clipPath>
<clipPath id="clip8">
  <path d="M 0 0.300781 L 254 0.300781 L 254 300.832031 L 0 300.832031 Z M 0 0.300781 "/>
</clipPath>
<clipPath id="clip9">
  <path d="M 0 0.300781 L 243 0.300781 L 243 295 L 0 295 Z M 0 0.300781 "/>
</clipPath>
<clipPath id="clip10">
  <path d="M 95 0.300781 L 108 0.300781 L 108 94 L 95 94 Z M 95 0.300781 "/>
</clipPath>
<clipPath id="clip11">
  <path d="M 0 0.300781 L 254.242188 0.300781 L 254.242188 241 L 0 241 Z M 0 0.300781 "/>
</clipPath>
<clipPath id="clip12">
  <path d="M 3 0.300781 L 254.242188 0.300781 L 254.242188 257 L 3 257 Z M 3 0.300781 "/>
</clipPath>
<clipPath id="clip13">
  <path d="M 14 0.300781 L 254.242188 0.300781 L 254.242188 300.832031 L 14 300.832031 Z M 14 0.300781 "/>
</clipPath>
<clipPath id="clip14">
  <path d="M 3 6 L 254.242188 6 L 254.242188 300.832031 L 3 300.832031 Z M 3 6 "/>
</clipPath>
</defs>
<g id="surface1">
<g clip-path="url(#clip1)" clip-rule="nonzero">
<path style="fill:none;stroke-width:11.95532;stroke-linecap:round;stroke-linejoin:miter;stroke:rgb(0%,0%,0%);stroke-opacity:1;stroke-miterlimit:10;" d="M 163.933814 109.290328 L 229.507135 229.504816 " transform="matrix(0.996559,0,0,-0.996559,-143.795433,403.78531)"/>
</g>
<g clip-path="url(#clip2)" clip-rule="nonzero">
<path style="fill:none;stroke-width:11.95532;stroke-linecap:round;stroke-linejoin:miter;stroke:rgb(0%,0%,0%);stroke-opacity:1;stroke-miterlimit:10;" d="M 150.273522 245.901086 L 218.578901 278.685787 " transform="matrix(0.996559,0,0,-0.996559,-143.795433,403.78531)"/>
</g>
<g clip-path="url(#clip3)" clip-rule="nonzero">
<path style="fill:none;stroke-width:11.95532;stroke-linecap:round;stroke-linejoin:miter;stroke:rgb(0%,0%,0%);stroke-opacity:1;stroke-miterlimit:10;" d="M 174.862048 349.723224 L 245.899485 316.938524 " transform="matrix(0.996559,0,0,-0.996559,-143.795433,403.78531)"/>
</g>
<g clip-path="url(#clip4)" clip-rule="nonzero">
<path style="fill:none;stroke-width:11.95532;stroke-linecap:round;stroke-linejoin:miter;stroke:rgb(0%,0%,0%);stroke-opacity:1;stroke-miterlimit:10;" d="M 245.899485 398.904195 L 278.684186 333.330874 " transform="matrix(0.996559,0,0,-0.996559,-143.795433,403.78531)"/>
</g>
<g clip-path="url(#clip5)" clip-rule="nonzero">
<path style="fill:none;stroke-width:11.95532;stroke-linecap:round;stroke-linejoin:miter;stroke:rgb(0%,0%,0%);stroke-opacity:1;stroke-miterlimit:10;" d="M 322.401039 387.975961 L 316.936923 316.938524 " transform="matrix(0.996559,0,0,-0.996559,-143.795433,403.78531)"/>
</g>
<g clip-path="url(#clip6)" clip-rule="nonzero">
<path style="fill:none;stroke-width:11.95532;stroke-linecap:round;stroke-linejoin:miter;stroke:rgb(0%,0%,0%);stroke-opacity:1;stroke-miterlimit:10;" d="M 382.510243 327.866757 L 327.865156 278.685787 " transform="matrix(0.996559,0,0,-0.996559,-143.795433,403.78531)"/>
</g>
<g clip-path="url(#clip7)" clip-rule="nonzero">
<path style="fill:none;stroke-width:11.95532;stroke-linecap:round;stroke-linejoin:miter;stroke:rgb(0%,0%,0%);stroke-opacity:1;stroke-miterlimit:10;" d="M 393.438477 245.901086 L 316.936923 229.504816 " transform="matrix(0.996559,0,0,-0.996559,-143.795433,403.78531)"/>
</g>
<path style="fill-rule:evenodd;fill:rgb(75%,75%,75%);fill-opacity:1;stroke-width:0.3985;stroke-linecap:butt;stroke-linejoin:miter;stroke:rgb(0%,0%,0%);stroke-opacity:1;stroke-miterlimit:10;" d="M 387.97436 273.22167 C 387.97436 336.599937 336.598335 387.975961 273.220069 387.975961 C 209.845722 387.975961 158.469697 336.599937 158.469697 273.22167 C 158.469697 209.843403 209.845722 158.467379 273.220069 158.467379 C 336.598335 158.467379 387.97436 209.843403 387.97436 273.22167 Z M 344.257506 273.22167 C 344.257506 312.454342 312.45666 344.259107 273.220069 344.259107 C 233.987397 344.259107 202.182631 312.454342 202.182631 273.22167 C 202.182631 233.988998 233.987397 202.184233 273.220069 202.184233 C 312.45666 202.184233 344.257506 233.988998 344.257506 273.22167 Z M 344.257506 273.22167 " transform="matrix(0.996559,0,0,-0.996559,-143.795433,403.78531)"/>
<g clip-path="url(#clip8)" clip-rule="nonzero">
<path style="fill:none;stroke-width:11.95532;stroke-linecap:round;stroke-linejoin:miter;stroke:rgb(0%,0%,0%);stroke-opacity:1;stroke-miterlimit:10;" d="M 229.507135 229.504816 L 150.273522 245.901086 " transform="matrix(0.996559,0,0,-0.996559,-143.795433,403.78531)"/>
</g>
<g clip-path="url(#clip9)" clip-rule="nonzero">
<path style="fill:none;stroke-width:11.95532;stroke-linecap:round;stroke-linejoin:miter;stroke:rgb(0%,0%,0%);stroke-opacity:1;stroke-miterlimit:10;" d="M 218.578901 278.685787 L 174.862048 349.723224 " transform="matrix(0.996559,0,0,-0.996559,-143.795433,403.78531)"/>
</g>
<g clip-path="url(#clip10)" clip-rule="nonzero">
<path style="fill:none;stroke-width:11.95532;stroke-linecap:round;stroke-linejoin:miter;stroke:rgb(0%,0%,0%);stroke-opacity:1;stroke-miterlimit:10;" d="M 245.899485 316.938524 L 245.899485 398.904195 " transform="matrix(0.996559,0,0,-0.996559,-143.795433,403.78531)"/>
</g>
<g clip-path="url(#clip11)" clip-rule="nonzero">
<path style="fill:none;stroke-width:11.95532;stroke-linecap:round;stroke-linejoin:miter;stroke:rgb(0%,0%,0%);stroke-opacity:1;stroke-miterlimit:10;" d="M 278.684186 333.330874 L 322.401039 387.975961 " transform="matrix(0.996559,0,0,-0.996559,-143.795433,403.78531)"/>
</g>
<g clip-path="url(#clip12)" clip-rule="nonzero">
<path style="fill:none;stroke-width:11.95532;stroke-linecap:round;stroke-linejoin:miter;stroke:rgb(0%,0%,0%);stroke-opacity:1;stroke-miterlimit:10;" d="M 316.936923 316.938524 L 382.510243 327.866757 " transform="matrix(0.996559,0,0,-0.996559,-143.795433,403.78531)"/>
</g>
<g clip-path="url(#clip13)" clip-rule="nonzero">
<path style="fill:none;stroke-width:11.95532;stroke-linecap:round;stroke-linejoin:miter;stroke:rgb(0%,0%,0%);stroke-opacity:1;stroke-miterlimit:10;" d="M 327.865156 278.685787 L 393.438477 245.901086 " transform="matrix(0.996559,0,0,-0.996559,-143.795433,403.78531)"/>
</g>
<g clip-path="url(#clip14)" clip-rule="nonzero">
<path style="fill:none;stroke-width:11.95532;stroke-linecap:round;stroke-linejoin:miter;stroke:rgb(0%,0%,0%);stroke-opacity:1;stroke-miterlimit:10;" d="M 316.936923 229.504816 L 382.510243 109.290328 " transform="matrix(0.996559,0,0,-0.996559,-143.795433,403.78531)"/>
</g>
</g>
</svg>
