<?xml version="1.0" encoding="UTF-8"?>
<svg xmlns="http://www.w3.org/2000/svg" xmlns:xlink="http://www.w3.org/1999/xlink" width="42.761pt" height="44.451pt" viewBox="0 0 42.761 44.451">
<defs>
<clipPath id="clip-0">
<path clip-rule="nonzero" d="M 0.144531 0 L 42.382812 0 L 42.382812 43.910156 L 0.144531 43.910156 Z M 0.144531 0 "/>
</clipPath>
<clipPath id="clip-1">
<path clip-rule="nonzero" d="M 22 0 L 37 0 L 37 43.910156 L 22 43.910156 Z M 22 0 "/>
</clipPath>
<clipPath id="clip-2">
<path clip-rule="nonzero" d="M 0.144531 29 L 9 29 L 9 30 L 0.144531 30 Z M 0.144531 29 "/>
</clipPath>
</defs>
<g clip-path="url(#clip-0)">
<path fill="none" stroke-width="0.797" stroke-linecap="butt" stroke-linejoin="miter" stroke="rgb(0%, 0%, 0%)" stroke-opacity="1" stroke-miterlimit="10" d="M 5.879301 0.00173902 C 5.879301 9.678388 -1.966416 17.524106 -11.643065 17.524106 C -21.323669 17.524106 -29.169386 9.678388 -29.169386 0.00173902 C -29.169386 -9.678864 -21.323669 -17.524582 -11.643065 -17.524582 C -1.966416 -17.524582 5.879301 -9.678864 5.879301 0.00173902 Z M 5.879301 0.00173902 " transform="matrix(0.9878, 0, 0, -0.9878, 36.180707, 21.954843)"/>
</g>
<g clip-path="url(#clip-1)">
<path fill="none" stroke-width="0.3985" stroke-linecap="butt" stroke-linejoin="miter" stroke="rgb(0%, 0%, 0%)" stroke-opacity="1" stroke-miterlimit="10" d="M -0.0010325 22.028275 L -0.0010325 7.637869 L -13.889218 7.637869 M -13.889218 -7.638345 L -0.0010325 -7.638345 L -0.0010325 -22.024797 " transform="matrix(0.9878, 0, 0, -0.9878, 36.180707, 21.954843)"/>
</g>
<path fill="none" stroke-width="0.797" stroke-linecap="butt" stroke-linejoin="miter" stroke="rgb(0%, 0%, 0%)" stroke-opacity="1" stroke-miterlimit="10" d="M -13.889218 10.91219 L -13.889218 -10.912667 " transform="matrix(0.9878, 0, 0, -0.9878, 36.180707, 21.954843)"/>
<path fill="none" stroke-width="0.3985" stroke-linecap="butt" stroke-linejoin="miter" stroke="rgb(0%, 0%, 0%)" stroke-opacity="1" stroke-miterlimit="10" d="M -27.781359 -7.638345 L -13.889218 -7.638345 M -27.781359 -7.638345 L -27.781359 -7.638345 " transform="matrix(0.9878, 0, 0, -0.9878, 36.180707, 21.954843)"/>
<path fill-rule="nonzero" fill="rgb(0%, 0%, 0%)" fill-opacity="1" d="M 15.058594 29.5 L 15.058594 27.242188 L 20.109375 29.5 L 15.058594 31.761719 Z M 15.058594 29.5 "/>
<g clip-path="url(#clip-2)">
<path fill="none" stroke-width="0.3985" stroke-linecap="butt" stroke-linejoin="miter" stroke="rgb(0%, 0%, 0%)" stroke-opacity="1" stroke-miterlimit="10" d="M -27.781359 -7.638345 L -36.283523 -7.638345 " transform="matrix(0.9878, 0, 0, -0.9878, 36.180707, 21.954843)"/>
</g>
</svg>
