<?xml version="1.0" encoding="UTF-8"?>
<svg xmlns="http://www.w3.org/2000/svg" xmlns:xlink="http://www.w3.org/1999/xlink" width="246.446pt" height="117.789pt" viewBox="0 0 246.446 117.789" version="1.2">
<defs>
<clipPath id="clip1">
  <path d="M 79 0.0273438 L 118 0.0273438 L 118 32 L 79 32 Z M 79 0.0273438 "/>
</clipPath>
<clipPath id="clip2">
  <path d="M 106 0.0273438 L 108 0.0273438 L 108 21 L 106 21 Z M 106 0.0273438 "/>
</clipPath>
<clipPath id="clip3">
  <path d="M 242 57 L 245.894531 57 L 245.894531 61 L 242 61 Z M 242 57 "/>
</clipPath>
<clipPath id="clip4">
  <path d="M 236 51 L 245.894531 51 L 245.894531 66 L 236 66 Z M 236 51 "/>
</clipPath>
<clipPath id="clip5">
  <path d="M 79 86 L 118 86 L 118 117.550781 L 79 117.550781 Z M 79 86 "/>
</clipPath>
<clipPath id="clip6">
  <path d="M 106 96 L 108 96 L 108 117.550781 L 106 117.550781 Z M 106 96 "/>
</clipPath>
</defs>
<g id="surface1">
<path style="fill:none;stroke-width:0.3985;stroke-linecap:butt;stroke-linejoin:miter;stroke:rgb(0%,0%,0%);stroke-opacity:1;stroke-miterlimit:10;" d="M -0.000745827 -0.000534848 L 89.214982 -0.000534848 M 105.086518 -0.000534848 L 194.302247 -0.000534848 L 194.302247 -48.574325 L 242.876037 -48.574325 " transform="matrix(0.997757,0,0,-0.997757,1.781994,10.323685)"/>
<path style="fill-rule:nonzero;fill:rgb(100%,100%,100%);fill-opacity:1;stroke-width:0.3985;stroke-linecap:butt;stroke-linejoin:miter;stroke:rgb(0%,0%,0%);stroke-opacity:1;stroke-miterlimit:10;" d="M 1.588757 -0.000534848 C 1.588757 0.876432 0.876221 1.588968 -0.000745827 1.588968 C -0.877713 1.588968 -1.586333 0.876432 -1.586333 -0.000534848 C -1.586333 -0.877502 -0.877713 -1.586122 -0.000745827 -1.586122 C 0.876221 -1.586122 1.588757 -0.877502 1.588757 -0.000534848 Z M 1.588757 -0.000534848 " transform="matrix(0.997757,0,0,-0.997757,1.781994,10.323685)"/>
<g clip-path="url(#clip1)" clip-rule="nonzero">
<path style="fill:none;stroke-width:0.797;stroke-linecap:butt;stroke-linejoin:miter;stroke:rgb(0%,0%,0%);stroke-opacity:1;stroke-miterlimit:10;" d="M 105.086518 -0.000534848 L 89.214982 9.920154 L 89.214982 -9.921224 Z M 105.086518 -0.000534848 " transform="matrix(0.997757,0,0,-0.997757,1.781994,10.323685)"/>
</g>
<path style="fill:none;stroke-width:0.3985;stroke-linecap:butt;stroke-linejoin:miter;stroke:rgb(0%,0%,0%);stroke-opacity:1;stroke-miterlimit:10;" d="M 105.086518 -0.000534848 L 89.214982 -0.000534848 " transform="matrix(0.997757,0,0,-0.997757,1.781994,10.323685)"/>
<g clip-path="url(#clip2)" clip-rule="nonzero">
<path style="fill:none;stroke-width:0.797;stroke-linecap:butt;stroke-linejoin:miter;stroke:rgb(0%,0%,0%);stroke-opacity:1;stroke-miterlimit:10;" d="M 105.086518 -9.921224 L 105.086518 9.920154 " transform="matrix(0.997757,0,0,-0.997757,1.781994,10.323685)"/>
</g>
<g clip-path="url(#clip3)" clip-rule="nonzero">
<path style=" stroke:none;fill-rule:nonzero;fill:rgb(100%,100%,100%);fill-opacity:1;" d="M 245.699219 58.789062 C 245.699219 57.914062 244.988281 57.207031 244.113281 57.207031 C 243.238281 57.207031 242.53125 57.914062 242.53125 58.789062 C 242.53125 59.664062 243.238281 60.375 244.113281 60.375 C 244.988281 60.375 245.699219 59.664062 245.699219 58.789062 Z M 245.699219 58.789062 "/>
</g>
<g clip-path="url(#clip4)" clip-rule="nonzero">
<path style="fill:none;stroke-width:0.3985;stroke-linecap:butt;stroke-linejoin:miter;stroke:rgb(0%,0%,0%);stroke-opacity:1;stroke-miterlimit:10;" d="M 244.46554 -48.574325 C 244.46554 -47.697359 243.753004 -46.988738 242.876037 -46.988738 C 241.99907 -46.988738 241.29045 -47.697359 241.29045 -48.574325 C 241.29045 -49.451292 241.99907 -50.163828 242.876037 -50.163828 C 243.753004 -50.163828 244.46554 -49.451292 244.46554 -48.574325 Z M 244.46554 -48.574325 " transform="matrix(0.997757,0,0,-0.997757,1.781994,10.323685)"/>
</g>
<path style="fill:none;stroke-width:0.3985;stroke-linecap:butt;stroke-linejoin:miter;stroke:rgb(0%,0%,0%);stroke-opacity:1;stroke-miterlimit:10;" d="M 194.302247 -48.574325 L 194.302247 -97.152031 L 105.086518 -97.152031 M 89.214982 -97.152031 L -0.000745827 -97.152031 " transform="matrix(0.997757,0,0,-0.997757,1.781994,10.323685)"/>
<g clip-path="url(#clip5)" clip-rule="nonzero">
<path style="fill:none;stroke-width:0.797;stroke-linecap:butt;stroke-linejoin:miter;stroke:rgb(0%,0%,0%);stroke-opacity:1;stroke-miterlimit:10;" d="M 105.086518 -97.152031 L 89.214982 -107.07272 L 89.214982 -87.227427 Z M 105.086518 -97.152031 " transform="matrix(0.997757,0,0,-0.997757,1.781994,10.323685)"/>
</g>
<path style="fill:none;stroke-width:0.3985;stroke-linecap:butt;stroke-linejoin:miter;stroke:rgb(0%,0%,0%);stroke-opacity:1;stroke-miterlimit:10;" d="M 105.086518 -97.152031 L 89.214982 -97.152031 " transform="matrix(0.997757,0,0,-0.997757,1.781994,10.323685)"/>
<g clip-path="url(#clip6)" clip-rule="nonzero">
<path style="fill:none;stroke-width:0.797;stroke-linecap:butt;stroke-linejoin:miter;stroke:rgb(0%,0%,0%);stroke-opacity:1;stroke-miterlimit:10;" d="M 105.086518 -87.227427 L 105.086518 -107.07272 " transform="matrix(0.997757,0,0,-0.997757,1.781994,10.323685)"/>
</g>
<path style="fill-rule:nonzero;fill:rgb(100%,100%,100%);fill-opacity:1;stroke-width:0.3985;stroke-linecap:butt;stroke-linejoin:miter;stroke:rgb(0%,0%,0%);stroke-opacity:1;stroke-miterlimit:10;" d="M 1.588757 -97.152031 C 1.588757 -96.275064 0.876221 -95.562529 -0.000745827 -95.562529 C -0.877713 -95.562529 -1.586333 -96.275064 -1.586333 -97.152031 C -1.586333 -98.028998 -0.877713 -98.737619 -0.000745827 -98.737619 C 0.876221 -98.737619 1.588757 -98.028998 1.588757 -97.152031 Z M 1.588757 -97.152031 " transform="matrix(0.997757,0,0,-0.997757,1.781994,10.323685)"/>
<path style="fill-rule:nonzero;fill:rgb(0%,0%,0%);fill-opacity:1;stroke-width:0.3985;stroke-linecap:butt;stroke-linejoin:miter;stroke:rgb(0%,0%,0%);stroke-opacity:1;stroke-miterlimit:10;" d="M 195.887834 -48.574325 C 195.887834 -47.697359 195.179214 -46.988738 194.302247 -46.988738 C 193.42528 -46.988738 192.712744 -47.697359 192.712744 -48.574325 C 192.712744 -49.451292 193.42528 -50.163828 194.302247 -50.163828 C 195.179214 -50.163828 195.887834 -49.451292 195.887834 -48.574325 Z M 195.887834 -48.574325 " transform="matrix(0.997757,0,0,-0.997757,1.781994,10.323685)"/>
</g>
</svg>
