<?xml version="1.0" encoding="UTF-8"?>
<svg xmlns="http://www.w3.org/2000/svg" xmlns:xlink="http://www.w3.org/1999/xlink" width="252.137pt" height="151.435pt" viewBox="0 0 252.137 151.435" version="1.2">
<defs>
<clipPath id="clip1">
  <path d="M 203 0 L 251.238281 0 L 251.238281 62 L 203 62 Z M 203 0 "/>
</clipPath>
<clipPath id="clip2">
  <path d="M 0.0390625 0 L 67 0 L 67 62 L 0.0390625 62 Z M 0.0390625 0 "/>
</clipPath>
<clipPath id="clip3">
  <path d="M 0.0390625 147 L 4 147 L 4 150.871094 L 0.0390625 150.871094 Z M 0.0390625 147 "/>
</clipPath>
<clipPath id="clip4">
  <path d="M 0.0390625 136 L 15 136 L 15 150.871094 L 0.0390625 150.871094 Z M 0.0390625 136 "/>
</clipPath>
<clipPath id="clip5">
  <path d="M 247 147 L 251 147 L 251 150.871094 L 247 150.871094 Z M 247 147 "/>
</clipPath>
<clipPath id="clip6">
  <path d="M 236 136 L 251.238281 136 L 251.238281 150.871094 L 236 150.871094 Z M 236 136 "/>
</clipPath>
</defs>
<g id="surface1">
<path style="fill:none;stroke-width:0.79701;stroke-linecap:butt;stroke-linejoin:miter;stroke:rgb(0%,0%,0%);stroke-opacity:1;stroke-dasharray:2.98883,5.97766;stroke-miterlimit:10;" d="M 19.021548 40.153532 C 19.021548 40.153532 21.150556 37.675571 21.926879 36.632632 C 22.699281 35.593613 23.891212 33.81748 24.59696 32.656916 C 25.302708 31.496352 26.380935 29.53594 27.008267 28.269514 C 27.639519 26.999167 28.59228 24.881922 29.141195 23.521396 C 29.690111 22.164791 30.505642 19.914238 30.968299 18.483137 C 31.430956 17.052036 32.105338 14.699542 32.477816 13.213549 C 32.854216 11.727557 33.379606 9.296646 33.661905 7.775366 C 33.940284 6.250166 34.312762 3.776126 34.500962 2.239163 C 34.68524 0.698279 34.908727 -1.787524 34.998906 -3.324487 C 35.089085 -4.86145 35.15966 -7.327648 35.155739 -8.845007 C 35.151819 -10.362366 35.069481 -12.781514 34.971461 -14.259665 C 34.877361 -15.733895 34.646032 -18.070706 34.461753 -19.490045 C 34.277475 -20.909383 33.904996 -23.136411 33.63446 -24.477333 C 33.363923 -25.818255 32.513104 -29.158797 32.513104 -29.158797 " transform="matrix(0.996283,0,0,-0.996283,36.631188,49.996465)"/>
<path style="fill:none;stroke-width:0.79701;stroke-linecap:butt;stroke-linejoin:miter;stroke:rgb(0%,0%,0%);stroke-opacity:1;stroke-dasharray:2.98883,5.97766;stroke-miterlimit:10;" d="M 48.804128 40.153532 C 48.804128 40.153532 50.933136 37.675571 51.705538 36.632632 C 52.47794 35.593613 53.673792 33.81748 54.37954 32.656916 C 55.081367 31.496352 56.159594 29.53594 56.790847 28.269514 C 57.422099 26.999167 58.370939 24.881922 58.919854 23.521396 C 59.46877 22.164791 60.288222 19.914238 60.750879 18.483137 C 61.213536 17.052036 61.887918 14.699542 62.260396 13.213549 C 62.632875 11.727557 63.162186 9.296646 63.440564 7.775366 C 63.722864 6.250166 64.095342 3.776126 64.279621 2.239163 C 64.46782 0.698279 64.687387 -1.787524 64.777566 -3.324487 C 64.871665 -4.86145 64.938319 -7.327648 64.934398 -8.845007 C 64.930478 -10.362366 64.84814 -12.781514 64.754041 -14.259665 C 64.65602 -15.733895 64.428612 -18.070706 64.244333 -19.490045 C 64.056134 -20.909383 63.687576 -23.136411 63.41704 -24.477333 C 63.146503 -25.818255 62.291763 -29.158797 62.291763 -29.158797 " transform="matrix(0.996283,0,0,-0.996283,36.631188,49.996465)"/>
<path style="fill:none;stroke-width:0.79701;stroke-linecap:butt;stroke-linejoin:miter;stroke:rgb(0%,0%,0%);stroke-opacity:1;stroke-dasharray:2.98883,5.97766;stroke-miterlimit:10;" d="M 78.582787 40.153532 C 78.582787 40.153532 80.711795 37.675571 81.488118 36.632632 C 82.26052 35.593613 83.452451 33.81748 84.158199 32.656916 C 84.863947 31.496352 85.938253 29.53594 86.569506 28.269514 C 87.200759 26.999167 88.153519 24.881922 88.702434 23.521396 C 89.25135 22.164791 90.066881 19.914238 90.529538 18.483137 C 90.992196 17.052036 91.666577 14.699542 92.039056 13.213549 C 92.415455 11.727557 92.940845 9.296646 93.223144 7.775366 C 93.501523 6.250166 93.874001 3.776126 94.062201 2.239163 C 94.24648 0.698279 94.469967 -1.787524 94.560146 -3.324487 C 94.650324 -4.86145 94.720899 -7.327648 94.716978 -8.845007 C 94.713058 -10.362366 94.63072 -12.781514 94.5327 -14.259665 C 94.4386 -15.733895 94.207271 -18.070706 94.022993 -19.490045 C 93.838714 -20.909383 93.466236 -23.136411 93.195699 -24.477333 C 92.925162 -25.818255 92.074343 -29.158797 92.074343 -29.158797 " transform="matrix(0.996283,0,0,-0.996283,36.631188,49.996465)"/>
<path style="fill:none;stroke-width:0.79701;stroke-linecap:butt;stroke-linejoin:miter;stroke:rgb(0%,0%,0%);stroke-opacity:1;stroke-dasharray:2.98883,5.97766;stroke-miterlimit:10;" d="M 108.365367 40.153532 C 108.365367 40.153532 110.494375 37.675571 111.266777 36.632632 C 112.039179 35.593613 113.235031 33.81748 113.940779 32.656916 C 114.642607 31.496352 115.720833 29.53594 116.352086 28.269514 C 116.983339 26.999167 117.932178 24.881922 118.481093 23.521396 C 119.030009 22.164791 119.849461 19.914238 120.312118 18.483137 C 120.774776 17.052036 121.449157 14.699542 121.821636 13.213549 C 122.194114 11.727557 122.723425 9.296646 123.001804 7.775366 C 123.284103 6.250166 123.656581 3.776126 123.84086 2.239163 C 124.02906 0.698279 124.248626 -1.787524 124.338805 -3.324487 C 124.432904 -4.86145 124.499558 -7.327648 124.495638 -8.845007 C 124.491717 -10.362366 124.40938 -12.781514 124.31528 -14.259665 C 124.217259 -15.733895 123.989851 -18.070706 123.805573 -19.490045 C 123.617373 -20.909383 123.248816 -23.136411 122.978279 -24.477333 C 122.707742 -25.818255 121.853002 -29.158797 121.853002 -29.158797 " transform="matrix(0.996283,0,0,-0.996283,36.631188,49.996465)"/>
<path style="fill:none;stroke-width:0.79701;stroke-linecap:butt;stroke-linejoin:miter;stroke:rgb(0%,0%,0%);stroke-opacity:1;stroke-dasharray:2.98883,5.97766;stroke-miterlimit:10;" d="M 138.144026 40.153532 C 138.144026 40.153532 140.273034 37.675571 141.049357 36.632632 C 141.821759 35.593613 143.01369 33.81748 143.719438 32.656916 C 144.425187 31.496352 145.499492 29.53594 146.130745 28.269514 C 146.761998 26.999167 147.714758 24.881922 148.263673 23.521396 C 148.812589 22.164791 149.62812 19.914238 150.090777 18.483137 C 150.553435 17.052036 151.227816 14.699542 151.600295 13.213549 C 151.976694 11.727557 152.502084 9.296646 152.784384 7.775366 C 153.062762 6.250166 153.43524 3.776126 153.62344 2.239163 C 153.807719 0.698279 154.031206 -1.787524 154.121385 -3.324487 C 154.211564 -4.86145 154.282138 -7.327648 154.278218 -8.845007 C 154.274297 -10.362366 154.191959 -12.781514 154.093939 -14.259665 C 153.999839 -15.733895 153.76851 -18.070706 153.584232 -19.490045 C 153.399953 -20.909383 153.027475 -23.136411 152.756938 -24.477333 C 152.486401 -25.818255 151.635582 -29.158797 151.635582 -29.158797 " transform="matrix(0.996283,0,0,-0.996283,36.631188,49.996465)"/>
<path style="fill:none;stroke-width:0.79701;stroke-linecap:butt;stroke-linejoin:miter;stroke:rgb(0%,0%,0%);stroke-opacity:1;stroke-dasharray:2.98883,5.97766;stroke-miterlimit:10;" d="M 167.926606 40.153532 C 167.926606 40.153532 170.055614 37.675571 170.828016 36.632632 C 171.600419 35.593613 172.79627 33.81748 173.498097 32.656916 C 174.203846 31.496352 175.282072 29.53594 175.913325 28.269514 C 176.540657 26.999167 177.493417 24.881922 178.042333 23.521396 C 178.591248 22.164791 179.4107 19.914238 179.873357 18.483137 C 180.336015 17.052036 181.010396 14.699542 181.382875 13.213549 C 181.755353 11.727557 182.284664 9.296646 182.563043 7.775366 C 182.845342 6.250166 183.21782 3.776126 183.402099 2.239163 C 183.590299 0.698279 183.809865 -1.787524 183.900044 -3.324487 C 183.994144 -4.86145 184.060798 -7.327648 184.056877 -8.845007 C 184.052956 -10.362366 183.970619 -12.781514 183.876519 -14.259665 C 183.778498 -15.733895 183.55109 -18.070706 183.366812 -19.490045 C 183.178612 -20.909383 182.810055 -23.136411 182.539518 -24.477333 C 182.268981 -25.818255 181.414241 -29.158797 181.414241 -29.158797 " transform="matrix(0.996283,0,0,-0.996283,36.631188,49.996465)"/>
<path style="fill:none;stroke-width:0.79701;stroke-linecap:butt;stroke-linejoin:miter;stroke:rgb(0%,0%,0%);stroke-opacity:1;stroke-miterlimit:10;" d="M 32.509183 -29.170559 C 32.509183 -29.170559 29.176483 -38.204138 27.565024 -40.795803 C 25.949644 -43.387468 22.844352 -46.629989 20.876098 -47.841524 C 18.907844 -49.053058 15.430073 -49.825461 13.375561 -49.519636 C 11.32497 -49.213812 7.937378 -47.429837 6.078908 -45.641941 C 4.220437 -43.854046 1.389602 -39.709735 -0.014053 -36.639729 C -1.417708 -33.573645 -3.295783 -27.531655 -4.040739 -23.528493 C -4.785696 -19.525332 -5.420869 -12.267887 -5.369899 -7.774622 C -5.318928 -3.285278 -4.562209 4.372091 -3.676103 8.845751 C -2.786076 13.323332 -0.641385 20.521966 1.032807 24.478077 C 2.71092 28.434189 6.082829 34.370316 8.407877 37.365826 C 10.732926 40.357415 15.03407 44.364497 17.798251 46.058293 C 20.562432 47.752089 25.388966 49.37531 28.329585 49.579193 C 31.270203 49.786997 36.15947 48.845999 38.998147 47.540365 C 41.836824 46.23473 48.788445 40.169215 48.788445 40.169215 " transform="matrix(0.996283,0,0,-0.996283,36.631188,49.996465)"/>
<path style="fill:none;stroke-width:0.79701;stroke-linecap:butt;stroke-linejoin:miter;stroke:rgb(0%,0%,0%);stroke-opacity:1;stroke-miterlimit:10;" d="M 62.287842 -29.170559 C 62.287842 -29.170559 58.959063 -38.204138 57.343683 -40.795803 C 55.732224 -43.387468 52.626932 -46.629989 50.658678 -47.841524 C 48.690424 -49.053058 45.208732 -49.825461 43.158141 -49.519636 C 41.10363 -49.213812 37.716037 -47.429837 35.861488 -45.641941 C 34.003017 -43.854046 31.172182 -39.709735 29.768527 -36.639729 C 28.364872 -33.573645 26.482876 -27.531655 25.741841 -23.528493 C 24.996884 -19.525332 24.35779 -12.267887 24.40876 -7.774622 C 24.459731 -3.285278 25.21645 4.372091 26.106477 8.845751 C 26.992584 13.323332 29.137274 20.521966 30.815387 24.478077 C 32.489579 28.434189 35.861488 34.370316 38.186536 37.365826 C 40.515506 40.357415 44.812729 44.364497 47.57691 46.058293 C 50.341091 47.752089 55.167626 49.37531 58.112165 49.579193 C 61.052783 49.786997 65.938129 48.845999 68.780727 47.540365 C 71.619404 46.23473 78.571025 40.169215 78.571025 40.169215 " transform="matrix(0.996283,0,0,-0.996283,36.631188,49.996465)"/>
<path style="fill:none;stroke-width:0.79701;stroke-linecap:butt;stroke-linejoin:miter;stroke:rgb(0%,0%,0%);stroke-opacity:1;stroke-miterlimit:10;" d="M 92.070422 -29.170559 C 92.070422 -29.170559 88.737722 -38.204138 87.126263 -40.795803 C 85.510883 -43.387468 82.405591 -46.629989 80.437337 -47.841524 C 78.469083 -49.053058 74.991312 -49.825461 72.936801 -49.519636 C 70.886209 -49.213812 67.498617 -47.429837 65.640147 -45.641941 C 63.781676 -43.854046 60.950841 -39.709735 59.547186 -36.639729 C 58.143531 -33.573645 56.265456 -27.531655 55.5205 -23.528493 C 54.775543 -19.525332 54.14037 -12.267887 54.19134 -7.774622 C 54.242311 -3.285278 54.995109 4.372091 55.885136 8.845751 C 56.775164 13.323332 58.919854 20.521966 60.594046 24.478077 C 62.272159 28.434189 65.644068 34.370316 67.969116 37.365826 C 70.294165 40.357415 74.595309 44.364497 77.35949 46.058293 C 80.123671 47.752089 84.950206 49.37531 87.890824 49.579193 C 90.831442 49.786997 95.720709 48.845999 98.559386 47.540365 C 101.398063 46.23473 108.349684 40.169215 108.349684 40.169215 " transform="matrix(0.996283,0,0,-0.996283,36.631188,49.996465)"/>
<path style="fill:none;stroke-width:0.79701;stroke-linecap:butt;stroke-linejoin:miter;stroke:rgb(0%,0%,0%);stroke-opacity:1;stroke-miterlimit:10;" d="M 121.849081 -29.170559 C 121.849081 -29.170559 118.520302 -38.204138 116.904922 -40.795803 C 115.293463 -43.387468 112.188171 -46.629989 110.219917 -47.841524 C 108.251663 -49.053058 104.769972 -49.825461 102.71938 -49.519636 C 100.664869 -49.213812 97.277277 -47.429837 95.422727 -45.641941 C 93.564256 -43.854046 90.733421 -39.709735 89.329766 -36.639729 C 87.926111 -33.573645 86.044116 -27.531655 85.30308 -23.528493 C 84.558123 -19.525332 83.919029 -12.267887 83.97 -7.774622 C 84.02097 -3.285278 84.777689 4.372091 85.667716 8.845751 C 86.553823 13.323332 88.698513 20.521966 90.376626 24.478077 C 92.050818 28.434189 95.422727 34.370316 97.747776 37.365826 C 100.076745 40.357415 104.373968 44.364497 107.138149 46.058293 C 109.90233 47.752089 114.728865 49.37531 117.673404 49.579193 C 120.614022 49.786997 125.499369 48.845999 128.338045 47.540365 C 131.176722 46.23473 138.132264 40.169215 138.132264 40.169215 " transform="matrix(0.996283,0,0,-0.996283,36.631188,49.996465)"/>
<path style="fill:none;stroke-width:0.79701;stroke-linecap:butt;stroke-linejoin:miter;stroke:rgb(0%,0%,0%);stroke-opacity:1;stroke-miterlimit:10;" d="M 151.631661 -29.170559 C 151.631661 -29.170559 148.298961 -38.204138 146.687502 -40.795803 C 145.072123 -43.387468 141.96683 -46.629989 139.998576 -47.841524 C 138.030322 -49.053058 134.552551 -49.825461 132.49804 -49.519636 C 130.443528 -49.213812 127.059857 -47.429837 125.201386 -45.641941 C 123.342915 -43.854046 120.51208 -39.709735 119.108425 -36.639729 C 117.70477 -33.573645 115.826696 -27.531655 115.081739 -23.528493 C 114.336782 -19.525332 113.701609 -12.267887 113.75258 -7.774622 C 113.80355 -3.285278 114.556348 4.372091 115.446376 8.845751 C 116.336403 13.323332 118.481093 20.521966 120.155285 24.478077 C 121.833398 28.434189 125.205307 34.370316 127.530355 37.365826 C 129.855404 40.357415 134.156548 44.364497 136.920729 46.058293 C 139.68491 47.752089 144.511445 49.37531 147.452063 49.579193 C 150.392681 49.786997 155.281949 48.845999 158.120625 47.540365 C 160.959302 46.23473 167.910923 40.169215 167.910923 40.169215 " transform="matrix(0.996283,0,0,-0.996283,36.631188,49.996465)"/>
<path style="fill:none;stroke-width:0.79701;stroke-linecap:butt;stroke-linejoin:miter;stroke:rgb(0%,0%,0%);stroke-opacity:1;stroke-miterlimit:10;" d="M 181.410321 -29.170559 C 181.410321 -29.170559 178.081541 -38.204138 176.466161 -40.795803 C 174.854703 -43.387468 171.74941 -46.629989 169.781156 -47.841524 C 167.812902 -49.053058 164.331211 -49.825461 162.28062 -49.519636 C 160.226108 -49.213812 156.838516 -47.429837 154.980045 -45.641941 C 153.125495 -43.854046 150.29466 -39.709735 148.891005 -36.639729 C 147.48735 -33.573645 145.605355 -27.531655 144.860398 -23.528493 C 144.119362 -19.525332 143.480268 -12.267887 143.531239 -7.774622 C 143.582209 -3.285278 144.338928 4.372091 145.228956 8.845751 C 146.115062 13.323332 148.259753 20.521966 149.937865 24.478077 C 151.612057 28.434189 154.983966 34.370316 157.309015 37.365826 C 159.637984 40.357415 163.935207 44.364497 166.699388 46.058293 C 169.463569 47.752089 174.290104 49.37531 177.234643 49.579193 C 180.175261 49.786997 185.060608 48.845999 187.899284 47.540365 C 190.737961 46.23473 197.693503 40.169215 197.693503 40.169215 " transform="matrix(0.996283,0,0,-0.996283,36.631188,49.996465)"/>
<g clip-path="url(#clip1)" clip-rule="nonzero">
<path style="fill:none;stroke-width:0.79701;stroke-linecap:butt;stroke-linejoin:miter;stroke:rgb(0%,0%,0%);stroke-opacity:1;stroke-miterlimit:10;" d="M 178.681427 49.634085 C 178.681427 49.634085 181.280933 49.492935 182.268981 49.320419 C 183.260949 49.147902 184.844962 48.732295 185.817327 48.387263 C 186.793612 48.046151 188.342338 47.356086 189.291177 46.846379 C 190.240016 46.340592 191.737771 45.387832 192.651323 44.717371 C 193.560954 44.050831 194.995976 42.847138 195.862478 42.027686 C 196.725059 41.208234 198.077744 39.769291 198.889354 38.808689 C 199.700965 37.848087 200.955629 36.1935 201.704506 35.10351 C 202.449463 34.013521 203.598264 32.158972 204.272646 30.951358 C 204.950948 29.747665 205.978204 27.720599 206.578091 26.418885 C 207.177977 25.113251 208.075845 22.933272 208.589473 21.545301 C 209.107022 20.157329 209.867662 17.859726 210.295032 16.4051 C 210.722402 14.950474 211.337971 12.562693 211.675162 11.061017 C 212.008432 9.555421 212.47501 7.104905 212.718101 5.571863 C 212.961192 4.042742 213.423849 0.0199763 213.423849 0.0199763 " transform="matrix(0.996283,0,0,-0.996283,36.631188,49.996465)"/>
</g>
<g clip-path="url(#clip2)" clip-rule="nonzero">
<path style="fill:none;stroke-width:0.79701;stroke-linecap:butt;stroke-linejoin:miter;stroke:rgb(0%,0%,0%);stroke-opacity:1;stroke-miterlimit:10;" d="M -34.740792 0.00037214 C -34.740792 0.00037214 -34.054648 5.634596 -33.662566 7.763604 C -33.270483 9.888691 -32.490239 13.284124 -31.917799 15.334715 C -31.345359 17.381385 -30.278894 20.608224 -29.533938 22.529428 C -28.788981 24.446711 -27.455901 27.422616 -26.554111 29.167383 C -25.652322 30.908229 -24.07223 33.566547 -23.029291 35.087827 C -21.986351 36.613028 -20.194535 38.879264 -19.03005 40.14569 C -17.861644 41.412116 -15.893391 43.23922 -14.630885 44.215506 C -13.372301 45.195712 -11.266818 46.532713 -9.933738 47.199253 C -8.600658 47.865793 -6.401075 48.681324 -5.024866 49.018515 C -3.648657 49.355706 -1.402025 49.634085 -0.0101322 49.634085 C 1.37784 49.634085 3.624472 49.363548 5.000681 49.026357 C 6.37689 48.689166 8.576473 47.877555 9.909553 47.211015 C 11.242633 46.544475 13.348116 45.211395 14.610621 44.23511 C 15.873126 43.258825 19.009786 40.169215 19.009786 40.169215 " transform="matrix(0.996283,0,0,-0.996283,36.631188,49.996465)"/>
</g>
<path style="fill:none;stroke-width:0.79701;stroke-linecap:butt;stroke-linejoin:miter;stroke:rgb(0%,0%,0%);stroke-opacity:1;stroke-miterlimit:10;" d="M -34.744713 0.00037214 L -34.744713 -49.63334 M -34.744713 -49.63334 L -34.744713 -99.267053 " transform="matrix(0.996283,0,0,-0.996283,36.631188,49.996465)"/>
<g clip-path="url(#clip3)" clip-rule="nonzero">
<path style=" stroke:none;fill-rule:nonzero;fill:rgb(100%,100%,100%);fill-opacity:1;" d="M 3.597656 148.894531 C 3.597656 148.023438 2.890625 147.3125 2.015625 147.3125 C 1.144531 147.3125 0.4375 148.023438 0.4375 148.894531 C 0.4375 149.769531 1.144531 150.476562 2.015625 150.476562 C 2.890625 150.476562 3.597656 149.769531 3.597656 148.894531 Z M 3.597656 148.894531 "/>
</g>
<g clip-path="url(#clip4)" clip-rule="nonzero">
<path style="fill:none;stroke-width:0.79701;stroke-linecap:butt;stroke-linejoin:miter;stroke:rgb(0%,0%,0%);stroke-opacity:1;stroke-miterlimit:10;" d="M -33.156779 -99.267053 C -33.156779 -98.392709 -33.866448 -97.679119 -34.744713 -97.679119 C -35.619057 -97.679119 -36.328726 -98.392709 -36.328726 -99.267053 C -36.328726 -100.145317 -35.619057 -100.854987 -34.744713 -100.854987 C -33.866448 -100.854987 -33.156779 -100.145317 -33.156779 -99.267053 Z M -33.156779 -99.267053 " transform="matrix(0.996283,0,0,-0.996283,36.631188,49.996465)"/>
</g>
<path style="fill:none;stroke-width:0.79701;stroke-linecap:butt;stroke-linejoin:miter;stroke:rgb(0%,0%,0%);stroke-opacity:1;stroke-miterlimit:10;" d="M 213.423849 0.00037214 L 213.423849 -49.63334 M 213.423849 -49.63334 L 213.423849 -99.267053 " transform="matrix(0.996283,0,0,-0.996283,36.631188,49.996465)"/>
<g clip-path="url(#clip5)" clip-rule="nonzero">
<path style=" stroke:none;fill-rule:nonzero;fill:rgb(100%,100%,100%);fill-opacity:1;" d="M 250.84375 148.894531 C 250.84375 148.023438 250.136719 147.3125 249.261719 147.3125 C 248.390625 147.3125 247.683594 148.023438 247.683594 148.894531 C 247.683594 149.769531 248.390625 150.476562 249.261719 150.476562 C 250.136719 150.476562 250.84375 149.769531 250.84375 148.894531 Z M 250.84375 148.894531 "/>
</g>
<g clip-path="url(#clip6)" clip-rule="nonzero">
<path style="fill:none;stroke-width:0.79701;stroke-linecap:butt;stroke-linejoin:miter;stroke:rgb(0%,0%,0%);stroke-opacity:1;stroke-miterlimit:10;" d="M 215.011783 -99.267053 C 215.011783 -98.392709 214.302114 -97.679119 213.423849 -97.679119 C 212.549506 -97.679119 211.839836 -98.392709 211.839836 -99.267053 C 211.839836 -100.145317 212.549506 -100.854987 213.423849 -100.854987 C 214.302114 -100.854987 215.011783 -100.145317 215.011783 -99.267053 Z M 215.011783 -99.267053 " transform="matrix(0.996283,0,0,-0.996283,36.631188,49.996465)"/>
</g>
</g>
</svg>
