<?xml version="1.0" encoding="UTF-8"?>
<svg xmlns="http://www.w3.org/2000/svg" xmlns:xlink="http://www.w3.org/1999/xlink" width="255.243pt" height="102.018pt" viewBox="0 0 255.243 102.018" version="1.2">
<defs>
<clipPath id="clip1">
  <path d="M 21 0 L 133 0 L 133 101.046875 L 21 101.046875 Z M 21 0 "/>
</clipPath>
<clipPath id="clip2">
  <path d="M 121 0 L 234 0 L 234 101.046875 L 121 101.046875 Z M 121 0 "/>
</clipPath>
<clipPath id="clip3">
  <path d="M 126 49 L 253.652344 49 L 253.652344 52 L 126 52 Z M 126 49 "/>
</clipPath>
<clipPath id="clip4">
  <path d="M 0.84375 49 L 128 49 L 128 52 L 0.84375 52 Z M 0.84375 49 "/>
</clipPath>
</defs>
<g id="surface1">
<g clip-path="url(#clip1)" clip-rule="nonzero">
<path style="fill:none;stroke-width:0.3985;stroke-linecap:butt;stroke-linejoin:miter;stroke:rgb(0%,0%,0%);stroke-opacity:1;stroke-miterlimit:10;" d="M -0.00101982 -0.000763596 C -0.00101982 28.063677 -22.74915 50.811807 -50.809647 50.811807 C -78.874088 50.811807 -101.622218 28.063677 -101.622218 -0.000763596 C -101.622218 -28.061261 -78.874088 -50.809391 -50.809647 -50.809391 C -22.74915 -50.809391 -0.00101982 -28.061261 -0.00101982 -0.000763596 Z M -0.00101982 -0.000763596 " transform="matrix(0.990466,0,0,-0.990466,127.247104,50.522681)"/>
</g>
<g clip-path="url(#clip2)" clip-rule="nonzero">
<path style="fill:none;stroke-width:0.3985;stroke-linecap:butt;stroke-linejoin:miter;stroke:rgb(0%,0%,0%);stroke-opacity:1;stroke-miterlimit:10;" d="M 101.620178 -0.000763596 C 101.620178 28.063677 78.872048 50.811807 50.811551 50.811807 C 22.74711 50.811807 -0.00101982 28.063677 -0.00101982 -0.000763596 C -0.00101982 -28.061261 22.74711 -50.809391 50.811551 -50.809391 C 78.872048 -50.809391 101.620178 -28.061261 101.620178 -0.000763596 Z M 101.620178 -0.000763596 " transform="matrix(0.990466,0,0,-0.990466,127.247104,50.522681)"/>
</g>
<g clip-path="url(#clip3)" clip-rule="nonzero">
<path style="fill:none;stroke-width:1.19553;stroke-linecap:butt;stroke-linejoin:miter;stroke:rgb(0%,0%,0%);stroke-opacity:1;stroke-miterlimit:10;" d="M -0.00101982 -0.000763596 L 127.026464 -0.000763596 " transform="matrix(0.990466,0,0,-0.990466,127.247104,50.522681)"/>
</g>
<g clip-path="url(#clip4)" clip-rule="nonzero">
<path style="fill:none;stroke-width:1.19553;stroke-linecap:butt;stroke-linejoin:miter;stroke:rgb(0%,0%,0%);stroke-opacity:1;stroke-miterlimit:10;" d="M -0.00101982 -0.000763596 L -127.02456 -0.000763596 " transform="matrix(0.990466,0,0,-0.990466,127.247104,50.522681)"/>
</g>
</g>
</svg>
