<?xml version="1.0" encoding="UTF-8"?>
<svg xmlns="http://www.w3.org/2000/svg" xmlns:xlink="http://www.w3.org/1999/xlink" width="252.417pt" height="24.608pt" viewBox="0 0 252.417 24.608" version="1.2">
<defs>
<clipPath id="clip1">
  <path d="M 1.691406 10 L 6 10 L 6 14 L 1.691406 14 Z M 1.691406 10 "/>
</clipPath>
<clipPath id="clip2">
  <path d="M 1.691406 5 L 11 5 L 11 20 L 1.691406 20 Z M 1.691406 5 "/>
</clipPath>
<clipPath id="clip3">
  <path d="M 50 0 L 51 0 L 51 24.222656 L 50 24.222656 Z M 50 0 "/>
</clipPath>
<clipPath id="clip4">
  <path d="M 197 0 L 198 0 L 198 24.222656 L 197 24.222656 Z M 197 0 "/>
</clipPath>
<clipPath id="clip5">
  <path d="M 241 5 L 250.152344 5 L 250.152344 20 L 241 20 Z M 241 5 "/>
</clipPath>
</defs>
<g id="surface1">
<path style="fill:none;stroke-width:0.3985;stroke-linecap:butt;stroke-linejoin:miter;stroke:rgb(0%,0%,0%);stroke-opacity:1;stroke-miterlimit:10;" d="M -0.000809462 49.770725 L 43.815131 49.770725 M 55.720558 49.770725 L 124.422809 49.770725 M 124.422809 49.770725 L 193.12506 49.770725 M 205.030488 49.770725 L 248.846428 49.770725 " transform="matrix(0.98432,0,0,-0.98432,3.450016,61.099695)"/>
<g clip-path="url(#clip1)" clip-rule="nonzero">
<path style=" stroke:none;fill-rule:nonzero;fill:rgb(100%,100%,100%);fill-opacity:1;" d="M 5.011719 12.109375 C 5.011719 11.246094 4.3125 10.546875 3.449219 10.546875 C 2.585938 10.546875 1.886719 11.246094 1.886719 12.109375 C 1.886719 12.972656 2.585938 13.671875 3.449219 13.671875 C 4.3125 13.671875 5.011719 12.972656 5.011719 12.109375 Z M 5.011719 12.109375 "/>
</g>
<g clip-path="url(#clip2)" clip-rule="nonzero">
<path style="fill:none;stroke-width:0.3985;stroke-linecap:butt;stroke-linejoin:miter;stroke:rgb(0%,0%,0%);stroke-opacity:1;stroke-miterlimit:10;" d="M 1.586581 49.770725 C 1.586581 50.647758 0.876224 51.358116 -0.000809462 51.358116 C -0.877843 51.358116 -1.5882 50.647758 -1.5882 49.770725 C -1.5882 48.893692 -0.877843 48.183335 -0.000809462 48.183335 C 0.876224 48.183335 1.586581 48.893692 1.586581 49.770725 Z M 1.586581 49.770725 " transform="matrix(0.98432,0,0,-0.98432,3.450016,61.099695)"/>
</g>
<path style="fill:none;stroke-width:0.3985;stroke-linecap:butt;stroke-linejoin:miter;stroke:rgb(0%,0%,0%);stroke-opacity:1;stroke-miterlimit:10;" d="M 51.73224 49.770725 L 55.720558 49.770725 M 47.803449 49.770725 L 43.815131 49.770725 " transform="matrix(0.98432,0,0,-0.98432,3.450016,61.099695)"/>
<g clip-path="url(#clip3)" clip-rule="nonzero">
<path style="fill:none;stroke-width:0.797;stroke-linecap:butt;stroke-linejoin:miter;stroke:rgb(0%,0%,0%);stroke-opacity:1;stroke-miterlimit:10;" d="M 47.803449 61.676152 L 47.803449 37.865298 " transform="matrix(0.98432,0,0,-0.98432,3.450016,61.099695)"/>
</g>
<path style="fill:none;stroke-width:2.39102;stroke-linecap:butt;stroke-linejoin:miter;stroke:rgb(0%,0%,0%);stroke-opacity:1;stroke-miterlimit:10;" d="M 51.73224 55.723439 L 51.73224 43.818012 " transform="matrix(0.98432,0,0,-0.98432,3.450016,61.099695)"/>
<path style="fill-rule:nonzero;fill:rgb(100%,100%,100%);fill-opacity:1;stroke-width:0.3985;stroke-linecap:butt;stroke-linejoin:miter;stroke:rgb(0%,0%,0%);stroke-opacity:1;stroke-miterlimit:10;" d="M 101.127857 49.770725 C 101.127857 50.647758 100.4175 51.358116 99.540466 51.358116 C 98.663433 51.358116 97.953076 50.647758 97.953076 49.770725 C 97.953076 48.893692 98.663433 48.183335 99.540466 48.183335 C 100.4175 48.183335 101.127857 48.893692 101.127857 49.770725 Z M 101.127857 49.770725 " transform="matrix(0.98432,0,0,-0.98432,3.450016,61.099695)"/>
<path style="fill-rule:nonzero;fill:rgb(100%,100%,100%);fill-opacity:1;stroke-width:0.3985;stroke-linecap:butt;stroke-linejoin:miter;stroke:rgb(0%,0%,0%);stroke-opacity:1;stroke-miterlimit:10;" d="M 150.896511 49.770725 C 150.896511 50.647758 150.186153 51.358116 149.30912 51.358116 C 148.432087 51.358116 147.72173 50.647758 147.72173 49.770725 C 147.72173 48.893692 148.432087 48.183335 149.30912 48.183335 C 150.186153 48.183335 150.896511 48.893692 150.896511 49.770725 Z M 150.896511 49.770725 " transform="matrix(0.98432,0,0,-0.98432,3.450016,61.099695)"/>
<path style="fill-rule:nonzero;fill:rgb(0%,0%,0%);fill-opacity:1;stroke-width:0.3985;stroke-linecap:butt;stroke-linejoin:miter;stroke:rgb(0%,0%,0%);stroke-opacity:1;stroke-miterlimit:10;" d="M 122.688585 49.770725 L 122.688585 47.786487 L 126.903106 49.770725 L 122.688585 51.754963 Z M 122.688585 49.770725 " transform="matrix(0.98432,0,0,-0.98432,3.450016,61.099695)"/>
<path style="fill:none;stroke-width:0.3985;stroke-linecap:butt;stroke-linejoin:miter;stroke:rgb(0%,0%,0%);stroke-opacity:1;stroke-miterlimit:10;" d="M 201.042169 49.770725 L 205.030488 49.770725 M 197.113379 49.770725 L 193.12506 49.770725 " transform="matrix(0.98432,0,0,-0.98432,3.450016,61.099695)"/>
<g clip-path="url(#clip4)" clip-rule="nonzero">
<path style="fill:none;stroke-width:0.797;stroke-linecap:butt;stroke-linejoin:miter;stroke:rgb(0%,0%,0%);stroke-opacity:1;stroke-miterlimit:10;" d="M 197.113379 61.676152 L 197.113379 37.865298 " transform="matrix(0.98432,0,0,-0.98432,3.450016,61.099695)"/>
</g>
<path style="fill:none;stroke-width:2.39102;stroke-linecap:butt;stroke-linejoin:miter;stroke:rgb(0%,0%,0%);stroke-opacity:1;stroke-miterlimit:10;" d="M 201.042169 55.723439 L 201.042169 43.818012 " transform="matrix(0.98432,0,0,-0.98432,3.450016,61.099695)"/>
<path style=" stroke:none;fill-rule:nonzero;fill:rgb(100%,100%,100%);fill-opacity:1;" d="M 249.957031 12.109375 C 249.957031 11.246094 249.257812 10.546875 248.394531 10.546875 C 247.53125 10.546875 246.832031 11.246094 246.832031 12.109375 C 246.832031 12.972656 247.53125 13.671875 248.394531 13.671875 C 249.257812 13.671875 249.957031 12.972656 249.957031 12.109375 Z M 249.957031 12.109375 "/>
<g clip-path="url(#clip5)" clip-rule="nonzero">
<path style="fill:none;stroke-width:0.3985;stroke-linecap:butt;stroke-linejoin:miter;stroke:rgb(0%,0%,0%);stroke-opacity:1;stroke-miterlimit:10;" d="M 250.433818 49.770725 C 250.433818 50.647758 249.723461 51.358116 248.846428 51.358116 C 247.969395 51.358116 247.259037 50.647758 247.259037 49.770725 C 247.259037 48.893692 247.969395 48.183335 248.846428 48.183335 C 249.723461 48.183335 250.433818 48.893692 250.433818 49.770725 Z M 250.433818 49.770725 " transform="matrix(0.98432,0,0,-0.98432,3.450016,61.099695)"/>
</g>
</g>
</svg>
