<?xml version="1.0" encoding="UTF-8"?>
<svg xmlns="http://www.w3.org/2000/svg" xmlns:xlink="http://www.w3.org/1999/xlink" width="256.308pt" height="177.114pt" viewBox="0 0 256.308 177.114" version="1.2">
<defs>
<clipPath id="clip1">
  <path d="M 0.292969 0 L 41 0 L 41 36 L 0.292969 36 Z M 0.292969 0 "/>
</clipPath>
<clipPath id="clip2">
  <path d="M 0.292969 61 L 17 61 L 17 89 L 0.292969 89 Z M 0.292969 61 "/>
</clipPath>
<clipPath id="clip3">
  <path d="M 219 87 L 255.324219 87 L 255.324219 135 L 219 135 Z M 219 87 "/>
</clipPath>
<clipPath id="clip4">
  <path d="M 0.292969 87 L 50 87 L 50 136 L 0.292969 136 Z M 0.292969 87 "/>
</clipPath>
<clipPath id="clip5">
  <path d="M 238 159 L 255.324219 159 L 255.324219 176.230469 L 238 176.230469 Z M 238 159 "/>
</clipPath>
<clipPath id="clip6">
  <path d="M 0.292969 159 L 19 159 L 19 176.230469 L 0.292969 176.230469 Z M 0.292969 159 "/>
</clipPath>
</defs>
<g id="surface1">
<path style="fill:none;stroke-width:0.79701;stroke-linecap:butt;stroke-linejoin:miter;stroke:rgb(0%,0%,0%);stroke-opacity:1;stroke-miterlimit:10;" d="M 9.225396 19.475804 C 9.225396 19.475804 10.257879 18.270586 10.634754 17.768085 C 11.007705 17.261658 11.588722 16.40191 11.930265 15.840522 C 12.271809 15.275208 12.793939 14.325167 13.100151 13.708818 C 13.406363 13.096394 13.86568 12.067837 14.132634 11.408304 C 14.399588 10.748771 14.796093 9.657402 15.019863 8.966462 C 15.243633 8.271597 15.573399 7.129192 15.753986 6.406847 C 15.934572 5.688427 16.189748 4.51069 16.327151 3.768715 C 16.460628 3.030667 16.641214 1.833301 16.731507 1.083475 C 16.821801 0.337574 16.931723 -0.867643 16.974907 -1.613544 C 17.01809 -2.359444 17.053422 -3.55681 17.049497 -4.290933 C 17.049497 -5.025056 17.006313 -6.198867 16.963129 -6.917287 C 16.91602 -7.631781 16.806098 -8.766334 16.715804 -9.453348 C 16.625511 -10.140361 16.444925 -11.219954 16.315374 -11.871635 C 16.181897 -12.523316 15.769689 -14.140742 15.769689 -14.140742 " transform="matrix(0.995022,0,0,-0.995022,19.851774,24.421832)"/>
<path style="fill:none;stroke-width:0.79701;stroke-linecap:butt;stroke-linejoin:miter;stroke:rgb(0%,0%,0%);stroke-opacity:1;stroke-miterlimit:10;" d="M 23.66838 19.475804 C 23.66838 19.475804 24.700863 18.270586 25.077739 17.768085 C 25.450689 17.261658 26.031706 16.40191 26.37325 15.840522 C 26.714793 15.275208 27.236923 14.325167 27.543135 13.708818 C 27.849347 13.096394 28.308664 12.067837 28.575618 11.408304 C 28.842572 10.748771 29.239077 9.657402 29.462847 8.966462 C 29.690543 8.271597 30.016383 7.129192 30.19697 6.406847 C 30.377556 5.688427 30.632732 4.51069 30.770135 3.768715 C 30.903612 3.030667 31.088124 1.833301 31.174492 1.083475 C 31.264785 0.337574 31.374707 -0.867643 31.417891 -1.613544 C 31.461074 -2.359444 31.496406 -3.55681 31.492481 -4.290933 C 31.492481 -5.025056 31.453223 -6.198867 31.406113 -6.917287 C 31.359004 -7.631781 31.249082 -8.766334 31.158788 -9.453348 C 31.068495 -10.140361 30.887909 -11.219954 30.758358 -11.871635 C 30.624881 -12.523316 30.212673 -14.140742 30.212673 -14.140742 " transform="matrix(0.995022,0,0,-0.995022,19.851774,24.421832)"/>
<path style="fill:none;stroke-width:0.79701;stroke-linecap:butt;stroke-linejoin:miter;stroke:rgb(0%,0%,0%);stroke-opacity:1;stroke-miterlimit:10;" d="M 38.111364 19.475804 C 38.111364 19.475804 39.147773 18.270586 39.520723 17.768085 C 39.897599 17.261658 40.47469 16.40191 40.816234 15.840522 C 41.157777 15.275208 41.679908 14.325167 41.986119 13.708818 C 42.292331 13.096394 42.755574 12.067837 43.018602 11.408304 C 43.285556 10.748771 43.682061 9.657402 43.905831 8.966462 C 44.133527 8.271597 44.459367 7.129192 44.639954 6.406847 C 44.82054 5.688427 45.075717 4.51069 45.213119 3.768715 C 45.350522 3.030667 45.531108 1.833301 45.621401 1.083475 C 45.711695 0.337574 45.817691 -0.867643 45.860875 -1.613544 C 45.904058 -2.359444 45.939391 -3.55681 45.935465 -4.290933 C 45.935465 -5.025056 45.896207 -6.198867 45.849097 -6.917287 C 45.801988 -7.631781 45.692066 -8.766334 45.601773 -9.453348 C 45.511479 -10.140361 45.330893 -11.219954 45.201342 -11.871635 C 45.067865 -12.523316 44.655657 -14.140742 44.655657 -14.140742 " transform="matrix(0.995022,0,0,-0.995022,19.851774,24.421832)"/>
<path style="fill:none;stroke-width:0.79701;stroke-linecap:butt;stroke-linejoin:miter;stroke:rgb(0%,0%,0%);stroke-opacity:1;stroke-miterlimit:10;" d="M 52.558274 19.475804 C 52.558274 19.475804 53.590757 18.270586 53.963707 17.768085 C 54.340583 17.261658 54.917674 16.40191 55.259218 15.840522 C 55.600762 15.275208 56.122892 14.325167 56.429103 13.708818 C 56.735315 13.096394 57.198558 12.067837 57.465512 11.408304 C 57.732466 10.748771 58.125045 9.657402 58.352741 8.966462 C 58.576511 8.271597 58.902352 7.129192 59.082938 6.406847 C 59.263524 5.688427 59.518701 4.51069 59.656103 3.768715 C 59.793506 3.030667 59.974092 1.833301 60.064386 1.083475 C 60.154679 0.337574 60.260675 -0.867643 60.303859 -1.613544 C 60.350968 -2.359444 60.382375 -3.55681 60.382375 -4.290933 C 60.378449 -5.025056 60.339191 -6.198867 60.292081 -6.917287 C 60.244972 -7.631781 60.13505 -8.766334 60.044757 -9.453348 C 59.954463 -10.140361 59.773877 -11.219954 59.644326 -11.871635 C 59.514775 -12.523316 59.098641 -14.140742 59.098641 -14.140742 " transform="matrix(0.995022,0,0,-0.995022,19.851774,24.421832)"/>
<path style="fill:none;stroke-width:0.79701;stroke-linecap:butt;stroke-linejoin:miter;stroke:rgb(0%,0%,0%);stroke-opacity:1;stroke-miterlimit:10;" d="M 67.001258 19.475804 C 67.001258 19.475804 68.033741 18.270586 68.406691 17.768085 C 68.783567 17.261658 69.360658 16.40191 69.706128 15.840522 C 70.047671 15.275208 70.569802 14.325167 70.876013 13.708818 C 71.178299 13.096394 71.641542 12.067837 71.908496 11.408304 C 72.17545 10.748771 72.571955 9.657402 72.795725 8.966462 C 73.019495 8.271597 73.345336 7.129192 73.525922 6.406847 C 73.706508 5.688427 73.965611 4.51069 74.099087 3.768715 C 74.23649 3.030667 74.417077 1.833301 74.50737 1.083475 C 74.597663 0.337574 74.703659 -0.867643 74.750769 -1.613544 C 74.793952 -2.359444 74.825359 -3.55681 74.825359 -4.290933 C 74.821433 -5.025056 74.782175 -6.198867 74.735066 -6.917287 C 74.687956 -7.631781 74.578034 -8.766334 74.487741 -9.453348 C 74.397448 -10.140361 74.220787 -11.219954 74.08731 -11.871635 C 73.957759 -12.523316 73.541625 -14.140742 73.541625 -14.140742 " transform="matrix(0.995022,0,0,-0.995022,19.851774,24.421832)"/>
<path style="fill:none;stroke-width:0.79701;stroke-linecap:butt;stroke-linejoin:miter;stroke:rgb(0%,0%,0%);stroke-opacity:1;stroke-miterlimit:10;" d="M 81.444242 19.475804 C 81.444242 19.475804 82.476725 18.270586 82.853601 17.768085 C 83.226551 17.261658 83.807568 16.40191 84.149112 15.840522 C 84.490656 15.275208 85.012786 14.325167 85.318997 13.708818 C 85.625209 13.096394 86.084527 12.067837 86.35148 11.408304 C 86.618434 10.748771 87.014939 9.657402 87.238709 8.966462 C 87.462479 8.271597 87.78832 7.129192 87.972832 6.406847 C 88.153418 5.688427 88.408595 4.51069 88.542072 3.768715 C 88.679474 3.030667 88.860061 1.833301 88.950354 1.083475 C 89.040647 0.337574 89.146643 -0.867643 89.193753 -1.613544 C 89.236937 -2.359444 89.268343 -3.55681 89.268343 -4.290933 C 89.268343 -5.025056 89.225159 -6.198867 89.17805 -6.917287 C 89.134866 -7.631781 89.021018 -8.766334 88.930725 -9.453348 C 88.844357 -10.140361 88.663771 -11.219954 88.530294 -11.871635 C 88.400743 -12.523316 87.984609 -14.140742 87.984609 -14.140742 " transform="matrix(0.995022,0,0,-0.995022,19.851774,24.421832)"/>
<path style="fill:none;stroke-width:0.79701;stroke-linecap:butt;stroke-linejoin:miter;stroke:rgb(0%,0%,0%);stroke-opacity:1;stroke-miterlimit:10;" d="M 15.765763 -14.148593 C 15.765763 -14.148593 14.152263 -18.529776 13.367105 -19.786029 C 12.585872 -21.042282 11.078369 -22.616524 10.124402 -23.201467 C 9.170435 -23.790336 7.482345 -24.167211 6.489119 -24.018031 C 5.491969 -23.868851 3.850988 -23.001252 2.948056 -22.137578 C 2.04905 -21.269978 0.675023 -19.259973 -0.00806421 -17.772098 C -0.687226 -16.284224 -1.598009 -13.355584 -1.959182 -11.412317 C -2.320355 -9.469051 -2.630492 -5.951542 -2.606938 -3.772729 C -2.579457 -1.593915 -2.214359 2.119883 -1.782522 4.290846 C -1.350685 6.461808 -0.31035 9.951836 0.502289 11.871548 C 1.314927 13.791259 2.948056 16.668864 4.078684 18.121406 C 5.205386 19.573949 7.289981 21.517215 8.632601 22.337706 C 9.971296 23.158196 12.314993 23.94728 13.740055 24.045425 C 15.165117 24.147495 17.536295 23.692103 18.914247 23.056125 C 20.2922 22.424073 23.664454 19.483656 23.664454 19.483656 " transform="matrix(0.995022,0,0,-0.995022,19.851774,24.421832)"/>
<path style="fill:none;stroke-width:0.79701;stroke-linecap:butt;stroke-linejoin:miter;stroke:rgb(0%,0%,0%);stroke-opacity:1;stroke-miterlimit:10;" d="M 30.208747 -14.148593 C 30.208747 -14.148593 28.595247 -18.529776 27.814015 -19.786029 C 27.028857 -21.042282 25.525279 -22.616524 24.567386 -23.201467 C 23.613419 -23.790336 21.925329 -24.167211 20.932104 -24.018031 C 19.934953 -23.868851 18.293972 -23.001252 17.39104 -22.137578 C 16.492034 -21.269978 15.118007 -19.259973 14.438846 -17.772098 C 13.755758 -16.284224 12.844975 -13.355584 12.483802 -11.412317 C 12.122629 -9.469051 11.812492 -5.951542 11.839972 -3.772729 C 11.863527 -1.593915 12.228626 2.119883 12.660462 4.290846 C 13.092299 6.461808 14.132634 9.951836 14.945273 11.871548 C 15.757911 13.791259 17.394966 16.668864 18.521668 18.121406 C 19.64837 19.573949 21.732965 21.517215 23.075585 22.337706 C 24.41428 23.158196 26.757977 23.94728 28.183039 24.045425 C 29.612027 24.147495 31.979279 23.692103 33.357231 23.056125 C 34.735184 22.424073 38.107438 19.483656 38.107438 19.483656 " transform="matrix(0.995022,0,0,-0.995022,19.851774,24.421832)"/>
<path style="fill:none;stroke-width:0.79701;stroke-linecap:butt;stroke-linejoin:miter;stroke:rgb(0%,0%,0%);stroke-opacity:1;stroke-miterlimit:10;" d="M 44.651731 -14.148593 C 44.651731 -14.148593 43.038231 -18.529776 42.256999 -19.786029 C 41.471841 -21.042282 39.968263 -22.616524 39.014296 -23.201467 C 38.056403 -23.790336 36.372239 -24.167211 35.375088 -24.018031 C 34.377937 -23.868851 32.736956 -23.001252 31.834024 -22.137578 C 30.935018 -21.269978 29.560992 -19.259973 28.88183 -17.772098 C 28.198742 -16.284224 27.287959 -13.355584 26.926786 -11.412317 C 26.565613 -9.469051 26.259402 -5.951542 26.282956 -3.772729 C 26.306511 -1.593915 26.675535 2.119883 27.103447 4.290846 C 27.535284 6.461808 28.575618 9.951836 29.388257 11.871548 C 30.200895 13.791259 31.83795 16.668864 32.964652 18.121406 C 34.091354 19.573949 36.179875 21.517215 37.518569 22.337706 C 38.86119 23.158196 41.200961 23.94728 42.626023 24.045425 C 44.055011 24.147495 46.426189 23.692103 47.800215 23.056125 C 49.178168 22.424073 52.550422 19.483656 52.550422 19.483656 " transform="matrix(0.995022,0,0,-0.995022,19.851774,24.421832)"/>
<path style="fill:none;stroke-width:0.79701;stroke-linecap:butt;stroke-linejoin:miter;stroke:rgb(0%,0%,0%);stroke-opacity:1;stroke-miterlimit:10;" d="M 59.098641 -14.148593 C 59.098641 -14.148593 57.481215 -18.529776 56.699983 -19.786029 C 55.914825 -21.042282 54.411247 -22.616524 53.45728 -23.201467 C 52.503313 -23.790336 50.815223 -24.167211 49.818072 -24.018031 C 48.820921 -23.868851 47.17994 -23.001252 46.280934 -22.137578 C 45.378002 -21.269978 44.003976 -19.259973 43.324814 -17.772098 C 42.641726 -16.284224 41.730943 -13.355584 41.36977 -11.412317 C 41.012523 -9.469051 40.702386 -5.951542 40.72594 -3.772729 C 40.749495 -1.593915 41.11852 2.119883 41.546431 4.290846 C 41.978268 6.461808 43.018602 9.951836 43.831241 11.871548 C 44.64388 13.791259 46.280934 16.668864 47.407636 18.121406 C 48.538264 19.573949 50.622859 21.517215 51.961554 22.337706 C 53.304174 23.158196 55.643945 23.94728 57.072933 24.045425 C 58.497995 24.147495 60.869173 23.692103 62.243199 23.056125 C 63.621152 22.424073 66.993406 19.483656 66.993406 19.483656 " transform="matrix(0.995022,0,0,-0.995022,19.851774,24.421832)"/>
<path style="fill:none;stroke-width:0.79701;stroke-linecap:butt;stroke-linejoin:miter;stroke:rgb(0%,0%,0%);stroke-opacity:1;stroke-miterlimit:10;" d="M 73.541625 -14.148593 C 73.541625 -14.148593 71.924199 -18.529776 71.142967 -19.786029 C 70.361735 -21.042282 68.854231 -22.616524 67.900264 -23.201467 C 66.946297 -23.790336 65.258207 -24.167211 64.261056 -24.018031 C 63.267831 -23.868851 61.622925 -23.001252 60.723918 -22.137578 C 59.820987 -21.269978 58.450886 -19.259973 57.767798 -17.772098 C 57.088636 -16.284224 56.173927 -13.355584 55.81668 -11.412317 C 55.455507 -9.469051 55.14537 -5.951542 55.168925 -3.772729 C 55.192479 -1.593915 55.561504 2.119883 55.993341 4.290846 C 56.421252 6.461808 57.461586 9.951836 58.274225 11.871548 C 59.090789 13.791259 60.723918 16.668864 61.85062 18.121406 C 62.981248 19.573949 65.065843 21.517215 66.404538 22.337706 C 67.747158 23.158196 70.086929 23.94728 71.515917 24.045425 C 72.940979 24.147495 75.312157 23.692103 76.690109 23.056125 C 78.064136 22.424073 81.43639 19.483656 81.43639 19.483656 " transform="matrix(0.995022,0,0,-0.995022,19.851774,24.421832)"/>
<path style="fill:none;stroke-width:0.79701;stroke-linecap:butt;stroke-linejoin:miter;stroke:rgb(0%,0%,0%);stroke-opacity:1;stroke-miterlimit:10;" d="M 87.984609 -14.148593 C 87.984609 -14.148593 86.371109 -18.529776 85.585951 -19.786029 C 84.804719 -21.042282 83.297215 -22.616524 82.343248 -23.201467 C 81.389281 -23.790336 79.701191 -24.167211 78.70404 -24.018031 C 77.710815 -23.868851 76.065909 -23.001252 75.166903 -22.137578 C 74.263971 -21.269978 72.89387 -19.259973 72.210782 -17.772098 C 71.53162 -16.284224 70.620837 -13.355584 70.259664 -11.412317 C 69.898491 -9.469051 69.588354 -5.951542 69.611909 -3.772729 C 69.639389 -1.593915 70.004488 2.119883 70.436325 4.290846 C 70.868162 6.461808 71.90457 9.951836 72.721135 11.871548 C 73.533774 13.791259 75.166903 16.668864 76.29753 18.121406 C 77.424232 19.573949 79.508827 21.517215 80.851448 22.337706 C 82.190142 23.158196 84.529913 23.94728 85.958901 24.045425 C 87.383963 24.147495 89.755141 23.692103 91.133093 23.056125 C 92.511046 22.424073 95.8833 19.483656 95.8833 19.483656 " transform="matrix(0.995022,0,0,-0.995022,19.851774,24.421832)"/>
<path style="fill:none;stroke-width:0.79701;stroke-linecap:butt;stroke-linejoin:miter;stroke:rgb(0%,0%,0%);stroke-opacity:1;stroke-miterlimit:10;" d="M 86.661618 24.072905 C 86.661618 24.072905 87.921797 24.002241 88.400743 23.919799 C 88.87969 23.837358 89.649145 23.633217 90.124165 23.468333 C 90.59526 23.30345 91.345086 22.969758 91.808329 22.722433 C 92.267647 22.475108 92.993918 22.011865 93.437533 21.68995 C 93.877221 21.36411 94.572086 20.783092 94.992146 20.382662 C 95.412205 19.986157 96.067812 19.287366 96.460391 18.824123 C 96.852971 18.356954 97.465394 17.552167 97.826567 17.026111 C 98.187739 16.496129 98.745202 15.597123 99.074968 15.01218 C 99.400809 14.427237 99.899384 13.44579 100.189893 12.813737 C 100.480401 12.177759 100.916164 11.121721 101.167415 10.450411 C 101.418665 9.775175 101.78769 8.664176 101.991831 7.957534 C 102.199898 7.250892 102.498258 6.092784 102.663141 5.362586 C 102.824098 4.636315 103.051794 3.446801 103.169568 2.704826 C 103.287342 1.958926 103.511112 0.00780791 103.511112 0.00780791 " transform="matrix(0.995022,0,0,-0.995022,19.851774,24.421832)"/>
<g clip-path="url(#clip1)" clip-rule="nonzero">
<path style="fill:none;stroke-width:0.79701;stroke-linecap:butt;stroke-linejoin:miter;stroke:rgb(0%,0%,0%);stroke-opacity:1;stroke-miterlimit:10;" d="M -16.849706 -0.0000436668 C -16.849706 -0.0000436668 -16.516014 2.732307 -16.327576 3.76479 C -16.135213 4.797273 -15.758337 6.442179 -15.479605 7.435404 C -15.200874 8.432555 -14.686596 9.99502 -14.325423 10.925432 C -13.96425 11.855844 -13.316495 13.300535 -12.880732 14.14458 C -12.441043 14.992551 -11.675514 16.280211 -11.169087 17.018259 C -10.66266 17.756308 -9.795061 18.855529 -9.229747 19.471878 C -8.664433 20.084302 -7.710466 20.97153 -7.098042 21.446551 C -6.485619 21.921572 -5.464913 22.569327 -4.817158 22.891242 C -4.169402 23.213157 -3.105513 23.609662 -2.438129 23.774545 C -1.770744 23.939428 -0.679374 24.072905 -0.00413842 24.072905 C 0.667172 24.072905 1.758542 23.939428 2.425926 23.778471 C 3.09331 23.613588 4.161126 23.221009 4.804955 22.899094 C 5.452711 22.573253 6.473416 21.925498 7.08584 21.454403 C 7.698263 20.979382 9.217544 19.483656 9.217544 19.483656 " transform="matrix(0.995022,0,0,-0.995022,19.851774,24.421832)"/>
</g>
<path style="fill:none;stroke-width:0.79701;stroke-linecap:butt;stroke-linejoin:miter;stroke:rgb(0%,0%,0%);stroke-opacity:1;stroke-miterlimit:10;" d="M -16.849706 -0.0000436668 L -16.849706 -48.145941 " transform="matrix(0.995022,0,0,-0.995022,19.851774,24.421832)"/>
<path style="fill:none;stroke-width:0.79701;stroke-linecap:butt;stroke-linejoin:miter;stroke:rgb(0%,0%,0%);stroke-opacity:1;stroke-miterlimit:10;" d="M 103.511112 -0.0000436668 L 103.511112 -48.145941 " transform="matrix(0.995022,0,0,-0.995022,19.851774,24.421832)"/>
<path style="fill:none;stroke-width:0.79701;stroke-linecap:butt;stroke-linejoin:miter;stroke:rgb(0%,0%,0%);stroke-opacity:1;stroke-miterlimit:10;" d="M 105.917621 -50.552451 C 105.917621 -49.221608 104.841955 -48.145941 103.511112 -48.145941 C 102.180269 -48.145941 101.104602 -49.221608 101.104602 -50.552451 C 101.104602 -51.883294 102.180269 -52.958961 103.511112 -52.958961 C 104.841955 -52.958961 105.917621 -51.883294 105.917621 -50.552451 Z M 105.917621 -50.552451 " transform="matrix(0.995022,0,0,-0.995022,19.851774,24.421832)"/>
<g clip-path="url(#clip2)" clip-rule="nonzero">
<path style="fill:none;stroke-width:0.79701;stroke-linecap:butt;stroke-linejoin:miter;stroke:rgb(0%,0%,0%);stroke-opacity:1;stroke-miterlimit:10;" d="M -14.443197 -50.552451 C -14.443197 -49.221608 -15.522789 -48.145941 -16.849706 -48.145941 C -18.18055 -48.145941 -19.256216 -49.221608 -19.256216 -50.552451 C -19.256216 -51.883294 -18.18055 -52.958961 -16.849706 -52.958961 C -15.522789 -52.958961 -14.443197 -51.883294 -14.443197 -50.552451 Z M -14.443197 -50.552451 " transform="matrix(0.995022,0,0,-0.995022,19.851774,24.421832)"/>
</g>
<path style="fill:none;stroke-width:0.79701;stroke-linecap:butt;stroke-linejoin:miter;stroke:rgb(0%,0%,0%);stroke-opacity:1;stroke-miterlimit:10;" d="M 18.286121 -79.736779 C 18.286121 -79.736779 19.57378 -80.941997 20.044875 -81.444498 C 20.519896 -81.950925 21.254018 -82.810673 21.693707 -83.375987 C 22.133396 -83.937375 22.812557 -84.887417 23.216914 -85.503766 C 23.62127 -86.120115 24.237619 -87.144746 24.602718 -87.804279 C 24.967816 -88.463812 25.521353 -89.555182 25.843268 -90.250047 C 26.165183 -90.944912 26.648055 -92.087317 26.926786 -92.805737 C 27.205517 -93.528082 27.617725 -94.705819 27.853273 -95.443868 C 28.084894 -96.181917 28.426438 -97.383209 28.61095 -98.129109 C 28.799388 -98.875009 29.066342 -100.080227 29.20767 -100.826127 C 29.348999 -101.572027 29.537437 -102.769393 29.635582 -103.503516 C 29.729801 -104.241565 29.847574 -105.411451 29.89861 -106.12987 C 29.949645 -106.844364 29.996754 -107.978918 30.004606 -108.665931 C 30.012458 -109.352945 29.988903 -110.436463 29.953571 -111.084218 C 29.922164 -111.7359 29.761207 -113.353325 29.761207 -113.353325 " transform="matrix(0.995022,0,0,-0.995022,19.851774,24.421832)"/>
<path style="fill:none;stroke-width:0.79701;stroke-linecap:butt;stroke-linejoin:miter;stroke:rgb(0%,0%,0%);stroke-opacity:1;stroke-miterlimit:10;" d="M 52.467981 -79.736779 C 52.467981 -79.736779 53.75564 -80.941997 54.230661 -81.444498 C 54.701755 -81.950925 55.439804 -82.810673 55.879493 -83.375987 C 56.319181 -83.937375 56.998343 -84.887417 57.398774 -85.503766 C 57.80313 -86.120115 58.423405 -87.144746 58.784578 -87.804279 C 59.149676 -88.463812 59.703213 -89.555182 60.025128 -90.250047 C 60.347043 -90.944912 60.833841 -92.087317 61.112572 -92.805737 C 61.391303 -93.528082 61.803511 -94.705819 62.035133 -95.443868 C 62.27068 -96.181917 62.608298 -97.383209 62.796736 -98.129109 C 62.985174 -98.875009 63.248202 -100.080227 63.38953 -100.826127 C 63.530859 -101.572027 63.723223 -102.769393 63.817442 -103.503516 C 63.915586 -104.241565 64.029434 -105.411451 64.08047 -106.12987 C 64.131505 -106.844364 64.178614 -107.978918 64.186466 -108.665931 C 64.194317 -109.352945 64.170763 -110.436463 64.139356 -111.084218 C 64.104024 -111.7359 63.946993 -113.353325 63.946993 -113.353325 " transform="matrix(0.995022,0,0,-0.995022,19.851774,24.421832)"/>
<path style="fill:none;stroke-width:0.79701;stroke-linecap:butt;stroke-linejoin:miter;stroke:rgb(0%,0%,0%);stroke-opacity:1;stroke-miterlimit:10;" d="M 86.653766 -79.736779 C 86.653766 -79.736779 87.941426 -80.941997 88.41252 -81.444498 C 88.887541 -81.950925 89.621664 -82.810673 90.061353 -83.375987 C 90.501041 -83.937375 91.180203 -84.887417 91.584559 -85.503766 C 91.988916 -86.120115 92.605265 -87.144746 92.970364 -87.804279 C 93.335462 -88.463812 93.885073 -89.555182 94.210913 -90.250047 C 94.532828 -90.944912 95.015701 -92.087317 95.294432 -92.805737 C 95.573163 -93.528082 95.985371 -94.705819 96.220918 -95.443868 C 96.45254 -96.181917 96.790158 -97.383209 96.978596 -98.129109 C 97.167034 -98.875009 97.430062 -100.080227 97.57139 -100.826127 C 97.716645 -101.572027 97.905082 -102.769393 97.999301 -103.503516 C 98.097446 -104.241565 98.21522 -105.411451 98.266255 -106.12987 C 98.317291 -106.844364 98.3644 -107.978918 98.372252 -108.665931 C 98.380103 -109.352945 98.356548 -110.436463 98.321216 -111.084218 C 98.28981 -111.7359 98.128853 -113.353325 98.128853 -113.353325 " transform="matrix(0.995022,0,0,-0.995022,19.851774,24.421832)"/>
<path style="fill:none;stroke-width:0.79701;stroke-linecap:butt;stroke-linejoin:miter;stroke:rgb(0%,0%,0%);stroke-opacity:1;stroke-miterlimit:10;" d="M 120.835626 -79.736779 C 120.835626 -79.736779 122.123286 -80.941997 122.598306 -81.444498 C 123.069401 -81.950925 123.803524 -82.810673 124.243213 -83.375987 C 124.682901 -83.937375 125.362063 -84.887417 125.766419 -85.503766 C 126.170776 -86.120115 126.787125 -87.144746 127.152223 -87.804279 C 127.517322 -88.463812 128.070858 -89.555182 128.392773 -90.250047 C 128.714688 -90.944912 129.19756 -92.087317 129.476292 -92.805737 C 129.755023 -93.528082 130.167231 -94.705819 130.402778 -95.443868 C 130.6344 -96.181917 130.975944 -97.383209 131.160456 -98.129109 C 131.348894 -98.875009 131.615848 -100.080227 131.757176 -100.826127 C 131.898504 -101.572027 132.086942 -102.769393 132.185087 -103.503516 C 132.279306 -104.241565 132.39708 -105.411451 132.448115 -106.12987 C 132.49915 -106.844364 132.54626 -107.978918 132.554111 -108.665931 C 132.561963 -109.352945 132.538408 -110.436463 132.507002 -111.084218 C 132.47167 -111.7359 132.310712 -113.353325 132.310712 -113.353325 " transform="matrix(0.995022,0,0,-0.995022,19.851774,24.421832)"/>
<path style="fill:none;stroke-width:0.79701;stroke-linecap:butt;stroke-linejoin:miter;stroke:rgb(0%,0%,0%);stroke-opacity:1;stroke-miterlimit:10;" d="M 155.017486 -79.736779 C 155.017486 -79.736779 156.305145 -80.941997 156.780166 -81.444498 C 157.251261 -81.950925 157.98931 -82.810673 158.428998 -83.375987 C 158.868687 -83.937375 159.547849 -84.887417 159.952205 -85.503766 C 160.352636 -86.120115 160.972911 -87.144746 161.338009 -87.804279 C 161.699182 -88.463812 162.252718 -89.555182 162.574633 -90.250047 C 162.896548 -90.944912 163.383346 -92.087317 163.662077 -92.805737 C 163.940808 -93.528082 164.353016 -94.705819 164.584638 -95.443868 C 164.820186 -96.181917 165.157804 -97.383209 165.346241 -98.129109 C 165.534679 -98.875009 165.797707 -100.080227 165.939036 -100.826127 C 166.080364 -101.572027 166.272728 -102.769393 166.366947 -103.503516 C 166.465092 -104.241565 166.57894 -105.411451 166.629975 -106.12987 C 166.68101 -106.844364 166.72812 -107.978918 166.735971 -108.665931 C 166.743823 -109.352945 166.720268 -110.436463 166.688862 -111.084218 C 166.65353 -111.7359 166.496498 -113.353325 166.496498 -113.353325 " transform="matrix(0.995022,0,0,-0.995022,19.851774,24.421832)"/>
<path style="fill:none;stroke-width:0.79701;stroke-linecap:butt;stroke-linejoin:miter;stroke:rgb(0%,0%,0%);stroke-opacity:1;stroke-miterlimit:10;" d="M 189.203272 -79.736779 C 189.203272 -79.736779 190.490931 -80.941997 190.962026 -81.444498 C 191.437047 -81.950925 192.17117 -82.810673 192.610858 -83.375987 C 193.050547 -83.937375 193.729708 -84.887417 194.134065 -85.503766 C 194.538421 -86.120115 195.154771 -87.144746 195.519869 -87.804279 C 195.884968 -88.463812 196.438504 -89.555182 196.760419 -90.250047 C 197.082334 -90.944912 197.565206 -92.087317 197.843937 -92.805737 C 198.122668 -93.528082 198.534876 -94.705819 198.770424 -95.443868 C 199.002045 -96.181917 199.339663 -97.383209 199.528101 -98.129109 C 199.716539 -98.875009 199.979567 -100.080227 200.120896 -100.826127 C 200.26615 -101.572027 200.454588 -102.769393 200.552733 -103.503516 C 200.646952 -104.241565 200.764725 -105.411451 200.815761 -106.12987 C 200.866796 -106.844364 200.913906 -107.978918 200.921757 -108.665931 C 200.929609 -109.352945 200.906054 -110.436463 200.870722 -111.084218 C 200.839316 -111.7359 200.678358 -113.353325 200.678358 -113.353325 " transform="matrix(0.995022,0,0,-0.995022,19.851774,24.421832)"/>
<path style="fill:none;stroke-width:0.79701;stroke-linecap:butt;stroke-linejoin:miter;stroke:rgb(0%,0%,0%);stroke-opacity:1;stroke-miterlimit:10;" d="M 29.761207 -113.361177 C 29.761207 -113.361177 28.90931 -117.742359 28.422512 -118.998612 C 27.931788 -120.254865 26.89538 -121.829108 26.235847 -122.417976 C 25.572388 -123.002919 24.359319 -123.379795 23.656602 -123.230615 C 22.953886 -123.081435 21.780074 -122.217761 21.175503 -121.350161 C 20.567005 -120.482561 19.664073 -118.472556 19.27542 -116.984682 C 18.886767 -115.496807 18.447078 -112.568167 18.38034 -110.624901 C 18.313601 -108.681634 18.474559 -105.164126 18.792548 -102.985312 C 19.110537 -100.806498 19.94673 -97.0927 20.673001 -94.921738 C 21.395347 -92.750776 22.906776 -89.260748 24.013849 -87.341036 C 25.120922 -85.421324 27.225146 -82.54372 28.646282 -81.091177 C 30.067419 -79.638634 32.623108 -77.699294 34.260163 -76.874878 C 35.893292 -76.054388 38.704158 -75.269229 40.423655 -75.167159 C 42.143151 -75.069014 44.985423 -75.524406 46.65781 -76.156458 C 48.326271 -76.78851 52.460129 -79.732853 52.460129 -79.732853 " transform="matrix(0.995022,0,0,-0.995022,19.851774,24.421832)"/>
<path style="fill:none;stroke-width:0.79701;stroke-linecap:butt;stroke-linejoin:miter;stroke:rgb(0%,0%,0%);stroke-opacity:1;stroke-miterlimit:10;" d="M 63.946993 -113.361177 C 63.946993 -113.361177 63.095096 -117.742359 62.604372 -118.998612 C 62.113648 -120.254865 61.081165 -121.829108 60.417707 -122.417976 C 59.758174 -123.002919 58.541179 -123.379795 57.838462 -123.230615 C 57.135746 -123.081435 55.96586 -122.217761 55.357363 -121.350161 C 54.748865 -120.482561 53.845933 -118.472556 53.461206 -116.984682 C 53.072552 -115.496807 52.628938 -112.568167 52.5622 -110.624901 C 52.495461 -108.681634 52.656418 -105.164126 52.974408 -102.985312 C 53.292397 -100.806498 54.132516 -97.0927 54.854861 -94.921738 C 55.581133 -92.750776 57.088636 -89.260748 58.195709 -87.341036 C 59.302782 -85.421324 61.407006 -82.54372 62.832068 -81.091177 C 64.253204 -79.638634 66.808894 -77.699294 68.442023 -76.874878 C 70.075152 -76.054388 72.886018 -75.269229 74.60944 -75.167159 C 76.328937 -75.069014 79.167283 -75.524406 80.83967 -76.156458 C 82.508131 -76.78851 86.645915 -79.732853 86.645915 -79.732853 " transform="matrix(0.995022,0,0,-0.995022,19.851774,24.421832)"/>
<path style="fill:none;stroke-width:0.79701;stroke-linecap:butt;stroke-linejoin:miter;stroke:rgb(0%,0%,0%);stroke-opacity:1;stroke-miterlimit:10;" d="M 98.128853 -113.361177 C 98.128853 -113.361177 97.276956 -117.742359 96.786232 -118.998612 C 96.299434 -120.254865 95.263025 -121.829108 94.603492 -122.417976 C 93.940034 -123.002919 92.723039 -123.379795 92.020322 -123.230615 C 91.317606 -123.081435 90.14772 -122.217761 89.539222 -121.350161 C 88.930725 -120.482561 88.031719 -118.472556 87.643066 -116.984682 C 87.254412 -115.496807 86.814724 -112.568167 86.747985 -110.624901 C 86.681247 -108.681634 86.842204 -105.164126 87.160193 -102.985312 C 87.478182 -100.806498 88.314376 -97.0927 89.036721 -94.921738 C 89.762992 -92.750776 91.274422 -89.260748 92.381495 -87.341036 C 93.484642 -85.421324 95.592792 -82.54372 97.013928 -81.091177 C 98.435064 -79.638634 100.990754 -77.699294 102.623883 -76.874878 C 104.260938 -76.054388 107.071804 -75.269229 108.7913 -75.167159 C 110.510797 -75.069014 113.353069 -75.524406 115.02153 -76.156458 C 116.693917 -76.78851 120.827775 -79.732853 120.827775 -79.732853 " transform="matrix(0.995022,0,0,-0.995022,19.851774,24.421832)"/>
<path style="fill:none;stroke-width:0.79701;stroke-linecap:butt;stroke-linejoin:miter;stroke:rgb(0%,0%,0%);stroke-opacity:1;stroke-miterlimit:10;" d="M 132.310712 -113.361177 C 132.310712 -113.361177 131.458816 -117.742359 130.972018 -118.998612 C 130.481294 -120.254865 129.444885 -121.829108 128.785352 -122.417976 C 128.12582 -123.002919 126.908824 -123.379795 126.206108 -123.230615 C 125.503391 -123.081435 124.32958 -122.217761 123.725008 -121.350161 C 123.116511 -120.482561 122.213579 -118.472556 121.824925 -116.984682 C 121.436272 -115.496807 120.996584 -112.568167 120.929845 -110.624901 C 120.863107 -108.681634 121.024064 -105.164126 121.342053 -102.985312 C 121.660042 -100.806498 122.496236 -97.0927 123.222507 -94.921738 C 123.944852 -92.750776 125.456282 -89.260748 126.563355 -87.341036 C 127.670428 -85.421324 129.774652 -82.54372 131.195788 -81.091177 C 132.616924 -79.638634 135.172614 -77.699294 136.809669 -76.874878 C 138.442798 -76.054388 141.253664 -75.269229 142.97316 -75.167159 C 144.692656 -75.069014 147.534929 -75.524406 149.207316 -76.156458 C 150.875777 -76.78851 155.009634 -79.732853 155.009634 -79.732853 " transform="matrix(0.995022,0,0,-0.995022,19.851774,24.421832)"/>
<path style="fill:none;stroke-width:0.79701;stroke-linecap:butt;stroke-linejoin:miter;stroke:rgb(0%,0%,0%);stroke-opacity:1;stroke-miterlimit:10;" d="M 166.496498 -113.361177 C 166.496498 -113.361177 165.644602 -117.742359 165.153878 -118.998612 C 164.66708 -120.254865 163.630671 -121.829108 162.967212 -122.417976 C 162.307679 -123.002919 161.090684 -123.379795 160.387968 -123.230615 C 159.685251 -123.081435 158.515366 -122.217761 157.906868 -121.350161 C 157.29837 -120.482561 156.395439 -118.472556 156.010711 -116.984682 C 155.622058 -115.496807 155.178443 -112.568167 155.111705 -110.624901 C 155.044967 -108.681634 155.205924 -105.164126 155.523913 -102.985312 C 155.841902 -100.806498 156.682021 -97.0927 157.404367 -94.921738 C 158.130638 -92.750776 159.638142 -89.260748 160.745215 -87.341036 C 161.852288 -85.421324 163.960437 -82.54372 165.381574 -81.091177 C 166.80271 -79.638634 169.3584 -77.699294 170.991529 -76.874878 C 172.624658 -76.054388 175.435524 -75.269229 177.158946 -75.167159 C 178.878442 -75.069014 181.716789 -75.524406 183.389176 -76.156458 C 185.057637 -76.78851 189.19542 -79.732853 189.19542 -79.732853 " transform="matrix(0.995022,0,0,-0.995022,19.851774,24.421832)"/>
<path style="fill:none;stroke-width:0.79701;stroke-linecap:butt;stroke-linejoin:miter;stroke:rgb(0%,0%,0%);stroke-opacity:1;stroke-miterlimit:10;" d="M 200.678358 -113.361177 C 200.678358 -113.361177 199.826462 -117.742359 199.335738 -118.998612 C 198.84894 -120.254865 197.812531 -121.829108 197.152998 -122.417976 C 196.489539 -123.002919 195.272544 -123.379795 194.569828 -123.230615 C 193.867111 -123.081435 192.697226 -122.217761 192.088728 -121.350161 C 191.484156 -120.482561 190.581224 -118.472556 190.192571 -116.984682 C 189.803918 -115.496807 189.364229 -112.568167 189.297491 -110.624901 C 189.230752 -108.681634 189.39171 -105.164126 189.709699 -102.985312 C 190.027688 -100.806498 190.863881 -97.0927 191.586227 -94.921738 C 192.312498 -92.750776 193.823927 -89.260748 194.931 -87.341036 C 196.034148 -85.421324 198.142297 -82.54372 199.563434 -81.091177 C 200.98457 -79.638634 203.54026 -77.699294 205.173388 -76.874878 C 206.810443 -76.054388 209.621309 -75.269229 211.340806 -75.167159 C 213.060302 -75.069014 215.902575 -75.524406 217.571036 -76.156458 C 219.243422 -76.78851 223.37728 -79.732853 223.37728 -79.732853 " transform="matrix(0.995022,0,0,-0.995022,19.851774,24.421832)"/>
<g clip-path="url(#clip3)" clip-rule="nonzero">
<path style="fill:none;stroke-width:0.79701;stroke-linecap:butt;stroke-linejoin:miter;stroke:rgb(0%,0%,0%);stroke-opacity:1;stroke-miterlimit:10;" d="M 212.184851 -75.139678 C 212.184851 -75.139678 213.700206 -75.210343 214.277297 -75.292784 C 214.854388 -75.379152 215.780875 -75.579367 216.350115 -75.74425 C 216.919354 -75.913059 217.830138 -76.246751 218.3876 -76.494076 C 218.945062 -76.737475 219.828365 -77.200718 220.370124 -77.526559 C 220.907958 -77.848474 221.759854 -78.433417 222.278059 -78.829922 C 222.796263 -79.226426 223.608902 -79.925217 224.099626 -80.392386 C 224.590349 -80.85563 225.355879 -81.660417 225.819122 -82.190398 C 226.278439 -82.716454 226.989008 -83.615461 227.416919 -84.200403 C 227.840904 -84.785346 228.496511 -85.766794 228.885165 -86.402772 C 229.273818 -87.034824 229.866612 -88.090862 230.216008 -88.762172 C 230.561477 -89.437408 231.087533 -90.552333 231.393745 -91.255049 C 231.699956 -91.961692 232.155348 -93.1198 232.41445 -93.849997 C 232.677478 -94.580194 233.05828 -95.769709 233.274199 -96.511683 C 233.490117 -97.253658 233.969064 -99.204776 233.969064 -99.204776 " transform="matrix(0.995022,0,0,-0.995022,19.851774,24.421832)"/>
</g>
<g clip-path="url(#clip4)" clip-rule="nonzero">
<path style="fill:none;stroke-width:0.79701;stroke-linecap:butt;stroke-linejoin:miter;stroke:rgb(0%,0%,0%);stroke-opacity:1;stroke-miterlimit:10;" d="M -15.012436 -100.724057 C -15.012436 -100.724057 -14.400013 -97.909265 -14.097727 -96.841449 C -13.795441 -95.773634 -13.234053 -94.058064 -12.837548 -93.021655 C -12.441043 -91.981321 -11.730475 -90.34034 -11.243677 -89.358892 C -10.756879 -88.377445 -9.904983 -86.850312 -9.335743 -85.955232 C -8.766503 -85.056226 -7.785056 -83.686125 -7.1373 -82.897041 C -6.49347 -82.104031 -5.398175 -80.922368 -4.691533 -80.262835 C -3.980964 -79.599377 -2.79145 -78.637558 -2.029846 -78.123279 C -1.268243 -77.605075 -0.000212626 -76.890581 0.800649 -76.529408 C 1.60151 -76.172161 2.91665 -75.720695 3.741066 -75.528332 C 4.569408 -75.335968 5.912028 -75.167159 6.748222 -75.14753 C 7.584415 -75.127901 8.930961 -75.237823 9.759303 -75.390929 C 10.587645 -75.544035 11.910636 -75.928762 12.719349 -76.254603 C 13.528062 -76.576518 14.80787 -77.232125 15.577325 -77.714997 C 16.350706 -78.197869 18.282195 -79.732853 18.282195 -79.732853 " transform="matrix(0.995022,0,0,-0.995022,19.851774,24.421832)"/>
</g>
<path style="fill:none;stroke-width:0.79701;stroke-linecap:butt;stroke-linejoin:miter;stroke:rgb(0%,0%,0%);stroke-opacity:1;stroke-miterlimit:10;" d="M -14.820073 -99.212627 L -14.820073 -147.358525 " transform="matrix(0.995022,0,0,-0.995022,19.851774,24.421832)"/>
<path style="fill:none;stroke-width:0.79701;stroke-linecap:butt;stroke-linejoin:miter;stroke:rgb(0%,0%,0%);stroke-opacity:1;stroke-miterlimit:10;" d="M 233.847364 -99.212627 L 233.847364 -147.358525 " transform="matrix(0.995022,0,0,-0.995022,19.851774,24.421832)"/>
<g clip-path="url(#clip5)" clip-rule="nonzero">
<path style="fill:none;stroke-width:0.79701;stroke-linecap:butt;stroke-linejoin:miter;stroke:rgb(0%,0%,0%);stroke-opacity:1;stroke-miterlimit:10;" d="M 236.2578 -149.765034 C 236.2578 -148.438117 235.178207 -147.358525 233.847364 -147.358525 C 232.520447 -147.358525 231.440854 -148.438117 231.440854 -149.765034 C 231.440854 -151.095877 232.520447 -152.17547 233.847364 -152.17547 C 235.178207 -152.17547 236.2578 -151.095877 236.2578 -149.765034 Z M 236.2578 -149.765034 " transform="matrix(0.995022,0,0,-0.995022,19.851774,24.421832)"/>
</g>
<g clip-path="url(#clip6)" clip-rule="nonzero">
<path style="fill:none;stroke-width:0.79701;stroke-linecap:butt;stroke-linejoin:miter;stroke:rgb(0%,0%,0%);stroke-opacity:1;stroke-miterlimit:10;" d="M -12.413563 -149.765034 C -12.413563 -148.438117 -13.48923 -147.358525 -14.820073 -147.358525 C -16.14699 -147.358525 -17.226582 -148.438117 -17.226582 -149.765034 C -17.226582 -151.095877 -16.14699 -152.17547 -14.820073 -152.17547 C -13.48923 -152.17547 -12.413563 -151.095877 -12.413563 -149.765034 Z M -12.413563 -149.765034 " transform="matrix(0.995022,0,0,-0.995022,19.851774,24.421832)"/>
</g>
</g>
</svg>
