<?xml version="1.0" encoding="UTF-8"?>
<svg xmlns="http://www.w3.org/2000/svg" xmlns:xlink="http://www.w3.org/1999/xlink" width="255.412pt" height="410.088pt" viewBox="0 0 255.412 410.088" version="1.2">
<defs>
<clipPath id="clip1">
  <path d="M 125 186 L 155 186 L 155 409.160156 L 125 409.160156 Z M 125 186 "/>
</clipPath>
<clipPath id="clip2">
  <path d="M 125 398 L 155 398 L 155 409.160156 L 125 409.160156 Z M 125 398 "/>
</clipPath>
<clipPath id="clip3">
  <path d="M 125 350 L 155 350 L 155 409.160156 L 125 409.160156 Z M 125 350 "/>
</clipPath>
<clipPath id="clip4">
  <path d="M 0 89 L 254.824219 89 L 254.824219 92 L 0 92 Z M 0 89 "/>
</clipPath>
<clipPath id="clip5">
  <path d="M 0 0.015625 L 254.824219 0.015625 L 254.824219 182 L 0 182 Z M 0 0.015625 "/>
</clipPath>
</defs>
<g id="surface1">
<g clip-path="url(#clip1)" clip-rule="nonzero">
<path style="fill:none;stroke-width:0.99628;stroke-linecap:round;stroke-linejoin:round;stroke:rgb(0%,0%,0%);stroke-opacity:1;stroke-miterlimit:10;" d="M -0.000367015 48.273171 L -0.000367015 241.365117 L 14.482116 270.326168 M 9.654622 57.92816 L 9.654622 251.020105 L 14.482116 270.326168 M 28.960684 57.92816 L 28.960684 251.020105 L 14.482116 270.326168 M 19.309611 48.273171 L 19.309611 241.365117 L 14.482116 270.326168 " transform="matrix(0.997703,0,0,-0.997703,125.605835,456.826356)"/>
</g>
<path style="fill:none;stroke-width:1.99255;stroke-linecap:round;stroke-linejoin:round;stroke:rgb(0%,0%,0%);stroke-opacity:1;stroke-miterlimit:10;" d="M 14.482116 246.192611 L 14.482116 366.87214 " transform="matrix(0.997703,0,0,-0.997703,125.605835,456.826356)"/>
<path style="fill:none;stroke-width:0.99628;stroke-linecap:round;stroke-linejoin:round;stroke:rgb(0%,0%,0%);stroke-opacity:1;stroke-miterlimit:10;" d="M -0.000367015 241.365117 L 28.960684 251.020105 M 19.309611 241.365117 L 9.654622 251.020105 " transform="matrix(0.997703,0,0,-0.997703,125.605835,456.826356)"/>
<g clip-path="url(#clip2)" clip-rule="nonzero">
<path style="fill:none;stroke-width:0.99628;stroke-linecap:round;stroke-linejoin:round;stroke:rgb(0%,0%,0%);stroke-opacity:1;stroke-miterlimit:10;" d="M -0.000367015 48.273171 L 19.309611 48.273171 L 28.960684 57.92816 L 9.654622 57.92816 Z M -0.000367015 48.273171 " transform="matrix(0.997703,0,0,-0.997703,125.605835,456.826356)"/>
</g>
<path style="fill:none;stroke-width:0.99628;stroke-linecap:round;stroke-linejoin:round;stroke:rgb(0%,0%,0%);stroke-opacity:1;stroke-miterlimit:10;" d="M -0.000367015 96.5442 L 19.309611 96.5442 L 28.960684 106.199189 L 9.654622 106.199189 Z M -0.000367015 96.5442 " transform="matrix(0.997703,0,0,-0.997703,125.605835,456.826356)"/>
<path style="fill:none;stroke-width:0.99628;stroke-linecap:round;stroke-linejoin:round;stroke:rgb(0%,0%,0%);stroke-opacity:1;stroke-miterlimit:10;" d="M -0.000367015 144.819144 L 19.309611 144.819144 L 28.960684 154.474133 L 9.654622 154.474133 Z M -0.000367015 144.819144 " transform="matrix(0.997703,0,0,-0.997703,125.605835,456.826356)"/>
<path style="fill:none;stroke-width:0.99628;stroke-linecap:round;stroke-linejoin:round;stroke:rgb(0%,0%,0%);stroke-opacity:1;stroke-miterlimit:10;" d="M -0.000367015 193.090173 L 19.309611 193.090173 L 28.960684 202.745161 L 9.654622 202.745161 Z M -0.000367015 193.090173 " transform="matrix(0.997703,0,0,-0.997703,125.605835,456.826356)"/>
<path style="fill:none;stroke-width:0.99628;stroke-linecap:round;stroke-linejoin:round;stroke:rgb(0%,0%,0%);stroke-opacity:1;stroke-miterlimit:10;" d="M -0.000367015 241.365117 L 19.309611 241.365117 L 28.960684 251.020105 L 9.654622 251.020105 Z M -0.000367015 241.365117 " transform="matrix(0.997703,0,0,-0.997703,125.605835,456.826356)"/>
<g clip-path="url(#clip3)" clip-rule="nonzero">
<path style="fill:none;stroke-width:0.99628;stroke-linecap:round;stroke-linejoin:round;stroke:rgb(0%,0%,0%);stroke-opacity:1;stroke-miterlimit:10;" d="M -0.000367015 48.273171 L 19.309611 96.5442 M 19.309611 48.273171 L 28.960684 106.199189 M 28.960684 57.92816 L 9.654622 106.199189 M 9.654622 57.92816 L -0.000367015 96.5442 " transform="matrix(0.997703,0,0,-0.997703,125.605835,456.826356)"/>
</g>
<path style="fill:none;stroke-width:0.99628;stroke-linecap:round;stroke-linejoin:round;stroke:rgb(0%,0%,0%);stroke-opacity:1;stroke-miterlimit:10;" d="M -0.000367015 96.5442 L 19.309611 144.819144 M 19.309611 96.5442 L 28.960684 154.474133 M 28.960684 106.199189 L 9.654622 154.474133 M 9.654622 106.199189 L -0.000367015 144.819144 " transform="matrix(0.997703,0,0,-0.997703,125.605835,456.826356)"/>
<path style="fill:none;stroke-width:0.99628;stroke-linecap:round;stroke-linejoin:round;stroke:rgb(0%,0%,0%);stroke-opacity:1;stroke-miterlimit:10;" d="M -0.000367015 144.819144 L 19.309611 193.090173 M 19.309611 144.819144 L 28.960684 202.745161 M 28.960684 154.474133 L 9.654622 202.745161 M 9.654622 154.474133 L -0.000367015 193.090173 " transform="matrix(0.997703,0,0,-0.997703,125.605835,456.826356)"/>
<path style="fill:none;stroke-width:0.99628;stroke-linecap:round;stroke-linejoin:round;stroke:rgb(0%,0%,0%);stroke-opacity:1;stroke-miterlimit:10;" d="M -0.000367015 193.090173 L 19.309611 241.365117 M 19.309611 193.090173 L 28.960684 251.020105 M 28.960684 202.745161 L 9.654622 251.020105 M 9.654622 202.745161 L -0.000367015 241.365117 " transform="matrix(0.997703,0,0,-0.997703,125.605835,456.826356)"/>
<g clip-path="url(#clip4)" clip-rule="nonzero">
<path style="fill:none;stroke-width:1.99255;stroke-linecap:round;stroke-linejoin:round;stroke:rgb(0%,0%,0%);stroke-opacity:1;stroke-miterlimit:10;" d="M 128.521394 366.860395 L -124.900528 366.860395 " transform="matrix(0.997703,0,0,-0.997703,125.605835,456.826356)"/>
</g>
<g clip-path="url(#clip5)" clip-rule="nonzero">
<path style="fill:none;stroke-width:0.99628;stroke-linecap:round;stroke-linejoin:round;stroke:rgb(0%,0%,0%);stroke-opacity:1;stroke-miterlimit:10;" d="M 128.521394 276.351726 L 128.521394 457.369063 M -9.052408 290.830294 L -9.052408 442.890495 M -56.113627 294.455809 L -56.113627 439.26498 M -124.900528 298.073494 L -124.900528 435.647296 M 40.714243 289.914128 L 40.745565 289.945449 C 39.238197 288.434166 38.012726 288.943147 38.012726 291.076955 L 38.012726 442.64775 C 38.012726 444.781557 39.238197 447.729735 40.745565 449.241019 L 40.714243 449.209697 C 42.221612 450.717066 43.443167 450.211999 43.443167 448.078192 L 43.443167 296.503481 C 43.443167 294.373589 42.221612 291.421496 40.714243 289.914128 Z M 40.714243 289.914128 " transform="matrix(0.997703,0,0,-0.997703,125.605835,456.826356)"/>
</g>
<path style="fill:none;stroke-width:3.9851;stroke-linecap:round;stroke-linejoin:round;stroke:rgb(0%,0%,0%);stroke-opacity:1;stroke-miterlimit:10;" d="M 34.395041 366.860395 L 41.634325 366.860395 " transform="matrix(0.997703,0,0,-0.997703,125.605835,456.826356)"/>
</g>
</svg>
