<?xml version="1.0" encoding="UTF-8"?>
<svg xmlns="http://www.w3.org/2000/svg" xmlns:xlink="http://www.w3.org/1999/xlink" width="253.736pt" height="24.608pt" viewBox="0 0 253.736 24.608" version="1.2">
<defs>
<clipPath id="clip1">
  <path d="M 1.859375 11 L 251.617188 11 L 251.617188 13 L 1.859375 13 Z M 1.859375 11 "/>
</clipPath>
<clipPath id="clip2">
  <path d="M 124 0 L 126 0 L 126 24.222656 L 124 24.222656 Z M 124 0 "/>
</clipPath>
</defs>
<g id="surface1">
<g clip-path="url(#clip1)" clip-rule="nonzero">
<path style="fill:none;stroke-width:0.3985;stroke-linecap:butt;stroke-linejoin:miter;stroke:rgb(0%,0%,0%);stroke-opacity:1;stroke-miterlimit:10;" d="M -0.000560976 0.00172533 L 120.716501 0.00172533 M 132.621928 0.00172533 L 253.342959 0.00172533 " transform="matrix(0.98432,0,0,-0.98432,2.05524,12.111073)"/>
</g>
<path style="fill:none;stroke-width:0.3985;stroke-linecap:butt;stroke-linejoin:miter;stroke:rgb(0%,0%,0%);stroke-opacity:1;stroke-miterlimit:10;" d="M 128.63361 0.00172533 L 132.621928 0.00172533 M 124.704819 0.00172533 L 120.716501 0.00172533 " transform="matrix(0.98432,0,0,-0.98432,2.05524,12.111073)"/>
<g clip-path="url(#clip2)" clip-rule="nonzero">
<path style="fill:none;stroke-width:0.797;stroke-linecap:butt;stroke-linejoin:miter;stroke:rgb(0%,0%,0%);stroke-opacity:1;stroke-miterlimit:10;" d="M 124.704819 11.907152 L 124.704819 -11.90767 " transform="matrix(0.98432,0,0,-0.98432,2.05524,12.111073)"/>
</g>
<path style="fill:none;stroke-width:2.39102;stroke-linecap:butt;stroke-linejoin:miter;stroke:rgb(0%,0%,0%);stroke-opacity:1;stroke-miterlimit:10;" d="M 128.63361 5.954439 L 128.63361 -5.950988 " transform="matrix(0.98432,0,0,-0.98432,2.05524,12.111073)"/>
</g>
</svg>
