<?xml version="1.0" encoding="UTF-8"?>
<svg xmlns="http://www.w3.org/2000/svg" xmlns:xlink="http://www.w3.org/1999/xlink" width="253.736pt" height="6.749pt" viewBox="0 0 253.736 6.749" version="1.2">
<defs>
<clipPath id="clip1">
  <path d="M 4.421875 5 L 249.058594 5 L 249.058594 6.507812 L 4.421875 6.507812 Z M 4.421875 5 "/>
</clipPath>
<clipPath id="clip2">
  <path d="M 110 0 L 143 0 L 143 6.507812 L 110 6.507812 Z M 110 0 "/>
</clipPath>
</defs>
<g id="surface1">
<g clip-path="url(#clip1)" clip-rule="nonzero">
<path style="fill:none;stroke-width:0.3985;stroke-linecap:butt;stroke-linejoin:miter;stroke:rgb(0%,0%,0%);stroke-opacity:1;stroke-miterlimit:10;" d="M -0.000456697 0.00026804 L 110.796629 0.00026804 M 142.544388 0.00026804 L 253.341474 0.00026804 " transform="matrix(0.964143,0,0,-0.964143,4.613722,5.969008)"/>
</g>
<g clip-path="url(#clip2)" clip-rule="nonzero">
<path style="fill:none;stroke-width:0.797;stroke-linecap:butt;stroke-linejoin:bevel;stroke:rgb(0%,0%,0%);stroke-opacity:1;stroke-miterlimit:10;" d="M 110.399579 -0.157741 C 110.399579 3.128046 112.218715 5.79395 114.467312 5.79395 C 116.711857 5.79395 118.535044 3.128046 118.535044 -0.157741 C 118.535044 3.128046 120.354179 5.79395 122.602776 5.79395 C 124.847322 5.79395 126.670508 3.128046 126.670508 -0.157741 C 126.670508 3.128046 128.493695 5.79395 130.738241 5.79395 C 132.986838 5.79395 134.805973 3.128046 134.805973 -0.157741 C 134.805973 3.128046 136.62916 5.79395 138.873705 5.79395 C 141.122302 5.79395 142.941437 3.128046 142.941437 -0.157741 " transform="matrix(0.964143,0,0,-0.964143,4.613722,5.969008)"/>
</g>
</g>
</svg>
