<?xml version="1.0" encoding="UTF-8"?>
<svg xmlns="http://www.w3.org/2000/svg" xmlns:xlink="http://www.w3.org/1999/xlink" width="255.119pt" height="141.802pt" viewBox="0 0 255.119 141.802" version="1.2">
<defs>
<clipPath id="clip1">
  <path d="M 99 118 L 148 118 L 148 141.460938 L 99 141.460938 Z M 99 118 "/>
</clipPath>
<clipPath id="clip2">
  <path d="M 106 138 L 111 138 L 111 141.460938 L 106 141.460938 Z M 106 138 "/>
</clipPath>
<clipPath id="clip3">
  <path d="M 101 132 L 116 132 L 116 141.460938 L 101 141.460938 Z M 101 132 "/>
</clipPath>
<clipPath id="clip4">
  <path d="M 136 138 L 140 138 L 140 141.460938 L 136 141.460938 Z M 136 138 "/>
</clipPath>
<clipPath id="clip5">
  <path d="M 130 132 L 146 132 L 146 141.460938 L 130 141.460938 Z M 130 132 "/>
</clipPath>
<clipPath id="clip6">
  <path d="M 213 53 L 254.242188 53 L 254.242188 93 L 213 93 Z M 213 53 "/>
</clipPath>
<clipPath id="clip7">
  <path d="M 238 64 L 254.242188 64 L 254.242188 82 L 238 82 Z M 238 64 "/>
</clipPath>
<clipPath id="clip8">
  <path d="M 244 68 L 254.242188 68 L 254.242188 84 L 244 84 Z M 244 68 "/>
</clipPath>
<clipPath id="clip9">
  <path d="M 236 69 L 254.242188 69 L 254.242188 87 L 236 87 Z M 236 69 "/>
</clipPath>
<clipPath id="clip10">
  <path d="M 242 73 L 254.242188 73 L 254.242188 88 L 242 88 Z M 242 73 "/>
</clipPath>
<clipPath id="clip11">
  <path d="M 107 0.144531 L 140 0.144531 L 140 13 L 107 13 Z M 107 0.144531 "/>
</clipPath>
</defs>
<g id="surface1">
<path style="fill:none;stroke-width:0.3985;stroke-linecap:butt;stroke-linejoin:miter;stroke:rgb(0%,0%,0%);stroke-opacity:1;stroke-miterlimit:10;" d="M 0.000062026 0.00183353 L 0.000062026 -60.879559 M 0.000062026 -72.787727 L 0.000062026 -133.6652 L 96.507966 -133.6652 M 126.270548 -133.6652 L 222.778452 -133.6652 L 222.778452 -74.771116 M 222.778452 -58.896171 L 222.778452 0.00183353 L 127.262242 0.00183353 M 95.512352 0.00183353 L 0.000062026 0.00183353 " transform="matrix(0.996559,0,0,-0.996559,12.261657,6.474483)"/>
<path style="fill:none;stroke-width:0.3985;stroke-linecap:butt;stroke-linejoin:miter;stroke:rgb(0%,0%,0%);stroke-opacity:1;stroke-miterlimit:10;" d="M 0.000062026 -64.869854 L 0.000062026 -60.879559 M 0.000062026 -68.797433 L 0.000062026 -72.787727 " transform="matrix(0.996559,0,0,-0.996559,12.261657,6.474483)"/>
<path style="fill:none;stroke-width:0.797;stroke-linecap:butt;stroke-linejoin:miter;stroke:rgb(0%,0%,0%);stroke-opacity:1;stroke-miterlimit:10;" d="M 11.904311 -68.797433 L -11.904187 -68.797433 " transform="matrix(0.996559,0,0,-0.996559,12.261657,6.474483)"/>
<path style="fill:none;stroke-width:2.39102;stroke-linecap:butt;stroke-linejoin:miter;stroke:rgb(0%,0%,0%);stroke-opacity:1;stroke-miterlimit:10;" d="M 5.954146 -64.869854 L -5.954022 -64.869854 " transform="matrix(0.996559,0,0,-0.996559,12.261657,6.474483)"/>
<g clip-path="url(#clip1)" clip-rule="nonzero">
<path style="fill:none;stroke-width:0.63483;stroke-linecap:round;stroke-linejoin:miter;stroke:rgb(0%,0%,0%);stroke-opacity:1;stroke-miterlimit:10;" d="M 96.507966 -133.6652 L 126.270548 -121.760952 " transform="matrix(0.996559,0,0,-0.996559,12.261657,6.474483)"/>
</g>
<g clip-path="url(#clip2)" clip-rule="nonzero">
<path style=" stroke:none;fill-rule:nonzero;fill:rgb(0%,0%,0%);fill-opacity:1;" d="M 110.015625 139.679688 C 110.015625 138.808594 109.308594 138.097656 108.4375 138.097656 C 107.5625 138.097656 106.855469 138.808594 106.855469 139.679688 C 106.855469 140.554688 107.5625 141.261719 108.4375 141.261719 C 109.308594 141.261719 110.015625 140.554688 110.015625 139.679688 Z M 110.015625 139.679688 "/>
</g>
<g clip-path="url(#clip3)" clip-rule="nonzero">
<path style="fill:none;stroke-width:0.3985;stroke-linecap:butt;stroke-linejoin:miter;stroke:rgb(0%,0%,0%);stroke-opacity:1;stroke-miterlimit:10;" d="M 98.091541 -133.6652 C 98.091541 -132.791098 97.382068 -132.077706 96.507966 -132.077706 C 95.629945 -132.077706 94.920472 -132.791098 94.920472 -133.6652 C 94.920472 -134.543222 95.629945 -135.252695 96.507966 -135.252695 C 97.382068 -135.252695 98.091541 -134.543222 98.091541 -133.6652 Z M 98.091541 -133.6652 " transform="matrix(0.996559,0,0,-0.996559,12.261657,6.474483)"/>
</g>
<g clip-path="url(#clip4)" clip-rule="nonzero">
<path style=" stroke:none;fill-rule:nonzero;fill:rgb(0%,0%,0%);fill-opacity:1;" d="M 139.679688 139.679688 C 139.679688 138.808594 138.972656 138.097656 138.097656 138.097656 C 137.222656 138.097656 136.515625 138.808594 136.515625 139.679688 C 136.515625 140.554688 137.222656 141.261719 138.097656 141.261719 C 138.972656 141.261719 139.679688 140.554688 139.679688 139.679688 Z M 139.679688 139.679688 "/>
</g>
<g clip-path="url(#clip5)" clip-rule="nonzero">
<path style="fill:none;stroke-width:0.3985;stroke-linecap:butt;stroke-linejoin:miter;stroke:rgb(0%,0%,0%);stroke-opacity:1;stroke-miterlimit:10;" d="M 127.858042 -133.6652 C 127.858042 -132.791098 127.148569 -132.077706 126.270548 -132.077706 C 125.392526 -132.077706 124.683053 -132.791098 124.683053 -133.6652 C 124.683053 -134.543222 125.392526 -135.252695 126.270548 -135.252695 C 127.148569 -135.252695 127.858042 -134.543222 127.858042 -133.6652 Z M 127.858042 -133.6652 " transform="matrix(0.996559,0,0,-0.996559,12.261657,6.474483)"/>
</g>
<g clip-path="url(#clip6)" clip-rule="nonzero">
<path style="fill:none;stroke-width:0.797;stroke-linecap:butt;stroke-linejoin:miter;stroke:rgb(0%,0%,0%);stroke-opacity:1;stroke-miterlimit:10;" d="M 222.778452 -74.771116 L 232.699312 -58.896171 L 212.853672 -58.896171 Z M 222.778452 -74.771116 " transform="matrix(0.996559,0,0,-0.996559,12.261657,6.474483)"/>
</g>
<path style="fill:none;stroke-width:0.3985;stroke-linecap:butt;stroke-linejoin:miter;stroke:rgb(0%,0%,0%);stroke-opacity:1;stroke-miterlimit:10;" d="M 222.778452 -74.771116 L 222.778452 -58.896171 " transform="matrix(0.996559,0,0,-0.996559,12.261657,6.474483)"/>
<path style="fill:none;stroke-width:0.797;stroke-linecap:butt;stroke-linejoin:miter;stroke:rgb(0%,0%,0%);stroke-opacity:1;stroke-miterlimit:10;" d="M 212.853672 -74.771116 L 232.699312 -74.771116 " transform="matrix(0.996559,0,0,-0.996559,12.261657,6.474483)"/>
<g clip-path="url(#clip7)" clip-rule="nonzero">
<path style="fill:none;stroke-width:0.3985;stroke-linecap:butt;stroke-linejoin:miter;stroke:rgb(0%,0%,0%);stroke-opacity:1;stroke-miterlimit:10;" d="M 232.699312 -63.658654 L 239.907713 -69.424591 " transform="matrix(0.996559,0,0,-0.996559,12.261657,6.474483)"/>
</g>
<path style=" stroke:none;fill-rule:nonzero;fill:rgb(0%,0%,0%);fill-opacity:1;" d="M 253.734375 77.574219 L 252.519531 74.351562 L 251.421875 75.722656 L 250.324219 77.097656 Z M 253.734375 77.574219 "/>
<g clip-path="url(#clip8)" clip-rule="nonzero">
<path style="fill:none;stroke-width:0.3985;stroke-linecap:butt;stroke-linejoin:miter;stroke:rgb(0%,0%,0%);stroke-opacity:1;stroke-miterlimit:10;" d="M 3.171718 -0.000140216 L 0.199491 1.763625 L 0.19887 0.00109812 L 0.200699 -1.76449 Z M 3.171718 -0.000140216 " transform="matrix(0.778133,0.6225,0.6225,-0.778133,251.266444,75.599714)"/>
</g>
<g clip-path="url(#clip9)" clip-rule="nonzero">
<path style="fill:none;stroke-width:0.3985;stroke-linecap:butt;stroke-linejoin:miter;stroke:rgb(0%,0%,0%);stroke-opacity:1;stroke-miterlimit:10;" d="M 230.712004 -68.421138 L 237.924325 -74.187074 " transform="matrix(0.996559,0,0,-0.996559,12.261657,6.474483)"/>
</g>
<path style=" stroke:none;fill-rule:nonzero;fill:rgb(0%,0%,0%);fill-opacity:1;" d="M 251.757812 82.320312 L 250.542969 79.097656 L 248.347656 81.839844 Z M 251.757812 82.320312 "/>
<g clip-path="url(#clip10)" clip-rule="nonzero">
<path style="fill:none;stroke-width:0.3985;stroke-linecap:butt;stroke-linejoin:miter;stroke:rgb(0%,0%,0%);stroke-opacity:1;stroke-miterlimit:10;" d="M 3.172631 0.0000988149 L 0.200403 1.763864 L 0.199162 -1.76119 Z M 3.172631 0.0000988149 " transform="matrix(0.778133,0.6225,0.6225,-0.778133,249.289023,80.345426)"/>
</g>
<g clip-path="url(#clip11)" clip-rule="nonzero">
<path style="fill:none;stroke-width:0.797;stroke-linecap:butt;stroke-linejoin:miter;stroke:rgb(0%,0%,0%);stroke-opacity:1;stroke-miterlimit:10;" d="M 95.512352 5.951998 L 127.262242 5.951998 L 127.262242 -5.952251 L 95.512352 -5.952251 Z M 95.512352 5.951998 " transform="matrix(0.996559,0,0,-0.996559,12.261657,6.474483)"/>
</g>
</g>
</svg>
