<?xml version="1.0" encoding="UTF-8"?>
<svg xmlns="http://www.w3.org/2000/svg" xmlns:xlink="http://www.w3.org/1999/xlink" width="255.119pt" height="152.397pt" viewBox="0 0 255.119 152.397" version="1.2">
<defs>
<clipPath id="clip1">
  <path d="M 12 10 L 249 10 L 249 151.796875 L 12 151.796875 Z M 12 10 "/>
</clipPath>
<clipPath id="clip2">
  <path d="M 0.0625 82 L 25 82 L 25 84 L 0.0625 84 Z M 0.0625 82 "/>
</clipPath>
<clipPath id="clip3">
  <path d="M 241 64 L 254.175781 64 L 254.175781 98 L 241 98 Z M 241 64 "/>
</clipPath>
</defs>
<g id="surface1">
<path style="fill:none;stroke-width:0.3985;stroke-linecap:butt;stroke-linejoin:miter;stroke:rgb(0%,0%,0%);stroke-opacity:1;stroke-miterlimit:10;" d="M 70.94058 -0.00193055 L 110.294901 -0.00193055 M 126.169967 -0.00193055 L 165.52821 -0.00193055 " transform="matrix(0.996059,0,0,-0.996059,12.319478,10.279327)"/>
<path style="fill:none;stroke-width:0.797;stroke-linecap:butt;stroke-linejoin:miter;stroke:rgb(0%,0%,0%);stroke-opacity:1;stroke-miterlimit:10;" d="M 126.169967 -0.00193055 L 110.294901 9.919986 L 110.294901 -9.919925 Z M 126.169967 -0.00193055 " transform="matrix(0.996059,0,0,-0.996059,12.319478,10.279327)"/>
<path style="fill:none;stroke-width:0.3985;stroke-linecap:butt;stroke-linejoin:miter;stroke:rgb(0%,0%,0%);stroke-opacity:1;stroke-miterlimit:10;" d="M 126.169967 -0.00193055 L 110.294901 -0.00193055 " transform="matrix(0.996059,0,0,-0.996059,12.319478,10.279327)"/>
<path style="fill:none;stroke-width:0.797;stroke-linecap:butt;stroke-linejoin:miter;stroke:rgb(0%,0%,0%);stroke-opacity:1;stroke-miterlimit:10;" d="M 126.169967 -9.919925 L 126.169967 9.919986 " transform="matrix(0.996059,0,0,-0.996059,12.319478,10.279327)"/>
<g clip-path="url(#clip1)" clip-rule="nonzero">
<path style="fill:none;stroke-width:0.3985;stroke-linecap:butt;stroke-linejoin:miter;stroke:rgb(0%,0%,0%);stroke-opacity:1;stroke-miterlimit:10;" d="M 70.94058 -0.00193055 L 0.000837448 -0.00193055 L 0.000837448 -64.988523 M 0.000837448 -76.890901 L 0.000837448 -141.881415 L 236.467952 -141.881415 L 236.467952 -86.812818 M 236.467952 -55.066606 L 236.467952 -0.00193055 L 165.52821 -0.00193055 " transform="matrix(0.996059,0,0,-0.996059,12.319478,10.279327)"/>
</g>
<path style="fill:none;stroke-width:0.3985;stroke-linecap:butt;stroke-linejoin:miter;stroke:rgb(0%,0%,0%);stroke-opacity:1;stroke-miterlimit:10;" d="M 0.000837448 -68.976898 L 0.000837448 -64.988523 M 0.000837448 -72.902526 L 0.000837448 -76.890901 " transform="matrix(0.996059,0,0,-0.996059,12.319478,10.279327)"/>
<g clip-path="url(#clip2)" clip-rule="nonzero">
<path style="fill:none;stroke-width:0.797;stroke-linecap:butt;stroke-linejoin:miter;stroke:rgb(0%,0%,0%);stroke-opacity:1;stroke-miterlimit:10;" d="M 11.907137 -72.902526 L -11.905462 -72.902526 " transform="matrix(0.996059,0,0,-0.996059,12.319478,10.279327)"/>
</g>
<path style="fill:none;stroke-width:2.39102;stroke-linecap:butt;stroke-linejoin:miter;stroke:rgb(0%,0%,0%);stroke-opacity:1;stroke-miterlimit:10;" d="M 5.953987 -68.976898 L -5.952312 -68.976898 " transform="matrix(0.996059,0,0,-0.996059,12.319478,10.279327)"/>
<g clip-path="url(#clip3)" clip-rule="nonzero">
<path style="fill:none;stroke-width:0.797;stroke-linecap:butt;stroke-linejoin:miter;stroke:rgb(0%,0%,0%);stroke-opacity:1;stroke-miterlimit:10;" d="M 242.421102 -55.066606 L 242.421102 -86.812818 L 230.514802 -86.812818 L 230.514802 -55.066606 Z M 242.421102 -55.066606 " transform="matrix(0.996059,0,0,-0.996059,12.319478,10.279327)"/>
</g>
</g>
</svg>
