<?xml version="1.0" encoding="UTF-8"?>
<svg xmlns="http://www.w3.org/2000/svg" xmlns:xlink="http://www.w3.org/1999/xlink" width="255.119pt" height="146.047pt" viewBox="0 0 255.119 146.047" version="1.2">
<defs>
<clipPath id="clip1">
  <path d="M 12 6 L 244 6 L 244 145.101562 L 12 145.101562 Z M 12 6 "/>
</clipPath>
<clipPath id="clip2">
  <path d="M 0.390625 73 L 25 73 L 25 75 L 0.390625 75 Z M 0.390625 73 "/>
</clipPath>
<clipPath id="clip3">
  <path d="M 222 56 L 253.855469 56 L 253.855469 95 L 222 95 Z M 222 56 "/>
</clipPath>
<clipPath id="clip4">
  <path d="M 233 67 L 253.855469 67 L 253.855469 69 L 233 69 Z M 233 67 "/>
</clipPath>
</defs>
<g id="surface1">
<path style="fill:none;stroke-width:0.3985;stroke-linecap:butt;stroke-linejoin:miter;stroke:rgb(0%,0%,0%);stroke-opacity:1;stroke-miterlimit:10;" d="M 69.748781 0.0012408 L 100.373099 0.0012408 M 132.121895 0.0012408 L 162.750145 0.0012408 " transform="matrix(0.993517,0,0,-0.993517,12.613556,6.309827)"/>
<path style="fill:none;stroke-width:0.797;stroke-linecap:butt;stroke-linejoin:miter;stroke:rgb(0%,0%,0%);stroke-opacity:1;stroke-miterlimit:10;" d="M 100.373099 5.953894 L 132.121895 5.953894 L 132.121895 -5.951413 L 100.373099 -5.951413 Z M 100.373099 5.953894 " transform="matrix(0.993517,0,0,-0.993517,12.613556,6.309827)"/>
<g clip-path="url(#clip1)" clip-rule="nonzero">
<path style="fill:none;stroke-width:0.3985;stroke-linecap:butt;stroke-linejoin:miter;stroke:rgb(0%,0%,0%);stroke-opacity:1;stroke-miterlimit:10;" d="M 69.748781 0.0012408 L -0.000276926 0.0012408 L -0.000276926 -63.795163 M -0.000276926 -75.70047 L -0.000276926 -139.496875 L 232.499203 -139.496875 L 232.499203 -77.685999 M 232.499203 -61.813567 L 232.499203 0.0012408 L 162.750145 0.0012408 " transform="matrix(0.993517,0,0,-0.993517,12.613556,6.309827)"/>
</g>
<path style="fill:none;stroke-width:0.3985;stroke-linecap:butt;stroke-linejoin:miter;stroke:rgb(0%,0%,0%);stroke-opacity:1;stroke-miterlimit:10;" d="M -0.000276926 -71.713687 L -0.000276926 -75.70047 M -0.000276926 -67.785879 L -0.000276926 -63.795163 " transform="matrix(0.993517,0,0,-0.993517,12.613556,6.309827)"/>
<g clip-path="url(#clip2)" clip-rule="nonzero">
<path style="fill:none;stroke-width:0.797;stroke-linecap:butt;stroke-linejoin:miter;stroke:rgb(0%,0%,0%);stroke-opacity:1;stroke-miterlimit:10;" d="M 11.90503 -67.785879 L -11.905584 -67.785879 " transform="matrix(0.993517,0,0,-0.993517,12.613556,6.309827)"/>
</g>
<path style="fill:none;stroke-width:2.39102;stroke-linecap:butt;stroke-linejoin:miter;stroke:rgb(0%,0%,0%);stroke-opacity:1;stroke-miterlimit:10;" d="M 5.952377 -71.713687 L -5.95293 -71.713687 " transform="matrix(0.993517,0,0,-0.993517,12.613556,6.309827)"/>
<g clip-path="url(#clip3)" clip-rule="nonzero">
<path style="fill:none;stroke-width:0.797;stroke-linecap:butt;stroke-linejoin:miter;stroke:rgb(0%,0%,0%);stroke-opacity:1;stroke-miterlimit:10;" d="M 232.499203 -61.813567 L 222.575493 -77.685999 L 242.418982 -77.685999 Z M 232.499203 -61.813567 " transform="matrix(0.993517,0,0,-0.993517,12.613556,6.309827)"/>
</g>
<path style="fill:none;stroke-width:0.3985;stroke-linecap:butt;stroke-linejoin:miter;stroke:rgb(0%,0%,0%);stroke-opacity:1;stroke-miterlimit:10;" d="M 232.499203 -61.813567 L 232.499203 -77.685999 " transform="matrix(0.993517,0,0,-0.993517,12.613556,6.309827)"/>
<g clip-path="url(#clip4)" clip-rule="nonzero">
<path style="fill:none;stroke-width:0.797;stroke-linecap:butt;stroke-linejoin:miter;stroke:rgb(0%,0%,0%);stroke-opacity:1;stroke-miterlimit:10;" d="M 242.418982 -61.813567 L 222.575493 -61.813567 " transform="matrix(0.993517,0,0,-0.993517,12.613556,6.309827)"/>
</g>
</g>
</svg>
