<?xml version="1.0" encoding="UTF-8"?>
<svg xmlns="http://www.w3.org/2000/svg" xmlns:xlink="http://www.w3.org/1999/xlink" width="253.736pt" height="30.361pt" viewBox="0 0 253.736 30.361" version="1.2">
<defs>
<clipPath id="clip1">
  <path d="M 2.484375 9 L 250.992188 9 L 250.992188 11 L 2.484375 11 Z M 2.484375 9 "/>
</clipPath>
<clipPath id="clip2">
  <path d="M 107 0 L 146 0 L 146 29.734375 L 107 29.734375 Z M 107 0 "/>
</clipPath>
<clipPath id="clip3">
  <path d="M 118 14 L 135 14 L 135 29.734375 L 118 29.734375 Z M 118 14 "/>
</clipPath>
<clipPath id="clip4">
  <path d="M 127 25 L 132 25 L 132 29.734375 L 127 29.734375 Z M 127 25 "/>
</clipPath>
<clipPath id="clip5">
  <path d="M 122 20 L 137 20 L 137 29.734375 L 122 29.734375 Z M 122 20 "/>
</clipPath>
<clipPath id="clip6">
  <path d="M 122 12 L 140 12 L 140 29.734375 L 122 29.734375 Z M 122 12 "/>
</clipPath>
<clipPath id="clip7">
  <path d="M 127 18 L 142 18 L 142 29.734375 L 127 29.734375 Z M 127 18 "/>
</clipPath>
</defs>
<g id="surface1">
<g clip-path="url(#clip1)" clip-rule="nonzero">
<path style="fill:none;stroke-width:0.3985;stroke-linecap:butt;stroke-linejoin:miter;stroke:rgb(0%,0%,0%);stroke-opacity:1;stroke-miterlimit:10;" d="M -0.00107133 0.000844101 L 118.735497 0.000844101 M 134.605594 0.000844101 L 253.342162 0.000844101 " transform="matrix(0.979387,0,0,-0.979387,2.680737,10.106295)"/>
</g>
<g clip-path="url(#clip2)" clip-rule="nonzero">
<path style="fill:none;stroke-width:0.797;stroke-linecap:butt;stroke-linejoin:miter;stroke:rgb(0%,0%,0%);stroke-opacity:1;stroke-miterlimit:10;" d="M 134.605594 0.000844101 L 118.735497 -9.922454 L 118.735497 9.920154 Z M 134.605594 0.000844101 " transform="matrix(0.979387,0,0,-0.979387,2.680737,10.106295)"/>
</g>
<path style="fill:none;stroke-width:0.3985;stroke-linecap:butt;stroke-linejoin:miter;stroke:rgb(0%,0%,0%);stroke-opacity:1;stroke-miterlimit:10;" d="M 134.605594 0.000844101 L 118.735497 0.000844101 " transform="matrix(0.979387,0,0,-0.979387,2.680737,10.106295)"/>
<path style="fill:none;stroke-width:0.797;stroke-linecap:butt;stroke-linejoin:miter;stroke:rgb(0%,0%,0%);stroke-opacity:1;stroke-miterlimit:10;" d="M 134.605594 9.920154 L 134.605594 -9.922454 " transform="matrix(0.979387,0,0,-0.979387,2.680737,10.106295)"/>
<g clip-path="url(#clip3)" clip-rule="nonzero">
<path style="fill:none;stroke-width:0.3985;stroke-linecap:butt;stroke-linejoin:miter;stroke:rgb(0%,0%,0%);stroke-opacity:1;stroke-miterlimit:10;" d="M 123.497722 -9.922454 L 129.265041 -17.129608 " transform="matrix(0.979387,0,0,-0.979387,2.680737,10.106295)"/>
</g>
<g clip-path="url(#clip4)" clip-rule="nonzero">
<path style=" stroke:none;fill-rule:nonzero;fill:rgb(0%,0%,0%);fill-opacity:1;" d="M 131.160156 29.234375 L 130.6875 25.882812 L 127.992188 28.039062 Z M 131.160156 29.234375 "/>
</g>
<g clip-path="url(#clip5)" clip-rule="nonzero">
<path style="fill:none;stroke-width:0.3985;stroke-linecap:butt;stroke-linejoin:miter;stroke:rgb(0%,0%,0%);stroke-opacity:1;stroke-miterlimit:10;" d="M 3.1726 0.000265979 L 0.198701 1.761288 L 0.198718 -1.763276 Z M 3.1726 0.000265979 " transform="matrix(0.611774,0.764725,0.764725,-0.611774,129.219038,26.808371)"/>
</g>
<g clip-path="url(#clip6)" clip-rule="nonzero">
<path style="fill:none;stroke-width:0.3985;stroke-linecap:butt;stroke-linejoin:miter;stroke:rgb(0%,0%,0%);stroke-opacity:1;stroke-miterlimit:10;" d="M 128.25596 -7.936199 L 134.027267 -15.147341 " transform="matrix(0.979387,0,0,-0.979387,2.680737,10.106295)"/>
</g>
<path style=" stroke:none;fill-rule:nonzero;fill:rgb(0%,0%,0%);fill-opacity:1;" d="M 135.824219 27.292969 L 135.351562 23.9375 L 134.003906 25.015625 L 132.65625 26.097656 Z M 135.824219 27.292969 "/>
<g clip-path="url(#clip7)" clip-rule="nonzero">
<path style="fill:none;stroke-width:0.3985;stroke-linecap:butt;stroke-linejoin:miter;stroke:rgb(0%,0%,0%);stroke-opacity:1;stroke-miterlimit:10;" d="M 3.174234 -0.000867118 L 0.197221 1.762647 L 0.197229 0.000364802 L 0.200352 -1.764409 Z M 3.174234 -0.000867118 " transform="matrix(0.611774,0.764725,0.764725,-0.611774,133.882968,24.865022)"/>
</g>
</g>
</svg>
