<?xml version="1.0" encoding="UTF-8"?>
<svg xmlns="http://www.w3.org/2000/svg" xmlns:xlink="http://www.w3.org/1999/xlink" width="257.34pt" height="76.198pt" viewBox="0 0 257.34 76.198" version="1.2">
<defs>
<clipPath id="clip1">
  <path d="M 1.011719 0 L 33 0 L 33 32 L 1.011719 32 Z M 1.011719 0 "/>
</clipPath>
<clipPath id="clip2">
  <path d="M 25 57 L 51 57 L 51 75.40625 L 25 75.40625 Z M 25 57 "/>
</clipPath>
<clipPath id="clip3">
  <path d="M 74 43 L 106 43 L 106 75.40625 L 74 75.40625 Z M 74 43 "/>
</clipPath>
<clipPath id="clip4">
  <path d="M 126 41 L 158 41 L 158 75.40625 L 126 75.40625 Z M 126 41 "/>
</clipPath>
<clipPath id="clip5">
  <path d="M 179 43 L 210 43 L 210 75.40625 L 179 75.40625 Z M 179 43 "/>
</clipPath>
<clipPath id="clip6">
  <path d="M 222 32 L 255.671875 32 L 255.671875 75.40625 L 222 75.40625 Z M 222 32 "/>
</clipPath>
</defs>
<g id="surface1">
<path style="fill:none;stroke-width:0.3985;stroke-linecap:butt;stroke-linejoin:miter;stroke:rgb(0%,0%,0%);stroke-opacity:1;stroke-miterlimit:10;" d="M -0.00118621 79.269066 L 12.531695 79.269066 M 40.313243 79.269066 L 65.379005 79.269066 M 93.160554 79.269066 L 118.226316 79.269066 M 146.007865 79.269066 L 171.073627 79.269066 M 198.851228 79.269066 L 217.991996 79.269066 M 217.991996 79.269066 L 224.599884 79.269066 " transform="matrix(0.989584,0,0,-0.989584,11.423049,137.744213)"/>
<path style="fill:none;stroke-width:0.3985;stroke-linecap:butt;stroke-linejoin:miter;stroke:rgb(0%,0%,0%);stroke-opacity:1;stroke-miterlimit:10;" d="M -0.198554 79.269066 L -0.198554 138.799264 " transform="matrix(0.989584,0,0,-0.989584,11.423049,137.744213)"/>
<g clip-path="url(#clip1)" clip-rule="nonzero">
<path style="fill:none;stroke-width:0.797;stroke-linecap:butt;stroke-linejoin:miter;stroke:rgb(0%,0%,0%);stroke-opacity:1;stroke-miterlimit:10;" d="M -0.198554 138.799264 L 9.721172 138.799264 L -0.198554 118.955864 L -10.122228 138.799264 L -0.198554 138.799264 " transform="matrix(0.989584,0,0,-0.989584,11.423049,137.744213)"/>
</g>
<path style="fill:none;stroke-width:0.797;stroke-linecap:butt;stroke-linejoin:miter;stroke:rgb(0%,0%,0%);stroke-opacity:1;stroke-miterlimit:10;" d="M 12.531695 93.15984 L 40.313243 93.15984 L 40.313243 65.378291 L 12.531695 65.378291 Z M 12.531695 93.15984 " transform="matrix(0.989584,0,0,-0.989584,11.423049,137.744213)"/>
<path style="fill:none;stroke-width:0.3985;stroke-linecap:butt;stroke-linejoin:miter;stroke:rgb(0%,0%,0%);stroke-opacity:1;stroke-miterlimit:10;" d="M 19.479056 86.216426 C 20.611949 87.99274 21.693527 89.686159 22.952736 89.686159 C 24.207998 89.686159 25.289576 87.99274 26.422469 86.216426 C 27.555363 84.436165 28.63694 82.742746 29.89615 82.742746 C 31.151411 82.742746 32.236936 84.436165 33.36983 86.216426 M 28.506677 88.296687 L 24.338261 84.132218 " transform="matrix(0.989584,0,0,-0.989584,11.423049,137.744213)"/>
<path style="fill:none;stroke-width:0.3985;stroke-linecap:butt;stroke-linejoin:miter;stroke:rgb(0%,0%,0%);stroke-opacity:1;stroke-miterlimit:10;" d="M 19.479056 79.269066 C 20.611949 81.049327 21.693527 82.742746 22.952736 82.742746 C 24.207998 82.742746 25.289576 81.049327 26.422469 79.269066 C 27.555363 77.492752 28.63694 75.799332 29.89615 75.799332 C 31.151411 75.799332 32.236936 77.492752 33.36983 79.269066 " transform="matrix(0.989584,0,0,-0.989584,11.423049,137.744213)"/>
<g clip-path="url(#clip2)" clip-rule="nonzero">
<path style="fill:none;stroke-width:0.3985;stroke-linecap:butt;stroke-linejoin:miter;stroke:rgb(0%,0%,0%);stroke-opacity:1;stroke-miterlimit:10;" d="M 19.479056 72.325652 C 20.611949 74.101966 21.693527 75.799332 22.952736 75.799332 C 24.207998 75.799332 25.289576 74.101966 26.422469 72.325652 C 27.555363 70.545391 28.63694 68.851972 29.89615 68.851972 C 31.151411 68.851972 32.236936 70.545391 33.36983 72.325652 M 28.506677 74.40986 L 24.338261 70.241444 " transform="matrix(0.989584,0,0,-0.989584,11.423049,137.744213)"/>
</g>
<path style="fill:none;stroke-width:0.797;stroke-linecap:butt;stroke-linejoin:miter;stroke:rgb(0%,0%,0%);stroke-opacity:1;stroke-miterlimit:10;" d="M 65.379005 93.15984 L 93.160554 93.15984 L 93.160554 65.378291 L 65.379005 65.378291 Z M 65.379005 93.15984 " transform="matrix(0.989584,0,0,-0.989584,11.423049,137.744213)"/>
<g clip-path="url(#clip3)" clip-rule="nonzero">
<path style="fill:none;stroke-width:0.3985;stroke-linecap:butt;stroke-linejoin:miter;stroke:rgb(0%,0%,0%);stroke-opacity:1;stroke-miterlimit:10;" d="M 69.547422 89.966422 L 88.992138 79.269066 L 69.547422 68.575656 Z M 69.547422 89.966422 " transform="matrix(0.989584,0,0,-0.989584,11.423049,137.744213)"/>
</g>
<path style="fill:none;stroke-width:0.797;stroke-linecap:butt;stroke-linejoin:miter;stroke:rgb(0%,0%,0%);stroke-opacity:1;stroke-miterlimit:10;" d="M 118.226316 93.15984 L 146.007865 93.15984 L 146.007865 65.378291 L 118.226316 65.378291 Z M 118.226316 93.15984 " transform="matrix(0.989584,0,0,-0.989584,11.423049,137.744213)"/>
<path style="fill:none;stroke-width:0.31879;stroke-linecap:butt;stroke-linejoin:miter;stroke:rgb(0%,0%,0%);stroke-opacity:1;stroke-miterlimit:10;" d="M 121.699996 79.269066 L 142.534184 79.269066 " transform="matrix(0.989584,0,0,-0.989584,11.423049,137.744213)"/>
<g clip-path="url(#clip4)" clip-rule="nonzero">
<path style="fill:none;stroke-width:0.63759;stroke-linecap:butt;stroke-linejoin:miter;stroke:rgb(0%,0%,0%);stroke-opacity:1;stroke-miterlimit:10;" d="M 139.060504 79.269066 L 125.16973 87.953267 L 125.16973 70.588812 Z M 139.060504 79.269066 " transform="matrix(0.989584,0,0,-0.989584,11.423049,137.744213)"/>
</g>
<path style="fill:none;stroke-width:0.63759;stroke-linecap:butt;stroke-linejoin:miter;stroke:rgb(0%,0%,0%);stroke-opacity:1;stroke-miterlimit:10;" d="M 139.060504 70.588812 L 139.060504 87.953267 " transform="matrix(0.989584,0,0,-0.989584,11.423049,137.744213)"/>
<path style="fill:none;stroke-width:0.797;stroke-linecap:butt;stroke-linejoin:miter;stroke:rgb(0%,0%,0%);stroke-opacity:1;stroke-miterlimit:10;" d="M 171.073627 93.15984 L 198.851228 93.15984 L 198.851228 65.378291 L 171.073627 65.378291 Z M 171.073627 93.15984 " transform="matrix(0.989584,0,0,-0.989584,11.423049,137.744213)"/>
<g clip-path="url(#clip5)" clip-rule="nonzero">
<path style="fill:none;stroke-width:0.3985;stroke-linecap:butt;stroke-linejoin:miter;stroke:rgb(0%,0%,0%);stroke-opacity:1;stroke-miterlimit:10;" d="M 175.242043 89.966422 L 194.686759 79.269066 L 175.242043 68.575656 Z M 175.242043 89.966422 " transform="matrix(0.989584,0,0,-0.989584,11.423049,137.744213)"/>
</g>
<g clip-path="url(#clip6)" clip-rule="nonzero">
<path style="fill:none;stroke-width:0.797;stroke-linecap:butt;stroke-linejoin:miter;stroke:rgb(0%,0%,0%);stroke-opacity:1;stroke-miterlimit:10;" d="M 224.599884 63.396714 L 224.599884 95.145364 L 236.89987 95.145364 L 236.89987 63.396714 Z M 236.89987 87.207215 L 246.42486 91.967736 L 246.42486 66.570395 L 236.89987 71.330916 Z M 236.89987 87.207215 " transform="matrix(0.989584,0,0,-0.989584,11.423049,137.744213)"/>
</g>
</g>
</svg>
