<?xml version="1.0" encoding="UTF-8"?>
<svg xmlns="http://www.w3.org/2000/svg" xmlns:xlink="http://www.w3.org/1999/xlink" width="254.624pt" height="14.009pt" viewBox="0 0 254.624 14.009" version="1.2">
<defs>
<clipPath id="clip1">
  <path d="M 8.234375 11 L 246.039062 11 L 246.039062 12 L 8.234375 12 Z M 8.234375 11 "/>
</clipPath>
<clipPath id="clip2">
  <path d="M 104 0 L 150 0 L 150 13.082031 L 104 13.082031 Z M 104 0 "/>
</clipPath>
<clipPath id="clip3">
  <path d="M 106 4 L 120 4 L 120 13.082031 L 106 13.082031 Z M 106 4 "/>
</clipPath>
<clipPath id="clip4">
  <path d="M 134 4 L 148 4 L 148 13.082031 L 134 13.082031 Z M 134 4 "/>
</clipPath>
</defs>
<g id="surface1">
<g clip-path="url(#clip1)" clip-rule="nonzero">
<path style="fill:none;stroke-width:0.3985;stroke-linecap:butt;stroke-linejoin:miter;stroke:rgb(0%,0%,0%);stroke-opacity:1;stroke-miterlimit:10;" d="M 0.000559212 0.001504 L 112.231703 0.001504 M 141.994936 0.001504 L 254.230262 0.001504 " transform="matrix(0.933933,0,0,-0.933933,8.421353,11.415467)"/>
</g>
<g clip-path="url(#clip2)" clip-rule="nonzero">
<path style="fill:none;stroke-width:0.63483;stroke-linecap:round;stroke-linejoin:miter;stroke:rgb(0%,0%,0%);stroke-opacity:1;stroke-miterlimit:10;" d="M 112.231703 0.001504 L 141.994936 11.905124 " transform="matrix(0.933933,0,0,-0.933933,8.421353,11.415467)"/>
</g>
<path style=" stroke:none;fill-rule:nonzero;fill:rgb(0%,0%,0%);fill-opacity:1;" d="M 114.722656 11.414062 C 114.722656 10.597656 114.058594 9.933594 113.238281 9.933594 C 112.421875 9.933594 111.757812 10.597656 111.757812 11.414062 C 111.757812 12.234375 112.421875 12.898438 113.238281 12.898438 C 114.058594 12.898438 114.722656 12.234375 114.722656 11.414062 Z M 114.722656 11.414062 "/>
<g clip-path="url(#clip3)" clip-rule="nonzero">
<path style="fill:none;stroke-width:0.3985;stroke-linecap:butt;stroke-linejoin:miter;stroke:rgb(0%,0%,0%);stroke-opacity:1;stroke-miterlimit:10;" d="M 113.821083 0.001504 C 113.821083 0.875663 113.110045 1.586701 112.231703 1.586701 C 111.357544 1.586701 110.646506 0.875663 110.646506 0.001504 C 110.646506 -0.876838 111.357544 -1.587876 112.231703 -1.587876 C 113.110045 -1.587876 113.821083 -0.876838 113.821083 0.001504 Z M 113.821083 0.001504 " transform="matrix(0.933933,0,0,-0.933933,8.421353,11.415467)"/>
</g>
<path style=" stroke:none;fill-rule:nonzero;fill:rgb(0%,0%,0%);fill-opacity:1;" d="M 142.519531 11.414062 C 142.519531 10.597656 141.855469 9.933594 141.035156 9.933594 C 140.21875 9.933594 139.554688 10.597656 139.554688 11.414062 C 139.554688 12.234375 140.21875 12.898438 141.035156 12.898438 C 141.855469 12.898438 142.519531 12.234375 142.519531 11.414062 Z M 142.519531 11.414062 "/>
<g clip-path="url(#clip4)" clip-rule="nonzero">
<path style="fill:none;stroke-width:0.3985;stroke-linecap:butt;stroke-linejoin:miter;stroke:rgb(0%,0%,0%);stroke-opacity:1;stroke-miterlimit:10;" d="M 143.584316 0.001504 C 143.584316 0.875663 142.873277 1.586701 141.994936 1.586701 C 141.120777 1.586701 140.409738 0.875663 140.409738 0.001504 C 140.409738 -0.876838 141.120777 -1.587876 141.994936 -1.587876 C 142.873277 -1.587876 143.584316 -0.876838 143.584316 0.001504 Z M 143.584316 0.001504 " transform="matrix(0.933933,0,0,-0.933933,8.421353,11.415467)"/>
</g>
</g>
</svg>
