<?xml version="1.0" encoding="UTF-8"?>
<svg xmlns="http://www.w3.org/2000/svg" xmlns:xlink="http://www.w3.org/1999/xlink" width="253.443pt" height="133.073pt" viewBox="0 0 253.443 133.073" version="1.2">
<defs>
<clipPath id="clip1">
  <path d="M 0.601562 128 L 4 128 L 4 132 L 0.601562 132 Z M 0.601562 128 "/>
</clipPath>
<clipPath id="clip2">
  <path d="M 0.601562 123 L 10 123 L 10 132.152344 L 0.601562 132.152344 Z M 0.601562 123 "/>
</clipPath>
<clipPath id="clip3">
  <path d="M 248 128 L 252.289062 128 L 252.289062 132 L 248 132 Z M 248 128 "/>
</clipPath>
<clipPath id="clip4">
  <path d="M 243 123 L 252.289062 123 L 252.289062 132.152344 L 243 132.152344 Z M 243 123 "/>
</clipPath>
<clipPath id="clip5">
  <path d="M 0.601562 4 L 4 4 L 4 8 L 0.601562 8 Z M 0.601562 4 "/>
</clipPath>
<clipPath id="clip6">
  <path d="M 0.601562 0 L 10 0 L 10 14 L 0.601562 14 Z M 0.601562 0 "/>
</clipPath>
<clipPath id="clip7">
  <path d="M 248 4 L 252.289062 4 L 252.289062 8 L 248 8 Z M 248 4 "/>
</clipPath>
<clipPath id="clip8">
  <path d="M 243 0 L 252.289062 0 L 252.289062 14 L 243 14 Z M 243 0 "/>
</clipPath>
<clipPath id="clip9">
  <path d="M 160 123 L 175 123 L 175 132.152344 L 160 132.152344 Z M 160 123 "/>
</clipPath>
</defs>
<g id="surface1">
<path style="fill:none;stroke-width:0.3985;stroke-linecap:butt;stroke-linejoin:miter;stroke:rgb(0%,0%,0%);stroke-opacity:1;stroke-miterlimit:10;" d="M 0.00128968 -0.00013892 L 83.292333 -0.00013892 M 83.292333 -0.00013892 L 208.226932 -0.00013892 M 208.226932 -0.00013892 L 249.874421 -0.00013892 " transform="matrix(0.993082,0,0,-0.993082,2.373719,130.378768)"/>
<g clip-path="url(#clip1)" clip-rule="nonzero">
<path style=" stroke:none;fill-rule:nonzero;fill:rgb(100%,100%,100%);fill-opacity:1;" d="M 3.949219 130.378906 C 3.949219 129.507812 3.246094 128.800781 2.375 128.800781 C 1.503906 128.800781 0.796875 129.507812 0.796875 130.378906 C 0.796875 131.25 1.503906 131.953125 2.375 131.953125 C 3.246094 131.953125 3.949219 131.25 3.949219 130.378906 Z M 3.949219 130.378906 "/>
</g>
<g clip-path="url(#clip2)" clip-rule="nonzero">
<path style="fill:none;stroke-width:0.3985;stroke-linecap:butt;stroke-linejoin:miter;stroke:rgb(0%,0%,0%);stroke-opacity:1;stroke-miterlimit:10;" d="M 1.586475 -0.00013892 C 1.586475 0.877023 0.878452 1.588979 0.00128968 1.588979 C -0.875872 1.588979 -1.587829 0.877023 -1.587829 -0.00013892 C -1.587829 -0.877301 -0.875872 -1.585324 0.00128968 -1.585324 C 0.878452 -1.585324 1.586475 -0.877301 1.586475 -0.00013892 Z M 1.586475 -0.00013892 " transform="matrix(0.993082,0,0,-0.993082,2.373719,130.378768)"/>
</g>
<g clip-path="url(#clip3)" clip-rule="nonzero">
<path style=" stroke:none;fill-rule:nonzero;fill:rgb(100%,100%,100%);fill-opacity:1;" d="M 252.09375 130.378906 C 252.09375 129.507812 251.390625 128.800781 250.519531 128.800781 C 249.648438 128.800781 248.941406 129.507812 248.941406 130.378906 C 248.941406 131.25 249.648438 131.953125 250.519531 131.953125 C 251.390625 131.953125 252.09375 131.25 252.09375 130.378906 Z M 252.09375 130.378906 "/>
</g>
<g clip-path="url(#clip4)" clip-rule="nonzero">
<path style="fill:none;stroke-width:0.3985;stroke-linecap:butt;stroke-linejoin:miter;stroke:rgb(0%,0%,0%);stroke-opacity:1;stroke-miterlimit:10;" d="M 251.459606 -0.00013892 C 251.459606 0.877023 250.751583 1.588979 249.874421 1.588979 C 248.997259 1.588979 248.285302 0.877023 248.285302 -0.00013892 C 248.285302 -0.877301 248.997259 -1.585324 249.874421 -1.585324 C 250.751583 -1.585324 251.459606 -0.877301 251.459606 -0.00013892 Z M 251.459606 -0.00013892 " transform="matrix(0.993082,0,0,-0.993082,2.373719,130.378768)"/>
</g>
<path style="fill:none;stroke-width:0.3985;stroke-linecap:butt;stroke-linejoin:miter;stroke:rgb(0%,0%,0%);stroke-opacity:1;stroke-miterlimit:10;" d="M 0.00128968 124.938393 L 67.416883 124.938393 M 99.16385 124.938393 L 208.226932 124.938393 M 208.226932 124.938393 L 249.874421 124.938393 " transform="matrix(0.993082,0,0,-0.993082,2.373719,130.378768)"/>
<path style="fill:none;stroke-width:0.797;stroke-linecap:butt;stroke-linejoin:miter;stroke:rgb(0%,0%,0%);stroke-opacity:1;stroke-miterlimit:10;" d="M 67.416883 130.88972 L 99.16385 130.88972 L 99.16385 118.983133 L 67.416883 118.983133 Z M 67.416883 130.88972 " transform="matrix(0.993082,0,0,-0.993082,2.373719,130.378768)"/>
<g clip-path="url(#clip5)" clip-rule="nonzero">
<path style=" stroke:none;fill-rule:nonzero;fill:rgb(100%,100%,100%);fill-opacity:1;" d="M 3.949219 6.304688 C 3.949219 5.4375 3.246094 4.730469 2.375 4.730469 C 1.503906 4.730469 0.796875 5.4375 0.796875 6.304688 C 0.796875 7.175781 1.503906 7.882812 2.375 7.882812 C 3.246094 7.882812 3.949219 7.175781 3.949219 6.304688 Z M 3.949219 6.304688 "/>
</g>
<g clip-path="url(#clip6)" clip-rule="nonzero">
<path style="fill:none;stroke-width:0.3985;stroke-linecap:butt;stroke-linejoin:miter;stroke:rgb(0%,0%,0%);stroke-opacity:1;stroke-miterlimit:10;" d="M 1.586475 124.938393 C 1.586475 125.811622 0.878452 126.523578 0.00128968 126.523578 C -0.875872 126.523578 -1.587829 125.811622 -1.587829 124.938393 C -1.587829 124.061232 -0.875872 123.349275 0.00128968 123.349275 C 0.878452 123.349275 1.586475 124.061232 1.586475 124.938393 Z M 1.586475 124.938393 " transform="matrix(0.993082,0,0,-0.993082,2.373719,130.378768)"/>
</g>
<g clip-path="url(#clip7)" clip-rule="nonzero">
<path style=" stroke:none;fill-rule:nonzero;fill:rgb(100%,100%,100%);fill-opacity:1;" d="M 252.09375 6.304688 C 252.09375 5.4375 251.390625 4.730469 250.519531 4.730469 C 249.648438 4.730469 248.941406 5.4375 248.941406 6.304688 C 248.941406 7.175781 249.648438 7.882812 250.519531 7.882812 C 251.390625 7.882812 252.09375 7.175781 252.09375 6.304688 Z M 252.09375 6.304688 "/>
</g>
<g clip-path="url(#clip8)" clip-rule="nonzero">
<path style="fill:none;stroke-width:0.3985;stroke-linecap:butt;stroke-linejoin:miter;stroke:rgb(0%,0%,0%);stroke-opacity:1;stroke-miterlimit:10;" d="M 251.459606 124.938393 C 251.459606 125.811622 250.751583 126.523578 249.874421 126.523578 C 248.997259 126.523578 248.285302 125.811622 248.285302 124.938393 C 248.285302 124.061232 248.997259 123.349275 249.874421 123.349275 C 250.751583 123.349275 251.459606 124.061232 251.459606 124.938393 Z M 251.459606 124.938393 " transform="matrix(0.993082,0,0,-0.993082,2.373719,130.378768)"/>
</g>
<path style="fill:none;stroke-width:0.3985;stroke-linecap:butt;stroke-linejoin:miter;stroke:rgb(0%,0%,0%);stroke-opacity:1;stroke-miterlimit:10;" d="M 166.583377 -0.00013892 L 166.583377 54.533369 M 166.583377 70.404885 L 166.583377 124.938393 " transform="matrix(0.993082,0,0,-0.993082,2.373719,130.378768)"/>
<path style="fill:none;stroke-width:0.797;stroke-linecap:butt;stroke-linejoin:miter;stroke:rgb(0%,0%,0%);stroke-opacity:1;stroke-miterlimit:10;" d="M 166.583377 70.404885 L 176.503567 54.533369 L 156.659254 54.533369 Z M 166.583377 70.404885 " transform="matrix(0.993082,0,0,-0.993082,2.373719,130.378768)"/>
<path style="fill:none;stroke-width:0.3985;stroke-linecap:butt;stroke-linejoin:miter;stroke:rgb(0%,0%,0%);stroke-opacity:1;stroke-miterlimit:10;" d="M 166.583377 70.404885 L 166.583377 54.533369 " transform="matrix(0.993082,0,0,-0.993082,2.373719,130.378768)"/>
<path style="fill:none;stroke-width:0.797;stroke-linecap:butt;stroke-linejoin:miter;stroke:rgb(0%,0%,0%);stroke-opacity:1;stroke-miterlimit:10;" d="M 156.659254 70.404885 L 176.503567 70.404885 L 176.503567 67.230582 " transform="matrix(0.993082,0,0,-0.993082,2.373719,130.378768)"/>
<path style=" stroke:none;fill-rule:nonzero;fill:rgb(0%,0%,0%);fill-opacity:1;" d="M 169.378906 130.378906 C 169.378906 129.507812 168.675781 128.800781 167.804688 128.800781 C 166.933594 128.800781 166.226562 129.507812 166.226562 130.378906 C 166.226562 131.25 166.933594 131.953125 167.804688 131.953125 C 168.675781 131.953125 169.378906 131.25 169.378906 130.378906 Z M 169.378906 130.378906 "/>
<g clip-path="url(#clip9)" clip-rule="nonzero">
<path style="fill:none;stroke-width:0.3985;stroke-linecap:butt;stroke-linejoin:miter;stroke:rgb(0%,0%,0%);stroke-opacity:1;stroke-miterlimit:10;" d="M 168.168562 -0.00013892 C 168.168562 0.877023 167.460539 1.588979 166.583377 1.588979 C 165.706215 1.588979 164.994259 0.877023 164.994259 -0.00013892 C 164.994259 -0.877301 165.706215 -1.585324 166.583377 -1.585324 C 167.460539 -1.585324 168.168562 -0.877301 168.168562 -0.00013892 Z M 168.168562 -0.00013892 " transform="matrix(0.993082,0,0,-0.993082,2.373719,130.378768)"/>
</g>
<path style="fill-rule:nonzero;fill:rgb(0%,0%,0%);fill-opacity:1;stroke-width:0.3985;stroke-linecap:butt;stroke-linejoin:miter;stroke:rgb(0%,0%,0%);stroke-opacity:1;stroke-miterlimit:10;" d="M 168.168562 124.938393 C 168.168562 125.811622 167.460539 126.523578 166.583377 126.523578 C 165.706215 126.523578 164.994259 125.811622 164.994259 124.938393 C 164.994259 124.061232 165.706215 123.349275 166.583377 123.349275 C 167.460539 123.349275 168.168562 124.061232 168.168562 124.938393 Z M 168.168562 124.938393 " transform="matrix(0.993082,0,0,-0.993082,2.373719,130.378768)"/>
</g>
</svg>
