<?xml version="1.0" encoding="UTF-8"?>
<svg xmlns="http://www.w3.org/2000/svg" xmlns:xlink="http://www.w3.org/1999/xlink" width="195.064pt" height="162.185pt" viewBox="0 0 195.064 162.185" version="1.2">
<defs>
<clipPath id="clip1">
  <path d="M 0.0234375 0 L 194 0 L 194 161.375 L 0.0234375 161.375 Z M 0.0234375 0 "/>
</clipPath>
<clipPath id="clip2">
  <path d="M 0.0234375 0 L 194.109375 0 L 194.109375 161.375 L 0.0234375 161.375 Z M 0.0234375 0 "/>
</clipPath>
<clipPath id="clip3">
  <path d="M 0.417969 0.394531 L 193.714844 0.394531 L 193.714844 160.976562 L 0.417969 160.976562 Z M 0.417969 0.394531 "/>
</clipPath>
</defs>
<g id="surface1">
<g clip-path="url(#clip1)" clip-rule="nonzero">
<path style="fill:none;stroke-width:0.19925;stroke-linecap:butt;stroke-linejoin:miter;stroke:rgb(0%,0%,0%);stroke-opacity:1;stroke-miterlimit:10;" d="M -0.0000414573 0.00151005 L -0.0000414573 161.390486 M 27.752 0.00151005 L 27.752 161.390486 M 55.504041 0.00151005 L 55.504041 161.390486 M 83.260009 0.00151005 L 83.260009 161.390486 M 111.01205 0.00151005 L 111.01205 161.390486 M 138.764092 0.00151005 L 138.764092 161.390486 M 166.516133 0.00151005 L 166.516133 161.390486 M 194.268175 0.00151005 L 194.268175 161.390486 " transform="matrix(0.995,0,0,-0.995,0.41801,160.978065)"/>
<path style="fill:none;stroke-width:0.19925;stroke-linecap:butt;stroke-linejoin:miter;stroke:rgb(0%,0%,0%);stroke-opacity:1;stroke-miterlimit:10;" d="M -0.0000414573 0.00151005 L 194.268175 0.00151005 M -0.0000414573 26.89771 L 194.268175 26.89771 M -0.0000414573 53.797835 L 194.268175 53.797835 M -0.0000414573 80.694035 L 194.268175 80.694035 M -0.0000414573 107.594161 L 194.268175 107.594161 M -0.0000414573 134.490361 L 194.268175 134.490361 M -0.0000414573 161.390486 L 194.268175 161.390486 " transform="matrix(0.995,0,0,-0.995,0.41801,160.978065)"/>
</g>
<g clip-path="url(#clip2)" clip-rule="nonzero">
<path style="fill:none;stroke-width:0.79701;stroke-linecap:butt;stroke-linejoin:miter;stroke:rgb(0%,0%,0%);stroke-opacity:1;stroke-miterlimit:10;" d="M -0.0000414573 0.00151005 L -0.0000414573 161.390486 L 194.268175 161.390486 L 194.268175 0.00151005 Z M -0.0000414573 0.00151005 " transform="matrix(0.995,0,0,-0.995,0.41801,160.978065)"/>
</g>
<g clip-path="url(#clip3)" clip-rule="nonzero">
<path style="fill:none;stroke-width:1.59404;stroke-linecap:butt;stroke-linejoin:miter;stroke:rgb(0%,0%,0%);stroke-opacity:1;stroke-miterlimit:10;" d="M -0.0000414573 80.694035 C -0.0000414573 80.694035 0.706617 90.634362 0.977503 94.328614 C 1.248388 98.026793 1.680235 103.895982 1.951121 107.335053 C 2.222006 110.774123 2.657779 116.089764 2.928665 119.124469 C 3.19955 122.159173 3.635323 126.701416 3.906209 129.217905 C 4.177094 131.734393 4.608941 135.342276 4.879827 137.265957 C 5.150712 139.193564 5.586485 141.78857 5.857371 143.091962 C 6.128256 144.39928 6.564029 145.973558 6.834915 146.67629 C 7.1058 147.379023 7.537647 147.999312 7.808533 148.160273 C 8.079418 148.32516 8.515191 148.128866 8.786077 147.846202 C 9.056962 147.563539 9.492735 146.739104 9.763621 146.134519 C 10.034506 145.529933 10.466353 144.28543 10.737239 143.488476 C 11.008124 142.691523 11.443897 141.254651 11.714783 140.398809 C 11.985668 139.546893 12.421441 138.129651 12.692327 137.336623 C 12.963212 136.543595 13.395059 135.326573 13.665945 134.694506 C 13.93683 134.058514 14.372603 133.175191 14.643489 132.762974 C 14.914374 132.350756 15.350147 131.883577 15.621033 131.726541 C 15.891918 131.569506 16.323765 131.538099 16.594651 131.63232 C 16.865536 131.726541 17.301309 132.091648 17.572195 132.401793 C 17.84308 132.711937 18.278853 133.39504 18.549739 133.86222 C 18.820624 134.333325 19.252471 135.220574 19.523357 135.770197 C 19.794242 136.31982 20.230015 137.277735 20.500901 137.831284 C 20.771786 138.384833 21.207559 139.279933 21.478445 139.758891 C 21.74933 140.241774 22.181177 140.952358 22.452063 141.301761 C 22.722948 141.647239 23.158721 142.094789 23.429607 142.267528 C 23.700492 142.440266 24.136265 142.565894 24.407151 142.550191 C 24.678036 142.530562 25.109883 142.338193 25.380769 142.141899 C 25.651655 141.94168 26.087427 141.462722 26.358313 141.117245 C 26.629198 140.771768 27.064971 140.088665 27.335857 139.64504 C 27.606742 139.201416 28.038589 138.404462 28.309475 137.929431 C 28.580361 137.454399 29.016133 136.661372 29.287019 136.221673 C 29.557905 135.778049 29.993677 135.098872 30.264563 134.753394 C 30.535448 134.407917 30.967295 133.92896 31.238181 133.720888 C 31.509067 133.516742 31.944839 133.308671 32.215725 133.273338 C 32.486611 133.238005 32.918457 133.3283 33.189343 133.469632 C 33.460229 133.607038 33.896001 133.979996 34.166887 134.274437 C 34.437773 134.568878 34.873545 135.177389 35.144431 135.589607 C 35.415317 135.997898 35.847163 136.759519 36.118049 137.226698 C 36.388935 137.697804 36.824707 138.506535 37.095593 138.969789 C 37.366479 139.433043 37.802251 140.175034 38.073137 140.567622 C 38.344023 140.96021 38.775869 141.533388 39.046755 141.796422 C 39.317641 142.059456 39.753413 142.373526 40.024299 142.463822 C 40.295185 142.558043 40.730957 142.561969 41.001843 142.463822 C 41.272729 142.369601 41.704575 142.047678 41.975461 141.765015 C 42.246347 141.486278 42.682119 140.87384 42.953005 140.438068 C 43.223891 140.006221 43.659663 139.173935 43.930549 138.640015 C 44.201435 138.106095 44.633281 137.156033 44.904167 136.594632 C 45.175053 136.033231 45.610825 135.102798 45.881711 134.592433 C 46.152597 134.082069 46.588369 133.300819 46.859255 132.920009 C 47.130141 132.539198 47.561987 132.028834 47.832873 131.844318 C 48.103759 131.655876 48.539531 131.522396 48.810417 131.573432 C 49.081303 131.628394 49.517075 131.922835 49.787961 132.23298 C 50.058847 132.543124 50.490693 133.269412 50.761579 133.819035 C 51.032465 134.368658 51.468237 135.467905 51.739123 136.20597 C 52.010009 136.944035 52.445781 138.298464 52.716667 139.142528 C 52.987553 139.982666 53.419399 141.439167 53.690285 142.275379 C 53.961171 143.107666 54.396943 144.458168 54.667829 145.153049 C 54.938715 145.851856 55.374487 146.872584 55.645373 147.300505 C 55.916259 147.728426 56.348106 148.203457 56.618991 148.230938 C 56.889877 148.25842 57.325649 147.987534 57.596535 147.512503 C 57.867421 147.033545 58.303193 145.855781 58.574079 144.795794 C 58.844965 143.739732 59.276812 141.560869 59.547697 139.884519 C 59.818583 138.208168 60.254356 135.000725 60.525241 132.715863 C 60.796127 130.431001 61.231899 126.246014 61.502785 123.407603 C 61.773671 120.569192 62.205518 115.544067 62.476403 112.250254 C 62.747289 108.956441 63.183062 103.283545 63.453947 99.66781 C 63.724833 96.056001 64.160606 89.982666 64.431491 86.213822 C 64.702377 82.444977 65.134224 76.253866 65.405109 72.500725 C 65.675995 68.75151 66.111768 62.729211 66.382653 59.168438 C 66.653539 55.607666 67.089312 50.040769 67.360197 46.825474 C 67.631083 43.614104 68.06293 38.738162 68.333815 36.001824 C 68.604701 33.265486 69.040474 29.268941 69.311359 27.09793 C 69.582245 24.930844 70.018018 21.919695 70.288903 20.365046 C 70.559789 18.810398 70.991636 16.831755 71.262521 15.89347 C 71.533407 14.951259 71.96918 13.961937 72.240065 13.588979 C 72.510951 13.219946 72.946724 13.110021 73.217609 13.223872 C 73.488495 13.341648 73.920342 13.938382 74.191227 14.429117 C 74.462113 14.919852 74.897886 16.023024 75.168771 16.757163 C 75.439657 17.495229 75.87543 18.881064 76.146315 19.729054 C 76.417201 20.573118 76.849048 22.021768 77.119933 22.854054 C 77.390819 23.682415 77.826592 25.00151 78.097477 25.708168 C 78.368363 26.414827 78.804136 27.447333 79.075021 27.953771 C 79.345907 28.46021 79.777754 29.100128 80.048639 29.363162 C 80.319525 29.62227 80.755298 29.826416 81.026183 29.830342 C 81.297069 29.838193 81.732842 29.62227 82.003727 29.394569 C 82.274613 29.166868 82.70646 28.597616 82.977345 28.181472 C 83.248231 27.769255 83.684004 26.94482 83.954889 26.418753 C 84.225775 25.892685 84.661548 24.946548 84.932433 24.385147 C 85.203319 23.823746 85.635166 22.893313 85.906052 22.375097 C 86.176937 21.856881 86.61271 21.056001 86.883595 20.64771 C 87.154481 20.239418 87.590254 19.678018 87.861139 19.434613 C 88.132025 19.187283 88.563872 18.928175 88.834758 18.869286 C 89.105643 18.810398 89.541416 18.877138 89.812302 19.006692 C 90.083187 19.136246 90.51896 19.505279 90.789845 19.795794 C 91.060731 20.090235 91.492578 20.702672 91.763464 21.114889 C 92.034349 21.523181 92.470122 22.288727 92.741008 22.759833 C 93.011893 23.230938 93.44374 24.035744 93.714626 24.498997 C 93.985511 24.962251 94.421284 25.700317 94.69217 26.088979 C 94.963055 26.481567 95.398828 27.054745 95.669714 27.317779 C 95.940599 27.584739 96.372446 27.906661 96.643332 28.01266 C 96.914217 28.118658 97.34999 28.146139 97.620876 28.079399 C 97.891761 28.008734 98.327534 27.7457 98.59842 27.510147 C 98.869305 27.274594 99.301152 26.752452 99.572038 26.379494 C 99.842923 26.010461 100.278696 25.299877 100.549582 24.844475 C 100.820467 24.392999 101.25624 23.588193 101.527126 23.117088 C 101.798011 22.642057 102.229858 21.860807 102.500744 21.432886 C 102.771629 21.004965 103.207402 20.353269 103.478288 20.031347 C 103.749173 19.713351 104.184946 19.28543 104.455832 19.116617 C 104.726717 18.95173 105.158564 18.822176 105.42945 18.841805 C 105.700335 18.861435 106.136108 19.053803 106.406994 19.261874 C 106.677879 19.469946 107.113652 19.972459 107.384538 20.349343 C 107.655423 20.726227 108.08727 21.483922 108.358156 21.986435 C 108.629041 22.485021 109.064814 23.403677 109.3357 23.965078 C 109.606585 24.522553 110.042358 25.472616 110.313244 26.014387 C 110.584129 26.556158 111.015976 27.412 111.286862 27.855624 C 111.557747 28.295323 111.99352 28.931315 112.264406 29.202201 C 112.535291 29.473087 112.971064 29.767528 113.24195 29.814638 C 113.512835 29.857823 113.944682 29.743972 114.215568 29.535901 C 114.486454 29.327829 114.922226 28.77428 115.193112 28.314952 C 115.463997 27.85955 115.89977 26.901636 116.170656 26.23031 C 116.441541 25.558985 116.873388 24.287 117.144274 23.474343 C 117.41516 22.661686 117.850932 21.224814 118.121818 20.372898 C 118.392704 19.520982 118.828476 18.10374 119.099362 17.334268 C 119.370247 16.564795 119.802094 15.387031 120.07298 14.833482 C 120.343866 14.283859 120.779638 13.561497 121.050524 13.357352 C 121.32141 13.153206 121.757182 13.106095 122.028068 13.369129 C 122.298954 13.628237 122.7308 14.429117 123.001686 15.2457 C 123.272572 16.062283 123.708344 17.832854 123.97923 19.257948 C 124.250116 20.686969 124.685888 23.482195 124.956774 25.527578 C 125.22766 27.572961 125.659506 31.373212 125.930392 33.999626 C 126.201278 36.626039 126.63705 41.329242 126.907936 44.458168 C 127.178822 47.583168 127.614594 53.024437 127.88548 56.526322 C 128.156366 60.028206 128.588212 65.975913 128.859098 69.701573 C 129.129984 73.427232 129.565756 79.606567 129.836642 83.387188 C 130.107528 87.16781 130.5433 93.288256 130.814186 96.947176 C 131.085072 100.606095 131.516918 106.38499 131.787804 109.75732 C 132.05869 113.129651 132.494462 118.30396 132.765348 121.248369 C 133.036234 124.188853 133.472006 128.558357 133.742892 130.964921 C 134.013778 133.371485 134.445624 136.783074 134.71651 138.588979 C 134.987396 140.390957 135.423168 142.785744 135.694054 143.967433 C 135.96494 145.153049 136.400712 146.531033 136.671598 147.12384 C 136.942484 147.716648 137.37433 148.164198 137.645216 148.230938 C 137.916102 148.297678 138.351874 147.963979 138.62276 147.606724 C 138.893646 147.253394 139.329418 146.326887 139.600304 145.671265 C 139.87119 145.019569 140.303036 143.720103 140.573922 142.90352 C 140.844808 142.086937 141.28058 140.638288 141.551466 139.786372 C 141.822352 138.938382 142.258124 137.540769 142.52901 136.775222 C 142.799896 136.00575 143.231742 134.84369 143.502628 134.250882 C 143.773514 133.654148 144.209286 132.849343 144.480172 132.488162 C 144.751058 132.123055 145.18683 131.742245 145.457716 131.636246 C 145.728602 131.526322 146.160448 131.577358 146.431334 131.71869 C 146.70222 131.856095 147.137992 132.295794 147.408878 132.641271 C 147.679764 132.986749 148.115536 133.724814 148.386422 134.211623 C 148.657308 134.702358 149.089155 135.613162 149.36004 136.170637 C 149.630926 136.728112 150.066698 137.682101 150.337584 138.227798 C 150.60847 138.773495 151.044242 139.641114 151.315128 140.100442 C 151.586014 140.55977 152.017861 141.22717 152.288746 141.54124 C 152.559632 141.859236 152.995405 142.240046 153.26629 142.377452 C 153.537176 142.510932 153.972948 142.573746 154.243834 142.518784 C 154.51472 142.467747 154.946567 142.216491 155.217452 141.984864 C 155.488338 141.753237 155.924111 141.22717 156.194996 140.858137 C 156.465882 140.485178 156.897729 139.770668 157.168614 139.319192 C 157.4395 138.86379 157.875273 138.062911 158.146158 137.587879 C 158.417044 137.116774 158.852817 136.335524 159.123702 135.907603 C 159.394588 135.479682 159.826435 134.831912 160.09732 134.506064 C 160.368206 134.184142 160.803979 133.756221 161.074864 133.583482 C 161.34575 133.410744 161.781523 133.26156 162.052408 133.26156 C 162.323294 133.26156 162.755141 133.406818 163.026026 133.579557 C 163.296912 133.748369 163.732685 134.17629 164.00357 134.494286 C 164.274456 134.816209 164.710229 135.463979 164.981114 135.891899 C 165.252 136.315894 165.683847 137.097144 165.954732 137.572176 C 166.225618 138.043281 166.661391 138.848087 166.932276 139.299563 C 167.203162 139.754965 167.638935 140.469475 167.90982 140.842433 C 168.180706 141.215392 168.612553 141.745386 168.883438 141.977013 C 169.154324 142.208639 169.590097 142.463822 169.860982 142.518784 C 170.131868 142.573746 170.567641 142.514858 170.838526 142.381378 C 171.109412 142.247898 171.541259 141.867088 171.812144 141.553018 C 172.08303 141.238947 172.518803 140.575474 172.789688 140.116146 C 173.060574 139.656818 173.496347 138.793124 173.767232 138.247427 C 174.038118 137.705656 174.469965 136.751667 174.740851 136.194192 C 175.011736 135.636717 175.447509 134.721987 175.718394 134.231253 C 175.98928 133.740518 176.425053 133.002452 176.695938 132.653049 C 176.966824 132.303646 177.398671 131.863947 177.669557 131.722616 C 177.940442 131.581284 178.376215 131.526322 178.647101 131.63232 C 178.917986 131.734393 179.353759 132.111278 179.624644 132.472459 C 179.89553 132.833639 180.327377 133.634519 180.598263 134.227327 C 180.869148 134.820134 181.304921 135.978269 181.575807 136.743815 C 181.846692 137.513288 182.282465 138.903049 182.553351 139.754965 C 182.824236 140.602955 183.256083 142.05553 183.526969 142.872113 C 183.797854 143.688696 184.233627 144.992088 184.504513 145.64771 C 184.775398 146.303332 185.211171 147.237691 185.482057 147.594946 C 185.752942 147.952201 186.184789 148.293753 186.455675 148.230938 C 186.72656 148.168124 187.162333 147.732352 187.433219 147.14347 C 187.704104 146.558514 188.139877 145.188382 188.410763 144.010618 C 188.681648 142.832854 189.113495 140.453771 189.384381 138.655719 C 189.655266 136.857666 190.091039 133.453928 190.361925 131.05129 C 190.63281 128.652578 191.068583 124.290926 191.339469 121.354368 C 191.610354 118.41781 192.042201 113.251353 192.313087 109.882948 C 192.583972 106.514544 193.019745 100.739575 193.290631 97.080656 C 193.561516 93.425662 194.268175 83.52852 194.268175 83.52852 " transform="matrix(0.995,0,0,-0.995,0.41801,160.978065)"/>
</g>
</g>
</svg>
