<?xml version="1.0" encoding="UTF-8"?>
<svg xmlns="http://www.w3.org/2000/svg" xmlns:xlink="http://www.w3.org/1999/xlink" width="255.124pt" height="85.041pt" viewBox="0 0 255.124 85.041" version="1.2">
<defs>
<clipPath id="clip1">
  <path d="M 0.988281 5 L 253.269531 5 L 253.269531 79 L 0.988281 79 Z M 0.988281 5 "/>
</clipPath>
<clipPath id="clip2">
  <path d="M 0.988281 0 L 253.269531 0 L 253.269531 48 L 0.988281 48 Z M 0.988281 0 "/>
</clipPath>
<clipPath id="clip3">
  <path d="M 0.988281 36 L 253.269531 36 L 253.269531 84.09375 L 0.988281 84.09375 Z M 0.988281 36 "/>
</clipPath>
</defs>
<g id="surface1">
<g clip-path="url(#clip1)" clip-rule="nonzero">
<path style=" stroke:none;fill-rule:nonzero;fill:rgb(50%,50%,50%);fill-opacity:0.5;" d="M 0.988281 15.289062 C 0.988281 15.289062 1.90625 14.753906 2.257812 14.550781 C 2.609375 14.34375 3.171875 14.019531 3.523438 13.816406 C 3.875 13.613281 4.441406 13.289062 4.792969 13.089844 C 5.144531 12.890625 5.707031 12.574219 6.058594 12.378906 C 6.414062 12.183594 6.976562 11.871094 7.328125 11.683594 C 7.679688 11.492188 8.242188 11.191406 8.597656 11.007812 C 8.949219 10.824219 9.511719 10.539062 9.863281 10.363281 C 10.214844 10.1875 10.78125 9.910156 11.132812 9.742188 C 11.484375 9.578125 12.046875 9.316406 12.398438 9.15625 C 12.75 9 13.316406 8.757812 13.667969 8.609375 C 14.019531 8.464844 14.582031 8.238281 14.933594 8.101562 C 15.285156 7.964844 15.851562 7.757812 16.203125 7.636719 C 16.554688 7.511719 17.117188 7.324219 17.46875 7.214844 C 17.820312 7.105469 18.386719 6.941406 18.738281 6.84375 C 19.089844 6.75 19.652344 6.605469 20.003906 6.523438 C 20.355469 6.441406 20.921875 6.324219 21.273438 6.257812 C 21.625 6.1875 22.1875 6.09375 22.542969 6.042969 C 22.894531 5.992188 23.457031 5.917969 23.808594 5.882812 C 24.160156 5.847656 24.726562 5.800781 25.078125 5.78125 C 25.429688 5.761719 25.992188 5.738281 26.34375 5.734375 C 26.695312 5.730469 27.261719 5.734375 27.613281 5.746094 C 27.964844 5.757812 28.527344 5.789062 28.878906 5.816406 C 29.230469 5.84375 29.796875 5.898438 30.148438 5.941406 C 30.5 5.984375 31.0625 6.0625 31.414062 6.121094 C 31.765625 6.179688 32.332031 6.285156 32.683594 6.359375 C 33.035156 6.429688 33.597656 6.558594 33.949219 6.648438 C 34.300781 6.734375 34.867188 6.886719 35.21875 6.988281 C 35.570312 7.089844 36.132812 7.265625 36.484375 7.378906 C 36.839844 7.496094 37.402344 7.691406 37.753906 7.820312 C 38.105469 7.945312 38.671875 8.160156 39.023438 8.300781 C 39.375 8.441406 39.9375 8.675781 40.289062 8.828125 C 40.640625 8.976562 41.207031 9.230469 41.558594 9.390625 C 41.910156 9.550781 42.472656 9.820312 42.824219 9.988281 C 43.175781 10.160156 43.742188 10.441406 44.09375 10.621094 C 44.445312 10.796875 45.007812 11.09375 45.359375 11.277344 C 45.710938 11.464844 46.277344 11.769531 46.628906 11.960938 C 46.980469 12.152344 47.542969 12.464844 47.894531 12.664062 C 48.246094 12.859375 48.8125 13.179688 49.164062 13.382812 C 49.515625 13.582031 50.078125 13.90625 50.429688 14.113281 C 50.785156 14.316406 51.347656 14.644531 51.699219 14.847656 C 52.050781 15.054688 52.613281 15.382812 52.96875 15.585938 C 53.320312 15.792969 53.882812 16.121094 54.234375 16.324219 C 54.585938 16.527344 55.152344 16.855469 55.503906 17.054688 C 55.855469 17.257812 56.417969 17.578125 56.769531 17.777344 C 57.121094 17.976562 57.6875 18.289062 58.039062 18.484375 C 58.390625 18.675781 58.953125 18.980469 59.304688 19.167969 C 59.65625 19.355469 60.222656 19.652344 60.574219 19.832031 C 60.925781 20.011719 61.488281 20.296875 61.839844 20.46875 C 62.191406 20.640625 62.757812 20.910156 63.109375 21.074219 C 63.460938 21.238281 64.023438 21.492188 64.375 21.644531 C 64.726562 21.796875 65.292969 22.035156 65.644531 22.179688 C 65.996094 22.320312 66.558594 22.539062 66.914062 22.667969 C 67.265625 22.800781 67.828125 23 68.179688 23.117188 C 68.53125 23.234375 69.097656 23.414062 69.449219 23.515625 C 69.800781 23.621094 70.363281 23.777344 70.714844 23.867188 C 71.066406 23.957031 71.632812 24.089844 71.984375 24.167969 C 72.335938 24.242188 72.898438 24.351562 73.25 24.414062 C 73.601562 24.476562 74.167969 24.5625 74.519531 24.605469 C 74.871094 24.652344 75.433594 24.710938 75.785156 24.742188 C 76.136719 24.773438 76.703125 24.808594 77.054688 24.820312 C 77.40625 24.835938 77.96875 24.847656 78.320312 24.84375 C 78.671875 24.84375 79.238281 24.828125 79.589844 24.808594 C 79.941406 24.792969 80.503906 24.75 80.855469 24.71875 C 81.210938 24.683594 81.773438 24.617188 82.125 24.570312 C 82.476562 24.519531 83.042969 24.429688 83.394531 24.367188 C 83.746094 24.300781 84.308594 24.1875 84.660156 24.109375 C 85.011719 24.03125 85.578125 23.890625 85.929688 23.796875 C 86.28125 23.703125 86.84375 23.542969 87.195312 23.4375 C 87.546875 23.328125 88.113281 23.144531 88.464844 23.023438 C 88.816406 22.90625 89.378906 22.703125 89.730469 22.570312 C 90.082031 22.4375 90.648438 22.210938 91 22.066406 C 91.351562 21.921875 91.914062 21.683594 92.265625 21.527344 C 92.617188 21.371094 93.183594 21.113281 93.535156 20.949219 C 93.886719 20.785156 94.449219 20.511719 94.800781 20.335938 C 95.15625 20.164062 95.71875 19.875 96.070312 19.695312 C 96.421875 19.511719 96.984375 19.214844 97.339844 19.027344 C 97.691406 18.835938 98.253906 18.527344 98.605469 18.335938 C 98.957031 18.140625 99.523438 17.824219 99.875 17.625 C 100.226562 17.425781 100.789062 17.105469 101.140625 16.902344 C 101.492188 16.699219 102.058594 16.371094 102.410156 16.167969 C 102.761719 15.964844 103.324219 15.636719 103.675781 15.429688 C 104.027344 15.226562 104.59375 14.894531 104.945312 14.691406 C 105.296875 14.488281 105.859375 14.160156 106.210938 13.957031 C 106.5625 13.753906 107.128906 13.429688 107.480469 13.226562 C 107.832031 13.027344 108.394531 12.710938 108.746094 12.511719 C 109.097656 12.316406 109.664062 12.003906 110.015625 11.8125 C 110.367188 11.625 110.929688 11.320312 111.285156 11.136719 C 111.636719 10.953125 112.199219 10.660156 112.550781 10.484375 C 112.902344 10.304688 113.46875 10.027344 113.820312 9.859375 C 114.171875 9.691406 114.734375 9.425781 115.085938 9.269531 C 115.4375 9.109375 116.003906 8.859375 116.355469 8.710938 C 116.707031 8.5625 117.269531 8.332031 117.621094 8.195312 C 117.972656 8.058594 118.539062 7.847656 118.890625 7.722656 C 119.242188 7.597656 119.804688 7.40625 120.15625 7.292969 C 120.507812 7.179688 121.074219 7.011719 121.425781 6.914062 C 121.777344 6.8125 122.339844 6.667969 122.691406 6.582031 C 123.042969 6.496094 123.609375 6.375 123.960938 6.304688 C 124.3125 6.234375 124.875 6.132812 125.230469 6.078125 C 125.582031 6.023438 126.144531 5.949219 126.496094 5.910156 C 126.847656 5.871094 127.414062 5.820312 127.765625 5.796875 C 128.117188 5.773438 128.679688 5.746094 129.03125 5.738281 C 129.382812 5.730469 129.949219 5.730469 130.300781 5.738281 C 130.652344 5.746094 131.214844 5.773438 131.566406 5.796875 C 131.917969 5.820312 132.484375 5.871094 132.835938 5.914062 C 133.1875 5.953125 133.75 6.027344 134.101562 6.082031 C 134.453125 6.136719 135.019531 6.238281 135.371094 6.308594 C 135.722656 6.378906 136.285156 6.503906 136.636719 6.589844 C 136.988281 6.671875 137.554688 6.820312 137.90625 6.917969 C 138.257812 7.019531 138.820312 7.1875 139.171875 7.300781 C 139.527344 7.414062 140.089844 7.605469 140.441406 7.730469 C 140.792969 7.855469 141.359375 8.066406 141.710938 8.207031 C 142.0625 8.34375 142.625 8.574219 142.976562 8.722656 C 143.328125 8.871094 143.894531 9.121094 144.246094 9.28125 C 144.597656 9.4375 145.160156 9.703125 145.511719 9.871094 C 145.863281 10.039062 146.429688 10.320312 146.78125 10.496094 C 147.132812 10.675781 147.695312 10.964844 148.046875 11.148438 C 148.398438 11.335938 148.964844 11.636719 149.316406 11.828125 C 149.667969 12.019531 150.230469 12.332031 150.582031 12.527344 C 150.933594 12.722656 151.5 13.042969 151.851562 13.242188 C 152.203125 13.441406 152.765625 13.769531 153.117188 13.972656 C 153.472656 14.175781 154.035156 14.5 154.386719 14.707031 C 154.738281 14.910156 155.300781 15.242188 155.65625 15.445312 C 156.007812 15.652344 156.570312 15.980469 156.921875 16.183594 C 157.273438 16.386719 157.839844 16.714844 158.191406 16.917969 C 158.542969 17.117188 159.105469 17.441406 159.457031 17.640625 C 159.808594 17.839844 160.375 18.15625 160.726562 18.347656 C 161.078125 18.542969 161.640625 18.851562 161.992188 19.039062 C 162.34375 19.226562 162.910156 19.527344 163.261719 19.707031 C 163.613281 19.890625 164.175781 20.175781 164.527344 20.347656 C 164.878906 20.523438 165.445312 20.796875 165.796875 20.960938 C 166.148438 21.125 166.710938 21.382812 167.0625 21.539062 C 167.414062 21.695312 167.980469 21.933594 168.332031 22.078125 C 168.683594 22.222656 169.246094 22.445312 169.601562 22.578125 C 169.953125 22.710938 170.515625 22.914062 170.867188 23.035156 C 171.21875 23.152344 171.785156 23.335938 172.136719 23.445312 C 172.488281 23.550781 173.050781 23.710938 173.402344 23.804688 C 173.753906 23.898438 174.320312 24.035156 174.671875 24.113281 C 175.023438 24.191406 175.585938 24.308594 175.9375 24.371094 C 176.289062 24.433594 176.855469 24.523438 177.207031 24.574219 C 177.558594 24.621094 178.121094 24.6875 178.472656 24.71875 C 178.824219 24.753906 179.390625 24.792969 179.742188 24.8125 C 180.09375 24.828125 180.65625 24.84375 181.007812 24.84375 C 181.359375 24.847656 181.925781 24.835938 182.277344 24.820312 C 182.628906 24.804688 183.191406 24.769531 183.542969 24.738281 C 183.898438 24.710938 184.460938 24.648438 184.8125 24.601562 C 185.164062 24.558594 185.730469 24.472656 186.082031 24.410156 C 186.433594 24.347656 186.996094 24.238281 187.347656 24.160156 C 187.699219 24.085938 188.265625 23.953125 188.617188 23.859375 C 188.96875 23.769531 189.53125 23.613281 189.882812 23.507812 C 190.234375 23.40625 190.800781 23.226562 191.152344 23.109375 C 191.503906 22.988281 192.066406 22.789062 192.417969 22.660156 C 192.769531 22.527344 193.335938 22.308594 193.6875 22.167969 C 194.039062 22.023438 194.601562 21.789062 194.953125 21.632812 C 195.304688 21.480469 195.871094 21.226562 196.222656 21.0625 C 196.574219 20.898438 197.136719 20.628906 197.488281 20.457031 C 197.84375 20.285156 198.40625 20 198.757812 19.820312 C 199.109375 19.640625 199.671875 19.34375 200.027344 19.15625 C 200.378906 18.96875 200.941406 18.660156 201.292969 18.46875 C 201.644531 18.273438 202.210938 17.960938 202.5625 17.761719 C 202.914062 17.5625 203.476562 17.242188 203.828125 17.042969 C 204.179688 16.839844 204.746094 16.515625 205.097656 16.308594 C 205.449219 16.105469 206.011719 15.777344 206.363281 15.574219 C 206.714844 15.367188 207.28125 15.039062 207.632812 14.832031 C 207.984375 14.628906 208.546875 14.300781 208.898438 14.097656 C 209.25 13.894531 209.816406 13.566406 210.167969 13.367188 C 210.519531 13.167969 211.082031 12.847656 211.433594 12.648438 C 211.785156 12.453125 212.351562 12.140625 212.703125 11.945312 C 213.054688 11.753906 213.617188 11.449219 213.972656 11.265625 C 214.324219 11.078125 214.886719 10.785156 215.238281 10.605469 C 215.589844 10.429688 216.15625 10.148438 216.507812 9.976562 C 216.859375 9.804688 217.421875 9.539062 217.773438 9.378906 C 218.125 9.21875 218.691406 8.964844 219.042969 8.816406 C 219.394531 8.664062 219.957031 8.429688 220.308594 8.292969 C 220.660156 8.152344 221.226562 7.9375 221.578125 7.808594 C 221.929688 7.683594 222.492188 7.488281 222.84375 7.371094 C 223.195312 7.257812 223.761719 7.082031 224.113281 6.980469 C 224.464844 6.878906 225.027344 6.730469 225.378906 6.640625 C 225.730469 6.554688 226.296875 6.425781 226.648438 6.351562 C 227 6.28125 227.5625 6.175781 227.917969 6.117188 C 228.269531 6.058594 228.832031 5.980469 229.183594 5.9375 C 229.535156 5.894531 230.101562 5.839844 230.453125 5.8125 C 230.804688 5.785156 231.367188 5.757812 231.71875 5.746094 C 232.070312 5.734375 232.636719 5.730469 232.988281 5.734375 C 233.339844 5.742188 233.902344 5.761719 234.253906 5.78125 C 234.605469 5.804688 235.171875 5.847656 235.523438 5.886719 C 235.875 5.921875 236.4375 5.992188 236.789062 6.046875 C 237.140625 6.097656 237.707031 6.195312 238.058594 6.261719 C 238.410156 6.328125 238.972656 6.449219 239.324219 6.53125 C 239.675781 6.613281 240.242188 6.757812 240.59375 6.851562 C 240.945312 6.949219 241.507812 7.113281 241.859375 7.222656 C 242.214844 7.335938 242.777344 7.523438 243.128906 7.644531 C 243.480469 7.769531 244.046875 7.976562 244.398438 8.113281 C 244.75 8.246094 245.3125 8.472656 245.664062 8.621094 C 246.015625 8.765625 246.582031 9.011719 246.933594 9.167969 C 247.285156 9.328125 247.847656 9.589844 248.199219 9.753906 C 248.550781 9.921875 249.117188 10.199219 249.46875 10.375 C 249.820312 10.550781 250.382812 10.839844 250.734375 11.023438 C 251.085938 11.207031 251.652344 11.507812 252.003906 11.695312 C 252.355469 11.886719 253.269531 12.390625 253.269531 12.390625 L 253.269531 71.699219 C 253.269531 71.699219 252.355469 72.203125 252.003906 72.394531 C 251.652344 72.585938 251.085938 72.886719 250.734375 73.070312 C 250.382812 73.253906 249.820312 73.542969 249.46875 73.71875 C 249.117188 73.894531 248.550781 74.167969 248.199219 74.335938 C 247.847656 74.503906 247.285156 74.765625 246.933594 74.921875 C 246.582031 75.078125 246.015625 75.324219 245.664062 75.472656 C 245.3125 75.617188 244.75 75.84375 244.398438 75.980469 C 244.046875 76.117188 243.480469 76.324219 243.128906 76.445312 C 242.777344 76.570312 242.214844 76.757812 241.859375 76.867188 C 241.507812 76.976562 240.945312 77.144531 240.59375 77.238281 C 240.242188 77.335938 239.675781 77.480469 239.324219 77.5625 C 238.972656 77.644531 238.410156 77.761719 238.058594 77.832031 C 237.707031 77.898438 237.140625 77.992188 236.789062 78.046875 C 236.4375 78.097656 235.875 78.167969 235.523438 78.207031 C 235.171875 78.242188 234.605469 78.289062 234.253906 78.308594 C 233.902344 78.332031 233.339844 78.351562 232.988281 78.355469 C 232.636719 78.359375 232.070312 78.355469 231.71875 78.347656 C 231.367188 78.335938 230.804688 78.304688 230.453125 78.277344 C 230.101562 78.25 229.535156 78.195312 229.183594 78.152344 C 228.832031 78.113281 228.269531 78.03125 227.917969 77.972656 C 227.5625 77.917969 227 77.8125 226.648438 77.738281 C 226.296875 77.667969 225.730469 77.539062 225.378906 77.449219 C 225.027344 77.363281 224.464844 77.210938 224.113281 77.109375 C 223.761719 77.007812 223.195312 76.835938 222.84375 76.71875 C 222.492188 76.605469 221.929688 76.410156 221.578125 76.28125 C 221.226562 76.15625 220.660156 75.941406 220.308594 75.800781 C 219.957031 75.660156 219.394531 75.425781 219.042969 75.277344 C 218.691406 75.125 218.125 74.875 217.773438 74.714844 C 217.421875 74.550781 216.859375 74.285156 216.507812 74.113281 C 216.15625 73.945312 215.589844 73.664062 215.238281 73.484375 C 214.886719 73.304688 214.324219 73.011719 213.972656 72.828125 C 213.617188 72.640625 213.054688 72.335938 212.703125 72.144531 C 212.351562 71.953125 211.785156 71.640625 211.433594 71.441406 C 211.082031 71.246094 210.519531 70.925781 210.167969 70.722656 C 209.816406 70.523438 209.25 70.199219 208.898438 69.996094 C 208.546875 69.792969 207.984375 69.464844 207.632812 69.257812 C 207.28125 69.054688 206.714844 68.722656 206.363281 68.519531 C 206.011719 68.3125 205.449219 67.984375 205.097656 67.78125 C 204.746094 67.578125 204.179688 67.25 203.828125 67.050781 C 203.476562 66.847656 202.914062 66.527344 202.5625 66.328125 C 202.210938 66.132812 201.644531 65.816406 201.292969 65.621094 C 200.941406 65.429688 200.378906 65.125 200.027344 64.9375 C 199.671875 64.75 199.109375 64.453125 198.757812 64.273438 C 198.40625 64.089844 197.84375 63.808594 197.488281 63.636719 C 197.136719 63.460938 196.574219 63.191406 196.222656 63.027344 C 195.871094 62.867188 195.304688 62.609375 194.953125 62.457031 C 194.601562 62.304688 194.039062 62.066406 193.6875 61.925781 C 193.335938 61.78125 192.769531 61.5625 192.417969 61.433594 C 192.066406 61.300781 191.503906 61.101562 191.152344 60.984375 C 190.800781 60.867188 190.234375 60.6875 189.882812 60.582031 C 189.53125 60.476562 188.96875 60.320312 188.617188 60.230469 C 188.265625 60.140625 187.699219 60.003906 187.347656 59.929688 C 186.996094 59.851562 186.433594 59.742188 186.082031 59.683594 C 185.730469 59.621094 185.164062 59.535156 184.8125 59.488281 C 184.460938 59.441406 183.898438 59.382812 183.542969 59.351562 C 183.191406 59.320312 182.628906 59.285156 182.277344 59.269531 C 181.925781 59.257812 181.359375 59.246094 181.007812 59.246094 C 180.65625 59.25 180.09375 59.261719 179.742188 59.28125 C 179.390625 59.296875 178.824219 59.339844 178.472656 59.371094 C 178.121094 59.402344 177.558594 59.46875 177.207031 59.519531 C 176.855469 59.566406 176.289062 59.65625 175.9375 59.71875 C 175.585938 59.785156 175.023438 59.898438 174.671875 59.976562 C 174.320312 60.054688 173.753906 60.195312 173.402344 60.285156 C 173.050781 60.378906 172.488281 60.539062 172.136719 60.648438 C 171.785156 60.753906 171.21875 60.9375 170.867188 61.058594 C 170.515625 61.175781 169.953125 61.378906 169.601562 61.511719 C 169.246094 61.644531 168.683594 61.867188 168.332031 62.011719 C 167.980469 62.15625 167.414062 62.398438 167.0625 62.554688 C 166.710938 62.707031 166.148438 62.964844 165.796875 63.128906 C 165.445312 63.296875 164.878906 63.566406 164.527344 63.742188 C 164.175781 63.914062 163.613281 64.203125 163.261719 64.382812 C 162.910156 64.566406 162.34375 64.863281 161.992188 65.050781 C 161.640625 65.242188 161.078125 65.546875 160.726562 65.742188 C 160.375 65.9375 159.808594 66.253906 159.457031 66.453125 C 159.105469 66.652344 158.542969 66.972656 158.191406 67.175781 C 157.839844 67.375 157.273438 67.703125 156.921875 67.90625 C 156.570312 68.113281 156.007812 68.441406 155.65625 68.644531 C 155.300781 68.851562 154.738281 69.179688 154.386719 69.386719 C 154.035156 69.589844 153.472656 69.917969 153.117188 70.121094 C 152.765625 70.324219 152.203125 70.648438 151.851562 70.847656 C 151.5 71.046875 150.933594 71.367188 150.582031 71.5625 C 150.230469 71.761719 149.667969 72.070312 149.316406 72.261719 C 148.964844 72.453125 148.398438 72.757812 148.046875 72.941406 C 147.695312 73.125 147.132812 73.417969 146.78125 73.59375 C 146.429688 73.773438 145.863281 74.050781 145.511719 74.21875 C 145.160156 74.386719 144.597656 74.652344 144.246094 74.8125 C 143.894531 74.972656 143.328125 75.21875 142.976562 75.367188 C 142.625 75.515625 142.0625 75.75 141.710938 75.886719 C 141.359375 76.023438 140.792969 76.234375 140.441406 76.359375 C 140.089844 76.484375 139.527344 76.675781 139.171875 76.789062 C 138.820312 76.902344 138.257812 77.074219 137.90625 77.171875 C 137.554688 77.269531 136.988281 77.417969 136.636719 77.503906 C 136.285156 77.589844 135.722656 77.710938 135.371094 77.78125 C 135.019531 77.851562 134.453125 77.953125 134.101562 78.007812 C 133.75 78.0625 133.1875 78.140625 132.835938 78.179688 C 132.484375 78.21875 131.917969 78.269531 131.566406 78.292969 C 131.214844 78.316406 130.652344 78.34375 130.300781 78.351562 C 129.949219 78.359375 129.382812 78.359375 129.03125 78.351562 C 128.679688 78.34375 128.117188 78.320312 127.765625 78.296875 C 127.414062 78.273438 126.847656 78.222656 126.496094 78.183594 C 126.144531 78.144531 125.582031 78.066406 125.230469 78.011719 C 124.875 77.957031 124.3125 77.859375 123.960938 77.789062 C 123.609375 77.71875 123.042969 77.59375 122.691406 77.507812 C 122.339844 77.425781 121.777344 77.277344 121.425781 77.179688 C 121.074219 77.082031 120.507812 76.910156 120.15625 76.796875 C 119.804688 76.6875 119.242188 76.496094 118.890625 76.371094 C 118.539062 76.246094 117.972656 76.035156 117.621094 75.894531 C 117.269531 75.757812 116.707031 75.527344 116.355469 75.378906 C 116.003906 75.230469 115.4375 74.984375 115.085938 74.824219 C 114.734375 74.664062 114.171875 74.402344 113.820312 74.230469 C 113.46875 74.0625 112.902344 73.785156 112.550781 73.609375 C 112.199219 73.429688 111.636719 73.140625 111.285156 72.953125 C 110.929688 72.769531 110.367188 72.46875 110.015625 72.277344 C 109.664062 72.085938 109.097656 71.773438 108.746094 71.578125 C 108.394531 71.382812 107.832031 71.0625 107.480469 70.863281 C 107.128906 70.664062 106.5625 70.339844 106.210938 70.136719 C 105.859375 69.933594 105.296875 69.605469 104.945312 69.398438 C 104.59375 69.195312 104.027344 68.867188 103.675781 68.660156 C 103.324219 68.457031 102.761719 68.125 102.410156 67.921875 C 102.058594 67.71875 101.492188 67.390625 101.140625 67.191406 C 100.789062 66.988281 100.226562 66.664062 99.875 66.464844 C 99.523438 66.269531 98.957031 65.953125 98.605469 65.757812 C 98.253906 65.5625 97.691406 65.253906 97.339844 65.066406 C 96.984375 64.878906 96.421875 64.578125 96.070312 64.398438 C 95.71875 64.214844 95.15625 63.929688 94.800781 63.753906 C 94.449219 63.582031 93.886719 63.308594 93.535156 63.144531 C 93.183594 62.976562 92.617188 62.71875 92.265625 62.5625 C 91.914062 62.410156 91.351562 62.167969 91 62.023438 C 90.648438 61.878906 90.082031 61.65625 89.730469 61.523438 C 89.378906 61.390625 88.816406 61.1875 88.464844 61.066406 C 88.113281 60.945312 87.546875 60.761719 87.195312 60.65625 C 86.84375 60.546875 86.28125 60.386719 85.929688 60.292969 C 85.578125 60.199219 85.011719 60.0625 84.660156 59.984375 C 84.308594 59.902344 83.746094 59.789062 83.394531 59.726562 C 83.042969 59.660156 82.476562 59.570312 82.125 59.523438 C 81.773438 59.472656 81.210938 59.40625 80.855469 59.375 C 80.503906 59.339844 79.941406 59.300781 79.589844 59.28125 C 79.238281 59.265625 78.671875 59.25 78.320312 59.246094 C 77.96875 59.246094 77.40625 59.253906 77.054688 59.269531 C 76.703125 59.285156 76.136719 59.320312 75.785156 59.347656 C 75.433594 59.378906 74.871094 59.441406 74.519531 59.484375 C 74.167969 59.53125 73.601562 59.617188 73.25 59.675781 C 72.898438 59.738281 72.335938 59.847656 71.984375 59.925781 C 71.632812 60 71.066406 60.132812 70.714844 60.222656 C 70.363281 60.3125 69.800781 60.46875 69.449219 60.574219 C 69.097656 60.679688 68.53125 60.859375 68.179688 60.976562 C 67.828125 61.09375 67.265625 61.292969 66.914062 61.421875 C 66.558594 61.550781 65.996094 61.773438 65.644531 61.914062 C 65.292969 62.054688 64.726562 62.292969 64.375 62.445312 C 64.023438 62.597656 63.460938 62.855469 63.109375 63.015625 C 62.757812 63.179688 62.191406 63.449219 61.839844 63.621094 C 61.488281 63.792969 60.925781 64.078125 60.574219 64.257812 C 60.222656 64.4375 59.65625 64.734375 59.304688 64.921875 C 58.953125 65.109375 58.390625 65.414062 58.039062 65.609375 C 57.6875 65.800781 57.121094 66.117188 56.769531 66.316406 C 56.417969 66.511719 55.855469 66.832031 55.503906 67.035156 C 55.152344 67.238281 54.585938 67.5625 54.234375 67.765625 C 53.882812 67.96875 53.320312 68.300781 52.96875 68.503906 C 52.613281 68.710938 52.050781 69.039062 51.699219 69.242188 C 51.347656 69.449219 50.785156 69.777344 50.429688 69.980469 C 50.078125 70.183594 49.515625 70.507812 49.164062 70.710938 C 48.8125 70.910156 48.246094 71.230469 47.894531 71.429688 C 47.542969 71.625 46.980469 71.9375 46.628906 72.128906 C 46.277344 72.324219 45.710938 72.628906 45.359375 72.8125 C 45.007812 73 44.445312 73.292969 44.09375 73.472656 C 43.742188 73.652344 43.175781 73.933594 42.824219 74.101562 C 42.472656 74.273438 41.910156 74.539062 41.558594 74.703125 C 41.207031 74.863281 40.640625 75.113281 40.289062 75.265625 C 39.9375 75.414062 39.375 75.648438 39.023438 75.789062 C 38.671875 75.929688 38.105469 76.144531 37.753906 76.273438 C 37.402344 76.402344 36.839844 76.597656 36.484375 76.710938 C 36.132812 76.828125 35.570312 77 35.21875 77.101562 C 34.867188 77.203125 34.300781 77.355469 33.949219 77.445312 C 33.597656 77.53125 33.035156 77.660156 32.683594 77.734375 C 32.332031 77.804688 31.765625 77.910156 31.414062 77.96875 C 31.0625 78.027344 30.5 78.109375 30.148438 78.152344 C 29.796875 78.195312 29.230469 78.25 28.878906 78.277344 C 28.527344 78.304688 27.964844 78.332031 27.613281 78.34375 C 27.261719 78.355469 26.695312 78.359375 26.34375 78.355469 C 25.992188 78.351562 25.429688 78.332031 25.078125 78.3125 C 24.726562 78.289062 24.160156 78.246094 23.808594 78.207031 C 23.457031 78.171875 22.894531 78.101562 22.542969 78.050781 C 22.1875 77.996094 21.625 77.902344 21.273438 77.835938 C 20.921875 77.769531 20.355469 77.648438 20.003906 77.566406 C 19.652344 77.484375 19.089844 77.34375 18.738281 77.246094 C 18.386719 77.148438 17.820312 76.984375 17.46875 76.875 C 17.117188 76.765625 16.554688 76.578125 16.203125 76.457031 C 15.851562 76.332031 15.285156 76.125 14.933594 75.988281 C 14.582031 75.855469 14.019531 75.628906 13.667969 75.480469 C 13.316406 75.335938 12.75 75.089844 12.398438 74.933594 C 12.046875 74.777344 11.484375 74.515625 11.132812 74.347656 C 10.78125 74.179688 10.214844 73.90625 9.863281 73.730469 C 9.511719 73.554688 8.949219 73.265625 8.597656 73.082031 C 8.242188 72.898438 7.679688 72.597656 7.328125 72.410156 C 6.976562 72.21875 6.414062 71.910156 6.058594 71.714844 C 5.707031 71.519531 5.144531 71.199219 4.792969 71 C 4.441406 70.800781 3.875 70.480469 3.523438 70.277344 C 3.171875 70.074219 2.609375 69.746094 2.257812 69.542969 C 1.90625 69.335938 0.988281 68.804688 0.988281 68.804688 Z M 0.988281 15.289062 "/>
</g>
<g clip-path="url(#clip2)" clip-rule="nonzero">
<path style="fill:none;stroke-width:1.59404;stroke-linecap:butt;stroke-linejoin:miter;stroke:rgb(0%,0%,0%);stroke-opacity:1;stroke-miterlimit:10;" d="M -0.00107963 69.579524 C -0.00107963 69.579524 0.927241 70.120715 1.282768 70.326131 C 1.638295 70.535497 2.207138 70.863372 2.562665 71.068787 C 2.918192 71.274203 3.490986 71.602078 3.846513 71.803543 C 4.20204 72.005009 4.770883 72.324983 5.12641 72.522498 C 5.485888 72.720013 6.054731 73.036037 6.410258 73.225651 C 6.765785 73.419216 7.334628 73.723389 7.694106 73.909053 C 8.049633 74.094717 8.618476 74.383089 8.974003 74.560853 C 9.32953 74.738616 9.902324 75.019088 10.257851 75.188951 C 10.613378 75.354863 11.182221 75.619533 11.537748 75.781496 C 11.893275 75.939508 12.466069 76.184426 12.821596 76.334538 C 13.177123 76.480699 13.745966 76.709816 14.101493 76.848077 C 14.45702 76.986337 15.029814 77.195703 15.385341 77.318163 C 15.740868 77.444572 16.309711 77.634187 16.665238 77.744795 C 17.020765 77.855403 17.593559 78.021316 17.949086 78.120074 C 18.304613 78.214881 18.873456 78.361042 19.228983 78.443998 C 19.58451 78.526955 20.157304 78.645464 20.512831 78.712619 C 20.868358 78.783724 21.437201 78.878531 21.796678 78.929885 C 22.152205 78.981239 22.721049 79.056295 23.076576 79.091848 C 23.432103 79.1274 24.004896 79.174804 24.360423 79.194555 C 24.71595 79.214307 25.284794 79.238009 25.640321 79.241959 C 25.995848 79.245909 26.568641 79.241959 26.924168 79.230108 C 27.279695 79.218257 27.848538 79.186655 28.204066 79.159003 C 28.559593 79.131351 29.132386 79.076046 29.487913 79.032593 C 29.84344 78.98914 30.412283 78.910134 30.767811 78.850879 C 31.123338 78.791625 31.696131 78.684967 32.051658 78.609911 C 32.407185 78.538805 32.976028 78.408446 33.331556 78.317589 C 33.687083 78.230682 34.259876 78.07662 34.615403 77.973913 C 34.97093 77.871205 35.539773 77.693441 35.895301 77.578882 C 36.254778 77.460373 36.823621 77.262858 37.179148 77.132499 C 37.534675 77.006089 38.107469 76.788822 38.462996 76.646612 C 38.818523 76.504401 39.387366 76.267383 39.742893 76.113321 C 40.09842 75.96321 40.671214 75.70644 41.026741 75.544478 C 41.382268 75.382515 41.951111 75.109945 42.306638 74.940082 C 42.662165 74.766269 43.234959 74.481847 43.590486 74.300133 C 43.946013 74.12237 44.514856 73.822147 44.870383 73.636483 C 45.22591 73.446868 45.798704 73.138745 46.154231 72.94518 C 46.509758 72.751615 47.078601 72.435591 47.434128 72.234126 C 47.789655 72.036611 48.362449 71.712686 48.717976 71.507271 C 49.073503 71.305805 49.642346 70.97793 49.997873 70.768564 C 50.35735 70.563149 50.926194 70.231324 51.281721 70.025908 C 51.637248 69.816542 52.206091 69.484717 52.565568 69.279301 C 52.921095 69.069935 53.489939 68.73811 53.845466 68.532694 C 54.200993 68.327279 54.773786 67.995454 55.129313 67.793988 C 55.48484 67.588573 56.053684 67.264648 56.409211 67.063183 C 56.764738 66.861717 57.337531 66.545693 57.693058 66.348178 C 58.048585 66.154614 58.617429 65.84649 58.972956 65.656876 C 59.328483 65.467261 59.901276 65.167038 60.256803 64.985325 C 60.61233 64.803611 61.181174 64.515239 61.536701 64.341426 C 61.892228 64.167612 62.465021 63.895042 62.820548 63.729129 C 63.176075 63.563216 63.744919 63.306447 64.100446 63.152385 C 64.455973 62.998324 65.028766 62.757355 65.384293 62.611194 C 65.73982 62.468983 66.308664 62.247766 66.668141 62.117407 C 67.023668 61.983096 67.592511 61.781631 67.948038 61.663122 C 68.303565 61.544613 68.876359 61.362899 69.231886 61.260191 C 69.587413 61.153533 70.156256 60.995521 70.511783 60.904664 C 70.86731 60.813807 71.440104 60.679497 71.795631 60.600491 C 72.151158 60.525435 72.720001 60.414827 73.075528 60.351622 C 73.431055 60.288417 74.003849 60.201511 74.359376 60.158058 C 74.714903 60.110654 75.283746 60.051399 75.639273 60.019797 C 75.9948 59.988195 76.567594 59.952642 76.923121 59.940791 C 77.278648 59.92499 77.847491 59.913139 78.203018 59.917089 C 78.558545 59.917089 79.131339 59.93289 79.486866 59.952642 C 79.842393 59.968443 80.411236 60.011896 80.766763 60.043499 C 81.126241 60.079051 81.695084 60.146207 82.050611 60.19361 C 82.406138 60.244964 82.978931 60.335821 83.334459 60.399026 C 83.689986 60.466181 84.258829 60.58074 84.614356 60.659746 C 84.969883 60.738752 85.542676 60.880962 85.898204 60.97577 C 86.253731 61.070577 86.822574 61.232539 87.178101 61.339197 C 87.533628 61.449806 88.106421 61.63547 88.461949 61.757929 C 88.817476 61.876438 89.386319 62.081854 89.741846 62.216164 C 90.097373 62.350474 90.670166 62.579592 91.025693 62.725753 C 91.381221 62.871914 91.950064 63.112882 92.305591 63.270894 C 92.661118 63.428906 93.233911 63.689626 93.589438 63.855539 C 93.944966 64.021451 94.513809 64.297972 94.869336 64.475736 C 95.228813 64.649549 95.797656 64.941871 96.153183 65.123585 C 96.508711 65.309249 97.077554 65.609472 97.437031 65.799087 C 97.792558 65.992651 98.361401 66.304725 98.716928 66.49829 C 99.072455 66.695805 99.645249 67.015779 100.000776 67.217244 C 100.356303 67.41871 100.925146 67.742634 101.280673 67.94805 C 101.6362 68.153466 102.208994 68.485291 102.564521 68.690706 C 102.920048 68.896122 103.488891 69.227947 103.844418 69.437313 C 104.199945 69.642729 104.772739 69.978504 105.128266 70.18392 C 105.483793 70.389336 106.052636 70.721161 106.408163 70.926577 C 106.76369 71.131992 107.336484 71.459867 107.692011 71.665283 C 108.047538 71.866748 108.616381 72.186722 108.971908 72.388188 C 109.327435 72.585703 109.900229 72.901727 110.255756 73.095291 C 110.611283 73.284906 111.180126 73.593029 111.539604 73.778693 C 111.895131 73.964358 112.463974 74.26063 112.819501 74.438394 C 113.175028 74.620107 113.747822 74.900579 114.103349 75.070442 C 114.458876 75.240305 115.027719 75.508925 115.383246 75.666937 C 115.738773 75.828899 116.311567 76.081719 116.667094 76.23183 C 117.022621 76.381941 117.591464 76.615009 117.946991 76.75327 C 118.302518 76.89153 118.875312 77.104846 119.230839 77.231256 C 119.586366 77.357666 120.155209 77.55123 120.510736 77.665789 C 120.866263 77.780348 121.439057 77.950211 121.794584 78.048968 C 122.150111 78.151676 122.718954 78.297837 123.074481 78.384744 C 123.430008 78.47165 124.002802 78.59411 124.358329 78.665215 C 124.713856 78.73632 125.282699 78.839028 125.642176 78.894333 C 125.997703 78.949637 126.566547 79.024692 126.922074 79.064195 C 127.277601 79.103698 127.850394 79.155052 128.205921 79.178754 C 128.561448 79.202456 129.130292 79.230108 129.485819 79.238009 C 129.841346 79.245909 130.414139 79.245909 130.769666 79.238009 C 131.125193 79.230108 131.694037 79.202456 132.049564 79.178754 C 132.405091 79.155052 132.977884 79.103698 133.333411 79.060245 C 133.688938 79.020742 134.257782 78.945686 134.613309 78.890382 C 134.968836 78.835078 135.541629 78.73237 135.897156 78.661265 C 136.252683 78.590159 136.821527 78.46375 137.177054 78.376843 C 137.532581 78.293887 138.105374 78.143775 138.460901 78.045018 C 138.816428 77.94231 139.385272 77.772447 139.740799 77.657888 C 140.100276 77.54333 140.669119 77.349765 141.024646 77.223355 C 141.380173 77.096946 141.952967 76.88363 142.308494 76.741419 C 142.664021 76.603158 143.232864 76.370091 143.588391 76.219979 C 143.943918 76.069868 144.516712 75.817048 144.872239 75.655086 C 145.227766 75.497074 145.796609 75.228454 146.152136 75.058591 C 146.507663 74.888728 147.080457 74.604306 147.435984 74.426543 C 147.791511 74.244829 148.360354 73.952507 148.715881 73.766843 C 149.071408 73.577228 149.644202 73.273055 149.999729 73.07949 C 150.355256 72.885926 150.924099 72.569902 151.279626 72.372386 C 151.635153 72.174871 152.207947 71.850947 152.563474 71.649481 C 152.919001 71.448016 153.487844 71.116191 153.843371 70.910775 C 154.202848 70.70536 154.771692 70.377485 155.127219 70.168119 C 155.482746 69.962703 156.051589 69.626928 156.411066 69.421512 C 156.766593 69.212146 157.335437 68.880321 157.690964 68.674905 C 158.046491 68.46949 158.619284 68.137664 158.974811 67.932249 C 159.330338 67.730783 159.899182 67.402909 160.254709 67.201443 C 160.610236 66.999978 161.183029 66.680004 161.538556 66.486439 C 161.894083 66.288924 162.462927 65.97685 162.818454 65.787236 C 163.173981 65.597621 163.746774 65.293448 164.102301 65.111734 C 164.457828 64.92607 165.026672 64.637698 165.382199 64.463885 C 165.737726 64.286121 166.310519 64.0096 166.666046 63.843688 C 167.021573 63.677775 167.590417 63.417055 167.945944 63.259043 C 168.301471 63.101031 168.874264 62.860063 169.229791 62.713902 C 169.585318 62.567741 170.154162 62.342574 170.513639 62.208263 C 170.869166 62.073953 171.438009 61.868538 171.793536 61.746078 C 172.149063 61.627569 172.721857 61.441905 173.077384 61.331297 C 173.432911 61.224639 174.001754 61.062676 174.357281 60.967869 C 174.712808 60.873062 175.285602 60.734801 175.641129 60.655795 C 175.996656 60.576789 176.565499 60.45828 176.921026 60.395076 C 177.276553 60.331871 177.849347 60.241014 178.204874 60.18966 C 178.560401 60.142256 179.129244 60.075101 179.484771 60.043499 C 179.840298 60.007946 180.413092 59.968443 180.768619 59.948692 C 181.124146 59.93289 181.692989 59.917089 182.048516 59.917089 C 182.404043 59.913139 182.976837 59.92499 183.332364 59.940791 C 183.687891 59.956592 184.256734 59.992145 184.612261 60.023747 C 184.971739 60.051399 185.540582 60.114604 185.896109 60.162008 C 186.251636 60.205461 186.82443 60.292368 187.179957 60.355573 C 187.535484 60.418777 188.104327 60.529386 188.459854 60.608392 C 188.815381 60.683447 189.388175 60.817758 189.743702 60.912565 C 190.099229 61.003422 190.668072 61.161434 191.023599 61.268092 C 191.379126 61.3708 191.95192 61.552514 192.307447 61.671023 C 192.662974 61.793482 193.231817 61.994947 193.587344 62.125307 C 193.942871 62.259617 194.515665 62.480834 194.871192 62.623045 C 195.226719 62.769206 195.795562 63.006224 196.151089 63.164236 C 196.506616 63.318298 197.079409 63.575067 197.434937 63.74098 C 197.790464 63.906893 198.359307 64.179463 198.714834 64.353277 C 199.074311 64.52709 199.643154 64.815462 199.998682 64.997176 C 200.354209 65.178889 200.923052 65.479112 201.282529 65.668727 C 201.638056 65.858341 202.206899 66.170415 202.562427 66.36398 C 202.917954 66.561495 203.490747 66.877519 203.846274 67.078984 C 204.201801 67.280449 204.770644 67.604374 205.126171 67.805839 C 205.481699 68.011255 206.054492 68.33913 206.410019 68.548496 C 206.765546 68.753911 207.334389 69.085737 207.689916 69.291152 C 208.045444 69.500518 208.618237 69.832343 208.973764 70.041709 C 209.329291 70.247125 209.898134 70.57895 210.253661 70.784366 C 210.609189 70.989781 211.181982 71.321607 211.537509 71.523072 C 211.893036 71.724537 212.461879 72.048462 212.817406 72.249927 C 213.172933 72.447442 213.745727 72.763466 214.101254 72.960981 C 214.456781 73.154546 215.025624 73.462669 215.385102 73.648334 C 215.740629 73.837948 216.309472 74.13422 216.664999 74.315934 C 217.020526 74.493698 217.59332 74.778119 217.948847 74.951933 C 218.304374 75.125746 218.873217 75.394366 219.228744 75.556329 C 219.584271 75.718291 220.157065 75.97506 220.512592 76.125172 C 220.868119 76.279234 221.436962 76.516252 221.792489 76.654512 C 222.148016 76.796723 222.72081 77.013989 223.076337 77.144349 C 223.431864 77.270759 224.000707 77.468274 224.356234 77.586783 C 224.711761 77.701342 225.284555 77.879105 225.640082 77.981813 C 225.995609 78.084521 226.564452 78.234632 226.919979 78.325489 C 227.275506 78.412396 227.8483 78.542756 228.203827 78.617811 C 228.559354 78.688917 229.128197 78.795575 229.487674 78.85483 C 229.843201 78.914084 230.412045 78.99309 230.767572 79.036543 C 231.123099 79.079997 231.695892 79.135301 232.051419 79.162953 C 232.406946 79.190605 232.97579 79.218257 233.331317 79.230108 C 233.686844 79.241959 234.259637 79.245909 234.615164 79.241959 C 234.970691 79.234058 235.539535 79.214307 235.895062 79.194555 C 236.250589 79.170854 236.823382 79.1274 237.178909 79.087897 C 237.534436 79.052345 238.10328 78.981239 238.458807 78.925935 C 238.814334 78.874581 239.387127 78.775823 239.742654 78.708668 C 240.098181 78.641513 240.667025 78.519054 241.022552 78.436098 C 241.378079 78.353141 241.950872 78.20698 242.306399 78.112173 C 242.661926 78.013416 243.23077 77.847503 243.586297 77.736894 C 243.945774 77.622336 244.514617 77.432721 244.870144 77.310262 C 245.225671 77.183852 245.798465 76.974486 246.153992 76.836226 C 246.509519 76.701916 247.078362 76.472798 247.433889 76.322687 C 247.789416 76.176526 248.36221 75.927657 248.717737 75.769645 C 249.073264 75.607683 249.642107 75.343012 249.997634 75.1771 C 250.353161 75.007237 250.925955 74.726766 251.281482 74.549002 C 251.637009 74.371239 252.205852 74.078916 252.561379 73.893252 C 252.916906 73.707588 253.4897 73.403415 253.845227 73.2138 C 254.200754 73.020236 255.125124 72.510647 255.125124 72.510647 " transform="matrix(0.988849,0,0,-0.988849,0.989349,84.092694)"/>
</g>
<g clip-path="url(#clip3)" clip-rule="nonzero">
<path style="fill:none;stroke-width:1.59404;stroke-linecap:butt;stroke-linejoin:miter;stroke:rgb(0%,0%,0%);stroke-opacity:1;stroke-miterlimit:10;" d="M -0.00107963 15.460408 C -0.00107963 15.460408 0.927241 14.923167 1.282768 14.713801 C 1.638295 14.508386 2.207138 14.17656 2.562665 13.971145 C 2.918192 13.765729 3.490986 13.441804 3.846513 13.240339 C 4.20204 13.038874 4.770883 12.714949 5.12641 12.517434 C 5.485888 12.319919 6.054731 12.007845 6.410258 11.814281 C 6.765785 11.624666 7.334628 11.320493 7.694106 11.134829 C 8.049633 10.949165 8.618476 10.656843 8.974003 10.479079 C 9.32953 10.301316 9.902324 10.024795 10.257851 9.854932 C 10.613378 9.685069 11.182221 9.420399 11.537748 9.262387 C 11.893275 9.104375 12.466069 8.855506 12.821596 8.709345 C 13.177123 8.559233 13.745966 8.330116 14.101493 8.195805 C 14.45702 8.057545 15.029814 7.848179 15.385341 7.721769 C 15.740868 7.59931 16.309711 7.409696 16.665238 7.299087 C 17.020765 7.188479 17.593559 7.022566 17.949086 6.923809 C 18.304613 6.825051 18.873456 6.68284 19.228983 6.599884 C 19.58451 6.516928 20.157304 6.394468 20.512831 6.327313 C 20.868358 6.260158 21.437201 6.165351 21.796678 6.110047 C 22.152205 6.058693 22.721049 5.987588 23.076576 5.952035 C 23.432103 5.912532 24.004896 5.869079 24.360423 5.845377 C 24.71595 5.825625 25.284794 5.805874 25.640321 5.801923 C 25.995848 5.797973 26.568641 5.801923 26.924168 5.813774 C 27.279695 5.825625 27.848538 5.853277 28.204066 5.880929 C 28.559593 5.908582 29.132386 5.963886 29.487913 6.007339 C 29.84344 6.050792 30.412283 6.133749 30.767811 6.193003 C 31.123338 6.252258 31.696131 6.358916 32.051658 6.430021 C 32.407185 6.505077 32.976028 6.635437 33.331556 6.722343 C 33.687083 6.8132 34.259876 6.967262 34.615403 7.06997 C 34.97093 7.172678 35.539773 7.346491 35.895301 7.465 C 36.254778 7.579559 36.823621 7.777074 37.179148 7.907434 C 37.534675 8.037793 38.107469 8.25506 38.462996 8.397271 C 38.818523 8.539482 39.387366 8.7765 39.742893 8.926611 C 40.09842 9.080673 40.671214 9.333492 41.026741 9.495454 C 41.382268 9.661367 41.951111 9.929987 42.306638 10.103801 C 42.662165 10.273664 43.234959 10.558085 43.590486 10.739799 C 43.946013 10.921513 44.514856 11.217785 44.870383 11.4074 C 45.22591 11.593064 45.798704 11.901187 46.154231 12.098702 C 46.509758 12.292267 47.078601 12.608291 47.434128 12.805806 C 47.789655 13.007271 48.362449 13.331196 48.717976 13.532661 C 49.073503 13.738077 49.642346 14.065952 49.997873 14.271368 C 50.35735 14.476783 50.926194 14.808608 51.281721 15.017974 C 51.637248 15.22339 52.206091 15.555215 52.565568 15.764581 C 52.921095 15.969997 53.489939 16.305772 53.845466 16.511188 C 54.200993 16.716604 54.773786 17.044478 55.129313 17.249894 C 55.48484 17.45531 56.053684 17.779234 56.409211 17.976749 C 56.764738 18.178215 57.337531 18.498189 57.693058 18.691754 C 58.048585 18.889269 58.617429 19.197392 58.972956 19.387007 C 59.328483 19.576621 59.901276 19.876844 60.256803 20.058558 C 60.61233 20.240272 61.181174 20.528643 61.536701 20.702457 C 61.892228 20.87627 62.465021 21.148841 62.820548 21.314753 C 63.176075 21.476716 63.744919 21.737435 64.100446 21.891497 C 64.455973 22.045559 65.028766 22.286527 65.384293 22.428738 C 65.73982 22.570949 66.308664 22.796116 66.668141 22.926476 C 67.023668 23.056836 67.592511 23.258301 67.948038 23.37681 C 68.303565 23.495319 68.876359 23.677033 69.231886 23.783691 C 69.587413 23.890349 70.156256 24.048361 70.511783 24.139218 C 70.86731 24.230075 71.440104 24.364385 71.795631 24.439441 C 72.151158 24.518447 72.720001 24.629055 73.075528 24.69226 C 73.431055 24.751515 74.003849 24.838421 74.359376 24.885825 C 74.714903 24.929278 75.283746 24.992483 75.639273 25.024085 C 75.9948 25.051737 76.567594 25.08729 76.923121 25.103091 C 77.278648 25.118893 77.847491 25.126793 78.203018 25.126793 C 78.558545 25.122843 79.131339 25.107042 79.486866 25.09124 C 79.842393 25.071489 80.411236 25.031986 80.766763 24.996433 C 81.126241 24.964831 81.695084 24.897676 82.050611 24.846322 C 82.406138 24.798918 82.978931 24.708061 83.334459 24.640906 C 83.689986 24.577701 84.258829 24.463143 84.614356 24.380186 C 84.969883 24.30118 85.542676 24.16292 85.898204 24.068113 C 86.253731 23.973305 86.822574 23.811343 87.178101 23.700735 C 87.533628 23.594077 88.106421 23.408412 88.461949 23.285953 C 88.817476 23.163494 89.386319 22.958078 89.741846 22.823768 C 90.097373 22.689458 90.670166 22.464291 91.025693 22.31813 C 91.381221 22.171968 91.950064 21.92705 92.305591 21.772988 C 92.661118 21.614976 93.233911 21.354256 93.589438 21.184393 C 93.944966 21.018481 94.513809 20.74196 94.869336 20.568146 C 95.228813 20.390383 95.797656 20.102011 96.153183 19.916347 C 96.508711 19.734633 97.077554 19.43046 97.437031 19.240846 C 97.792558 19.051231 98.361401 18.739157 98.716928 18.541642 C 99.072455 18.344127 99.645249 18.024153 100.000776 17.826638 C 100.356303 17.625173 100.925146 17.297298 101.280673 17.091882 C 101.6362 16.890417 102.208994 16.558592 102.564521 16.353176 C 102.920048 16.14776 103.488891 15.811985 103.844418 15.606569 C 104.199945 15.397203 104.772739 15.065378 105.128266 14.859962 C 105.483793 14.650596 106.052636 14.318771 106.408163 14.113356 C 106.76369 13.90794 107.336484 13.580065 107.692011 13.3786 C 108.047538 13.177134 108.616381 12.85321 108.971908 12.655695 C 109.327435 12.45818 109.900229 12.142156 110.255756 11.948591 C 110.611283 11.755026 111.180126 11.450853 111.539604 11.265189 C 111.895131 11.075574 112.463974 10.783252 112.819501 10.601538 C 113.175028 10.423775 113.747822 10.143304 114.103349 9.973441 C 114.458876 9.799627 115.027719 9.534957 115.383246 9.372995 C 115.738773 9.211033 116.311567 8.962164 116.667094 8.812052 C 117.022621 8.661941 117.591464 8.428873 117.946991 8.290613 C 118.302518 8.148402 118.875312 7.935086 119.230839 7.808676 C 119.586366 7.682266 120.155209 7.488702 120.510736 7.378093 C 120.866263 7.263535 121.439057 7.089721 121.794584 6.990964 C 122.150111 6.892206 122.718954 6.742095 123.074481 6.659139 C 123.430008 6.572232 124.002802 6.445822 124.358329 6.374717 C 124.713856 6.303612 125.282699 6.204854 125.642176 6.14955 C 125.997703 6.094246 126.566547 6.01524 126.922074 5.975737 C 127.277601 5.936234 127.850394 5.88488 128.205921 5.861178 C 128.561448 5.837476 129.130292 5.813774 129.485819 5.805874 C 129.841346 5.797973 130.414139 5.797973 130.769666 5.805874 C 131.125193 5.813774 131.694037 5.841426 132.049564 5.865128 C 132.405091 5.88883 132.977884 5.940184 133.333411 5.979687 C 133.688938 6.01919 134.257782 6.098196 134.613309 6.1535 C 134.968836 6.208804 135.541629 6.311512 135.897156 6.382618 C 136.252683 6.453723 136.821527 6.576182 137.177054 6.663089 C 137.532581 6.749996 138.105374 6.900107 138.460901 6.998864 C 138.816428 7.097622 139.385272 7.271435 139.740799 7.385994 C 140.100276 7.500553 140.669119 7.694117 141.024646 7.820527 C 141.380173 7.946937 141.952967 8.160253 142.308494 8.298513 C 142.664021 8.436774 143.232864 8.673792 143.588391 8.823903 C 143.943918 8.974015 144.516712 9.222884 144.872239 9.384846 C 145.227766 9.546808 145.796609 9.815429 146.152136 9.985292 C 146.507663 10.155154 147.080457 10.435626 147.435984 10.61734 C 147.791511 10.795103 148.360354 11.091376 148.715881 11.27704 C 149.071408 11.462704 149.644202 11.770827 149.999729 11.964392 C 150.355256 12.157957 150.924099 12.470031 151.279626 12.671496 C 151.635153 12.869011 152.207947 13.192936 152.563474 13.394401 C 152.919001 13.595866 153.487844 13.923741 153.843371 14.129157 C 154.202848 14.334572 154.771692 14.666398 155.127219 14.871813 C 155.482746 15.081179 156.051589 15.413004 156.411066 15.62237 C 156.766593 15.827786 157.335437 16.159611 157.690964 16.368977 C 158.046491 16.574393 158.619284 16.906218 158.974811 17.107683 C 159.330338 17.313099 159.899182 17.637024 160.254709 17.838489 C 160.610236 18.039954 161.183029 18.359929 161.538556 18.557444 C 161.894083 18.754959 162.462927 19.063082 162.818454 19.256647 C 163.173981 19.446261 163.746774 19.746484 164.102301 19.932148 C 164.457828 20.113862 165.026672 20.406184 165.382199 20.579997 C 165.737726 20.757761 166.310519 21.030332 166.666046 21.200195 C 167.021573 21.366107 167.590417 21.626827 167.945944 21.780889 C 168.301471 21.938901 168.874264 22.183819 169.229791 22.32998 C 169.585318 22.476142 170.154162 22.701309 170.513639 22.835619 C 170.869166 22.969929 171.438009 23.175345 171.793536 23.293854 C 172.149063 23.416313 172.721857 23.601977 173.077384 23.708635 C 173.432911 23.819244 174.001754 23.981206 174.357281 24.076013 C 174.712808 24.16687 175.285602 24.309081 175.641129 24.388087 C 175.996656 24.467093 176.565499 24.581652 176.921026 24.648807 C 177.276553 24.712012 177.849347 24.802869 178.204874 24.850272 C 178.560401 24.901626 179.129244 24.968781 179.484771 25.000384 C 179.840298 25.031986 180.413092 25.075439 180.768619 25.09124 C 181.124146 25.110992 181.692989 25.122843 182.048516 25.126793 C 182.404043 25.126793 182.976837 25.114942 183.332364 25.103091 C 183.687891 25.08729 184.256734 25.051737 184.612261 25.020135 C 184.971739 24.988533 185.540582 24.929278 185.896109 24.881875 C 186.251636 24.834471 186.82443 24.747564 187.179957 24.68436 C 187.535484 24.625105 188.104327 24.514497 188.459854 24.435491 C 188.815381 24.360435 189.388175 24.222174 189.743702 24.131317 C 190.099229 24.040461 190.668072 23.882449 191.023599 23.77579 C 191.379126 23.669132 191.95192 23.487418 192.307447 23.368909 C 192.662974 23.2504 193.231817 23.048935 193.587344 22.914625 C 193.942871 22.784265 194.515665 22.563048 194.871192 22.416887 C 195.226719 22.274676 195.795562 22.033708 196.151089 21.879646 C 196.506616 21.725584 197.079409 21.464865 197.434937 21.302902 C 197.790464 21.13699 198.359307 20.864419 198.714834 20.686655 C 199.074311 20.512842 199.643154 20.228421 199.998682 20.042757 C 200.354209 19.861043 200.923052 19.56082 201.282529 19.371205 C 201.638056 19.181591 202.206899 18.873468 202.562427 18.679903 C 202.917954 18.482388 203.490747 18.162413 203.846274 17.964898 C 204.201801 17.763433 204.770644 17.439509 205.126171 17.234093 C 205.481699 17.032628 206.054492 16.700802 206.410019 16.495387 C 206.765546 16.289971 207.334389 15.958146 207.689916 15.74878 C 208.045444 15.543364 208.618237 15.207589 208.973764 15.002173 C 209.329291 14.792807 209.898134 14.460982 210.253661 14.255566 C 210.609189 14.050151 211.181982 13.722276 211.537509 13.52081 C 211.893036 13.315395 212.461879 12.99147 212.817406 12.793955 C 213.172933 12.59249 213.745727 12.276466 214.101254 12.082901 C 214.456781 11.889336 215.025624 11.581213 215.385102 11.391599 C 215.740629 11.205934 216.309472 10.909662 216.664999 10.727948 C 217.020526 10.546234 217.59332 10.261813 217.948847 10.09195 C 218.304374 9.918136 218.873217 9.649516 219.228744 9.483603 C 219.584271 9.321641 220.157065 9.068822 220.512592 8.91476 C 220.868119 8.764649 221.436962 8.527631 221.792489 8.38542 C 222.148016 8.243209 222.72081 8.025943 223.076337 7.899533 C 223.431864 7.769173 224.000707 7.571658 224.356234 7.457099 C 224.711761 7.33859 225.284555 7.164777 225.640082 7.062069 C 225.995609 6.959361 226.564452 6.8053 226.919979 6.718393 C 227.275506 6.627536 227.8483 6.497176 228.203827 6.426071 C 228.559354 6.351015 229.128197 6.244357 229.487674 6.189053 C 229.843201 6.129798 230.412045 6.046842 230.767572 6.007339 C 231.123099 5.963886 231.695892 5.908582 232.051419 5.880929 C 232.406946 5.853277 232.97579 5.821675 233.331317 5.809824 C 233.686844 5.801923 234.259637 5.797973 234.615164 5.801923 C 234.970691 5.805874 235.539535 5.825625 235.895062 5.849327 C 236.250589 5.869079 236.823382 5.916482 237.178909 5.952035 C 237.534436 5.991538 238.10328 6.062643 238.458807 6.113997 C 238.814334 6.169301 239.387127 6.264109 239.742654 6.331264 C 240.098181 6.402369 240.667025 6.520878 241.022552 6.603834 C 241.378079 6.686791 241.950872 6.832952 242.306399 6.931709 C 242.661926 7.026517 243.23077 7.196379 243.586297 7.306988 C 243.945774 7.417596 244.514617 7.607211 244.870144 7.73362 C 245.225671 7.85608 245.798465 8.065446 246.153992 8.203706 C 246.509519 8.341967 247.078362 8.571084 247.433889 8.717245 C 247.789416 8.867357 248.36221 9.116225 248.717737 9.274237 C 249.073264 9.43225 249.642107 9.69692 249.997634 9.866783 C 250.353161 10.036645 250.925955 10.313167 251.281482 10.49093 C 251.637009 10.668694 252.205852 10.961016 252.561379 11.14668 C 252.916906 11.332344 253.4897 11.636517 253.845227 11.830082 C 254.200754 12.023647 255.125124 12.533235 255.125124 12.533235 " transform="matrix(0.988849,0,0,-0.988849,0.989349,84.092694)"/>
</g>
</g>
</svg>
