<?xml version="1.0" encoding="UTF-8"?>
<svg xmlns="http://www.w3.org/2000/svg" xmlns:xlink="http://www.w3.org/1999/xlink" width="255.124pt" height="85.041pt" viewBox="0 0 255.124 85.041" version="1.2">
<defs>
<clipPath id="clip1">
  <path d="M 0.988281 5 L 253.269531 5 L 253.269531 79 L 0.988281 79 Z M 0.988281 5 "/>
</clipPath>
<clipPath id="clip2">
  <path d="M 0.988281 0 L 253.269531 0 L 253.269531 48 L 0.988281 48 Z M 0.988281 0 "/>
</clipPath>
<clipPath id="clip3">
  <path d="M 0.988281 36 L 253.269531 36 L 253.269531 84.09375 L 0.988281 84.09375 Z M 0.988281 36 "/>
</clipPath>
</defs>
<g id="surface1">
<g clip-path="url(#clip1)" clip-rule="nonzero">
<path style=" stroke:none;fill-rule:nonzero;fill:rgb(50%,50%,50%);fill-opacity:0.5;" d="M 0.988281 15.289062 C 0.988281 15.289062 1.90625 14.296875 2.257812 13.921875 C 2.609375 13.542969 3.171875 12.945312 3.523438 12.578125 C 3.875 12.214844 4.441406 11.640625 4.792969 11.296875 C 5.144531 10.949219 5.707031 10.410156 6.058594 10.09375 C 6.414062 9.773438 6.976562 9.285156 7.328125 8.996094 C 7.679688 8.710938 8.242188 8.28125 8.597656 8.03125 C 8.949219 7.785156 9.511719 7.417969 9.863281 7.214844 C 10.214844 7.011719 10.78125 6.722656 11.132812 6.566406 C 11.484375 6.410156 12.046875 6.203125 12.398438 6.097656 C 12.75 5.992188 13.316406 5.867188 13.667969 5.816406 C 14.019531 5.765625 14.582031 5.730469 14.933594 5.734375 C 15.285156 5.738281 15.851562 5.789062 16.203125 5.84375 C 16.554688 5.902344 17.117188 6.042969 17.46875 6.152344 C 17.820312 6.265625 18.386719 6.484375 18.738281 6.648438 C 19.089844 6.808594 19.652344 7.113281 20.003906 7.320312 C 20.355469 7.53125 20.921875 7.90625 21.273438 8.160156 C 21.625 8.414062 22.1875 8.851562 22.542969 9.144531 C 22.894531 9.433594 23.457031 9.933594 23.808594 10.257812 C 24.160156 10.578125 24.726562 11.125 25.078125 11.472656 C 25.429688 11.820312 25.992188 12.398438 26.34375 12.765625 C 26.695312 13.132812 27.261719 13.734375 27.613281 14.113281 C 27.964844 14.488281 28.527344 15.101562 28.878906 15.480469 C 29.230469 15.863281 29.796875 16.472656 30.148438 16.847656 C 30.5 17.222656 31.0625 17.820312 31.414062 18.183594 C 31.765625 18.542969 32.332031 19.117188 32.683594 19.457031 C 33.035156 19.796875 33.597656 20.332031 33.949219 20.644531 C 34.300781 20.960938 34.867188 21.441406 35.21875 21.722656 C 35.570312 22.003906 36.132812 22.429688 36.484375 22.667969 C 36.839844 22.910156 37.402344 23.265625 37.753906 23.460938 C 38.105469 23.660156 38.671875 23.9375 39.023438 24.085938 C 39.375 24.234375 39.9375 24.433594 40.289062 24.53125 C 40.640625 24.628906 41.207031 24.742188 41.558594 24.785156 C 41.910156 24.828125 42.472656 24.851562 42.824219 24.839844 C 43.175781 24.828125 43.742188 24.765625 44.09375 24.699219 C 44.445312 24.632812 45.007812 24.484375 45.359375 24.367188 C 45.710938 24.246094 46.277344 24.015625 46.628906 23.84375 C 46.980469 23.675781 47.542969 23.363281 47.894531 23.148438 C 48.246094 22.929688 48.8125 22.546875 49.164062 22.289062 C 49.515625 22.027344 50.078125 21.578125 50.429688 21.285156 C 50.785156 20.988281 51.347656 20.484375 51.699219 20.15625 C 52.050781 19.828125 52.613281 19.28125 52.96875 18.929688 C 53.320312 18.578125 53.882812 17.992188 54.234375 17.625 C 54.585938 17.257812 55.152344 16.652344 55.503906 16.273438 C 55.855469 15.894531 56.417969 15.28125 56.769531 14.902344 C 57.121094 14.523438 57.6875 13.914062 58.039062 13.539062 C 58.390625 13.164062 58.953125 12.570312 59.304688 12.210938 C 59.65625 11.851562 60.222656 11.285156 60.574219 10.945312 C 60.925781 10.609375 61.488281 10.082031 61.839844 9.773438 C 62.191406 9.460938 62.757812 8.988281 63.109375 8.710938 C 63.460938 8.4375 64.023438 8.023438 64.375 7.785156 C 64.726562 7.550781 65.292969 7.207031 65.644531 7.015625 C 65.996094 6.824219 66.558594 6.558594 66.914062 6.417969 C 67.265625 6.273438 67.828125 6.089844 68.179688 6 C 68.53125 5.910156 69.097656 5.808594 69.449219 5.773438 C 69.800781 5.738281 70.363281 5.726562 70.714844 5.746094 C 71.066406 5.765625 71.632812 5.839844 71.984375 5.914062 C 72.335938 5.984375 72.898438 6.148438 73.25 6.273438 C 73.601562 6.398438 74.167969 6.644531 74.519531 6.820312 C 74.871094 6.996094 75.433594 7.320312 75.785156 7.542969 C 76.136719 7.761719 76.703125 8.160156 77.054688 8.421875 C 77.40625 8.6875 77.96875 9.144531 78.320312 9.445312 C 78.671875 9.746094 79.238281 10.257812 79.589844 10.589844 C 79.941406 10.917969 80.503906 11.472656 80.855469 11.828125 C 81.210938 12.183594 81.773438 12.769531 82.125 13.140625 C 82.476562 13.511719 83.042969 14.117188 83.394531 14.496094 C 83.746094 14.875 84.308594 15.488281 84.660156 15.867188 C 85.011719 16.246094 85.578125 16.855469 85.929688 17.226562 C 86.28125 17.601562 86.84375 18.191406 87.195312 18.546875 C 87.546875 18.90625 88.113281 19.464844 88.464844 19.800781 C 88.816406 20.136719 89.378906 20.65625 89.730469 20.960938 C 90.082031 21.265625 90.648438 21.734375 91 22.003906 C 91.351562 22.273438 91.914062 22.679688 92.265625 22.910156 C 92.617188 23.136719 93.183594 23.472656 93.535156 23.65625 C 93.886719 23.839844 94.449219 24.097656 94.800781 24.230469 C 95.15625 24.363281 95.71875 24.539062 96.070312 24.621094 C 96.421875 24.703125 96.984375 24.792969 97.339844 24.820312 C 97.691406 24.847656 98.253906 24.847656 98.605469 24.820312 C 98.957031 24.792969 99.523438 24.707031 99.875 24.625 C 100.226562 24.546875 100.789062 24.371094 101.140625 24.238281 C 101.492188 24.105469 102.058594 23.847656 102.410156 23.667969 C 102.761719 23.484375 103.324219 23.148438 103.675781 22.921875 C 104.027344 22.691406 104.59375 22.289062 104.945312 22.019531 C 105.296875 21.75 105.859375 21.285156 106.210938 20.976562 C 106.5625 20.671875 107.128906 20.152344 107.480469 19.820312 C 107.832031 19.484375 108.394531 18.925781 108.746094 18.566406 C 109.097656 18.210938 109.664062 17.621094 110.015625 17.25 C 110.367188 16.875 110.929688 16.269531 111.285156 15.890625 C 111.636719 15.511719 112.199219 14.894531 112.550781 14.515625 C 112.902344 14.136719 113.46875 13.53125 113.820312 13.160156 C 114.171875 12.789062 114.734375 12.203125 115.085938 11.847656 C 115.4375 11.492188 116.003906 10.9375 116.355469 10.605469 C 116.707031 10.277344 117.269531 9.761719 117.621094 9.460938 C 117.972656 9.160156 118.539062 8.703125 118.890625 8.4375 C 119.242188 8.171875 119.804688 7.777344 120.15625 7.554688 C 120.507812 7.332031 121.074219 7.007812 121.425781 6.828125 C 121.777344 6.652344 122.339844 6.40625 122.691406 6.28125 C 123.042969 6.152344 123.609375 5.992188 123.960938 5.917969 C 124.3125 5.84375 124.875 5.765625 125.230469 5.746094 C 125.582031 5.726562 126.144531 5.738281 126.496094 5.773438 C 126.847656 5.804688 127.414062 5.90625 127.765625 5.996094 C 128.117188 6.082031 128.679688 6.269531 129.03125 6.410156 C 129.382812 6.550781 129.949219 6.816406 130.300781 7.003906 C 130.652344 7.195312 131.214844 7.539062 131.566406 7.773438 C 131.917969 8.007812 132.484375 8.421875 132.835938 8.695312 C 133.1875 8.972656 133.75 9.445312 134.101562 9.753906 C 134.453125 10.066406 135.019531 10.589844 135.371094 10.929688 C 135.722656 11.265625 136.285156 11.832031 136.636719 12.191406 C 136.988281 12.550781 137.554688 13.144531 137.90625 13.519531 C 138.257812 13.890625 138.820312 14.5 139.171875 14.882812 C 139.527344 15.261719 140.089844 15.875 140.441406 16.253906 C 140.792969 16.628906 141.359375 17.234375 141.710938 17.605469 C 142.0625 17.972656 142.625 18.558594 142.976562 18.910156 C 143.328125 19.261719 143.894531 19.8125 144.246094 20.136719 C 144.597656 20.464844 145.160156 20.972656 145.511719 21.265625 C 145.863281 21.5625 146.429688 22.015625 146.78125 22.273438 C 147.132812 22.53125 147.695312 22.917969 148.046875 23.136719 C 148.398438 23.351562 148.964844 23.664062 149.316406 23.835938 C 149.667969 24.003906 150.230469 24.242188 150.582031 24.359375 C 150.933594 24.480469 151.5 24.628906 151.851562 24.695312 C 152.203125 24.761719 152.765625 24.828125 153.117188 24.839844 C 153.472656 24.851562 154.035156 24.828125 154.386719 24.785156 C 154.738281 24.742188 155.300781 24.632812 155.65625 24.535156 C 156.007812 24.441406 156.570312 24.242188 156.921875 24.09375 C 157.273438 23.949219 157.839844 23.667969 158.191406 23.472656 C 158.542969 23.277344 159.105469 22.921875 159.457031 22.683594 C 159.808594 22.441406 160.375 22.019531 160.726562 21.738281 C 161.078125 21.460938 161.640625 20.976562 161.992188 20.664062 C 162.34375 20.347656 162.910156 19.816406 163.261719 19.476562 C 163.613281 19.132812 164.175781 18.5625 164.527344 18.203125 C 164.878906 17.839844 165.445312 17.242188 165.796875 16.867188 C 166.148438 16.496094 166.710938 15.882812 167.0625 15.503906 C 167.414062 15.125 167.980469 14.507812 168.332031 14.132812 C 168.683594 13.753906 169.246094 13.152344 169.601562 12.785156 C 169.953125 12.417969 170.515625 11.839844 170.867188 11.492188 C 171.21875 11.140625 171.785156 10.597656 172.136719 10.273438 C 172.488281 9.949219 173.050781 9.453125 173.402344 9.160156 C 173.753906 8.867188 174.320312 8.425781 174.671875 8.171875 C 175.023438 7.917969 175.585938 7.542969 175.9375 7.332031 C 176.289062 7.121094 176.855469 6.820312 177.207031 6.65625 C 177.558594 6.492188 178.121094 6.269531 178.472656 6.160156 C 178.824219 6.046875 179.390625 5.90625 179.742188 5.847656 C 180.09375 5.789062 180.65625 5.738281 181.007812 5.734375 C 181.359375 5.730469 181.925781 5.765625 182.277344 5.816406 C 182.628906 5.863281 183.191406 5.988281 183.542969 6.09375 C 183.898438 6.195312 184.460938 6.402344 184.8125 6.558594 C 185.164062 6.714844 185.730469 7.003906 186.082031 7.207031 C 186.433594 7.40625 186.996094 7.773438 187.347656 8.019531 C 187.699219 8.265625 188.265625 8.695312 188.617188 8.980469 C 188.96875 9.265625 189.53125 9.757812 189.882812 10.074219 C 190.234375 10.394531 190.800781 10.929688 191.152344 11.277344 C 191.503906 11.621094 192.066406 12.195312 192.417969 12.558594 C 192.769531 12.921875 193.335938 13.523438 193.6875 13.898438 C 194.039062 14.273438 194.601562 14.886719 194.953125 15.265625 C 195.304688 15.648438 195.871094 16.261719 196.222656 16.636719 C 196.574219 17.011719 197.136719 17.613281 197.488281 17.976562 C 197.84375 18.34375 198.40625 18.917969 198.757812 19.261719 C 199.109375 19.609375 199.671875 20.148438 200.027344 20.46875 C 200.378906 20.785156 200.941406 21.277344 201.292969 21.5625 C 201.644531 21.851562 202.210938 22.285156 202.5625 22.53125 C 202.914062 22.777344 203.476562 23.144531 203.828125 23.347656 C 204.179688 23.554688 204.746094 23.84375 205.097656 24 C 205.449219 24.15625 206.011719 24.367188 206.363281 24.472656 C 206.714844 24.578125 207.28125 24.707031 207.632812 24.757812 C 207.984375 24.808594 208.546875 24.847656 208.898438 24.84375 C 209.25 24.839844 209.816406 24.792969 210.167969 24.734375 C 210.519531 24.679688 211.082031 24.542969 211.433594 24.429688 C 211.785156 24.320312 212.351562 24.101562 212.703125 23.9375 C 213.054688 23.777344 213.617188 23.476562 213.972656 23.265625 C 214.324219 23.058594 214.886719 22.683594 215.238281 22.433594 C 215.589844 22.179688 216.15625 21.738281 216.507812 21.449219 C 216.859375 21.160156 217.421875 20.660156 217.773438 20.339844 C 218.125 20.015625 218.691406 19.472656 219.042969 19.125 C 219.394531 18.777344 219.957031 18.199219 220.308594 17.832031 C 220.660156 17.464844 221.226562 16.863281 221.578125 16.488281 C 221.929688 16.109375 222.492188 15.496094 222.84375 15.117188 C 223.195312 14.738281 223.761719 14.125 224.113281 13.75 C 224.464844 13.375 225.027344 12.777344 225.378906 12.414062 C 225.730469 12.050781 226.296875 11.480469 226.648438 11.140625 C 227 10.796875 227.5625 10.265625 227.917969 9.949219 C 228.269531 9.632812 228.832031 9.148438 229.183594 8.867188 C 229.535156 8.585938 230.101562 8.164062 230.453125 7.921875 C 230.804688 7.679688 231.367188 7.324219 231.71875 7.125 C 232.070312 6.929688 232.636719 6.648438 232.988281 6.5 C 233.339844 6.347656 233.902344 6.148438 234.253906 6.050781 C 234.605469 5.953125 235.171875 5.839844 235.523438 5.796875 C 235.875 5.753906 236.4375 5.726562 236.789062 5.734375 C 237.140625 5.746094 237.707031 5.808594 238.058594 5.875 C 238.410156 5.9375 238.972656 6.085938 239.324219 6.203125 C 239.675781 6.320312 240.242188 6.554688 240.59375 6.722656 C 240.945312 6.890625 241.507812 7.203125 241.859375 7.417969 C 242.214844 7.632812 242.777344 8.015625 243.128906 8.273438 C 243.480469 8.53125 244.046875 8.980469 244.398438 9.277344 C 244.75 9.574219 245.3125 10.078125 245.664062 10.402344 C 246.015625 10.730469 246.582031 11.277344 246.933594 11.628906 C 247.285156 11.980469 247.847656 12.5625 248.199219 12.933594 C 248.550781 13.300781 249.117188 13.90625 249.46875 14.28125 C 249.820312 14.660156 250.382812 15.273438 250.734375 15.652344 C 251.085938 16.035156 251.652344 16.644531 252.003906 17.019531 C 252.355469 17.390625 253.269531 18.347656 253.269531 18.347656 L 253.269531 65.746094 C 253.269531 65.746094 252.355469 66.699219 252.003906 67.074219 C 251.652344 67.449219 251.085938 68.058594 250.734375 68.4375 C 250.382812 68.816406 249.820312 69.429688 249.46875 69.808594 C 249.117188 70.1875 248.550781 70.792969 248.199219 71.160156 C 247.847656 71.527344 247.285156 72.109375 246.933594 72.460938 C 246.582031 72.8125 246.015625 73.363281 245.664062 73.6875 C 245.3125 74.015625 244.75 74.519531 244.398438 74.8125 C 244.046875 75.109375 243.480469 75.558594 243.128906 75.816406 C 242.777344 76.074219 242.214844 76.457031 241.859375 76.671875 C 241.507812 76.890625 240.945312 77.199219 240.59375 77.367188 C 240.242188 77.539062 239.675781 77.769531 239.324219 77.886719 C 238.972656 78.003906 238.410156 78.152344 238.058594 78.21875 C 237.707031 78.285156 237.140625 78.34375 236.789062 78.355469 C 236.4375 78.367188 235.875 78.339844 235.523438 78.296875 C 235.171875 78.25 234.605469 78.136719 234.253906 78.039062 C 233.902344 77.941406 233.339844 77.742188 232.988281 77.59375 C 232.636719 77.445312 232.070312 77.164062 231.71875 76.964844 C 231.367188 76.769531 230.804688 76.410156 230.453125 76.171875 C 230.101562 75.929688 229.535156 75.503906 229.183594 75.222656 C 228.832031 74.941406 228.269531 74.457031 227.917969 74.140625 C 227.5625 73.828125 227 73.292969 226.648438 72.953125 C 226.296875 72.609375 225.730469 72.039062 225.378906 71.675781 C 225.027344 71.3125 224.464844 70.714844 224.113281 70.339844 C 223.761719 69.96875 223.195312 69.355469 222.84375 68.976562 C 222.492188 68.59375 221.929688 67.980469 221.578125 67.605469 C 221.226562 67.226562 220.660156 66.625 220.308594 66.257812 C 219.957031 65.894531 219.394531 65.3125 219.042969 64.964844 C 218.691406 64.617188 218.125 64.074219 217.773438 63.753906 C 217.421875 63.429688 216.859375 62.933594 216.507812 62.640625 C 216.15625 62.351562 215.589844 61.910156 215.238281 61.660156 C 214.886719 61.40625 214.324219 61.03125 213.972656 60.824219 C 213.617188 60.613281 213.054688 60.316406 212.703125 60.152344 C 212.351562 59.992188 211.785156 59.769531 211.433594 59.660156 C 211.082031 59.550781 210.519531 59.414062 210.167969 59.355469 C 209.816406 59.300781 209.25 59.25 208.898438 59.246094 C 208.546875 59.242188 207.984375 59.285156 207.632812 59.335938 C 207.28125 59.386719 206.714844 59.511719 206.363281 59.617188 C 206.011719 59.722656 205.449219 59.933594 205.097656 60.089844 C 204.746094 60.246094 204.179688 60.539062 203.828125 60.742188 C 203.476562 60.945312 202.914062 61.3125 202.5625 61.558594 C 202.210938 61.808594 201.644531 62.242188 201.292969 62.527344 C 200.941406 62.8125 200.378906 63.304688 200.027344 63.625 C 199.671875 63.945312 199.109375 64.484375 198.757812 64.828125 C 198.40625 65.171875 197.84375 65.75 197.488281 66.113281 C 197.136719 66.476562 196.574219 67.078125 196.222656 67.453125 C 195.871094 67.832031 195.304688 68.445312 194.953125 68.824219 C 194.601562 69.203125 194.039062 69.816406 193.6875 70.191406 C 193.335938 70.566406 192.769531 71.167969 192.417969 71.53125 C 192.066406 71.894531 191.503906 72.472656 191.152344 72.816406 C 190.800781 73.160156 190.234375 73.699219 189.882812 74.015625 C 189.53125 74.335938 188.96875 74.824219 188.617188 75.109375 C 188.265625 75.394531 187.699219 75.828125 187.347656 76.074219 C 186.996094 76.320312 186.433594 76.683594 186.082031 76.886719 C 185.730469 77.089844 185.164062 77.378906 184.8125 77.53125 C 184.460938 77.6875 183.898438 77.894531 183.542969 78 C 183.191406 78.101562 182.628906 78.226562 182.277344 78.277344 C 181.925781 78.328125 181.359375 78.363281 181.007812 78.359375 C 180.65625 78.355469 180.09375 78.300781 179.742188 78.242188 C 179.390625 78.183594 178.824219 78.046875 178.472656 77.933594 C 178.121094 77.820312 177.558594 77.597656 177.207031 77.433594 C 176.855469 77.273438 176.289062 76.96875 175.9375 76.757812 C 175.585938 76.546875 175.023438 76.171875 174.671875 75.917969 C 174.320312 75.664062 173.753906 75.222656 173.402344 74.929688 C 173.050781 74.640625 172.488281 74.140625 172.136719 73.816406 C 171.785156 73.496094 171.21875 72.949219 170.867188 72.601562 C 170.515625 72.253906 169.953125 71.671875 169.601562 71.304688 C 169.246094 70.9375 168.683594 70.335938 168.332031 69.960938 C 167.980469 69.582031 167.414062 68.96875 167.0625 68.589844 C 166.710938 68.207031 166.148438 67.597656 165.796875 67.222656 C 165.445312 66.847656 164.878906 66.25 164.527344 65.890625 C 164.175781 65.527344 163.613281 64.957031 163.261719 64.617188 C 162.910156 64.273438 162.34375 63.742188 161.992188 63.429688 C 161.640625 63.113281 161.078125 62.632812 160.726562 62.351562 C 160.375 62.070312 159.808594 61.648438 159.457031 61.410156 C 159.105469 61.167969 158.542969 60.8125 158.191406 60.617188 C 157.839844 60.421875 157.273438 60.144531 156.921875 59.996094 C 156.570312 59.847656 156.007812 59.652344 155.65625 59.554688 C 155.300781 59.460938 154.738281 59.347656 154.386719 59.304688 C 154.035156 59.261719 153.472656 59.238281 153.117188 59.25 C 152.765625 59.265625 152.203125 59.328125 151.851562 59.394531 C 151.5 59.460938 150.933594 59.613281 150.582031 59.730469 C 150.230469 59.851562 149.667969 60.085938 149.316406 60.253906 C 148.964844 60.425781 148.398438 60.738281 148.046875 60.957031 C 147.695312 61.171875 147.132812 61.558594 146.78125 61.816406 C 146.429688 62.078125 145.863281 62.527344 145.511719 62.824219 C 145.160156 63.121094 144.597656 63.625 144.246094 63.953125 C 143.894531 64.28125 143.328125 64.832031 142.976562 65.183594 C 142.625 65.535156 142.0625 66.117188 141.710938 66.488281 C 141.359375 66.855469 140.792969 67.460938 140.441406 67.839844 C 140.089844 68.214844 139.527344 68.832031 139.171875 69.210938 C 138.820312 69.589844 138.257812 70.199219 137.90625 70.574219 C 137.554688 70.945312 136.988281 71.539062 136.636719 71.898438 C 136.285156 72.257812 135.722656 72.824219 135.371094 73.164062 C 135.019531 73.5 134.453125 74.027344 134.101562 74.335938 C 133.75 74.644531 133.1875 75.121094 132.835938 75.394531 C 132.484375 75.667969 131.917969 76.082031 131.566406 76.316406 C 131.214844 76.550781 130.652344 76.894531 130.300781 77.085938 C 129.949219 77.273438 129.382812 77.542969 129.03125 77.683594 C 128.679688 77.824219 128.117188 78.007812 127.765625 78.097656 C 127.414062 78.183594 126.847656 78.285156 126.496094 78.320312 C 126.144531 78.355469 125.582031 78.367188 125.230469 78.347656 C 124.875 78.324219 124.3125 78.25 123.960938 78.175781 C 123.609375 78.101562 123.042969 77.9375 122.691406 77.8125 C 122.339844 77.683594 121.777344 77.4375 121.425781 77.261719 C 121.074219 77.085938 120.507812 76.761719 120.15625 76.539062 C 119.804688 76.316406 119.242188 75.917969 118.890625 75.65625 C 118.539062 75.390625 117.972656 74.929688 117.621094 74.628906 C 117.269531 74.328125 116.707031 73.816406 116.355469 73.484375 C 116.003906 73.152344 115.4375 72.597656 115.085938 72.242188 C 114.734375 71.890625 114.171875 71.300781 113.820312 70.929688 C 113.46875 70.5625 112.902344 69.953125 112.550781 69.574219 C 112.199219 69.195312 111.636719 68.582031 111.285156 68.203125 C 110.929688 67.824219 110.367188 67.214844 110.015625 66.84375 C 109.664062 66.472656 109.097656 65.878906 108.746094 65.523438 C 108.394531 65.167969 107.832031 64.605469 107.480469 64.273438 C 107.128906 63.9375 106.5625 63.417969 106.210938 63.113281 C 105.859375 62.808594 105.296875 62.34375 104.945312 62.074219 C 104.59375 61.804688 104.027344 61.398438 103.675781 61.171875 C 103.324219 60.941406 102.761719 60.609375 102.410156 60.425781 C 102.058594 60.242188 101.492188 59.988281 101.140625 59.851562 C 100.789062 59.71875 100.226562 59.546875 99.875 59.464844 C 99.523438 59.386719 98.957031 59.296875 98.605469 59.269531 C 98.253906 59.242188 97.691406 59.246094 97.339844 59.273438 C 96.984375 59.300781 96.421875 59.386719 96.070312 59.46875 C 95.71875 59.550781 95.15625 59.726562 94.800781 59.859375 C 94.449219 59.996094 93.886719 60.253906 93.535156 60.4375 C 93.183594 60.617188 92.617188 60.953125 92.265625 61.183594 C 91.914062 61.414062 91.351562 61.816406 91 62.085938 C 90.648438 62.359375 90.082031 62.824219 89.730469 63.128906 C 89.378906 63.4375 88.816406 63.957031 88.464844 64.289062 C 88.113281 64.625 87.546875 65.1875 87.195312 65.542969 C 86.84375 65.898438 86.28125 66.492188 85.929688 66.863281 C 85.578125 67.234375 85.011719 67.84375 84.660156 68.222656 C 84.308594 68.601562 83.746094 69.21875 83.394531 69.597656 C 83.042969 69.972656 82.476562 70.582031 82.125 70.953125 C 81.773438 71.320312 81.210938 71.910156 80.855469 72.261719 C 80.503906 72.617188 79.941406 73.171875 79.589844 73.503906 C 79.238281 73.832031 78.671875 74.347656 78.320312 74.644531 C 77.96875 74.945312 77.40625 75.40625 77.054688 75.667969 C 76.703125 75.933594 76.136719 76.328125 75.785156 76.550781 C 75.433594 76.773438 74.871094 77.09375 74.519531 77.273438 C 74.167969 77.449219 73.601562 77.691406 73.25 77.820312 C 72.898438 77.945312 72.335938 78.105469 71.984375 78.179688 C 71.632812 78.253906 71.066406 78.328125 70.714844 78.347656 C 70.363281 78.367188 69.800781 78.351562 69.449219 78.316406 C 69.097656 78.28125 68.53125 78.179688 68.179688 78.09375 C 67.828125 78.003906 67.265625 77.816406 66.914062 77.675781 C 66.558594 77.535156 65.996094 77.265625 65.644531 77.074219 C 65.292969 76.886719 64.726562 76.539062 64.375 76.304688 C 64.023438 76.070312 63.460938 75.65625 63.109375 75.378906 C 62.757812 75.105469 62.191406 74.628906 61.839844 74.320312 C 61.488281 74.007812 60.925781 73.484375 60.574219 73.144531 C 60.222656 72.804688 59.65625 72.238281 59.304688 71.878906 C 58.953125 71.519531 58.390625 70.925781 58.039062 70.554688 C 57.6875 70.179688 57.121094 69.570312 56.769531 69.1875 C 56.417969 68.808594 55.855469 68.195312 55.503906 67.816406 C 55.152344 67.441406 54.585938 66.835938 54.234375 66.464844 C 53.882812 66.097656 53.320312 65.515625 52.96875 65.164062 C 52.613281 64.8125 52.050781 64.261719 51.699219 63.933594 C 51.347656 63.609375 50.785156 63.101562 50.429688 62.808594 C 50.078125 62.511719 49.515625 62.0625 49.164062 61.804688 C 48.8125 61.546875 48.246094 61.160156 47.894531 60.945312 C 47.542969 60.726562 46.980469 60.414062 46.628906 60.246094 C 46.277344 60.078125 45.710938 59.84375 45.359375 59.726562 C 45.007812 59.605469 44.445312 59.457031 44.09375 59.390625 C 43.742188 59.324219 43.175781 59.261719 42.824219 59.25 C 42.472656 59.238281 41.910156 59.265625 41.558594 59.308594 C 41.207031 59.351562 40.640625 59.464844 40.289062 59.5625 C 39.9375 59.65625 39.375 59.855469 39.023438 60.003906 C 38.671875 60.152344 38.105469 60.433594 37.753906 60.628906 C 37.402344 60.824219 36.839844 61.179688 36.484375 61.421875 C 36.132812 61.664062 35.570312 62.085938 35.21875 62.367188 C 34.867188 62.648438 34.300781 63.132812 33.949219 63.445312 C 33.597656 63.761719 33.035156 64.292969 32.683594 64.632812 C 32.332031 64.976562 31.765625 65.546875 31.414062 65.910156 C 31.0625 66.269531 30.5 66.867188 30.148438 67.242188 C 29.796875 67.617188 29.230469 68.230469 28.878906 68.609375 C 28.527344 68.988281 27.964844 69.601562 27.613281 69.980469 C 27.261719 70.355469 26.695312 70.960938 26.34375 71.328125 C 25.992188 71.691406 25.429688 72.273438 25.078125 72.621094 C 24.726562 72.96875 24.160156 73.511719 23.808594 73.835938 C 23.457031 74.160156 22.894531 74.65625 22.542969 74.945312 C 22.1875 75.238281 21.625 75.679688 21.273438 75.933594 C 20.921875 76.183594 20.355469 76.558594 20.003906 76.769531 C 19.652344 76.980469 19.089844 77.28125 18.738281 77.445312 C 18.386719 77.605469 17.820312 77.828125 17.46875 77.9375 C 17.117188 78.050781 16.554688 78.1875 16.203125 78.246094 C 15.851562 78.304688 15.285156 78.355469 14.933594 78.359375 C 14.582031 78.363281 14.019531 78.324219 13.667969 78.273438 C 13.316406 78.222656 12.75 78.097656 12.398438 77.992188 C 12.046875 77.890625 11.484375 77.679688 11.132812 77.523438 C 10.78125 77.371094 10.214844 77.078125 9.863281 76.875 C 9.511719 76.671875 8.949219 76.304688 8.597656 76.058594 C 8.242188 75.8125 7.679688 75.378906 7.328125 75.09375 C 6.976562 74.808594 6.414062 74.316406 6.058594 74 C 5.707031 73.679688 5.144531 73.140625 4.792969 72.796875 C 4.441406 72.453125 3.875 71.875 3.523438 71.511719 C 3.171875 71.148438 2.609375 70.546875 2.257812 70.171875 C 1.90625 69.796875 0.988281 68.804688 0.988281 68.804688 Z M 0.988281 15.289062 "/>
</g>
<g clip-path="url(#clip2)" clip-rule="nonzero">
<path style="fill:none;stroke-width:1.59404;stroke-linecap:butt;stroke-linejoin:miter;stroke:rgb(0%,0%,0%);stroke-opacity:1;stroke-miterlimit:10;" d="M -0.00107963 69.579524 C -0.00107963 69.579524 0.927241 70.5829 1.282768 70.962129 C 1.638295 71.345308 2.207138 71.949704 2.562665 72.321033 C 2.918192 72.688411 3.490986 73.269105 3.846513 73.616731 C 4.20204 73.968308 4.770883 74.513449 5.12641 74.833424 C 5.485888 75.157348 6.054731 75.651136 6.410258 75.943458 C 6.765785 76.23183 7.334628 76.666363 7.694106 76.919182 C 8.049633 77.168051 8.618476 77.539379 8.974003 77.744795 C 9.32953 77.950211 9.902324 78.242533 10.257851 78.400545 C 10.613378 78.558557 11.182221 78.767923 11.537748 78.874581 C 11.893275 78.981239 12.466069 79.107649 12.821596 79.159003 C 13.177123 79.210357 13.745966 79.245909 14.101493 79.241959 C 14.45702 79.238009 15.029814 79.186655 15.385341 79.131351 C 15.740868 79.072096 16.309711 78.929885 16.665238 78.819277 C 17.020765 78.704718 17.593559 78.483501 17.949086 78.317589 C 18.304613 78.155626 18.873456 77.847503 19.228983 77.638137 C 19.58451 77.424821 20.157304 77.045592 20.512831 76.788822 C 20.868358 76.532053 21.437201 76.089619 21.796678 75.793347 C 22.152205 75.501024 22.721049 74.995386 23.076576 74.667511 C 23.432103 74.343586 24.004896 73.790544 24.360423 73.438968 C 24.71595 73.087391 25.284794 72.502746 25.640321 72.131418 C 25.995848 71.76009 26.568641 71.151744 26.924168 70.768564 C 27.279695 70.389336 27.848538 69.769138 28.204066 69.385959 C 28.559593 68.99883 29.132386 68.382583 29.487913 68.003354 C 29.84344 67.624125 30.412283 67.019729 30.767811 66.652351 C 31.123338 66.288924 31.696131 65.70823 32.051658 65.364553 C 32.407185 65.020877 32.976028 64.479686 33.331556 64.163662 C 33.687083 63.843688 34.259876 63.357801 34.615403 63.073379 C 34.97093 62.788958 35.539773 62.358375 35.895301 62.117407 C 36.254778 61.872488 36.823621 61.513011 37.179148 61.315496 C 37.534675 61.11403 38.107469 60.833559 38.462996 60.683447 C 38.818523 60.533336 39.387366 60.331871 39.742893 60.233113 C 40.09842 60.134356 40.671214 60.019797 41.026741 59.976344 C 41.382268 59.93289 41.951111 59.909189 42.306638 59.921039 C 42.662165 59.93289 43.234959 59.996095 43.590486 60.06325 C 43.946013 60.130405 44.514856 60.280517 44.870383 60.399026 C 45.22591 60.521485 45.798704 60.754553 46.154231 60.928366 C 46.509758 61.098229 47.078601 61.414253 47.434128 61.63152 C 47.789655 61.852736 48.362449 62.239866 48.717976 62.500586 C 49.073503 62.765256 49.642346 63.21954 49.997873 63.515813 C 50.35735 63.816036 50.926194 64.325624 51.281721 64.65745 C 51.637248 64.989275 52.206091 65.542317 52.565568 65.897844 C 52.921095 66.253371 53.489939 66.845916 53.845466 67.217244 C 54.200993 67.588573 54.773786 68.200869 55.129313 68.584048 C 55.48484 68.967227 56.053684 69.587425 56.409211 69.970604 C 56.764738 70.353783 57.337531 70.97003 57.693058 71.349259 C 58.048585 71.728488 58.617429 72.328933 58.972956 72.692361 C 59.328483 73.055788 59.901276 73.628582 60.256803 73.972258 C 60.61233 74.311984 61.181174 74.845275 61.536701 75.157348 C 61.892228 75.473372 62.465021 75.951359 62.820548 76.23183 C 63.176075 76.508351 63.744919 76.927083 64.100446 77.168051 C 64.455973 77.405069 65.028766 77.752696 65.384293 77.94626 C 65.73982 78.139825 66.308664 78.408446 66.668141 78.550656 C 67.023668 78.696817 67.592511 78.882482 67.948038 78.973339 C 68.303565 79.064195 68.876359 79.166903 69.231886 79.202456 C 69.587413 79.238009 70.156256 79.24986 70.511783 79.230108 C 70.86731 79.210357 71.440104 79.135301 71.795631 79.060245 C 72.151158 78.98914 72.720001 78.823227 73.075528 78.696817 C 73.431055 78.570408 74.003849 78.321539 74.359376 78.143775 C 74.714903 77.966012 75.283746 77.638137 75.639273 77.41297 C 75.9948 77.191753 76.567594 76.788822 76.923121 76.524152 C 77.278648 76.255532 77.847491 75.793347 78.203018 75.489174 C 78.558545 75.185 79.131339 74.667511 79.486866 74.331735 C 79.842393 73.99991 80.411236 73.438968 80.766763 73.07949 C 81.126241 72.720013 81.695084 72.127468 82.050611 71.752189 C 82.406138 71.376911 82.978931 70.764614 83.334459 70.381435 C 83.689986 69.998256 84.258829 69.378059 84.614356 68.99488 C 84.969883 68.6117 85.542676 67.995454 85.898204 67.620175 C 86.253731 67.240946 86.822574 66.644451 87.178101 66.284973 C 87.533628 65.921546 88.106421 65.356653 88.461949 65.016927 C 88.817476 64.677201 89.386319 64.151811 89.741846 63.843688 C 90.097373 63.535564 90.670166 63.061528 91.025693 62.788958 C 91.381221 62.516387 91.950064 62.105556 92.305591 61.872488 C 92.661118 61.64337 93.233911 61.303645 93.589438 61.117981 C 93.944966 60.932316 94.513809 60.671597 94.869336 60.537286 C 95.228813 60.402976 95.797656 60.225213 96.153183 60.142256 C 96.508711 60.0593 97.077554 59.968443 97.437031 59.940791 C 97.792558 59.913139 98.361401 59.913139 98.716928 59.940791 C 99.072455 59.968443 99.645249 60.05535 100.000776 60.138306 C 100.356303 60.217312 100.925146 60.395076 101.280673 60.529386 C 101.6362 60.663696 102.208994 60.924416 102.564521 61.10613 C 102.920048 61.291794 103.488891 61.63152 103.844418 61.860637 C 104.199945 62.093705 104.772739 62.500586 105.128266 62.773156 C 105.483793 63.045727 106.052636 63.515813 106.408163 63.827887 C 106.76369 64.13601 107.336484 64.6614 107.692011 64.997176 C 108.047538 65.336901 108.616381 65.901794 108.971908 66.265222 C 109.327435 66.624699 109.900229 67.221195 110.255756 67.596473 C 110.611283 67.975702 111.180126 68.587999 111.539604 68.971178 C 111.895131 69.354357 112.463974 69.978504 112.819501 70.361684 C 113.175028 70.744863 113.747822 71.357159 114.103349 71.732438 C 114.458876 72.107716 115.027719 72.700261 115.383246 73.059739 C 115.738773 73.419216 116.311567 73.980159 116.667094 74.315934 C 117.022621 74.64776 117.591464 75.169199 117.946991 75.473372 C 118.302518 75.777545 118.875312 76.239731 119.230839 76.508351 C 119.586366 76.776971 120.155209 77.175952 120.510736 77.401119 C 120.866263 77.626286 121.439057 77.954161 121.794584 78.135875 C 122.150111 78.313638 122.718954 78.562507 123.074481 78.688917 C 123.430008 78.819277 124.002802 78.981239 124.358329 79.056295 C 124.713856 79.131351 125.282699 79.210357 125.642176 79.230108 C 125.997703 79.24986 126.566547 79.238009 126.922074 79.202456 C 127.277601 79.170854 127.850394 79.068146 128.205921 78.977289 C 128.561448 78.890382 129.130292 78.700768 129.485819 78.558557 C 129.841346 78.416346 130.414139 78.147726 130.769666 77.958111 C 131.125193 77.764547 131.694037 77.41692 132.049564 77.179902 C 132.405091 76.942884 132.977884 76.524152 133.333411 76.247631 C 133.688938 75.96716 134.257782 75.489174 134.613309 75.1771 C 134.968836 74.861076 135.541629 74.331735 135.897156 73.988059 C 136.252683 73.648334 136.821527 73.07554 137.177054 72.712112 C 137.532581 72.348685 138.105374 71.748239 138.460901 71.36901 C 138.816428 70.993732 139.385272 70.377485 139.740799 69.990355 C 140.100276 69.607176 140.669119 68.986979 141.024646 68.6038 C 141.380173 68.224571 141.952967 67.612274 142.308494 67.236996 C 142.664021 66.865668 143.232864 66.273123 143.588391 65.917596 C 143.943918 65.562069 144.516712 65.005076 144.872239 64.677201 C 145.227766 64.345376 145.796609 63.831837 146.152136 63.535564 C 146.507663 63.235342 147.080457 62.777107 147.435984 62.516387 C 147.791511 62.255667 148.360354 61.864587 148.715881 61.64337 C 149.071408 61.426104 149.644202 61.11008 149.999729 60.936267 C 150.355256 60.766404 150.924099 60.525435 151.279626 60.406926 C 151.635153 60.284467 152.207947 60.134356 152.563474 60.067201 C 152.919001 60.000045 153.487844 59.93289 153.843371 59.921039 C 154.202848 59.909189 154.771692 59.93289 155.127219 59.976344 C 155.482746 60.019797 156.051589 60.130405 156.411066 60.229163 C 156.766593 60.32397 157.335437 60.525435 157.690964 60.675547 C 158.046491 60.821708 158.619284 61.10613 158.974811 61.303645 C 159.330338 61.50116 159.899182 61.860637 160.254709 62.101605 C 160.610236 62.346524 161.183029 62.773156 161.538556 63.057578 C 161.894083 63.338049 162.462927 63.827887 162.818454 64.143911 C 163.173981 64.463885 163.746774 65.001126 164.102301 65.344802 C 164.457828 65.692428 165.026672 66.269172 165.382199 66.6326 C 165.737726 66.999978 166.310519 67.604374 166.666046 67.983603 C 167.021573 68.358881 167.590417 68.979078 167.945944 69.362258 C 168.301471 69.745437 168.874264 70.369584 169.229791 70.748813 C 169.585318 71.131992 170.154162 71.740338 170.513639 72.111667 C 170.869166 72.482995 171.438009 73.067639 171.793536 73.419216 C 172.149063 73.774743 172.721857 74.323835 173.077384 74.65171 C 173.432911 74.979585 174.001754 75.481273 174.357281 75.777545 C 174.712808 76.073818 175.285602 76.520202 175.641129 76.776971 C 175.996656 77.033741 176.565499 77.41297 176.921026 77.626286 C 177.276553 77.839602 177.849347 78.143775 178.204874 78.309688 C 178.560401 78.475601 179.129244 78.700768 179.484771 78.811376 C 179.840298 78.925935 180.413092 79.068146 180.768619 79.1274 C 181.124146 79.186655 181.692989 79.238009 182.048516 79.241959 C 182.404043 79.245909 182.976837 79.210357 183.332364 79.159003 C 183.687891 79.111599 184.256734 78.985189 184.612261 78.878531 C 184.971739 78.775823 185.540582 78.566458 185.896109 78.408446 C 186.251636 78.250434 186.82443 77.958111 187.179957 77.752696 C 187.535484 77.55123 188.104327 77.179902 188.459854 76.931033 C 188.815381 76.682164 189.388175 76.247631 189.743702 75.959259 C 190.099229 75.670887 190.668072 75.173149 191.023599 74.853175 C 191.379126 74.529251 191.95192 73.988059 192.307447 73.636483 C 192.662974 73.288856 193.231817 72.708162 193.587344 72.340784 C 193.942871 71.973406 194.515665 71.36506 194.871192 70.985831 C 195.226719 70.606602 195.795562 69.986405 196.151089 69.603226 C 196.506616 69.216096 197.079409 68.595899 197.434937 68.21667 C 197.790464 67.837442 198.359307 67.229095 198.714834 66.861717 C 199.074311 66.490389 199.643154 65.909695 199.998682 65.562069 C 200.354209 65.210492 200.923052 64.66535 201.282529 64.341426 C 201.638056 64.021451 202.206899 63.523713 202.562427 63.235342 C 202.917954 62.943019 203.490747 62.504536 203.846274 62.255667 C 204.201801 62.006798 204.770644 61.63547 205.126171 61.430054 C 205.481699 61.220688 206.054492 60.928366 206.410019 60.770354 C 206.765546 60.612342 207.334389 60.399026 207.689916 60.292368 C 208.045444 60.18571 208.618237 60.05535 208.973764 60.003996 C 209.329291 59.952642 209.898134 59.913139 210.253661 59.917089 C 210.609189 59.921039 211.181982 59.968443 211.537509 60.027698 C 211.893036 60.083002 212.461879 60.221262 212.817406 60.335821 C 213.172933 60.446429 213.745727 60.667646 214.101254 60.833559 C 214.456781 60.995521 215.025624 61.299694 215.385102 61.513011 C 215.740629 61.722376 216.309472 62.101605 216.664999 62.354425 C 217.020526 62.611194 217.59332 63.057578 217.948847 63.3499 C 218.304374 63.642222 218.873217 64.147861 219.228744 64.471786 C 219.584271 64.799661 220.157065 65.348752 220.512592 65.700329 C 220.868119 66.051906 221.436962 66.63655 221.792489 67.007878 C 222.148016 67.379207 222.72081 67.987553 223.076337 68.366782 C 223.431864 68.749961 224.000707 69.370158 224.356234 69.753337 C 224.711761 70.136516 225.284555 70.756714 225.640082 71.135942 C 225.995609 71.515171 226.564452 72.119567 226.919979 72.486945 C 227.275506 72.854323 227.8483 73.431067 228.203827 73.774743 C 228.559354 74.12237 229.128197 74.65961 229.487674 74.979585 C 229.843201 75.299559 230.412045 75.789396 230.767572 76.073818 C 231.123099 76.35824 231.695892 76.784872 232.051419 77.029791 C 232.406946 77.274709 232.97579 77.634187 233.331317 77.835652 C 233.686844 78.033167 234.259637 78.317589 234.615164 78.4677 C 234.970691 78.621762 235.539535 78.823227 235.895062 78.921985 C 236.250589 79.020742 236.823382 79.135301 237.178909 79.178754 C 237.534436 79.222207 238.10328 79.24986 238.458807 79.241959 C 238.814334 79.230108 239.387127 79.166903 239.742654 79.099748 C 240.098181 79.036543 240.667025 78.886432 241.022552 78.767923 C 241.378079 78.649414 241.950872 78.412396 242.306399 78.242533 C 242.661926 78.07267 243.23077 77.756646 243.586297 77.539379 C 243.945774 77.322113 244.514617 76.934983 244.870144 76.674264 C 245.225671 76.413544 245.798465 75.959259 246.153992 75.659036 C 246.509519 75.358814 247.078362 74.849225 247.433889 74.52135 C 247.789416 74.189525 248.36221 73.636483 248.717737 73.280956 C 249.073264 72.925429 249.642107 72.336834 249.997634 71.961555 C 250.353161 71.590227 250.925955 70.97793 251.281482 70.598702 C 251.637009 70.215522 252.205852 69.595325 252.561379 69.212146 C 252.916906 68.825017 253.4897 68.20877 253.845227 67.829541 C 254.200754 67.454262 255.125124 66.486439 255.125124 66.486439 " transform="matrix(0.988849,0,0,-0.988849,0.989349,84.092694)"/>
</g>
<g clip-path="url(#clip3)" clip-rule="nonzero">
<path style="fill:none;stroke-width:1.59404;stroke-linecap:butt;stroke-linejoin:miter;stroke:rgb(0%,0%,0%);stroke-opacity:1;stroke-miterlimit:10;" d="M -0.00107963 15.460408 C -0.00107963 15.460408 0.927241 14.457032 1.282768 14.077803 C 1.638295 13.698574 2.207138 13.090228 2.562665 12.72285 C 2.918192 12.355472 3.490986 11.770827 3.846513 11.423201 C 4.20204 11.075574 4.770883 10.530433 5.12641 10.206508 C 5.485888 9.886534 6.054731 9.388796 6.410258 9.100424 C 6.765785 8.812052 7.334628 8.373569 7.694106 8.1247 C 8.049633 7.875831 8.618476 7.504503 8.974003 7.299087 C 9.32953 7.093672 9.902324 6.797399 10.257851 6.643337 C 10.613378 6.485325 11.182221 6.272009 11.537748 6.169301 C 11.893275 6.062643 12.466069 5.936234 12.821596 5.88488 C 13.177123 5.833526 13.745966 5.794023 14.101493 5.797973 C 14.45702 5.801923 15.029814 5.853277 15.385341 5.912532 C 15.740868 5.971786 16.309711 6.110047 16.665238 6.224606 C 17.020765 6.335214 17.593559 6.560381 17.949086 6.722343 C 18.304613 6.888256 18.873456 7.192429 19.228983 7.405745 C 19.58451 7.619062 20.157304 7.99829 20.512831 8.25111 C 20.868358 8.507879 21.437201 8.954263 21.796678 9.250536 C 22.152205 9.542858 22.721049 10.044546 23.076576 10.372421 C 23.432103 10.700296 24.004896 11.249388 24.360423 11.600964 C 24.71595 11.952541 25.284794 12.541136 25.640321 12.908514 C 25.995848 13.279842 26.568641 13.892139 26.924168 14.271368 C 27.279695 14.654547 27.848538 15.274744 28.204066 15.657923 C 28.559593 16.041102 29.132386 16.661299 29.487913 17.040528 C 29.84344 17.419757 30.412283 18.024153 30.767811 18.387581 C 31.123338 18.754959 31.696131 19.331702 32.051658 19.679329 C 32.407185 20.023005 32.976028 20.560246 33.331556 20.88022 C 33.687083 21.196244 34.259876 21.686081 34.615403 21.970503 C 34.97093 22.254925 35.539773 22.681557 35.895301 22.926476 C 36.254778 23.171394 36.823621 23.530872 37.179148 23.728387 C 37.534675 23.925902 38.107469 24.210323 38.462996 24.360435 C 38.818523 24.510546 39.387366 24.712012 39.742893 24.806819 C 40.09842 24.905576 40.671214 25.020135 41.026741 25.063588 C 41.382268 25.107042 41.951111 25.134694 42.306638 25.122843 C 42.662165 25.110992 43.234959 25.047787 43.590486 24.980632 C 43.946013 24.913477 44.514856 24.763366 44.870383 24.640906 C 45.22591 24.522397 45.798704 24.285379 46.154231 24.115516 C 46.509758 23.945653 47.078601 23.629629 47.434128 23.408412 C 47.789655 23.191146 48.362449 22.800066 48.717976 22.539346 C 49.073503 22.278627 49.642346 21.824342 49.997873 21.524119 C 50.35735 21.227847 50.926194 20.714308 51.281721 20.386433 C 51.637248 20.054607 52.206091 19.497615 52.565568 19.142088 C 52.921095 18.786561 53.489939 18.197966 53.845466 17.826638 C 54.200993 17.451359 54.773786 16.839063 55.129313 16.459834 C 55.48484 16.076655 56.053684 15.456458 56.409211 15.073279 C 56.764738 14.686149 57.337531 14.069902 57.693058 13.690673 C 58.048585 13.315395 58.617429 12.714949 58.972956 12.351522 C 59.328483 11.988094 59.901276 11.4153 60.256803 11.071624 C 60.61233 10.727948 61.181174 10.198608 61.536701 9.882584 C 61.892228 9.57051 62.465021 9.088573 62.820548 8.812052 C 63.176075 8.531581 63.744919 8.112849 64.100446 7.875831 C 64.455973 7.638813 65.028766 7.287236 65.384293 7.097622 C 65.73982 6.904057 66.308664 6.631487 66.668141 6.489276 C 67.023668 6.347065 67.592511 6.15745 67.948038 6.066594 C 68.303565 5.979687 68.876359 5.876979 69.231886 5.841426 C 69.587413 5.805874 70.156256 5.790073 70.511783 5.809824 C 70.86731 5.829576 71.440104 5.904631 71.795631 5.979687 C 72.151158 6.054743 72.720001 6.216705 73.075528 6.343115 C 73.431055 6.473474 74.003849 6.718393 74.359376 6.896157 C 74.714903 7.07787 75.283746 7.401795 75.639273 7.626962 C 75.9948 7.852129 76.567594 8.25111 76.923121 8.51973 C 77.278648 8.7844 77.847491 9.250536 78.203018 9.554709 C 78.558545 9.854932 79.131339 10.376371 79.486866 10.708197 C 79.842393 11.043972 80.411236 11.604915 80.766763 11.964392 C 81.126241 12.319919 81.695084 12.916415 82.050611 13.287743 C 82.406138 13.663021 82.978931 14.279268 83.334459 14.658497 C 83.689986 15.041676 84.258829 15.665824 84.614356 16.049003 C 84.969883 16.432182 85.542676 17.048429 85.898204 17.423707 C 86.253731 17.798986 86.822574 18.399432 87.178101 18.758909 C 87.533628 19.118386 88.106421 19.687229 88.461949 20.026955 C 88.817476 20.362731 89.386319 20.888121 89.741846 21.200195 C 90.097373 21.508318 90.670166 21.978404 91.025693 22.254925 C 91.381221 22.527495 91.950064 22.934376 92.305591 23.167444 C 92.661118 23.400512 93.233911 23.740238 93.589438 23.921952 C 93.944966 24.107616 94.513809 24.368335 94.869336 24.506596 C 95.228813 24.640906 95.797656 24.81867 96.153183 24.901626 C 96.508711 24.984582 97.077554 25.071489 97.437031 25.099141 C 97.792558 25.126793 98.361401 25.130743 98.716928 25.103091 C 99.072455 25.075439 99.645249 24.984582 100.000776 24.905576 C 100.356303 24.82262 100.925146 24.648807 101.280673 24.514497 C 101.6362 24.376236 102.208994 24.119467 102.564521 23.933802 C 102.920048 23.748138 103.488891 23.412363 103.844418 23.179295 C 104.199945 22.950178 104.772739 22.539346 105.128266 22.266776 C 105.483793 21.994205 106.052636 21.524119 106.408163 21.215996 C 106.76369 20.907872 107.336484 20.382482 107.692011 20.042757 C 108.047538 19.706981 108.616381 19.138138 108.971908 18.77866 C 109.327435 18.419183 109.900229 17.818737 110.255756 17.443459 C 110.611283 17.06818 111.180126 16.451933 111.539604 16.068754 C 111.895131 15.685575 112.463974 15.065378 112.819501 14.682199 C 113.175028 14.29902 113.747822 13.682773 114.103349 13.311445 C 114.458876 12.936166 115.027719 12.339671 115.383246 11.984144 C 115.738773 11.624666 116.311567 11.063724 116.667094 10.727948 C 117.022621 10.392173 117.591464 9.874683 117.946991 9.57051 C 118.302518 9.266337 118.875312 8.800201 119.230839 8.531581 C 119.586366 8.266911 120.155209 7.86398 120.510736 7.638813 C 120.866263 7.413646 121.439057 7.085771 121.794584 6.908008 C 122.150111 6.730244 122.718954 6.481375 123.074481 6.351015 C 123.430008 6.224606 124.002802 6.058693 124.358329 5.983637 C 124.713856 5.908582 125.282699 5.833526 125.642176 5.809824 C 125.997703 5.790073 126.566547 5.801923 126.922074 5.837476 C 127.277601 5.873029 127.850394 5.975737 128.205921 6.062643 C 128.561448 6.1535 129.130292 6.339164 129.485819 6.481375 C 129.841346 6.623586 130.414139 6.896157 130.769666 7.085771 C 131.125193 7.279336 131.694037 7.626962 132.049564 7.86398 C 132.405091 8.100998 132.977884 8.51973 133.333411 8.796251 C 133.688938 9.072772 134.257782 9.554709 134.613309 9.866783 C 134.968836 10.178856 135.541629 10.712147 135.897156 11.051873 C 136.252683 11.395549 136.821527 11.968342 137.177054 12.33177 C 137.532581 12.695198 138.105374 13.295643 138.460901 13.670922 C 138.816428 14.050151 139.385272 14.666398 139.740799 15.049577 C 140.100276 15.432756 140.669119 16.056903 141.024646 16.436132 C 141.380173 16.819311 141.952967 17.431608 142.308494 17.802936 C 142.664021 18.178215 143.232864 18.766809 143.588391 19.122337 C 143.943918 19.477864 144.516712 20.034856 144.872239 20.366681 C 145.227766 20.698506 145.796609 21.208095 146.152136 21.508318 C 146.507663 21.808541 147.080457 22.262825 147.435984 22.527495 C 147.791511 22.788215 148.360354 23.179295 148.715881 23.396562 C 149.071408 23.617778 149.644202 23.933802 149.999729 24.107616 C 150.355256 24.277479 150.924099 24.514497 151.279626 24.636956 C 151.635153 24.755465 152.207947 24.909527 152.563474 24.976682 C 152.919001 25.043837 153.487844 25.107042 153.843371 25.122843 C 154.202848 25.134694 154.771692 25.110992 155.127219 25.067539 C 155.482746 25.024085 156.051589 24.909527 156.411066 24.814719 C 156.766593 24.715962 157.335437 24.518447 157.690964 24.368335 C 158.046491 24.218224 158.619284 23.937753 158.974811 23.740238 C 159.330338 23.542723 159.899182 23.183245 160.254709 22.938327 C 160.610236 22.697358 161.183029 22.270726 161.538556 21.986304 C 161.894083 21.701883 162.462927 21.215996 162.818454 20.896021 C 163.173981 20.579997 163.746774 20.042757 164.102301 19.69513 C 164.457828 19.351454 165.026672 18.77471 165.382199 18.407332 C 165.737726 18.043904 166.310519 17.439509 166.666046 17.06028 C 167.021573 16.681051 167.590417 16.064804 167.945944 15.677675 C 168.301471 15.294495 168.874264 14.674298 169.229791 14.291119 C 169.585318 13.91189 170.154162 13.303544 170.513639 12.932216 C 170.869166 12.560887 171.438009 11.972293 171.793536 11.620716 C 172.149063 11.269139 172.721857 10.716097 173.077384 10.392173 C 173.432911 10.064298 174.001754 9.558659 174.357281 9.266337 C 174.712808 8.970064 175.285602 8.52368 175.641129 8.266911 C 175.996656 8.010141 176.565499 7.630913 176.921026 7.417596 C 177.276553 7.20428 177.849347 6.896157 178.204874 6.734194 C 178.560401 6.568282 179.129244 6.343115 179.484771 6.228556 C 179.840298 6.113997 180.413092 5.975737 180.768619 5.916482 C 181.124146 5.857228 181.692989 5.801923 182.048516 5.797973 C 182.404043 5.794023 182.976837 5.829576 183.332364 5.880929 C 183.687891 5.932283 184.256734 6.058693 184.612261 6.161401 C 184.971739 6.268059 185.540582 6.477425 185.896109 6.635437 C 186.251636 6.789499 186.82443 7.081821 187.179957 7.287236 C 187.535484 7.492652 188.104327 7.86003 188.459854 8.108899 C 188.815381 8.357768 189.388175 8.796251 189.743702 9.084623 C 190.099229 9.372995 190.668072 9.866783 191.023599 10.190707 C 191.379126 10.510682 191.95192 11.055823 192.307447 11.403449 C 192.662974 11.751076 193.231817 12.33572 193.587344 12.703098 C 193.942871 13.070476 194.515665 13.678822 194.871192 14.058051 C 195.226719 14.43728 195.795562 15.057477 196.151089 15.440656 C 196.506616 15.823836 197.079409 16.444033 197.434937 16.827212 C 197.790464 17.206441 198.359307 17.814787 198.714834 18.182165 C 199.074311 18.549543 199.643154 19.134187 199.998682 19.481814 C 200.354209 19.82944 200.923052 20.374582 201.282529 20.698506 C 201.638056 21.022431 202.206899 21.520169 202.562427 21.808541 C 202.917954 22.096913 203.490747 22.535396 203.846274 22.788215 C 204.201801 23.037084 204.770644 23.408412 205.126171 23.613828 C 205.481699 23.819244 206.054492 24.115516 206.410019 24.273528 C 206.765546 24.43154 207.334389 24.644857 207.689916 24.751515 C 208.045444 24.858173 208.618237 24.984582 208.973764 25.035936 C 209.329291 25.08729 209.898134 25.130743 210.253661 25.126793 C 210.609189 25.122843 211.181982 25.071489 211.537509 25.016185 C 211.893036 24.95693 212.461879 24.81867 212.817406 24.708061 C 213.172933 24.597453 213.745727 24.372286 214.101254 24.210323 C 214.456781 24.044411 215.025624 23.744188 215.385102 23.530872 C 215.740629 23.321506 216.309472 22.942277 216.664999 22.685508 C 217.020526 22.432688 217.59332 21.986304 217.948847 21.693982 C 218.304374 21.39771 218.873217 20.896021 219.228744 20.568146 C 219.584271 20.244222 220.157065 19.69513 220.512592 19.343553 C 220.868119 18.991977 221.436962 18.403382 221.792489 18.036004 C 222.148016 17.664676 222.72081 17.056329 223.076337 16.67315 C 223.431864 16.293921 224.000707 15.673724 224.356234 15.286595 C 224.711761 14.903416 225.284555 14.283218 225.640082 13.90794 C 225.995609 13.528711 226.564452 12.924315 226.919979 12.556937 C 227.275506 12.189559 227.8483 11.612815 228.203827 11.265189 C 228.559354 10.921513 229.128197 10.380322 229.487674 10.064298 C 229.843201 9.744323 230.412045 9.254486 230.767572 8.970064 C 231.123099 8.685643 231.695892 8.25506 232.051419 8.010141 C 232.406946 7.769173 232.97579 7.405745 233.331317 7.20823 C 233.686844 7.006765 234.259637 6.722343 234.615164 6.572232 C 234.970691 6.422121 235.539535 6.220655 235.895062 6.121898 C 236.250589 6.02314 236.823382 5.908582 237.178909 5.861178 C 237.534436 5.817725 238.10328 5.790073 238.458807 5.801923 C 238.814334 5.813774 239.387127 5.873029 239.742654 5.940184 C 240.098181 6.007339 240.667025 6.15745 241.022552 6.275959 C 241.378079 6.394468 241.950872 6.627536 242.306399 6.801349 C 242.661926 6.971212 243.23077 7.283286 243.586297 7.504503 C 243.945774 7.721769 244.514617 8.108899 244.870144 8.369619 C 245.225671 8.630339 245.798465 9.084623 246.153992 9.384846 C 246.509519 9.681118 247.078362 10.190707 247.433889 10.522532 C 247.789416 10.850407 248.36221 11.4074 248.717737 11.762927 C 249.073264 12.118454 249.642107 12.707049 249.997634 13.078377 C 250.353161 13.449705 250.925955 14.062002 251.281482 14.445181 C 251.637009 14.82836 252.205852 15.448557 252.561379 15.831736 C 252.916906 16.214915 253.4897 16.831162 253.845227 17.210391 C 254.200754 17.58962 255.125124 18.553493 255.125124 18.553493 " transform="matrix(0.988849,0,0,-0.988849,0.989349,84.092694)"/>
</g>
</g>
</svg>
