<?xml version="1.0" encoding="UTF-8"?>
<svg xmlns="http://www.w3.org/2000/svg" xmlns:xlink="http://www.w3.org/1999/xlink" width="255.124pt" height="85.041pt" viewBox="0 0 255.124 85.041" version="1.2">
<defs>
<clipPath id="clip1">
  <path d="M 0.988281 5 L 253.269531 5 L 253.269531 79 L 0.988281 79 Z M 0.988281 5 "/>
</clipPath>
<clipPath id="clip2">
  <path d="M 0.988281 0 L 253.269531 0 L 253.269531 48 L 0.988281 48 Z M 0.988281 0 "/>
</clipPath>
<clipPath id="clip3">
  <path d="M 0.988281 36 L 253.269531 36 L 253.269531 84.09375 L 0.988281 84.09375 Z M 0.988281 36 "/>
</clipPath>
</defs>
<g id="surface1">
<g clip-path="url(#clip1)" clip-rule="nonzero">
<path style=" stroke:none;fill-rule:nonzero;fill:rgb(50%,50%,50%);fill-opacity:0.5;" d="M 0.988281 15.289062 L 2.257812 5.734375 L 51.699219 5.734375 L 52.96875 24.84375 L 103.675781 24.84375 L 104.945312 5.734375 L 154.386719 5.734375 L 155.65625 24.84375 L 206.363281 24.84375 L 207.632812 5.734375 L 253.269531 5.734375 L 253.269531 78.359375 L 207.632812 78.359375 L 206.363281 59.246094 L 155.65625 59.246094 L 154.386719 78.359375 L 104.945312 78.359375 L 103.675781 59.246094 L 52.96875 59.246094 L 51.699219 78.359375 L 2.257812 78.359375 L 0.988281 68.804688 Z M 0.988281 15.289062 "/>
</g>
<g clip-path="url(#clip2)" clip-rule="nonzero">
<path style="fill:none;stroke-width:1.59404;stroke-linecap:butt;stroke-linejoin:miter;stroke:rgb(0%,0%,0%);stroke-opacity:1;stroke-miterlimit:10;" d="M -0.00107963 69.579524 L 1.282768 79.241959 L 51.281721 79.241959 L 52.565568 59.917089 L 103.844418 59.917089 L 105.128266 79.241959 L 155.127219 79.241959 L 156.411066 59.917089 L 207.689916 59.917089 L 208.973764 79.241959 L 255.125124 79.241959 " transform="matrix(0.988849,0,0,-0.988849,0.989349,84.092694)"/>
</g>
<g clip-path="url(#clip3)" clip-rule="nonzero">
<path style="fill:none;stroke-width:1.59404;stroke-linecap:butt;stroke-linejoin:miter;stroke:rgb(0%,0%,0%);stroke-opacity:1;stroke-miterlimit:10;" d="M -0.00107963 15.460408 L 1.282768 5.797973 L 51.281721 5.797973 L 52.565568 25.126793 L 103.844418 25.126793 L 105.128266 5.797973 L 155.127219 5.797973 L 156.411066 25.126793 L 207.689916 25.126793 L 208.973764 5.797973 L 255.125124 5.797973 " transform="matrix(0.988849,0,0,-0.988849,0.989349,84.092694)"/>
</g>
</g>
</svg>
