<?xml version="1.0" encoding="UTF-8"?>
<svg xmlns="http://www.w3.org/2000/svg" xmlns:xlink="http://www.w3.org/1999/xlink" width="255.124pt" height="85.041pt" viewBox="0 0 255.124 85.041" version="1.2">
<defs>
<clipPath id="clip1">
  <path d="M 0.988281 5 L 253.269531 5 L 253.269531 79 L 0.988281 79 Z M 0.988281 5 "/>
</clipPath>
<clipPath id="clip2">
  <path d="M 0.988281 0 L 253.269531 0 L 253.269531 48 L 0.988281 48 Z M 0.988281 0 "/>
</clipPath>
<clipPath id="clip3">
  <path d="M 0.988281 36 L 253.269531 36 L 253.269531 84.09375 L 0.988281 84.09375 Z M 0.988281 36 "/>
</clipPath>
</defs>
<g id="surface1">
<g clip-path="url(#clip1)" clip-rule="nonzero">
<path style=" stroke:none;fill-rule:nonzero;fill:rgb(50%,50%,50%);fill-opacity:0.5;" d="M 0.988281 15.289062 L 2.257812 5.734375 L 27.613281 5.734375 L 28.878906 24.84375 L 55.503906 24.84375 L 56.769531 5.734375 L 83.394531 5.734375 L 84.660156 24.84375 L 111.285156 24.84375 L 112.550781 5.734375 L 139.171875 5.734375 L 140.441406 24.84375 L 167.0625 24.84375 L 168.332031 5.734375 L 194.953125 5.734375 L 196.222656 24.84375 L 221.578125 24.84375 L 222.84375 5.734375 L 249.46875 5.734375 L 250.734375 24.84375 L 253.269531 24.84375 L 253.269531 59.246094 L 250.734375 59.246094 L 249.46875 78.359375 L 222.84375 78.359375 L 221.578125 59.246094 L 196.222656 59.246094 L 194.953125 78.359375 L 168.332031 78.359375 L 167.0625 59.246094 L 140.441406 59.246094 L 139.171875 78.359375 L 112.550781 78.359375 L 111.285156 59.246094 L 84.660156 59.246094 L 83.394531 78.359375 L 56.769531 78.359375 L 55.503906 59.246094 L 28.878906 59.246094 L 27.613281 78.359375 L 2.257812 78.359375 L 0.988281 68.804688 Z M 0.988281 15.289062 "/>
</g>
<g clip-path="url(#clip2)" clip-rule="nonzero">
<path style="fill:none;stroke-width:1.59404;stroke-linecap:butt;stroke-linejoin:miter;stroke:rgb(0%,0%,0%);stroke-opacity:1;stroke-miterlimit:10;" d="M -0.00107963 69.579524 L 1.282768 79.241959 L 26.924168 79.241959 L 28.204066 59.917089 L 55.129313 59.917089 L 56.409211 79.241959 L 83.334459 79.241959 L 84.614356 59.917089 L 111.539604 59.917089 L 112.819501 79.241959 L 139.740799 79.241959 L 141.024646 59.917089 L 167.945944 59.917089 L 169.229791 79.241959 L 196.151089 79.241959 L 197.434937 59.917089 L 223.076337 59.917089 L 224.356234 79.241959 L 251.281482 79.241959 L 252.561379 59.917089 L 255.125124 59.917089 " transform="matrix(0.988849,0,0,-0.988849,0.989349,84.092694)"/>
</g>
<g clip-path="url(#clip3)" clip-rule="nonzero">
<path style="fill:none;stroke-width:1.59404;stroke-linecap:butt;stroke-linejoin:miter;stroke:rgb(0%,0%,0%);stroke-opacity:1;stroke-miterlimit:10;" d="M -0.00107963 15.460408 L 1.282768 5.797973 L 26.924168 5.797973 L 28.204066 25.126793 L 55.129313 25.126793 L 56.409211 5.797973 L 83.334459 5.797973 L 84.614356 25.126793 L 111.539604 25.126793 L 112.819501 5.797973 L 139.740799 5.797973 L 141.024646 25.126793 L 167.945944 25.126793 L 169.229791 5.797973 L 196.151089 5.797973 L 197.434937 25.126793 L 223.076337 25.126793 L 224.356234 5.797973 L 251.281482 5.797973 L 252.561379 25.126793 L 255.125124 25.126793 " transform="matrix(0.988849,0,0,-0.988849,0.989349,84.092694)"/>
</g>
</g>
</svg>
