<?xml version="1.0" encoding="UTF-8"?>
<svg xmlns="http://www.w3.org/2000/svg" xmlns:xlink="http://www.w3.org/1999/xlink" width="100.678pt" height="73.494pt" viewBox="0 0 100.678 73.494" version="1.2">
<defs>
<clipPath id="clip1">
  <path d="M 45 48 L 66 48 L 66 72.992188 L 45 72.992188 Z M 45 48 "/>
</clipPath>
<clipPath id="clip2">
  <path d="M 46 48 L 67 48 L 67 72.992188 L 46 72.992188 Z M 46 48 "/>
</clipPath>
<clipPath id="clip3">
  <path d="M 45 61 L 58 61 L 58 72.992188 L 45 72.992188 Z M 45 61 "/>
</clipPath>
<clipPath id="clip4">
  <path d="M 45 48 L 66 48 L 66 72.992188 L 45 72.992188 Z M 45 48 "/>
</clipPath>
<clipPath id="clip5">
  <path d="M 45 47 L 71 47 L 71 72.992188 L 45 72.992188 Z M 45 47 "/>
</clipPath>
<clipPath id="clip6">
  <path d="M 45 47 L 70 47 L 70 72.992188 L 45 72.992188 Z M 45 47 "/>
</clipPath>
<clipPath id="clip7">
  <path d="M 46 47 L 69 47 L 69 72.992188 L 46 72.992188 Z M 46 47 "/>
</clipPath>
<clipPath id="clip8">
  <path d="M 45 61 L 58 61 L 58 72.992188 L 45 72.992188 Z M 45 61 "/>
</clipPath>
<clipPath id="clip9">
  <path d="M 38 43 L 65 43 L 65 72.992188 L 38 72.992188 Z M 38 43 "/>
</clipPath>
<clipPath id="clip10">
  <path d="M 41 64 L 55 64 L 55 72.992188 L 41 72.992188 Z M 41 64 "/>
</clipPath>
<clipPath id="clip11">
  <path d="M 36 58 L 53 58 L 53 72.992188 L 36 72.992188 Z M 36 58 "/>
</clipPath>
<clipPath id="clip12">
  <path d="M 31 59 L 53 59 L 53 72.992188 L 31 72.992188 Z M 31 59 "/>
</clipPath>
<clipPath id="clip13">
  <path d="M 45 46 L 72 46 L 72 72.992188 L 45 72.992188 Z M 45 46 "/>
</clipPath>
<clipPath id="clip14">
  <path d="M 41 63 L 58 63 L 58 72.992188 L 41 72.992188 Z M 41 63 "/>
</clipPath>
<clipPath id="clip15">
  <path d="M 0.183594 18 L 20 18 L 20 49 L 0.183594 49 Z M 0.183594 18 "/>
</clipPath>
<clipPath id="clip16">
  <path d="M 0.183594 36 L 34 36 L 34 63 L 0.183594 63 Z M 0.183594 36 "/>
</clipPath>
<clipPath id="clip17">
  <path d="M 81 26 L 100.175781 26 L 100.175781 54 L 81 54 Z M 81 26 "/>
</clipPath>
<clipPath id="clip18">
  <path d="M 81 27 L 100.175781 27 L 100.175781 53 L 81 53 Z M 81 27 "/>
</clipPath>
<clipPath id="clip19">
  <path d="M 79 25 L 100.175781 25 L 100.175781 54 L 79 54 Z M 79 25 "/>
</clipPath>
<clipPath id="clip20">
  <path d="M 78 24 L 100.175781 24 L 100.175781 53 L 78 53 Z M 78 24 "/>
</clipPath>
<clipPath id="clip21">
  <path d="M 83 28 L 100.175781 28 L 100.175781 54 L 83 54 Z M 83 28 "/>
</clipPath>
<clipPath id="clip22">
  <path d="M 84 29 L 100.175781 29 L 100.175781 54 L 84 54 Z M 84 29 "/>
</clipPath>
<clipPath id="clip23">
  <path d="M 84 29 L 100.175781 29 L 100.175781 51 L 84 51 Z M 84 29 "/>
</clipPath>
<clipPath id="clip24">
  <path d="M 84 29 L 100.175781 29 L 100.175781 50 L 84 50 Z M 84 29 "/>
</clipPath>
<clipPath id="clip25">
  <path d="M 84 30 L 100.175781 30 L 100.175781 50 L 84 50 Z M 84 30 "/>
</clipPath>
<clipPath id="clip26">
  <path d="M 89 25 L 100.175781 25 L 100.175781 37 L 89 37 Z M 89 25 "/>
</clipPath>
<clipPath id="clip27">
  <path d="M 91 27 L 100.175781 27 L 100.175781 41 L 91 41 Z M 91 27 "/>
</clipPath>
</defs>
<g id="surface1">
<path style="fill:none;stroke-width:0.3985;stroke-linecap:butt;stroke-linejoin:miter;stroke:rgb(0%,0%,0%);stroke-opacity:1;stroke-miterlimit:10;" d="M 58.478223 12.499908 L 57.597199 10.718194 L 56.47232 9.054474 " transform="matrix(0.993162,0,0,-0.993162,1.062266,72.473029)"/>
<path style="fill:none;stroke-width:0.3985;stroke-linecap:butt;stroke-linejoin:miter;stroke:rgb(0%,0%,0%);stroke-opacity:1;stroke-miterlimit:10;" d="M 56.908899 13.408464 L 56.110471 11.788009 " transform="matrix(0.993162,0,0,-0.993162,1.062266,72.473029)"/>
<path style="fill:none;stroke-width:0.3985;stroke-linecap:butt;stroke-linejoin:miter;stroke:rgb(0%,0%,0%);stroke-opacity:1;stroke-miterlimit:10;" d="M 55.323842 10.545135 L 54.895129 9.959097 " transform="matrix(0.993162,0,0,-0.993162,1.062266,72.473029)"/>
<path style="fill:none;stroke-width:0.3985;stroke-linecap:butt;stroke-linejoin:miter;stroke:rgb(0%,0%,0%);stroke-opacity:1;stroke-miterlimit:10;" d="M 50.183222 7.666074 L 51.154709 8.204914 L 52.10653 8.920747 L 53.015086 9.778172 L 53.864645 10.757525 " transform="matrix(0.993162,0,0,-0.993162,1.062266,72.473029)"/>
<path style="fill:none;stroke-width:0.3985;stroke-linecap:butt;stroke-linejoin:miter;stroke:rgb(0%,0%,0%);stroke-opacity:1;stroke-miterlimit:10;" d="M 55.312042 13.042682 L 55.878415 14.376018 L 56.255997 15.697554 L 56.436922 16.95616 L 56.425122 18.112505 " transform="matrix(0.993162,0,0,-0.993162,1.062266,72.473029)"/>
<path style="fill:none;stroke-width:0.3985;stroke-linecap:butt;stroke-linejoin:miter;stroke:rgb(0%,0%,0%);stroke-opacity:1;stroke-miterlimit:10;" d="M 50.077027 6.293406 L 50.910854 6.454665 L 51.768279 6.769317 L 52.637504 7.237361 L 53.490997 7.850931 L 55.091786 9.432055 L 56.444788 11.33963 L 57.432007 13.41633 L 57.951182 15.465499 L 58.025912 16.425186 L 57.982647 17.310143 L 57.821388 18.104638 L 57.546068 18.785072 " transform="matrix(0.993162,0,0,-0.993162,1.062266,72.473029)"/>
<g clip-path="url(#clip1)" clip-rule="nonzero">
<path style="fill:none;stroke-width:0.3985;stroke-linecap:butt;stroke-linejoin:miter;stroke:rgb(0%,0%,0%);stroke-opacity:1;stroke-miterlimit:10;" d="M 50.218621 5.494978 L 51.135043 5.361251 L 52.130129 5.463513 L 53.176345 5.793897 L 54.238294 6.352404 L 55.280577 7.1233 L 56.27173 8.075121 L 57.176353 9.172468 L 57.974781 10.372077 L 58.639482 11.630683 L 59.142925 12.916821 L 59.461509 14.175427 L 59.595236 15.371103 L 59.548039 16.456651 L 59.319916 17.404539 L 58.922669 18.179368 L 58.364162 18.741808 " transform="matrix(0.993162,0,0,-0.993162,1.062266,72.473029)"/>
</g>
<g clip-path="url(#clip2)" clip-rule="nonzero">
<path style="fill:none;stroke-width:0.3985;stroke-linecap:butt;stroke-linejoin:miter;stroke:rgb(0%,0%,0%);stroke-opacity:1;stroke-miterlimit:10;" d="M 51.020982 4.944338 C 52.558841 4.287503 54.714204 5.089864 56.621779 7.028904 C 58.529354 8.971878 59.878423 11.736878 60.13801 14.222625 C 60.393665 16.712305 59.516574 18.517619 57.852854 18.918799 " transform="matrix(0.993162,0,0,-0.993162,1.062266,72.473029)"/>
</g>
<g clip-path="url(#clip3)" clip-rule="nonzero">
<path style="fill:none;stroke-width:0.3985;stroke-linecap:butt;stroke-linejoin:miter;stroke:rgb(0%,0%,0%);stroke-opacity:1;stroke-miterlimit:10;" d="M 51.020982 4.944338 L 50.729929 5.089864 " transform="matrix(0.993162,0,0,-0.993162,1.062266,72.473029)"/>
</g>
<g clip-path="url(#clip4)" clip-rule="nonzero">
<path style="fill:none;stroke-width:0.3985;stroke-linecap:butt;stroke-linejoin:miter;stroke:rgb(0%,0%,0%);stroke-opacity:1;stroke-miterlimit:10;" d="M 58.12424 18.836203 L 58.61195 18.234432 L 58.954134 17.451736 L 59.138992 16.519581 L 59.162591 15.461565 L 59.017064 14.313087 L 58.694546 13.101679 L 58.206836 11.874538 L 57.5736 10.66313 L 56.818437 9.510718 L 55.961011 8.448769 L 55.024923 7.516614 L 54.03377 6.745718 L 53.019019 6.167546 L 52.012134 5.789964 L 51.036715 5.616906 L 50.128158 5.66017 " transform="matrix(0.993162,0,0,-0.993162,1.062266,72.473029)"/>
</g>
<path style="fill:none;stroke-width:0.3985;stroke-linecap:butt;stroke-linejoin:miter;stroke:rgb(0%,0%,0%);stroke-opacity:1;stroke-miterlimit:10;" d="M 57.282548 18.659212 L 57.483138 17.982711 L 57.5854 17.219681 L 57.494937 15.496964 L 56.987562 13.612988 L 56.090805 11.717212 " transform="matrix(0.993162,0,0,-0.993162,1.062266,72.473029)"/>
<path style="fill:none;stroke-width:0.3985;stroke-linecap:butt;stroke-linejoin:miter;stroke:rgb(0%,0%,0%);stroke-opacity:1;stroke-miterlimit:10;" d="M 55.355307 10.568734 L 54.171431 9.121337 L 52.849894 7.929594 L 51.457561 7.076102 L 50.080961 6.608058 " transform="matrix(0.993162,0,0,-0.993162,1.062266,72.473029)"/>
<path style="fill:none;stroke-width:0.3985;stroke-linecap:butt;stroke-linejoin:miter;stroke:rgb(0%,0%,0%);stroke-opacity:1;stroke-miterlimit:10;" d="M 56.027875 17.809653 L 55.898081 16.275726 L 55.457569 14.627739 " transform="matrix(0.993162,0,0,-0.993162,1.062266,72.473029)"/>
<path style="fill:none;stroke-width:0.3985;stroke-linecap:butt;stroke-linejoin:miter;stroke:rgb(0%,0%,0%);stroke-opacity:1;stroke-miterlimit:10;" d="M 39.82332 29.64055 C 37.707289 28.417342 35.677787 26.273779 34.179259 23.681837 C 32.680731 21.085962 31.839038 18.254098 31.839038 15.811615 " transform="matrix(0.993162,0,0,-0.993162,1.062266,72.473029)"/>
<path style="fill:none;stroke-width:0.3985;stroke-linecap:butt;stroke-linejoin:miter;stroke:rgb(0%,0%,0%);stroke-opacity:1;stroke-miterlimit:10;" d="M 55.905947 11.788009 C 55.980677 11.744744 56.020008 11.650349 56.020008 11.528421 C 56.020008 11.406494 55.980677 11.264901 55.905947 11.135107 C 55.831217 11.009246 55.728956 10.899118 55.622761 10.840121 C 55.516566 10.777191 55.414304 10.769324 55.339574 10.812589 C 55.264845 10.855854 55.225513 10.946316 55.225513 11.068243 C 55.225513 11.190171 55.264845 11.331764 55.339574 11.461558 C 55.414304 11.591352 55.516566 11.697546 55.622761 11.760477 C 55.728956 11.819474 55.831217 11.831273 55.905947 11.788009 Z M 55.905947 11.788009 " transform="matrix(0.993162,0,0,-0.993162,1.062266,72.473029)"/>
<path style="fill:none;stroke-width:0.3985;stroke-linecap:butt;stroke-linejoin:miter;stroke:rgb(0%,0%,0%);stroke-opacity:1;stroke-miterlimit:10;" d="M 56.079005 11.642482 C 56.252064 12.228521 56.102604 12.704431 55.721089 12.775228 C 55.343508 12.846025 54.840065 12.495975 54.517547 11.937468 C 54.195029 11.378962 54.143899 10.769324 54.39562 10.474339 C 54.647341 10.183286 55.131118 10.289481 55.555897 10.729993 " transform="matrix(0.993162,0,0,-0.993162,1.062266,72.473029)"/>
<g clip-path="url(#clip5)" clip-rule="nonzero">
<path style="fill:none;stroke-width:0.3985;stroke-linecap:butt;stroke-linejoin:miter;stroke:rgb(0%,0%,0%);stroke-opacity:1;stroke-miterlimit:10;" d="M 62.549028 19.24525 C 65.408424 17.597263 65.408424 12.248187 62.549028 7.300291 C 59.693565 2.352396 55.060321 -0.322142 52.204858 1.325845 C 50.832191 2.12034 50.061295 3.823392 50.061295 6.061351 C 50.061295 8.303243 50.832191 10.895185 52.204858 13.270804 C 53.577526 15.650356 55.437903 17.612995 57.376943 18.733941 C 59.319916 19.854888 61.180294 20.039745 62.549028 19.24525 Z M 62.549028 19.24525 " transform="matrix(0.993162,0,0,-0.993162,1.062266,72.473029)"/>
</g>
<g clip-path="url(#clip6)" clip-rule="nonzero">
<path style="fill:none;stroke-width:0.3985;stroke-linecap:butt;stroke-linejoin:miter;stroke:rgb(0%,0%,0%);stroke-opacity:1;stroke-miterlimit:10;" d="M 50.069161 6.379936 C 50.210754 2.140006 53.365136 0.590347 57.105556 2.918769 C 60.849909 5.243257 63.768302 10.568734 63.622776 14.808664 C 63.489049 18.820471 60.645386 20.456659 57.105556 18.568749 " transform="matrix(0.993162,0,0,-0.993162,1.062266,72.473029)"/>
</g>
<g clip-path="url(#clip7)" clip-rule="nonzero">
<path style="fill:none;stroke-width:0.3985;stroke-linecap:butt;stroke-linejoin:miter;stroke:rgb(0%,0%,0%);stroke-opacity:1;stroke-miterlimit:10;" d="M 61.081965 19.158721 C 63.237328 17.286544 63.021005 12.669033 60.578522 8.43697 C 58.13604 4.204907 54.24616 1.711293 51.548023 2.643449 " transform="matrix(0.993162,0,0,-0.993162,1.062266,72.473029)"/>
<path style="fill:none;stroke-width:0.3985;stroke-linecap:butt;stroke-linejoin:miter;stroke:rgb(0%,0%,0%);stroke-opacity:1;stroke-miterlimit:10;" d="M 60.653252 19.272782 C 63.107534 17.65626 63.036738 12.885356 60.495926 8.484168 C 57.955115 4.086912 53.860712 1.640497 51.233372 2.954167 " transform="matrix(0.993162,0,0,-0.993162,1.062266,72.473029)"/>
</g>
<g clip-path="url(#clip8)" clip-rule="nonzero">
<path style="fill:none;stroke-width:0.3985;stroke-linecap:butt;stroke-linejoin:miter;stroke:rgb(0%,0%,0%);stroke-opacity:1;stroke-miterlimit:10;" d="M 50.136025 5.557908 C 50.391679 5.290455 50.686665 5.085931 51.020982 4.944338 " transform="matrix(0.993162,0,0,-0.993162,1.062266,72.473029)"/>
</g>
<path style="fill:none;stroke-width:0.3985;stroke-linecap:butt;stroke-linejoin:miter;stroke:rgb(0%,0%,0%);stroke-opacity:1;stroke-miterlimit:10;" d="M 50.257952 8.114452 C 51.430029 8.578563 52.625705 9.569715 53.612924 10.895185 " transform="matrix(0.993162,0,0,-0.993162,1.062266,72.473029)"/>
<path style="fill:none;stroke-width:0.3985;stroke-linecap:butt;stroke-linejoin:miter;stroke:rgb(0%,0%,0%);stroke-opacity:1;stroke-miterlimit:10;" d="M 54.969859 13.239339 C 55.622761 14.761466 55.882348 16.291459 55.69749 17.538266 " transform="matrix(0.993162,0,0,-0.993162,1.062266,72.473029)"/>
<path style="fill:none;stroke-width:0.3985;stroke-linecap:butt;stroke-linejoin:miter;stroke:rgb(0%,0%,0%);stroke-opacity:1;stroke-miterlimit:10;" d="M 55.245179 17.137085 C 55.390705 16.05547 55.174382 14.745733 54.631608 13.435996 " transform="matrix(0.993162,0,0,-0.993162,1.062266,72.473029)"/>
<path style="fill:none;stroke-width:0.3985;stroke-linecap:butt;stroke-linejoin:miter;stroke:rgb(0%,0%,0%);stroke-opacity:1;stroke-miterlimit:10;" d="M 53.278607 11.087909 C 52.413315 9.966963 51.386764 9.121337 50.37988 8.708357 " transform="matrix(0.993162,0,0,-0.993162,1.062266,72.473029)"/>
<path style="fill:none;stroke-width:0.3985;stroke-linecap:butt;stroke-linejoin:miter;stroke:rgb(0%,0%,0%);stroke-opacity:1;stroke-miterlimit:10;" d="M 50.423144 8.889282 C 51.367099 9.329794 52.314986 10.136088 53.117348 11.182305 " transform="matrix(0.993162,0,0,-0.993162,1.062266,72.473029)"/>
<path style="fill:none;stroke-width:0.3985;stroke-linecap:butt;stroke-linejoin:miter;stroke:rgb(0%,0%,0%);stroke-opacity:1;stroke-miterlimit:10;" d="M 54.474283 13.526459 C 54.977725 14.745733 55.201914 15.968941 55.111452 17.007291 " transform="matrix(0.993162,0,0,-0.993162,1.062266,72.473029)"/>
<g clip-path="url(#clip9)" clip-rule="nonzero">
<path style="fill:none;stroke-width:0.3985;stroke-linecap:butt;stroke-linejoin:miter;stroke:rgb(0%,0%,0%);stroke-opacity:1;stroke-miterlimit:10;" d="M 57.888252 23.457648 C 54.667007 25.318025 49.447724 22.301303 46.226479 16.724105 C 43.005234 11.146906 43.005234 5.117396 46.226479 3.257019 " transform="matrix(0.993162,0,0,-0.993162,1.062266,72.473029)"/>
</g>
<g clip-path="url(#clip10)" clip-rule="nonzero">
<path style="fill:none;stroke-width:0.3985;stroke-linecap:butt;stroke-linejoin:miter;stroke:rgb(0%,0%,0%);stroke-opacity:1;stroke-miterlimit:10;" d="M 47.984595 2.242268 L 45.92756 1.778157 " transform="matrix(0.993162,0,0,-0.993162,1.062266,72.473029)"/>
</g>
<path style="fill:none;stroke-width:0.3985;stroke-linecap:butt;stroke-linejoin:miter;stroke:rgb(0%,0%,0%);stroke-opacity:1;stroke-miterlimit:10;" d="M 58.702413 22.989603 L 58.100642 23.717235 L 57.384809 24.531396 L 56.527384 25.443885 L 55.512633 26.478302 " transform="matrix(0.993162,0,0,-0.993162,1.062266,72.473029)"/>
<path style="fill:none;stroke-width:0.3985;stroke-linecap:butt;stroke-linejoin:miter;stroke:rgb(0%,0%,0%);stroke-opacity:1;stroke-miterlimit:10;" d="M 55.512633 26.478302 L 54.781068 25.380955 L 53.966907 24.456666 L 53.046551 23.662171 L 52.004268 22.973871 L 50.812525 22.3721 L 49.435925 21.841125 L 47.831202 21.369148 L 45.92756 20.948302 " transform="matrix(0.993162,0,0,-0.993162,1.062266,72.473029)"/>
<path style="fill:none;stroke-width:0.3985;stroke-linecap:butt;stroke-linejoin:miter;stroke:rgb(0%,0%,0%);stroke-opacity:1;stroke-miterlimit:10;" d="M 45.92756 20.948302 L 45.856764 18.914866 L 45.644374 17.125285 L 45.298257 15.512696 L 44.818414 14.029901 L 44.185177 12.633635 L 43.382816 11.288499 L 42.379864 9.955164 L 41.136991 8.598229 " transform="matrix(0.993162,0,0,-0.993162,1.062266,72.473029)"/>
<g clip-path="url(#clip11)" clip-rule="nonzero">
<path style="fill:none;stroke-width:0.3985;stroke-linecap:butt;stroke-linejoin:miter;stroke:rgb(0%,0%,0%);stroke-opacity:1;stroke-miterlimit:10;" d="M 41.136991 8.598229 L 42.379864 7.32389 L 43.382816 6.234409 L 44.185177 5.282588 L 44.818414 4.444829 L 45.298257 3.693598 L 45.644374 3.009231 L 45.856764 2.375995 L 45.92756 1.778157 " transform="matrix(0.993162,0,0,-0.993162,1.062266,72.473029)"/>
</g>
<path style="fill:none;stroke-width:0.3985;stroke-linecap:butt;stroke-linejoin:miter;stroke:rgb(0%,0%,0%);stroke-opacity:1;stroke-miterlimit:10;" d="M 46.21468 31.847044 L 55.512633 26.478302 " transform="matrix(0.993162,0,0,-0.993162,1.062266,72.473029)"/>
<path style="fill:none;stroke-width:0.3985;stroke-linecap:butt;stroke-linejoin:miter;stroke:rgb(0%,0%,0%);stroke-opacity:1;stroke-miterlimit:10;" d="M 46.21468 31.847044 L 44.314971 31.426198 L 42.706315 30.95422 L 41.329715 30.423246 L 40.137972 29.821475 L 39.099622 29.133175 L 38.179266 28.33868 L 37.361172 27.410458 L 36.633541 26.31311 " transform="matrix(0.993162,0,0,-0.993162,1.062266,72.473029)"/>
<path style="fill:none;stroke-width:0.3985;stroke-linecap:butt;stroke-linejoin:miter;stroke:rgb(0%,0%,0%);stroke-opacity:1;stroke-miterlimit:10;" d="M 36.633541 26.31311 L 45.92756 20.948302 " transform="matrix(0.993162,0,0,-0.993162,1.062266,72.473029)"/>
<path style="fill:none;stroke-width:0.3985;stroke-linecap:butt;stroke-linejoin:miter;stroke:rgb(0%,0%,0%);stroke-opacity:1;stroke-miterlimit:10;" d="M 36.633541 26.31311 L 35.386734 24.956176 L 34.387715 23.62284 L 33.585354 22.277704 L 32.952118 20.881438 L 32.468341 19.398643 L 32.122224 17.786054 L 31.913768 15.996473 L 31.839038 13.963038 " transform="matrix(0.993162,0,0,-0.993162,1.062266,72.473029)"/>
<path style="fill:none;stroke-width:0.3985;stroke-linecap:butt;stroke-linejoin:miter;stroke:rgb(0%,0%,0%);stroke-opacity:1;stroke-miterlimit:10;" d="M 31.839038 13.963038 L 41.136991 8.598229 " transform="matrix(0.993162,0,0,-0.993162,1.062266,72.473029)"/>
<path style="fill:none;stroke-width:0.3985;stroke-linecap:butt;stroke-linejoin:miter;stroke:rgb(0%,0%,0%);stroke-opacity:1;stroke-miterlimit:10;" d="M 31.839038 13.963038 L 31.913768 13.3652 L 32.122224 12.731963 L 32.468341 12.047596 L 32.952118 11.296366 L 33.585354 10.458606 L 34.387715 9.510718 L 35.386734 8.421237 L 36.633541 7.146899 " transform="matrix(0.993162,0,0,-0.993162,1.062266,72.473029)"/>
<g clip-path="url(#clip12)" clip-rule="nonzero">
<path style="fill:none;stroke-width:0.3985;stroke-linecap:butt;stroke-linejoin:miter;stroke:rgb(0%,0%,0%);stroke-opacity:1;stroke-miterlimit:10;" d="M 36.633541 7.146899 L 45.92756 1.778157 " transform="matrix(0.993162,0,0,-0.993162,1.062266,72.473029)"/>
</g>
<path style="fill:none;stroke-width:0.3985;stroke-linecap:butt;stroke-linejoin:miter;stroke:rgb(0%,0%,0%);stroke-opacity:1;stroke-miterlimit:10;" d="M 55.77222 10.962049 L 55.555897 10.729993 " transform="matrix(0.993162,0,0,-0.993162,1.062266,72.473029)"/>
<path style="fill:none;stroke-width:0.3985;stroke-linecap:butt;stroke-linejoin:miter;stroke:rgb(0%,0%,0%);stroke-opacity:1;stroke-miterlimit:10;" d="M 55.992476 11.33963 L 56.079005 11.642482 " transform="matrix(0.993162,0,0,-0.993162,1.062266,72.473029)"/>
<path style="fill:none;stroke-width:0.3985;stroke-linecap:butt;stroke-linejoin:miter;stroke:rgb(0%,0%,0%);stroke-opacity:1;stroke-miterlimit:10;" d="M 54.517547 10.37601 L 51.571622 12.075128 " transform="matrix(0.993162,0,0,-0.993162,1.062266,72.473029)"/>
<path style="fill:none;stroke-width:0.3985;stroke-linecap:butt;stroke-linejoin:miter;stroke:rgb(0%,0%,0%);stroke-opacity:1;stroke-miterlimit:10;" d="M 55.870549 12.720164 L 52.928557 14.419282 " transform="matrix(0.993162,0,0,-0.993162,1.062266,72.473029)"/>
<g clip-path="url(#clip13)" clip-rule="nonzero">
<path style="fill:none;stroke-width:0.3985;stroke-linecap:butt;stroke-linejoin:miter;stroke:rgb(0%,0%,0%);stroke-opacity:1;stroke-miterlimit:10;" d="M 50.749595 0.645411 L 51.461494 0.311094 L 52.224524 0.0987042 L 53.841046 0.0318408 L 55.4969 0.405489 L 57.144888 1.168519 L 58.741744 2.273733 L 60.248138 3.669999 L 61.624739 5.314053 L 62.824348 7.142965 L 63.807634 9.093805 L 64.543132 11.107575 L 64.999377 13.113478 L 65.156702 15.048585 L 64.995443 16.853899 L 64.488068 18.478287 L 63.626709 19.843088 L 63.056403 20.397661 L 62.411368 20.84604 " transform="matrix(0.993162,0,0,-0.993162,1.062266,72.473029)"/>
</g>
<g clip-path="url(#clip14)" clip-rule="nonzero">
<path style="fill:none;stroke-width:0.3985;stroke-linecap:butt;stroke-linejoin:miter;stroke:rgb(0%,0%,0%);stroke-opacity:1;stroke-miterlimit:10;" d="M 50.749595 0.645411 L 46.226479 3.257019 " transform="matrix(0.993162,0,0,-0.993162,1.062266,72.473029)"/>
</g>
<path style="fill:none;stroke-width:0.3985;stroke-linecap:butt;stroke-linejoin:miter;stroke:rgb(0%,0%,0%);stroke-opacity:1;stroke-miterlimit:10;" d="M 62.411368 20.84604 L 57.888252 23.457648 " transform="matrix(0.993162,0,0,-0.993162,1.062266,72.473029)"/>
<path style="fill:none;stroke-width:0.3985;stroke-linecap:butt;stroke-linejoin:miter;stroke:rgb(0%,0%,0%);stroke-opacity:1;stroke-miterlimit:10;" d="M 39.82332 29.64055 L 40.137972 29.821475 " transform="matrix(0.993162,0,0,-0.993162,1.062266,72.473029)"/>
<path style="fill:none;stroke-width:0.3985;stroke-linecap:butt;stroke-linejoin:miter;stroke:rgb(0%,0%,0%);stroke-opacity:1;stroke-miterlimit:10;" d="M 31.839038 15.811615 L 31.839038 13.963038 " transform="matrix(0.993162,0,0,-0.993162,1.062266,72.473029)"/>
<g clip-path="url(#clip15)" clip-rule="nonzero">
<path style="fill:none;stroke-width:0.3985;stroke-linecap:butt;stroke-linejoin:miter;stroke:rgb(0%,0%,0%);stroke-opacity:1;stroke-miterlimit:10;" d="M 12.531233 48.149927 C 9.663971 49.786115 5.03466 47.103711 2.179197 42.155815 C -0.676265 37.20792 -0.684132 31.858844 2.163465 30.191191 " transform="matrix(0.993162,0,0,-0.993162,1.062266,72.473029)"/>
</g>
<path style="fill:none;stroke-width:0.3985;stroke-linecap:butt;stroke-linejoin:miter;stroke:rgb(0%,0%,0%);stroke-opacity:1;stroke-miterlimit:10;" d="M 27.819364 16.578578 C 25.239222 18.065307 25.239222 22.891275 27.819364 27.35146 C 30.395574 31.815579 34.572573 34.226596 37.148782 32.739868 " transform="matrix(0.993162,0,0,-0.993162,1.062266,72.473029)"/>
<path style="fill:none;stroke-width:0.3985;stroke-linecap:butt;stroke-linejoin:miter;stroke:rgb(0%,0%,0%);stroke-opacity:1;stroke-miterlimit:10;" d="M 39.41034 31.434064 C 38.285461 34.521582 35.072082 35.005359 31.665979 32.602208 C 28.26381 30.195124 25.577472 25.542214 25.195957 21.392747 C 24.818375 17.24328 26.843945 14.702469 30.076989 15.272775 " transform="matrix(0.993162,0,0,-0.993162,1.062266,72.473029)"/>
<path style="fill:none;stroke-width:0.3985;stroke-linecap:butt;stroke-linejoin:miter;stroke:rgb(0%,0%,0%);stroke-opacity:1;stroke-miterlimit:10;" d="M 31.839038 14.25409 L 27.819364 16.578578 " transform="matrix(0.993162,0,0,-0.993162,1.062266,72.473029)"/>
<path style="fill:none;stroke-width:0.3985;stroke-linecap:butt;stroke-linejoin:miter;stroke:rgb(0%,0%,0%);stroke-opacity:1;stroke-miterlimit:10;" d="M 41.235319 30.379981 L 37.148782 32.739868 " transform="matrix(0.993162,0,0,-0.993162,1.062266,72.473029)"/>
<path style="fill:none;stroke-width:0.3985;stroke-linecap:butt;stroke-linejoin:miter;stroke:rgb(0%,0%,0%);stroke-opacity:1;stroke-miterlimit:10;" d="M 12.531233 48.149927 L 37.667957 33.636625 " transform="matrix(0.993162,0,0,-0.993162,1.062266,72.473029)"/>
<g clip-path="url(#clip16)" clip-rule="nonzero">
<path style="fill:none;stroke-width:0.3985;stroke-linecap:butt;stroke-linejoin:miter;stroke:rgb(0%,0%,0%);stroke-opacity:1;stroke-miterlimit:10;" d="M 2.163465 30.191191 L 27.300189 15.681822 " transform="matrix(0.993162,0,0,-0.993162,1.062266,72.473029)"/>
</g>
<path style="fill:none;stroke-width:0.3985;stroke-linecap:butt;stroke-linejoin:miter;stroke:rgb(0%,0%,0%);stroke-opacity:1;stroke-miterlimit:10;" d="M 46.045555 71.127355 C 43.182226 72.775343 38.545049 70.092938 35.685653 65.137177 C 32.822324 60.185348 32.822324 54.828406 35.677787 53.168619 " transform="matrix(0.993162,0,0,-0.993162,1.062266,72.473029)"/>
<path style="fill:none;stroke-width:0.3985;stroke-linecap:butt;stroke-linejoin:miter;stroke:rgb(0%,0%,0%);stroke-opacity:1;stroke-miterlimit:10;" d="M 70.340586 34.887365 C 67.791909 34.90703 66.364178 37.310182 66.812556 40.830346 C 67.257001 44.35051 69.475295 48.189258 72.299292 50.336755 C 75.127223 52.484252 77.915822 52.448854 79.21376 50.250226 " transform="matrix(0.993162,0,0,-0.993162,1.062266,72.473029)"/>
<path style="fill:none;stroke-width:0.3985;stroke-linecap:butt;stroke-linejoin:miter;stroke:rgb(0%,0%,0%);stroke-opacity:1;stroke-miterlimit:10;" d="M 61.333686 39.556007 C 59.666033 40.519627 59.013131 42.946377 59.622768 45.9277 C 60.232406 48.909024 62.01412 51.992609 64.291411 54.010312 C 66.568701 56.028015 68.995451 56.680917 70.663104 55.717296 " transform="matrix(0.993162,0,0,-0.993162,1.062266,72.473029)"/>
<path style="fill:none;stroke-width:0.3985;stroke-linecap:butt;stroke-linejoin:miter;stroke:rgb(0%,0%,0%);stroke-opacity:1;stroke-miterlimit:10;" d="M 72.924662 54.411493 C 71.799783 57.499011 68.586404 57.982787 65.180301 55.579636 C 61.778131 53.172552 59.091794 48.519642 58.710279 44.370175 C 58.332697 40.220708 60.358266 37.679897 63.591311 38.250203 " transform="matrix(0.993162,0,0,-0.993162,1.062266,72.473029)"/>
<path style="fill:none;stroke-width:0.3985;stroke-linecap:butt;stroke-linejoin:miter;stroke:rgb(0%,0%,0%);stroke-opacity:1;stroke-miterlimit:10;" d="M 68.665067 35.323944 L 61.333686 39.556007 " transform="matrix(0.993162,0,0,-0.993162,1.062266,72.473029)"/>
<path style="fill:none;stroke-width:0.3985;stroke-linecap:butt;stroke-linejoin:miter;stroke:rgb(0%,0%,0%);stroke-opacity:1;stroke-miterlimit:10;" d="M 77.994485 51.485233 L 70.663104 55.717296 " transform="matrix(0.993162,0,0,-0.993162,1.062266,72.473029)"/>
<path style="fill:none;stroke-width:0.3985;stroke-linecap:butt;stroke-linejoin:miter;stroke:rgb(0%,0%,0%);stroke-opacity:1;stroke-miterlimit:10;" d="M 46.045555 71.127355 L 71.182279 56.614053 " transform="matrix(0.993162,0,0,-0.993162,1.062266,72.473029)"/>
<path style="fill:none;stroke-width:0.3985;stroke-linecap:butt;stroke-linejoin:miter;stroke:rgb(0%,0%,0%);stroke-opacity:1;stroke-miterlimit:10;" d="M 35.677787 53.168619 L 60.814511 38.65925 " transform="matrix(0.993162,0,0,-0.993162,1.062266,72.473029)"/>
<path style="fill:none;stroke-width:0.3985;stroke-linecap:butt;stroke-linejoin:miter;stroke:rgb(0%,0%,0%);stroke-opacity:1;stroke-miterlimit:10;" d="M 66.836155 39.654335 L 73.306177 35.917848 " transform="matrix(0.993162,0,0,-0.993162,1.062266,72.473029)"/>
<path style="fill:none;stroke-width:0.3985;stroke-linecap:butt;stroke-linejoin:miter;stroke:rgb(0%,0%,0%);stroke-opacity:1;stroke-miterlimit:10;" d="M 76.554954 44.287579 L 76.503823 42.907046 L 76.36223 41.695637 L 76.130175 40.606156 L 75.799791 39.599271 L 74.828304 37.742827 L 74.151803 36.838204 L 73.306177 35.917848 " transform="matrix(0.993162,0,0,-0.993162,1.062266,72.473029)"/>
<path style="fill:none;stroke-width:0.3985;stroke-linecap:butt;stroke-linejoin:miter;stroke:rgb(0%,0%,0%);stroke-opacity:1;stroke-miterlimit:10;" d="M 70.080999 48.024066 L 76.554954 44.287579 " transform="matrix(0.993162,0,0,-0.993162,1.062266,72.473029)"/>
<path style="fill:none;stroke-width:0.3985;stroke-linecap:butt;stroke-linejoin:miter;stroke:rgb(0%,0%,0%);stroke-opacity:1;stroke-miterlimit:10;" d="M 70.080999 35.036824 L 76.554954 31.300337 " transform="matrix(0.993162,0,0,-0.993162,1.062266,72.473029)"/>
<path style="fill:none;stroke-width:0.3985;stroke-linecap:butt;stroke-linejoin:miter;stroke:rgb(0%,0%,0%);stroke-opacity:1;stroke-miterlimit:10;" d="M 73.306177 35.917848 L 74.151803 35.05649 L 74.828304 34.317059 L 75.371078 33.675956 L 75.799791 33.10565 L 76.36223 32.134164 L 76.554954 31.300337 " transform="matrix(0.993162,0,0,-0.993162,1.062266,72.473029)"/>
<path style="fill:none;stroke-width:0.3985;stroke-linecap:butt;stroke-linejoin:miter;stroke:rgb(0%,0%,0%);stroke-opacity:1;stroke-miterlimit:10;" d="M 76.554954 31.300337 L 77.95122 31.611056 " transform="matrix(0.993162,0,0,-0.993162,1.062266,72.473029)"/>
<path style="fill:none;stroke-width:0.3985;stroke-linecap:butt;stroke-linejoin:miter;stroke:rgb(0%,0%,0%);stroke-opacity:1;stroke-miterlimit:10;" d="M 83.048575 48.035866 L 82.552999 47.292502 L 81.998426 46.663198 L 80.672956 45.660247 L 79.862728 45.2512 L 78.930573 44.88935 L 77.841092 44.570766 L 76.554954 44.287579 " transform="matrix(0.993162,0,0,-0.993162,1.062266,72.473029)"/>
<path style="fill:none;stroke-width:0.3985;stroke-linecap:butt;stroke-linejoin:miter;stroke:rgb(0%,0%,0%);stroke-opacity:1;stroke-miterlimit:10;" d="M 76.57462 51.772353 L 83.048575 48.035866 " transform="matrix(0.993162,0,0,-0.993162,1.062266,72.473029)"/>
<path style="fill:none;stroke-width:0.3985;stroke-linecap:butt;stroke-linejoin:miter;stroke:rgb(0%,0%,0%);stroke-opacity:1;stroke-miterlimit:10;" d="M 85.211805 45.668113 L 84.318981 46.714329 L 83.736876 47.331833 L 83.048575 48.035866 " transform="matrix(0.993162,0,0,-0.993162,1.062266,72.473029)"/>
<path style="fill:none;stroke-width:0.3985;stroke-linecap:butt;stroke-linejoin:miter;stroke:rgb(0%,0%,0%);stroke-opacity:1;stroke-miterlimit:10;" d="M 88.936492 24.503864 L 89.892246 24.720187 " transform="matrix(0.993162,0,0,-0.993162,1.062266,72.473029)"/>
<path style="fill:none;stroke-width:0.3985;stroke-linecap:butt;stroke-linejoin:miter;stroke:rgb(0%,0%,0%);stroke-opacity:1;stroke-miterlimit:10;" d="M 88.936492 24.503864 C 89.255077 24.535329 89.585461 24.602193 89.919778 24.704454 " transform="matrix(0.993162,0,0,-0.993162,1.062266,72.473029)"/>
<g clip-path="url(#clip17)" clip-rule="nonzero">
<path style="fill:none;stroke-width:0.3985;stroke-linecap:butt;stroke-linejoin:miter;stroke:rgb(0%,0%,0%);stroke-opacity:1;stroke-miterlimit:10;" d="M 97.727069 38.438994 L 97.148897 39.595338 L 96.279672 40.378034 L 95.174459 40.74775 L 93.888321 40.676953 L 92.495988 40.165644 L 91.076123 39.245288 L 89.711322 37.963083 L 88.480247 36.381959 L 87.45763 34.596312 L 86.702466 32.700537 L 86.26982 30.812627 L 86.187224 29.038779 L 86.470411 27.48912 L 87.103647 26.265913 L 87.544159 25.797868 L 88.059401 25.439952 L 88.637573 25.196097 L 89.274743 25.07417 " transform="matrix(0.993162,0,0,-0.993162,1.062266,72.473029)"/>
</g>
<g clip-path="url(#clip18)" clip-rule="nonzero">
<path style="fill:none;stroke-width:0.3985;stroke-linecap:butt;stroke-linejoin:miter;stroke:rgb(0%,0%,0%);stroke-opacity:1;stroke-miterlimit:10;" d="M 88.464515 25.542214 C 86.28162 26.804753 86.285553 30.887357 88.464515 34.667109 C 90.64741 38.442927 94.183307 40.484229 96.362268 39.229556 " transform="matrix(0.993162,0,0,-0.993162,1.062266,72.473029)"/>
</g>
<path style="fill:none;stroke-width:0.3985;stroke-linecap:butt;stroke-linejoin:miter;stroke:rgb(0%,0%,0%);stroke-opacity:1;stroke-miterlimit:10;" d="M 84.657231 45.986698 C 82.478269 47.241371 78.942373 45.200069 76.759478 41.42425 C 74.580516 37.644499 74.576583 33.561895 76.759478 32.303289 " transform="matrix(0.993162,0,0,-0.993162,1.062266,72.473029)"/>
<path style="fill:none;stroke-width:0.3985;stroke-linecap:butt;stroke-linejoin:miter;stroke:rgb(0%,0%,0%);stroke-opacity:1;stroke-miterlimit:10;" d="M 77.782095 34.383922 C 77.782095 37.943418 80.283575 42.277743 83.36716 44.059457 " transform="matrix(0.993162,0,0,-0.993162,1.062266,72.473029)"/>
<path style="fill:none;stroke-width:0.3985;stroke-linecap:butt;stroke-linejoin:miter;stroke:rgb(0%,0%,0%);stroke-opacity:1;stroke-miterlimit:10;" d="M 78.234407 36.669079 L 77.81356 34.415387 L 77.789961 33.357372 L 77.88829 32.374086 L 78.116412 31.485195 L 78.458596 30.710366 L 78.918774 30.061397 L 79.47728 29.550088 " transform="matrix(0.993162,0,0,-0.993162,1.062266,72.473029)"/>
<path style="fill:none;stroke-width:0.3985;stroke-linecap:butt;stroke-linejoin:miter;stroke:rgb(0%,0%,0%);stroke-opacity:1;stroke-miterlimit:10;" d="M 78.234407 36.669079 L 78.942373 38.560921 L 79.937458 40.381967 L 81.160666 42.022088 L 82.5412 43.394756 " transform="matrix(0.993162,0,0,-0.993162,1.062266,72.473029)"/>
<path style="fill:none;stroke-width:0.3985;stroke-linecap:butt;stroke-linejoin:miter;stroke:rgb(0%,0%,0%);stroke-opacity:1;stroke-miterlimit:10;" d="M 82.5412 43.394756 L 83.78014 44.291512 L 85.054479 44.944414 " transform="matrix(0.993162,0,0,-0.993162,1.062266,72.473029)"/>
<path style="fill:none;stroke-width:0.3985;stroke-linecap:butt;stroke-linejoin:miter;stroke:rgb(0%,0%,0%);stroke-opacity:1;stroke-miterlimit:10;" d="M 85.569721 45.192202 C 86.859792 45.65238 88.043668 45.609116 88.967957 45.074208 " transform="matrix(0.993162,0,0,-0.993162,1.062266,72.473029)"/>
<path style="fill:none;stroke-width:0.3985;stroke-linecap:butt;stroke-linejoin:miter;stroke:rgb(0%,0%,0%);stroke-opacity:1;stroke-miterlimit:10;" d="M 84.889287 44.299379 L 83.909934 43.599279 L 82.95418 42.733987 L 82.049557 41.723169 L 81.211797 40.586491 L 80.472366 39.35935 L 79.83913 38.065345 L 79.335687 36.732009 L 78.973838 35.398673 L 78.757515 34.09287 L 78.702451 32.846063 L 78.80078 31.689718 L 79.060367 30.647435 L 79.469414 29.746745 L 80.020054 29.007314 L 80.700488 28.448808 L 81.494983 28.083025 " transform="matrix(0.993162,0,0,-0.993162,1.062266,72.473029)"/>
<path style="fill:none;stroke-width:0.3985;stroke-linecap:butt;stroke-linejoin:miter;stroke:rgb(0%,0%,0%);stroke-opacity:1;stroke-miterlimit:10;" d="M 91.41044 43.548148 L 90.513683 44.161719 L 89.416336 44.397707 L 88.177395 44.252181 L 86.851926 43.72514 L 85.502857 42.840182 L 84.197053 41.63664 L 82.993511 40.169577 L 81.947295 38.501924 L 81.113468 36.712344 L 80.52743 34.879498 L 80.220645 33.082052 L 80.208845 31.402599 L 80.495965 29.919804 L 81.070204 28.692663 L 81.907963 27.784106 L 82.973846 27.229533 " transform="matrix(0.993162,0,0,-0.993162,1.062266,72.473029)"/>
<path style="fill:none;stroke-width:0.3985;stroke-linecap:butt;stroke-linejoin:miter;stroke:rgb(0%,0%,0%);stroke-opacity:1;stroke-miterlimit:10;" d="M 92.889302 42.694656 L 91.992545 43.308226 L 90.899131 43.544215 L 89.660191 43.398689 L 88.334721 42.871647 L 86.985653 41.98669 L 85.675916 40.787081 L 84.472373 39.320018 L 83.426157 37.652365 L 82.592331 35.862784 L 82.006292 34.026006 L 81.699507 32.228559 L 81.687707 30.549107 L 81.974827 29.066311 L 82.549066 27.83917 L 83.386826 26.930614 L 84.452708 26.376041 " transform="matrix(0.993162,0,0,-0.993162,1.062266,72.473029)"/>
<path style="fill:none;stroke-width:0.3985;stroke-linecap:butt;stroke-linejoin:miter;stroke:rgb(0%,0%,0%);stroke-opacity:1;stroke-miterlimit:10;" d="M 82.95418 30.812627 L 82.958113 32.346554 L 83.253099 33.994541 L 83.807672 35.67006 L 84.586435 37.298382 L 85.569721 38.79691 L 86.6946 40.090914 L 87.898142 41.125331 L 89.129216 41.841164 " transform="matrix(0.993162,0,0,-0.993162,1.062266,72.473029)"/>
<path style="fill:none;stroke-width:0.3985;stroke-linecap:butt;stroke-linejoin:miter;stroke:rgb(0%,0%,0%);stroke-opacity:1;stroke-miterlimit:10;" d="M 81.475318 31.662186 L 81.479251 33.207912 L 81.77817 34.859833 L 82.336676 36.543218 L 83.123305 38.175473 L 84.106591 39.666135 L 85.227537 40.956206 L 86.427146 41.982757 L 87.650354 42.690723 " transform="matrix(0.993162,0,0,-0.993162,1.062266,72.473029)"/>
<path style="fill:none;stroke-width:0.3985;stroke-linecap:butt;stroke-linejoin:miter;stroke:rgb(0%,0%,0%);stroke-opacity:1;stroke-miterlimit:10;" d="M 79.996455 32.507812 L 80.000389 34.053538 L 80.299307 35.709392 L 80.853881 37.392778 L 81.64051 39.025032 L 82.623796 40.515694 L 83.744742 41.805765 L 84.944351 42.836249 L 86.167559 43.540282 " transform="matrix(0.993162,0,0,-0.993162,1.062266,72.473029)"/>
<path style="fill:none;stroke-width:0.3985;stroke-linecap:butt;stroke-linejoin:miter;stroke:rgb(0%,0%,0%);stroke-opacity:1;stroke-miterlimit:10;" d="M 78.517593 33.361305 L 78.525459 34.910964 L 78.820445 36.578617 " transform="matrix(0.993162,0,0,-0.993162,1.062266,72.473029)"/>
<path style="fill:none;stroke-width:0.3985;stroke-linecap:butt;stroke-linejoin:miter;stroke:rgb(0%,0%,0%);stroke-opacity:1;stroke-miterlimit:10;" d="M 78.820445 36.578617 L 78.234407 36.669079 " transform="matrix(0.993162,0,0,-0.993162,1.062266,72.473029)"/>
<path style="fill:none;stroke-width:0.3985;stroke-linecap:butt;stroke-linejoin:miter;stroke:rgb(0%,0%,0%);stroke-opacity:1;stroke-miterlimit:10;" d="M 89.935511 44.401641 L 88.944358 45.050609 L 87.725084 45.255133 L 86.348483 44.999478 L 84.889287 44.299379 " transform="matrix(0.993162,0,0,-0.993162,1.062266,72.473029)"/>
<path style="fill:none;stroke-width:0.3985;stroke-linecap:butt;stroke-linejoin:miter;stroke:rgb(0%,0%,0%);stroke-opacity:1;stroke-miterlimit:10;" d="M 78.910908 36.016177 L 78.65132 34.773304 L 78.525459 33.573695 L 78.541192 32.433083 L 78.698518 31.386866 L 78.98957 30.450778 L 79.41435 29.644483 L 79.961057 28.987648 L 80.621825 28.492072 " transform="matrix(0.993162,0,0,-0.993162,1.062266,72.473029)"/>
<path style="fill:none;stroke-width:0.3985;stroke-linecap:butt;stroke-linejoin:miter;stroke:rgb(0%,0%,0%);stroke-opacity:1;stroke-miterlimit:10;" d="M 90.631677 44.118454 L 89.68379 44.456705 L 88.598242 44.47637 L 87.414365 44.169585 L 86.183291 43.552081 L 84.948284 42.639592 L 83.764408 41.475381 L 82.67886 40.094848 L 81.730972 38.553055 L 80.964009 36.909001 L 80.405502 35.221682 L 80.079051 33.561895 L 79.996455 31.984704 L 80.169514 30.556973 L 80.59036 29.325899 L 81.239329 28.33868 L 82.100688 27.63858 " transform="matrix(0.993162,0,0,-0.993162,1.062266,72.473029)"/>
<path style="fill:none;stroke-width:0.3985;stroke-linecap:butt;stroke-linejoin:miter;stroke:rgb(0%,0%,0%);stroke-opacity:1;stroke-miterlimit:10;" d="M 92.11054 43.264962 L 91.162652 43.603212 L 90.073171 43.622878 L 88.889294 43.316093 L 87.65822 42.698589 L 86.427146 41.7861 L 85.24327 40.621889 L 84.157722 39.241355 L 83.209834 37.699563 L 82.442871 36.055509 L 81.880431 34.372123 L 81.55398 32.712336 L 81.475318 31.135145 L 81.648376 29.703481 L 82.065289 28.472406 L 82.718191 27.48912 L 83.57955 26.785088 " transform="matrix(0.993162,0,0,-0.993162,1.062266,72.473029)"/>
<path style="fill:none;stroke-width:0.3985;stroke-linecap:butt;stroke-linejoin:miter;stroke:rgb(0%,0%,0%);stroke-opacity:1;stroke-miterlimit:10;" d="M 93.585469 42.41147 L 92.637581 42.74972 L 91.552033 42.769386 L 90.368157 42.4626 L 89.137083 41.845097 L 87.906008 40.932607 L 86.722132 39.768397 L 85.636584 38.387863 L 84.688696 36.846071 L 83.9178 35.202016 L 83.359294 33.518631 L 83.032843 31.854911 L 82.95418 30.281653 L 83.123305 28.849988 L 83.544151 27.618914 L 84.197053 26.631695 L 85.058412 25.931595 " transform="matrix(0.993162,0,0,-0.993162,1.062266,72.473029)"/>
<g clip-path="url(#clip19)" clip-rule="nonzero">
<path style="fill:none;stroke-width:0.3985;stroke-linecap:butt;stroke-linejoin:miter;stroke:rgb(0%,0%,0%);stroke-opacity:1;stroke-miterlimit:10;" d="M 95.064331 41.557977 L 94.116443 41.896228 L 93.030895 41.915893 L 91.847019 41.609108 L 90.615945 40.991604 L 89.380937 40.083048 L 88.200994 38.914904 L 87.111513 37.534371 L 86.167559 35.992578 L 85.396662 34.348524 L 84.838156 32.665138 L 84.511705 31.001418 L 84.433042 29.428161 L 84.602167 27.996496 L 85.023014 26.765422 L 85.675916 25.782136 L 86.537274 25.078103 " transform="matrix(0.993162,0,0,-0.993162,1.062266,72.473029)"/>
<path style="fill:none;stroke-width:0.3985;stroke-linecap:butt;stroke-linejoin:miter;stroke:rgb(0%,0%,0%);stroke-opacity:1;stroke-miterlimit:10;" d="M 88.936492 24.503864 L 88.204927 24.51173 L 87.516627 24.637591 L 86.883391 24.881446 L 86.317018 25.243295 L 85.821442 25.719206 L 85.400596 26.297378 L 84.822423 27.736909 L 84.613967 29.475358 L 84.775226 31.422265 L 85.298334 33.471433 L 86.151826 35.504868 L 87.280638 37.404577 L 88.621841 39.064364 L 90.08497 40.393767 L 91.599231 41.318055 L 93.06236 41.7861 L 93.746728 41.841164 L 94.391763 41.7743 L 94.981735 41.585509 L 95.504843 41.282657 L 95.961088 40.865744 L 96.33867 40.342636 " transform="matrix(0.993162,0,0,-0.993162,1.062266,72.473029)"/>
</g>
<g clip-path="url(#clip20)" clip-rule="nonzero">
<path style="fill:none;stroke-width:0.3985;stroke-linecap:butt;stroke-linejoin:miter;stroke:rgb(0%,0%,0%);stroke-opacity:1;stroke-miterlimit:10;" d="M 85.93157 25.522548 L 84.865688 26.077122 L 84.023995 26.989611 L 83.449756 28.212819 L 83.16657 29.695614 L 83.178369 31.375067 L 83.481221 33.164648 L 84.06726 35.001426 L 84.901086 36.79494 L 85.947303 38.462593 L 87.150845 39.929656 L 88.460582 41.133198 L 89.80965 42.018155 L 91.139053 42.545196 L 92.377993 42.690723 L 93.471407 42.454734 L 94.368164 41.841164 " transform="matrix(0.993162,0,0,-0.993162,1.062266,72.473029)"/>
</g>
<path style="fill:none;stroke-width:0.3985;stroke-linecap:butt;stroke-linejoin:miter;stroke:rgb(0%,0%,0%);stroke-opacity:1;stroke-miterlimit:10;" d="M 84.425176 44.566833 L 85.569721 45.192202 " transform="matrix(0.993162,0,0,-0.993162,1.062266,72.473029)"/>
<path style="fill:none;stroke-width:0.3985;stroke-linecap:butt;stroke-linejoin:miter;stroke:rgb(0%,0%,0%);stroke-opacity:1;stroke-miterlimit:10;" d="M 78.910908 36.016177 L 79.756534 38.592387 L 81.042672 40.999471 L 81.817501 42.081085 L 82.651328 43.048639 L 83.528419 43.882465 L 84.425176 44.566833 " transform="matrix(0.993162,0,0,-0.993162,1.062266,72.473029)"/>
<path style="fill:none;stroke-width:0.3985;stroke-linecap:butt;stroke-linejoin:miter;stroke:rgb(0%,0%,0%);stroke-opacity:1;stroke-miterlimit:10;" d="M 87.45763 25.872598 L 86.855859 26.458637 L 86.387815 27.217733 L 86.065297 28.130223 L 85.896172 29.172506 L 85.888305 30.313118 L 86.037765 31.524526 L 86.336684 32.771333 L 86.781129 34.026006 L 87.355368 35.245281 L 88.039735 36.405558 L 88.818498 37.467507 L 89.668057 38.407529 L 90.560881 39.202024 L 91.47337 39.823461 L 92.381926 40.26004 L 93.259018 40.496028 " transform="matrix(0.993162,0,0,-0.993162,1.062266,72.473029)"/>
<path style="fill:none;stroke-width:0.3985;stroke-linecap:butt;stroke-linejoin:miter;stroke:rgb(0%,0%,0%);stroke-opacity:1;stroke-miterlimit:10;" d="M 84.429109 29.91587 L 84.433042 31.461596 L 84.720162 33.121383 L 85.274735 34.812635 L 86.065297 36.448823 L 87.052516 37.955217 L 88.177395 39.253155 L 89.388804 40.283639 L 90.623811 40.995538 " transform="matrix(0.993162,0,0,-0.993162,1.062266,72.473029)"/>
<g clip-path="url(#clip21)" clip-rule="nonzero">
<path style="fill:none;stroke-width:0.3985;stroke-linecap:butt;stroke-linejoin:miter;stroke:rgb(0%,0%,0%);stroke-opacity:1;stroke-miterlimit:10;" d="M 97.959125 38.305267 C 99.009274 37.699563 99.595313 36.401625 99.595313 34.690707 C 99.595313 32.97979 99.009274 30.997485 97.959125 29.184306 C 95.77623 25.404554 92.240333 23.363252 90.057438 24.621858 C 89.011222 25.227563 88.42125 26.529433 88.42125 28.240351 C 88.42125 29.951269 89.011222 31.92964 90.057438 33.74282 C 91.107588 35.559932 92.527453 37.05846 94.010248 37.915886 C 95.493044 38.769378 96.912909 38.910971 97.959125 38.305267 Z M 97.959125 38.305267 " transform="matrix(0.993162,0,0,-0.993162,1.062266,72.473029)"/>
</g>
<g clip-path="url(#clip22)" clip-rule="nonzero">
<path style="fill:none;stroke-width:0.3985;stroke-linecap:butt;stroke-linejoin:miter;stroke:rgb(0%,0%,0%);stroke-opacity:1;stroke-miterlimit:10;" d="M 97.432084 37.392778 C 98.34064 36.869669 98.851949 35.740857 98.851949 34.258062 C 98.851949 32.775266 98.34064 31.060415 97.432084 29.487158 C 96.523527 27.9139 95.292453 26.615962 94.010248 25.872598 C 92.72411 25.133167 91.493036 25.01124 90.58448 25.534348 C 89.679856 26.057456 89.168548 27.186268 89.168548 28.669064 C 89.168548 30.151859 89.679856 31.86671 90.58448 33.439968 C 91.493036 35.013225 92.72411 36.315096 94.010248 37.054527 C 95.292453 37.797891 96.523527 37.919819 97.432084 37.392778 Z M 97.432084 37.392778 " transform="matrix(0.993162,0,0,-0.993162,1.062266,72.473029)"/>
</g>
<g clip-path="url(#clip23)" clip-rule="nonzero">
<path style="fill:none;stroke-width:0.3985;stroke-linecap:butt;stroke-linejoin:miter;stroke:rgb(0%,0%,0%);stroke-opacity:1;stroke-miterlimit:10;" d="M 94.667083 37.380978 C 94.871607 35.768389 94.364231 33.73102 93.294416 31.878509 C 92.224601 30.022065 90.714273 28.562869 89.211812 27.937499 " transform="matrix(0.993162,0,0,-0.993162,1.062266,72.473029)"/>
</g>
<g clip-path="url(#clip24)" clip-rule="nonzero">
<path style="fill:none;stroke-width:0.3985;stroke-linecap:butt;stroke-linejoin:miter;stroke:rgb(0%,0%,0%);stroke-opacity:1;stroke-miterlimit:10;" d="M 89.172481 28.46454 C 90.564814 28.967983 92.000411 30.305252 93.003363 32.043701 C 94.006315 33.782151 94.45076 35.693659 94.18724 37.152856 " transform="matrix(0.993162,0,0,-0.993162,1.062266,72.473029)"/>
</g>
<g clip-path="url(#clip25)" clip-rule="nonzero">
<path style="fill:none;stroke-width:0.3985;stroke-linecap:butt;stroke-linejoin:miter;stroke:rgb(0%,0%,0%);stroke-opacity:1;stroke-miterlimit:10;" d="M 94.053513 37.082059 C 94.258036 35.642528 93.809658 33.80575 92.846037 32.138097 C 91.878484 30.466511 90.517616 29.160707 89.168548 28.617933 " transform="matrix(0.993162,0,0,-0.993162,1.062266,72.473029)"/>
</g>
<path style="fill:none;stroke-width:0.3985;stroke-linecap:butt;stroke-linejoin:miter;stroke:rgb(0%,0%,0%);stroke-opacity:1;stroke-miterlimit:10;" d="M 91.091855 34.242329 C 90.969928 33.636625 90.608078 33.011255 90.143967 32.602208 " transform="matrix(0.993162,0,0,-0.993162,1.062266,72.473029)"/>
<path style="fill:none;stroke-width:0.3985;stroke-linecap:butt;stroke-linejoin:miter;stroke:rgb(0%,0%,0%);stroke-opacity:1;stroke-miterlimit:10;" d="M 91.001393 34.104669 C 90.863733 33.609093 90.580546 33.113517 90.218697 32.751667 " transform="matrix(0.993162,0,0,-0.993162,1.062266,72.473029)"/>
<path style="fill:none;stroke-width:0.3985;stroke-linecap:butt;stroke-linejoin:miter;stroke:rgb(0%,0%,0%);stroke-opacity:1;stroke-miterlimit:10;" d="M 90.415354 33.133182 C 90.553014 33.31804 90.674942 33.526497 90.769337 33.74282 " transform="matrix(0.993162,0,0,-0.993162,1.062266,72.473029)"/>
<path style="fill:none;stroke-width:0.3985;stroke-linecap:butt;stroke-linejoin:miter;stroke:rgb(0%,0%,0%);stroke-opacity:1;stroke-miterlimit:10;" d="M 79.021036 36.464556 L 78.820445 36.578617 " transform="matrix(0.993162,0,0,-0.993162,1.062266,72.473029)"/>
<path style="fill:none;stroke-width:0.3985;stroke-linecap:butt;stroke-linejoin:miter;stroke:rgb(0%,0%,0%);stroke-opacity:1;stroke-miterlimit:10;" d="M 78.820445 36.578617 L 79.367152 38.450793 L 80.208845 40.271839 L 81.29046 41.959158 L 82.5412 43.394756 " transform="matrix(0.993162,0,0,-0.993162,1.062266,72.473029)"/>
<path style="fill:none;stroke-width:0.3985;stroke-linecap:butt;stroke-linejoin:miter;stroke:rgb(0%,0%,0%);stroke-opacity:1;stroke-miterlimit:10;" d="M 84.657231 45.986698 L 85.864707 45.290531 " transform="matrix(0.993162,0,0,-0.993162,1.062266,72.473029)"/>
<path style="fill:none;stroke-width:0.3985;stroke-linecap:butt;stroke-linejoin:miter;stroke:rgb(0%,0%,0%);stroke-opacity:1;stroke-miterlimit:10;" d="M 76.759478 32.303289 L 78.10068 31.524526 " transform="matrix(0.993162,0,0,-0.993162,1.062266,72.473029)"/>
<path style="fill:none;stroke-width:0.3985;stroke-linecap:butt;stroke-linejoin:miter;stroke:rgb(0%,0%,0%);stroke-opacity:1;stroke-miterlimit:10;" d="M 83.36716 44.059457 L 84.020062 44.433106 " transform="matrix(0.993162,0,0,-0.993162,1.062266,72.473029)"/>
<path style="fill:none;stroke-width:0.3985;stroke-linecap:butt;stroke-linejoin:miter;stroke:rgb(0%,0%,0%);stroke-opacity:1;stroke-miterlimit:10;" d="M 77.782095 34.383922 L 77.782095 33.672023 " transform="matrix(0.993162,0,0,-0.993162,1.062266,72.473029)"/>
<path style="fill:none;stroke-width:0.3985;stroke-linecap:butt;stroke-linejoin:miter;stroke:rgb(0%,0%,0%);stroke-opacity:1;stroke-miterlimit:10;" d="M 88.967957 45.074208 L 89.337673 44.861818 " transform="matrix(0.993162,0,0,-0.993162,1.062266,72.473029)"/>
<path style="fill:none;stroke-width:0.3985;stroke-linecap:butt;stroke-linejoin:miter;stroke:rgb(0%,0%,0%);stroke-opacity:1;stroke-miterlimit:10;" d="M 90.631677 44.118454 L 90.816535 44.008326 " transform="matrix(0.993162,0,0,-0.993162,1.062266,72.473029)"/>
<path style="fill:none;stroke-width:0.3985;stroke-linecap:butt;stroke-linejoin:miter;stroke:rgb(0%,0%,0%);stroke-opacity:1;stroke-miterlimit:10;" d="M 92.11054 43.264962 L 92.291464 43.154834 " transform="matrix(0.993162,0,0,-0.993162,1.062266,72.473029)"/>
<path style="fill:none;stroke-width:0.3985;stroke-linecap:butt;stroke-linejoin:miter;stroke:rgb(0%,0%,0%);stroke-opacity:1;stroke-miterlimit:10;" d="M 93.585469 42.41147 L 93.770326 42.305275 " transform="matrix(0.993162,0,0,-0.993162,1.062266,72.473029)"/>
<g clip-path="url(#clip26)" clip-rule="nonzero">
<path style="fill:none;stroke-width:0.3985;stroke-linecap:butt;stroke-linejoin:miter;stroke:rgb(0%,0%,0%);stroke-opacity:1;stroke-miterlimit:10;" d="M 95.064331 41.557977 L 95.249189 41.451782 " transform="matrix(0.993162,0,0,-0.993162,1.062266,72.473029)"/>
</g>
<path style="fill:none;stroke-width:0.3985;stroke-linecap:butt;stroke-linejoin:miter;stroke:rgb(0%,0%,0%);stroke-opacity:1;stroke-miterlimit:10;" d="M 80.621825 28.492072 L 80.806683 28.385877 " transform="matrix(0.993162,0,0,-0.993162,1.062266,72.473029)"/>
<path style="fill:none;stroke-width:0.3985;stroke-linecap:butt;stroke-linejoin:miter;stroke:rgb(0%,0%,0%);stroke-opacity:1;stroke-miterlimit:10;" d="M 82.100688 27.63858 L 82.285545 27.532385 " transform="matrix(0.993162,0,0,-0.993162,1.062266,72.473029)"/>
<path style="fill:none;stroke-width:0.3985;stroke-linecap:butt;stroke-linejoin:miter;stroke:rgb(0%,0%,0%);stroke-opacity:1;stroke-miterlimit:10;" d="M 83.57955 26.785088 L 83.764408 26.678893 " transform="matrix(0.993162,0,0,-0.993162,1.062266,72.473029)"/>
<path style="fill:none;stroke-width:0.3985;stroke-linecap:butt;stroke-linejoin:miter;stroke:rgb(0%,0%,0%);stroke-opacity:1;stroke-miterlimit:10;" d="M 85.058412 25.931595 L 85.24327 25.8254 " transform="matrix(0.993162,0,0,-0.993162,1.062266,72.473029)"/>
<path style="fill:none;stroke-width:0.3985;stroke-linecap:butt;stroke-linejoin:miter;stroke:rgb(0%,0%,0%);stroke-opacity:1;stroke-miterlimit:10;" d="M 86.537274 25.078103 L 86.718199 24.971908 " transform="matrix(0.993162,0,0,-0.993162,1.062266,72.473029)"/>
<g clip-path="url(#clip27)" clip-rule="nonzero">
<path style="fill:none;stroke-width:0.3985;stroke-linecap:butt;stroke-linejoin:miter;stroke:rgb(0%,0%,0%);stroke-opacity:1;stroke-miterlimit:10;" d="M 96.362268 39.229556 L 97.959125 38.305267 " transform="matrix(0.993162,0,0,-0.993162,1.062266,72.473029)"/>
</g>
<path style="fill:none;stroke-width:0.3985;stroke-linecap:butt;stroke-linejoin:miter;stroke:rgb(0%,0%,0%);stroke-opacity:1;stroke-miterlimit:10;" d="M 88.464515 25.542214 L 90.057438 24.621858 " transform="matrix(0.993162,0,0,-0.993162,1.062266,72.473029)"/>
</g>
</svg>
