<?xml version="1.0" encoding="UTF-8"?>
<svg xmlns="http://www.w3.org/2000/svg" xmlns:xlink="http://www.w3.org/1999/xlink" width="115.317pt" height="131.191pt" viewBox="0 0 115.317 131.191" version="1.2">
<defs>
<clipPath id="clip1">
  <path d="M 24 62 L 85 62 L 85 130.386719 L 24 130.386719 Z M 24 62 "/>
</clipPath>
<clipPath id="clip2">
  <path d="M 85 0 L 114.625 0 L 114.625 1 L 85 1 Z M 85 0 "/>
</clipPath>
<clipPath id="clip3">
  <path d="M 50 34 L 76 34 L 76 130.386719 L 50 130.386719 Z M 50 34 "/>
</clipPath>
<clipPath id="clip4">
  <path d="M 0.015625 101 L 69 101 L 69 103 L 0.015625 103 Z M 0.015625 101 "/>
</clipPath>
</defs>
<g id="surface1">
<g clip-path="url(#clip1)" clip-rule="nonzero">
<path style="fill:none;stroke-width:1.59404;stroke-linecap:butt;stroke-linejoin:miter;stroke:rgb(50%,50%,50%);stroke-opacity:1;stroke-miterlimit:10;" d="M 28.205814 -8.503517 C 28.205814 3.224612 12.47267 5.280179 12.47267 17.008308 " transform="matrix(0.993871,0,0,-0.993871,34.217054,101.81813)"/>
</g>
<path style="fill:none;stroke-width:0.79701;stroke-linecap:round;stroke-linejoin:miter;stroke:rgb(0%,0%,0%);stroke-opacity:1;stroke-miterlimit:10;" d="M -0.898341 0.00173458 L 65.433977 102.049036 " transform="matrix(0.993871,0,0,-0.993871,34.217054,101.81813)"/>
<path style="fill:none;stroke-width:0.79701;stroke-linecap:round;stroke-linejoin:miter;stroke:rgb(0%,0%,0%);stroke-opacity:1;stroke-miterlimit:10;" d="M 0.897824 0.00173458 L 67.230142 102.049036 " transform="matrix(0.993871,0,0,-0.993871,34.217054,101.81813)"/>
<path style="fill:none;stroke-width:0.79701;stroke-linecap:round;stroke-linejoin:miter;stroke:rgb(0%,0%,0%);stroke-opacity:1;stroke-miterlimit:10;" d="M 10.487849 51.025385 L 55.843952 51.025385 " transform="matrix(0.993871,0,0,-0.993871,34.217054,101.81813)"/>
<path style="fill:none;stroke-width:0.79701;stroke-linecap:round;stroke-linejoin:miter;stroke:rgb(0%,0%,0%);stroke-opacity:1;stroke-miterlimit:10;" d="M 24.377664 68.031959 L 64.062289 68.031959 " transform="matrix(0.993871,0,0,-0.993871,34.217054,101.81813)"/>
<path style="fill:none;stroke-width:0.79701;stroke-linecap:round;stroke-linejoin:miter;stroke:rgb(0%,0%,0%);stroke-opacity:1;stroke-miterlimit:10;" d="M 38.26748 85.038532 L 72.284557 85.038532 " transform="matrix(0.993871,0,0,-0.993871,34.217054,101.81813)"/>
<g clip-path="url(#clip2)" clip-rule="nonzero">
<path style="fill:none;stroke-width:0.79701;stroke-linecap:round;stroke-linejoin:miter;stroke:rgb(0%,0%,0%);stroke-opacity:1;stroke-miterlimit:10;" d="M 52.157295 102.049036 L 80.506824 102.049036 " transform="matrix(0.993871,0,0,-0.993871,34.217054,101.81813)"/>
</g>
<path style=" stroke:none;fill-rule:nonzero;fill:rgb(100%,100%,100%);fill-opacity:1;" d="M 61.6875 129.992188 L 61.6875 46.878906 C 61.6875 46.101562 62.316406 45.472656 63.09375 45.472656 C 63.871094 45.472656 64.503906 46.101562 64.503906 46.878906 L 64.503906 129.992188 "/>
<g clip-path="url(#clip3)" clip-rule="nonzero">
<path style="fill:none;stroke-width:0.79701;stroke-linecap:round;stroke-linejoin:miter;stroke:rgb(0%,0%,0%);stroke-opacity:1;stroke-miterlimit:10;" d="M 27.639845 -28.347795 L 27.639845 55.278011 C 27.639845 56.060148 28.27263 56.692933 29.054767 56.692933 C 29.836904 56.692933 30.473619 56.060148 30.473619 55.278011 L 30.473619 -28.347795 " transform="matrix(0.993871,0,0,-0.993871,34.217054,101.81813)"/>
</g>
<g clip-path="url(#clip4)" clip-rule="nonzero">
<path style="fill:none;stroke-width:0.79701;stroke-linecap:round;stroke-linejoin:miter;stroke:rgb(0%,0%,0%);stroke-opacity:1;stroke-miterlimit:10;" d="M -34.01537 0.00173458 L 34.014854 0.00173458 " transform="matrix(0.993871,0,0,-0.993871,34.217054,101.81813)"/>
</g>
<path style="fill:none;stroke-width:0.79701;stroke-linecap:round;stroke-linejoin:miter;stroke:rgb(0%,0%,0%);stroke-opacity:1;stroke-miterlimit:10;" d="M 11.949935 17.008308 L 40.299465 17.008308 " transform="matrix(0.993871,0,0,-0.993871,34.217054,101.81813)"/>
<path style="fill:none;stroke-width:0.79701;stroke-linecap:round;stroke-linejoin:miter;stroke:rgb(0%,0%,0%);stroke-opacity:1;stroke-miterlimit:10;" d="M 10.157701 17.008308 L -18.187898 17.008308 " transform="matrix(0.993871,0,0,-0.993871,34.217054,101.81813)"/>
<path style="fill:none;stroke-width:0.79701;stroke-linecap:round;stroke-linejoin:miter;stroke:rgb(0%,0%,0%);stroke-opacity:1;stroke-miterlimit:10;" d="M -3.401966 34.014881 L 47.621685 34.014881 " transform="matrix(0.993871,0,0,-0.993871,34.217054,101.81813)"/>
</g>
</svg>
