<?xml version="1.0" encoding="UTF-8"?>
<svg xmlns="http://www.w3.org/2000/svg" xmlns:xlink="http://www.w3.org/1999/xlink" width="253.826pt" height="313.426pt" viewBox="0 0 253.826 313.426" version="1.2">
<defs>
<clipPath id="clip1">
  <path d="M 126 300 L 128 300 L 128 312.851562 L 126 312.851562 Z M 126 300 "/>
</clipPath>
<clipPath id="clip2">
  <path d="M 118 97 L 253.507812 97 L 253.507812 190 L 118 190 Z M 118 97 "/>
</clipPath>
<clipPath id="clip3">
  <path d="M 0.144531 97 L 135 97 L 135 190 L 0.144531 190 Z M 0.144531 97 "/>
</clipPath>
<clipPath id="clip4">
  <path d="M 118 164 L 253.507812 164 L 253.507812 258 L 118 258 Z M 118 164 "/>
</clipPath>
<clipPath id="clip5">
  <path d="M 0.144531 164 L 135 164 L 135 258 L 0.144531 258 Z M 0.144531 164 "/>
</clipPath>
</defs>
<g id="surface1">
<path style="fill:none;stroke-width:0.3985;stroke-linecap:butt;stroke-linejoin:miter;stroke:rgb(0%,0%,0%);stroke-opacity:1;stroke-miterlimit:10;" d="M 11.796969 82.582956 C 11.796969 85.838908 6.513873 88.480456 -0.00194384 88.480456 C -6.513848 88.480456 -11.796943 85.838908 -11.796943 82.582956 C -11.796943 79.323091 -6.513848 76.681543 -0.00194384 76.681543 C 6.513873 76.681543 11.796969 79.323091 11.796969 82.582956 " transform="matrix(0.998172,0,0,-0.998172,126.826159,259.662461)"/>
<path style="fill:none;stroke-width:0.3985;stroke-linecap:butt;stroke-linejoin:miter;stroke:rgb(0%,0%,0%);stroke-opacity:1;stroke-miterlimit:10;" d="M 11.796969 82.582956 L 11.796969 -35.394428 " transform="matrix(0.998172,0,0,-0.998172,126.826159,259.662461)"/>
<path style="fill:none;stroke-width:0.3985;stroke-linecap:butt;stroke-linejoin:miter;stroke:rgb(0%,0%,0%);stroke-opacity:1;stroke-miterlimit:10;" d="M -11.796943 82.582956 L -11.796943 -35.394428 " transform="matrix(0.998172,0,0,-0.998172,126.826159,259.662461)"/>
<path style="fill:none;stroke-width:0.3985;stroke-linecap:butt;stroke-linejoin:miter;stroke:rgb(0%,0%,0%);stroke-opacity:1;stroke-miterlimit:10;" d="M 11.796969 -35.394428 C 11.796969 -38.65038 6.513873 -41.291928 -0.00194384 -41.291928 C -6.513848 -41.291928 -11.796943 -38.65038 -11.796943 -35.394428 " transform="matrix(0.998172,0,0,-0.998172,126.826159,259.662461)"/>
<g clip-path="url(#clip1)" clip-rule="nonzero">
<path style="fill:none;stroke-width:0.3985;stroke-linecap:butt;stroke-linejoin:miter;stroke:rgb(0%,0%,0%);stroke-opacity:1;stroke-miterlimit:10;" d="M -0.00194384 -41.291928 L -0.00194384 -53.09084 " transform="matrix(0.998172,0,0,-0.998172,126.826159,259.662461)"/>
</g>
<path style="fill:none;stroke-width:0.3985;stroke-linecap:butt;stroke-linejoin:miter;stroke:rgb(0%,0%,0%);stroke-opacity:1;stroke-dasharray:2.98883,2.98883;stroke-miterlimit:10;" d="M -0.00194384 -41.291928 L -0.00194384 76.681543 " transform="matrix(0.998172,0,0,-0.998172,126.826159,259.662461)"/>
<g clip-path="url(#clip2)" clip-rule="nonzero">
<path style="fill:none;stroke-width:1.19553;stroke-linecap:round;stroke-linejoin:miter;stroke:rgb(0%,0%,0%);stroke-opacity:1;stroke-miterlimit:10;" d="M 8.787561 86.973795 L 126.314904 145.74138 " transform="matrix(0.998172,0,0,-0.998172,126.826159,259.662461)"/>
</g>
<path style="fill-rule:nonzero;fill:rgb(0%,0%,0%);fill-opacity:1;stroke-width:0.99628;stroke-linecap:round;stroke-linejoin:miter;stroke:rgb(0%,0%,0%);stroke-opacity:1;stroke-miterlimit:10;" d="M 1.494751 -0.00174255 C 1.492999 0.2748 1.272463 0.498832 0.995921 0.497079 C 0.721129 0.498827 0.498847 0.27304 0.498849 0.00174907 C 0.497102 -0.273043 0.721138 -0.498825 0.99768 -0.497072 C 1.272472 -0.49882 1.493003 -0.276534 1.494751 -0.00174255 Z M 1.494751 -0.00174255 " transform="matrix(-0.892725,0.446353,0.446353,0.892725,136.042211,172.623432)"/>
<g clip-path="url(#clip3)" clip-rule="nonzero">
<path style="fill:none;stroke-width:1.19553;stroke-linecap:round;stroke-linejoin:miter;stroke:rgb(0%,0%,0%);stroke-opacity:1;stroke-miterlimit:10;" d="M -8.787535 86.973795 L -126.314878 145.74138 " transform="matrix(0.998172,0,0,-0.998172,126.826159,259.662461)"/>
</g>
<path style="fill-rule:nonzero;fill:rgb(0%,0%,0%);fill-opacity:1;stroke-width:0.99628;stroke-linecap:round;stroke-linejoin:miter;stroke:rgb(0%,0%,0%);stroke-opacity:1;stroke-miterlimit:10;" d="M 1.494774 0.00175406 C 1.493026 0.276546 1.272495 0.498832 0.997703 0.497084 C 0.721161 0.498837 0.497125 0.273054 0.498873 -0.00173757 C 0.49887 -0.273029 0.721152 -0.498815 0.995944 -0.497067 C 1.272486 -0.49882 1.493022 -0.274788 1.494774 0.00175406 Z M 1.494774 0.00175406 " transform="matrix(0.892725,0.446353,0.446353,-0.892725,117.610107,172.623432)"/>
<g clip-path="url(#clip4)" clip-rule="nonzero">
<path style="fill:none;stroke-width:1.19553;stroke-linecap:round;stroke-linejoin:miter;stroke:rgb(0%,0%,0%);stroke-opacity:1;stroke-miterlimit:10;" d="M 8.787561 78.188204 L 126.314904 19.424532 " transform="matrix(0.998172,0,0,-0.998172,126.826159,259.662461)"/>
</g>
<path style="fill-rule:nonzero;fill:rgb(0%,0%,0%);fill-opacity:1;stroke-width:0.99628;stroke-linecap:round;stroke-linejoin:miter;stroke:rgb(0%,0%,0%);stroke-opacity:1;stroke-miterlimit:10;" d="M 1.495638 -0.0000305396 C 1.49389 0.274761 1.273358 0.497047 0.996816 0.4988 C 0.722024 0.497052 0.496238 0.27477 0.497986 -0.0000216157 C 0.499734 -0.274814 0.720265 -0.497099 0.996807 -0.498852 C 1.271599 -0.497104 1.493885 -0.276573 1.495638 -0.0000305396 Z M 1.495638 -0.0000305396 " transform="matrix(-0.892725,-0.446353,-0.446353,0.892725,136.042211,181.839484)"/>
<g clip-path="url(#clip5)" clip-rule="nonzero">
<path style="fill:none;stroke-width:1.19553;stroke-linecap:round;stroke-linejoin:miter;stroke:rgb(0%,0%,0%);stroke-opacity:1;stroke-miterlimit:10;" d="M -8.787535 78.188204 L -126.314878 19.424532 " transform="matrix(0.998172,0,0,-0.998172,126.826159,259.662461)"/>
</g>
<path style="fill-rule:nonzero;fill:rgb(0%,0%,0%);fill-opacity:1;stroke-width:0.99628;stroke-linecap:round;stroke-linejoin:miter;stroke:rgb(0%,0%,0%);stroke-opacity:1;stroke-miterlimit:10;" d="M 1.495661 0.0000190363 C 1.493908 0.276561 1.271622 0.497093 0.99683 0.498841 C 0.720288 0.497088 0.499757 0.274802 0.498009 0.0000101124 C 0.496261 -0.274782 0.722047 -0.497064 0.996839 -0.498811 C 1.273381 -0.497059 1.493913 -0.274773 1.495661 0.0000190363 Z M 1.495661 0.0000190363 " transform="matrix(0.892725,-0.446353,-0.446353,-0.892725,117.610107,181.839484)"/>
<path style="fill:none;stroke-width:1.19553;stroke-linecap:butt;stroke-linejoin:miter;stroke:rgb(0%,0%,0%);stroke-opacity:1;stroke-miterlimit:10;" d="M -0.00194384 82.582956 L -0.00194384 259.543163 " transform="matrix(0.998172,0,0,-0.998172,126.826159,259.662461)"/>
</g>
</svg>
