<?xml version="1.0" encoding="UTF-8"?>
<svg xmlns="http://www.w3.org/2000/svg" xmlns:xlink="http://www.w3.org/1999/xlink" width="255.118pt" height="255.118pt" viewBox="0 0 255.118 255.118" version="1.2">
<g id="surface1">
<path style="fill:none;stroke-width:0.3985;stroke-linecap:butt;stroke-linejoin:miter;stroke:rgb(0%,0%,0%);stroke-opacity:1;stroke-miterlimit:10;" d="M 0.00149985 -0.00165977 L 0.00149985 79.087232 M 0.00149985 90.991528 L 0.00149985 170.08042 L 85.04058 170.08042 M 85.04058 170.08042 L 170.07966 170.08042 L 170.07966 100.916347 M 170.07966 69.166333 L 170.07966 -0.00165977 L 85.04058 -0.00165977 M 85.04058 -0.00165977 L 0.00149985 -0.00165977 " transform="matrix(0.996555,0,0,-0.996555,42.373505,211.865533)"/>
<path style="fill:none;stroke-width:0.3985;stroke-linecap:butt;stroke-linejoin:miter;stroke:rgb(0%,0%,0%);stroke-opacity:1;stroke-miterlimit:10;" d="M 0.00149985 83.077543 L 0.00149985 79.087232 M 0.00149985 87.005137 L 0.00149985 90.991528 " transform="matrix(0.996555,0,0,-0.996555,42.373505,211.865533)"/>
<path style="fill:none;stroke-width:0.797;stroke-linecap:butt;stroke-linejoin:miter;stroke:rgb(0%,0%,0%);stroke-opacity:1;stroke-miterlimit:10;" d="M -11.906715 87.005137 L 11.905795 87.005137 " transform="matrix(0.996555,0,0,-0.996555,42.373505,211.865533)"/>
<path style="fill:none;stroke-width:2.39102;stroke-linecap:butt;stroke-linejoin:miter;stroke:rgb(0%,0%,0%);stroke-opacity:1;stroke-miterlimit:10;" d="M -5.952608 83.077543 L 5.951688 83.077543 " transform="matrix(0.996555,0,0,-0.996555,42.373505,211.865533)"/>
<path style="fill:none;stroke-width:0.797;stroke-linecap:butt;stroke-linejoin:miter;stroke:rgb(0%,0%,0%);stroke-opacity:1;stroke-miterlimit:10;" d="M 164.129472 69.166333 L 164.129472 100.916347 L 176.033767 100.916347 L 176.033767 69.166333 Z M 164.129472 69.166333 " transform="matrix(0.996555,0,0,-0.996555,42.373505,211.865533)"/>
<path style="fill-rule:nonzero;fill:rgb(0%,0%,0%);fill-opacity:1;stroke-width:0.3985;stroke-linecap:butt;stroke-linejoin:miter;stroke:rgb(0%,0%,0%);stroke-opacity:1;stroke-miterlimit:10;" d="M 83.304128 -0.00165977 L 83.304128 -1.985056 L 87.521785 -0.00165977 L 83.304128 1.985656 Z M 83.304128 -0.00165977 " transform="matrix(0.996555,0,0,-0.996555,42.373505,211.865533)"/>
</g>
</svg>
