<?xml version="1.0" encoding="UTF-8"?>
<svg xmlns="http://www.w3.org/2000/svg" xmlns:xlink="http://www.w3.org/1999/xlink" width="255.614pt" height="103.594pt" viewBox="0 0 255.614 103.594" version="1.2">
<defs>
<clipPath id="clip1">
  <path d="M 0.308594 102 L 254.921875 102 L 254.921875 103.191406 L 0.308594 103.191406 Z M 0.308594 102 "/>
</clipPath>
<clipPath id="clip2">
  <path d="M 63 6 L 213 6 L 213 103.191406 L 63 103.191406 Z M 63 6 "/>
</clipPath>
<clipPath id="clip3">
  <path d="M 16 86 L 33 86 L 33 103.191406 L 16 103.191406 Z M 16 86 "/>
</clipPath>
<clipPath id="clip4">
  <path d="M 21 86 L 39 86 L 39 103.191406 L 21 103.191406 Z M 21 86 "/>
</clipPath>
<clipPath id="clip5">
  <path d="M 44 37 L 88 37 L 88 80 L 44 80 Z M 44 37 "/>
</clipPath>
<clipPath id="clip6">
  <path d="M 44.675781 79.972656 L 59.351562 37.34375 L 87.304688 65.296875 Z M 44.675781 79.972656 "/>
</clipPath>
<clipPath id="clip7">
  <path d="M 227 86 L 245 86 L 245 103.191406 L 227 103.191406 Z M 227 86 "/>
</clipPath>
<clipPath id="clip8">
  <path d="M 233 86 L 250 86 L 250 103.191406 L 233 103.191406 Z M 233 86 "/>
</clipPath>
<clipPath id="clip9">
  <path d="M 190 49 L 234 49 L 234 93 L 190 93 Z M 190 49 "/>
</clipPath>
<clipPath id="clip10">
  <path d="M 190.535156 49.375 L 233.160156 64.050781 L 205.210938 92.003906 Z M 190.535156 49.375 "/>
</clipPath>
</defs>
<g id="surface1">
<g clip-path="url(#clip1)" clip-rule="nonzero">
<path style="fill:none;stroke-width:0.79701;stroke-linecap:butt;stroke-linejoin:miter;stroke:rgb(0%,0%,0%);stroke-opacity:1;stroke-miterlimit:10;" d="M -21.235014 0.000170608 L 233.583979 0.000170608 " transform="matrix(0.996096,0,0,-0.996096,21.85524,102.793139)"/>
</g>
<g clip-path="url(#clip2)" clip-rule="nonzero">
<path style="fill:none;stroke-width:0.79701;stroke-linecap:butt;stroke-linejoin:miter;stroke:rgb(0%,0%,0%);stroke-opacity:1;stroke-miterlimit:10;" d="M 53.086376 0.000170608 L 95.556861 74.32156 L 106.176444 53.086317 L 127.411686 84.941142 L 180.497833 0.000170608 " transform="matrix(0.996096,0,0,-0.996096,21.85524,102.793139)"/>
</g>
<path style="fill:none;stroke-width:0.797;stroke-linecap:butt;stroke-linejoin:miter;stroke:rgb(0%,0%,0%);stroke-opacity:1;stroke-miterlimit:10;" d="M 127.411686 84.941142 L 127.411686 102.799923 M 127.411686 93.870532 L 121.45876 102.799923 M 127.411686 93.870532 L 133.364613 102.799923 M 127.411686 93.870532 L 127.411686 102.799923 " transform="matrix(0.996096,0,0,-0.996096,21.85524,102.793139)"/>
<g clip-path="url(#clip3)" clip-rule="nonzero">
<path style="fill:none;stroke-width:0.3985;stroke-linecap:butt;stroke-linejoin:miter;stroke:rgb(0%,0%,0%);stroke-opacity:1;stroke-miterlimit:10;" d="M 0.000229241 0.000170608 L 2.655125 5.309962 M 2.655125 5.309962 L 5.31002 10.615831 " transform="matrix(0.996096,0,0,-0.996096,21.85524,102.793139)"/>
</g>
<g clip-path="url(#clip4)" clip-rule="nonzero">
<path style="fill:none;stroke-width:0.3985;stroke-linecap:butt;stroke-linejoin:miter;stroke:rgb(0%,0%,0%);stroke-opacity:1;stroke-miterlimit:10;" d="M 10.61589 0.000170608 L 5.31002 10.615831 " transform="matrix(0.996096,0,0,-0.996096,21.85524,102.793139)"/>
</g>
<path style="fill:none;stroke-width:0.3985;stroke-linecap:butt;stroke-linejoin:miter;stroke:rgb(0%,0%,0%);stroke-opacity:1;stroke-miterlimit:10;" d="M 5.31002 10.615831 L 5.31002 15.925622 M 5.31002 15.925622 L 5.31002 21.235413 " transform="matrix(0.996096,0,0,-0.996096,21.85524,102.793139)"/>
<path style="fill:none;stroke-width:0.3985;stroke-linecap:butt;stroke-linejoin:miter;stroke:rgb(0%,0%,0%);stroke-opacity:1;stroke-miterlimit:10;" d="M 5.31002 21.235413 L 7.964916 15.925622 M 7.964916 15.925622 L 10.61589 10.615831 " transform="matrix(0.996096,0,0,-0.996096,21.85524,102.793139)"/>
<path style="fill:none;stroke-width:0.3985;stroke-linecap:butt;stroke-linejoin:miter;stroke:rgb(0%,0%,0%);stroke-opacity:1;stroke-miterlimit:10;" d="M 5.31002 21.235413 L 0.000229241 10.615831 " transform="matrix(0.996096,0,0,-0.996096,21.85524,102.793139)"/>
<path style="fill:none;stroke-width:0.3985;stroke-linecap:butt;stroke-linejoin:miter;stroke:rgb(0%,0%,0%);stroke-opacity:1;stroke-miterlimit:10;" d="M 10.61589 26.545205 C 10.61589 29.474609 8.239425 31.851074 5.31002 31.851074 C 2.376694 31.851074 0.000229241 29.474609 0.000229241 26.545205 C 0.000229241 23.611878 2.376694 21.235413 5.31002 21.235413 C 8.239425 21.235413 10.61589 23.611878 10.61589 26.545205 Z M 10.61589 26.545205 " transform="matrix(0.996096,0,0,-0.996096,21.85524,102.793139)"/>
<path style="fill:none;stroke-width:0.3985;stroke-linecap:butt;stroke-linejoin:miter;stroke:rgb(0%,0%,0%);stroke-opacity:1;stroke-miterlimit:10;" d="M 17.353129 14.717782 L 14.717841 17.35307 L 9.439422 12.078573 L 12.078631 9.439364 Z M 17.353129 14.717782 " transform="matrix(0.996096,0,0,-0.996096,21.85524,102.793139)"/>
<path style="fill:none;stroke-width:0.797;stroke-linecap:butt;stroke-linejoin:miter;stroke:rgb(0%,0%,0%);stroke-opacity:1;stroke-miterlimit:10;" d="M 16.176661 16.176602 L 22.909978 22.909919 M 19.54528 19.545221 L 20.666846 25.156973 M 19.54528 19.545221 L 25.157031 20.666787 M 19.54528 19.545221 L 22.909978 22.909919 " transform="matrix(0.996096,0,0,-0.996096,21.85524,102.793139)"/>
<g clip-path="url(#clip5)" clip-rule="nonzero">
<g clip-path="url(#clip6)" clip-rule="nonzero">
<path style="fill:none;stroke-width:0.3985;stroke-linecap:butt;stroke-linejoin:miter;stroke:rgb(88.233948%,31.373596%,13.723755%);stroke-opacity:1;stroke-miterlimit:10;" d="M 50.972655 50.972597 C 35.474653 66.470598 10.349224 66.470598 -5.148778 50.972597 C -20.64678 35.474595 -20.64678 10.349165 -5.148778 -5.148837 C 10.349224 -20.646838 35.474653 -20.646838 50.972655 -5.148837 C 66.470657 10.349165 66.470657 35.474595 50.972655 50.972597 Z M 47.466781 47.466723 C 33.90603 61.027474 11.917848 61.027474 -1.642904 47.466723 C -15.203656 33.905971 -15.203656 11.917789 -1.642904 -1.642963 C 11.917848 -15.203714 33.90603 -15.203714 47.466781 -1.642963 C 61.027533 11.917789 61.027533 33.905971 47.466781 47.466723 Z M 43.956986 43.956927 C 32.333485 55.580429 13.490393 55.580429 1.866891 43.956927 C -9.760532 32.333426 -9.760532 13.490334 1.866891 1.866833 C 13.490393 -9.76059 32.333485 -9.76059 43.956986 1.866833 C 55.580487 13.490334 55.580487 32.333426 43.956986 43.956927 Z M 40.451112 40.451053 C 30.764861 50.137305 15.059016 50.137305 5.372765 40.451053 C -4.313486 30.764802 -4.313486 15.058958 5.372765 5.372707 C 15.059016 -4.313544 30.764861 -4.313544 40.451112 5.372707 C 50.137363 15.058958 50.137363 30.764802 40.451112 40.451053 Z M 36.941317 36.941258 C 29.192316 44.690259 16.62764 44.690259 8.878639 36.941258 C 1.129638 29.192257 1.129638 16.631503 8.878639 8.878581 C 16.62764 1.12958 29.192316 1.12958 36.941317 8.878581 C 44.690317 16.631503 44.690317 29.192257 36.941317 36.941258 Z M 33.435443 33.435384 C 27.623692 39.247135 18.200185 39.247135 12.388435 33.435384 C 6.576684 27.623633 6.576684 18.200127 12.388435 12.388376 C 18.200185 6.576625 27.623692 6.576625 33.435443 12.388376 C 39.247193 18.200127 39.247193 27.623633 33.435443 33.435384 Z M 29.925647 29.925589 C 26.051147 33.800089 19.768809 33.800089 15.894309 29.925589 C 12.019808 26.051088 12.019808 19.76875 15.894309 15.89425 C 19.768809 12.019749 26.051147 12.019749 29.925647 15.89425 C 33.800148 19.76875 33.800148 26.051088 29.925647 29.925589 Z M 29.925647 29.925589 " transform="matrix(0.996096,0,0,-0.996096,21.85524,102.793139)"/>
</g>
</g>
<g clip-path="url(#clip7)" clip-rule="nonzero">
<path style="fill:none;stroke-width:0.3985;stroke-linecap:butt;stroke-linejoin:miter;stroke:rgb(0%,0%,0%);stroke-opacity:1;stroke-miterlimit:10;" d="M 212.348736 0.000170608 L 215.003632 5.309962 M 215.003632 5.309962 L 217.658528 10.615831 " transform="matrix(0.996096,0,0,-0.996096,21.85524,102.793139)"/>
</g>
<g clip-path="url(#clip8)" clip-rule="nonzero">
<path style="fill:none;stroke-width:0.3985;stroke-linecap:butt;stroke-linejoin:miter;stroke:rgb(0%,0%,0%);stroke-opacity:1;stroke-miterlimit:10;" d="M 222.968319 0.000170608 L 217.658528 10.615831 " transform="matrix(0.996096,0,0,-0.996096,21.85524,102.793139)"/>
</g>
<path style="fill:none;stroke-width:0.3985;stroke-linecap:butt;stroke-linejoin:miter;stroke:rgb(0%,0%,0%);stroke-opacity:1;stroke-miterlimit:10;" d="M 217.658528 10.615831 L 217.658528 15.925622 M 217.658528 15.925622 L 217.658528 21.235413 " transform="matrix(0.996096,0,0,-0.996096,21.85524,102.793139)"/>
<path style="fill:none;stroke-width:0.3985;stroke-linecap:butt;stroke-linejoin:miter;stroke:rgb(0%,0%,0%);stroke-opacity:1;stroke-miterlimit:10;" d="M 217.658528 21.235413 L 220.313423 15.925622 M 220.313423 15.925622 L 222.968319 10.615831 " transform="matrix(0.996096,0,0,-0.996096,21.85524,102.793139)"/>
<path style="fill:none;stroke-width:0.3985;stroke-linecap:butt;stroke-linejoin:miter;stroke:rgb(0%,0%,0%);stroke-opacity:1;stroke-miterlimit:10;" d="M 217.658528 21.235413 L 212.348736 10.615831 " transform="matrix(0.996096,0,0,-0.996096,21.85524,102.793139)"/>
<path style="fill:none;stroke-width:0.3985;stroke-linecap:butt;stroke-linejoin:miter;stroke:rgb(0%,0%,0%);stroke-opacity:1;stroke-miterlimit:10;" d="M 222.968319 26.545205 C 222.968319 29.474609 220.591854 31.851074 217.658528 31.851074 C 214.725201 31.851074 212.348736 29.474609 212.348736 26.545205 C 212.348736 23.611878 214.725201 21.235413 217.658528 21.235413 C 220.591854 21.235413 222.968319 23.611878 222.968319 26.545205 Z M 222.968319 26.545205 " transform="matrix(0.996096,0,0,-0.996096,21.85524,102.793139)"/>
<path style="fill:none;stroke-width:0.3985;stroke-linecap:butt;stroke-linejoin:miter;stroke:rgb(0%,0%,0%);stroke-opacity:1;stroke-miterlimit:10;" d="M 208.250707 17.35307 L 205.611498 14.717782 L 210.889916 9.439364 L 213.529126 12.078573 Z M 208.250707 17.35307 " transform="matrix(0.996096,0,0,-0.996096,21.85524,102.793139)"/>
<path style="fill:none;stroke-width:0.797;stroke-linecap:butt;stroke-linejoin:miter;stroke:rgb(0%,0%,0%);stroke-opacity:1;stroke-miterlimit:10;" d="M 206.791887 16.176602 L 200.054648 22.909919 M 203.423268 19.545221 L 197.811517 20.666787 M 203.423268 19.545221 L 202.301702 25.156973 M 203.423268 19.545221 L 200.054648 22.909919 " transform="matrix(0.996096,0,0,-0.996096,21.85524,102.793139)"/>
<g clip-path="url(#clip9)" clip-rule="nonzero">
<g clip-path="url(#clip10)" clip-rule="nonzero">
<path style="fill:none;stroke-width:0.3985;stroke-linecap:butt;stroke-linejoin:miter;stroke:rgb(88.233948%,31.373596%,13.723755%);stroke-opacity:1;stroke-miterlimit:10;" d="M 197.403674 25.564815 C 212.901676 41.062817 212.901676 66.192168 197.403674 81.69017 C 181.901751 97.188171 156.776321 97.188171 141.27832 81.69017 C 125.780318 66.192168 125.780318 41.062817 141.27832 25.564815 C 156.776321 10.066813 181.901751 10.066813 197.403674 25.564815 Z M 193.893879 29.07461 C 207.454631 42.635362 207.454631 64.619623 193.893879 78.180374 C 180.333127 91.741126 158.348867 91.741126 144.784194 78.180374 C 131.223442 64.619623 131.223442 42.635362 144.784194 29.07461 C 158.348867 15.513859 180.333127 15.513859 193.893879 29.07461 Z M 190.388005 32.580484 C 202.011506 44.203986 202.011506 63.050999 190.388005 74.6745 C 178.764504 86.298002 159.91749 86.298002 148.293989 74.6745 C 136.670488 63.050999 136.670488 44.203986 148.293989 32.580484 C 159.91749 20.956983 178.764504 20.956983 190.388005 32.580484 Z M 186.87821 36.09028 C 196.564461 45.776531 196.564461 61.478454 186.87821 71.164705 C 177.191958 80.850956 161.486114 80.850956 151.799863 71.164705 C 142.113612 61.478454 142.113612 45.776531 151.799863 36.09028 C 161.486114 26.404028 177.191958 26.404028 186.87821 36.09028 Z M 183.372336 39.596153 C 191.121337 47.345154 191.121337 59.90983 183.372336 67.658831 C 175.623335 75.407832 163.058659 75.407832 155.309658 67.658831 C 147.560657 59.90983 147.560657 47.345154 155.309658 39.596153 C 163.058659 31.847153 175.623335 31.847153 183.372336 39.596153 Z M 179.86254 43.105949 C 185.674291 48.9177 185.674291 58.337285 179.86254 64.149035 C 174.05079 69.960786 164.627283 69.960786 158.815532 64.149035 C 153.003782 58.337285 153.003782 48.9177 158.815532 43.105949 C 164.627283 37.294198 174.05079 37.294198 179.86254 43.105949 Z M 176.356666 46.611823 C 180.231167 50.486323 180.231167 56.768661 176.356666 60.643162 C 172.482166 64.517662 166.199828 64.517662 162.325328 60.643162 C 158.450827 56.768661 158.450827 50.486323 162.325328 46.611823 C 166.199828 42.737322 172.482166 42.737322 176.356666 46.611823 Z M 176.356666 46.611823 " transform="matrix(0.996096,0,0,-0.996096,21.85524,102.793139)"/>
</g>
</g>
</g>
</svg>
