<?xml version="1.0" encoding="UTF-8"?>
<svg xmlns="http://www.w3.org/2000/svg" xmlns:xlink="http://www.w3.org/1999/xlink" width="254.92pt" height="24.608pt" viewBox="0 0 254.92 24.608" version="1.2">
<defs>
<clipPath id="clip1">
  <path d="M 104 0 L 151 0 L 151 24.222656 L 104 24.222656 Z M 104 0 "/>
</clipPath>
</defs>
<g id="surface1">
<path style="fill:none;stroke-width:0.3985;stroke-linecap:butt;stroke-linejoin:miter;stroke:rgb(0%,0%,0%);stroke-opacity:1;stroke-miterlimit:10;" d="M 84.843231 0.00172533 L 115.356841 0.00172533 M 139.167695 0.00172533 L 169.681304 0.00172533 " transform="matrix(0.98432,0,0,-0.98432,2.15508,12.111073)"/>
<g clip-path="url(#clip1)" clip-rule="nonzero">
<path style="fill:none;stroke-width:0.797;stroke-linecap:butt;stroke-linejoin:miter;stroke:rgb(0%,0%,0%);stroke-opacity:1;stroke-miterlimit:10;" d="M 127.262268 11.907152 C 120.686503 11.907152 115.356841 6.573521 115.356841 0.00172533 C 115.356841 -6.574039 120.686503 -11.90767 127.262268 -11.90767 C 133.838032 -11.90767 139.167695 -6.574039 139.167695 0.00172533 C 139.167695 6.573521 133.838032 11.907152 127.262268 11.907152 Z M 127.262268 11.907152 " transform="matrix(0.98432,0,0,-0.98432,2.15508,12.111073)"/>
</g>
<path style="fill:none;stroke-width:0.797;stroke-linecap:butt;stroke-linejoin:miter;stroke:rgb(0%,0%,0%);stroke-opacity:1;stroke-miterlimit:10;" d="M 115.356841 0.00172533 L 139.167695 0.00172533 " transform="matrix(0.98432,0,0,-0.98432,2.15508,12.111073)"/>
</g>
</svg>
