<?xml version="1.0" encoding="UTF-8"?>
<svg xmlns="http://www.w3.org/2000/svg" xmlns:xlink="http://www.w3.org/1999/xlink" width="253.736pt" height="20.639pt" viewBox="0 0 253.736 20.639" version="1.2">
<defs>
<clipPath id="clip1">
  <path d="M 2.050781 9 L 251.425781 9 L 251.425781 11 L 2.050781 11 Z M 2.050781 9 "/>
</clipPath>
<clipPath id="clip2">
  <path d="M 107 0 L 146 0 L 146 20.285156 L 107 20.285156 Z M 107 0 "/>
</clipPath>
<clipPath id="clip3">
  <path d="M 131 0 L 135 0 L 135 20.285156 L 131 20.285156 Z M 131 0 "/>
</clipPath>
</defs>
<g id="surface1">
<g clip-path="url(#clip1)" clip-rule="nonzero">
<path style="fill:none;stroke-width:0.3985;stroke-linecap:butt;stroke-linejoin:miter;stroke:rgb(0%,0%,0%);stroke-opacity:1;stroke-miterlimit:10;" d="M -0.000687642 0.00100373 L 118.731786 0.00100373 M 134.606238 0.00100373 L 253.342687 0.00100373 " transform="matrix(0.98281,0,0,-0.98281,2.24677,10.141611)"/>
</g>
<g clip-path="url(#clip2)" clip-rule="nonzero">
<path style="fill:none;stroke-width:0.797;stroke-linecap:butt;stroke-linejoin:miter;stroke:rgb(0%,0%,0%);stroke-opacity:1;stroke-miterlimit:10;" d="M 134.606238 0.00100373 L 118.731786 9.921543 L 118.731786 -9.919535 Z M 134.606238 0.00100373 " transform="matrix(0.98281,0,0,-0.98281,2.24677,10.141611)"/>
</g>
<path style="fill:none;stroke-width:0.3985;stroke-linecap:butt;stroke-linejoin:miter;stroke:rgb(0%,0%,0%);stroke-opacity:1;stroke-miterlimit:10;" d="M 134.606238 0.00100373 L 118.731786 0.00100373 " transform="matrix(0.98281,0,0,-0.98281,2.24677,10.141611)"/>
<g clip-path="url(#clip3)" clip-rule="nonzero">
<path style="fill:none;stroke-width:0.797;stroke-linecap:butt;stroke-linejoin:miter;stroke:rgb(0%,0%,0%);stroke-opacity:1;stroke-miterlimit:10;" d="M 134.606238 -9.919535 L 134.606238 9.921543 L 131.434528 9.921543 " transform="matrix(0.98281,0,0,-0.98281,2.24677,10.141611)"/>
</g>
</g>
</svg>
