<?xml version="1.0" encoding="UTF-8"?>
<svg xmlns="http://www.w3.org/2000/svg" xmlns:xlink="http://www.w3.org/1999/xlink" width="254.617pt" height="148.616pt" viewBox="0 0 254.617 148.616" version="1.2">
<defs>
<clipPath id="clip1">
  <path d="M 0.136719 11 L 254.097656 11 L 254.097656 13 L 0.136719 13 Z M 0.136719 11 "/>
</clipPath>
<clipPath id="clip2">
  <path d="M 0.136719 25 L 254.097656 25 L 254.097656 27 L 0.136719 27 Z M 0.136719 25 "/>
</clipPath>
<clipPath id="clip3">
  <path d="M 0.136719 39 L 254.097656 39 L 254.097656 41 L 0.136719 41 Z M 0.136719 39 "/>
</clipPath>
<clipPath id="clip4">
  <path d="M 0.136719 80 L 254.097656 80 L 254.097656 82 L 0.136719 82 Z M 0.136719 80 "/>
</clipPath>
<clipPath id="clip5">
  <path d="M 0.136719 66 L 254.097656 66 L 254.097656 68 L 0.136719 68 Z M 0.136719 66 "/>
</clipPath>
<clipPath id="clip6">
  <path d="M 0.136719 53 L 254.097656 53 L 254.097656 54 L 0.136719 54 Z M 0.136719 53 "/>
</clipPath>
<clipPath id="clip7">
  <path d="M 201 0 L 254.097656 0 L 254.097656 58 L 201 58 Z M 201 0 "/>
</clipPath>
<clipPath id="clip8">
  <path d="M 228 127 L 254.097656 127 L 254.097656 148.234375 L 228 148.234375 Z M 228 127 "/>
</clipPath>
<clipPath id="clip9">
  <path d="M 0.136719 127 L 31 127 L 31 148.234375 L 0.136719 148.234375 Z M 0.136719 127 "/>
</clipPath>
</defs>
<g id="surface1">
<g clip-path="url(#clip1)" clip-rule="nonzero">
<path style="fill:none;stroke-width:0.79701;stroke-linecap:butt;stroke-linejoin:miter;stroke:rgb(0%,60.78186%,43.136597%);stroke-opacity:1;stroke-miterlimit:10;" d="M -46.148906 34.610998 L 207.673209 34.610998 " transform="matrix(0.997423,0,0,-0.997423,46.565128,46.568674)"/>
</g>
<g clip-path="url(#clip2)" clip-rule="nonzero">
<path style="fill:none;stroke-width:0.79701;stroke-linecap:butt;stroke-linejoin:miter;stroke:rgb(0%,60.78186%,43.136597%);stroke-opacity:1;stroke-miterlimit:10;" d="M -46.148906 20.766725 L 207.673209 20.766725 " transform="matrix(0.997423,0,0,-0.997423,46.565128,46.568674)"/>
</g>
<g clip-path="url(#clip3)" clip-rule="nonzero">
<path style="fill:none;stroke-width:0.79701;stroke-linecap:butt;stroke-linejoin:miter;stroke:rgb(0%,60.78186%,43.136597%);stroke-opacity:1;stroke-miterlimit:10;" d="M -46.148906 6.922452 L 207.673209 6.922452 " transform="matrix(0.997423,0,0,-0.997423,46.565128,46.568674)"/>
</g>
<g clip-path="url(#clip4)" clip-rule="nonzero">
<path style="fill:none;stroke-width:0.79701;stroke-linecap:butt;stroke-linejoin:miter;stroke:rgb(0%,60.78186%,43.136597%);stroke-opacity:1;stroke-miterlimit:10;" d="M -46.148906 -34.610367 L 207.673209 -34.610367 " transform="matrix(0.997423,0,0,-0.997423,46.565128,46.568674)"/>
</g>
<g clip-path="url(#clip5)" clip-rule="nonzero">
<path style="fill:none;stroke-width:0.79701;stroke-linecap:butt;stroke-linejoin:miter;stroke:rgb(0%,60.78186%,43.136597%);stroke-opacity:1;stroke-miterlimit:10;" d="M -46.148906 -20.766094 L 207.673209 -20.766094 " transform="matrix(0.997423,0,0,-0.997423,46.565128,46.568674)"/>
</g>
<g clip-path="url(#clip6)" clip-rule="nonzero">
<path style="fill:none;stroke-width:0.79701;stroke-linecap:butt;stroke-linejoin:miter;stroke:rgb(0%,60.78186%,43.136597%);stroke-opacity:1;stroke-miterlimit:10;" d="M -46.148906 -6.921821 L 207.673209 -6.921821 " transform="matrix(0.997423,0,0,-0.997423,46.565128,46.568674)"/>
</g>
<path style="fill:none;stroke-width:0.79701;stroke-linecap:butt;stroke-linejoin:miter;stroke:rgb(0%,0%,0%);stroke-opacity:1;stroke-dasharray:2.98883,5.97766;stroke-miterlimit:10;" d="M 17.687487 37.336773 C 17.687487 37.336773 19.66524 35.030047 20.385848 34.06271 C 21.106455 33.095373 22.21478 31.442676 22.868809 30.365682 C 23.526755 29.284771 24.525422 27.463672 25.112874 26.284852 C 25.700325 25.106033 26.585419 23.136112 27.094543 21.871134 C 27.607584 20.610071 28.363438 18.514828 28.794236 17.187187 C 29.225034 15.855631 29.851649 13.666395 30.200203 12.283926 C 30.548758 10.901457 31.038301 8.645643 31.296779 7.227927 C 31.559174 5.814127 31.907729 3.511317 32.080048 2.081852 C 32.252367 0.64847 32.456017 -1.662172 32.542177 -3.091637 C 32.62442 -4.521103 32.690998 -6.81608 32.687081 -8.225963 C 32.683165 -9.635847 32.604838 -11.883828 32.518679 -13.258464 C 32.428603 -14.629184 32.21712 -16.802755 32.044801 -18.122562 C 31.872482 -19.44237 31.527844 -21.510199 31.273281 -22.759513 C 31.022635 -24.00491 30.227618 -27.11057 30.227618 -27.11057 " transform="matrix(0.997423,0,0,-0.997423,46.565128,46.568674)"/>
<path style="fill:none;stroke-width:0.79701;stroke-linecap:butt;stroke-linejoin:miter;stroke:rgb(0%,0%,0%);stroke-opacity:1;stroke-dasharray:2.98883,5.97766;stroke-miterlimit:10;" d="M 45.376033 37.336773 C 45.376033 37.336773 47.357703 35.030047 48.074393 34.06271 C 48.795001 33.095373 49.903326 31.442676 50.561271 30.365682 C 51.215301 29.284771 52.217884 27.463672 52.805336 26.284852 C 53.388871 25.106033 54.273965 23.136112 54.787006 21.871134 C 55.29613 20.610071 56.055901 18.514828 56.486698 17.187187 C 56.917496 15.855631 57.544111 13.666395 57.888749 12.283926 C 58.237304 10.901457 58.726847 8.645643 58.989242 7.227927 C 59.24772 5.814127 59.596275 3.511317 59.768594 2.081852 C 59.940913 0.64847 60.148479 -1.662172 60.230723 -3.091637 C 60.316882 -4.521103 60.379544 -6.81608 60.375627 -8.225963 C 60.371711 -9.635847 60.2973 -11.883828 60.207224 -13.258464 C 60.117149 -14.629184 59.905666 -16.802755 59.733347 -18.122562 C 59.561028 -19.44237 59.21639 -21.510199 58.965744 -22.759513 C 58.715098 -24.00491 57.92008 -27.11057 57.92008 -27.11057 " transform="matrix(0.997423,0,0,-0.997423,46.565128,46.568674)"/>
<path style="fill:none;stroke-width:0.79701;stroke-linecap:butt;stroke-linejoin:miter;stroke:rgb(0%,0%,0%);stroke-opacity:1;stroke-dasharray:2.98883,5.97766;stroke-miterlimit:10;" d="M 73.068495 37.336773 C 73.068495 37.336773 75.046249 35.030047 75.766856 34.06271 C 76.487463 33.095373 77.595788 31.442676 78.249817 30.365682 C 78.907763 29.284771 79.90643 27.463672 80.493882 26.284852 C 81.081333 25.106033 81.962511 23.136112 82.475551 21.871134 C 82.984676 20.610071 83.744447 18.514828 84.175244 17.187187 C 84.606042 15.855631 85.232657 13.666395 85.581212 12.283926 C 85.92585 10.901457 86.415393 8.645643 86.677788 7.227927 C 86.940183 5.814127 87.284821 3.511317 87.45714 2.081852 C 87.629459 0.64847 87.837025 -1.662172 87.923185 -3.091637 C 88.005428 -4.521103 88.072006 -6.81608 88.068089 -8.225963 C 88.064173 -9.635847 87.985846 -11.883828 87.89577 -13.258464 C 87.809611 -14.629184 87.594212 -16.802755 87.421893 -18.122562 C 87.249574 -19.44237 86.908852 -21.510199 86.65429 -22.759513 C 86.403644 -24.00491 85.608626 -27.11057 85.608626 -27.11057 " transform="matrix(0.997423,0,0,-0.997423,46.565128,46.568674)"/>
<path style="fill:none;stroke-width:0.79701;stroke-linecap:butt;stroke-linejoin:miter;stroke:rgb(0%,0%,0%);stroke-opacity:1;stroke-dasharray:2.98883,5.97766;stroke-miterlimit:10;" d="M 100.757041 37.336773 C 100.757041 37.336773 102.738711 35.030047 103.455402 34.06271 C 104.176009 33.095373 105.284334 31.442676 105.942279 30.365682 C 106.596309 29.284771 107.598893 27.463672 108.182428 26.284852 C 108.769879 25.106033 109.654973 23.136112 110.164097 21.871134 C 110.677138 20.610071 111.436909 18.514828 111.867707 17.187187 C 112.298504 15.855631 112.921203 13.666395 113.269757 12.283926 C 113.618312 10.901457 114.107855 8.645643 114.366334 7.227927 C 114.628729 5.814127 114.977283 3.511317 115.149602 2.081852 C 115.321921 0.64847 115.529487 -1.662172 115.611731 -3.091637 C 115.69789 -4.521103 115.760552 -6.81608 115.756635 -8.225963 C 115.752719 -9.635847 115.678308 -11.883828 115.588233 -13.258464 C 115.498157 -14.629184 115.286674 -16.802755 115.114355 -18.122562 C 114.942036 -19.44237 114.597398 -21.510199 114.346752 -22.759513 C 114.09219 -24.00491 113.301088 -27.11057 113.301088 -27.11057 " transform="matrix(0.997423,0,0,-0.997423,46.565128,46.568674)"/>
<path style="fill:none;stroke-width:0.79701;stroke-linecap:butt;stroke-linejoin:miter;stroke:rgb(0%,0%,0%);stroke-opacity:1;stroke-dasharray:2.98883,5.97766;stroke-miterlimit:10;" d="M 128.445587 37.336773 C 128.445587 37.336773 130.427257 35.030047 131.147864 34.06271 C 131.864555 33.095373 132.976796 31.442676 133.630825 30.365682 C 134.284855 29.284771 135.287439 27.463672 135.87489 26.284852 C 136.458425 25.106033 137.343519 23.136112 137.85656 21.871134 C 138.365684 20.610071 139.125455 18.514828 139.556253 17.187187 C 139.98705 15.855631 140.613665 13.666395 140.958303 12.283926 C 141.306858 10.901457 141.796401 8.645643 142.058796 7.227927 C 142.317274 5.814127 142.665829 3.511317 142.838148 2.081852 C 143.010467 0.64847 143.218033 -1.662172 143.300277 -3.091637 C 143.386436 -4.521103 143.449098 -6.81608 143.449098 -8.225963 C 143.445181 -9.635847 143.366854 -11.883828 143.276778 -13.258464 C 143.186703 -14.629184 142.97522 -16.802755 142.802901 -18.122562 C 142.630582 -19.44237 142.285944 -21.510199 142.035298 -22.759513 C 141.784652 -24.00491 140.989634 -27.11057 140.989634 -27.11057 " transform="matrix(0.997423,0,0,-0.997423,46.565128,46.568674)"/>
<path style="fill:none;stroke-width:0.79701;stroke-linecap:butt;stroke-linejoin:miter;stroke:rgb(0%,0%,0%);stroke-opacity:1;stroke-dasharray:2.98883,5.97766;stroke-miterlimit:10;" d="M 156.138049 37.336773 C 156.138049 37.336773 158.115803 35.030047 158.83641 34.06271 C 159.557017 33.095373 160.665342 31.442676 161.319371 30.365682 C 161.977317 29.284771 162.975984 27.463672 163.563436 26.284852 C 164.150887 25.106033 165.035981 23.136112 165.545106 21.871134 C 166.058146 20.610071 166.814001 18.514828 167.244798 17.187187 C 167.675596 15.855631 168.302211 13.666395 168.650766 12.283926 C 168.995404 10.901457 169.488863 8.645643 169.747342 7.227927 C 170.009737 5.814127 170.354375 3.511317 170.53061 2.081852 C 170.702929 0.64847 170.906579 -1.662172 170.992739 -3.091637 C 171.074982 -4.521103 171.14156 -6.81608 171.137643 -8.225963 C 171.133727 -9.635847 171.0554 -11.883828 170.969241 -13.258464 C 170.879165 -14.629184 170.667682 -16.802755 170.495363 -18.122562 C 170.323044 -19.44237 169.978406 -21.510199 169.723844 -22.759513 C 169.473198 -24.00491 168.67818 -27.11057 168.67818 -27.11057 " transform="matrix(0.997423,0,0,-0.997423,46.565128,46.568674)"/>
<path style="fill:none;stroke-width:0.79701;stroke-linecap:butt;stroke-linejoin:miter;stroke:rgb(0%,0%,0%);stroke-opacity:1;stroke-miterlimit:10;" d="M 30.227618 -27.126235 C 30.227618 -27.126235 27.12979 -35.522875 25.629831 -37.931426 C 24.129872 -40.339977 21.243527 -43.355561 19.410678 -44.483468 C 17.581746 -45.607458 14.346846 -46.328066 12.435671 -46.042173 C 10.528412 -45.760196 7.379672 -44.099666 5.652565 -42.435221 C 3.925457 -40.774691 1.293675 -36.921009 -0.0104674 -34.065995 C -1.318526 -31.214897 -3.065215 -25.598861 -3.758408 -21.878335 C -4.447684 -18.153893 -5.042968 -11.406034 -4.995972 -7.231212 C -4.94506 -3.052474 -4.244034 4.063521 -3.417686 8.226594 C -2.591338 12.385751 -0.597919 19.082697 0.960786 22.760144 C 2.51949 26.43759 5.652565 31.959634 7.818302 34.740237 C 9.980124 37.524757 13.97871 41.249199 16.547831 42.823569 C 19.116952 44.401856 23.605082 45.909648 26.342605 46.101549 C 29.076213 46.289533 33.623087 45.416188 36.258786 44.202122 C 38.898402 42.988056 45.364284 37.348522 45.364284 37.348522 " transform="matrix(0.997423,0,0,-0.997423,46.565128,46.568674)"/>
<path style="fill:none;stroke-width:0.79701;stroke-linecap:butt;stroke-linejoin:miter;stroke:rgb(0%,0%,0%);stroke-opacity:1;stroke-miterlimit:10;" d="M 57.916164 -27.126235 C 57.916164 -27.126235 54.818336 -35.522875 53.318377 -37.931426 C 51.818417 -40.339977 48.932073 -43.355561 47.10314 -44.483468 C 45.270292 -45.607458 42.035392 -46.328066 40.128133 -46.042173 C 38.216958 -45.760196 35.068218 -44.099666 33.341111 -42.435221 C 31.614003 -40.774691 28.982221 -36.921009 27.678078 -34.065995 C 26.373936 -31.214897 24.623331 -25.598861 23.934054 -21.878335 C 23.240862 -18.153893 22.649494 -11.406034 22.69649 -7.231212 C 22.743486 -3.052474 23.444512 4.063521 24.27086 8.226594 C 25.097208 12.385751 27.090627 19.082697 28.649332 22.760144 C 30.211952 26.43759 33.345027 31.959634 35.506848 34.740237 C 37.66867 37.524757 41.667256 41.249199 44.240294 42.823569 C 46.809415 44.401856 51.297544 45.909648 54.031151 46.101549 C 56.764759 46.289533 61.311633 45.416188 63.951248 44.202122 C 66.590864 42.988056 73.056746 37.348522 73.056746 37.348522 " transform="matrix(0.997423,0,0,-0.997423,46.565128,46.568674)"/>
<path style="fill:none;stroke-width:0.79701;stroke-linecap:butt;stroke-linejoin:miter;stroke:rgb(0%,0%,0%);stroke-opacity:1;stroke-miterlimit:10;" d="M 85.60471 -27.126235 C 85.60471 -27.126235 82.510799 -35.522875 81.010839 -37.931426 C 79.506963 -40.339977 76.620618 -43.355561 74.791686 -44.483468 C 72.962754 -45.607458 69.727855 -46.328066 67.816679 -46.042173 C 65.90942 -45.760196 62.76068 -44.099666 61.033573 -42.435221 C 59.306466 -40.774691 56.674683 -36.921009 55.366624 -34.065995 C 54.062482 -31.214897 52.315793 -25.598861 51.6226 -21.878335 C 50.933324 -18.153893 50.33804 -11.406034 50.385036 -7.231212 C 50.432032 -3.052474 51.136974 4.063521 51.963322 8.226594 C 52.789671 12.385751 54.783089 19.082697 56.341794 22.760144 C 57.900498 26.43759 61.033573 31.959634 63.195394 34.740237 C 65.361132 37.524757 69.359718 41.249199 71.928839 42.823569 C 74.497961 44.401856 78.98609 45.909648 81.723614 46.101549 C 84.457221 46.289533 89.000179 45.416188 91.639794 44.202122 C 94.27941 42.988056 100.745292 37.348522 100.745292 37.348522 " transform="matrix(0.997423,0,0,-0.997423,46.565128,46.568674)"/>
<path style="fill:none;stroke-width:0.79701;stroke-linecap:butt;stroke-linejoin:miter;stroke:rgb(0%,0%,0%);stroke-opacity:1;stroke-miterlimit:10;" d="M 113.297172 -27.126235 C 113.297172 -27.126235 110.199344 -35.522875 108.699385 -37.931426 C 107.199426 -40.339977 104.313081 -43.355561 102.480232 -44.483468 C 100.6513 -45.607458 97.4164 -46.328066 95.509141 -46.042173 C 93.597966 -45.760196 90.449226 -44.099666 88.722119 -42.435221 C 86.995011 -40.774691 84.363229 -36.921009 83.059087 -34.065995 C 81.751028 -31.214897 80.004339 -25.598861 79.315063 -21.878335 C 78.62187 -18.153893 78.030502 -11.406034 78.077498 -7.231212 C 78.124494 -3.052474 78.82552 4.063521 79.651868 8.226594 C 80.478216 12.385751 82.471635 19.082697 84.03034 22.760144 C 85.589044 26.43759 88.726035 31.959634 90.887857 34.740237 C 93.049678 37.524757 97.048264 41.249199 99.617385 42.823569 C 102.190423 44.401856 106.678552 45.909648 109.412159 46.101549 C 112.145767 46.289533 116.692641 45.416188 119.332257 44.202122 C 121.971872 42.988056 128.433838 37.348522 128.433838 37.348522 " transform="matrix(0.997423,0,0,-0.997423,46.565128,46.568674)"/>
<path style="fill:none;stroke-width:0.79701;stroke-linecap:butt;stroke-linejoin:miter;stroke:rgb(0%,0%,0%);stroke-opacity:1;stroke-miterlimit:10;" d="M 140.985718 -27.126235 C 140.985718 -27.126235 137.88789 -35.522875 136.387931 -37.931426 C 134.887972 -40.339977 132.001627 -43.355561 130.172694 -44.483468 C 128.339846 -45.607458 125.104946 -46.328066 123.197687 -46.042173 C 121.290428 -45.760196 118.141688 -44.099666 116.414581 -42.435221 C 114.683557 -40.774691 112.055691 -36.921009 110.747632 -34.065995 C 109.44349 -31.214897 107.692885 -25.598861 107.003608 -21.878335 C 106.310416 -18.153893 105.719048 -11.406034 105.766044 -7.231212 C 105.81304 -3.052474 106.517982 4.063521 107.34433 8.226594 C 108.170679 12.385751 110.164097 19.082697 111.722802 22.760144 C 113.281506 26.43759 116.414581 31.959634 118.576402 34.740237 C 120.738224 37.524757 124.73681 41.249199 127.309848 42.823569 C 129.878969 44.401856 134.367098 45.909648 137.100705 46.101549 C 139.838229 46.289533 144.381187 45.416188 147.020803 44.202122 C 149.660418 42.988056 156.1263 37.348522 156.1263 37.348522 " transform="matrix(0.997423,0,0,-0.997423,46.565128,46.568674)"/>
<path style="fill:none;stroke-width:0.79701;stroke-linecap:butt;stroke-linejoin:miter;stroke:rgb(0%,0%,0%);stroke-opacity:1;stroke-miterlimit:10;" d="M 168.674264 -27.126235 C 168.674264 -27.126235 165.580353 -35.522875 164.080393 -37.931426 C 162.580434 -40.339977 159.694089 -43.355561 157.86124 -44.483468 C 156.032308 -45.607458 152.797409 -46.328066 150.886233 -46.042173 C 148.978974 -45.760196 145.830234 -44.099666 144.103127 -42.435221 C 142.37602 -40.774691 139.744237 -36.921009 138.440095 -34.065995 C 137.132036 -31.214897 135.385347 -25.598861 134.692154 -21.878335 C 134.002878 -18.153893 133.407594 -11.406034 133.45459 -7.231212 C 133.501586 -3.052474 134.206528 4.063521 135.032876 8.226594 C 135.859225 12.385751 137.852643 19.082697 139.411348 22.760144 C 140.970052 26.43759 144.103127 31.959634 146.268865 34.740237 C 148.430686 37.524757 152.429272 41.249199 154.998393 42.823569 C 157.567515 44.401856 162.055644 45.909648 164.793168 46.101549 C 167.526775 46.289533 172.069733 45.416188 174.709348 44.202122 C 177.348964 42.988056 183.814846 37.348522 183.814846 37.348522 " transform="matrix(0.997423,0,0,-0.997423,46.565128,46.568674)"/>
<g clip-path="url(#clip7)" clip-rule="nonzero">
<path style="fill:none;stroke-width:0.79701;stroke-linecap:butt;stroke-linejoin:miter;stroke:rgb(0%,0%,0%);stroke-opacity:1;stroke-miterlimit:10;" d="M 166.14039 46.148545 C 166.14039 46.148545 168.556773 46.019305 169.477114 45.858735 C 170.397455 45.698165 171.87 45.310447 172.774675 44.993223 C 173.67935 44.672083 175.120564 44.033719 176.001742 43.559842 C 176.882919 43.085964 178.281053 42.200871 179.126983 41.578172 C 179.972914 40.95939 181.308387 39.839316 182.111237 39.079545 C 182.918004 38.315858 184.17515 36.976469 184.927088 36.083543 C 185.682942 35.190617 186.850012 33.651494 187.543205 32.637161 C 188.240314 31.626744 189.305559 29.899637 189.936091 28.779563 C 190.562705 27.659489 191.518293 25.775728 192.07833 24.561661 C 192.634451 23.347595 193.468632 21.326762 193.946426 20.034369 C 194.428136 18.741975 195.133078 16.607568 195.532545 15.25643 C 195.932012 13.901375 196.503798 11.680809 196.813189 10.282674 C 197.126496 8.88454 197.561211 6.605228 197.788358 5.183596 C 198.01159 3.758047 198.442388 0.017939 198.442388 0.017939 " transform="matrix(0.997423,0,0,-0.997423,46.565128,46.568674)"/>
</g>
<path style="fill:none;stroke-width:0.79701;stroke-linecap:butt;stroke-linejoin:miter;stroke:rgb(0%,0%,0%);stroke-opacity:1;stroke-miterlimit:10;" d="M -32.304633 -0.00164275 C -32.304633 -0.00164275 -31.662353 5.238424 -31.298133 7.216178 C -30.933913 9.197847 -30.209389 12.35442 -29.676767 14.257763 C -29.144144 16.161105 -28.153309 19.161024 -27.460116 20.946877 C -26.77084 22.732729 -25.529359 25.497667 -24.691262 27.119033 C -23.849248 28.740399 -22.384536 31.207696 -21.413283 32.625412 C -20.44203 34.043128 -18.777584 36.150121 -17.692757 37.32894 C -16.60793 38.507759 -14.778997 40.203536 -13.604094 41.112127 C -12.433108 42.024635 -10.474936 43.266116 -9.237372 43.884898 C -7.995891 44.503681 -5.95156 45.263451 -4.670916 45.576759 C -3.394188 45.893982 -1.302861 46.148545 -0.0104674 46.148545 C 1.281926 46.148545 3.369337 45.897899 4.649981 45.584591 C 5.930625 45.271284 7.974956 44.51543 9.212521 43.896647 C 10.454001 43.277865 12.412173 42.036384 13.587076 41.127793 C 14.758062 40.219201 17.671822 37.348522 17.671822 37.348522 " transform="matrix(0.997423,0,0,-0.997423,46.565128,46.568674)"/>
<path style="fill:none;stroke-width:0.79701;stroke-linecap:butt;stroke-linejoin:miter;stroke:rgb(0%,0%,0%);stroke-opacity:1;stroke-miterlimit:10;" d="M -32.304633 -0.00164275 L -32.304633 -92.298101 " transform="matrix(0.997423,0,0,-0.997423,46.565128,46.568674)"/>
<path style="fill:none;stroke-width:0.79701;stroke-linecap:butt;stroke-linejoin:miter;stroke:rgb(0%,0%,0%);stroke-opacity:1;stroke-miterlimit:10;" d="M 198.442388 -0.00164275 L 198.442388 -92.298101 " transform="matrix(0.997423,0,0,-0.997423,46.565128,46.568674)"/>
<g clip-path="url(#clip8)" clip-rule="nonzero">
<path style="fill:none;stroke-width:0.79701;stroke-linecap:butt;stroke-linejoin:miter;stroke:rgb(0%,0%,0%);stroke-opacity:1;stroke-miterlimit:10;" d="M 203.059756 -96.91547 C 203.059756 -94.36593 200.991927 -92.298101 198.442388 -92.298101 C 195.892848 -92.298101 193.828936 -94.36593 193.828936 -96.91547 C 193.828936 -99.465009 195.892848 -101.528922 198.442388 -101.528922 C 200.991927 -101.528922 203.059756 -99.465009 203.059756 -96.91547 Z M 203.059756 -96.91547 " transform="matrix(0.997423,0,0,-0.997423,46.565128,46.568674)"/>
</g>
<g clip-path="url(#clip9)" clip-rule="nonzero">
<path style="fill:none;stroke-width:0.79701;stroke-linecap:butt;stroke-linejoin:miter;stroke:rgb(0%,0%,0%);stroke-opacity:1;stroke-miterlimit:10;" d="M -27.691181 -96.91547 C -27.691181 -94.36593 -29.755093 -92.298101 -32.304633 -92.298101 C -34.854172 -92.298101 -36.918085 -94.36593 -36.918085 -96.91547 C -36.918085 -99.465009 -34.854172 -101.528922 -32.304633 -101.528922 C -29.755093 -101.528922 -27.691181 -99.465009 -27.691181 -96.91547 Z M -27.691181 -96.91547 " transform="matrix(0.997423,0,0,-0.997423,46.565128,46.568674)"/>
</g>
</g>
</svg>
