<?xml version="1.0" encoding="UTF-8"?>
<svg xmlns="http://www.w3.org/2000/svg" xmlns:xlink="http://www.w3.org/1999/xlink" width="260.795pt" height="217.329pt" viewBox="0 0 260.795 217.329" version="1.2">
<g id="surface1">
<path style="fill:none;stroke-width:0.3985;stroke-linecap:butt;stroke-linejoin:miter;stroke:rgb(0%,0%,0%);stroke-opacity:1;stroke-miterlimit:10;" d="M 0.00142784 -0.00186828 L 0.00142784 -57.170018 M 0.00142784 -116.696991 L 0.00142784 -173.865141 L 86.933064 -173.865141 M 86.933064 -173.865141 L 173.864701 -173.865141 L 173.864701 -96.854667 M 173.864701 -77.012343 L 173.864701 -0.00186828 L 86.933064 -0.00186828 M 86.933064 -0.00186828 L 0.00142784 -0.00186828 " transform="matrix(0.996922,0,0,-0.996922,43.631389,21.666106)"/>
<path style="fill:none;stroke-width:0.797;stroke-linecap:butt;stroke-linejoin:bevel;stroke:rgb(0%,0%,0%);stroke-opacity:1;stroke-miterlimit:10;" d="M -0.159223 -56.770351 C 8.061393 -56.770351 14.72252 -60.802292 14.72252 -65.778546 C 14.72252 -70.754801 8.061393 -74.786742 -0.159223 -74.786742 C -4.269531 -74.786742 -7.600095 -73.12146 -7.600095 -71.068266 C -7.600095 -69.011153 -4.269531 -67.345871 -0.159223 -67.345871 C 8.061393 -67.345871 14.72252 -71.38173 14.72252 -76.354066 C 14.72252 -81.330321 8.061393 -85.366181 -0.159223 -85.366181 C -4.269531 -85.366181 -7.600095 -83.700899 -7.600095 -81.643786 C -7.600095 -79.590591 -4.269531 -77.925309 -0.159223 -77.925309 C 8.061393 -77.925309 14.72252 -81.95725 14.72252 -86.933505 C 14.72252 -91.909759 8.061393 -95.941701 -0.159223 -95.941701 C -4.269531 -95.941701 -7.600095 -94.276419 -7.600095 -92.223224 C -7.600095 -90.166111 -4.269531 -88.500829 -0.159223 -88.500829 C 8.061393 -88.500829 14.72252 -92.53277 14.72252 -97.509025 C 14.72252 -102.485279 8.061393 -106.517221 -0.159223 -106.517221 C -4.269531 -106.517221 -7.600095 -104.851939 -7.600095 -102.798744 C -7.600095 -100.741631 -4.269531 -99.076349 -0.159223 -99.076349 C 8.061393 -99.076349 14.72252 -103.112209 14.72252 -108.088463 C 14.72252 -113.060799 8.061393 -117.096659 -0.159223 -117.096659 " transform="matrix(0.996922,0,0,-0.996922,43.631389,21.666106)"/>
<path style="fill:none;stroke-width:0.797;stroke-linecap:butt;stroke-linejoin:miter;stroke:rgb(0%,0%,0%);stroke-opacity:1;stroke-miterlimit:10;" d="M 144.101214 -96.854667 L 203.628187 -96.854667 M 144.101214 -77.012343 L 203.628187 -77.012343 " transform="matrix(0.996922,0,0,-0.996922,43.631389,21.666106)"/>
</g>
</svg>
