<?xml version="1.0" encoding="UTF-8"?>
<svg xmlns="http://www.w3.org/2000/svg" xmlns:xlink="http://www.w3.org/1999/xlink" width="255.118pt" height="552.756pt" viewBox="0 0 255.118 552.756" version="1.2">
<g id="surface1">
<path style="fill:none;stroke-width:0.3985;stroke-linecap:butt;stroke-linejoin:miter;stroke:rgb(0%,0%,0%);stroke-opacity:1;stroke-miterlimit:10;" d="M 0.00149985 -0.00131703 L 0.00149985 -73.136102 M 0.00149985 -96.944692 L 0.00149985 -170.079477 L 85.04058 -170.079477 M 85.04058 -170.079477 L 170.07966 -170.079477 " transform="matrix(0.996555,0,0,-0.996555,42.373505,191.510406)"/>
<path style="fill:none;stroke-width:0.797;stroke-linecap:butt;stroke-linejoin:bevel;stroke:rgb(0%,0%,0%);stroke-opacity:1;stroke-miterlimit:10;" d="M -0.15921 -72.736287 C 3.129464 -72.736287 5.794897 -74.370824 5.794897 -76.389498 C 5.794897 -78.404252 3.129464 -80.03879 -0.15921 -80.03879 C -1.801587 -80.03879 -3.134304 -79.372432 -3.134304 -78.549283 C -3.134304 -77.730054 -1.801587 -77.063696 -0.15921 -77.063696 C 3.129464 -77.063696 5.794897 -78.698234 5.794897 -80.712988 C 5.794897 -82.731661 3.129464 -84.366199 -0.15921 -84.366199 C -1.801587 -84.366199 -3.134304 -83.699841 -3.134304 -82.876692 C -3.134304 -82.053544 -1.801587 -81.387186 -0.15921 -81.387186 C 3.129464 -81.387186 5.794897 -83.025643 5.794897 -85.040397 C 5.794897 -87.055151 3.129464 -88.693608 -0.15921 -88.693608 C -1.801587 -88.693608 -3.134304 -88.02725 -3.134304 -87.204102 C -3.134304 -86.380953 -1.801587 -85.714595 -0.15921 -85.714595 C 3.129464 -85.714595 5.794897 -87.349133 5.794897 -89.367806 C 5.794897 -91.38256 3.129464 -93.017098 -0.15921 -93.017098 C -1.801587 -93.017098 -3.134304 -92.35074 -3.134304 -91.531511 C -3.134304 -90.708362 -1.801587 -90.042004 -0.15921 -90.042004 C 3.129464 -90.042004 5.794897 -91.676542 5.794897 -93.695216 C 5.794897 -95.709969 3.129464 -97.344507 -0.15921 -97.344507 " transform="matrix(0.996555,0,0,-0.996555,42.373505,191.510406)"/>
<path style="fill:none;stroke-width:0.3985;stroke-linecap:butt;stroke-linejoin:miter;stroke:rgb(0%,0%,0%);stroke-opacity:1;stroke-miterlimit:10;" d="M 170.07966 -170.079477 L 170.07966 -97.795279 " transform="matrix(0.996555,0,0,-0.996555,42.373505,191.510406)"/>
<path style="fill:none;stroke-width:0.3985;stroke-linecap:butt;stroke-linejoin:miter;stroke:rgb(0%,0%,0%);stroke-opacity:1;stroke-miterlimit:10;" d="M 0.00149985 -0.00131703 L 170.07966 -0.00131703 " transform="matrix(0.996555,0,0,-0.996555,42.373505,191.510406)"/>
<path style="fill:none;stroke-width:0.3985;stroke-linecap:butt;stroke-linejoin:miter;stroke:rgb(0%,0%,0%);stroke-opacity:1;stroke-miterlimit:10;" d="M 170.07966 -0.00131703 L 170.07966 -72.285515 " transform="matrix(0.996555,0,0,-0.996555,42.373505,191.510406)"/>
<path style="fill:none;stroke-width:0.79701;stroke-linecap:butt;stroke-linejoin:miter;stroke:rgb(0%,0%,0%);stroke-opacity:1;stroke-miterlimit:10;" d="M 170.07966 -97.795279 L 136.064028 -97.795279 " transform="matrix(0.996555,0,0,-0.996555,42.373505,191.510406)"/>
<path style="fill:none;stroke-width:0.79701;stroke-linecap:butt;stroke-linejoin:miter;stroke:rgb(0%,0%,0%);stroke-opacity:1;stroke-miterlimit:10;" d="M 170.07966 -97.795279 L 204.095292 -97.795279 " transform="matrix(0.996555,0,0,-0.996555,42.373505,191.510406)"/>
<path style="fill:none;stroke-width:0.79701;stroke-linecap:butt;stroke-linejoin:miter;stroke:rgb(0%,0%,0%);stroke-opacity:1;stroke-miterlimit:10;" d="M 170.07966 -72.285515 L 136.064028 -72.285515 " transform="matrix(0.996555,0,0,-0.996555,42.373505,191.510406)"/>
<path style="fill:none;stroke-width:0.79701;stroke-linecap:butt;stroke-linejoin:miter;stroke:rgb(0%,0%,0%);stroke-opacity:1;stroke-miterlimit:10;" d="M 170.07966 -72.285515 L 204.095292 -72.285515 " transform="matrix(0.996555,0,0,-0.996555,42.373505,191.510406)"/>
<path style="fill:none;stroke-width:0.3985;stroke-linecap:butt;stroke-linejoin:miter;stroke:rgb(98.039246%,70.588684%,0%);stroke-opacity:1;stroke-miterlimit:10;" d="M 136.064028 -72.285515 L 136.064028 -94.326296 " transform="matrix(0.996555,0,0,-0.996555,42.373505,191.510406)"/>
<path style="fill-rule:nonzero;fill:rgb(98.039246%,70.588684%,0%);fill-opacity:1;stroke-width:0.3985;stroke-linecap:butt;stroke-linejoin:miter;stroke:rgb(98.039246%,70.588684%,0%);stroke-opacity:1;stroke-miterlimit:10;" d="M 3.174074 -0.00123222 L 0.19898 1.762657 L 0.19898 -1.765122 Z M 3.174074 -0.00123222 " transform="matrix(0,0.996555,0.996555,0,177.969978,285.411081)"/>
<path style="fill:none;stroke-width:0.3985;stroke-linecap:butt;stroke-linejoin:miter;stroke:rgb(98.039246%,70.588684%,0%);stroke-opacity:1;stroke-miterlimit:10;" d="M 147.403878 -72.285515 L 147.403878 -94.326296 " transform="matrix(0.996555,0,0,-0.996555,42.373505,191.510406)"/>
<path style="fill-rule:nonzero;fill:rgb(98.039246%,70.588684%,0%);fill-opacity:1;stroke-width:0.3985;stroke-linecap:butt;stroke-linejoin:miter;stroke:rgb(98.039246%,70.588684%,0%);stroke-opacity:1;stroke-miterlimit:10;" d="M 3.174074 0.0000683622 L 0.19898 1.763958 L 0.19898 -1.763821 Z M 3.174074 0.0000683622 " transform="matrix(0,0.996555,0.996555,0,189.269463,285.411081)"/>
<path style="fill:none;stroke-width:0.3985;stroke-linecap:butt;stroke-linejoin:miter;stroke:rgb(98.039246%,70.588684%,0%);stroke-opacity:1;stroke-miterlimit:10;" d="M 158.743729 -72.285515 L 158.743729 -94.326296 " transform="matrix(0.996555,0,0,-0.996555,42.373505,191.510406)"/>
<path style="fill-rule:nonzero;fill:rgb(98.039246%,70.588684%,0%);fill-opacity:1;stroke-width:0.3985;stroke-linecap:butt;stroke-linejoin:miter;stroke:rgb(98.039246%,70.588684%,0%);stroke-opacity:1;stroke-miterlimit:10;" d="M 3.174074 0.00136894 L 0.19898 1.765259 L 0.19898 -1.762521 Z M 3.174074 0.00136894 " transform="matrix(0,0.996555,0.996555,0,200.568948,285.411081)"/>
<path style="fill:none;stroke-width:0.3985;stroke-linecap:butt;stroke-linejoin:miter;stroke:rgb(98.039246%,70.588684%,0%);stroke-opacity:1;stroke-miterlimit:10;" d="M 170.07966 -72.285515 L 170.07966 -94.326296 " transform="matrix(0.996555,0,0,-0.996555,42.373505,191.510406)"/>
<path style="fill-rule:nonzero;fill:rgb(98.039246%,70.588684%,0%);fill-opacity:1;stroke-width:0.3985;stroke-linecap:butt;stroke-linejoin:miter;stroke:rgb(98.039246%,70.588684%,0%);stroke-opacity:1;stroke-miterlimit:10;" d="M 3.174074 -0.00126023 L 0.19898 1.762629 L 0.19898 -1.76515 Z M 3.174074 -0.00126023 " transform="matrix(0,0.996555,0.996555,0,211.868443,285.411081)"/>
<path style="fill:none;stroke-width:0.3985;stroke-linecap:butt;stroke-linejoin:miter;stroke:rgb(98.039246%,70.588684%,0%);stroke-opacity:1;stroke-miterlimit:10;" d="M 181.41951 -72.285515 L 181.41951 -94.326296 " transform="matrix(0.996555,0,0,-0.996555,42.373505,191.510406)"/>
<path style="fill-rule:nonzero;fill:rgb(98.039246%,70.588684%,0%);fill-opacity:1;stroke-width:0.3985;stroke-linecap:butt;stroke-linejoin:miter;stroke:rgb(98.039246%,70.588684%,0%);stroke-opacity:1;stroke-miterlimit:10;" d="M 3.174074 0.0000503442 L 0.19898 1.76394 L 0.19898 -1.763839 Z M 3.174074 0.0000503442 " transform="matrix(0,0.996555,0.996555,0,223.167919,285.411081)"/>
<path style="fill:none;stroke-width:0.3985;stroke-linecap:butt;stroke-linejoin:miter;stroke:rgb(98.039246%,70.588684%,0%);stroke-opacity:1;stroke-miterlimit:10;" d="M 192.759361 -72.285515 L 192.759361 -94.326296 " transform="matrix(0.996555,0,0,-0.996555,42.373505,191.510406)"/>
<path style="fill-rule:nonzero;fill:rgb(98.039246%,70.588684%,0%);fill-opacity:1;stroke-width:0.3985;stroke-linecap:butt;stroke-linejoin:miter;stroke:rgb(98.039246%,70.588684%,0%);stroke-opacity:1;stroke-miterlimit:10;" d="M 3.174074 0.00133092 L 0.19898 1.765221 L 0.19898 -1.762559 Z M 3.174074 0.00133092 " transform="matrix(0,0.996555,0.996555,0,234.467424,285.411081)"/>
<path style="fill:none;stroke-width:0.3985;stroke-linecap:butt;stroke-linejoin:miter;stroke:rgb(98.039246%,70.588684%,0%);stroke-opacity:1;stroke-miterlimit:10;" d="M 204.099212 -72.285515 L 204.099212 -94.326296 " transform="matrix(0.996555,0,0,-0.996555,42.373505,191.510406)"/>
<path style="fill-rule:nonzero;fill:rgb(98.039246%,70.588684%,0%);fill-opacity:1;stroke-width:0.3985;stroke-linecap:butt;stroke-linejoin:miter;stroke:rgb(98.039246%,70.588684%,0%);stroke-opacity:1;stroke-miterlimit:10;" d="M 3.174074 0.0013215 L 0.19898 1.765211 L 0.19898 -1.762568 Z M 3.174074 0.0013215 " transform="matrix(0,0.996555,0.996555,0,245.768214,285.411081)"/>
</g>
</svg>
