<?xml version="1.0" encoding="UTF-8"?>
<svg xmlns="http://www.w3.org/2000/svg" xmlns:xlink="http://www.w3.org/1999/xlink" width="255.118pt" height="552.756pt" viewBox="0 0 255.118 552.756" version="1.2">
<g id="surface1">
<path style="fill:none;stroke-width:0.3985;stroke-linecap:butt;stroke-linejoin:miter;stroke:rgb(0%,0%,0%);stroke-opacity:1;stroke-miterlimit:10;" d="M 0.00149985 -0.00131703 L 0.00149985 -73.136102 M 0.00149985 -96.944692 L 0.00149985 -170.079477 L 85.04058 -170.079477 M 85.04058 -170.079477 L 170.07966 -170.079477 " transform="matrix(0.996555,0,0,-0.996555,42.373505,191.510406)"/>
<path style="fill:none;stroke-width:0.797;stroke-linecap:butt;stroke-linejoin:bevel;stroke:rgb(0%,0%,0%);stroke-opacity:1;stroke-miterlimit:10;" d="M -0.15921 -72.736287 C 3.129464 -72.736287 5.794897 -74.778479 5.794897 -77.298881 C 5.794897 -79.819284 3.129464 -81.865396 -0.15921 -81.865396 C -1.801587 -81.865396 -3.134304 -80.975611 -3.134304 -79.882 C -3.134304 -78.784468 -1.801587 -77.894684 -0.15921 -77.894684 C 3.129464 -77.894684 5.794897 -79.940796 5.794897 -82.461198 C 5.794897 -84.981601 3.129464 -87.023793 -0.15921 -87.023793 C -1.801587 -87.023793 -3.134304 -86.137928 -3.134304 -85.040397 C -3.134304 -83.942866 -1.801587 -83.057001 -0.15921 -83.057001 C 3.129464 -83.057001 5.794897 -85.099193 5.794897 -87.619596 C 5.794897 -90.139998 3.129464 -92.18611 -0.15921 -92.18611 C -1.801587 -92.18611 -3.134304 -91.296326 -3.134304 -90.198794 C -3.134304 -89.105183 -1.801587 -88.215398 -0.15921 -88.215398 C 3.129464 -88.215398 5.794897 -90.26151 5.794897 -92.781913 C 5.794897 -95.302315 3.129464 -97.344507 -0.15921 -97.344507 " transform="matrix(0.996555,0,0,-0.996555,42.373505,191.510406)"/>
<path style="fill:none;stroke-width:0.3985;stroke-linecap:butt;stroke-linejoin:miter;stroke:rgb(0%,0%,0%);stroke-opacity:1;stroke-miterlimit:10;" d="M 170.07966 -170.079477 L 170.07966 -144.569713 " transform="matrix(0.996555,0,0,-0.996555,42.373505,191.510406)"/>
<path style="fill:none;stroke-width:0.3985;stroke-linecap:butt;stroke-linejoin:miter;stroke:rgb(0%,0%,0%);stroke-opacity:1;stroke-miterlimit:10;" d="M 0.00149985 -0.00131703 L 170.07966 -0.00131703 " transform="matrix(0.996555,0,0,-0.996555,42.373505,191.510406)"/>
<path style="fill:none;stroke-width:0.3985;stroke-linecap:butt;stroke-linejoin:miter;stroke:rgb(0%,0%,0%);stroke-opacity:1;stroke-miterlimit:10;" d="M 170.07966 -0.00131703 L 170.07966 -25.511081 " transform="matrix(0.996555,0,0,-0.996555,42.373505,191.510406)"/>
<path style="fill:none;stroke-width:0.79701;stroke-linecap:butt;stroke-linejoin:miter;stroke:rgb(0%,0%,0%);stroke-opacity:1;stroke-miterlimit:10;" d="M 170.07966 -144.569713 L 136.064028 -144.569713 " transform="matrix(0.996555,0,0,-0.996555,42.373505,191.510406)"/>
<path style="fill:none;stroke-width:0.79701;stroke-linecap:butt;stroke-linejoin:miter;stroke:rgb(0%,0%,0%);stroke-opacity:1;stroke-miterlimit:10;" d="M 170.07966 -144.569713 L 204.095292 -144.569713 " transform="matrix(0.996555,0,0,-0.996555,42.373505,191.510406)"/>
<path style="fill:none;stroke-width:0.79701;stroke-linecap:butt;stroke-linejoin:miter;stroke:rgb(0%,0%,0%);stroke-opacity:1;stroke-miterlimit:10;" d="M 170.07966 -25.511081 L 136.064028 -25.511081 " transform="matrix(0.996555,0,0,-0.996555,42.373505,191.510406)"/>
<path style="fill:none;stroke-width:0.79701;stroke-linecap:butt;stroke-linejoin:miter;stroke:rgb(0%,0%,0%);stroke-opacity:1;stroke-miterlimit:10;" d="M 170.07966 -25.511081 L 204.095292 -25.511081 " transform="matrix(0.996555,0,0,-0.996555,42.373505,191.510406)"/>
<path style="fill:none;stroke-width:0.3985;stroke-linecap:butt;stroke-linejoin:miter;stroke:rgb(98.039246%,70.588684%,0%);stroke-opacity:1;stroke-miterlimit:10;" d="M 136.064028 -25.511081 L 136.064028 -141.09681 " transform="matrix(0.996555,0,0,-0.996555,42.373505,191.510406)"/>
<path style="fill-rule:nonzero;fill:rgb(98.039246%,70.588684%,0%);fill-opacity:1;stroke-width:0.3985;stroke-linecap:butt;stroke-linejoin:miter;stroke:rgb(98.039246%,70.588684%,0%);stroke-opacity:1;stroke-miterlimit:10;" d="M 3.173378 -0.00123222 L 0.198284 1.762657 L 0.198284 -1.765122 Z M 3.173378 -0.00123222 " transform="matrix(0,0.996555,0.996555,0,177.969978,332.021149)"/>
<path style="fill:none;stroke-width:0.3985;stroke-linecap:butt;stroke-linejoin:miter;stroke:rgb(98.039246%,70.588684%,0%);stroke-opacity:1;stroke-miterlimit:10;" d="M 147.403878 -25.511081 L 147.403878 -141.09681 " transform="matrix(0.996555,0,0,-0.996555,42.373505,191.510406)"/>
<path style="fill-rule:nonzero;fill:rgb(98.039246%,70.588684%,0%);fill-opacity:1;stroke-width:0.3985;stroke-linecap:butt;stroke-linejoin:miter;stroke:rgb(98.039246%,70.588684%,0%);stroke-opacity:1;stroke-miterlimit:10;" d="M 3.173378 0.0000683622 L 0.198284 1.763958 L 0.198284 -1.763821 Z M 3.173378 0.0000683622 " transform="matrix(0,0.996555,0.996555,0,189.269463,332.021149)"/>
<path style="fill:none;stroke-width:0.3985;stroke-linecap:butt;stroke-linejoin:miter;stroke:rgb(98.039246%,70.588684%,0%);stroke-opacity:1;stroke-miterlimit:10;" d="M 158.743729 -25.511081 L 158.743729 -141.09681 " transform="matrix(0.996555,0,0,-0.996555,42.373505,191.510406)"/>
<path style="fill-rule:nonzero;fill:rgb(98.039246%,70.588684%,0%);fill-opacity:1;stroke-width:0.3985;stroke-linecap:butt;stroke-linejoin:miter;stroke:rgb(98.039246%,70.588684%,0%);stroke-opacity:1;stroke-miterlimit:10;" d="M 3.173378 0.00136894 L 0.198284 1.765259 L 0.198284 -1.762521 Z M 3.173378 0.00136894 " transform="matrix(0,0.996555,0.996555,0,200.568948,332.021149)"/>
<path style="fill:none;stroke-width:0.3985;stroke-linecap:butt;stroke-linejoin:miter;stroke:rgb(98.039246%,70.588684%,0%);stroke-opacity:1;stroke-miterlimit:10;" d="M 170.07966 -25.511081 L 170.07966 -141.09681 " transform="matrix(0.996555,0,0,-0.996555,42.373505,191.510406)"/>
<path style="fill-rule:nonzero;fill:rgb(98.039246%,70.588684%,0%);fill-opacity:1;stroke-width:0.3985;stroke-linecap:butt;stroke-linejoin:miter;stroke:rgb(98.039246%,70.588684%,0%);stroke-opacity:1;stroke-miterlimit:10;" d="M 3.173378 -0.00126023 L 0.198284 1.762629 L 0.198284 -1.76515 Z M 3.173378 -0.00126023 " transform="matrix(0,0.996555,0.996555,0,211.868443,332.021149)"/>
<path style="fill:none;stroke-width:0.3985;stroke-linecap:butt;stroke-linejoin:miter;stroke:rgb(98.039246%,70.588684%,0%);stroke-opacity:1;stroke-miterlimit:10;" d="M 181.41951 -25.511081 L 181.41951 -141.09681 " transform="matrix(0.996555,0,0,-0.996555,42.373505,191.510406)"/>
<path style="fill-rule:nonzero;fill:rgb(98.039246%,70.588684%,0%);fill-opacity:1;stroke-width:0.3985;stroke-linecap:butt;stroke-linejoin:miter;stroke:rgb(98.039246%,70.588684%,0%);stroke-opacity:1;stroke-miterlimit:10;" d="M 3.173378 0.0000503442 L 0.198284 1.76394 L 0.198284 -1.763839 Z M 3.173378 0.0000503442 " transform="matrix(0,0.996555,0.996555,0,223.167919,332.021149)"/>
<path style="fill:none;stroke-width:0.3985;stroke-linecap:butt;stroke-linejoin:miter;stroke:rgb(98.039246%,70.588684%,0%);stroke-opacity:1;stroke-miterlimit:10;" d="M 192.759361 -25.511081 L 192.759361 -141.09681 " transform="matrix(0.996555,0,0,-0.996555,42.373505,191.510406)"/>
<path style="fill-rule:nonzero;fill:rgb(98.039246%,70.588684%,0%);fill-opacity:1;stroke-width:0.3985;stroke-linecap:butt;stroke-linejoin:miter;stroke:rgb(98.039246%,70.588684%,0%);stroke-opacity:1;stroke-miterlimit:10;" d="M 3.173378 0.00133092 L 0.198284 1.765221 L 0.198284 -1.762559 Z M 3.173378 0.00133092 " transform="matrix(0,0.996555,0.996555,0,234.467424,332.021149)"/>
<path style="fill:none;stroke-width:0.3985;stroke-linecap:butt;stroke-linejoin:miter;stroke:rgb(98.039246%,70.588684%,0%);stroke-opacity:1;stroke-miterlimit:10;" d="M 204.099212 -25.511081 L 204.099212 -141.09681 " transform="matrix(0.996555,0,0,-0.996555,42.373505,191.510406)"/>
<path style="fill-rule:nonzero;fill:rgb(98.039246%,70.588684%,0%);fill-opacity:1;stroke-width:0.3985;stroke-linecap:butt;stroke-linejoin:miter;stroke:rgb(98.039246%,70.588684%,0%);stroke-opacity:1;stroke-miterlimit:10;" d="M 3.173378 0.0013215 L 0.198284 1.765211 L 0.198284 -1.762568 Z M 3.173378 0.0013215 " transform="matrix(0,0.996555,0.996555,0,245.768214,332.021149)"/>
</g>
</svg>
