<?xml version="1.0" encoding="UTF-8"?>
<svg xmlns="http://www.w3.org/2000/svg" xmlns:xlink="http://www.w3.org/1999/xlink" width="254.831pt" height="450.52pt" viewBox="0 0 254.831 450.52" version="1.2">
<g id="surface1">
<path style="fill:none;stroke-width:0.3985;stroke-linecap:butt;stroke-linejoin:miter;stroke:rgb(0%,0%,0%);stroke-opacity:1;stroke-miterlimit:10;" d="M 34.656633 0.00177513 L 34.656633 -57.406981 M 34.656633 -81.217479 L 34.656633 -138.622325 L 86.637737 -138.622325 M 86.637737 -138.622325 L 138.622753 -138.622325 " transform="matrix(0.998936,0,0,-0.998936,34.669315,155.783023)"/>
<path style="fill:none;stroke-width:0.797;stroke-linecap:butt;stroke-linejoin:bevel;stroke:rgb(0%,0%,0%);stroke-opacity:1;stroke-miterlimit:10;" d="M 34.496306 -57.008119 C 37.784962 -57.008119 40.447952 -59.733676 40.447952 -63.09272 C 40.447952 -66.455674 37.784962 -69.177321 34.496306 -69.177321 C 32.853933 -69.177321 31.520482 -67.847781 31.520482 -66.201498 C 31.520482 -64.559125 32.853933 -63.225674 34.496306 -63.225674 C 37.784962 -63.225674 40.447952 -65.951231 40.447952 -69.310275 C 40.447952 -72.673229 37.784962 -75.398786 34.496306 -75.398786 C 32.853933 -75.398786 31.520482 -74.065336 31.520482 -72.419052 C 31.520482 -70.776679 32.853933 -69.443229 34.496306 -69.443229 C 37.784962 -69.443229 40.447952 -72.168786 40.447952 -75.53174 C 40.447952 -78.890784 37.784962 -81.616341 34.496306 -81.616341 " transform="matrix(0.998936,0,0,-0.998936,34.669315,155.783023)"/>
<path style="fill:none;stroke-width:0.3985;stroke-linecap:butt;stroke-linejoin:miter;stroke:rgb(0%,0%,0%);stroke-opacity:1;stroke-miterlimit:10;" d="M 138.622753 -138.622325 L 138.622753 -138.622325 " transform="matrix(0.998936,0,0,-0.998936,34.669315,155.783023)"/>
<path style="fill:none;stroke-width:0.3985;stroke-linecap:butt;stroke-linejoin:miter;stroke:rgb(0%,0%,0%);stroke-opacity:1;stroke-miterlimit:10;" d="M 34.656633 0.00177513 L 138.622753 0.00177513 " transform="matrix(0.998936,0,0,-0.998936,34.669315,155.783023)"/>
<path style="fill:none;stroke-width:0.3985;stroke-linecap:butt;stroke-linejoin:miter;stroke:rgb(0%,0%,0%);stroke-opacity:1;stroke-miterlimit:10;" d="M 138.622753 0.00177513 L 138.622753 0.00177513 " transform="matrix(0.998936,0,0,-0.998936,34.669315,155.783023)"/>
<path style="fill:none;stroke-width:0.79701;stroke-linecap:butt;stroke-linejoin:miter;stroke:rgb(0%,0%,0%);stroke-opacity:1;stroke-miterlimit:10;" d="M 138.622753 -138.622325 L 110.897933 -110.897505 " transform="matrix(0.998936,0,0,-0.998936,34.669315,155.783023)"/>
<path style="fill:none;stroke-width:0.79701;stroke-linecap:butt;stroke-linejoin:miter;stroke:rgb(0%,0%,0%);stroke-opacity:1;stroke-miterlimit:10;" d="M 138.622753 -138.622325 L 166.347573 -166.347145 " transform="matrix(0.998936,0,0,-0.998936,34.669315,155.783023)"/>
<path style="fill:none;stroke-width:0.79701;stroke-linecap:butt;stroke-linejoin:miter;stroke:rgb(0%,0%,0%);stroke-opacity:1;stroke-miterlimit:10;" d="M 138.622753 0.00177513 L 110.897933 -27.723045 " transform="matrix(0.998936,0,0,-0.998936,34.669315,155.783023)"/>
<path style="fill:none;stroke-width:0.79701;stroke-linecap:butt;stroke-linejoin:miter;stroke:rgb(0%,0%,0%);stroke-opacity:1;stroke-miterlimit:10;" d="M 138.622753 0.00177513 L 166.347573 27.722685 " transform="matrix(0.998936,0,0,-0.998936,34.669315,155.783023)"/>
<path style="fill:none;stroke-width:0.3985;stroke-linecap:butt;stroke-linejoin:miter;stroke:rgb(98.039246%,70.588684%,0%);stroke-opacity:1;stroke-miterlimit:10;" d="M 110.897933 -27.723045 C 133.081699 -49.906811 133.875513 -85.385978 113.279373 -108.519975 " transform="matrix(0.998936,0,0,-0.998936,34.669315,155.783023)"/>
<path style="fill-rule:nonzero;fill:rgb(98.039246%,70.588684%,0%);fill-opacity:1;stroke-width:0.3985;stroke-linecap:butt;stroke-linejoin:miter;stroke:rgb(98.039246%,70.588684%,0%);stroke-opacity:1;stroke-miterlimit:10;" d="M 3.173701 -0.000634423 L 0.19985 1.764449 L 0.197043 -0.000440999 L 0.199765 -1.765495 Z M 3.173701 -0.000634423 " transform="matrix(-0.68497,0.727055,0.727055,0.68497,147.897008,264.110947)"/>
<path style="fill:none;stroke-width:0.3985;stroke-linecap:butt;stroke-linejoin:miter;stroke:rgb(98.039246%,70.588684%,0%);stroke-opacity:1;stroke-miterlimit:10;" d="M 120.142146 -18.482742 C 147.429 -45.769596 148.226724 -89.519284 122.535318 -117.772009 " transform="matrix(0.998936,0,0,-0.998936,34.669315,155.783023)"/>
<path style="fill-rule:nonzero;fill:rgb(98.039246%,70.588684%,0%);fill-opacity:1;stroke-width:0.3985;stroke-linecap:butt;stroke-linejoin:miter;stroke:rgb(98.039246%,70.588684%,0%);stroke-opacity:1;stroke-miterlimit:10;" d="M 3.174202 0.00157176 L 0.199437 1.764178 L 0.200652 -0.000587867 L 0.19917 -1.762522 Z M 3.174202 0.00157176 " transform="matrix(-0.688886,0.723329,0.723329,0.688886,157.142558,273.355268)"/>
<path style="fill:none;stroke-width:0.3985;stroke-linecap:butt;stroke-linejoin:miter;stroke:rgb(98.039246%,70.588684%,0%);stroke-opacity:1;stroke-miterlimit:10;" d="M 129.382449 -9.242439 C 161.776301 -41.63629 162.577936 -93.656499 131.787353 -127.024044 " transform="matrix(0.998936,0,0,-0.998936,34.669315,155.783023)"/>
<path style="fill-rule:nonzero;fill:rgb(98.039246%,70.588684%,0%);fill-opacity:1;stroke-width:0.3985;stroke-linecap:butt;stroke-linejoin:miter;stroke:rgb(98.039246%,70.588684%,0%);stroke-opacity:1;stroke-miterlimit:10;" d="M 3.173502 -0.00214495 L 0.200713 1.762873 L 0.200345 0.00107244 L 0.197154 -1.763436 Z M 3.173502 -0.00214495 " transform="matrix(-0.691613,0.720732,0.720732,0.691613,166.383882,282.597051)"/>
<path style="fill:none;stroke-width:0.3985;stroke-linecap:butt;stroke-linejoin:miter;stroke:rgb(98.039246%,70.588684%,0%);stroke-opacity:1;stroke-miterlimit:10;" d="M 138.622753 0.00177513 C 176.119692 -37.495164 176.925237 -97.793715 141.035477 -136.268257 " transform="matrix(0.998936,0,0,-0.998936,34.669315,155.783023)"/>
<path style="fill-rule:nonzero;fill:rgb(98.039246%,70.588684%,0%);fill-opacity:1;stroke-width:0.3985;stroke-linecap:butt;stroke-linejoin:miter;stroke:rgb(98.039246%,70.588684%,0%);stroke-opacity:1;stroke-miterlimit:10;" d="M 3.174015 0.00112641 L 0.19933 1.760821 L 0.198179 -0.00085427 L 0.199744 -1.765344 Z M 3.174015 0.00112641 " transform="matrix(-0.693561,0.718874,0.718874,0.693561,175.622439,291.834689)"/>
<path style="fill:none;stroke-width:0.3985;stroke-linecap:butt;stroke-linejoin:miter;stroke:rgb(98.039246%,70.588684%,0%);stroke-opacity:1;stroke-miterlimit:10;" d="M 147.863056 9.242078 C 190.466993 -33.361859 191.272538 -101.934841 150.27969 -145.516381 " transform="matrix(0.998936,0,0,-0.998936,34.669315,155.783023)"/>
<path style="fill-rule:nonzero;fill:rgb(98.039246%,70.588684%,0%);fill-opacity:1;stroke-width:0.3985;stroke-linecap:butt;stroke-linejoin:miter;stroke:rgb(98.039246%,70.588684%,0%);stroke-opacity:1;stroke-miterlimit:10;" d="M 3.173329 -0.00187169 L 0.200589 1.762384 L 0.197697 0.000808645 L 0.197526 -1.763575 Z M 3.173329 -0.00187169 " transform="matrix(-0.695109,0.717386,0.717386,0.695109,184.859497,301.072457)"/>
<path style="fill:none;stroke-width:0.3985;stroke-linecap:butt;stroke-linejoin:miter;stroke:rgb(98.039246%,70.588684%,0%);stroke-opacity:1;stroke-miterlimit:10;" d="M 157.107269 18.482382 C 204.810384 -29.224643 205.619839 -106.072057 159.523904 -154.764505 " transform="matrix(0.998936,0,0,-0.998936,34.669315,155.783023)"/>
<path style="fill-rule:nonzero;fill:rgb(98.039246%,70.588684%,0%);fill-opacity:1;stroke-width:0.3985;stroke-linecap:butt;stroke-linejoin:miter;stroke:rgb(98.039246%,70.588684%,0%);stroke-opacity:1;stroke-miterlimit:10;" d="M 3.173801 0.00178703 L 0.200877 1.763892 L 0.198095 -0.000455904 L 0.198117 -1.762077 Z M 3.173801 0.00178703 " transform="matrix(-0.696278,0.716217,0.716217,0.696278,194.095287,310.307657)"/>
<path style="fill:none;stroke-width:0.3985;stroke-linecap:butt;stroke-linejoin:miter;stroke:rgb(98.039246%,70.588684%,0%);stroke-opacity:1;stroke-miterlimit:10;" d="M 166.347573 27.726595 C 219.157685 -25.083517 219.96714 -110.209273 168.772028 -164.008719 " transform="matrix(0.998936,0,0,-0.998936,34.669315,155.783023)"/>
<path style="fill-rule:nonzero;fill:rgb(98.039246%,70.588684%,0%);fill-opacity:1;stroke-width:0.3985;stroke-linecap:butt;stroke-linejoin:miter;stroke:rgb(98.039246%,70.588684%,0%);stroke-opacity:1;stroke-miterlimit:10;" d="M 3.174608 -0.000965913 L 0.199361 1.762604 L 0.198987 -0.00174052 L 0.201414 -1.763355 Z M 3.174608 -0.000965913 " transform="matrix(-0.697257,0.715268,0.715268,0.697257,203.331397,319.542478)"/>
</g>
</svg>
