<?xml version="1.0" encoding="UTF-8"?>
<svg xmlns="http://www.w3.org/2000/svg" xmlns:xlink="http://www.w3.org/1999/xlink" width="254.859pt" height="424.432pt" viewBox="0 0 254.859 424.432" version="1.2">
<defs>
<clipPath id="clip1">
  <path d="M 157 115 L 254.617188 115 L 254.617188 309 L 157 309 Z M 157 115 "/>
</clipPath>
</defs>
<g id="surface1">
<path style="fill:none;stroke-width:0.3985;stroke-linecap:butt;stroke-linejoin:miter;stroke:rgb(0%,0%,0%);stroke-opacity:1;stroke-miterlimit:10;" d="M 65.299975 -0.00000918463 L 65.299975 -53.391678 M 65.299975 -77.204754 L 65.299975 -130.596422 L 97.949078 -130.596422 M 97.949078 -130.596422 L 130.598181 -130.596422 " transform="matrix(0.998664,0,0,-0.998664,32.705266,146.722647)"/>
<path style="fill:none;stroke-width:0.797;stroke-linecap:butt;stroke-linejoin:bevel;stroke:rgb(0%,0%,0%);stroke-opacity:1;stroke-miterlimit:10;" d="M 65.139604 -52.992707 C 68.425245 -52.992707 71.092873 -57.080201 71.092873 -62.122096 C 71.092873 -67.163991 68.425245 -71.251485 65.139604 -71.251485 C 63.496784 -71.251485 62.16297 -68.583857 62.16297 -65.298216 C 62.16297 -62.008663 63.496784 -59.344947 65.139604 -59.344947 C 68.425245 -59.344947 71.092873 -63.432441 71.092873 -68.474336 C 71.092873 -73.51623 68.425245 -77.603724 65.139604 -77.603724 " transform="matrix(0.998664,0,0,-0.998664,32.705266,146.722647)"/>
<path style="fill:none;stroke-width:0.3985;stroke-linecap:butt;stroke-linejoin:miter;stroke:rgb(0%,0%,0%);stroke-opacity:1;stroke-miterlimit:10;" d="M 130.598181 -130.596422 L 130.598181 -130.596422 " transform="matrix(0.998664,0,0,-0.998664,32.705266,146.722647)"/>
<path style="fill:none;stroke-width:0.3985;stroke-linecap:butt;stroke-linejoin:miter;stroke:rgb(0%,0%,0%);stroke-opacity:1;stroke-miterlimit:10;" d="M 65.299975 -0.00000918463 L 130.598181 -0.00000918463 " transform="matrix(0.998664,0,0,-0.998664,32.705266,146.722647)"/>
<path style="fill:none;stroke-width:0.3985;stroke-linecap:butt;stroke-linejoin:miter;stroke:rgb(0%,0%,0%);stroke-opacity:1;stroke-miterlimit:10;" d="M 130.598181 -0.00000918463 L 130.598181 -0.00000918463 " transform="matrix(0.998664,0,0,-0.998664,32.705266,146.722647)"/>
<path style="fill:none;stroke-width:0.79701;stroke-linecap:butt;stroke-linejoin:miter;stroke:rgb(0%,0%,0%);stroke-opacity:1;stroke-miterlimit:10;" d="M 130.598181 -130.596422 L 130.598181 -104.475575 " transform="matrix(0.998664,0,0,-0.998664,32.705266,146.722647)"/>
<path style="fill:none;stroke-width:0.79701;stroke-linecap:butt;stroke-linejoin:miter;stroke:rgb(0%,0%,0%);stroke-opacity:1;stroke-miterlimit:10;" d="M 130.598181 -130.596422 L 130.598181 -156.713358 " transform="matrix(0.998664,0,0,-0.998664,32.705266,146.722647)"/>
<path style="fill:none;stroke-width:0.79701;stroke-linecap:butt;stroke-linejoin:miter;stroke:rgb(0%,0%,0%);stroke-opacity:1;stroke-miterlimit:10;" d="M 130.598181 -0.00000918463 L 130.598181 -26.116945 " transform="matrix(0.998664,0,0,-0.998664,32.705266,146.722647)"/>
<path style="fill:none;stroke-width:0.79701;stroke-linecap:butt;stroke-linejoin:miter;stroke:rgb(0%,0%,0%);stroke-opacity:1;stroke-miterlimit:10;" d="M 130.598181 -0.00000918463 L 130.598181 26.116927 " transform="matrix(0.998664,0,0,-0.998664,32.705266,146.722647)"/>
<path style="fill:none;stroke-width:0.3985;stroke-linecap:butt;stroke-linejoin:miter;stroke:rgb(98.039246%,70.588684%,0%);stroke-opacity:1;stroke-miterlimit:10;" d="M 130.598181 -26.116945 C 152.236475 -26.116945 169.775541 -43.659922 169.775541 -65.298216 C 169.775541 -85.766978 154.078781 -102.570686 134.06375 -104.326939 " transform="matrix(0.998664,0,0,-0.998664,32.705266,146.722647)"/>
<path style="fill-rule:nonzero;fill:rgb(98.039246%,70.588684%,0%);fill-opacity:1;stroke-width:0.3985;stroke-linecap:butt;stroke-linejoin:miter;stroke:rgb(98.039246%,70.588684%,0%);stroke-opacity:1;stroke-miterlimit:10;" d="M 3.174573 0.000370099 L 0.199485 1.762863 L 0.198687 0.000848847 L 0.197714 -1.765073 Z M 3.174573 0.000370099 " transform="matrix(-0.997595,0.0447901,0.0447901,0.997595,166.690359,250.90041)"/>
<path style="fill:none;stroke-width:0.3985;stroke-linecap:butt;stroke-linejoin:miter;stroke:rgb(98.039246%,70.588684%,0%);stroke-opacity:1;stroke-miterlimit:10;" d="M 130.598181 -17.413907 C 157.043681 -17.413907 178.48249 -38.852716 178.48249 -65.298216 C 178.48249 -90.578095 158.89381 -111.281546 134.06375 -113.061268 " transform="matrix(0.998664,0,0,-0.998664,32.705266,146.722647)"/>
<path style="fill-rule:nonzero;fill:rgb(98.039246%,70.588684%,0%);fill-opacity:1;stroke-width:0.3985;stroke-linecap:butt;stroke-linejoin:miter;stroke:rgb(98.039246%,70.588684%,0%);stroke-opacity:1;stroke-miterlimit:10;" d="M 3.174753 0.00168282 L 0.198029 1.762716 L 0.199932 0.00124784 L 0.197783 -1.763985 Z M 3.174753 0.00168282 " transform="matrix(-0.997964,0.036621,0.036621,0.997964,166.691667,259.624245)"/>
<path style="fill:none;stroke-width:0.3985;stroke-linecap:butt;stroke-linejoin:miter;stroke:rgb(98.039246%,70.588684%,0%);stroke-opacity:1;stroke-miterlimit:10;" d="M 130.598181 -8.706958 C 161.850887 -8.706958 187.189439 -34.041599 187.189439 -65.298216 C 187.189439 -95.389213 163.704927 -119.992407 134.067662 -121.783863 " transform="matrix(0.998664,0,0,-0.998664,32.705266,146.722647)"/>
<path style="fill-rule:nonzero;fill:rgb(98.039246%,70.588684%,0%);fill-opacity:1;stroke-width:0.3985;stroke-linecap:butt;stroke-linejoin:miter;stroke:rgb(98.039246%,70.588684%,0%);stroke-opacity:1;stroke-miterlimit:10;" d="M 3.174746 0.000128381 L 0.200387 1.763529 L 0.200397 -0.00148362 L 0.200528 -1.762586 Z M 3.174746 0.000128381 " transform="matrix(-0.998134,0.0309785,0.0309785,0.998134,166.692256,268.339023)"/>
<path style="fill:none;stroke-width:0.3985;stroke-linecap:butt;stroke-linejoin:miter;stroke:rgb(98.039246%,70.588684%,0%);stroke-opacity:1;stroke-miterlimit:10;" d="M 130.598181 -0.00000918463 C 166.658093 -0.00000918463 195.892476 -29.234393 195.892476 -65.298216 C 195.892476 -100.196419 168.516045 -128.699356 134.067662 -130.506458 " transform="matrix(0.998664,0,0,-0.998664,32.705266,146.722647)"/>
<path style="fill-rule:nonzero;fill:rgb(98.039246%,70.588684%,0%);fill-opacity:1;stroke-width:0.3985;stroke-linecap:butt;stroke-linejoin:miter;stroke:rgb(98.039246%,70.588684%,0%);stroke-opacity:1;stroke-miterlimit:10;" d="M 3.174767 -0.000886596 L 0.197319 1.761746 L 0.200869 0.000763428 L 0.200405 -1.764024 Z M 3.174767 -0.000886596 " transform="matrix(-0.998254,0.0268241,0.0268241,0.998254,166.692686,277.048537)"/>
<path style="fill:none;stroke-width:0.3985;stroke-linecap:butt;stroke-linejoin:miter;stroke:rgb(98.039246%,70.588684%,0%);stroke-opacity:1;stroke-miterlimit:10;" d="M 130.598181 8.70694 C 171.46921 8.70694 204.599426 -24.427187 204.599426 -65.298216 C 204.599426 -105.007536 173.327162 -137.410216 134.067662 -139.221231 " transform="matrix(0.998664,0,0,-0.998664,32.705266,146.722647)"/>
<path style="fill-rule:nonzero;fill:rgb(98.039246%,70.588684%,0%);fill-opacity:1;stroke-width:0.3985;stroke-linecap:butt;stroke-linejoin:miter;stroke:rgb(98.039246%,70.588684%,0%);stroke-opacity:1;stroke-miterlimit:10;" d="M 3.174804 -0.00145626 L 0.199869 1.76332 L 0.201072 -0.00138538 L 0.198457 -1.762087 Z M 3.174804 -0.00145626 " transform="matrix(-0.998324,0.0236683,0.0236683,0.998324,166.692955,285.754437)"/>
<path style="fill:none;stroke-width:0.3985;stroke-linecap:butt;stroke-linejoin:miter;stroke:rgb(98.039246%,70.588684%,0%);stroke-opacity:1;stroke-miterlimit:10;" d="M 130.598181 17.413889 C 176.276416 17.413889 213.306375 -19.616069 213.306375 -65.298216 C 213.306375 -109.814742 178.13828 -146.117165 134.067662 -147.936003 " transform="matrix(0.998664,0,0,-0.998664,32.705266,146.722647)"/>
<path style="fill-rule:nonzero;fill:rgb(98.039246%,70.588684%,0%);fill-opacity:1;stroke-width:0.3985;stroke-linecap:butt;stroke-linejoin:miter;stroke:rgb(98.039246%,70.588684%,0%);stroke-opacity:1;stroke-miterlimit:10;" d="M 3.174827 -0.00179712 L 0.199598 1.76317 L 0.197428 -0.00131934 L 0.199253 -1.761981 Z M 3.174827 -0.00179712 " transform="matrix(-0.998404,0.0211517,0.0211517,0.998404,166.693235,294.458079)"/>
<g clip-path="url(#clip1)" clip-rule="nonzero">
<path style="fill:none;stroke-width:0.3985;stroke-linecap:butt;stroke-linejoin:miter;stroke:rgb(98.039246%,70.588684%,0%);stroke-opacity:1;stroke-miterlimit:10;" d="M 130.598181 26.120838 C 181.087534 26.120838 222.013324 -14.808863 222.013324 -65.298216 C 222.013324 -114.62586 182.949397 -154.828026 134.067662 -156.650775 " transform="matrix(0.998664,0,0,-0.998664,32.705266,146.722647)"/>
</g>
<path style="fill-rule:nonzero;fill:rgb(98.039246%,70.588684%,0%);fill-opacity:1;stroke-width:0.3985;stroke-linecap:butt;stroke-linejoin:miter;stroke:rgb(98.039246%,70.588684%,0%);stroke-opacity:1;stroke-miterlimit:10;" d="M 3.174875 0.000989343 L 0.200172 1.763878 L 0.197587 -0.000519196 L 0.198912 -1.764992 Z M 3.174875 0.000989343 " transform="matrix(-0.998454,0.0191743,0.0191743,0.998454,166.693385,303.160792)"/>
</g>
</svg>
