<?xml version="1.0" encoding="UTF-8"?>
<svg xmlns="http://www.w3.org/2000/svg" xmlns:xlink="http://www.w3.org/1999/xlink" width="255.118pt" height="552.756pt" viewBox="0 0 255.118 552.756" version="1.2">
<g id="surface1">
<path style="fill:none;stroke-width:0.3985;stroke-linecap:butt;stroke-linejoin:miter;stroke:rgb(0%,0%,0%);stroke-opacity:1;stroke-miterlimit:10;" d="M 85.04058 -0.00131703 L 85.04058 -85.040397 M 85.04058 -85.040397 L 85.04058 -170.079477 M 85.04058 -170.079477 L 85.04058 -170.079477 " transform="matrix(0.996555,0,0,-0.996555,42.373505,191.510406)"/>
<path style="fill:none;stroke-width:0.3985;stroke-linecap:butt;stroke-linejoin:miter;stroke:rgb(0%,0%,0%);stroke-opacity:1;stroke-miterlimit:10;" d="M 85.04058 -170.079477 L 85.04058 -170.079477 " transform="matrix(0.996555,0,0,-0.996555,42.373505,191.510406)"/>
<path style="fill:none;stroke-width:0.3985;stroke-linecap:butt;stroke-linejoin:miter;stroke:rgb(0%,0%,0%);stroke-opacity:1;stroke-miterlimit:10;" d="M 85.04058 -0.00131703 L 85.04058 -0.00131703 " transform="matrix(0.996555,0,0,-0.996555,42.373505,191.510406)"/>
<path style="fill:none;stroke-width:0.3985;stroke-linecap:butt;stroke-linejoin:miter;stroke:rgb(0%,0%,0%);stroke-opacity:1;stroke-miterlimit:10;" d="M 85.04058 -0.00131703 L 85.04058 -0.00131703 " transform="matrix(0.996555,0,0,-0.996555,42.373505,191.510406)"/>
<path style="fill:none;stroke-width:0.79701;stroke-linecap:butt;stroke-linejoin:miter;stroke:rgb(0%,0%,0%);stroke-opacity:1;stroke-miterlimit:10;" d="M 85.04058 -170.079477 L 102.048396 -170.079477 " transform="matrix(0.996555,0,0,-0.996555,42.373505,191.510406)"/>
<path style="fill:none;stroke-width:0.79701;stroke-linecap:butt;stroke-linejoin:miter;stroke:rgb(0%,0%,0%);stroke-opacity:1;stroke-miterlimit:10;" d="M 85.04058 -170.079477 L 68.032764 -170.079477 " transform="matrix(0.996555,0,0,-0.996555,42.373505,191.510406)"/>
<path style="fill:none;stroke-width:0.79701;stroke-linecap:butt;stroke-linejoin:miter;stroke:rgb(0%,0%,0%);stroke-opacity:1;stroke-miterlimit:10;" d="M 85.04058 -0.00131703 L 68.032764 -0.00131703 " transform="matrix(0.996555,0,0,-0.996555,42.373505,191.510406)"/>
<path style="fill:none;stroke-width:0.79701;stroke-linecap:butt;stroke-linejoin:miter;stroke:rgb(0%,0%,0%);stroke-opacity:1;stroke-miterlimit:10;" d="M 85.04058 -0.00131703 L 102.048396 -0.00131703 " transform="matrix(0.996555,0,0,-0.996555,42.373505,191.510406)"/>
<path style="fill:none;stroke-width:0.3985;stroke-linecap:butt;stroke-linejoin:miter;stroke:rgb(98.039246%,70.588684%,0%);stroke-opacity:1;stroke-miterlimit:10;" d="M 68.032764 -0.00131703 C 68.032764 42.520183 42.51908 -0.00131703 42.51908 -85.040397 " transform="matrix(0.996555,0,0,-0.996555,42.373505,191.510406)"/>
<path style="fill:none;stroke-width:0.3985;stroke-linecap:butt;stroke-linejoin:miter;stroke:rgb(98.039246%,70.588684%,0%);stroke-opacity:1;stroke-miterlimit:10;" d="M 67.970048 -173.579818 C 66.566776 -210.088414 42.51908 -167.606112 42.51908 -85.040397 " transform="matrix(0.996555,0,0,-0.996555,42.373505,191.510406)"/>
<path style="fill-rule:nonzero;fill:rgb(98.039246%,70.588684%,0%);fill-opacity:1;stroke-width:0.3985;stroke-linecap:butt;stroke-linejoin:miter;stroke:rgb(98.039246%,70.588684%,0%);stroke-opacity:1;stroke-miterlimit:10;" d="M 3.17348 0.00024196 L 0.199942 1.763565 L 0.19778 -0.000735575 L 0.199536 -1.764963 Z M 3.17348 0.00024196 " transform="matrix(0.0187053,-0.996345,-0.996345,-0.0187053,110.104943,364.56423)"/>
<path style="fill:none;stroke-width:0.3985;stroke-linecap:butt;stroke-linejoin:miter;stroke:rgb(98.039246%,70.588684%,0%);stroke-opacity:1;stroke-miterlimit:10;" d="M 79.372614 -0.00131703 C 79.372614 85.041683 21.25833 42.520183 21.25833 -85.040397 " transform="matrix(0.996555,0,0,-0.996555,42.373505,191.510406)"/>
<path style="fill:none;stroke-width:0.3985;stroke-linecap:butt;stroke-linejoin:miter;stroke:rgb(98.039246%,70.588684%,0%);stroke-opacity:1;stroke-miterlimit:10;" d="M 79.337337 -173.55238 C 77.765515 -253.923032 21.25833 -210.829248 21.25833 -85.040397 " transform="matrix(0.996555,0,0,-0.996555,42.373505,191.510406)"/>
<path style="fill-rule:nonzero;fill:rgb(98.039246%,70.588684%,0%);fill-opacity:1;stroke-width:0.3985;stroke-linecap:butt;stroke-linejoin:miter;stroke:rgb(98.039246%,70.588684%,0%);stroke-opacity:1;stroke-miterlimit:10;" d="M 3.173568 -0.00144819 L 0.20034 1.764553 L 0.198187 0.00048351 L 0.199955 -1.763547 Z M 3.173568 -0.00144819 " transform="matrix(0.00985593,-0.996465,-0.996465,-0.00985593,121.436028,364.564679)"/>
<path style="fill:none;stroke-width:0.3985;stroke-linecap:butt;stroke-linejoin:miter;stroke:rgb(98.039246%,70.588684%,0%);stroke-opacity:1;stroke-miterlimit:10;" d="M 102.048396 -0.00131703 C 102.048396 42.520183 127.56208 -0.00131703 127.56208 -85.040397 " transform="matrix(0.996555,0,0,-0.996555,42.373505,191.510406)"/>
<path style="fill:none;stroke-width:0.3985;stroke-linecap:butt;stroke-linejoin:miter;stroke:rgb(98.039246%,70.588684%,0%);stroke-opacity:1;stroke-miterlimit:10;" d="M 102.111112 -173.579818 C 103.510464 -210.088414 127.56208 -167.606112 127.56208 -85.040397 " transform="matrix(0.996555,0,0,-0.996555,42.373505,191.510406)"/>
<path style="fill-rule:nonzero;fill:rgb(98.039246%,70.588684%,0%);fill-opacity:1;stroke-width:0.3985;stroke-linecap:butt;stroke-linejoin:miter;stroke:rgb(98.039246%,70.588684%,0%);stroke-opacity:1;stroke-miterlimit:10;" d="M 3.173513 -0.000503581 L 0.199508 1.764536 L 0.19784 0.000324625 L 0.200091 -1.76396 Z M 3.173513 -0.000503581 " transform="matrix(-0.0186555,-0.996355,-0.996355,0.0186555,144.136827,364.5643)"/>
<path style="fill:none;stroke-width:0.3985;stroke-linecap:butt;stroke-linejoin:miter;stroke:rgb(98.039246%,70.588684%,0%);stroke-opacity:1;stroke-miterlimit:10;" d="M 90.708545 -0.00131703 C 90.708545 85.041683 148.81891 42.520183 148.81891 -85.040397 " transform="matrix(0.996555,0,0,-0.996555,42.373505,191.510406)"/>
<path style="fill:none;stroke-width:0.3985;stroke-linecap:butt;stroke-linejoin:miter;stroke:rgb(98.039246%,70.588684%,0%);stroke-opacity:1;stroke-miterlimit:10;" d="M 90.743823 -173.55238 C 92.315645 -253.923032 148.81891 -210.829248 148.81891 -85.040397 " transform="matrix(0.996555,0,0,-0.996555,42.373505,191.510406)"/>
<path style="fill-rule:nonzero;fill:rgb(98.039246%,70.588684%,0%);fill-opacity:1;stroke-width:0.3985;stroke-linecap:butt;stroke-linejoin:miter;stroke:rgb(98.039246%,70.588684%,0%);stroke-opacity:1;stroke-miterlimit:10;" d="M 3.173565 0.00117378 L 0.199898 1.763184 L 0.198184 -0.000847183 L 0.200389 -1.764917 Z M 3.173565 0.00117378 " transform="matrix(-0.00982603,-0.996465,-0.996465,0.00982603,132.805791,364.564679)"/>
</g>
</svg>
