<?xml version="1.0" encoding="UTF-8"?>
<svg xmlns="http://www.w3.org/2000/svg" xmlns:xlink="http://www.w3.org/1999/xlink" width="255.118pt" height="552.756pt" viewBox="0 0 255.118 552.756" version="1.2">
<g id="surface1">
<path style="fill:none;stroke-width:0.3985;stroke-linecap:butt;stroke-linejoin:miter;stroke:rgb(0%,0%,0%);stroke-opacity:1;stroke-miterlimit:10;" d="M 85.04058 -93.546265 L 85.04058 -131.814831 M 85.04058 -131.814831 L 85.04058 -170.079477 M 85.04058 -170.079477 L 85.04058 -170.079477 " transform="matrix(0.996555,0,0,-0.996555,42.373505,191.510406)"/>
<path style="fill-rule:nonzero;fill:rgb(100%,100%,100%);fill-opacity:1;stroke-width:0.3985;stroke-linecap:butt;stroke-linejoin:miter;stroke:rgb(0%,0%,0%);stroke-opacity:1;stroke-miterlimit:10;" d="M 86.62808 -93.546265 C 86.62808 -92.66824 85.918605 -91.958764 85.04058 -91.958764 C 84.162555 -91.958764 83.453079 -92.66824 83.453079 -93.546265 C 83.453079 -94.42037 84.162555 -95.133766 85.04058 -95.133766 C 85.918605 -95.133766 86.62808 -94.42037 86.62808 -93.546265 Z M 86.62808 -93.546265 " transform="matrix(0.996555,0,0,-0.996555,42.373505,191.510406)"/>
<path style="fill-rule:nonzero;fill:rgb(0%,0%,0%);fill-opacity:1;stroke-width:0.3985;stroke-linecap:butt;stroke-linejoin:miter;stroke:rgb(0%,0%,0%);stroke-opacity:1;stroke-miterlimit:10;" d="M 86.62808 -170.079477 C 86.62808 -169.205372 85.918605 -168.491976 85.04058 -168.491976 C 84.162555 -168.491976 83.453079 -169.205372 83.453079 -170.079477 C 83.453079 -170.957502 84.162555 -171.666978 85.04058 -171.666978 C 85.918605 -171.666978 86.62808 -170.957502 86.62808 -170.079477 Z M 86.62808 -170.079477 " transform="matrix(0.996555,0,0,-0.996555,42.373505,191.510406)"/>
<path style="fill:none;stroke-width:0.3985;stroke-linecap:butt;stroke-linejoin:miter;stroke:rgb(0%,0%,0%);stroke-opacity:1;stroke-miterlimit:10;" d="M 85.04058 -76.534529 L 85.04058 -38.269883 M 85.04058 -38.269883 L 85.04058 -0.00131703 M 85.04058 -0.00131703 L 85.04058 -0.00131703 " transform="matrix(0.996555,0,0,-0.996555,42.373505,191.510406)"/>
<path style="fill-rule:nonzero;fill:rgb(100%,100%,100%);fill-opacity:1;stroke-width:0.3985;stroke-linecap:butt;stroke-linejoin:miter;stroke:rgb(0%,0%,0%);stroke-opacity:1;stroke-miterlimit:10;" d="M 86.62808 -76.534529 C 86.62808 -75.660424 85.918605 -74.947028 85.04058 -74.947028 C 84.162555 -74.947028 83.453079 -75.660424 83.453079 -76.534529 C 83.453079 -77.412554 84.162555 -78.12203 85.04058 -78.12203 C 85.918605 -78.12203 86.62808 -77.412554 86.62808 -76.534529 Z M 86.62808 -76.534529 " transform="matrix(0.996555,0,0,-0.996555,42.373505,191.510406)"/>
<path style="fill-rule:nonzero;fill:rgb(0%,0%,0%);fill-opacity:1;stroke-width:0.3985;stroke-linecap:butt;stroke-linejoin:miter;stroke:rgb(0%,0%,0%);stroke-opacity:1;stroke-miterlimit:10;" d="M 86.62808 -0.00131703 C 86.62808 0.876708 85.918605 1.586184 85.04058 1.586184 C 84.162555 1.586184 83.453079 0.876708 83.453079 -0.00131703 C 83.453079 -0.875422 84.162555 -1.588818 85.04058 -1.588818 C 85.918605 -1.588818 86.62808 -0.875422 86.62808 -0.00131703 Z M 86.62808 -0.00131703 " transform="matrix(0.996555,0,0,-0.996555,42.373505,191.510406)"/>
<path style="fill:none;stroke-width:0.3985;stroke-linecap:butt;stroke-linejoin:miter;stroke:rgb(98.039246%,70.588684%,0%);stroke-opacity:1;stroke-miterlimit:10;" d="M 85.04058 -0.00131703 C 131.058501 46.020524 131.924767 -207.183876 87.631538 -172.396052 " transform="matrix(0.996555,0,0,-0.996555,42.373505,191.510406)"/>
<path style="fill-rule:nonzero;fill:rgb(98.039246%,70.588684%,0%);fill-opacity:1;stroke-width:0.3985;stroke-linecap:butt;stroke-linejoin:miter;stroke:rgb(98.039246%,70.588684%,0%);stroke-opacity:1;stroke-miterlimit:10;" d="M 3.173062 -0.00026281 L 0.198798 1.765304 L 0.199634 0.00221413 L 0.197543 -1.763483 Z M 3.173062 -0.00026281 " transform="matrix(-0.744117,-0.662809,-0.662809,0.744117,129.778925,363.372859)"/>
<path style="fill:none;stroke-width:0.3985;stroke-linecap:butt;stroke-linejoin:miter;stroke:rgb(98.039246%,70.588684%,0%);stroke-opacity:1;stroke-miterlimit:10;" d="M 85.04058 -0.00131703 C 39.018739 46.020524 38.156393 -207.183876 82.449622 -172.396052 " transform="matrix(0.996555,0,0,-0.996555,42.373505,191.510406)"/>
<path style="fill-rule:nonzero;fill:rgb(98.039246%,70.588684%,0%);fill-opacity:1;stroke-width:0.3985;stroke-linecap:butt;stroke-linejoin:miter;stroke:rgb(98.039246%,70.588684%,0%);stroke-opacity:1;stroke-miterlimit:10;" d="M 3.173246 0.0000790672 L 0.197629 1.763268 L 0.196832 0.000142733 L 0.198963 -1.76559 Z M 3.173246 0.0000790672 " transform="matrix(0.744117,-0.662779,-0.662779,-0.744117,124.463004,363.37275)"/>
<path style="fill:none;stroke-width:0.3985;stroke-linecap:butt;stroke-linejoin:miter;stroke:rgb(98.039246%,70.588684%,0%);stroke-opacity:1;stroke-miterlimit:10;" d="M 85.04058 -0.00131703 C 160.440983 107.682186 161.12302 -271.797113 87.078852 -172.9017 " transform="matrix(0.996555,0,0,-0.996555,42.373505,191.510406)"/>
<path style="fill-rule:nonzero;fill:rgb(98.039246%,70.588684%,0%);fill-opacity:1;stroke-width:0.3985;stroke-linecap:butt;stroke-linejoin:miter;stroke:rgb(98.039246%,70.588684%,0%);stroke-opacity:1;stroke-miterlimit:10;" d="M 3.17159 -0.000595751 L 0.200158 1.763979 L 0.199164 -0.00178506 L 0.200469 -1.764374 Z M 3.17159 -0.000595751 " transform="matrix(-0.584479,-0.80713,-0.80713,0.584479,129.208717,363.888357)"/>
<path style="fill:none;stroke-width:0.3985;stroke-linecap:butt;stroke-linejoin:miter;stroke:rgb(98.039246%,70.588684%,0%);stroke-opacity:1;stroke-miterlimit:10;" d="M 85.04058 -0.00131703 C 9.640177 107.682186 8.95814 -271.797113 83.002307 -172.9017 " transform="matrix(0.996555,0,0,-0.996555,42.373505,191.510406)"/>
<path style="fill-rule:nonzero;fill:rgb(98.039246%,70.588684%,0%);fill-opacity:1;stroke-width:0.3985;stroke-linecap:butt;stroke-linejoin:miter;stroke:rgb(98.039246%,70.588684%,0%);stroke-opacity:1;stroke-miterlimit:10;" d="M 3.171753 0.000393356 L 0.200563 1.764165 L 0.199279 0.00154782 L 0.200294 -1.764245 Z M 3.171753 0.000393356 " transform="matrix(0.584479,-0.80711,-0.80711,-0.584479,125.033212,363.888307)"/>
</g>
</svg>
