<?xml version="1.0" encoding="UTF-8"?>
<svg xmlns="http://www.w3.org/2000/svg" xmlns:xlink="http://www.w3.org/1999/xlink" width="254.624pt" height="38.696pt" viewBox="0 0 254.624 38.696" version="1.2">
<defs>
<clipPath id="clip1">
  <path d="M 124 13 L 126 13 L 126 38.394531 L 124 38.394531 Z M 124 13 "/>
</clipPath>
</defs>
<g id="surface1">
<path style="fill:none;stroke-width:0.3985;stroke-linecap:butt;stroke-linejoin:miter;stroke:rgb(0%,0%,0%);stroke-opacity:1;stroke-miterlimit:10;" d="M 63.558542 -0.00123186 L 121.159881 -0.00123186 M 133.065181 -0.00123186 L 190.670457 -0.00123186 " transform="matrix(0.992205,0,0,-0.992205,1.003295,26.186278)"/>
<path style="fill:none;stroke-width:0.3985;stroke-linecap:butt;stroke-linejoin:miter;stroke:rgb(0%,0%,0%);stroke-opacity:1;stroke-miterlimit:10;" d="M 129.077063 -0.00123186 L 133.065181 -0.00123186 M 125.147999 -0.00123186 L 121.159881 -0.00123186 " transform="matrix(0.992205,0,0,-0.992205,1.003295,26.186278)"/>
<g clip-path="url(#clip1)" clip-rule="nonzero">
<path style="fill:none;stroke-width:0.797;stroke-linecap:butt;stroke-linejoin:miter;stroke:rgb(0%,0%,0%);stroke-opacity:1;stroke-miterlimit:10;" d="M 125.147999 11.904068 L 125.147999 -11.906532 " transform="matrix(0.992205,0,0,-0.992205,1.003295,26.186278)"/>
</g>
<path style="fill:none;stroke-width:2.39102;stroke-linecap:butt;stroke-linejoin:miter;stroke:rgb(0%,0%,0%);stroke-opacity:1;stroke-miterlimit:10;" d="M 129.077063 5.951418 L 129.077063 -5.953882 " transform="matrix(0.992205,0,0,-0.992205,1.003295,26.186278)"/>
<path style="fill:none;stroke-width:0.3985;stroke-linecap:butt;stroke-linejoin:miter;stroke:rgb(0%,0%,0%);stroke-opacity:1;stroke-miterlimit:10;" d="M 130.687271 26.191216 L 126.285774 17.39216 " transform="matrix(0.992205,0,0,-0.992205,1.003295,26.186278)"/>
<path style="fill-rule:nonzero;fill:rgb(0%,0%,0%);fill-opacity:1;stroke-width:0.3985;stroke-linecap:butt;stroke-linejoin:miter;stroke:rgb(0%,0%,0%);stroke-opacity:1;stroke-miterlimit:10;" d="M 3.172438 -0.0000650582 L 0.200237 1.762515 L 0.200221 0.00172232 L 0.198444 -1.764352 Z M 3.172438 -0.0000650582 " transform="matrix(-0.443684,0.887389,0.887389,0.443684,126.349025,8.841093)"/>
<path style="fill:none;stroke-width:0.3985;stroke-linecap:butt;stroke-linejoin:miter;stroke:rgb(0%,0%,0%);stroke-opacity:1;stroke-miterlimit:10;" d="M 134.258073 23.813306 L 129.856577 15.010312 " transform="matrix(0.992205,0,0,-0.992205,1.003295,26.186278)"/>
<path style="fill-rule:nonzero;fill:rgb(0%,0%,0%);fill-opacity:1;stroke-width:0.3985;stroke-linecap:butt;stroke-linejoin:miter;stroke:rgb(0%,0%,0%);stroke-opacity:1;stroke-miterlimit:10;" d="M 3.173472 -0.00048421 L 0.19951 1.765617 L 0.197733 -0.000457592 L 0.199478 -1.764772 Z M 3.173472 -0.00048421 " transform="matrix(-0.443684,0.887389,0.887389,0.443684,129.892825,11.203643)"/>
</g>
</svg>
