<?xml version="1.0" encoding="UTF-8"?>
<svg xmlns="http://www.w3.org/2000/svg" xmlns:xlink="http://www.w3.org/1999/xlink" width="255.116pt" height="140.315pt" viewBox="0 0 255.116 140.315" version="1.2">
<defs>
<clipPath id="clip1">
  <path d="M 126 0 L 128 0 L 128 139.632812 L 126 139.632812 Z M 126 0 "/>
</clipPath>
<clipPath id="clip2">
  <path d="M 127.117188 209.453125 C 204.238281 209.453125 266.753906 146.9375 266.753906 69.816406 C 266.753906 -7.300781 204.238281 -69.816406 127.117188 -69.816406 C 50 -69.816406 -12.515625 -7.300781 -12.515625 69.816406 C -12.515625 146.9375 50 209.453125 127.117188 209.453125 "/>
</clipPath>
<clipPath id="clip3">
  <path d="M 0.179688 7 L 254.054688 7 L 254.054688 133 L 0.179688 133 Z M 0.179688 7 "/>
</clipPath>
<clipPath id="clip4">
  <path d="M 127.117188 209.453125 C 204.238281 209.453125 266.753906 146.9375 266.753906 69.816406 C 266.753906 -7.300781 204.238281 -69.816406 127.117188 -69.816406 C 50 -69.816406 -12.515625 -7.300781 -12.515625 69.816406 C -12.515625 146.9375 50 209.453125 127.117188 209.453125 "/>
</clipPath>
</defs>
<g id="surface1">
<g clip-path="url(#clip1)" clip-rule="nonzero">
<g clip-path="url(#clip2)" clip-rule="nonzero">
<path style="fill:none;stroke-width:1.19553;stroke-linecap:butt;stroke-linejoin:miter;stroke:rgb(0%,0%,0%);stroke-opacity:1;stroke-miterlimit:10;" d="M -0.000964491 -70.156482 L -0.000964491 70.158 " transform="matrix(0.995142,0,0,-0.995142,127.118147,69.817161)"/>
</g>
</g>
<g clip-path="url(#clip3)" clip-rule="nonzero">
<g clip-path="url(#clip4)" clip-rule="nonzero">
<path style="fill:none;stroke-width:0.3985;stroke-linecap:butt;stroke-linejoin:miter;stroke:rgb(0%,0%,0%);stroke-opacity:1;stroke-miterlimit:10;" d="M -0.000964491 0.000758926 L 0.0304381 -1.679278 L 0.12072 -3.469224 L 0.273808 -5.231692 L 0.4897 -6.98631 L 0.764473 -8.717376 L 1.098125 -10.436666 L 1.490657 -12.155957 L 1.949919 -13.875247 L 2.464136 -15.559209 L 3.041158 -17.239246 L 3.67706 -18.927133 L 4.375767 -20.583618 L 5.133354 -22.232253 L 5.945895 -23.85341 L 6.821241 -25.458865 L 7.755467 -27.04862 L 8.748573 -28.610897 L 9.792708 -30.137847 L 10.899649 -31.65302 L 12.057618 -33.132866 L 13.278392 -34.59701 L 14.554121 -36.021901 L 15.884805 -37.427166 L 17.270443 -38.785326 L 18.703184 -40.108159 L 20.190881 -41.399589 L 21.729606 -42.647841 L 23.319361 -43.852914 L 24.956219 -45.022659 L 26.644106 -46.149226 L 28.379098 -47.228689 L 30.153342 -48.257123 L 31.978616 -49.242378 L 33.843143 -50.172679 L 35.746923 -51.051951 L 37.693882 -51.880193 L 39.672243 -52.649556 L 41.693783 -53.367889 L 43.746725 -54.019492 L 45.827144 -54.616141 L 47.938966 -55.146059 L 50.082191 -55.621023 L 52.245042 -56.021405 L 54.42752 -56.362908 L 56.637475 -56.637681 L 58.859206 -56.837872 L 61.096638 -56.975258 L 63.349772 -57.041989 L 65.606831 -57.034138 L 67.875666 -56.955632 L 70.144501 -56.802544 L 72.413335 -56.574876 L 74.678245 -56.272626 L 76.943155 -55.903646 L 79.188437 -55.448309 L 81.429795 -54.922316 L 83.651526 -54.325667 L 85.857556 -53.650512 L 88.036108 -52.900776 L 90.195034 -52.076459 L 92.318632 -51.173636 L 94.410828 -50.200156 L 96.475546 -49.156021 L 98.489235 -48.037305 L 100.467596 -46.847933 L 102.394928 -45.591831 L 104.275156 -44.261147 L 106.104355 -42.867659 L 107.870749 -41.40744 L 109.586114 -39.884416 L 111.230823 -38.302512 L 112.820578 -36.657803 L 114.339676 -34.958139 L 115.784194 -33.199596 L 117.158056 -31.390024 L 118.457337 -29.533347 L 119.678111 -27.629567 L 120.812529 -25.678683 L 121.86844 -23.688546 L 122.837994 -21.659156 L 123.729041 -19.598363 L 124.514105 -17.498317 L 125.228514 -15.374719 L 125.836938 -13.223644 L 126.362931 -11.056867 L 126.786866 -8.866539 L 127.120518 -6.660509 L 127.363888 -4.446628 L 127.505199 -2.224897 L 127.560154 0.000758926 L 127.505199 2.226415 L 127.363888 4.448146 L 127.120518 6.662027 L 126.786866 8.868056 L 126.362931 11.05446 L 125.836938 13.225161 L 125.228514 15.376237 L 124.514105 17.499835 L 123.729041 19.595955 L 122.837994 21.660674 L 121.86844 23.686139 L 120.812529 25.680201 L 119.674186 27.62716 L 118.457337 29.53094 L 117.158056 31.391541 L 115.788119 33.201114 L 114.339676 34.955732 L 112.820578 36.655395 L 111.234748 38.300104 L 109.586114 39.885934 L 107.874675 41.408958 L 106.104355 42.865251 L 104.275156 44.262665 L 102.394928 45.589423 L 100.467596 46.849451 L 98.49316 48.038823 L 96.471621 49.153614 L 94.414753 50.201674 L 92.318632 51.175153 L 90.195034 52.074052 L 88.036108 52.898369 L 85.861481 53.65203 L 83.659377 54.327185 L 81.43372 54.927759 L 79.188437 55.449827 L 76.943155 55.901238 L 74.68217 56.278069 L 72.413335 56.576393 L 70.144501 56.804062 L 67.875666 56.953224 L 65.610756 57.035656 L 63.349772 57.043506 L 61.100564 56.976776 L 58.859206 56.83939 L 56.637475 56.635273 L 54.431445 56.364426 L 52.245042 56.026849 L 50.082191 55.622541 L 47.942892 55.151502 L 45.827144 54.617659 L 43.75065 54.024936 L 41.697708 53.369407 L 39.676168 52.654999 L 37.697807 51.885636 L 35.746923 51.053468 L 33.843143 50.178122 L 31.982541 49.247821 L 30.157268 48.258641 L 28.379098 47.234132 L 26.644106 46.150744 L 24.960144 45.032028 L 23.323286 43.862283 L 21.733531 42.653284 L 20.194806 41.405032 L 18.703184 40.105751 L 17.270443 38.790769 L 15.88873 37.432609 L 14.561972 36.03912 L 13.286243 34.614229 L 12.057618 33.130458 L 10.903574 31.666314 L 9.796634 30.15114 L 8.748573 28.624191 L 7.759393 27.065839 L 6.821241 25.460383 L 5.94982 23.858853 L 5.137279 22.253397 L 4.379692 20.604763 L 3.680985 18.944352 L 3.041158 17.240764 L 2.468062 15.584279 L 1.949919 13.88854 L 1.494582 12.177101 L 1.10205 10.489213 L 0.764473 8.718894 L 0.493626 7.042783 L 0.277733 5.307791 L 0.124646 3.580651 L 0.0343634 1.900614 L -0.000964491 0.000758926 L -0.032367 1.900614 L -0.126575 3.580651 L -0.279662 5.307791 L -0.491629 7.042783 L -0.762477 8.718894 L -1.103979 10.489213 L -1.496511 12.177101 L -1.951848 13.88854 L -2.469991 15.584279 L -3.039162 17.240764 L -3.682914 18.944352 L -4.377696 20.604763 L -5.135283 22.253397 L -5.947824 23.858853 L -6.82317 25.460383 L -7.761322 27.065839 L -8.750502 28.624191 L -9.798563 30.15114 L -10.905503 31.666314 L -12.059547 33.130458 L -13.288172 34.614229 L -14.559976 36.03912 L -15.886734 37.432609 L -17.272372 38.790769 L -18.701188 40.105751 L -20.19281 41.405032 L -21.731535 42.653284 L -23.32129 43.862283 L -24.962073 45.032028 L -26.646035 46.150744 L -28.381027 47.234132 L -30.155271 48.258641 L -31.980545 49.247821 L -33.845072 50.178122 L -35.748852 51.053468 L -37.695811 51.885636 L -39.678097 52.654999 L -41.695712 53.369407 L -43.748654 54.024936 L -45.829073 54.617659 L -47.944821 55.151502 L -50.08412 55.622541 L -52.246971 56.026849 L -54.429449 56.364426 L -56.635479 56.635273 L -58.861135 56.83939 L -61.098567 56.976776 L -63.351701 57.043506 L -65.612685 57.035656 L -67.873669 56.953224 L -70.14643 56.804062 L -72.411339 56.576393 L -74.684099 56.278069 L -76.945084 55.901238 L -79.190366 55.449827 L -81.435649 54.927759 L -83.65738 54.327185 L -85.859485 53.65203 L -88.038037 52.898369 L -90.196963 52.074052 L -92.320561 51.175153 L -94.416682 50.201674 L -96.47355 49.153614 L -98.495089 48.038823 L -100.4656 46.849451 L -102.396857 45.589423 L -104.277085 44.262665 L -106.102359 42.865251 L -107.872678 41.408958 L -109.584118 39.885934 L -111.232752 38.300104 L -112.822507 36.655395 L -114.33768 34.955732 L -115.786123 33.201114 L -117.15606 31.391541 L -118.455341 29.53094 L -119.676115 27.62716 L -120.814458 25.680201 L -121.870369 23.686139 L -122.839923 21.660674 L -123.727045 19.595955 L -124.516034 17.499835 L -125.226517 15.376237 L -125.838867 13.225161 L -126.36486 11.05446 L -126.788795 8.864131 L -127.122447 6.662027 L -127.361891 4.444221 L -127.507128 2.22249 L -127.558157 0.000758926 L -127.507128 -2.224897 L -127.361891 -4.446628 L -127.122447 -6.660509 L -126.788795 -8.866539 L -126.36486 -11.056867 L -125.838867 -13.223644 L -125.226517 -15.374719 L -124.516034 -17.498317 L -123.727045 -19.594438 L -122.839923 -21.659156 L -121.870369 -23.688546 L -120.814458 -25.678683 L -119.676115 -27.625642 L -118.455341 -29.533347 L -117.15606 -31.390024 L -115.786123 -33.199596 L -114.33768 -34.954214 L -112.822507 -36.657803 L -111.232752 -38.298587 L -109.584118 -39.884416 L -107.872678 -41.40744 L -106.102359 -42.867659 L -104.277085 -44.261147 L -102.396857 -45.587905 L -100.4656 -46.847933 L -98.495089 -48.037305 L -96.47355 -49.156021 L -94.416682 -50.200156 L -92.320561 -51.173636 L -90.196963 -52.076459 L -88.038037 -52.896851 L -85.859485 -53.650512 L -83.65738 -54.329593 L -81.435649 -54.926241 L -79.190366 -55.448309 L -76.945084 -55.903646 L -74.684099 -56.276551 L -72.411339 -56.574876 L -70.14643 -56.802544 L -67.873669 -56.955632 L -65.612685 -57.038063 L -63.351701 -57.041989 L -61.098567 -56.975258 L -58.861135 -56.841797 L -56.635479 -56.637681 L -54.429449 -56.366834 L -52.246971 -56.025331 L -50.08412 -55.621023 L -47.944821 -55.149984 L -45.829073 -54.616141 L -43.748654 -54.027343 L -41.695712 -53.371815 L -39.678097 -52.653481 L -37.695811 -51.888044 L -35.748852 -51.051951 L -33.845072 -50.176604 L -31.980545 -49.246303 L -30.155271 -48.261048 L -28.381027 -47.232614 L -26.646035 -46.149226 L -24.962073 -45.03051 L -23.32129 -43.860765 L -21.731535 -42.655692 L -20.19281 -41.403514 L -18.701188 -40.108159 L -17.272372 -38.793177 L -15.886734 -37.431091 L -14.559976 -36.037602 L -13.288172 -34.612711 L -12.059547 -33.132866 L -10.905503 -31.668721 L -9.798563 -30.153548 L -8.750502 -28.622673 L -7.761322 -27.064321 L -6.82317 -25.458865 L -5.947824 -23.857335 L -5.135283 -22.251879 L -4.377696 -20.603245 L -3.682914 -18.94676 L -3.039162 -17.239246 L -2.469991 -15.586686 L -1.951848 -13.887023 L -1.496511 -12.175583 L -1.103979 -10.487696 L -0.762477 -8.717376 L -0.491629 -7.041265 L -0.279662 -5.306273 L -0.126575 -3.583058 L -0.032367 -1.903021 L -0.000964491 0.000758926 " transform="matrix(0.995142,0,0,-0.995142,127.118147,69.817161)"/>
</g>
</g>
</g>
</svg>
