<?xml version="1.0" encoding="UTF-8"?>
<svg xmlns="http://www.w3.org/2000/svg" xmlns:xlink="http://www.w3.org/1999/xlink" width="254.209pt" height="360.863pt" viewBox="0 0 254.209 360.863" version="1.2">
<defs>
<clipPath id="clip1">
  <path d="M 0 1 L 253.421875 1 L 253.421875 266 L 0 266 Z M 0 1 "/>
</clipPath>
<clipPath id="clip2">
  <path d="M 122 0.492188 L 132 0.492188 L 132 26 L 122 26 Z M 122 0.492188 "/>
</clipPath>
<clipPath id="clip3">
  <path d="M 106 0.492188 L 150 0.492188 L 150 33 L 106 33 Z M 106 0.492188 "/>
</clipPath>
<clipPath id="clip4">
  <path d="M 132 238 L 133 238 L 133 360.234375 L 132 360.234375 Z M 132 238 "/>
</clipPath>
</defs>
<g id="surface1">
<g clip-path="url(#clip1)" clip-rule="nonzero">
<path style="fill:none;stroke-width:0.79701;stroke-linecap:butt;stroke-linejoin:miter;stroke:rgb(0%,0%,0%);stroke-opacity:1;stroke-miterlimit:10;" d="M -0.00193113 -0.000576893 C 66.752012 -5.839 116.131748 -64.689521 110.293325 -131.443464 C 104.454902 -198.197407 45.604382 -247.577143 -21.149562 -241.73872 C -87.903505 -235.896379 -137.283241 -177.045858 -131.444818 -110.291915 C -126.311708 -51.645151 -79.800244 -5.129769 -21.149562 -0.000576893 " transform="matrix(0.996898,0,0,-0.996898,137.251925,12.757237)"/>
</g>
<path style="fill:none;stroke-width:0.3985;stroke-linecap:butt;stroke-linejoin:miter;stroke:rgb(0%,0%,0%);stroke-opacity:1;stroke-miterlimit:10;" d="M -0.00193113 -0.000576893 L -6.608362 -0.000576893 M -14.543131 -0.000576893 L -21.149562 -0.000576893 " transform="matrix(0.996898,0,0,-0.996898,137.251925,12.757237)"/>
<g clip-path="url(#clip2)" clip-rule="nonzero">
<path style="fill:none;stroke-width:0.797;stroke-linecap:butt;stroke-linejoin:miter;stroke:rgb(0%,0%,0%);stroke-opacity:1;stroke-miterlimit:10;" d="M -6.608362 -11.90469 L -6.608362 11.907455 M -14.543131 -11.90469 L -14.543131 11.907455 " transform="matrix(0.996898,0,0,-0.996898,137.251925,12.757237)"/>
</g>
<g clip-path="url(#clip3)" clip-rule="nonzero">
<path style="fill:none;stroke-width:0.797;stroke-linecap:butt;stroke-linejoin:miter;stroke:rgb(0%,0%,0%);stroke-opacity:1;stroke-miterlimit:10;" d="M 1.330326 11.907455 L -19.217788 -8.640659 " transform="matrix(0.996898,0,0,-0.996898,137.251925,12.757237)"/>
</g>
<path style="fill-rule:nonzero;fill:rgb(0%,0%,0%);fill-opacity:1;stroke-width:0.797;stroke-linecap:butt;stroke-linejoin:miter;stroke:rgb(0%,0%,0%);stroke-opacity:1;stroke-miterlimit:10;" d="M 4.016666 -0.00164686 L 0.398037 2.181792 L 0.398006 -0.00159568 L 0.400746 -2.182212 Z M 4.016666 -0.00164686 " transform="matrix(-0.704887,0.704907,0.704907,0.704887,118.234799,21.232286)"/>
<g clip-path="url(#clip4)" clip-rule="nonzero">
<path style="fill:none;stroke-width:0.3985;stroke-linecap:butt;stroke-linejoin:miter;stroke:rgb(0%,0%,0%);stroke-opacity:1;stroke-miterlimit:10;" d="M -4.508097 -227.032947 L -4.508097 -245.233937 M -4.508097 -330.16536 L -4.508097 -348.36635 " transform="matrix(0.996898,0,0,-0.996898,137.251925,12.757237)"/>
</g>
<path style="fill:none;stroke-width:0.797;stroke-linecap:butt;stroke-linejoin:miter;stroke:rgb(0%,0%,0%);stroke-opacity:1;stroke-miterlimit:10;" d="M 8.230637 -325.067516 L 8.230637 -250.327864 C 8.230637 -247.514449 2.529358 -245.233937 -4.508097 -245.233937 C -11.545551 -245.233937 -17.24683 -247.514449 -17.24683 -250.327864 L -17.24683 -325.067516 C -17.24683 -327.884849 -11.545551 -330.16536 -4.508097 -330.16536 C 2.529358 -330.16536 8.230637 -327.884849 8.230637 -325.067516 " transform="matrix(0.996898,0,0,-0.996898,137.251925,12.757237)"/>
<path style="fill:none;stroke-width:0.797;stroke-linecap:butt;stroke-linejoin:miter;stroke:rgb(0%,0%,0%);stroke-opacity:1;stroke-miterlimit:10;" d="M 8.230637 -325.067516 C 8.230637 -322.254101 2.529358 -319.973589 -4.508097 -319.973589 C -11.545551 -319.973589 -17.24683 -322.254101 -17.24683 -325.067516 " transform="matrix(0.996898,0,0,-0.996898,137.251925,12.757237)"/>
<path style="fill:none;stroke-width:0.3985;stroke-linecap:butt;stroke-linejoin:miter;stroke:rgb(0%,0%,0%);stroke-opacity:1;stroke-miterlimit:10;" d="M -4.508097 -325.067516 L -4.508097 -330.16536 " transform="matrix(0.996898,0,0,-0.996898,137.251925,12.757237)"/>
<path style="fill:none;stroke-width:0.79701;stroke-linecap:butt;stroke-linejoin:miter;stroke:rgb(0%,0%,0%);stroke-opacity:1;stroke-miterlimit:10;" d="M -4.508097 -227.032947 C 20.522673 -224.842559 39.041054 -202.774104 36.850665 -177.743334 C 34.660277 -152.708646 12.591822 -134.194184 -12.438948 -136.380654 C -37.469717 -138.571042 -55.988098 -160.639498 -53.79771 -185.674185 C -51.873773 -207.668191 -34.432954 -225.109011 -12.438948 -227.032947 " transform="matrix(0.996898,0,0,-0.996898,137.251925,12.757237)"/>
<path style="fill:none;stroke-width:0.3985;stroke-linecap:butt;stroke-linejoin:miter;stroke:rgb(0%,0%,0%);stroke-opacity:1;stroke-miterlimit:10;" d="M -12.438948 -227.032947 L -14.844848 -238.682365 M -14.844848 -238.682365 L -17.24683 -250.327864 " transform="matrix(0.996898,0,0,-0.996898,137.251925,12.757237)"/>
<path style="fill-rule:nonzero;fill:rgb(0%,0%,0%);fill-opacity:1;stroke-width:0.3985;stroke-linecap:butt;stroke-linejoin:miter;stroke:rgb(0%,0%,0%);stroke-opacity:1;stroke-miterlimit:10;" d="M -15.659876 -250.327864 C -15.659876 -249.454059 -16.373026 -248.74091 -17.24683 -248.74091 C -18.124553 -248.74091 -18.833784 -249.454059 -18.833784 -250.327864 C -18.833784 -251.205586 -18.124553 -251.914817 -17.24683 -251.914817 C -16.373026 -251.914817 -15.659876 -251.205586 -15.659876 -250.327864 Z M -15.659876 -250.327864 " transform="matrix(0.996898,0,0,-0.996898,137.251925,12.757237)"/>
</g>
</svg>
